<?xml version="1.0" encoding="utf-8" ?>
<svg baseProfile="full" height="600px" version="1.1" viewBox="0 0 800 600" width="800px" xmlns="http://www.w3.org/2000/svg" xmlns:ev="http://www.w3.org/2001/xml-events" xmlns:xlink="http://www.w3.org/1999/xlink"><defs /><rect fill="white" height="600" width="800" x="0" y="0" /><polygon fill="none" id="floor_plan_boundary" points="279.765625,103.828125 279.765625,228.28125 288.203125,228.28125 290.3125,112.265625 526.5625,112.265625 528.671875,131.25 553.984375,133.359375 553.984375,416.015625 446.40625,418.125 446.40625,491.953125 364.140625,491.953125 362.03125,470.859375 248.125,470.859375 246.015625,285.234375 288.203125,278.90625 237.578125,274.6875 237.578125,479.296875 351.484375,479.296875 353.59375,496.171875 452.734375,496.171875 454.84375,426.5625 562.421875,426.5625 562.421875,122.8125 539.21875,122.8125 537.109375,103.828125" stroke="black" stroke-linecap="butt" stroke-linejoin="miter" stroke-width="4" /><g id="room_living_room"><polygon fill="rgb(238,232,170)" fill-opacity="0.7" points="526.5625,114.375 435.859375,114.375 431.640625,171.328125 347.265625,171.328125 347.265625,230.390625 290.3125,224.0625 290.3125,272.578125 387.34375,274.6875 389.453125,325.3125 425.3125,325.3125 425.3125,272.578125 551.875,272.578125 551.875,133.359375 528.671875,133.359375" stroke="black" stroke-width="1.5" /><text dominant-baseline="middle" fill="black" font-family="Arial" font-size="12px" font-weight="bold" text-anchor="middle" x="422.1484375" y="220.8984375">Living Room</text></g><g id="room_master_bedroom"><polygon fill="rgb(255,165,0)" fill-opacity="0.7" points="381.015625,283.125 326.171875,283.125 324.0625,344.296875 248.125,344.296875 248.125,468.75 351.484375,468.75 353.59375,327.421875 381.015625,325.3125" stroke="black" stroke-width="1.5" /><text dominant-baseline="middle" fill="black" font-family="Arial" font-size="12px" font-weight="bold" text-anchor="middle" x="315.625" y="376.9921875">Master Bedroom</text></g><g id="room_common_room_2"><polygon fill="rgb(255,215,0)" fill-opacity="0.7" points="433.75,285.234375 433.75,325.3125 456.953125,329.53125 454.84375,416.015625 551.875,416.015625 551.875,285.234375" stroke="black" stroke-width="1.5" /><text dominant-baseline="middle" fill="black" font-family="Arial" font-size="12px" font-weight="bold" text-anchor="middle" x="493.8671875" y="351.6796875">Common Room 2</text></g><g id="room_common_room"><polygon fill="rgb(255,215,0)" fill-opacity="0.7" points="362.03125,333.75 362.03125,416.015625 446.40625,416.015625 446.40625,333.75" stroke="black" stroke-width="1.5" /><text dominant-baseline="middle" fill="black" font-family="Arial" font-size="12px" font-weight="bold" text-anchor="middle" x="405.2734375" y="375.9375">Common Room</text></g><g id="room_bathroom_2"><polygon fill="rgb(173,216,230)" fill-opacity="0.7" points="290.3125,114.375 290.3125,215.625 315.625,215.625 317.734375,224.0625 338.828125,224.0625 336.71875,114.375" stroke="black" stroke-width="1.5" /><text dominant-baseline="middle" fill="black" font-family="Arial" font-size="12px" font-weight="bold" text-anchor="middle" x="315.625" y="170.2734375">Bathroom 2</text></g><g id="room_balcony"><polygon fill="rgb(107,142,35)" fill-opacity="0.7" points="364.140625,428.671875 364.140625,489.84375 446.40625,489.84375 446.40625,428.671875" stroke="black" stroke-width="1.5" /><text dominant-baseline="middle" fill="black" font-family="Arial" font-size="12px" font-weight="bold" text-anchor="middle" x="406.328125" y="460.3125">Balcony</text></g><g id="room_kitchen"><polygon fill="rgb(240,128,128)" fill-opacity="0.7" points="349.375,114.375 347.265625,162.890625 425.3125,162.890625 423.203125,114.375" stroke="black" stroke-width="1.5" /><text dominant-baseline="middle" fill="black" font-family="Arial" font-size="12px" font-weight="bold" text-anchor="middle" x="387.34375" y="139.6875">Kitchen</text></g><g id="room_bathroom"><polygon fill="rgb(173,216,230)" fill-opacity="0.7" points="248.125,285.234375 248.125,335.859375 313.515625,335.859375 313.515625,285.234375" stroke="black" stroke-width="1.5" /><text dominant-baseline="middle" fill="black" font-family="Arial" font-size="12px" font-weight="bold" text-anchor="middle" x="281.875" y="311.6015625">Bathroom</text></g><rect fill="red" fill-opacity="0.9" height="48.515625" id="main_door" stroke="darkred" stroke-width="3" width="10.546875" x="279.765625" y="230.390625" /><text dominant-baseline="middle" fill="white" font-family="Arial" font-size="9px" font-weight="bold" text-anchor="middle" x="285.0390625" y="254.6484375">Main Door</text><text fill="black" font-family="Arial" font-size="18px" font-weight="bold" text-anchor="middle" x="400.0" y="30">Floor Plan - ID: 10089</text></svg>