<?xml version="1.0" encoding="utf-8" ?>
<svg baseProfile="full" height="600px" version="1.1" viewBox="0 0 800 600" width="800px" xmlns="http://www.w3.org/2000/svg" xmlns:ev="http://www.w3.org/2001/xml-events" xmlns:xlink="http://www.w3.org/1999/xlink"><defs /><rect fill="white" height="600" width="800" x="0" y="0" /><polygon fill="none" id="floor_plan_boundary" points="248.125,133.359375 248.125,466.640625 368.359375,466.640625 252.34375,460.3125 254.453125,137.578125 547.65625,139.6875 547.65625,460.3125 414.765625,466.640625 551.875,466.640625 551.875,133.359375" stroke="black" stroke-linecap="butt" stroke-linejoin="miter" stroke-width="4" /><g id="room_living_room"><polygon fill="rgb(238,232,170)" fill-opacity="0.7" points="254.453125,253.59375 254.453125,460.3125 423.203125,460.3125 423.203125,325.3125 482.265625,323.203125 482.265625,253.59375" stroke="black" stroke-width="1.5" /><text dominant-baseline="middle" fill="black" font-family="Arial" font-size="12px" font-weight="bold" text-anchor="middle" x="369.4140625" y="358.0078125">Living Room</text></g><g id="room_master_bedroom"><polygon fill="rgb(255,165,0)" fill-opacity="0.7" points="431.640625,331.640625 431.640625,460.3125 545.546875,460.3125 545.546875,331.640625" stroke="black" stroke-width="1.5" /><text dominant-baseline="middle" fill="black" font-family="Arial" font-size="12px" font-weight="bold" text-anchor="middle" x="489.6484375" y="397.03125">Master Bedroom</text></g><g id="room_common_room"><polygon fill="rgb(255,215,0)" fill-opacity="0.7" points="254.453125,139.6875 254.453125,245.15625 370.46875,245.15625 370.46875,139.6875" stroke="black" stroke-width="1.5" /><text dominant-baseline="middle" fill="black" font-family="Arial" font-size="12px" font-weight="bold" text-anchor="middle" x="313.515625" y="193.4765625">Common Room</text></g><g id="room_room_6"><polygon fill="rgb(218,112,214)" fill-opacity="0.7" points="378.90625,139.6875 378.90625,245.15625 469.609375,245.15625 469.609375,139.6875" stroke="black" stroke-width="1.5" /><text dominant-baseline="middle" fill="black" font-family="Arial" font-size="12px" font-weight="bold" text-anchor="middle" x="425.3125" y="193.4765625">Room 6</text></g><g id="room_kitchen"><polygon fill="rgb(240,128,128)" fill-opacity="0.7" points="478.046875,139.6875 478.046875,245.15625 545.546875,245.15625 545.546875,139.6875" stroke="black" stroke-width="1.5" /><text dominant-baseline="middle" fill="black" font-family="Arial" font-size="12px" font-weight="bold" text-anchor="middle" x="512.8515625" y="193.4765625">Kitchen</text></g><g id="room_bathroom"><polygon fill="rgb(173,216,230)" fill-opacity="0.7" points="490.703125,253.59375 490.703125,323.203125 545.546875,323.203125 545.546875,253.59375" stroke="black" stroke-width="1.5" /><text dominant-baseline="middle" fill="black" font-family="Arial" font-size="12px" font-weight="bold" text-anchor="middle" x="519.1796875" y="289.453125">Bathroom</text></g><rect fill="red" fill-opacity="0.9" height="6.328125" id="main_door" stroke="darkred" stroke-width="3" width="44.296875" x="370.46875" y="462.421875" /><text dominant-baseline="middle" fill="white" font-family="Arial" font-size="9px" font-weight="bold" text-anchor="middle" x="392.6171875" y="465.5859375">Main Door</text><text fill="black" font-family="Arial" font-size="18px" font-weight="bold" text-anchor="middle" x="400.0" y="30">Floor Plan - ID: 1011</text></svg>