<?xml version="1.0" encoding="utf-8" ?>
<svg baseProfile="full" height="600px" version="1.1" viewBox="0 0 800 600" width="800px" xmlns="http://www.w3.org/2000/svg" xmlns:ev="http://www.w3.org/2001/xml-events" xmlns:xlink="http://www.w3.org/1999/xlink"><defs /><rect fill="white" height="600" width="800" x="0" y="0" /><polygon fill="none" id="floor_plan_boundary" points="199.609375,127.03125 199.609375,285.234375 205.9375,131.25 254.453125,133.359375 254.453125,186.09375 393.671875,186.09375 395.78125,169.21875 475.9375,169.21875 478.046875,238.828125 596.171875,240.9375 594.0625,468.75 484.375,468.75 482.265625,441.328125 389.453125,441.328125 387.34375,468.75 260.78125,468.75 258.671875,342.1875 205.9375,342.1875 199.609375,323.203125 199.609375,346.40625 254.453125,348.515625 254.453125,472.96875 393.671875,472.96875 395.78125,445.546875 475.9375,445.546875 478.046875,472.96875 600.390625,472.96875 600.390625,234.609375 484.375,234.609375 482.265625,165.0 389.453125,165.0 387.34375,181.875 260.78125,181.875 258.671875,127.03125" stroke="black" stroke-linecap="butt" stroke-linejoin="miter" stroke-width="4" /><g id="room_living_room"><polygon fill="rgb(238,232,170)" fill-opacity="0.7" points="260.78125,188.203125 260.78125,285.234375 205.9375,287.34375 205.9375,340.078125 260.78125,342.1875 260.78125,466.640625 387.34375,466.640625 387.34375,323.203125 475.9375,321.09375 475.9375,287.34375 334.609375,287.34375 332.5,188.203125" stroke="black" stroke-width="1.5" /><text dominant-baseline="middle" fill="black" font-family="Arial" font-size="12px" font-weight="bold" text-anchor="middle" x="341.9921875" y="328.4765625">Living Room</text></g><g id="room_master_bedroom"><polygon fill="rgb(255,165,0)" fill-opacity="0.7" points="484.375,240.9375 484.375,466.640625 594.0625,466.640625 594.0625,329.53125 535.0,331.640625 530.78125,240.9375" stroke="black" stroke-width="1.5" /><text dominant-baseline="middle" fill="black" font-family="Arial" font-size="12px" font-weight="bold" text-anchor="middle" x="540.2734375" y="354.84375">Master Bedroom</text></g><g id="room_common_room"><polygon fill="rgb(255,215,0)" fill-opacity="0.7" points="395.78125,329.53125 395.78125,439.21875 475.9375,439.21875 475.9375,329.53125" stroke="black" stroke-width="1.5" /><text dominant-baseline="middle" fill="black" font-family="Arial" font-size="12px" font-weight="bold" text-anchor="middle" x="436.9140625" y="385.4296875">Common Room</text></g><g id="room_common_room_2"><polygon fill="rgb(255,215,0)" fill-opacity="0.7" points="395.78125,171.328125 395.78125,278.90625 475.9375,278.90625 475.9375,171.328125" stroke="black" stroke-width="1.5" /><text dominant-baseline="middle" fill="black" font-family="Arial" font-size="12px" font-weight="bold" text-anchor="middle" x="436.9140625" y="226.171875">Common Room 2</text></g><g id="room_bathroom"><polygon fill="rgb(173,216,230)" fill-opacity="0.7" points="539.21875,240.9375 539.21875,321.09375 594.0625,321.09375 594.0625,240.9375" stroke="black" stroke-width="1.5" /><text dominant-baseline="middle" fill="black" font-family="Arial" font-size="12px" font-weight="bold" text-anchor="middle" x="567.6953125" y="282.0703125">Bathroom</text></g><g id="room_bathroom_2"><polygon fill="rgb(173,216,230)" fill-opacity="0.7" points="340.9375,188.203125 340.9375,278.90625 387.34375,278.90625 387.34375,188.203125" stroke="black" stroke-width="1.5" /><text dominant-baseline="middle" fill="black" font-family="Arial" font-size="12px" font-weight="bold" text-anchor="middle" x="365.1953125" y="234.609375">Bathroom 2</text></g><g id="room_kitchen"><polygon fill="rgb(240,128,128)" fill-opacity="0.7" points="205.9375,188.203125 205.9375,278.90625 252.34375,278.90625 252.34375,188.203125" stroke="black" stroke-width="1.5" /><text dominant-baseline="middle" fill="black" font-family="Arial" font-size="12px" font-weight="bold" text-anchor="middle" x="230.1953125" y="234.609375">Kitchen</text></g><g id="room_balcony"><polygon fill="rgb(107,142,35)" fill-opacity="0.7" points="205.9375,133.359375 205.9375,179.765625 252.34375,179.765625 252.34375,133.359375" stroke="black" stroke-width="1.5" /><text dominant-baseline="middle" fill="black" font-family="Arial" font-size="12px" font-weight="bold" text-anchor="middle" x="230.1953125" y="157.6171875">Balcony</text></g><rect fill="red" fill-opacity="0.9" height="35.859375" id="main_door" stroke="darkred" stroke-width="3" width="6.328125" x="199.609375" y="287.34375" /><text dominant-baseline="middle" fill="white" font-family="Arial" font-size="9px" font-weight="bold" text-anchor="middle" x="202.7734375" y="305.2734375">Main Door</text><text fill="black" font-family="Arial" font-size="18px" font-weight="bold" text-anchor="middle" x="400.0" y="30">Floor Plan - ID: 10201</text></svg>