<?xml version="1.0" encoding="utf-8" ?>
<svg baseProfile="full" height="600px" version="1.1" viewBox="0 0 800 600" width="800px" xmlns="http://www.w3.org/2000/svg" xmlns:ev="http://www.w3.org/2001/xml-events" xmlns:xlink="http://www.w3.org/1999/xlink"><defs /><rect fill="white" height="600" width="800" x="0" y="0" /><polygon fill="none" id="floor_plan_boundary" points="262.890625,154.453125 262.890625,445.546875 286.09375,445.546875 286.09375,437.109375 271.328125,435.0 273.4375,162.890625 528.671875,165.0 528.671875,365.390625 475.9375,367.5 475.9375,409.6875 437.96875,411.796875 435.859375,437.109375 315.625,437.109375 315.625,445.546875 446.40625,445.546875 448.515625,420.234375 484.375,420.234375 486.484375,375.9375 537.109375,375.9375 537.109375,154.453125" stroke="black" stroke-linecap="butt" stroke-linejoin="miter" stroke-width="4" /><g id="room_living_room"><polygon fill="rgb(238,232,170)" fill-opacity="0.7" points="437.96875,287.34375 412.65625,287.34375 410.546875,323.203125 273.4375,323.203125 273.4375,435.0 435.859375,435.0" stroke="black" stroke-width="1.5" /><text dominant-baseline="middle" fill="black" font-family="Arial" font-size="12px" font-weight="bold" text-anchor="middle" x="356.7578125" y="362.2265625">Living Room</text></g><g id="room_master_bedroom"><polygon fill="rgb(255,165,0)" fill-opacity="0.7" points="273.4375,200.859375 273.4375,310.546875 400.0,310.546875 400.0,200.859375" stroke="black" stroke-width="1.5" /><text dominant-baseline="middle" fill="black" font-family="Arial" font-size="12px" font-weight="bold" text-anchor="middle" x="337.7734375" y="256.7578125">Master Bedroom</text></g><g id="room_common_room"><polygon fill="rgb(255,215,0)" fill-opacity="0.7" points="412.65625,165.0 412.65625,278.90625 526.5625,278.90625 526.5625,165.0" stroke="black" stroke-width="1.5" /><text dominant-baseline="middle" fill="black" font-family="Arial" font-size="12px" font-weight="bold" text-anchor="middle" x="470.6640625" y="223.0078125">Common Room</text></g><g id="room_balcony"><polygon fill="rgb(107,142,35)" fill-opacity="0.7" points="273.4375,165.0 273.4375,188.203125 400.0,188.203125 400.0,165.0" stroke="black" stroke-width="1.5" /><text dominant-baseline="middle" fill="black" font-family="Arial" font-size="12px" font-weight="bold" text-anchor="middle" x="337.7734375" y="177.65625">Balcony</text></g><g id="room_bathroom"><polygon fill="rgb(173,216,230)" fill-opacity="0.7" points="446.40625,287.34375 446.40625,323.203125 526.5625,323.203125 526.5625,287.34375" stroke="black" stroke-width="1.5" /><text dominant-baseline="middle" fill="black" font-family="Arial" font-size="12px" font-weight="bold" text-anchor="middle" x="487.5390625" y="306.328125">Bathroom</text></g><g id="room_kitchen"><polygon fill="rgb(240,128,128)" fill-opacity="0.7" points="446.40625,331.640625 446.40625,367.5 526.5625,365.390625 526.5625,331.640625" stroke="black" stroke-width="1.5" /><text dominant-baseline="middle" fill="black" font-family="Arial" font-size="12px" font-weight="bold" text-anchor="middle" x="487.5390625" y="350.625">Kitchen</text></g><g id="room_room_7"><polygon fill="rgb(221,160,221)" fill-opacity="0.7" points="446.40625,375.9375 446.40625,409.6875 473.828125,409.6875 473.828125,375.9375" stroke="black" stroke-width="1.5" /><text dominant-baseline="middle" fill="black" font-family="Arial" font-size="12px" font-weight="bold" text-anchor="middle" x="461.171875" y="393.8671875">Room 7</text></g><rect fill="red" fill-opacity="0.9" height="10.546875" id="main_door" stroke="darkred" stroke-width="3" width="27.421875" x="288.203125" y="437.109375" /><text dominant-baseline="middle" fill="white" font-family="Arial" font-size="9px" font-weight="bold" text-anchor="middle" x="301.9140625" y="442.3828125">Main Door</text><text fill="black" font-family="Arial" font-size="18px" font-weight="bold" text-anchor="middle" x="400.0" y="30">Floor Plan - ID: 10344</text></svg>