<?xml version="1.0" encoding="utf-8" ?>
<svg baseProfile="full" height="600px" version="1.1" viewBox="0 0 800 600" width="800px" xmlns="http://www.w3.org/2000/svg" xmlns:ev="http://www.w3.org/2001/xml-events" xmlns:xlink="http://www.w3.org/1999/xlink"><defs /><rect fill="white" height="600" width="800" x="0" y="0" /><polygon fill="none" id="floor_plan_boundary" points="267.109375,78.515625 267.109375,335.859375 296.640625,337.96875 296.640625,479.296875 412.65625,479.296875 414.765625,521.484375 532.890625,521.484375 532.890625,327.421875 486.484375,325.3125 486.484375,255.703125 482.265625,331.640625 528.671875,333.75 526.5625,517.265625 421.09375,517.265625 418.984375,475.078125 302.96875,475.078125 300.859375,331.640625 271.328125,329.53125 271.328125,84.84375 480.15625,82.734375 486.484375,213.515625 486.484375,78.515625" stroke="black" stroke-linecap="butt" stroke-linejoin="miter" stroke-width="4" /><g id="room_living_room"><polygon fill="rgb(238,232,170)" fill-opacity="0.7" points="273.4375,205.078125 273.4375,329.53125 416.875,327.421875 421.09375,365.390625 444.296875,365.390625 444.296875,327.421875 480.15625,325.3125 480.15625,205.078125" stroke="black" stroke-width="1.5" /><text dominant-baseline="middle" fill="black" font-family="Arial" font-size="12px" font-weight="bold" text-anchor="middle" x="377.8515625" y="286.2890625">Living Room</text></g><g id="room_kitchen"><polygon fill="rgb(240,128,128)" fill-opacity="0.7" points="374.6875,84.84375 374.6875,196.640625 480.15625,196.640625 480.15625,84.84375" stroke="black" stroke-width="1.5" /><text dominant-baseline="middle" fill="black" font-family="Arial" font-size="12px" font-weight="bold" text-anchor="middle" x="428.4765625" y="141.796875">Kitchen</text></g><g id="room_master_bedroom"><polygon fill="rgb(255,165,0)" fill-opacity="0.7" points="412.65625,337.96875 385.234375,337.96875 383.125,390.703125 302.96875,390.703125 302.96875,472.96875 412.65625,472.96875" stroke="black" stroke-width="1.5" /><text dominant-baseline="middle" fill="black" font-family="Arial" font-size="12px" font-weight="bold" text-anchor="middle" x="358.8671875" y="406.5234375">Master Bedroom</text></g><g id="room_common_room"><polygon fill="rgb(255,215,0)" fill-opacity="0.7" points="421.09375,373.828125 421.09375,472.96875 526.5625,472.96875 526.5625,373.828125" stroke="black" stroke-width="1.5" /><text dominant-baseline="middle" fill="black" font-family="Arial" font-size="12px" font-weight="bold" text-anchor="middle" x="474.8828125" y="424.453125">Common Room</text></g><g id="room_common_room_2"><polygon fill="rgb(255,215,0)" fill-opacity="0.7" points="273.4375,84.84375 273.4375,196.640625 366.25,196.640625 366.25,84.84375" stroke="black" stroke-width="1.5" /><text dominant-baseline="middle" fill="black" font-family="Arial" font-size="12px" font-weight="bold" text-anchor="middle" x="320.8984375" y="141.796875">Common Room 2</text></g><g id="room_balcony"><polygon fill="rgb(107,142,35)" fill-opacity="0.7" points="421.09375,481.40625 421.09375,515.15625 526.5625,515.15625 526.5625,481.40625" stroke="black" stroke-width="1.5" /><text dominant-baseline="middle" fill="black" font-family="Arial" font-size="12px" font-weight="bold" text-anchor="middle" x="474.8828125" y="499.3359375">Balcony</text></g><g id="room_bathroom"><polygon fill="rgb(173,216,230)" fill-opacity="0.7" points="302.96875,337.96875 302.96875,382.265625 376.796875,382.265625 376.796875,337.96875" stroke="black" stroke-width="1.5" /><text dominant-baseline="middle" fill="black" font-family="Arial" font-size="12px" font-weight="bold" text-anchor="middle" x="340.9375" y="361.171875">Bathroom</text></g><g id="room_room_8"><polygon fill="rgb(221,160,221)" fill-opacity="0.7" points="452.734375,333.75 452.734375,365.390625 526.5625,365.390625 526.5625,333.75" stroke="black" stroke-width="1.5" /><text dominant-baseline="middle" fill="black" font-family="Arial" font-size="12px" font-weight="bold" text-anchor="middle" x="490.703125" y="350.625">Room 8</text></g><rect fill="red" fill-opacity="0.9" height="40.078125" id="main_door" stroke="darkred" stroke-width="3" width="6.328125" x="482.265625" y="215.625" /><text dominant-baseline="middle" fill="white" font-family="Arial" font-size="9px" font-weight="bold" text-anchor="middle" x="485.4296875" y="235.6640625">Main Door</text><text fill="black" font-family="Arial" font-size="18px" font-weight="bold" text-anchor="middle" x="400.0" y="30">Floor Plan - ID: 10433</text></svg>