<?xml version="1.0" encoding="utf-8" ?>
<svg baseProfile="full" height="600px" version="1.1" viewBox="0 0 800 600" width="800px" xmlns="http://www.w3.org/2000/svg" xmlns:ev="http://www.w3.org/2001/xml-events" xmlns:xlink="http://www.w3.org/1999/xlink"><defs /><rect fill="white" height="600" width="800" x="0" y="0" /><polygon fill="none" id="floor_plan_boundary" points="237.578125,154.453125 237.578125,432.890625 400.0,432.890625 241.796875,426.5625 243.90625,158.671875 556.09375,158.671875 558.203125,314.765625 543.4375,316.875 543.4375,439.21875 444.296875,441.328125 442.1875,428.671875 429.53125,428.671875 437.96875,445.546875 547.65625,445.546875 547.65625,323.203125 562.421875,321.09375 562.421875,154.453125" stroke="black" stroke-linecap="butt" stroke-linejoin="miter" stroke-width="4" /><g id="room_living_room"><polygon fill="rgb(238,232,170)" fill-opacity="0.7" points="435.859375,221.953125 395.78125,221.953125 393.671875,251.484375 351.484375,251.484375 349.375,340.078125 243.90625,340.078125 243.90625,426.5625 435.859375,426.5625" stroke="black" stroke-width="1.5" /><text dominant-baseline="middle" fill="black" font-family="Arial" font-size="12px" font-weight="bold" text-anchor="middle" x="340.9375" y="325.3125">Living Room</text></g><g id="room_master_bedroom"><polygon fill="rgb(255,165,0)" fill-opacity="0.7" points="243.90625,160.78125 243.90625,243.046875 387.34375,243.046875 387.34375,215.625 395.78125,213.515625 395.78125,160.78125" stroke="black" stroke-width="1.5" /><text dominant-baseline="middle" fill="black" font-family="Arial" font-size="12px" font-weight="bold" text-anchor="middle" x="320.8984375" y="202.96875">Master Bedroom</text></g><g id="room_common_room_3"><polygon fill="rgb(255,215,0)" fill-opacity="0.7" points="444.296875,160.78125 444.296875,243.046875 556.09375,243.046875 556.09375,160.78125" stroke="black" stroke-width="1.5" /><text dominant-baseline="middle" fill="black" font-family="Arial" font-size="12px" font-weight="bold" text-anchor="middle" x="501.25" y="202.96875">Common Room 3</text></g><g id="room_common_room_2"><polygon fill="rgb(255,215,0)" fill-opacity="0.7" points="243.90625,251.484375 243.90625,331.640625 343.046875,331.640625 343.046875,251.484375" stroke="black" stroke-width="1.5" /><text dominant-baseline="middle" fill="black" font-family="Arial" font-size="12px" font-weight="bold" text-anchor="middle" x="294.53125" y="292.6171875">Common Room 2</text></g><g id="room_kitchen"><polygon fill="rgb(240,128,128)" fill-opacity="0.7" points="444.296875,251.484375 444.296875,314.765625 556.09375,314.765625 556.09375,251.484375" stroke="black" stroke-width="1.5" /><text dominant-baseline="middle" fill="black" font-family="Arial" font-size="12px" font-weight="bold" text-anchor="middle" x="501.25" y="284.1796875">Kitchen</text></g><g id="room_common_room"><polygon fill="rgb(255,215,0)" fill-opacity="0.7" points="444.296875,373.828125 444.296875,439.21875 541.328125,439.21875 541.328125,373.828125" stroke="black" stroke-width="1.5" /><text dominant-baseline="middle" fill="black" font-family="Arial" font-size="12px" font-weight="bold" text-anchor="middle" x="493.8671875" y="407.578125">Common Room</text></g><g id="room_bathroom"><polygon fill="rgb(173,216,230)" fill-opacity="0.7" points="444.296875,323.203125 444.296875,365.390625 541.328125,365.390625 541.328125,323.203125" stroke="black" stroke-width="1.5" /><text dominant-baseline="middle" fill="black" font-family="Arial" font-size="12px" font-weight="bold" text-anchor="middle" x="493.8671875" y="345.3515625">Bathroom</text></g><rect fill="red" fill-opacity="0.9" height="6.328125" id="main_door" stroke="darkred" stroke-width="3" width="27.421875" x="402.109375" y="428.671875" /><text dominant-baseline="middle" fill="white" font-family="Arial" font-size="9px" font-weight="bold" text-anchor="middle" x="415.8203125" y="431.8359375">Main Door</text><text fill="black" font-family="Arial" font-size="18px" font-weight="bold" text-anchor="middle" x="400.0" y="30">Floor Plan - ID: 10500</text></svg>