<?xml version="1.0" encoding="utf-8" ?>
<svg baseProfile="full" height="600px" version="1.1" viewBox="0 0 800 600" width="800px" xmlns="http://www.w3.org/2000/svg" xmlns:ev="http://www.w3.org/2001/xml-events" xmlns:xlink="http://www.w3.org/1999/xlink"><defs /><rect fill="white" height="600" width="800" x="0" y="0" /><polygon fill="none" id="floor_plan_boundary" points="317.734375,146.015625 321.953125,259.921875 324.0625,150.234375 364.140625,150.234375 366.25,131.25 545.546875,133.359375 545.546875,232.5 572.96875,234.609375 572.96875,413.90625 535.0,416.015625 532.890625,468.75 454.84375,468.75 450.625,441.328125 324.0625,441.328125 321.953125,401.25 229.140625,401.25 227.03125,310.546875 319.84375,308.4375 321.953125,293.671875 315.625,304.21875 222.8125,302.109375 222.8125,405.46875 315.625,405.46875 317.734375,445.546875 446.40625,445.546875 446.40625,472.96875 539.21875,472.96875 539.21875,422.34375 577.1875,420.234375 577.1875,228.28125 549.765625,226.171875 549.765625,127.03125 359.921875,127.03125 357.8125,146.015625" stroke="black" stroke-linecap="butt" stroke-linejoin="miter" stroke-width="4" /><g id="room_living_room"><polygon fill="rgb(238,232,170)" fill-opacity="0.7" points="324.0625,209.296875 324.0625,439.21875 450.625,439.21875 454.84375,466.640625 532.890625,466.640625 532.890625,422.34375 444.296875,420.234375 444.296875,291.5625 490.703125,289.453125 490.703125,234.609375 446.40625,234.609375 446.40625,209.296875" stroke="black" stroke-width="1.5" /><text dominant-baseline="middle" fill="black" font-family="Arial" font-size="12px" font-weight="bold" text-anchor="middle" x="429.53125" y="339.0234375">Living Room</text></g><g id="room_master_bedroom"><polygon fill="rgb(255,165,0)" fill-opacity="0.7" points="454.84375,297.890625 454.84375,413.90625 570.859375,413.90625 570.859375,297.890625" stroke="black" stroke-width="1.5" /><text dominant-baseline="middle" fill="black" font-family="Arial" font-size="12px" font-weight="bold" text-anchor="middle" x="513.90625" y="356.953125">Master Bedroom</text></g><g id="room_common_room_2"><polygon fill="rgb(255,215,0)" fill-opacity="0.7" points="454.84375,133.359375 454.84375,226.171875 543.4375,226.171875 543.4375,133.359375" stroke="black" stroke-width="1.5" /><text dominant-baseline="middle" fill="black" font-family="Arial" font-size="12px" font-weight="bold" text-anchor="middle" x="500.1953125" y="180.8203125">Common Room 2</text></g><g id="room_common_room"><polygon fill="rgb(255,215,0)" fill-opacity="0.7" points="229.140625,310.546875 229.140625,399.140625 315.625,399.140625 315.625,310.546875" stroke="black" stroke-width="1.5" /><text dominant-baseline="middle" fill="black" font-family="Arial" font-size="12px" font-weight="bold" text-anchor="middle" x="273.4375" y="355.8984375">Common Room</text></g><g id="room_kitchen"><polygon fill="rgb(240,128,128)" fill-opacity="0.7" points="324.0625,152.34375 324.0625,200.859375 446.40625,200.859375 446.40625,133.359375 366.25,133.359375 364.140625,152.34375" stroke="black" stroke-width="1.5" /><text dominant-baseline="middle" fill="black" font-family="Arial" font-size="12px" font-weight="bold" text-anchor="middle" x="386.2890625" y="168.1640625">Kitchen</text></g><g id="room_bathroom"><polygon fill="rgb(173,216,230)" fill-opacity="0.7" points="499.140625,234.609375 499.140625,289.453125 570.859375,289.453125 570.859375,234.609375" stroke="black" stroke-width="1.5" /><text dominant-baseline="middle" fill="black" font-family="Arial" font-size="12px" font-weight="bold" text-anchor="middle" x="536.0546875" y="263.0859375">Bathroom</text></g><rect fill="red" fill-opacity="0.9" height="31.640625" id="main_door" stroke="darkred" stroke-width="3" width="6.328125" x="317.734375" y="262.03125" /><text dominant-baseline="middle" fill="white" font-family="Arial" font-size="9px" font-weight="bold" text-anchor="middle" x="320.8984375" y="277.8515625">Main Door</text><text fill="black" font-family="Arial" font-size="18px" font-weight="bold" text-anchor="middle" x="400.0" y="30">Floor Plan - ID: 1089</text></svg>