<?xml version="1.0" encoding="utf-8" ?>
<svg baseProfile="full" height="600px" version="1.1" viewBox="0 0 800 600" width="800px" xmlns="http://www.w3.org/2000/svg" xmlns:ev="http://www.w3.org/2001/xml-events" xmlns:xlink="http://www.w3.org/1999/xlink"><defs /><rect fill="white" height="600" width="800" x="0" y="0" /><polygon fill="none" id="floor_plan_boundary" points="227.03125,224.0625 227.03125,346.40625 326.171875,346.40625 328.28125,443.4375 572.96875,443.4375 572.96875,156.5625 469.609375,156.5625 568.75,162.890625 566.640625,439.21875 334.609375,439.21875 332.5,342.1875 231.25,340.078125 233.359375,228.28125 332.5,228.28125 334.609375,160.78125 431.640625,156.5625 328.28125,156.5625 326.171875,224.0625" stroke="black" stroke-linecap="butt" stroke-linejoin="miter" stroke-width="4" /><g id="room_living_room"><polygon fill="rgb(238,232,170)" fill-opacity="0.7" points="334.609375,162.890625 334.609375,437.109375 435.859375,437.109375 435.859375,318.984375 465.390625,316.875 465.390625,162.890625" stroke="black" stroke-width="1.5" /><text dominant-baseline="middle" fill="black" font-family="Arial" font-size="12px" font-weight="bold" text-anchor="middle" x="401.0546875" y="301.0546875">Living Room</text></g><g id="room_master_bedroom"><polygon fill="rgb(255,165,0)" fill-opacity="0.7" points="444.296875,325.3125 444.296875,437.109375 566.640625,437.109375 566.640625,312.65625 473.828125,312.65625 469.609375,327.421875" stroke="black" stroke-width="1.5" /><text dominant-baseline="middle" fill="black" font-family="Arial" font-size="12px" font-weight="bold" text-anchor="middle" x="506.5234375" y="375.9375">Master Bedroom</text></g><g id="room_common_room"><polygon fill="rgb(255,215,0)" fill-opacity="0.7" points="233.359375,230.390625 233.359375,340.078125 326.171875,340.078125 326.171875,230.390625" stroke="black" stroke-width="1.5" /><text dominant-baseline="middle" fill="black" font-family="Arial" font-size="12px" font-weight="bold" text-anchor="middle" x="280.8203125" y="286.2890625">Common Room</text></g><g id="room_kitchen"><polygon fill="rgb(240,128,128)" fill-opacity="0.7" points="473.828125,162.890625 473.828125,232.5 566.640625,232.5 566.640625,162.890625" stroke="black" stroke-width="1.5" /><text dominant-baseline="middle" fill="black" font-family="Arial" font-size="12px" font-weight="bold" text-anchor="middle" x="521.2890625" y="198.75">Kitchen</text></g><g id="room_bathroom"><polygon fill="rgb(173,216,230)" fill-opacity="0.7" points="473.828125,240.9375 473.828125,304.21875 566.640625,304.21875 566.640625,240.9375" stroke="black" stroke-width="1.5" /><text dominant-baseline="middle" fill="black" font-family="Arial" font-size="12px" font-weight="bold" text-anchor="middle" x="521.2890625" y="273.6328125">Bathroom</text></g><rect fill="red" fill-opacity="0.9" height="6.328125" id="main_door" stroke="darkred" stroke-width="3" width="35.859375" x="433.75" y="156.5625" /><text dominant-baseline="middle" fill="white" font-family="Arial" font-size="9px" font-weight="bold" text-anchor="middle" x="451.6796875" y="159.7265625">Main Door</text><text fill="black" font-family="Arial" font-size="18px" font-weight="bold" text-anchor="middle" x="400.0" y="30">Floor Plan - ID: 11177</text></svg>