<?xml version="1.0" encoding="utf-8" ?>
<svg baseProfile="full" height="600px" version="1.1" viewBox="0 0 800 600" width="800px" xmlns="http://www.w3.org/2000/svg" xmlns:ev="http://www.w3.org/2001/xml-events" xmlns:xlink="http://www.w3.org/1999/xlink"><defs /><rect fill="white" height="600" width="800" x="0" y="0" /><polygon fill="none" id="floor_plan_boundary" points="570.859375,186.09375 566.640625,428.671875 545.546875,430.78125 543.4375,449.765625 448.515625,449.765625 446.40625,407.578125 351.484375,407.578125 349.375,449.765625 256.5625,449.765625 254.453125,359.0625 233.359375,356.953125 233.359375,278.90625 254.453125,276.796875 256.5625,177.65625 410.546875,177.65625 412.65625,150.234375 520.234375,150.234375 522.34375,190.3125 537.109375,186.09375 526.5625,183.984375 526.5625,146.015625 406.328125,146.015625 404.21875,173.4375 250.234375,173.4375 250.234375,270.46875 229.140625,272.578125 229.140625,363.28125 250.234375,365.390625 250.234375,453.984375 355.703125,453.984375 357.8125,411.796875 440.078125,411.796875 442.1875,453.984375 549.765625,453.984375 551.875,435.0 570.859375,435.0" stroke="black" stroke-linecap="butt" stroke-linejoin="miter" stroke-width="4" /><g id="room_living_room"><polygon fill="rgb(238,232,170)" fill-opacity="0.7" points="520.234375,152.34375 465.390625,152.34375 463.28125,278.90625 321.953125,278.90625 321.953125,325.3125 359.921875,329.53125 357.8125,405.46875 564.53125,405.46875 564.53125,192.421875 524.453125,194.53125" stroke="black" stroke-width="1.5" /><text dominant-baseline="middle" fill="black" font-family="Arial" font-size="12px" font-weight="bold" text-anchor="middle" x="444.296875" y="279.9609375">Living Room</text></g><g id="room_common_room"><polygon fill="rgb(255,215,0)" fill-opacity="0.7" points="349.375,333.75 321.953125,333.75 319.84375,365.390625 256.5625,365.390625 256.5625,447.65625 349.375,447.65625" stroke="black" stroke-width="1.5" /><text dominant-baseline="middle" fill="black" font-family="Arial" font-size="12px" font-weight="bold" text-anchor="middle" x="304.0234375" y="391.7578125">Common Room</text></g><g id="room_master_bedroom"><polygon fill="rgb(255,165,0)" fill-opacity="0.7" points="256.5625,179.765625 256.5625,270.46875 349.375,270.46875 349.375,179.765625" stroke="black" stroke-width="1.5" /><text dominant-baseline="middle" fill="black" font-family="Arial" font-size="12px" font-weight="bold" text-anchor="middle" x="304.0234375" y="226.171875">Master Bedroom</text></g><g id="room_common_room_2"><polygon fill="rgb(255,215,0)" fill-opacity="0.7" points="235.46875,278.90625 235.46875,356.953125 313.515625,356.953125 313.515625,278.90625" stroke="black" stroke-width="1.5" /><text dominant-baseline="middle" fill="black" font-family="Arial" font-size="12px" font-weight="bold" text-anchor="middle" x="275.546875" y="318.984375">Common Room 2</text></g><g id="room_bathroom_2"><polygon fill="rgb(173,216,230)" fill-opacity="0.7" points="357.8125,179.765625 357.8125,270.46875 404.21875,270.46875 404.21875,179.765625" stroke="black" stroke-width="1.5" /><text dominant-baseline="middle" fill="black" font-family="Arial" font-size="12px" font-weight="bold" text-anchor="middle" x="382.0703125" y="226.171875">Bathroom 2</text></g><g id="room_balcony"><polygon fill="rgb(107,142,35)" fill-opacity="0.7" points="448.515625,447.65625 543.4375,447.65625 541.328125,432.890625 545.546875,428.671875 564.53125,428.671875 564.53125,413.90625 448.515625,413.90625" stroke="black" stroke-width="1.5" /><text dominant-baseline="middle" fill="black" font-family="Arial" font-size="12px" font-weight="bold" text-anchor="middle" x="507.578125" y="431.8359375">Balcony</text></g><g id="room_bathroom"><polygon fill="rgb(173,216,230)" fill-opacity="0.7" points="412.65625,209.296875 412.65625,270.46875 456.953125,270.46875 456.953125,209.296875" stroke="black" stroke-width="1.5" /><text dominant-baseline="middle" fill="black" font-family="Arial" font-size="12px" font-weight="bold" text-anchor="middle" x="435.859375" y="240.9375">Bathroom</text></g><g id="room_kitchen"><polygon fill="rgb(240,128,128)" fill-opacity="0.7" points="412.65625,152.34375 412.65625,200.859375 456.953125,200.859375 456.953125,152.34375" stroke="black" stroke-width="1.5" /><text dominant-baseline="middle" fill="black" font-family="Arial" font-size="12px" font-weight="bold" text-anchor="middle" x="435.859375" y="177.65625">Kitchen</text></g><rect fill="red" fill-opacity="0.9" height="6.328125" id="main_door" stroke="darkred" stroke-width="3" width="31.640625" x="539.21875" y="186.09375" /><text dominant-baseline="middle" fill="white" font-family="Arial" font-size="9px" font-weight="bold" text-anchor="middle" x="555.0390625" y="189.2578125">Main Door</text><text fill="black" font-family="Arial" font-size="18px" font-weight="bold" text-anchor="middle" x="400.0" y="30">Floor Plan - ID: 11171</text></svg>