<?xml version="1.0" encoding="utf-8" ?>
<svg baseProfile="full" height="600px" version="1.1" viewBox="0 0 800 600" width="800px" xmlns="http://www.w3.org/2000/svg" xmlns:ev="http://www.w3.org/2001/xml-events" xmlns:xlink="http://www.w3.org/1999/xlink"><defs /><rect fill="white" height="600" width="800" x="0" y="0" /><polygon fill="none" id="floor_plan_boundary" points="549.765625,120.703125 414.765625,120.703125 414.765625,160.78125 404.21875,162.890625 418.984375,167.109375 421.09375,124.921875 545.546875,127.03125 545.546875,472.96875 254.453125,472.96875 254.453125,169.21875 374.6875,162.890625 250.234375,162.890625 250.234375,479.296875 549.765625,479.296875" stroke="black" stroke-linecap="butt" stroke-linejoin="miter" stroke-width="4" /><g id="room_living_room"><polygon fill="rgb(238,232,170)" fill-opacity="0.7" points="412.65625,169.21875 366.25,169.21875 368.359375,215.625 317.734375,219.84375 317.734375,346.40625 256.5625,348.515625 256.5625,472.96875 412.65625,472.96875" stroke="black" stroke-width="1.5" /><text dominant-baseline="middle" fill="black" font-family="Arial" font-size="12px" font-weight="bold" text-anchor="middle" x="335.6640625" y="322.1484375">Living Room</text></g><g id="room_master_bedroom"><polygon fill="rgb(255,165,0)" fill-opacity="0.7" points="421.09375,348.515625 421.09375,472.96875 543.4375,472.96875 543.4375,348.515625" stroke="black" stroke-width="1.5" /><text dominant-baseline="middle" fill="black" font-family="Arial" font-size="12px" font-weight="bold" text-anchor="middle" x="483.3203125" y="411.796875">Master Bedroom</text></g><g id="room_common_room"><polygon fill="rgb(255,215,0)" fill-opacity="0.7" points="421.09375,234.609375 421.09375,340.078125 543.4375,340.078125 543.4375,234.609375" stroke="black" stroke-width="1.5" /><text dominant-baseline="middle" fill="black" font-family="Arial" font-size="12px" font-weight="bold" text-anchor="middle" x="483.3203125" y="288.3984375">Common Room</text></g><g id="room_common_room_2"><polygon fill="rgb(255,215,0)" fill-opacity="0.7" points="421.09375,127.03125 421.09375,226.171875 507.578125,226.171875 507.578125,127.03125" stroke="black" stroke-width="1.5" /><text dominant-baseline="middle" fill="black" font-family="Arial" font-size="12px" font-weight="bold" text-anchor="middle" x="465.390625" y="177.65625">Common Room 2</text></g><g id="room_kitchen"><polygon fill="rgb(240,128,128)" fill-opacity="0.7" points="256.5625,219.84375 256.5625,340.078125 309.296875,340.078125 309.296875,219.84375" stroke="black" stroke-width="1.5" /><text dominant-baseline="middle" fill="black" font-family="Arial" font-size="12px" font-weight="bold" text-anchor="middle" x="283.984375" y="281.015625">Kitchen</text></g><g id="room_bathroom"><polygon fill="rgb(173,216,230)" fill-opacity="0.7" points="256.5625,169.21875 256.5625,211.40625 357.8125,211.40625 357.8125,169.21875" stroke="black" stroke-width="1.5" /><text dominant-baseline="middle" fill="black" font-family="Arial" font-size="12px" font-weight="bold" text-anchor="middle" x="308.2421875" y="191.3671875">Bathroom</text></g><g id="room_balcony"><polygon fill="rgb(107,142,35)" fill-opacity="0.7" points="516.015625,127.03125 516.015625,226.171875 543.4375,226.171875 543.4375,127.03125" stroke="black" stroke-width="1.5" /><text dominant-baseline="middle" fill="black" font-family="Arial" font-size="12px" font-weight="bold" text-anchor="middle" x="530.78125" y="177.65625">Balcony</text></g><rect fill="red" fill-opacity="0.9" height="6.328125" id="main_door" stroke="darkred" stroke-width="3" width="27.421875" x="376.796875" y="162.890625" /><text dominant-baseline="middle" fill="white" font-family="Arial" font-size="9px" font-weight="bold" text-anchor="middle" x="390.5078125" y="166.0546875">Main Door</text><text fill="black" font-family="Arial" font-size="18px" font-weight="bold" text-anchor="middle" x="400.0" y="30">Floor Plan - ID: 11323</text></svg>