<?xml version="1.0" encoding="utf-8" ?>
<svg baseProfile="full" height="600px" version="1.1" viewBox="0 0 800 600" width="800px" xmlns="http://www.w3.org/2000/svg" xmlns:ev="http://www.w3.org/2001/xml-events" xmlns:xlink="http://www.w3.org/1999/xlink"><defs /><rect fill="white" height="600" width="800" x="0" y="0" /><polygon fill="none" id="floor_plan_boundary" points="290.3125,101.71875 290.3125,247.265625 298.75,247.265625 300.859375,110.15625 351.484375,110.15625 353.59375,139.6875 537.109375,141.796875 537.109375,441.328125 416.875,443.4375 414.765625,489.84375 265.0,489.84375 262.890625,306.328125 298.75,304.21875 298.75,276.796875 290.3125,276.796875 288.203125,295.78125 254.453125,295.78125 254.453125,498.28125 425.3125,498.28125 427.421875,451.875 545.546875,451.875 545.546875,131.25 364.140625,131.25 362.03125,101.71875" stroke="black" stroke-linecap="butt" stroke-linejoin="miter" stroke-width="4" /><g id="room_living_room"><polygon fill="rgb(238,232,170)" fill-opacity="0.7" points="300.859375,236.71875 300.859375,304.21875 265.0,306.328125 265.0,487.734375 414.765625,487.734375 414.765625,295.78125 467.5,293.671875 467.5,236.71875" stroke="black" stroke-width="1.5" /><text dominant-baseline="middle" fill="black" font-family="Arial" font-size="12px" font-weight="bold" text-anchor="middle" x="367.3046875" y="363.28125">Living Room</text></g><g id="room_master_bedroom"><polygon fill="rgb(255,165,0)" fill-opacity="0.7" points="427.421875,306.328125 427.421875,441.328125 535.0,441.328125 535.0,361.171875 469.609375,361.171875 467.5,306.328125" stroke="black" stroke-width="1.5" /><text dominant-baseline="middle" fill="black" font-family="Arial" font-size="12px" font-weight="bold" text-anchor="middle" x="482.265625" y="374.8828125">Master Bedroom</text></g><g id="room_common_room"><polygon fill="rgb(255,215,0)" fill-opacity="0.7" points="446.40625,141.796875 446.40625,224.0625 535.0,224.0625 535.0,141.796875" stroke="black" stroke-width="1.5" /><text dominant-baseline="middle" fill="black" font-family="Arial" font-size="12px" font-weight="bold" text-anchor="middle" x="491.7578125" y="183.984375">Common Room</text></g><g id="room_common_room_2"><polygon fill="rgb(255,215,0)" fill-opacity="0.7" points="364.140625,141.796875 364.140625,224.0625 433.75,224.0625 433.75,141.796875" stroke="black" stroke-width="1.5" /><text dominant-baseline="middle" fill="black" font-family="Arial" font-size="12px" font-weight="bold" text-anchor="middle" x="400.0" y="183.984375">Common Room 2</text></g><g id="room_kitchen"><polygon fill="rgb(240,128,128)" fill-opacity="0.7" points="300.859375,112.265625 300.859375,224.0625 351.484375,224.0625 351.484375,112.265625" stroke="black" stroke-width="1.5" /><text dominant-baseline="middle" fill="black" font-family="Arial" font-size="12px" font-weight="bold" text-anchor="middle" x="327.2265625" y="169.21875">Kitchen</text></g><g id="room_bathroom_2"><polygon fill="rgb(173,216,230)" fill-opacity="0.7" points="480.15625,236.71875 480.15625,293.671875 535.0,293.671875 535.0,236.71875" stroke="black" stroke-width="1.5" /><text dominant-baseline="middle" fill="black" font-family="Arial" font-size="12px" font-weight="bold" text-anchor="middle" x="508.6328125" y="266.25">Bathroom 2</text></g><g id="room_bathroom"><polygon fill="rgb(173,216,230)" fill-opacity="0.7" points="480.15625,306.328125 480.15625,348.515625 535.0,348.515625 535.0,306.328125" stroke="black" stroke-width="1.5" /><text dominant-baseline="middle" fill="black" font-family="Arial" font-size="12px" font-weight="bold" text-anchor="middle" x="508.6328125" y="328.4765625">Bathroom</text></g><rect fill="red" fill-opacity="0.9" height="27.421875" id="main_door" stroke="darkred" stroke-width="3" width="10.546875" x="290.3125" y="249.375" /><text dominant-baseline="middle" fill="white" font-family="Arial" font-size="9px" font-weight="bold" text-anchor="middle" x="295.5859375" y="263.0859375">Main Door</text><text fill="black" font-family="Arial" font-size="18px" font-weight="bold" text-anchor="middle" x="400.0" y="30">Floor Plan - ID: 11361</text></svg>