<?xml version="1.0" encoding="utf-8" ?>
<svg baseProfile="full" height="600px" version="1.1" viewBox="0 0 800 600" width="800px" xmlns="http://www.w3.org/2000/svg" xmlns:ev="http://www.w3.org/2001/xml-events" xmlns:xlink="http://www.w3.org/1999/xlink"><defs /><rect fill="white" height="600" width="800" x="0" y="0" /><polygon fill="none" id="floor_plan_boundary" points="216.484375,91.171875 216.484375,508.828125 583.515625,508.828125 583.515625,363.28125 385.234375,363.28125 383.125,274.6875 366.25,274.6875 374.6875,285.234375 374.6875,371.71875 575.078125,373.828125 575.078125,498.28125 224.921875,498.28125 224.921875,101.71875 326.171875,101.71875 326.171875,283.125 336.71875,283.125 334.609375,91.171875" stroke="black" stroke-linecap="butt" stroke-linejoin="miter" stroke-width="4" /><g id="room_living_room"><polygon fill="rgb(238,232,170)" fill-opacity="0.7" points="288.203125,285.234375 288.203125,361.171875 324.0625,363.28125 321.953125,498.28125 448.515625,498.28125 448.515625,373.828125 372.578125,371.71875 372.578125,285.234375" stroke="black" stroke-width="1.5" /><text dominant-baseline="middle" fill="black" font-family="Arial" font-size="12px" font-weight="bold" text-anchor="middle" x="369.4140625" y="392.8125">Living Room</text></g><g id="room_master_bedroom"><polygon fill="rgb(255,165,0)" fill-opacity="0.7" points="456.953125,373.828125 456.953125,498.28125 572.96875,498.28125 572.96875,373.828125" stroke="black" stroke-width="1.5" /><text dominant-baseline="middle" fill="black" font-family="Arial" font-size="12px" font-weight="bold" text-anchor="middle" x="516.015625" y="437.109375">Master Bedroom</text></g><g id="room_common_room"><polygon fill="rgb(255,215,0)" fill-opacity="0.7" points="227.03125,373.828125 227.03125,498.28125 313.515625,498.28125 313.515625,373.828125" stroke="black" stroke-width="1.5" /><text dominant-baseline="middle" fill="black" font-family="Arial" font-size="12px" font-weight="bold" text-anchor="middle" x="271.328125" y="437.109375">Common Room</text></g><g id="room_common_room_2"><polygon fill="rgb(255,215,0)" fill-opacity="0.7" points="227.03125,156.5625 227.03125,238.828125 283.984375,236.71875 288.203125,272.578125 324.0625,272.578125 324.0625,156.5625" stroke="black" stroke-width="1.5" /><text dominant-baseline="middle" fill="black" font-family="Arial" font-size="12px" font-weight="bold" text-anchor="middle" x="276.6015625" y="215.625">Common Room 2</text></g><g id="room_bathroom_2"><polygon fill="rgb(173,216,230)" fill-opacity="0.7" points="227.03125,101.71875 227.03125,148.125 324.0625,148.125 324.0625,101.71875" stroke="black" stroke-width="1.5" /><text dominant-baseline="middle" fill="black" font-family="Arial" font-size="12px" font-weight="bold" text-anchor="middle" x="276.6015625" y="125.9765625">Bathroom 2</text></g><g id="room_kitchen"><polygon fill="rgb(240,128,128)" fill-opacity="0.7" points="227.03125,247.265625 227.03125,306.328125 279.765625,306.328125 279.765625,247.265625" stroke="black" stroke-width="1.5" /><text dominant-baseline="middle" fill="black" font-family="Arial" font-size="12px" font-weight="bold" text-anchor="middle" x="254.453125" y="277.8515625">Kitchen</text></g><g id="room_bathroom"><polygon fill="rgb(173,216,230)" fill-opacity="0.7" points="227.03125,314.765625 227.03125,361.171875 279.765625,361.171875 279.765625,314.765625" stroke="black" stroke-width="1.5" /><text dominant-baseline="middle" fill="black" font-family="Arial" font-size="12px" font-weight="bold" text-anchor="middle" x="254.453125" y="339.0234375">Bathroom</text></g><rect fill="red" fill-opacity="0.9" height="10.546875" id="main_door" stroke="darkred" stroke-width="3" width="27.421875" x="338.828125" y="274.6875" /><text dominant-baseline="middle" fill="white" font-family="Arial" font-size="9px" font-weight="bold" text-anchor="middle" x="352.5390625" y="279.9609375">Main Door</text><text fill="black" font-family="Arial" font-size="18px" font-weight="bold" text-anchor="middle" x="400.0" y="30">Floor Plan - ID: 11447</text></svg>