<?xml version="1.0" encoding="utf-8" ?>
<svg baseProfile="full" height="600px" version="1.1" viewBox="0 0 800 600" width="800px" xmlns="http://www.w3.org/2000/svg" xmlns:ev="http://www.w3.org/2001/xml-events" xmlns:xlink="http://www.w3.org/1999/xlink"><defs /><rect fill="white" height="600" width="800" x="0" y="0" /><polygon fill="none" id="floor_plan_boundary" points="326.171875,97.5 328.28125,287.34375 330.390625,103.828125 454.84375,103.828125 452.734375,251.484375 480.15625,253.59375 480.15625,329.53125 509.6875,331.640625 509.6875,491.953125 290.3125,496.171875 294.53125,278.90625 281.875,278.90625 283.984375,500.390625 518.125,502.5 518.125,321.09375 488.59375,318.984375 488.59375,243.046875 461.171875,240.9375 459.0625,97.5" stroke="black" stroke-linecap="butt" stroke-linejoin="miter" stroke-width="4" /><g id="room_living_room"><polygon fill="rgb(238,232,170)" fill-opacity="0.7" points="334.609375,253.59375 332.5,289.453125 292.421875,289.453125 292.421875,449.765625 412.65625,449.765625 412.65625,375.9375 450.625,373.828125 450.625,329.53125 412.65625,327.421875 412.65625,253.59375" stroke="black" stroke-width="1.5" /><text dominant-baseline="middle" fill="black" font-family="Arial" font-size="12px" font-weight="bold" text-anchor="middle" x="372.578125" y="352.734375">Living Room</text></g><g id="room_master_bedroom_2"><polygon fill="rgb(255,165,0)" fill-opacity="0.7" points="334.609375,148.125 334.609375,240.9375 450.625,240.9375 450.625,148.125" stroke="black" stroke-width="1.5" /><text dominant-baseline="middle" fill="black" font-family="Arial" font-size="12px" font-weight="bold" text-anchor="middle" x="393.671875" y="195.5859375">Master Bedroom 2</text></g><g id="room_master_bedroom"><polygon fill="rgb(255,165,0)" fill-opacity="0.7" points="421.09375,382.265625 423.203125,491.953125 507.578125,491.953125 507.578125,382.265625" stroke="black" stroke-width="1.5" /><text dominant-baseline="middle" fill="black" font-family="Arial" font-size="12px" font-weight="bold" text-anchor="middle" x="465.390625" y="438.1640625">Master Bedroom</text></g><g id="room_kitchen"><polygon fill="rgb(240,128,128)" fill-opacity="0.7" points="421.09375,253.59375 421.09375,321.09375 478.046875,321.09375 478.046875,253.59375" stroke="black" stroke-width="1.5" /><text dominant-baseline="middle" fill="black" font-family="Arial" font-size="12px" font-weight="bold" text-anchor="middle" x="450.625" y="288.3984375">Kitchen</text></g><g id="room_balcony"><polygon fill="rgb(107,142,35)" fill-opacity="0.7" points="290.3125,462.421875 290.3125,494.0625 410.546875,494.0625 410.546875,462.421875" stroke="black" stroke-width="1.5" /><text dominant-baseline="middle" fill="black" font-family="Arial" font-size="12px" font-weight="bold" text-anchor="middle" x="351.484375" y="479.296875">Balcony</text></g><g id="room_balcony_2"><polygon fill="rgb(107,142,35)" fill-opacity="0.7" points="332.5,103.828125 332.5,135.46875 452.734375,135.46875 452.734375,103.828125" stroke="black" stroke-width="1.5" /><text dominant-baseline="middle" fill="black" font-family="Arial" font-size="12px" font-weight="bold" text-anchor="middle" x="393.671875" y="120.703125">Balcony 2</text></g><g id="room_bathroom"><polygon fill="rgb(173,216,230)" fill-opacity="0.7" points="459.0625,329.53125 459.0625,373.828125 507.578125,373.828125 507.578125,331.640625" stroke="black" stroke-width="1.5" /><text dominant-baseline="middle" fill="black" font-family="Arial" font-size="12px" font-weight="bold" text-anchor="middle" x="484.375" y="352.734375">Bathroom</text></g><rect fill="red" fill-opacity="0.9" height="10.546875" id="main_door" stroke="darkred" stroke-width="3" width="31.640625" x="296.640625" y="278.90625" /><text dominant-baseline="middle" fill="white" font-family="Arial" font-size="9px" font-weight="bold" text-anchor="middle" x="312.4609375" y="284.1796875">Main Door</text><text fill="black" font-family="Arial" font-size="18px" font-weight="bold" text-anchor="middle" x="400.0" y="30">Floor Plan - ID: 11532</text></svg>