<?xml version="1.0" encoding="utf-8" ?>
<svg baseProfile="full" height="600px" version="1.1" viewBox="0 0 800 600" width="800px" xmlns="http://www.w3.org/2000/svg" xmlns:ev="http://www.w3.org/2001/xml-events" xmlns:xlink="http://www.w3.org/1999/xlink"><defs /><rect fill="white" height="600" width="800" x="0" y="0" /><polygon fill="none" id="floor_plan_boundary" points="368.359375,97.5 366.25,183.984375 262.890625,183.984375 262.890625,327.421875 309.296875,329.53125 309.296875,453.984375 286.09375,456.09375 286.09375,502.5 408.4375,502.5 410.546875,481.40625 444.296875,481.40625 446.40625,502.5 537.109375,502.5 537.109375,230.390625 528.671875,230.390625 528.671875,491.953125 456.953125,494.0625 454.84375,472.96875 400.0,472.96875 397.890625,494.0625 294.53125,491.953125 294.53125,466.640625 317.734375,464.53125 317.734375,318.984375 271.328125,316.875 271.328125,194.53125 376.796875,192.421875 378.90625,105.9375 526.5625,105.9375 528.671875,196.640625 537.109375,196.640625 537.109375,97.5" stroke="black" stroke-linecap="butt" stroke-linejoin="miter" stroke-width="4" /><g id="room_living_room"><polygon fill="rgb(238,232,170)" fill-opacity="0.7" points="307.1875,194.53125 307.1875,316.875 429.53125,316.875 431.640625,363.28125 469.609375,363.28125 469.609375,316.875 526.5625,316.875 526.5625,192.421875" stroke="black" stroke-width="1.5" /><text dominant-baseline="middle" fill="black" font-family="Arial" font-size="12px" font-weight="bold" text-anchor="middle" x="417.9296875" y="278.90625">Living Room</text></g><g id="room_master_bedroom"><polygon fill="rgb(255,165,0)" fill-opacity="0.7" points="319.84375,329.53125 319.84375,464.53125 296.640625,466.640625 296.640625,491.953125 397.890625,491.953125 400.0,470.859375 423.203125,470.859375 423.203125,329.53125" stroke="black" stroke-width="1.5" /><text dominant-baseline="middle" fill="black" font-family="Arial" font-size="12px" font-weight="bold" text-anchor="middle" x="360.9765625" y="411.796875">Master Bedroom</text></g><g id="room_common_room"><polygon fill="rgb(255,215,0)" fill-opacity="0.7" points="478.046875,329.53125 475.9375,371.71875 431.640625,371.71875 431.640625,470.859375 454.84375,470.859375 456.953125,491.953125 526.5625,491.953125 526.5625,329.53125" stroke="black" stroke-width="1.5" /><text dominant-baseline="middle" fill="black" font-family="Arial" font-size="12px" font-weight="bold" text-anchor="middle" x="480.15625" y="411.796875">Common Room</text></g><g id="room_bathroom"><polygon fill="rgb(173,216,230)" fill-opacity="0.7" points="378.90625,108.046875 378.90625,181.875 452.734375,183.984375 452.734375,108.046875" stroke="black" stroke-width="1.5" /><text dominant-baseline="middle" fill="black" font-family="Arial" font-size="12px" font-weight="bold" text-anchor="middle" x="416.875" y="147.0703125">Bathroom</text></g><g id="room_kitchen"><polygon fill="rgb(240,128,128)" fill-opacity="0.7" points="461.171875,108.046875 461.171875,183.984375 526.5625,183.984375 526.5625,108.046875" stroke="black" stroke-width="1.5" /><text dominant-baseline="middle" fill="black" font-family="Arial" font-size="12px" font-weight="bold" text-anchor="middle" x="494.921875" y="147.0703125">Kitchen</text></g><g id="room_balcony"><polygon fill="rgb(107,142,35)" fill-opacity="0.7" points="273.4375,194.53125 273.4375,316.875 298.75,316.875 298.75,194.53125" stroke="black" stroke-width="1.5" /><text dominant-baseline="middle" fill="black" font-family="Arial" font-size="12px" font-weight="bold" text-anchor="middle" x="287.1484375" y="256.7578125">Balcony</text></g><rect fill="red" fill-opacity="0.9" height="31.640625" id="main_door" stroke="darkred" stroke-width="3" width="10.546875" x="528.671875" y="198.75" /><text dominant-baseline="middle" fill="white" font-family="Arial" font-size="9px" font-weight="bold" text-anchor="middle" x="533.9453125" y="214.5703125">Main Door</text><text fill="black" font-family="Arial" font-size="18px" font-weight="bold" text-anchor="middle" x="400.0" y="30">Floor Plan - ID: 1168</text></svg>