<?xml version="1.0" encoding="utf-8" ?>
<svg baseProfile="full" height="600px" version="1.1" viewBox="0 0 800 600" width="800px" xmlns="http://www.w3.org/2000/svg" xmlns:ev="http://www.w3.org/2001/xml-events" xmlns:xlink="http://www.w3.org/1999/xlink"><defs /><rect fill="white" height="600" width="800" x="0" y="0" /><polygon fill="none" id="floor_plan_boundary" points="159.53125,165.0 159.53125,297.890625 222.8125,300.0 222.8125,420.234375 243.90625,420.234375 246.015625,435.0 315.625,435.0 317.734375,420.234375 364.140625,420.234375 366.25,435.0 431.640625,435.0 433.75,420.234375 577.1875,418.125 579.296875,240.9375 640.46875,238.828125 640.46875,165.0 459.0625,165.0 459.0625,173.4375 629.921875,173.4375 632.03125,228.28125 570.859375,230.390625 570.859375,413.90625 425.3125,411.796875 425.3125,430.78125 372.578125,430.78125 372.578125,411.796875 309.296875,411.796875 309.296875,430.78125 252.34375,430.78125 250.234375,411.796875 231.25,409.6875 231.25,289.453125 167.96875,287.34375 170.078125,173.4375 421.09375,173.4375 421.09375,165.0" stroke="black" stroke-linecap="butt" stroke-linejoin="miter" stroke-width="4" /><g id="room_living_room"><polygon fill="rgb(238,232,170)" fill-opacity="0.7" points="516.015625,175.546875 345.15625,175.546875 345.15625,253.59375 286.09375,255.703125 286.09375,287.34375 345.15625,289.453125 345.15625,409.6875 372.578125,409.6875 372.578125,428.671875 425.3125,428.671875 425.3125,409.6875 454.84375,409.6875 454.84375,230.390625 516.015625,228.28125" stroke="black" stroke-width="1.5" /><text dominant-baseline="middle" fill="black" font-family="Arial" font-size="12px" font-weight="bold" text-anchor="middle" x="402.109375" y="303.1640625">Living Room</text></g><g id="room_master_bedroom"><polygon fill="rgb(255,165,0)" fill-opacity="0.7" points="467.5,240.9375 467.5,359.0625 568.75,359.0625 568.75,240.9375" stroke="black" stroke-width="1.5" /><text dominant-baseline="middle" fill="black" font-family="Arial" font-size="12px" font-weight="bold" text-anchor="middle" x="519.1796875" y="301.0546875">Master Bedroom</text></g><g id="room_common_room"><polygon fill="rgb(255,215,0)" fill-opacity="0.7" points="233.359375,300.0 233.359375,409.6875 250.234375,409.6875 252.34375,428.671875 309.296875,428.671875 309.296875,409.6875 332.5,409.6875 332.5,300.0" stroke="black" stroke-width="1.5" /><text dominant-baseline="middle" fill="black" font-family="Arial" font-size="12px" font-weight="bold" text-anchor="middle" x="283.984375" y="365.390625">Common Room</text></g><g id="room_common_room_2"><polygon fill="rgb(255,215,0)" fill-opacity="0.7" points="170.078125,175.546875 170.078125,287.34375 273.4375,287.34375 273.4375,175.546875" stroke="black" stroke-width="1.5" /><text dominant-baseline="middle" fill="black" font-family="Arial" font-size="12px" font-weight="bold" text-anchor="middle" x="222.8125" y="232.5">Common Room 2</text></g><g id="room_kitchen"><polygon fill="rgb(240,128,128)" fill-opacity="0.7" points="528.671875,175.546875 528.671875,228.28125 629.921875,228.28125 629.921875,175.546875" stroke="black" stroke-width="1.5" /><text dominant-baseline="middle" fill="black" font-family="Arial" font-size="12px" font-weight="bold" text-anchor="middle" x="580.3515625" y="202.96875">Kitchen</text></g><g id="room_balcony"><polygon fill="rgb(107,142,35)" fill-opacity="0.7" points="467.5,371.71875 467.5,411.796875 570.859375,411.796875 570.859375,371.71875" stroke="black" stroke-width="1.5" /><text dominant-baseline="middle" fill="black" font-family="Arial" font-size="12px" font-weight="bold" text-anchor="middle" x="520.234375" y="392.8125">Balcony</text></g><g id="room_bathroom"><polygon fill="rgb(173,216,230)" fill-opacity="0.7" points="286.09375,175.546875 286.09375,243.046875 332.5,243.046875 332.5,175.546875" stroke="black" stroke-width="1.5" /><text dominant-baseline="middle" fill="black" font-family="Arial" font-size="12px" font-weight="bold" text-anchor="middle" x="310.3515625" y="210.3515625">Bathroom</text></g><rect fill="red" fill-opacity="0.9" height="10.546875" id="main_door" stroke="darkred" stroke-width="3" width="35.859375" x="423.203125" y="165.0" /><text dominant-baseline="middle" fill="white" font-family="Arial" font-size="9px" font-weight="bold" text-anchor="middle" x="441.1328125" y="170.2734375">Main Door</text><text fill="black" font-family="Arial" font-size="18px" font-weight="bold" text-anchor="middle" x="400.0" y="30">Floor Plan - ID: 11746</text></svg>