<?xml version="1.0" encoding="utf-8" ?>
<svg baseProfile="full" height="600px" version="1.1" viewBox="0 0 800 600" width="800px" xmlns="http://www.w3.org/2000/svg" xmlns:ev="http://www.w3.org/2001/xml-events" xmlns:xlink="http://www.w3.org/1999/xlink"><defs /><rect fill="white" height="600" width="800" x="0" y="0" /><polygon fill="none" id="floor_plan_boundary" points="319.84375,114.375 319.84375,259.921875 326.171875,118.59375 389.453125,118.59375 391.5625,152.34375 490.703125,154.453125 490.703125,253.59375 516.015625,255.703125 516.015625,437.109375 400.0,439.21875 397.890625,481.40625 286.09375,481.40625 283.984375,316.875 324.0625,314.765625 319.84375,293.671875 317.734375,310.546875 279.765625,310.546875 279.765625,485.625 404.21875,485.625 406.328125,443.4375 520.234375,443.4375 520.234375,249.375 494.921875,247.265625 494.921875,148.125 397.890625,148.125 395.78125,114.375" stroke="black" stroke-linecap="butt" stroke-linejoin="miter" stroke-width="4" /><g id="room_living_room"><polygon fill="rgb(238,232,170)" fill-opacity="0.7" points="326.171875,224.0625 326.171875,314.765625 286.09375,316.875 286.09375,437.109375 397.890625,437.109375 395.78125,312.65625 433.75,308.4375 433.75,274.6875 395.78125,270.46875 397.890625,224.0625" stroke="black" stroke-width="1.5" /><text dominant-baseline="middle" fill="black" font-family="Arial" font-size="12px" font-weight="bold" text-anchor="middle" x="360.9765625" y="331.640625">Living Room</text></g><g id="room_master_bedroom"><polygon fill="rgb(255,165,0)" fill-opacity="0.7" points="406.328125,316.875 406.328125,437.109375 513.90625,437.109375 513.90625,316.875" stroke="black" stroke-width="1.5" /><text dominant-baseline="middle" fill="black" font-family="Arial" font-size="12px" font-weight="bold" text-anchor="middle" x="461.171875" y="378.046875">Master Bedroom</text></g><g id="room_common_room"><polygon fill="rgb(255,215,0)" fill-opacity="0.7" points="406.328125,154.453125 406.328125,266.25 433.75,266.25 435.859375,247.265625 488.59375,247.265625 488.59375,154.453125" stroke="black" stroke-width="1.5" /><text dominant-baseline="middle" fill="black" font-family="Arial" font-size="12px" font-weight="bold" text-anchor="middle" x="448.515625" y="211.40625">Common Room</text></g><g id="room_kitchen"><polygon fill="rgb(240,128,128)" fill-opacity="0.7" points="326.171875,154.453125 326.171875,215.625 397.890625,215.625 397.890625,154.453125" stroke="black" stroke-width="1.5" /><text dominant-baseline="middle" fill="black" font-family="Arial" font-size="12px" font-weight="bold" text-anchor="middle" x="363.0859375" y="186.09375">Kitchen</text></g><g id="room_bathroom"><polygon fill="rgb(173,216,230)" fill-opacity="0.7" points="442.1875,255.703125 442.1875,308.4375 513.90625,308.4375 513.90625,255.703125" stroke="black" stroke-width="1.5" /><text dominant-baseline="middle" fill="black" font-family="Arial" font-size="12px" font-weight="bold" text-anchor="middle" x="479.1015625" y="283.125">Bathroom</text></g><g id="room_balcony"><polygon fill="rgb(107,142,35)" fill-opacity="0.7" points="286.09375,445.546875 286.09375,479.296875 397.890625,479.296875 397.890625,445.546875" stroke="black" stroke-width="1.5" /><text dominant-baseline="middle" fill="black" font-family="Arial" font-size="12px" font-weight="bold" text-anchor="middle" x="343.046875" y="463.4765625">Balcony</text></g><g id="room_balcony_2"><polygon fill="rgb(107,142,35)" fill-opacity="0.7" points="326.171875,120.703125 326.171875,146.015625 389.453125,146.015625 389.453125,120.703125" stroke="black" stroke-width="1.5" /><text dominant-baseline="middle" fill="black" font-family="Arial" font-size="12px" font-weight="bold" text-anchor="middle" x="358.8671875" y="134.4140625">Balcony 2</text></g><rect fill="red" fill-opacity="0.9" height="31.640625" id="main_door" stroke="darkred" stroke-width="3" width="6.328125" x="319.84375" y="262.03125" /><text dominant-baseline="middle" fill="white" font-family="Arial" font-size="9px" font-weight="bold" text-anchor="middle" x="323.0078125" y="277.8515625">Main Door</text><text fill="black" font-family="Arial" font-size="18px" font-weight="bold" text-anchor="middle" x="400.0" y="30">Floor Plan - ID: 11814</text></svg>