<?xml version="1.0" encoding="utf-8" ?>
<svg baseProfile="full" height="600px" version="1.1" viewBox="0 0 800 600" width="800px" xmlns="http://www.w3.org/2000/svg" xmlns:ev="http://www.w3.org/2001/xml-events" xmlns:xlink="http://www.w3.org/1999/xlink"><defs /><rect fill="white" height="600" width="800" x="0" y="0" /><polygon fill="none" id="floor_plan_boundary" points="313.515625,127.03125 313.515625,162.890625 296.640625,165.0 296.640625,306.328125 275.546875,308.4375 275.546875,411.796875 353.59375,411.796875 355.703125,472.96875 480.15625,472.96875 480.15625,464.53125 366.25,464.53125 364.140625,403.359375 286.09375,403.359375 283.984375,318.984375 305.078125,316.875 305.078125,175.546875 321.953125,173.4375 324.0625,135.46875 494.921875,135.46875 497.03125,156.5625 516.015625,158.671875 516.015625,462.421875 509.6875,472.96875 524.453125,472.96875 524.453125,148.125 505.46875,146.015625 505.46875,127.03125" stroke="black" stroke-linecap="butt" stroke-linejoin="miter" stroke-width="4" /><g id="room_living_room"><polygon fill="rgb(238,232,170)" fill-opacity="0.7" points="408.4375,192.421875 408.4375,278.90625 366.25,281.015625 366.25,306.328125 408.4375,308.4375 408.4375,382.265625 482.265625,384.375 482.265625,462.421875 513.90625,462.421875 513.90625,192.421875" stroke="black" stroke-width="1.5" /><text dominant-baseline="middle" fill="black" font-family="Arial" font-size="12px" font-weight="bold" text-anchor="middle" x="441.1328125" y="328.4765625">Living Room</text></g><g id="room_common_room"><polygon fill="rgb(255,215,0)" fill-opacity="0.7" points="286.09375,318.984375 286.09375,401.25 395.78125,401.25 395.78125,318.984375" stroke="black" stroke-width="1.5" /><text dominant-baseline="middle" fill="black" font-family="Arial" font-size="12px" font-weight="bold" text-anchor="middle" x="341.9921875" y="361.171875">Common Room</text></g><g id="room_master_bedroom"><polygon fill="rgb(255,165,0)" fill-opacity="0.7" points="307.1875,175.546875 307.1875,251.484375 364.140625,251.484375 366.25,268.359375 395.78125,268.359375 395.78125,175.546875" stroke="black" stroke-width="1.5" /><text dominant-baseline="middle" fill="black" font-family="Arial" font-size="12px" font-weight="bold" text-anchor="middle" x="352.5390625" y="223.0078125">Master Bedroom</text></g><g id="room_balcony_2"><polygon fill="rgb(107,142,35)" fill-opacity="0.7" points="324.0625,137.578125 324.0625,162.890625 406.328125,162.890625 408.4375,179.765625 513.90625,179.765625 513.90625,158.671875 494.921875,156.5625 494.921875,137.578125" stroke="black" stroke-width="1.5" /><text dominant-baseline="middle" fill="black" font-family="Arial" font-size="12px" font-weight="bold" text-anchor="middle" x="420.0390625" y="159.7265625">Balcony 2</text></g><g id="room_kitchen"><polygon fill="rgb(240,128,128)" fill-opacity="0.7" points="408.4375,394.921875 408.4375,462.421875 469.609375,462.421875 469.609375,394.921875" stroke="black" stroke-width="1.5" /><text dominant-baseline="middle" fill="black" font-family="Arial" font-size="12px" font-weight="bold" text-anchor="middle" x="440.078125" y="429.7265625">Kitchen</text></g><g id="room_bathroom"><polygon fill="rgb(173,216,230)" fill-opacity="0.7" points="307.1875,264.140625 307.1875,306.328125 353.59375,306.328125 353.59375,264.140625" stroke="black" stroke-width="1.5" /><text dominant-baseline="middle" fill="black" font-family="Arial" font-size="12px" font-weight="bold" text-anchor="middle" x="331.4453125" y="286.2890625">Bathroom</text></g><g id="room_balcony"><polygon fill="rgb(107,142,35)" fill-opacity="0.7" points="366.25,413.90625 366.25,462.421875 395.78125,462.421875 395.78125,413.90625" stroke="black" stroke-width="1.5" /><text dominant-baseline="middle" fill="black" font-family="Arial" font-size="12px" font-weight="bold" text-anchor="middle" x="382.0703125" y="439.21875">Balcony</text></g><rect fill="red" fill-opacity="0.9" height="10.546875" id="main_door" stroke="darkred" stroke-width="3" width="27.421875" x="482.265625" y="464.53125" /><text dominant-baseline="middle" fill="white" font-family="Arial" font-size="9px" font-weight="bold" text-anchor="middle" x="495.9765625" y="469.8046875">Main Door</text><text fill="black" font-family="Arial" font-size="18px" font-weight="bold" text-anchor="middle" x="400.0" y="30">Floor Plan - ID: 11848</text></svg>