<?xml version="1.0" encoding="utf-8" ?>
<svg baseProfile="full" height="600px" version="1.1" viewBox="0 0 800 600" width="800px" xmlns="http://www.w3.org/2000/svg" xmlns:ev="http://www.w3.org/2001/xml-events" xmlns:xlink="http://www.w3.org/1999/xlink"><defs /><rect fill="white" height="600" width="800" x="0" y="0" /><polygon fill="none" id="floor_plan_boundary" points="334.609375,103.828125 334.609375,268.359375 343.046875,268.359375 345.15625,112.265625 505.46875,114.375 505.46875,462.421875 408.4375,464.53125 406.328125,487.734375 296.640625,487.734375 294.53125,321.09375 343.046875,318.984375 343.046875,297.890625 334.609375,297.890625 332.5,310.546875 286.09375,310.546875 286.09375,496.171875 416.875,496.171875 418.984375,472.96875 513.90625,472.96875 513.90625,103.828125" stroke="black" stroke-linecap="butt" stroke-linejoin="miter" stroke-width="4" /><g id="room_living_room"><polygon fill="rgb(238,232,170)" fill-opacity="0.7" points="345.15625,175.546875 345.15625,318.984375 296.640625,321.09375 296.640625,485.625 406.328125,485.625 406.328125,310.546875 448.515625,308.4375 448.515625,243.046875 406.328125,240.9375 406.328125,175.546875" stroke="black" stroke-width="1.5" /><text dominant-baseline="middle" fill="black" font-family="Arial" font-size="12px" font-weight="bold" text-anchor="middle" x="373.6328125" y="331.640625">Living Room</text></g><g id="room_master_bedroom"><polygon fill="rgb(255,165,0)" fill-opacity="0.7" points="418.984375,321.09375 418.984375,462.421875 503.359375,462.421875 503.359375,321.09375" stroke="black" stroke-width="1.5" /><text dominant-baseline="middle" fill="black" font-family="Arial" font-size="12px" font-weight="bold" text-anchor="middle" x="462.2265625" y="392.8125">Master Bedroom</text></g><g id="room_common_room"><polygon fill="rgb(255,215,0)" fill-opacity="0.7" points="418.984375,114.375 418.984375,230.390625 503.359375,230.390625 503.359375,114.375" stroke="black" stroke-width="1.5" /><text dominant-baseline="middle" fill="black" font-family="Arial" font-size="12px" font-weight="bold" text-anchor="middle" x="462.2265625" y="173.4375">Common Room</text></g><g id="room_kitchen"><polygon fill="rgb(240,128,128)" fill-opacity="0.7" points="345.15625,114.375 345.15625,167.109375 406.328125,167.109375 406.328125,114.375" stroke="black" stroke-width="1.5" /><text dominant-baseline="middle" fill="black" font-family="Arial" font-size="12px" font-weight="bold" text-anchor="middle" x="376.796875" y="141.796875">Kitchen</text></g><g id="room_bathroom"><polygon fill="rgb(173,216,230)" fill-opacity="0.7" points="456.953125,243.046875 456.953125,308.4375 503.359375,308.4375 503.359375,243.046875" stroke="black" stroke-width="1.5" /><text dominant-baseline="middle" fill="black" font-family="Arial" font-size="12px" font-weight="bold" text-anchor="middle" x="481.2109375" y="276.796875">Bathroom</text></g><rect fill="red" fill-opacity="0.9" height="27.421875" id="main_door" stroke="darkred" stroke-width="3" width="10.546875" x="334.609375" y="270.46875" /><text dominant-baseline="middle" fill="white" font-family="Arial" font-size="9px" font-weight="bold" text-anchor="middle" x="339.8828125" y="284.1796875">Main Door</text><text fill="black" font-family="Arial" font-size="18px" font-weight="bold" text-anchor="middle" x="400.0" y="30">Floor Plan - ID: 12025</text></svg>