<?xml version="1.0" encoding="utf-8" ?>
<svg baseProfile="full" height="600px" version="1.1" viewBox="0 0 800 600" width="800px" xmlns="http://www.w3.org/2000/svg" xmlns:ev="http://www.w3.org/2001/xml-events" xmlns:xlink="http://www.w3.org/1999/xlink"><defs /><rect fill="white" height="600" width="800" x="0" y="0" /><polygon fill="none" id="floor_plan_boundary" points="395.78125,55.3125 393.671875,101.71875 288.203125,101.71875 290.3125,494.0625 393.671875,494.0625 395.78125,544.6875 511.796875,544.6875 513.90625,300.0 469.609375,300.0 467.5,274.6875 459.0625,274.6875 459.0625,308.4375 505.46875,310.546875 507.578125,538.359375 402.109375,540.46875 404.21875,481.40625 298.75,479.296875 298.75,116.484375 400.0,114.375 402.109375,59.53125 459.0625,59.53125 459.0625,228.28125 467.5,228.28125 465.390625,55.3125" stroke="black" stroke-linecap="butt" stroke-linejoin="miter" stroke-width="4" /><g id="room_living_room"><polygon fill="rgb(238,232,170)" fill-opacity="0.7" points="404.21875,213.515625 404.21875,249.375 368.359375,251.484375 368.359375,312.65625 404.21875,314.765625 404.21875,479.296875 503.359375,479.296875 503.359375,310.546875 456.953125,308.4375 456.953125,213.515625" stroke="black" stroke-width="1.5" /><text dominant-baseline="middle" fill="black" font-family="Arial" font-size="12px" font-weight="bold" text-anchor="middle" x="436.9140625" y="347.4609375">Living Room</text></g><g id="room_master_bedroom"><polygon fill="rgb(255,165,0)" fill-opacity="0.7" points="300.859375,325.3125 300.859375,479.296875 391.5625,479.296875 391.5625,325.3125" stroke="black" stroke-width="1.5" /><text dominant-baseline="middle" fill="black" font-family="Arial" font-size="12px" font-weight="bold" text-anchor="middle" x="347.265625" y="403.359375">Master Bedroom</text></g><g id="room_common_room"><polygon fill="rgb(255,215,0)" fill-opacity="0.7" points="300.859375,116.484375 300.859375,238.828125 391.5625,238.828125 391.5625,116.484375" stroke="black" stroke-width="1.5" /><text dominant-baseline="middle" fill="black" font-family="Arial" font-size="12px" font-weight="bold" text-anchor="middle" x="347.265625" y="178.7109375">Common Room</text></g><g id="room_kitchen"><polygon fill="rgb(240,128,128)" fill-opacity="0.7" points="404.21875,116.484375 404.21875,200.859375 456.953125,200.859375 456.953125,116.484375" stroke="black" stroke-width="1.5" /><text dominant-baseline="middle" fill="black" font-family="Arial" font-size="12px" font-weight="bold" text-anchor="middle" x="431.640625" y="159.7265625">Kitchen</text></g><g id="room_balcony"><polygon fill="rgb(107,142,35)" fill-opacity="0.7" points="402.109375,496.171875 402.109375,538.359375 505.46875,538.359375 505.46875,496.171875" stroke="black" stroke-width="1.5" /><text dominant-baseline="middle" fill="black" font-family="Arial" font-size="12px" font-weight="bold" text-anchor="middle" x="454.84375" y="518.3203125">Balcony</text></g><g id="room_bathroom"><polygon fill="rgb(173,216,230)" fill-opacity="0.7" points="300.859375,251.484375 300.859375,312.65625 355.703125,312.65625 355.703125,251.484375" stroke="black" stroke-width="1.5" /><text dominant-baseline="middle" fill="black" font-family="Arial" font-size="12px" font-weight="bold" text-anchor="middle" x="329.3359375" y="283.125">Bathroom</text></g><g id="room_balcony_2"><polygon fill="rgb(107,142,35)" fill-opacity="0.7" points="402.109375,61.640625 402.109375,99.609375 459.0625,99.609375 459.0625,61.640625" stroke="black" stroke-width="1.5" /><text dominant-baseline="middle" fill="black" font-family="Arial" font-size="12px" font-weight="bold" text-anchor="middle" x="431.640625" y="81.6796875">Balcony 2</text></g><rect fill="red" fill-opacity="0.9" height="44.296875" id="main_door" stroke="darkred" stroke-width="3" width="10.546875" x="459.0625" y="230.390625" /><text dominant-baseline="middle" fill="white" font-family="Arial" font-size="9px" font-weight="bold" text-anchor="middle" x="464.3359375" y="252.5390625">Main Door</text><text fill="black" font-family="Arial" font-size="18px" font-weight="bold" text-anchor="middle" x="400.0" y="30">Floor Plan - ID: 12319</text></svg>