<?xml version="1.0" encoding="utf-8" ?>
<svg baseProfile="full" height="600px" version="1.1" viewBox="0 0 800 600" width="800px" xmlns="http://www.w3.org/2000/svg" xmlns:ev="http://www.w3.org/2001/xml-events" xmlns:xlink="http://www.w3.org/1999/xlink"><defs /><rect fill="white" height="600" width="800" x="0" y="0" /><polygon fill="none" id="floor_plan_boundary" points="541.328125,105.9375 378.90625,105.9375 376.796875,150.234375 258.671875,150.234375 258.671875,494.0625 370.46875,494.0625 372.578125,346.40625 486.484375,346.40625 486.484375,335.859375 362.03125,337.96875 362.03125,483.515625 269.21875,485.625 267.109375,160.78125 387.34375,158.671875 389.453125,114.375 530.78125,114.375 532.890625,274.6875 478.046875,276.796875 478.046875,297.890625 486.484375,297.890625 488.59375,285.234375 541.328125,285.234375" stroke="black" stroke-linecap="butt" stroke-linejoin="miter" stroke-width="4" /><g id="room_living_room"><polygon fill="rgb(238,232,170)" fill-opacity="0.7" points="372.578125,160.78125 372.578125,270.46875 328.28125,272.578125 328.28125,335.859375 475.9375,335.859375 478.046875,160.78125" stroke="black" stroke-width="1.5" /><text dominant-baseline="middle" fill="black" font-family="Arial" font-size="12px" font-weight="bold" text-anchor="middle" x="404.21875" y="249.375">Living Room</text></g><g id="room_master_bedroom"><polygon fill="rgb(255,165,0)" fill-opacity="0.7" points="269.21875,348.515625 269.21875,483.515625 359.921875,483.515625 359.921875,348.515625" stroke="black" stroke-width="1.5" /><text dominant-baseline="middle" fill="black" font-family="Arial" font-size="12px" font-weight="bold" text-anchor="middle" x="315.625" y="417.0703125">Master Bedroom</text></g><g id="room_common_room"><polygon fill="rgb(255,215,0)" fill-opacity="0.7" points="269.21875,160.78125 269.21875,264.140625 359.921875,264.140625 359.921875,160.78125" stroke="black" stroke-width="1.5" /><text dominant-baseline="middle" fill="black" font-family="Arial" font-size="12px" font-weight="bold" text-anchor="middle" x="315.625" y="213.515625">Common Room</text></g><g id="room_kitchen"><polygon fill="rgb(240,128,128)" fill-opacity="0.7" points="486.484375,160.78125 486.484375,274.6875 530.78125,274.6875 530.78125,160.78125" stroke="black" stroke-width="1.5" /><text dominant-baseline="middle" fill="black" font-family="Arial" font-size="12px" font-weight="bold" text-anchor="middle" x="509.6875" y="218.7890625">Kitchen</text></g><g id="room_bathroom"><polygon fill="rgb(173,216,230)" fill-opacity="0.7" points="269.21875,272.578125 269.21875,335.859375 319.84375,335.859375 319.84375,272.578125" stroke="black" stroke-width="1.5" /><text dominant-baseline="middle" fill="black" font-family="Arial" font-size="12px" font-weight="bold" text-anchor="middle" x="295.5859375" y="305.2734375">Bathroom</text></g><g id="room_balcony_2"><polygon fill="rgb(107,142,35)" fill-opacity="0.7" points="389.453125,116.484375 389.453125,148.125 478.046875,148.125 478.046875,116.484375" stroke="black" stroke-width="1.5" /><text dominant-baseline="middle" fill="black" font-family="Arial" font-size="12px" font-weight="bold" text-anchor="middle" x="434.8046875" y="133.359375">Balcony 2</text></g><g id="room_balcony"><polygon fill="rgb(107,142,35)" fill-opacity="0.7" points="486.484375,116.484375 486.484375,148.125 530.78125,148.125 530.78125,116.484375" stroke="black" stroke-width="1.5" /><text dominant-baseline="middle" fill="black" font-family="Arial" font-size="12px" font-weight="bold" text-anchor="middle" x="509.6875" y="133.359375">Balcony</text></g><rect fill="red" fill-opacity="0.9" height="35.859375" id="main_door" stroke="darkred" stroke-width="3" width="10.546875" x="478.046875" y="300.0" /><text dominant-baseline="middle" fill="white" font-family="Arial" font-size="9px" font-weight="bold" text-anchor="middle" x="483.3203125" y="317.9296875">Main Door</text><text fill="black" font-family="Arial" font-size="18px" font-weight="bold" text-anchor="middle" x="400.0" y="30">Floor Plan - ID: 12527</text></svg>