<?xml version="1.0" encoding="utf-8" ?>
<svg baseProfile="full" height="600px" version="1.1" viewBox="0 0 800 600" width="800px" xmlns="http://www.w3.org/2000/svg" xmlns:ev="http://www.w3.org/2001/xml-events" xmlns:xlink="http://www.w3.org/1999/xlink"><defs /><rect fill="white" height="600" width="800" x="0" y="0" /><polygon fill="none" id="floor_plan_boundary" points="231.25,120.703125 231.25,232.5 265.0,234.609375 265.0,224.0625 239.6875,221.953125 241.796875,129.140625 309.296875,129.140625 311.40625,108.046875 429.53125,108.046875 431.640625,129.140625 537.109375,131.25 537.109375,253.59375 560.3125,255.703125 558.203125,472.96875 452.734375,472.96875 450.625,491.953125 364.140625,491.953125 362.03125,437.109375 340.9375,435.0 340.9375,295.78125 267.109375,295.78125 265.0,264.140625 256.5625,264.140625 256.5625,304.21875 332.5,306.328125 332.5,445.546875 353.59375,447.65625 353.59375,500.390625 461.171875,500.390625 463.28125,481.40625 568.75,481.40625 568.75,245.15625 545.546875,243.046875 545.546875,120.703125 442.1875,120.703125 440.078125,99.609375 300.859375,99.609375 298.75,120.703125" stroke="black" stroke-linecap="butt" stroke-linejoin="miter" stroke-width="4" /><g id="room_living_room"><polygon fill="rgb(238,232,170)" fill-opacity="0.7" points="311.40625,110.15625 311.40625,232.5 267.109375,234.609375 267.109375,293.671875 461.171875,293.671875 463.28125,331.640625 494.921875,331.640625 494.921875,255.703125 429.53125,253.59375 429.53125,110.15625" stroke="black" stroke-width="1.5" /><text dominant-baseline="middle" fill="black" font-family="Arial" font-size="12px" font-weight="bold" text-anchor="middle" x="382.0703125" y="221.953125">Living Room</text></g><g id="room_master_bedroom"><polygon fill="rgb(255,165,0)" fill-opacity="0.7" points="343.046875,306.328125 343.046875,435.0 450.625,435.0 450.625,306.328125" stroke="black" stroke-width="1.5" /><text dominant-baseline="middle" fill="black" font-family="Arial" font-size="12px" font-weight="bold" text-anchor="middle" x="397.890625" y="371.71875">Master Bedroom</text></g><g id="room_common_room"><polygon fill="rgb(255,215,0)" fill-opacity="0.7" points="463.28125,344.296875 463.28125,470.859375 558.203125,470.859375 558.203125,344.296875" stroke="black" stroke-width="1.5" /><text dominant-baseline="middle" fill="black" font-family="Arial" font-size="12px" font-weight="bold" text-anchor="middle" x="511.796875" y="408.6328125">Common Room</text></g><g id="room_common_room_2"><polygon fill="rgb(255,215,0)" fill-opacity="0.7" points="442.1875,131.25 442.1875,243.046875 535.0,243.046875 535.0,131.25" stroke="black" stroke-width="1.5" /><text dominant-baseline="middle" fill="black" font-family="Arial" font-size="12px" font-weight="bold" text-anchor="middle" x="489.6484375" y="188.203125">Common Room 2</text></g><g id="room_kitchen"><polygon fill="rgb(240,128,128)" fill-opacity="0.7" points="241.796875,131.25 241.796875,221.953125 298.75,221.953125 298.75,131.25" stroke="black" stroke-width="1.5" /><text dominant-baseline="middle" fill="black" font-family="Arial" font-size="12px" font-weight="bold" text-anchor="middle" x="271.328125" y="177.65625">Kitchen</text></g><g id="room_bathroom"><polygon fill="rgb(173,216,230)" fill-opacity="0.7" points="507.578125,255.703125 507.578125,331.640625 558.203125,331.640625 558.203125,255.703125" stroke="black" stroke-width="1.5" /><text dominant-baseline="middle" fill="black" font-family="Arial" font-size="12px" font-weight="bold" text-anchor="middle" x="533.9453125" y="294.7265625">Bathroom</text></g><g id="room_balcony"><polygon fill="rgb(107,142,35)" fill-opacity="0.7" points="364.140625,447.65625 364.140625,489.84375 450.625,489.84375 450.625,447.65625" stroke="black" stroke-width="1.5" /><text dominant-baseline="middle" fill="black" font-family="Arial" font-size="12px" font-weight="bold" text-anchor="middle" x="408.4375" y="469.8046875">Balcony</text></g><rect fill="red" fill-opacity="0.9" height="27.421875" id="main_door" stroke="darkred" stroke-width="3" width="10.546875" x="256.5625" y="236.71875" /><text dominant-baseline="middle" fill="white" font-family="Arial" font-size="9px" font-weight="bold" text-anchor="middle" x="261.8359375" y="250.4296875">Main Door</text><text fill="black" font-family="Arial" font-size="18px" font-weight="bold" text-anchor="middle" x="400.0" y="30">Floor Plan - ID: 1261</text></svg>