<?xml version="1.0" encoding="utf-8" ?>
<svg baseProfile="full" height="600px" version="1.1" viewBox="0 0 800 600" width="800px" xmlns="http://www.w3.org/2000/svg" xmlns:ev="http://www.w3.org/2001/xml-events" xmlns:xlink="http://www.w3.org/1999/xlink"><defs /><rect fill="white" height="600" width="800" x="0" y="0" /><polygon fill="none" id="floor_plan_boundary" points="273.4375,74.296875 273.4375,525.703125 435.859375,525.703125 437.96875,475.078125 526.5625,475.078125 526.5625,289.453125 471.71875,287.34375 471.71875,297.890625 518.125,300.0 516.015625,466.640625 427.421875,466.640625 425.3125,517.265625 283.984375,517.265625 281.875,84.84375 425.3125,82.734375 427.421875,249.375 480.15625,253.59375 480.15625,240.9375 435.859375,238.828125 435.859375,74.296875" stroke="black" stroke-linecap="butt" stroke-linejoin="miter" stroke-width="4" /><g id="room_living_room"><polygon fill="rgb(238,232,170)" fill-opacity="0.7" points="469.609375,251.484375 427.421875,251.484375 425.3125,226.171875 387.34375,226.171875 385.234375,300.0 283.984375,300.0 283.984375,464.53125 425.3125,464.53125 425.3125,289.453125 469.609375,287.34375" stroke="black" stroke-width="1.5" /><text dominant-baseline="middle" fill="black" font-family="Arial" font-size="12px" font-weight="bold" text-anchor="middle" x="377.8515625" y="346.40625">Living Room</text></g><g id="room_master_bedroom"><polygon fill="rgb(255,165,0)" fill-opacity="0.7" points="283.984375,84.84375 283.984375,213.515625 425.3125,213.515625 425.3125,84.84375" stroke="black" stroke-width="1.5" /><text dominant-baseline="middle" fill="black" font-family="Arial" font-size="12px" font-weight="bold" text-anchor="middle" x="355.703125" y="150.234375">Master Bedroom</text></g><g id="room_kitchen"><polygon fill="rgb(240,128,128)" fill-opacity="0.7" points="437.96875,344.296875 437.96875,422.34375 516.015625,422.34375 516.015625,344.296875" stroke="black" stroke-width="1.5" /><text dominant-baseline="middle" fill="black" font-family="Arial" font-size="12px" font-weight="bold" text-anchor="middle" x="478.046875" y="384.375">Kitchen</text></g><g id="room_bathroom"><polygon fill="rgb(173,216,230)" fill-opacity="0.7" points="283.984375,226.171875 283.984375,287.34375 374.6875,287.34375 374.6875,226.171875" stroke="black" stroke-width="1.5" /><text dominant-baseline="middle" fill="black" font-family="Arial" font-size="12px" font-weight="bold" text-anchor="middle" x="330.390625" y="257.8125">Bathroom</text></g><g id="room_balcony"><polygon fill="rgb(107,142,35)" fill-opacity="0.7" points="283.984375,477.1875 283.984375,515.15625 425.3125,515.15625 425.3125,477.1875" stroke="black" stroke-width="1.5" /><text dominant-baseline="middle" fill="black" font-family="Arial" font-size="12px" font-weight="bold" text-anchor="middle" x="355.703125" y="497.2265625">Balcony</text></g><g id="room_room_7"><polygon fill="rgb(221,160,221)" fill-opacity="0.7" points="437.96875,300.0 437.96875,331.640625 516.015625,331.640625 516.015625,300.0" stroke="black" stroke-width="1.5" /><text dominant-baseline="middle" fill="black" font-family="Arial" font-size="12px" font-weight="bold" text-anchor="middle" x="478.046875" y="316.875">Room 7</text></g><g id="room_balcony_2"><polygon fill="rgb(107,142,35)" fill-opacity="0.7" points="437.96875,435.0 437.96875,464.53125 516.015625,464.53125 516.015625,435.0" stroke="black" stroke-width="1.5" /><text dominant-baseline="middle" fill="black" font-family="Arial" font-size="12px" font-weight="bold" text-anchor="middle" x="478.046875" y="450.8203125">Balcony 2</text></g><rect fill="red" fill-opacity="0.9" height="31.640625" id="main_door" stroke="darkred" stroke-width="3" width="10.546875" x="471.71875" y="255.703125" /><text dominant-baseline="middle" fill="white" font-family="Arial" font-size="9px" font-weight="bold" text-anchor="middle" x="476.9921875" y="271.5234375">Main Door</text><text fill="black" font-family="Arial" font-size="18px" font-weight="bold" text-anchor="middle" x="400.0" y="30">Floor Plan - ID: 13098</text></svg>