<?xml version="1.0" encoding="utf-8" ?>
<svg baseProfile="full" height="600px" version="1.1" viewBox="0 0 800 600" width="800px" xmlns="http://www.w3.org/2000/svg" xmlns:ev="http://www.w3.org/2001/xml-events" xmlns:xlink="http://www.w3.org/1999/xlink"><defs /><rect fill="white" height="600" width="800" x="0" y="0" /><polygon fill="none" id="floor_plan_boundary" points="248.125,156.5625 248.125,270.46875 307.1875,272.578125 307.1875,443.4375 526.5625,443.4375 526.5625,221.953125 551.875,219.84375 551.875,156.5625 442.1875,156.5625 442.1875,165.0 543.4375,167.109375 543.4375,209.296875 518.125,211.40625 516.015625,435.0 315.625,432.890625 315.625,262.03125 256.5625,259.921875 256.5625,167.109375 412.65625,165.0 412.65625,156.5625" stroke="black" stroke-linecap="butt" stroke-linejoin="miter" stroke-width="4" /><g id="room_living_room"><polygon fill="rgb(238,232,170)" fill-opacity="0.7" points="353.59375,167.109375 353.59375,270.46875 317.734375,272.578125 317.734375,384.375 412.65625,384.375 412.65625,264.140625 448.515625,259.921875 448.515625,167.109375" stroke="black" stroke-width="1.5" /><text dominant-baseline="middle" fill="black" font-family="Arial" font-size="12px" font-weight="bold" text-anchor="middle" x="384.1796875" y="276.796875">Living Room</text></g><g id="room_master_bedroom"><polygon fill="rgb(255,165,0)" fill-opacity="0.7" points="421.09375,270.46875 421.09375,384.375 516.015625,384.375 516.015625,272.578125" stroke="black" stroke-width="1.5" /><text dominant-baseline="middle" fill="black" font-family="Arial" font-size="12px" font-weight="bold" text-anchor="middle" x="469.609375" y="328.4765625">Master Bedroom</text></g><g id="room_common_room"><polygon fill="rgb(255,215,0)" fill-opacity="0.7" points="258.671875,167.109375 258.671875,259.921875 340.9375,259.921875 340.9375,167.109375" stroke="black" stroke-width="1.5" /><text dominant-baseline="middle" fill="black" font-family="Arial" font-size="12px" font-weight="bold" text-anchor="middle" x="300.859375" y="214.5703125">Common Room</text></g><g id="room_balcony"><polygon fill="rgb(107,142,35)" fill-opacity="0.7" points="317.734375,397.03125 317.734375,432.890625 516.015625,432.890625 516.015625,397.03125" stroke="black" stroke-width="1.5" /><text dominant-baseline="middle" fill="black" font-family="Arial" font-size="12px" font-weight="bold" text-anchor="middle" x="417.9296875" y="416.015625">Balcony</text></g><g id="room_kitchen"><polygon fill="rgb(240,128,128)" fill-opacity="0.7" points="456.953125,167.109375 456.953125,211.40625 541.328125,209.296875 541.328125,167.109375" stroke="black" stroke-width="1.5" /><text dominant-baseline="middle" fill="black" font-family="Arial" font-size="12px" font-weight="bold" text-anchor="middle" x="500.1953125" y="190.3125">Kitchen</text></g><g id="room_bathroom"><polygon fill="rgb(173,216,230)" fill-opacity="0.7" points="456.953125,219.84375 456.953125,259.921875 516.015625,259.921875 516.015625,219.84375" stroke="black" stroke-width="1.5" /><text dominant-baseline="middle" fill="black" font-family="Arial" font-size="12px" font-weight="bold" text-anchor="middle" x="487.5390625" y="240.9375">Bathroom</text></g><rect fill="red" fill-opacity="0.9" height="10.546875" id="main_door" stroke="darkred" stroke-width="3" width="27.421875" x="414.765625" y="156.5625" /><text dominant-baseline="middle" fill="white" font-family="Arial" font-size="9px" font-weight="bold" text-anchor="middle" x="428.4765625" y="161.8359375">Main Door</text><text fill="black" font-family="Arial" font-size="18px" font-weight="bold" text-anchor="middle" x="400.0" y="30">Floor Plan - ID: 13213</text></svg>