<?xml version="1.0" encoding="utf-8" ?>
<svg baseProfile="full" height="600px" version="1.1" viewBox="0 0 800 600" width="800px" xmlns="http://www.w3.org/2000/svg" xmlns:ev="http://www.w3.org/2001/xml-events" xmlns:xlink="http://www.w3.org/1999/xlink"><defs /><rect fill="white" height="600" width="800" x="0" y="0" /><polygon fill="none" id="floor_plan_boundary" points="216.484375,276.796875 216.484375,382.265625 256.5625,382.265625 258.671875,416.015625 503.359375,416.015625 503.359375,399.140625 494.921875,399.140625 492.8125,407.578125 269.21875,407.578125 267.109375,373.828125 224.921875,371.71875 224.921875,287.34375 267.109375,285.234375 269.21875,192.421875 572.96875,192.421875 575.078125,295.78125 549.765625,297.890625 549.765625,356.953125 494.921875,359.0625 494.921875,369.609375 558.203125,367.5 558.203125,308.4375 583.515625,306.328125 583.515625,183.984375 258.671875,183.984375 258.671875,274.6875" stroke="black" stroke-linecap="butt" stroke-linejoin="miter" stroke-width="4" /><g id="room_living_room"><polygon fill="rgb(238,232,170)" fill-opacity="0.7" points="463.28125,257.8125 397.890625,257.8125 395.78125,297.890625 269.21875,297.890625 269.21875,405.46875 492.8125,405.46875 492.8125,369.609375 463.28125,367.5" stroke="black" stroke-width="1.5" /><text dominant-baseline="middle" fill="black" font-family="Arial" font-size="12px" font-weight="bold" text-anchor="middle" x="382.0703125" y="332.6953125">Living Room</text></g><g id="room_master_bedroom"><polygon fill="rgb(255,165,0)" fill-opacity="0.7" points="269.21875,194.53125 269.21875,285.234375 385.234375,285.234375 385.234375,194.53125" stroke="black" stroke-width="1.5" /><text dominant-baseline="middle" fill="black" font-family="Arial" font-size="12px" font-weight="bold" text-anchor="middle" x="328.28125" y="240.9375">Master Bedroom</text></g><g id="room_common_room"><polygon fill="rgb(255,215,0)" fill-opacity="0.7" points="475.9375,194.53125 475.9375,295.78125 572.96875,295.78125 572.96875,194.53125" stroke="black" stroke-width="1.5" /><text dominant-baseline="middle" fill="black" font-family="Arial" font-size="12px" font-weight="bold" text-anchor="middle" x="525.5078125" y="246.2109375">Common Room</text></g><g id="room_bathroom"><polygon fill="rgb(173,216,230)" fill-opacity="0.7" points="475.9375,308.4375 475.9375,356.953125 547.65625,356.953125 547.65625,308.4375" stroke="black" stroke-width="1.5" /><text dominant-baseline="middle" fill="black" font-family="Arial" font-size="12px" font-weight="bold" text-anchor="middle" x="512.8515625" y="333.75">Bathroom</text></g><g id="room_kitchen"><polygon fill="rgb(240,128,128)" fill-opacity="0.7" points="397.890625,194.53125 397.890625,245.15625 463.28125,245.15625 463.28125,194.53125" stroke="black" stroke-width="1.5" /><text dominant-baseline="middle" fill="black" font-family="Arial" font-size="12px" font-weight="bold" text-anchor="middle" x="431.640625" y="220.8984375">Kitchen</text></g><g id="room_balcony"><polygon fill="rgb(107,142,35)" fill-opacity="0.7" points="227.03125,287.34375 227.03125,371.71875 256.5625,371.71875 256.5625,287.34375" stroke="black" stroke-width="1.5" /><text dominant-baseline="middle" fill="black" font-family="Arial" font-size="12px" font-weight="bold" text-anchor="middle" x="242.8515625" y="330.5859375">Balcony</text></g><rect fill="red" fill-opacity="0.9" height="27.421875" id="main_door" stroke="darkred" stroke-width="3" width="10.546875" x="494.921875" y="371.71875" /><text dominant-baseline="middle" fill="white" font-family="Arial" font-size="9px" font-weight="bold" text-anchor="middle" x="500.1953125" y="385.4296875">Main Door</text><text fill="black" font-family="Arial" font-size="18px" font-weight="bold" text-anchor="middle" x="400.0" y="30">Floor Plan - ID: 13249</text></svg>