<?xml version="1.0" encoding="utf-8" ?>
<svg baseProfile="full" height="600px" version="1.1" viewBox="0 0 800 600" width="800px" xmlns="http://www.w3.org/2000/svg" xmlns:ev="http://www.w3.org/2001/xml-events" xmlns:xlink="http://www.w3.org/1999/xlink"><defs /><rect fill="white" height="600" width="800" x="0" y="0" /><polygon fill="none" id="floor_plan_boundary" points="248.125,82.734375 248.125,342.1875 256.5625,331.640625 258.671875,91.171875 507.578125,91.171875 509.6875,209.296875 543.4375,211.40625 543.4375,464.53125 402.109375,466.640625 400.0,508.828125 305.078125,508.828125 302.96875,333.75 288.203125,333.75 294.53125,344.296875 294.53125,517.265625 410.546875,517.265625 412.65625,475.078125 551.875,475.078125 551.875,200.859375 518.125,198.75 518.125,82.734375" stroke="black" stroke-linecap="butt" stroke-linejoin="miter" stroke-width="4" /><g id="room_living_room"><polygon fill="rgb(238,232,170)" fill-opacity="0.7" points="258.671875,93.28125 258.671875,331.640625 446.40625,331.640625 446.40625,310.546875 400.0,308.4375 400.0,200.859375 507.578125,198.75 507.578125,175.546875 376.796875,175.546875 374.6875,93.28125" stroke="black" stroke-width="1.5" /><text dominant-baseline="middle" fill="black" font-family="Arial" font-size="12px" font-weight="bold" text-anchor="middle" x="384.1796875" y="213.515625">Living Room</text></g><g id="room_master_bedroom"><polygon fill="rgb(255,165,0)" fill-opacity="0.7" points="412.65625,344.296875 412.65625,464.53125 541.328125,464.53125 541.328125,369.609375 448.515625,369.609375 446.40625,344.296875" stroke="black" stroke-width="1.5" /><text dominant-baseline="middle" fill="black" font-family="Arial" font-size="12px" font-weight="bold" text-anchor="middle" x="478.046875" y="405.46875">Master Bedroom</text></g><g id="room_common_room_2"><polygon fill="rgb(255,215,0)" fill-opacity="0.7" points="412.65625,211.40625 412.65625,297.890625 541.328125,297.890625 541.328125,211.40625" stroke="black" stroke-width="1.5" /><text dominant-baseline="middle" fill="black" font-family="Arial" font-size="12px" font-weight="bold" text-anchor="middle" x="478.046875" y="255.703125">Common Room 2</text></g><g id="room_common_room"><polygon fill="rgb(255,215,0)" fill-opacity="0.7" points="305.078125,344.296875 305.078125,449.765625 400.0,449.765625 400.0,344.296875" stroke="black" stroke-width="1.5" /><text dominant-baseline="middle" fill="black" font-family="Arial" font-size="12px" font-weight="bold" text-anchor="middle" x="353.59375" y="398.0859375">Common Room</text></g><g id="room_kitchen"><polygon fill="rgb(240,128,128)" fill-opacity="0.7" points="387.34375,93.28125 387.34375,162.890625 456.953125,162.890625 456.953125,93.28125" stroke="black" stroke-width="1.5" /><text dominant-baseline="middle" fill="black" font-family="Arial" font-size="12px" font-weight="bold" text-anchor="middle" x="423.203125" y="129.140625">Kitchen</text></g><g id="room_balcony"><polygon fill="rgb(107,142,35)" fill-opacity="0.7" points="305.078125,462.421875 305.078125,506.71875 400.0,506.71875 400.0,462.421875" stroke="black" stroke-width="1.5" /><text dominant-baseline="middle" fill="black" font-family="Arial" font-size="12px" font-weight="bold" text-anchor="middle" x="353.59375" y="485.625">Balcony</text></g><g id="room_bathroom"><polygon fill="rgb(173,216,230)" fill-opacity="0.7" points="459.0625,310.546875 459.0625,356.953125 541.328125,356.953125 541.328125,310.546875" stroke="black" stroke-width="1.5" /><text dominant-baseline="middle" fill="black" font-family="Arial" font-size="12px" font-weight="bold" text-anchor="middle" x="501.25" y="334.8046875">Bathroom</text></g><g id="room_bathroom_2"><polygon fill="rgb(173,216,230)" fill-opacity="0.7" points="469.609375,93.28125 469.609375,162.890625 507.578125,162.890625 507.578125,93.28125" stroke="black" stroke-width="1.5" /><text dominant-baseline="middle" fill="black" font-family="Arial" font-size="12px" font-weight="bold" text-anchor="middle" x="489.6484375" y="129.140625">Bathroom 2</text></g><rect fill="red" fill-opacity="0.9" height="10.546875" id="main_door" stroke="darkred" stroke-width="3" width="31.640625" x="256.5625" y="333.75" /><text dominant-baseline="middle" fill="white" font-family="Arial" font-size="9px" font-weight="bold" text-anchor="middle" x="272.3828125" y="339.0234375">Main Door</text><text fill="black" font-family="Arial" font-size="18px" font-weight="bold" text-anchor="middle" x="400.0" y="30">Floor Plan - ID: 13354</text></svg>