<?xml version="1.0" encoding="utf-8" ?>
<svg baseProfile="full" height="600px" version="1.1" viewBox="0 0 800 600" width="800px" xmlns="http://www.w3.org/2000/svg" xmlns:ev="http://www.w3.org/2001/xml-events" xmlns:xlink="http://www.w3.org/1999/xlink"><defs /><rect fill="white" height="600" width="800" x="0" y="0" /><polygon fill="none" id="floor_plan_boundary" points="317.734375,105.9375 317.734375,264.140625 326.171875,264.140625 328.28125,110.15625 402.109375,110.15625 404.21875,154.453125 494.921875,156.5625 494.921875,262.03125 520.234375,264.140625 520.234375,437.109375 395.78125,439.21875 393.671875,485.625 281.875,485.625 279.765625,325.3125 326.171875,323.203125 326.171875,302.109375 317.734375,302.109375 315.625,314.765625 271.328125,314.765625 271.328125,494.0625 404.21875,494.0625 406.328125,447.65625 528.671875,447.65625 528.671875,253.59375 503.359375,251.484375 503.359375,146.015625 414.765625,146.015625 412.65625,105.9375" stroke="black" stroke-linecap="butt" stroke-linejoin="miter" stroke-width="4" /><g id="room_living_room"><polygon fill="rgb(238,232,170)" fill-opacity="0.7" points="328.28125,224.0625 328.28125,323.203125 281.875,325.3125 281.875,483.515625 393.671875,483.515625 395.78125,316.875 437.96875,314.765625 437.96875,281.015625 395.78125,278.90625 395.78125,224.0625" stroke="black" stroke-width="1.5" /><text dominant-baseline="middle" fill="black" font-family="Arial" font-size="12px" font-weight="bold" text-anchor="middle" x="360.9765625" y="354.84375">Living Room</text></g><g id="room_master_bedroom"><polygon fill="rgb(255,165,0)" fill-opacity="0.7" points="404.21875,323.203125 404.21875,437.109375 518.125,437.109375 518.125,323.203125" stroke="black" stroke-width="1.5" /><text dominant-baseline="middle" fill="black" font-family="Arial" font-size="12px" font-weight="bold" text-anchor="middle" x="462.2265625" y="381.2109375">Master Bedroom</text></g><g id="room_common_room"><polygon fill="rgb(255,215,0)" fill-opacity="0.7" points="404.21875,156.5625 404.21875,272.578125 437.96875,272.578125 435.859375,257.8125 442.1875,251.484375 492.8125,253.59375 492.8125,156.5625" stroke="black" stroke-width="1.5" /><text dominant-baseline="middle" fill="black" font-family="Arial" font-size="12px" font-weight="bold" text-anchor="middle" x="449.5703125" y="215.625">Common Room</text></g><g id="room_kitchen"><polygon fill="rgb(240,128,128)" fill-opacity="0.7" points="328.28125,156.5625 328.28125,215.625 395.78125,215.625 395.78125,156.5625" stroke="black" stroke-width="1.5" /><text dominant-baseline="middle" fill="black" font-family="Arial" font-size="12px" font-weight="bold" text-anchor="middle" x="363.0859375" y="187.1484375">Kitchen</text></g><g id="room_bathroom"><polygon fill="rgb(173,216,230)" fill-opacity="0.7" points="446.40625,262.03125 446.40625,314.765625 518.125,314.765625 518.125,264.140625" stroke="black" stroke-width="1.5" /><text dominant-baseline="middle" fill="black" font-family="Arial" font-size="12px" font-weight="bold" text-anchor="middle" x="483.3203125" y="289.453125">Bathroom</text></g><g id="room_balcony"><polygon fill="rgb(107,142,35)" fill-opacity="0.7" points="328.28125,112.265625 328.28125,143.90625 402.109375,143.90625 402.109375,112.265625" stroke="black" stroke-width="1.5" /><text dominant-baseline="middle" fill="black" font-family="Arial" font-size="12px" font-weight="bold" text-anchor="middle" x="366.25" y="129.140625">Balcony</text></g><rect fill="red" fill-opacity="0.9" height="35.859375" id="main_door" stroke="darkred" stroke-width="3" width="10.546875" x="317.734375" y="266.25" /><text dominant-baseline="middle" fill="white" font-family="Arial" font-size="9px" font-weight="bold" text-anchor="middle" x="323.0078125" y="284.1796875">Main Door</text><text fill="black" font-family="Arial" font-size="18px" font-weight="bold" text-anchor="middle" x="400.0" y="30">Floor Plan - ID: 13447</text></svg>