<?xml version="1.0" encoding="utf-8" ?>
<svg baseProfile="full" height="600px" version="1.1" viewBox="0 0 800 600" width="800px" xmlns="http://www.w3.org/2000/svg" xmlns:ev="http://www.w3.org/2001/xml-events" xmlns:xlink="http://www.w3.org/1999/xlink"><defs /><rect fill="white" height="600" width="800" x="0" y="0" /><polygon fill="none" id="floor_plan_boundary" points="180.625,171.328125 180.625,293.671875 229.140625,295.78125 229.140625,428.671875 570.859375,428.671875 570.859375,295.78125 619.375,293.671875 619.375,171.328125 524.453125,171.328125 522.34375,198.75 459.0625,198.75 456.953125,171.328125 446.40625,171.328125 452.734375,202.96875 528.671875,202.96875 530.78125,175.546875 615.15625,177.65625 615.15625,287.34375 566.640625,289.453125 564.53125,424.453125 235.46875,424.453125 233.359375,289.453125 184.84375,287.34375 184.84375,177.65625 404.21875,171.328125" stroke="black" stroke-linecap="butt" stroke-linejoin="miter" stroke-width="4" /><g id="room_living_room"><polygon fill="rgb(238,232,170)" fill-opacity="0.7" points="332.5,177.65625 334.609375,251.484375 277.65625,255.703125 277.65625,287.34375 330.390625,289.453125 330.390625,422.34375 448.515625,422.34375 446.40625,236.71875 488.59375,232.5 488.59375,205.078125 452.734375,205.078125 450.625,177.65625" stroke="black" stroke-width="1.5" /><text dominant-baseline="middle" fill="black" font-family="Arial" font-size="12px" font-weight="bold" text-anchor="middle" x="384.1796875" y="301.0546875">Living Room</text></g><g id="room_master_bedroom"><polygon fill="rgb(255,165,0)" fill-opacity="0.7" points="456.953125,240.9375 456.953125,422.34375 564.53125,422.34375 564.53125,295.78125 490.703125,295.78125 488.59375,240.9375" stroke="black" stroke-width="1.5" /><text dominant-baseline="middle" fill="black" font-family="Arial" font-size="12px" font-weight="bold" text-anchor="middle" x="511.796875" y="332.6953125">Master Bedroom</text></g><g id="room_common_room"><polygon fill="rgb(255,215,0)" fill-opacity="0.7" points="235.46875,295.78125 235.46875,422.34375 321.953125,422.34375 321.953125,295.78125" stroke="black" stroke-width="1.5" /><text dominant-baseline="middle" fill="black" font-family="Arial" font-size="12px" font-weight="bold" text-anchor="middle" x="279.765625" y="360.1171875">Common Room</text></g><g id="room_common_room_2"><polygon fill="rgb(255,215,0)" fill-opacity="0.7" points="186.953125,177.65625 186.953125,287.34375 269.21875,287.34375 269.21875,177.65625" stroke="black" stroke-width="1.5" /><text dominant-baseline="middle" fill="black" font-family="Arial" font-size="12px" font-weight="bold" text-anchor="middle" x="229.140625" y="233.5546875">Common Room 2</text></g><g id="room_kitchen"><polygon fill="rgb(240,128,128)" fill-opacity="0.7" points="497.03125,205.078125 497.03125,232.5 613.046875,232.5 613.046875,177.65625 530.78125,177.65625 528.671875,205.078125" stroke="black" stroke-width="1.5" /><text dominant-baseline="middle" fill="black" font-family="Arial" font-size="12px" font-weight="bold" text-anchor="middle" x="556.09375" y="206.1328125">Kitchen</text></g><g id="room_bathroom_2"><polygon fill="rgb(173,216,230)" fill-opacity="0.7" points="277.65625,177.65625 277.65625,247.265625 324.0625,247.265625 324.0625,177.65625" stroke="black" stroke-width="1.5" /><text dominant-baseline="middle" fill="black" font-family="Arial" font-size="12px" font-weight="bold" text-anchor="middle" x="301.9140625" y="213.515625">Bathroom 2</text></g><g id="room_bathroom"><polygon fill="rgb(173,216,230)" fill-opacity="0.7" points="497.03125,240.9375 497.03125,287.34375 564.53125,287.34375 564.53125,240.9375" stroke="black" stroke-width="1.5" /><text dominant-baseline="middle" fill="black" font-family="Arial" font-size="12px" font-weight="bold" text-anchor="middle" x="531.8359375" y="265.1953125">Bathroom</text></g><g id="room_balcony"><polygon fill="rgb(107,142,35)" fill-opacity="0.7" points="572.96875,240.9375 572.96875,287.34375 613.046875,287.34375 613.046875,240.9375" stroke="black" stroke-width="1.5" /><text dominant-baseline="middle" fill="black" font-family="Arial" font-size="12px" font-weight="bold" text-anchor="middle" x="594.0625" y="265.1953125">Balcony</text></g><rect fill="red" fill-opacity="0.9" height="6.328125" id="main_door" stroke="darkred" stroke-width="3" width="40.078125" x="406.328125" y="171.328125" /><text dominant-baseline="middle" fill="white" font-family="Arial" font-size="9px" font-weight="bold" text-anchor="middle" x="426.3671875" y="174.4921875">Main Door</text><text fill="black" font-family="Arial" font-size="18px" font-weight="bold" text-anchor="middle" x="400.0" y="30">Floor Plan - ID: 13581</text></svg>