<?xml version="1.0" encoding="utf-8" ?>
<svg baseProfile="full" height="600px" version="1.1" viewBox="0 0 800 600" width="800px" xmlns="http://www.w3.org/2000/svg" xmlns:ev="http://www.w3.org/2001/xml-events" xmlns:xlink="http://www.w3.org/1999/xlink"><defs /><rect fill="white" height="600" width="800" x="0" y="0" /><polygon fill="none" id="floor_plan_boundary" points="516.015625,93.28125 385.234375,93.28125 383.125,139.6875 364.140625,139.6875 362.03125,120.703125 302.96875,120.703125 302.96875,137.578125 283.984375,139.6875 283.984375,378.046875 309.296875,380.15625 309.296875,489.84375 328.28125,489.84375 330.390625,506.71875 389.453125,506.71875 391.5625,489.84375 473.828125,489.84375 473.828125,312.65625 469.609375,483.515625 385.234375,485.625 383.125,502.5 336.71875,502.5 334.609375,485.625 315.625,485.625 313.515625,373.828125 288.203125,371.71875 288.203125,146.015625 307.1875,143.90625 309.296875,124.921875 355.703125,124.921875 357.8125,143.90625 389.453125,143.90625 391.5625,97.5 509.6875,97.5 516.015625,316.875" stroke="black" stroke-linecap="butt" stroke-linejoin="miter" stroke-width="4" /><g id="room_living_room"><polygon fill="rgb(238,232,170)" fill-opacity="0.7" points="391.5625,146.015625 391.5625,274.6875 345.15625,276.796875 345.15625,371.71875 467.5,371.71875 467.5,312.65625 509.6875,310.546875 509.6875,146.015625" stroke="black" stroke-width="1.5" /><text dominant-baseline="middle" fill="black" font-family="Arial" font-size="12px" font-weight="bold" text-anchor="middle" x="428.4765625" y="259.921875">Living Room</text></g><g id="room_master_bedroom"><polygon fill="rgb(255,165,0)" fill-opacity="0.7" points="309.296875,127.03125 309.296875,143.90625 290.3125,146.015625 290.3125,268.359375 383.125,268.359375 383.125,146.015625 357.8125,146.015625 355.703125,127.03125" stroke="black" stroke-width="1.5" /><text dominant-baseline="middle" fill="black" font-family="Arial" font-size="12px" font-weight="bold" text-anchor="middle" x="337.7734375" y="198.75">Master Bedroom</text></g><g id="room_common_room"><polygon fill="rgb(255,215,0)" fill-opacity="0.7" points="315.625,380.15625 315.625,483.515625 334.609375,483.515625 336.71875,500.390625 383.125,500.390625 385.234375,483.515625 408.4375,483.515625 408.4375,380.15625" stroke="black" stroke-width="1.5" /><text dominant-baseline="middle" fill="black" font-family="Arial" font-size="12px" font-weight="bold" text-anchor="middle" x="363.0859375" y="441.328125">Common Room</text></g><g id="room_kitchen"><polygon fill="rgb(240,128,128)" fill-opacity="0.7" points="416.875,380.15625 416.875,483.515625 467.5,483.515625 467.5,380.15625" stroke="black" stroke-width="1.5" /><text dominant-baseline="middle" fill="black" font-family="Arial" font-size="12px" font-weight="bold" text-anchor="middle" x="443.2421875" y="432.890625">Kitchen</text></g><g id="room_balcony"><polygon fill="rgb(107,142,35)" fill-opacity="0.7" points="391.5625,99.609375 391.5625,137.578125 509.6875,137.578125 509.6875,99.609375" stroke="black" stroke-width="1.5" /><text dominant-baseline="middle" fill="black" font-family="Arial" font-size="12px" font-weight="bold" text-anchor="middle" x="451.6796875" y="119.6484375">Balcony</text></g><g id="room_bathroom"><polygon fill="rgb(173,216,230)" fill-opacity="0.7" points="290.3125,276.796875 290.3125,371.71875 336.71875,371.71875 336.71875,276.796875" stroke="black" stroke-width="1.5" /><text dominant-baseline="middle" fill="black" font-family="Arial" font-size="12px" font-weight="bold" text-anchor="middle" x="314.5703125" y="325.3125">Bathroom</text></g><rect fill="red" fill-opacity="0.9" height="6.328125" id="main_door" stroke="darkred" stroke-width="3" width="35.859375" x="475.9375" y="312.65625" /><text dominant-baseline="middle" fill="white" font-family="Arial" font-size="9px" font-weight="bold" text-anchor="middle" x="493.8671875" y="315.8203125">Main Door</text><text fill="black" font-family="Arial" font-size="18px" font-weight="bold" text-anchor="middle" x="400.0" y="30">Floor Plan - ID: 13711</text></svg>