<?xml version="1.0" encoding="utf-8" ?>
<svg baseProfile="full" height="600px" version="1.1" viewBox="0 0 800 600" width="800px" xmlns="http://www.w3.org/2000/svg" xmlns:ev="http://www.w3.org/2001/xml-events" xmlns:xlink="http://www.w3.org/1999/xlink"><defs /><rect fill="white" height="600" width="800" x="0" y="0" /><polygon fill="none" id="floor_plan_boundary" points="208.046875,118.59375 208.046875,316.875 250.234375,316.875 252.34375,325.3125 256.5625,312.65625 212.265625,310.546875 214.375,122.8125 378.90625,122.8125 381.015625,154.453125 511.796875,156.5625 511.796875,308.4375 585.625,308.4375 587.734375,367.5 501.25,369.609375 499.140625,477.1875 258.671875,477.1875 252.34375,354.84375 252.34375,481.40625 505.46875,481.40625 505.46875,375.9375 591.953125,373.828125 591.953125,304.21875 516.015625,302.109375 516.015625,150.234375 387.34375,150.234375 385.234375,118.59375" stroke="black" stroke-linecap="butt" stroke-linejoin="miter" stroke-width="4" /><g id="room_living_room"><polygon fill="rgb(238,232,170)" fill-opacity="0.7" points="214.375,156.5625 214.375,310.546875 258.671875,312.65625 258.671875,437.109375 393.671875,437.109375 395.78125,367.5 509.6875,367.5 509.6875,310.546875 378.90625,308.4375 378.90625,156.5625" stroke="black" stroke-width="1.5" /><text dominant-baseline="middle" fill="black" font-family="Arial" font-size="12px" font-weight="bold" text-anchor="middle" x="363.0859375" y="297.890625">Living Room</text></g><g id="room_master_bedroom"><polygon fill="rgb(255,165,0)" fill-opacity="0.7" points="387.34375,156.5625 387.34375,302.109375 509.6875,302.109375 509.6875,156.5625" stroke="black" stroke-width="1.5" /><text dominant-baseline="middle" fill="black" font-family="Arial" font-size="12px" font-weight="bold" text-anchor="middle" x="449.5703125" y="230.390625">Master Bedroom</text></g><g id="room_common_room"><polygon fill="rgb(255,215,0)" fill-opacity="0.7" points="402.109375,375.9375 402.109375,475.078125 499.140625,475.078125 499.140625,375.9375" stroke="black" stroke-width="1.5" /><text dominant-baseline="middle" fill="black" font-family="Arial" font-size="12px" font-weight="bold" text-anchor="middle" x="451.6796875" y="426.5625">Common Room</text></g><g id="room_kitchen"><polygon fill="rgb(240,128,128)" fill-opacity="0.7" points="258.671875,445.546875 258.671875,475.078125 393.671875,475.078125 393.671875,445.546875" stroke="black" stroke-width="1.5" /><text dominant-baseline="middle" fill="black" font-family="Arial" font-size="12px" font-weight="bold" text-anchor="middle" x="327.2265625" y="461.3671875">Kitchen</text></g><g id="room_bathroom"><polygon fill="rgb(173,216,230)" fill-opacity="0.7" points="518.125,310.546875 518.125,367.5 585.625,367.5 585.625,310.546875" stroke="black" stroke-width="1.5" /><text dominant-baseline="middle" fill="black" font-family="Arial" font-size="12px" font-weight="bold" text-anchor="middle" x="552.9296875" y="340.078125">Bathroom</text></g><g id="room_balcony"><polygon fill="rgb(107,142,35)" fill-opacity="0.7" points="214.375,124.921875 214.375,148.125 378.90625,148.125 378.90625,124.921875" stroke="black" stroke-width="1.5" /><text dominant-baseline="middle" fill="black" font-family="Arial" font-size="12px" font-weight="bold" text-anchor="middle" x="297.6953125" y="137.578125">Balcony</text></g><rect fill="red" fill-opacity="0.9" height="27.421875" id="main_door" stroke="darkred" stroke-width="3" width="6.328125" x="252.34375" y="327.421875" /><text dominant-baseline="middle" fill="white" font-family="Arial" font-size="9px" font-weight="bold" text-anchor="middle" x="255.5078125" y="341.1328125">Main Door</text><text fill="black" font-family="Arial" font-size="18px" font-weight="bold" text-anchor="middle" x="400.0" y="30">Floor Plan - ID: 13729</text></svg>