<?xml version="1.0" encoding="utf-8" ?>
<svg baseProfile="full" height="600px" version="1.1" viewBox="0 0 800 600" width="800px" xmlns="http://www.w3.org/2000/svg" xmlns:ev="http://www.w3.org/2001/xml-events" xmlns:xlink="http://www.w3.org/1999/xlink"><defs /><rect fill="white" height="600" width="800" x="0" y="0" /><polygon fill="none" id="floor_plan_boundary" points="222.8125,160.78125 222.8125,314.765625 184.84375,316.875 184.84375,420.234375 243.90625,422.34375 243.90625,494.0625 324.0625,494.0625 324.0625,485.625 252.34375,483.515625 252.34375,411.796875 193.28125,409.6875 193.28125,327.421875 231.25,325.3125 231.25,171.328125 330.390625,169.21875 332.5,114.375 463.28125,114.375 465.390625,169.21875 570.859375,169.21875 572.96875,354.84375 606.71875,356.953125 604.609375,411.796875 370.46875,411.796875 370.46875,483.515625 362.03125,494.0625 378.90625,494.0625 381.015625,420.234375 615.15625,420.234375 615.15625,346.40625 581.40625,344.296875 581.40625,160.78125 475.9375,160.78125 473.828125,105.9375 321.953125,105.9375 319.84375,160.78125" stroke="black" stroke-linecap="butt" stroke-linejoin="miter" stroke-width="4" /><g id="room_living_room"><polygon fill="rgb(238,232,170)" fill-opacity="0.7" points="463.28125,116.484375 332.5,116.484375 319.84375,483.515625 368.359375,483.515625 370.46875,409.6875 501.25,409.6875 501.25,359.0625 463.28125,354.84375" stroke="black" stroke-width="1.5" /><text dominant-baseline="middle" fill="black" font-family="Arial" font-size="12px" font-weight="bold" text-anchor="middle" x="411.6015625" y="301.0546875">Living Room</text></g><g id="room_common_room_2"><polygon fill="rgb(255,215,0)" fill-opacity="0.7" points="233.359375,171.328125 233.359375,314.765625 319.84375,314.765625 319.84375,171.328125" stroke="black" stroke-width="1.5" /><text dominant-baseline="middle" fill="black" font-family="Arial" font-size="12px" font-weight="bold" text-anchor="middle" x="277.65625" y="244.1015625">Common Room 2</text></g><g id="room_master_bedroom"><polygon fill="rgb(255,165,0)" fill-opacity="0.7" points="570.859375,171.328125 475.9375,171.328125 475.9375,344.296875 499.140625,344.296875 501.25,276.796875 570.859375,276.796875" stroke="black" stroke-width="1.5" /><text dominant-baseline="middle" fill="black" font-family="Arial" font-size="12px" font-weight="bold" text-anchor="middle" x="524.453125" y="258.8671875">Master Bedroom</text></g><g id="room_common_room"><polygon fill="rgb(255,215,0)" fill-opacity="0.7" points="195.390625,327.421875 195.390625,409.6875 319.84375,409.6875 319.84375,327.421875" stroke="black" stroke-width="1.5" /><text dominant-baseline="middle" fill="black" font-family="Arial" font-size="12px" font-weight="bold" text-anchor="middle" x="258.671875" y="369.609375">Common Room</text></g><g id="room_kitchen"><polygon fill="rgb(240,128,128)" fill-opacity="0.7" points="509.6875,359.0625 509.6875,409.6875 604.609375,409.6875 604.609375,356.953125" stroke="black" stroke-width="1.5" /><text dominant-baseline="middle" fill="black" font-family="Arial" font-size="12px" font-weight="bold" text-anchor="middle" x="558.203125" y="384.375">Kitchen</text></g><g id="room_bathroom_2"><polygon fill="rgb(173,216,230)" fill-opacity="0.7" points="511.796875,289.453125 511.796875,344.296875 570.859375,344.296875 570.859375,289.453125" stroke="black" stroke-width="1.5" /><text dominant-baseline="middle" fill="black" font-family="Arial" font-size="12px" font-weight="bold" text-anchor="middle" x="542.3828125" y="317.9296875">Bathroom 2</text></g><g id="room_bathroom"><polygon fill="rgb(173,216,230)" fill-opacity="0.7" points="254.453125,422.34375 254.453125,483.515625 307.1875,483.515625 307.1875,422.34375" stroke="black" stroke-width="1.5" /><text dominant-baseline="middle" fill="black" font-family="Arial" font-size="12px" font-weight="bold" text-anchor="middle" x="281.875" y="453.984375">Bathroom</text></g><rect fill="red" fill-opacity="0.9" height="10.546875" id="main_door" stroke="darkred" stroke-width="3" width="35.859375" x="326.171875" y="485.625" /><text dominant-baseline="middle" fill="white" font-family="Arial" font-size="9px" font-weight="bold" text-anchor="middle" x="344.1015625" y="490.8984375">Main Door</text><text fill="black" font-family="Arial" font-size="18px" font-weight="bold" text-anchor="middle" x="400.0" y="30">Floor Plan - ID: 13814</text></svg>