<?xml version="1.0" encoding="utf-8" ?>
<svg baseProfile="full" height="600px" version="1.1" viewBox="0 0 800 600" width="800px" xmlns="http://www.w3.org/2000/svg" xmlns:ev="http://www.w3.org/2001/xml-events" xmlns:xlink="http://www.w3.org/1999/xlink"><defs /><rect fill="white" height="600" width="800" x="0" y="0" /><polygon fill="none" id="floor_plan_boundary" points="288.203125,89.0625 288.203125,460.3125 378.90625,460.3125 381.015625,510.9375 511.796875,510.9375 511.796875,224.0625 461.171875,226.171875 461.171875,232.5 503.359375,234.609375 503.359375,500.390625 391.5625,502.5 389.453125,451.875 296.640625,449.765625 296.640625,99.609375 459.0625,97.5 461.171875,196.640625 469.609375,196.640625 469.609375,89.0625" stroke="black" stroke-linecap="butt" stroke-linejoin="miter" stroke-width="4" /><g id="room_living_room"><polygon fill="rgb(238,232,170)" fill-opacity="0.7" points="391.5625,160.78125 389.453125,230.390625 298.75,230.390625 298.75,304.21875 391.5625,306.328125 391.5625,449.765625 501.25,449.765625 501.25,316.875 442.1875,314.765625 459.0625,160.78125" stroke="black" stroke-width="1.5" /><text dominant-baseline="middle" fill="black" font-family="Arial" font-size="12px" font-weight="bold" text-anchor="middle" x="401.0546875" y="306.328125">Living Room</text></g><g id="room_master_bedroom"><polygon fill="rgb(255,165,0)" fill-opacity="0.7" points="298.75,316.875 298.75,449.765625 378.90625,449.765625 378.90625,316.875" stroke="black" stroke-width="1.5" /><text dominant-baseline="middle" fill="black" font-family="Arial" font-size="12px" font-weight="bold" text-anchor="middle" x="339.8828125" y="384.375">Master Bedroom</text></g><g id="room_common_room"><polygon fill="rgb(255,215,0)" fill-opacity="0.7" points="298.75,99.609375 298.75,217.734375 378.90625,217.734375 378.90625,99.609375" stroke="black" stroke-width="1.5" /><text dominant-baseline="middle" fill="black" font-family="Arial" font-size="12px" font-weight="bold" text-anchor="middle" x="339.8828125" y="159.7265625">Common Room</text></g><g id="room_balcony"><polygon fill="rgb(107,142,35)" fill-opacity="0.7" points="391.5625,462.421875 391.5625,500.390625 501.25,500.390625 501.25,462.421875" stroke="black" stroke-width="1.5" /><text dominant-baseline="middle" fill="black" font-family="Arial" font-size="12px" font-weight="bold" text-anchor="middle" x="447.4609375" y="482.4609375">Balcony</text></g><g id="room_kitchen"><polygon fill="rgb(240,128,128)" fill-opacity="0.7" points="391.5625,99.609375 391.5625,152.34375 459.0625,152.34375 459.0625,99.609375" stroke="black" stroke-width="1.5" /><text dominant-baseline="middle" fill="black" font-family="Arial" font-size="12px" font-weight="bold" text-anchor="middle" x="426.3671875" y="127.03125">Kitchen</text></g><g id="room_bathroom"><polygon fill="rgb(173,216,230)" fill-opacity="0.7" points="454.84375,234.609375 454.84375,304.21875 501.25,304.21875 501.25,234.609375" stroke="black" stroke-width="1.5" /><text dominant-baseline="middle" fill="black" font-family="Arial" font-size="12px" font-weight="bold" text-anchor="middle" x="479.1015625" y="270.46875">Bathroom</text></g><rect fill="red" fill-opacity="0.9" height="27.421875" id="main_door" stroke="darkred" stroke-width="3" width="10.546875" x="461.171875" y="198.75" /><text dominant-baseline="middle" fill="white" font-family="Arial" font-size="9px" font-weight="bold" text-anchor="middle" x="466.4453125" y="212.4609375">Main Door</text><text fill="black" font-family="Arial" font-size="18px" font-weight="bold" text-anchor="middle" x="400.0" y="30">Floor Plan - ID: 1398</text></svg>