<?xml version="1.0" encoding="utf-8" ?>
<svg baseProfile="full" height="600px" version="1.1" viewBox="0 0 800 600" width="800px" xmlns="http://www.w3.org/2000/svg" xmlns:ev="http://www.w3.org/2001/xml-events" xmlns:xlink="http://www.w3.org/1999/xlink"><defs /><rect fill="white" height="600" width="800" x="0" y="0" /><polygon fill="none" id="floor_plan_boundary" points="262.890625,194.53125 262.890625,302.109375 302.96875,304.21875 302.96875,428.671875 408.4375,428.671875 410.546875,468.75 537.109375,468.75 537.109375,160.78125 530.78125,160.78125 526.5625,460.3125 421.09375,460.3125 418.984375,420.234375 313.515625,420.234375 311.40625,293.671875 271.328125,291.5625 273.4375,202.96875 362.03125,202.96875 364.140625,139.6875 486.484375,139.6875 492.8125,169.21875 497.03125,133.359375 357.8125,131.25 351.484375,194.53125" stroke="black" stroke-linecap="butt" stroke-linejoin="miter" stroke-width="4" /><g id="room_living_room"><polygon fill="rgb(238,232,170)" fill-opacity="0.7" points="526.5625,171.328125 499.140625,171.328125 497.03125,205.078125 427.421875,205.078125 425.3125,259.921875 364.140625,259.921875 364.140625,291.5625 421.09375,293.671875 421.09375,418.125 526.5625,418.125" stroke="black" stroke-width="1.5" /><text dominant-baseline="middle" fill="black" font-family="Arial" font-size="12px" font-weight="bold" text-anchor="middle" x="446.40625" y="295.78125">Living Room</text></g><g id="room_master_bedroom"><polygon fill="rgb(255,165,0)" fill-opacity="0.7" points="313.515625,304.21875 313.515625,418.125 408.4375,418.125 408.4375,304.21875" stroke="black" stroke-width="1.5" /><text dominant-baseline="middle" fill="black" font-family="Arial" font-size="12px" font-weight="bold" text-anchor="middle" x="362.03125" y="362.2265625">Master Bedroom</text></g><g id="room_common_room"><polygon fill="rgb(255,215,0)" fill-opacity="0.7" points="273.4375,205.078125 273.4375,291.5625 351.484375,291.5625 351.484375,205.078125" stroke="black" stroke-width="1.5" /><text dominant-baseline="middle" fill="black" font-family="Arial" font-size="12px" font-weight="bold" text-anchor="middle" x="313.515625" y="249.375">Common Room</text></g><g id="room_kitchen"><polygon fill="rgb(240,128,128)" fill-opacity="0.7" points="427.421875,141.796875 427.421875,192.421875 486.484375,192.421875 486.484375,141.796875" stroke="black" stroke-width="1.5" /><text dominant-baseline="middle" fill="black" font-family="Arial" font-size="12px" font-weight="bold" text-anchor="middle" x="458.0078125" y="168.1640625">Kitchen</text></g><g id="room_balcony"><polygon fill="rgb(107,142,35)" fill-opacity="0.7" points="421.09375,430.78125 421.09375,458.203125 526.5625,458.203125 526.5625,430.78125" stroke="black" stroke-width="1.5" /><text dominant-baseline="middle" fill="black" font-family="Arial" font-size="12px" font-weight="bold" text-anchor="middle" x="474.8828125" y="445.546875">Balcony</text></g><g id="room_balcony_2"><polygon fill="rgb(107,142,35)" fill-opacity="0.7" points="364.140625,141.796875 364.140625,192.421875 414.765625,192.421875 414.765625,141.796875" stroke="black" stroke-width="1.5" /><text dominant-baseline="middle" fill="black" font-family="Arial" font-size="12px" font-weight="bold" text-anchor="middle" x="390.5078125" y="168.1640625">Balcony 2</text></g><g id="room_bathroom"><polygon fill="rgb(173,216,230)" fill-opacity="0.7" points="364.140625,205.078125 364.140625,251.484375 414.765625,251.484375 414.765625,205.078125" stroke="black" stroke-width="1.5" /><text dominant-baseline="middle" fill="black" font-family="Arial" font-size="12px" font-weight="bold" text-anchor="middle" x="390.5078125" y="229.3359375">Bathroom</text></g><rect fill="red" fill-opacity="0.9" height="10.546875" id="main_door" stroke="darkred" stroke-width="3" width="35.859375" x="494.921875" y="160.78125" /><text dominant-baseline="middle" fill="white" font-family="Arial" font-size="9px" font-weight="bold" text-anchor="middle" x="512.8515625" y="166.0546875">Main Door</text><text fill="black" font-family="Arial" font-size="18px" font-weight="bold" text-anchor="middle" x="400.0" y="30">Floor Plan - ID: 14018</text></svg>