<?xml version="1.0" encoding="utf-8" ?>
<svg baseProfile="full" height="600px" version="1.1" viewBox="0 0 800 600" width="800px" xmlns="http://www.w3.org/2000/svg" xmlns:ev="http://www.w3.org/2001/xml-events" xmlns:xlink="http://www.w3.org/1999/xlink"><defs /><rect fill="white" height="600" width="800" x="0" y="0" /><polygon fill="none" id="floor_plan_boundary" points="562.421875,179.765625 383.125,179.765625 381.015625,205.078125 246.015625,205.078125 246.015625,295.78125 189.0625,297.890625 189.0625,420.234375 418.984375,420.234375 410.546875,420.234375 408.4375,411.796875 197.5,409.6875 197.5,308.4375 254.453125,306.328125 254.453125,215.625 391.5625,213.515625 393.671875,188.203125 551.875,188.203125 553.984375,295.78125 602.5,297.890625 600.390625,373.828125 410.546875,373.828125 410.546875,386.484375 610.9375,382.265625 610.9375,287.34375 562.421875,285.234375" stroke="black" stroke-linecap="butt" stroke-linejoin="miter" stroke-width="4" /><g id="room_living_room"><polygon fill="rgb(238,232,170)" fill-opacity="0.7" points="471.71875,297.890625 383.125,297.890625 381.015625,272.578125 340.9375,272.578125 338.828125,308.4375 199.609375,308.4375 199.609375,409.6875 408.4375,409.6875 410.546875,371.71875 471.71875,371.71875" stroke="black" stroke-width="1.5" /><text dominant-baseline="middle" fill="black" font-family="Arial" font-size="12px" font-weight="bold" text-anchor="middle" x="336.71875" y="342.1875">Living Room</text></g><g id="room_master_bedroom"><polygon fill="rgb(255,165,0)" fill-opacity="0.7" points="448.515625,190.3125 448.515625,285.234375 551.875,285.234375 551.875,190.3125" stroke="black" stroke-width="1.5" /><text dominant-baseline="middle" fill="black" font-family="Arial" font-size="12px" font-weight="bold" text-anchor="middle" x="501.25" y="238.828125">Master Bedroom</text></g><g id="room_common_room"><polygon fill="rgb(255,215,0)" fill-opacity="0.7" points="484.375,297.890625 484.375,371.71875 600.390625,371.71875 600.390625,297.890625" stroke="black" stroke-width="1.5" /><text dominant-baseline="middle" fill="black" font-family="Arial" font-size="12px" font-weight="bold" text-anchor="middle" x="543.4375" y="335.859375">Common Room</text></g><g id="room_common_room_2"><polygon fill="rgb(255,215,0)" fill-opacity="0.7" points="256.5625,215.625 256.5625,295.78125 328.28125,295.78125 328.28125,215.625" stroke="black" stroke-width="1.5" /><text dominant-baseline="middle" fill="black" font-family="Arial" font-size="12px" font-weight="bold" text-anchor="middle" x="293.4765625" y="256.7578125">Common Room 2</text></g><g id="room_kitchen"><polygon fill="rgb(240,128,128)" fill-opacity="0.7" points="393.671875,190.3125 393.671875,285.234375 435.859375,285.234375 435.859375,190.3125" stroke="black" stroke-width="1.5" /><text dominant-baseline="middle" fill="black" font-family="Arial" font-size="12px" font-weight="bold" text-anchor="middle" x="415.8203125" y="238.828125">Kitchen</text></g><g id="room_bathroom"><polygon fill="rgb(173,216,230)" fill-opacity="0.7" points="340.9375,215.625 340.9375,259.921875 381.015625,259.921875 381.015625,215.625" stroke="black" stroke-width="1.5" /><text dominant-baseline="middle" fill="black" font-family="Arial" font-size="12px" font-weight="bold" text-anchor="middle" x="362.03125" y="238.828125">Bathroom</text></g><rect fill="red" fill-opacity="0.9" height="31.640625" id="main_door" stroke="darkred" stroke-width="3" width="10.546875" x="410.546875" y="388.59375" /><text dominant-baseline="middle" fill="white" font-family="Arial" font-size="9px" font-weight="bold" text-anchor="middle" x="415.8203125" y="404.4140625">Main Door</text><text fill="black" font-family="Arial" font-size="18px" font-weight="bold" text-anchor="middle" x="400.0" y="30">Floor Plan - ID: 14038</text></svg>