<?xml version="1.0" encoding="utf-8" ?>
<svg baseProfile="full" height="600px" version="1.1" viewBox="0 0 800 600" width="800px" xmlns="http://www.w3.org/2000/svg" xmlns:ev="http://www.w3.org/2001/xml-events" xmlns:xlink="http://www.w3.org/1999/xlink"><defs /><rect fill="white" height="600" width="800" x="0" y="0" /><polygon fill="none" id="floor_plan_boundary" points="239.6875,171.328125 239.6875,462.421875 429.53125,462.421875 431.640625,479.296875 560.3125,479.296875 560.3125,333.75 528.671875,333.75 528.671875,272.578125 505.46875,272.578125 494.921875,281.015625 520.234375,283.125 520.234375,342.1875 551.875,346.40625 549.765625,470.859375 442.1875,470.859375 440.078125,453.984375 248.125,451.875 248.125,181.875 353.59375,179.765625 355.703125,129.140625 509.6875,129.140625 511.796875,146.015625 494.921875,148.125 494.921875,243.046875 503.359375,243.046875 503.359375,158.671875 520.234375,156.5625 520.234375,120.703125 345.15625,120.703125 343.046875,171.328125" stroke="black" stroke-linecap="butt" stroke-linejoin="miter" stroke-width="4" /><g id="room_living_room"><polygon fill="rgb(238,232,170)" fill-opacity="0.7" points="429.53125,158.671875 429.53125,281.015625 313.515625,283.125 313.515625,308.4375 440.078125,308.4375 442.1875,468.75 549.765625,468.75 549.765625,346.40625 518.125,342.1875 518.125,283.125 492.8125,281.015625 492.8125,158.671875" stroke="black" stroke-width="1.5" /><text dominant-baseline="middle" fill="black" font-family="Arial" font-size="12px" font-weight="bold" text-anchor="middle" x="432.6953125" y="314.765625">Living Room</text></g><g id="room_common_room_2"><polygon fill="rgb(255,215,0)" fill-opacity="0.7" points="343.046875,321.09375 313.515625,321.09375 311.40625,352.734375 250.234375,352.734375 250.234375,451.875 343.046875,451.875" stroke="black" stroke-width="1.5" /><text dominant-baseline="middle" fill="black" font-family="Arial" font-size="12px" font-weight="bold" text-anchor="middle" x="297.6953125" y="387.5390625">Common Room 2</text></g><g id="room_common_room"><polygon fill="rgb(255,215,0)" fill-opacity="0.7" points="355.703125,321.09375 355.703125,451.875 429.53125,451.875 429.53125,321.09375" stroke="black" stroke-width="1.5" /><text dominant-baseline="middle" fill="black" font-family="Arial" font-size="12px" font-weight="bold" text-anchor="middle" x="393.671875" y="387.5390625">Common Room</text></g><g id="room_common_room_3"><polygon fill="rgb(255,215,0)" fill-opacity="0.7" points="250.234375,181.875 250.234375,270.46875 343.046875,270.46875 343.046875,181.875" stroke="black" stroke-width="1.5" /><text dominant-baseline="middle" fill="black" font-family="Arial" font-size="12px" font-weight="bold" text-anchor="middle" x="297.6953125" y="227.2265625">Common Room 3</text></g><g id="room_kitchen"><polygon fill="rgb(240,128,128)" fill-opacity="0.7" points="355.703125,131.25 355.703125,211.40625 416.875,211.40625 416.875,131.25" stroke="black" stroke-width="1.5" /><text dominant-baseline="middle" fill="black" font-family="Arial" font-size="12px" font-weight="bold" text-anchor="middle" x="387.34375" y="172.3828125">Kitchen</text></g><g id="room_bathroom"><polygon fill="rgb(173,216,230)" fill-opacity="0.7" points="250.234375,283.125 250.234375,340.078125 300.859375,340.078125 300.859375,283.125" stroke="black" stroke-width="1.5" /><text dominant-baseline="middle" fill="black" font-family="Arial" font-size="12px" font-weight="bold" text-anchor="middle" x="276.6015625" y="312.65625">Bathroom</text></g><g id="room_bathroom_2"><polygon fill="rgb(173,216,230)" fill-opacity="0.7" points="355.703125,224.0625 355.703125,270.46875 416.875,270.46875 416.875,224.0625" stroke="black" stroke-width="1.5" /><text dominant-baseline="middle" fill="black" font-family="Arial" font-size="12px" font-weight="bold" text-anchor="middle" x="387.34375" y="248.3203125">Bathroom 2</text></g><g id="room_balcony"><polygon fill="rgb(107,142,35)" fill-opacity="0.7" points="429.53125,131.25 429.53125,146.015625 509.6875,146.015625 509.6875,131.25" stroke="black" stroke-width="1.5" /><text dominant-baseline="middle" fill="black" font-family="Arial" font-size="12px" font-weight="bold" text-anchor="middle" x="470.6640625" y="139.6875">Balcony</text></g><rect fill="red" fill-opacity="0.9" height="31.640625" id="main_door" stroke="darkred" stroke-width="3" width="10.546875" x="494.921875" y="245.15625" /><text dominant-baseline="middle" fill="white" font-family="Arial" font-size="9px" font-weight="bold" text-anchor="middle" x="500.1953125" y="260.9765625">Main Door</text><text fill="black" font-family="Arial" font-size="18px" font-weight="bold" text-anchor="middle" x="400.0" y="30">Floor Plan - ID: 1406</text></svg>