<?xml version="1.0" encoding="utf-8" ?>
<svg baseProfile="full" height="600px" version="1.1" viewBox="0 0 800 600" width="800px" xmlns="http://www.w3.org/2000/svg" xmlns:ev="http://www.w3.org/2001/xml-events" xmlns:xlink="http://www.w3.org/1999/xlink"><defs /><rect fill="white" height="600" width="800" x="0" y="0" /><polygon fill="none" id="floor_plan_boundary" points="201.71875,175.546875 201.71875,278.90625 326.171875,278.90625 328.28125,367.5 418.984375,367.5 421.09375,401.25 433.75,401.25 425.3125,394.921875 425.3125,363.28125 332.5,361.171875 332.5,274.6875 205.9375,272.578125 205.9375,181.875 332.5,179.765625 334.609375,139.6875 448.515625,139.6875 450.625,177.65625 547.65625,177.65625 549.765625,333.75 594.0625,335.859375 594.0625,458.203125 553.984375,458.203125 553.984375,397.03125 463.28125,401.25 547.65625,401.25 549.765625,464.53125 598.28125,464.53125 598.28125,329.53125 553.984375,327.421875 553.984375,173.4375 456.953125,173.4375 454.84375,135.46875 328.28125,135.46875 326.171875,175.546875" stroke="black" stroke-linecap="butt" stroke-linejoin="miter" stroke-width="4" /><g id="room_living_room"><polygon fill="rgb(238,232,170)" fill-opacity="0.7" points="334.609375,141.796875 334.609375,272.578125 381.015625,272.578125 383.125,361.171875 425.3125,361.171875 427.421875,394.921875 463.28125,394.921875 463.28125,329.53125 547.65625,327.421875 547.65625,272.578125 448.515625,270.46875 448.515625,141.796875" stroke="black" stroke-width="1.5" /><text dominant-baseline="middle" fill="black" font-family="Arial" font-size="12px" font-weight="bold" text-anchor="middle" x="442.1875" y="269.4140625">Living Room</text></g><g id="room_master_bedroom"><polygon fill="rgb(255,165,0)" fill-opacity="0.7" points="208.046875,181.875 208.046875,272.578125 326.171875,272.578125 326.171875,181.875" stroke="black" stroke-width="1.5" /><text dominant-baseline="middle" fill="black" font-family="Arial" font-size="12px" font-weight="bold" text-anchor="middle" x="268.1640625" y="228.28125">Master Bedroom</text></g><g id="room_common_room"><polygon fill="rgb(255,215,0)" fill-opacity="0.7" points="456.953125,179.765625 456.953125,264.140625 547.65625,264.140625 547.65625,179.765625" stroke="black" stroke-width="1.5" /><text dominant-baseline="middle" fill="black" font-family="Arial" font-size="12px" font-weight="bold" text-anchor="middle" x="503.359375" y="223.0078125">Common Room</text></g><g id="room_kitchen"><polygon fill="rgb(240,128,128)" fill-opacity="0.7" points="471.71875,335.859375 471.71875,394.921875 547.65625,394.921875 547.65625,335.859375" stroke="black" stroke-width="1.5" /><text dominant-baseline="middle" fill="black" font-family="Arial" font-size="12px" font-weight="bold" text-anchor="middle" x="510.7421875" y="366.4453125">Kitchen</text></g><g id="room_balcony"><polygon fill="rgb(107,142,35)" fill-opacity="0.7" points="556.09375,335.859375 556.09375,458.203125 591.953125,458.203125 591.953125,335.859375" stroke="black" stroke-width="1.5" /><text dominant-baseline="middle" fill="black" font-family="Arial" font-size="12px" font-weight="bold" text-anchor="middle" x="575.078125" y="398.0859375">Balcony</text></g><g id="room_bathroom"><polygon fill="rgb(173,216,230)" fill-opacity="0.7" points="334.609375,281.015625 334.609375,361.171875 374.6875,361.171875 374.6875,281.015625" stroke="black" stroke-width="1.5" /><text dominant-baseline="middle" fill="black" font-family="Arial" font-size="12px" font-weight="bold" text-anchor="middle" x="355.703125" y="322.1484375">Bathroom</text></g><rect fill="red" fill-opacity="0.9" height="6.328125" id="main_door" stroke="darkred" stroke-width="3" width="27.421875" x="435.859375" y="397.03125" /><text dominant-baseline="middle" fill="white" font-family="Arial" font-size="9px" font-weight="bold" text-anchor="middle" x="449.5703125" y="400.1953125">Main Door</text><text fill="black" font-family="Arial" font-size="18px" font-weight="bold" text-anchor="middle" x="400.0" y="30">Floor Plan - ID: 14071</text></svg>