<?xml version="1.0" encoding="utf-8" ?>
<svg baseProfile="full" height="600px" version="1.1" viewBox="0 0 800 600" width="800px" xmlns="http://www.w3.org/2000/svg" xmlns:ev="http://www.w3.org/2001/xml-events" xmlns:xlink="http://www.w3.org/1999/xlink"><defs /><rect fill="white" height="600" width="800" x="0" y="0" /><polygon fill="none" id="floor_plan_boundary" points="343.046875,139.6875 343.046875,202.96875 288.203125,205.078125 288.203125,293.671875 243.90625,295.78125 243.90625,424.453125 429.53125,424.453125 431.640625,460.3125 556.09375,460.3125 556.09375,205.078125 518.125,202.96875 518.125,139.6875 501.25,139.6875 513.90625,146.015625 513.90625,209.296875 551.875,211.40625 551.875,453.984375 437.96875,456.09375 435.859375,420.234375 248.125,418.125 248.125,302.109375 292.421875,300.0 292.421875,211.40625 347.265625,209.296875 349.375,143.90625 471.71875,143.90625" stroke="black" stroke-linecap="butt" stroke-linejoin="miter" stroke-width="4" /><g id="room_living_room"><polygon fill="rgb(238,232,170)" fill-opacity="0.7" points="478.046875,146.015625 480.15625,207.1875 437.96875,211.40625 440.078125,297.890625 349.375,302.109375 349.375,331.640625 440.078125,335.859375 437.96875,453.984375 549.765625,453.984375 549.765625,211.40625 513.90625,211.40625 511.796875,146.015625" stroke="black" stroke-width="1.5" /><text dominant-baseline="middle" fill="black" font-family="Arial" font-size="12px" font-weight="bold" text-anchor="middle" x="450.625" y="301.0546875">Living Room</text></g><g id="room_master_bedroom"><polygon fill="rgb(255,165,0)" fill-opacity="0.7" points="250.234375,302.109375 250.234375,418.125 340.9375,418.125 340.9375,302.109375" stroke="black" stroke-width="1.5" /><text dominant-baseline="middle" fill="black" font-family="Arial" font-size="12px" font-weight="bold" text-anchor="middle" x="296.640625" y="361.171875">Master Bedroom</text></g><g id="room_common_room_2"><polygon fill="rgb(255,215,0)" fill-opacity="0.7" points="294.53125,211.40625 294.53125,293.671875 376.796875,293.671875 376.796875,211.40625" stroke="black" stroke-width="1.5" /><text dominant-baseline="middle" fill="black" font-family="Arial" font-size="12px" font-weight="bold" text-anchor="middle" x="336.71875" y="253.59375">Common Room 2</text></g><g id="room_common_room"><polygon fill="rgb(255,215,0)" fill-opacity="0.7" points="349.375,340.078125 349.375,418.125 429.53125,418.125 429.53125,340.078125" stroke="black" stroke-width="1.5" /><text dominant-baseline="middle" fill="black" font-family="Arial" font-size="12px" font-weight="bold" text-anchor="middle" x="390.5078125" y="380.15625">Common Room</text></g><g id="room_kitchen"><polygon fill="rgb(240,128,128)" fill-opacity="0.7" points="400.0,146.015625 400.0,202.96875 469.609375,202.96875 469.609375,146.015625" stroke="black" stroke-width="1.5" /><text dominant-baseline="middle" fill="black" font-family="Arial" font-size="12px" font-weight="bold" text-anchor="middle" x="435.859375" y="175.546875">Kitchen</text></g><g id="room_bathroom"><polygon fill="rgb(173,216,230)" fill-opacity="0.7" points="385.234375,211.40625 385.234375,293.671875 429.53125,293.671875 429.53125,211.40625" stroke="black" stroke-width="1.5" /><text dominant-baseline="middle" fill="black" font-family="Arial" font-size="12px" font-weight="bold" text-anchor="middle" x="408.4375" y="253.59375">Bathroom</text></g><g id="room_balcony"><polygon fill="rgb(107,142,35)" fill-opacity="0.7" points="349.375,146.015625 349.375,202.96875 391.5625,202.96875 391.5625,146.015625" stroke="black" stroke-width="1.5" /><text dominant-baseline="middle" fill="black" font-family="Arial" font-size="12px" font-weight="bold" text-anchor="middle" x="371.5234375" y="175.546875">Balcony</text></g><rect fill="red" fill-opacity="0.9" height="6.328125" id="main_door" stroke="darkred" stroke-width="3" width="27.421875" x="473.828125" y="139.6875" /><text dominant-baseline="middle" fill="white" font-family="Arial" font-size="9px" font-weight="bold" text-anchor="middle" x="487.5390625" y="142.8515625">Main Door</text><text fill="black" font-family="Arial" font-size="18px" font-weight="bold" text-anchor="middle" x="400.0" y="30">Floor Plan - ID: 14159</text></svg>