<?xml version="1.0" encoding="utf-8" ?>
<svg baseProfile="full" height="600px" version="1.1" viewBox="0 0 800 600" width="800px" xmlns="http://www.w3.org/2000/svg" xmlns:ev="http://www.w3.org/2001/xml-events" xmlns:xlink="http://www.w3.org/1999/xlink"><defs /><rect fill="white" height="600" width="800" x="0" y="0" /><polygon fill="none" id="floor_plan_boundary" points="545.546875,103.828125 456.953125,103.828125 454.84375,143.90625 269.21875,143.90625 269.21875,293.671875 235.46875,295.78125 235.46875,456.09375 378.90625,456.09375 381.015625,496.171875 530.78125,496.171875 530.78125,331.640625 564.53125,329.53125 564.53125,316.875 522.34375,321.09375 520.234375,487.734375 391.5625,487.734375 389.453125,447.65625 243.90625,445.546875 243.90625,306.328125 277.65625,304.21875 279.765625,152.34375 465.390625,152.34375 467.5,112.265625 537.109375,114.375 537.109375,177.65625 556.09375,179.765625 556.09375,283.125 564.53125,283.125 564.53125,169.21875 545.546875,167.109375" stroke="black" stroke-linecap="butt" stroke-linejoin="miter" stroke-width="4" /><g id="room_living_room"><polygon fill="rgb(238,232,170)" fill-opacity="0.7" points="520.234375,190.3125 467.5,190.3125 465.390625,259.921875 279.765625,259.921875 279.765625,293.671875 359.921875,295.78125 359.921875,445.546875 520.234375,445.546875 520.234375,321.09375 553.984375,318.984375 553.984375,276.796875 520.234375,274.6875" stroke="black" stroke-width="1.5" /><text dominant-baseline="middle" fill="black" font-family="Arial" font-size="12px" font-weight="bold" text-anchor="middle" x="417.9296875" y="318.984375">Living Room</text></g><g id="room_master_bedroom"><polygon fill="rgb(255,165,0)" fill-opacity="0.7" points="347.265625,306.328125 305.078125,306.328125 302.96875,359.0625 246.015625,359.0625 246.015625,445.546875 347.265625,445.546875" stroke="black" stroke-width="1.5" /><text dominant-baseline="middle" fill="black" font-family="Arial" font-size="12px" font-weight="bold" text-anchor="middle" x="297.6953125" y="376.9921875">Master Bedroom</text></g><g id="room_common_room_2"><polygon fill="rgb(255,215,0)" fill-opacity="0.7" points="279.765625,154.453125 279.765625,247.265625 366.25,247.265625 366.25,154.453125" stroke="black" stroke-width="1.5" /><text dominant-baseline="middle" fill="black" font-family="Arial" font-size="12px" font-weight="bold" text-anchor="middle" x="324.0625" y="201.9140625">Common Room 2</text></g><g id="room_common_room"><polygon fill="rgb(255,215,0)" fill-opacity="0.7" points="378.90625,154.453125 378.90625,247.265625 454.84375,247.265625 454.84375,154.453125" stroke="black" stroke-width="1.5" /><text dominant-baseline="middle" fill="black" font-family="Arial" font-size="12px" font-weight="bold" text-anchor="middle" x="417.9296875" y="201.9140625">Common Room</text></g><g id="room_kitchen"><polygon fill="rgb(240,128,128)" fill-opacity="0.7" points="467.5,114.375 467.5,177.65625 520.234375,177.65625 522.34375,167.109375 535.0,167.109375 535.0,114.375" stroke="black" stroke-width="1.5" /><text dominant-baseline="middle" fill="black" font-family="Arial" font-size="12px" font-weight="bold" text-anchor="middle" x="502.3046875" y="147.0703125">Kitchen</text></g><g id="room_balcony"><polygon fill="rgb(107,142,35)" fill-opacity="0.7" points="391.5625,458.203125 391.5625,485.625 520.234375,485.625 520.234375,458.203125" stroke="black" stroke-width="1.5" /><text dominant-baseline="middle" fill="black" font-family="Arial" font-size="12px" font-weight="bold" text-anchor="middle" x="456.953125" y="472.96875">Balcony</text></g><g id="room_bathroom"><polygon fill="rgb(173,216,230)" fill-opacity="0.7" points="246.015625,306.328125 246.015625,346.40625 292.421875,346.40625 292.421875,306.328125" stroke="black" stroke-width="1.5" /><text dominant-baseline="middle" fill="black" font-family="Arial" font-size="12px" font-weight="bold" text-anchor="middle" x="270.2734375" y="327.421875">Bathroom</text></g><g id="room_bathroom_2"><polygon fill="rgb(173,216,230)" fill-opacity="0.7" points="532.890625,179.765625 532.890625,264.140625 553.984375,264.140625 553.984375,179.765625" stroke="black" stroke-width="1.5" /><text dominant-baseline="middle" fill="black" font-family="Arial" font-size="12px" font-weight="bold" text-anchor="middle" x="544.4921875" y="223.0078125">Bathroom 2</text></g><rect fill="red" fill-opacity="0.9" height="31.640625" id="main_door" stroke="darkred" stroke-width="3" width="10.546875" x="556.09375" y="285.234375" /><text dominant-baseline="middle" fill="white" font-family="Arial" font-size="9px" font-weight="bold" text-anchor="middle" x="561.3671875" y="301.0546875">Main Door</text><text fill="black" font-family="Arial" font-size="18px" font-weight="bold" text-anchor="middle" x="400.0" y="30">Floor Plan - ID: 14626</text></svg>