<?xml version="1.0" encoding="utf-8" ?>
<svg baseProfile="full" height="600px" version="1.1" viewBox="0 0 800 600" width="800px" xmlns="http://www.w3.org/2000/svg" xmlns:ev="http://www.w3.org/2001/xml-events" xmlns:xlink="http://www.w3.org/1999/xlink"><defs /><rect fill="white" height="600" width="800" x="0" y="0" /><polygon fill="none" id="floor_plan_boundary" points="224.921875,215.625 224.921875,327.421875 271.328125,329.53125 271.328125,416.015625 425.3125,416.015625 427.421875,470.859375 575.078125,470.859375 575.078125,405.46875 566.640625,405.46875 564.53125,462.421875 437.96875,462.421875 435.859375,407.578125 281.875,407.578125 279.765625,318.984375 233.359375,316.875 233.359375,226.171875 334.609375,224.0625 336.71875,137.578125 524.453125,137.578125 526.5625,361.171875 564.53125,361.171875 566.640625,375.9375 575.078125,375.9375 575.078125,352.734375 535.0,350.625 535.0,129.140625 326.171875,129.140625 324.0625,215.625" stroke="black" stroke-linecap="butt" stroke-linejoin="miter" stroke-width="4" /><g id="room_living_room"><polygon fill="rgb(238,232,170)" fill-opacity="0.7" points="423.203125,179.765625 423.203125,289.453125 336.71875,291.5625 336.71875,316.875 383.125,316.875 385.234375,352.734375 435.859375,352.734375 437.96875,405.46875 564.53125,405.46875 564.53125,363.28125 524.453125,361.171875 524.453125,179.765625" stroke="black" stroke-width="1.5" /><text dominant-baseline="middle" fill="black" font-family="Arial" font-size="12px" font-weight="bold" text-anchor="middle" x="451.6796875" y="293.671875">Living Room</text></g><g id="room_master_bedroom"><polygon fill="rgb(255,165,0)" fill-opacity="0.7" points="235.46875,226.171875 235.46875,316.875 324.0625,316.875 324.0625,226.171875" stroke="black" stroke-width="1.5" /><text dominant-baseline="middle" fill="black" font-family="Arial" font-size="12px" font-weight="bold" text-anchor="middle" x="280.8203125" y="272.578125">Master Bedroom</text></g><g id="room_balcony_2"><polygon fill="rgb(107,142,35)" fill-opacity="0.7" points="336.71875,198.75 410.546875,198.75 412.65625,167.109375 524.453125,167.109375 524.453125,139.6875 336.71875,139.6875" stroke="black" stroke-width="1.5" /><text dominant-baseline="middle" fill="black" font-family="Arial" font-size="12px" font-weight="bold" text-anchor="middle" x="431.640625" y="170.2734375">Balcony 2</text></g><g id="room_common_room"><polygon fill="rgb(255,215,0)" fill-opacity="0.7" points="281.875,329.53125 281.875,405.46875 376.796875,405.46875 376.796875,329.53125" stroke="black" stroke-width="1.5" /><text dominant-baseline="middle" fill="black" font-family="Arial" font-size="12px" font-weight="bold" text-anchor="middle" x="330.390625" y="368.5546875">Common Room</text></g><g id="room_common_room_2"><polygon fill="rgb(255,215,0)" fill-opacity="0.7" points="336.71875,211.40625 336.71875,278.90625 410.546875,278.90625 410.546875,211.40625" stroke="black" stroke-width="1.5" /><text dominant-baseline="middle" fill="black" font-family="Arial" font-size="12px" font-weight="bold" text-anchor="middle" x="374.6875" y="246.2109375">Common Room 2</text></g><g id="room_kitchen"><polygon fill="rgb(240,128,128)" fill-opacity="0.7" points="486.484375,418.125 486.484375,460.3125 564.53125,460.3125 564.53125,418.125" stroke="black" stroke-width="1.5" /><text dominant-baseline="middle" fill="black" font-family="Arial" font-size="12px" font-weight="bold" text-anchor="middle" x="526.5625" y="440.2734375">Kitchen</text></g><g id="room_bathroom"><polygon fill="rgb(173,216,230)" fill-opacity="0.7" points="385.234375,361.171875 385.234375,405.46875 425.3125,405.46875 425.3125,361.171875" stroke="black" stroke-width="1.5" /><text dominant-baseline="middle" fill="black" font-family="Arial" font-size="12px" font-weight="bold" text-anchor="middle" x="406.328125" y="384.375">Bathroom</text></g><g id="room_balcony"><polygon fill="rgb(107,142,35)" fill-opacity="0.7" points="437.96875,418.125 437.96875,460.3125 473.828125,460.3125 473.828125,418.125" stroke="black" stroke-width="1.5" /><text dominant-baseline="middle" fill="black" font-family="Arial" font-size="12px" font-weight="bold" text-anchor="middle" x="456.953125" y="440.2734375">Balcony</text></g><rect fill="red" fill-opacity="0.9" height="27.421875" id="main_door" stroke="darkred" stroke-width="3" width="10.546875" x="566.640625" y="378.046875" /><text dominant-baseline="middle" fill="white" font-family="Arial" font-size="9px" font-weight="bold" text-anchor="middle" x="571.9140625" y="391.7578125">Main Door</text><text fill="black" font-family="Arial" font-size="18px" font-weight="bold" text-anchor="middle" x="400.0" y="30">Floor Plan - ID: 14660</text></svg>