<?xml version="1.0" encoding="utf-8" ?>
<svg baseProfile="full" height="600px" version="1.1" viewBox="0 0 800 600" width="800px" xmlns="http://www.w3.org/2000/svg" xmlns:ev="http://www.w3.org/2001/xml-events" xmlns:xlink="http://www.w3.org/1999/xlink"><defs /><rect fill="white" height="600" width="800" x="0" y="0" /><polygon fill="none" id="floor_plan_boundary" points="165.859375,150.234375 165.859375,449.765625 309.296875,449.765625 311.40625,386.484375 402.109375,386.484375 402.109375,378.046875 300.859375,378.046875 298.75,441.328125 174.296875,439.21875 176.40625,158.671875 562.421875,158.671875 564.53125,274.6875 625.703125,276.796875 625.703125,401.25 461.171875,403.359375 459.0625,378.046875 435.859375,378.046875 435.859375,386.484375 450.625,388.59375 450.625,411.796875 634.140625,411.796875 634.140625,266.25 572.96875,264.140625 572.96875,150.234375" stroke="black" stroke-linecap="butt" stroke-linejoin="miter" stroke-width="4" /><g id="room_living_room"><polygon fill="rgb(238,232,170)" fill-opacity="0.7" points="294.53125,276.796875 294.53125,375.9375 459.0625,375.9375 461.171875,401.25 623.59375,401.25 623.59375,276.796875 397.890625,276.796875 395.78125,234.609375 355.703125,234.609375 353.59375,276.796875" stroke="black" stroke-width="1.5" /><text dominant-baseline="middle" fill="black" font-family="Arial" font-size="12px" font-weight="bold" text-anchor="middle" x="460.1171875" y="318.984375">Living Room</text></g><g id="room_kitchen"><polygon fill="rgb(240,128,128)" fill-opacity="0.7" points="176.40625,160.78125 176.40625,251.484375 292.421875,251.484375 294.53125,264.140625 343.046875,264.140625 343.046875,160.78125" stroke="black" stroke-width="1.5" /><text dominant-baseline="middle" fill="black" font-family="Arial" font-size="12px" font-weight="bold" text-anchor="middle" x="260.78125" y="213.515625">Kitchen</text></g><g id="room_master_bedroom"><polygon fill="rgb(255,165,0)" fill-opacity="0.7" points="408.4375,234.609375 408.4375,264.140625 562.421875,264.140625 562.421875,160.78125 461.171875,160.78125 461.171875,232.5" stroke="black" stroke-width="1.5" /><text dominant-baseline="middle" fill="black" font-family="Arial" font-size="12px" font-weight="bold" text-anchor="middle" x="486.484375" y="213.515625">Master Bedroom</text></g><g id="room_common_room"><polygon fill="rgb(255,215,0)" fill-opacity="0.7" points="176.40625,356.953125 176.40625,439.21875 298.75,439.21875 298.75,388.59375 281.875,386.484375 281.875,356.953125" stroke="black" stroke-width="1.5" /><text dominant-baseline="middle" fill="black" font-family="Arial" font-size="12px" font-weight="bold" text-anchor="middle" x="238.6328125" y="399.140625">Common Room</text></g><g id="room_common_room_2"><polygon fill="rgb(255,215,0)" fill-opacity="0.7" points="176.40625,264.140625 176.40625,344.296875 281.875,344.296875 281.875,264.140625" stroke="black" stroke-width="1.5" /><text dominant-baseline="middle" fill="black" font-family="Arial" font-size="12px" font-weight="bold" text-anchor="middle" x="230.1953125" y="305.2734375">Common Room 2</text></g><g id="room_bathroom"><polygon fill="rgb(173,216,230)" fill-opacity="0.7" points="408.4375,160.78125 408.4375,221.953125 448.515625,221.953125 448.515625,160.78125" stroke="black" stroke-width="1.5" /><text dominant-baseline="middle" fill="black" font-family="Arial" font-size="12px" font-weight="bold" text-anchor="middle" x="429.53125" y="192.421875">Bathroom</text></g><g id="room_bathroom_2"><polygon fill="rgb(173,216,230)" fill-opacity="0.7" points="355.703125,160.78125 355.703125,221.953125 395.78125,221.953125 395.78125,160.78125" stroke="black" stroke-width="1.5" /><text dominant-baseline="middle" fill="black" font-family="Arial" font-size="12px" font-weight="bold" text-anchor="middle" x="376.796875" y="192.421875">Bathroom 2</text></g><rect fill="red" fill-opacity="0.9" height="10.546875" id="main_door" stroke="darkred" stroke-width="3" width="31.640625" x="404.21875" y="378.046875" /><text dominant-baseline="middle" fill="white" font-family="Arial" font-size="9px" font-weight="bold" text-anchor="middle" x="420.0390625" y="383.3203125">Main Door</text><text fill="black" font-family="Arial" font-size="18px" font-weight="bold" text-anchor="middle" x="400.0" y="30">Floor Plan - ID: 14723</text></svg>