<?xml version="1.0" encoding="utf-8" ?>
<svg baseProfile="full" height="600px" version="1.1" viewBox="0 0 800 600" width="800px" xmlns="http://www.w3.org/2000/svg" xmlns:ev="http://www.w3.org/2001/xml-events" xmlns:xlink="http://www.w3.org/1999/xlink"><defs /><rect fill="white" height="600" width="800" x="0" y="0" /><polygon fill="none" id="floor_plan_boundary" points="189.0625,173.4375 189.0625,183.984375 568.75,183.984375 568.75,302.109375 602.5,304.21875 602.5,394.921875 488.59375,397.03125 486.484375,418.125 273.4375,418.125 271.328125,346.40625 248.125,344.296875 248.125,321.09375 197.5,318.984375 197.5,226.171875 189.0625,226.171875 189.0625,329.53125 237.578125,329.53125 239.6875,354.84375 262.890625,356.953125 262.890625,426.5625 497.03125,426.5625 499.140625,405.46875 610.9375,405.46875 610.9375,293.671875 577.1875,291.5625 577.1875,173.4375" stroke="black" stroke-linecap="butt" stroke-linejoin="miter" stroke-width="4" /><g id="room_living_room"><polygon fill="rgb(238,232,170)" fill-opacity="0.7" points="199.609375,183.984375 199.609375,318.984375 237.578125,318.984375 239.6875,291.5625 324.0625,291.5625 324.0625,344.296875 349.375,346.40625 351.484375,293.671875 518.125,291.5625 518.125,183.984375 321.953125,183.984375 319.84375,257.8125 237.578125,257.8125 235.46875,183.984375" stroke="black" stroke-width="1.5" /><text dominant-baseline="middle" fill="black" font-family="Arial" font-size="12px" font-weight="bold" text-anchor="middle" x="359.921875" y="266.25">Living Room</text></g><g id="room_master_bedroom"><polygon fill="rgb(255,165,0)" fill-opacity="0.7" points="497.03125,304.21875 497.03125,394.921875 600.390625,394.921875 600.390625,304.21875" stroke="black" stroke-width="1.5" /><text dominant-baseline="middle" fill="black" font-family="Arial" font-size="12px" font-weight="bold" text-anchor="middle" x="549.765625" y="350.625">Master Bedroom</text></g><g id="room_common_room_2"><polygon fill="rgb(255,215,0)" fill-opacity="0.7" points="357.8125,302.109375 357.8125,416.015625 433.75,416.015625 433.75,302.109375" stroke="black" stroke-width="1.5" /><text dominant-baseline="middle" fill="black" font-family="Arial" font-size="12px" font-weight="bold" text-anchor="middle" x="396.8359375" y="360.1171875">Common Room 2</text></g><g id="room_bathroom"><polygon fill="rgb(173,216,230)" fill-opacity="0.7" points="446.40625,304.21875 446.40625,416.015625 486.484375,416.015625 488.59375,304.21875" stroke="black" stroke-width="1.5" /><text dominant-baseline="middle" fill="black" font-family="Arial" font-size="12px" font-weight="bold" text-anchor="middle" x="468.5546875" y="361.171875">Bathroom</text></g><g id="room_common_room"><polygon fill="rgb(255,215,0)" fill-opacity="0.7" points="349.375,354.84375 273.4375,356.953125 273.4375,416.015625 349.375,416.015625" stroke="black" stroke-width="1.5" /><text dominant-baseline="middle" fill="black" font-family="Arial" font-size="12px" font-weight="bold" text-anchor="middle" x="312.4609375" y="386.484375">Common Room</text></g><g id="room_kitchen"><polygon fill="rgb(240,128,128)" fill-opacity="0.7" points="248.125,183.984375 248.125,249.375 313.515625,249.375 313.515625,183.984375" stroke="black" stroke-width="1.5" /><text dominant-baseline="middle" fill="black" font-family="Arial" font-size="12px" font-weight="bold" text-anchor="middle" x="281.875" y="217.734375">Kitchen</text></g><g id="room_balcony"><polygon fill="rgb(107,142,35)" fill-opacity="0.7" points="530.78125,183.984375 530.78125,291.5625 566.640625,291.5625 566.640625,183.984375" stroke="black" stroke-width="1.5" /><text dominant-baseline="middle" fill="black" font-family="Arial" font-size="12px" font-weight="bold" text-anchor="middle" x="549.765625" y="238.828125">Balcony</text></g><g id="room_bathroom_2"><polygon fill="rgb(173,216,230)" fill-opacity="0.7" points="250.234375,304.21875 250.234375,344.296875 315.625,344.296875 315.625,304.21875" stroke="black" stroke-width="1.5" /><text dominant-baseline="middle" fill="black" font-family="Arial" font-size="12px" font-weight="bold" text-anchor="middle" x="283.984375" y="325.3125">Bathroom 2</text></g><rect fill="red" fill-opacity="0.9" height="40.078125" id="main_door" stroke="darkred" stroke-width="3" width="10.546875" x="189.0625" y="186.09375" /><text dominant-baseline="middle" fill="white" font-family="Arial" font-size="9px" font-weight="bold" text-anchor="middle" x="194.3359375" y="206.1328125">Main Door</text><text fill="black" font-family="Arial" font-size="18px" font-weight="bold" text-anchor="middle" x="400.0" y="30">Floor Plan - ID: 14732</text></svg>