<?xml version="1.0" encoding="utf-8" ?>
<svg baseProfile="full" height="600px" version="1.1" viewBox="0 0 800 600" width="800px" xmlns="http://www.w3.org/2000/svg" xmlns:ev="http://www.w3.org/2001/xml-events" xmlns:xlink="http://www.w3.org/1999/xlink"><defs /><rect fill="white" height="600" width="800" x="0" y="0" /><polygon fill="none" id="floor_plan_boundary" points="332.5,80.625 332.5,165.0 353.59375,167.109375 353.59375,188.203125 332.5,190.3125 332.5,213.515625 340.9375,213.515625 343.046875,198.75 362.03125,198.75 362.03125,156.5625 340.9375,154.453125 343.046875,89.0625 452.734375,89.0625 454.84375,198.75 501.25,200.859375 499.140625,462.421875 393.671875,462.421875 391.5625,510.9375 326.171875,510.9375 324.0625,485.625 298.75,483.515625 298.75,331.640625 332.5,329.53125 332.5,264.140625 343.046875,262.03125 343.046875,249.375 324.0625,249.375 324.0625,318.984375 290.3125,321.09375 290.3125,494.0625 313.515625,494.0625 315.625,519.375 402.109375,519.375 404.21875,470.859375 509.6875,470.859375 509.6875,190.3125 463.28125,188.203125 463.28125,80.625" stroke="black" stroke-linecap="butt" stroke-linejoin="miter" stroke-width="4" /><g id="room_living_room"><polygon fill="rgb(238,232,170)" fill-opacity="0.7" points="343.046875,200.859375 345.15625,262.03125 334.609375,264.140625 334.609375,318.984375 499.140625,318.984375 499.140625,200.859375" stroke="black" stroke-width="1.5" /><text dominant-baseline="middle" fill="black" font-family="Arial" font-size="12px" font-weight="bold" text-anchor="middle" x="417.9296875" y="260.9765625">Living Room</text></g><g id="room_master_bedroom"><polygon fill="rgb(255,165,0)" fill-opacity="0.7" points="404.21875,331.640625 404.21875,460.3125 499.140625,460.3125 499.140625,331.640625" stroke="black" stroke-width="1.5" /><text dominant-baseline="middle" fill="black" font-family="Arial" font-size="12px" font-weight="bold" text-anchor="middle" x="452.734375" y="397.03125">Master Bedroom</text></g><g id="room_common_room"><polygon fill="rgb(255,215,0)" fill-opacity="0.7" points="300.859375,331.640625 300.859375,460.3125 391.5625,460.3125 391.5625,331.640625" stroke="black" stroke-width="1.5" /><text dominant-baseline="middle" fill="black" font-family="Arial" font-size="12px" font-weight="bold" text-anchor="middle" x="347.265625" y="397.03125">Common Room</text></g><g id="room_kitchen"><polygon fill="rgb(240,128,128)" fill-opacity="0.7" points="343.046875,91.171875 343.046875,154.453125 364.140625,156.5625 364.140625,188.203125 400.0,188.203125 400.0,91.171875" stroke="black" stroke-width="1.5" /><text dominant-baseline="middle" fill="black" font-family="Arial" font-size="12px" font-weight="bold" text-anchor="middle" x="372.578125" y="140.7421875">Kitchen</text></g><g id="room_bathroom"><polygon fill="rgb(173,216,230)" fill-opacity="0.7" points="412.65625,91.171875 412.65625,188.203125 452.734375,188.203125 452.734375,91.171875" stroke="black" stroke-width="1.5" /><text dominant-baseline="middle" fill="black" font-family="Arial" font-size="12px" font-weight="bold" text-anchor="middle" x="433.75" y="140.7421875">Bathroom</text></g><g id="room_balcony"><polygon fill="rgb(107,142,35)" fill-opacity="0.7" points="300.859375,472.96875 300.859375,483.515625 326.171875,485.625 326.171875,508.828125 391.5625,508.828125 391.5625,472.96875" stroke="black" stroke-width="1.5" /><text dominant-baseline="middle" fill="black" font-family="Arial" font-size="12px" font-weight="bold" text-anchor="middle" x="347.265625" y="491.953125">Balcony</text></g><rect fill="red" fill-opacity="0.9" height="31.640625" id="main_door" stroke="darkred" stroke-width="3" width="10.546875" x="332.5" y="215.625" /><text dominant-baseline="middle" fill="white" font-family="Arial" font-size="9px" font-weight="bold" text-anchor="middle" x="337.7734375" y="231.4453125">Main Door</text><text fill="black" font-family="Arial" font-size="18px" font-weight="bold" text-anchor="middle" x="400.0" y="30">Floor Plan - ID: 14768</text></svg>