<?xml version="1.0" encoding="utf-8" ?>
<svg baseProfile="full" height="600px" version="1.1" viewBox="0 0 800 600" width="800px" xmlns="http://www.w3.org/2000/svg" xmlns:ev="http://www.w3.org/2001/xml-events" xmlns:xlink="http://www.w3.org/1999/xlink"><defs /><rect fill="white" height="600" width="800" x="0" y="0" /><polygon fill="none" id="floor_plan_boundary" points="163.75,234.609375 163.75,346.40625 288.203125,346.40625 290.3125,392.8125 435.859375,392.8125 296.640625,388.59375 294.53125,342.1875 170.078125,342.1875 167.96875,240.9375 294.53125,238.828125 296.640625,192.421875 596.171875,192.421875 598.28125,293.671875 632.03125,295.78125 632.03125,378.046875 598.28125,380.15625 596.171875,407.578125 486.484375,407.578125 484.375,388.59375 469.609375,392.8125 480.15625,394.921875 480.15625,411.796875 602.5,411.796875 604.609375,384.375 636.25,384.375 636.25,289.453125 602.5,287.34375 602.5,188.203125 290.3125,188.203125 288.203125,234.609375" stroke="black" stroke-linecap="butt" stroke-linejoin="miter" stroke-width="4" /><g id="room_living_room"><polygon fill="rgb(238,232,170)" fill-opacity="0.7" points="296.640625,194.53125 296.640625,386.484375 478.046875,386.484375 478.046875,316.875 522.34375,314.765625 522.34375,295.78125 475.9375,293.671875 475.9375,194.53125" stroke="black" stroke-width="1.5" /><text dominant-baseline="middle" fill="black" font-family="Arial" font-size="12px" font-weight="bold" text-anchor="middle" x="410.546875" y="291.5625">Living Room</text></g><g id="room_master_bedroom"><polygon fill="rgb(255,165,0)" fill-opacity="0.7" points="484.375,194.53125 484.375,287.34375 596.171875,287.34375 596.171875,194.53125" stroke="black" stroke-width="1.5" /><text dominant-baseline="middle" fill="black" font-family="Arial" font-size="12px" font-weight="bold" text-anchor="middle" x="541.328125" y="241.9921875">Master Bedroom</text></g><g id="room_common_room"><polygon fill="rgb(255,215,0)" fill-opacity="0.7" points="530.78125,295.78125 530.78125,405.46875 596.171875,405.46875 596.171875,295.78125" stroke="black" stroke-width="1.5" /><text dominant-baseline="middle" fill="black" font-family="Arial" font-size="12px" font-weight="bold" text-anchor="middle" x="564.53125" y="351.6796875">Common Room</text></g><g id="room_common_room_2"><polygon fill="rgb(255,215,0)" fill-opacity="0.7" points="170.078125,240.9375 170.078125,287.34375 288.203125,287.34375 288.203125,240.9375" stroke="black" stroke-width="1.5" /><text dominant-baseline="middle" fill="black" font-family="Arial" font-size="12px" font-weight="bold" text-anchor="middle" x="230.1953125" y="265.1953125">Common Room 2</text></g><g id="room_kitchen"><polygon fill="rgb(240,128,128)" fill-opacity="0.7" points="170.078125,295.78125 170.078125,340.078125 288.203125,340.078125 288.203125,295.78125" stroke="black" stroke-width="1.5" /><text dominant-baseline="middle" fill="black" font-family="Arial" font-size="12px" font-weight="bold" text-anchor="middle" x="230.1953125" y="318.984375">Kitchen</text></g><g id="room_bathroom"><polygon fill="rgb(173,216,230)" fill-opacity="0.7" points="486.484375,323.203125 486.484375,405.46875 522.34375,405.46875 522.34375,323.203125" stroke="black" stroke-width="1.5" /><text dominant-baseline="middle" fill="black" font-family="Arial" font-size="12px" font-weight="bold" text-anchor="middle" x="505.46875" y="365.390625">Bathroom</text></g><g id="room_balcony"><polygon fill="rgb(107,142,35)" fill-opacity="0.7" points="604.609375,295.78125 604.609375,378.046875 629.921875,378.046875 629.921875,295.78125" stroke="black" stroke-width="1.5" /><text dominant-baseline="middle" fill="black" font-family="Arial" font-size="12px" font-weight="bold" text-anchor="middle" x="618.3203125" y="337.96875">Balcony</text></g><rect fill="red" fill-opacity="0.9" height="6.328125" id="main_door" stroke="darkred" stroke-width="3" width="31.640625" x="437.96875" y="388.59375" /><text dominant-baseline="middle" fill="white" font-family="Arial" font-size="9px" font-weight="bold" text-anchor="middle" x="453.7890625" y="391.7578125">Main Door</text><text fill="black" font-family="Arial" font-size="18px" font-weight="bold" text-anchor="middle" x="400.0" y="30">Floor Plan - ID: 14834</text></svg>