<?xml version="1.0" encoding="utf-8" ?>
<svg baseProfile="full" height="600px" version="1.1" viewBox="0 0 800 600" width="800px" xmlns="http://www.w3.org/2000/svg" xmlns:ev="http://www.w3.org/2001/xml-events" xmlns:xlink="http://www.w3.org/1999/xlink"><defs /><rect fill="white" height="600" width="800" x="0" y="0" /><polygon fill="none" id="floor_plan_boundary" points="368.359375,112.265625 368.359375,192.421875 294.53125,194.53125 294.53125,287.34375 254.453125,289.453125 254.453125,388.59375 313.515625,390.703125 313.515625,487.734375 545.546875,487.734375 545.546875,148.125 530.78125,148.125 537.109375,158.671875 535.0,479.296875 324.0625,479.296875 321.953125,380.15625 262.890625,378.046875 262.890625,300.0 302.96875,297.890625 302.96875,205.078125 376.796875,202.96875 378.90625,120.703125 408.4375,120.703125 410.546875,141.796875 478.046875,141.796875 480.15625,156.5625 497.03125,156.5625 488.59375,133.359375 421.09375,133.359375 418.984375,112.265625" stroke="black" stroke-linecap="butt" stroke-linejoin="miter" stroke-width="4" /><g id="room_living_room"><polygon fill="rgb(238,232,170)" fill-opacity="0.7" points="535.0,158.671875 490.703125,158.671875 488.59375,230.390625 431.640625,230.390625 429.53125,262.03125 370.46875,262.03125 370.46875,331.640625 431.640625,333.75 431.640625,435.0 535.0,435.0" stroke="black" stroke-width="1.5" /><text dominant-baseline="middle" fill="black" font-family="Arial" font-size="12px" font-weight="bold" text-anchor="middle" x="453.7890625" y="297.890625">Living Room</text></g><g id="room_master_bedroom"><polygon fill="rgb(255,165,0)" fill-opacity="0.7" points="370.46875,344.296875 370.46875,388.59375 324.0625,390.703125 324.0625,477.1875 418.984375,477.1875 418.984375,344.296875" stroke="black" stroke-width="1.5" /><text dominant-baseline="middle" fill="black" font-family="Arial" font-size="12px" font-weight="bold" text-anchor="middle" x="372.578125" y="411.796875">Master Bedroom</text></g><g id="room_common_room"><polygon fill="rgb(255,215,0)" fill-opacity="0.7" points="265.0,300.0 265.0,378.046875 357.8125,378.046875 357.8125,300.0" stroke="black" stroke-width="1.5" /><text dominant-baseline="middle" fill="black" font-family="Arial" font-size="12px" font-weight="bold" text-anchor="middle" x="312.4609375" y="340.078125">Common Room</text></g><g id="room_common_room_2"><polygon fill="rgb(255,215,0)" fill-opacity="0.7" points="305.078125,205.078125 305.078125,287.34375 357.8125,287.34375 357.8125,205.078125" stroke="black" stroke-width="1.5" /><text dominant-baseline="middle" fill="black" font-family="Arial" font-size="12px" font-weight="bold" text-anchor="middle" x="332.5" y="247.265625">Common Room 2</text></g><g id="room_kitchen"><polygon fill="rgb(240,128,128)" fill-opacity="0.7" points="421.09375,143.90625 421.09375,192.421875 431.640625,194.53125 431.640625,217.734375 478.046875,217.734375 478.046875,143.90625" stroke="black" stroke-width="1.5" /><text dominant-baseline="middle" fill="black" font-family="Arial" font-size="12px" font-weight="bold" text-anchor="middle" x="450.625" y="181.875">Kitchen</text></g><g id="room_balcony"><polygon fill="rgb(107,142,35)" fill-opacity="0.7" points="431.640625,447.65625 431.640625,477.1875 535.0,477.1875 535.0,447.65625" stroke="black" stroke-width="1.5" /><text dominant-baseline="middle" fill="black" font-family="Arial" font-size="12px" font-weight="bold" text-anchor="middle" x="484.375" y="463.4765625">Balcony</text></g><g id="room_bathroom"><polygon fill="rgb(173,216,230)" fill-opacity="0.7" points="370.46875,205.078125 370.46875,249.375 418.984375,249.375 418.984375,205.078125" stroke="black" stroke-width="1.5" /><text dominant-baseline="middle" fill="black" font-family="Arial" font-size="12px" font-weight="bold" text-anchor="middle" x="395.78125" y="228.28125">Bathroom</text></g><g id="room_balcony_2"><polygon fill="rgb(107,142,35)" fill-opacity="0.7" points="378.90625,122.8125 378.90625,192.421875 408.4375,192.421875 408.4375,122.8125" stroke="black" stroke-width="1.5" /><text dominant-baseline="middle" fill="black" font-family="Arial" font-size="12px" font-weight="bold" text-anchor="middle" x="394.7265625" y="158.671875">Balcony 2</text></g><rect fill="red" fill-opacity="0.9" height="10.546875" id="main_door" stroke="darkred" stroke-width="3" width="31.640625" x="499.140625" y="148.125" /><text dominant-baseline="middle" fill="white" font-family="Arial" font-size="9px" font-weight="bold" text-anchor="middle" x="514.9609375" y="153.3984375">Main Door</text><text fill="black" font-family="Arial" font-size="18px" font-weight="bold" text-anchor="middle" x="400.0" y="30">Floor Plan - ID: 1502</text></svg>