<?xml version="1.0" encoding="utf-8" ?>
<svg baseProfile="full" height="600px" version="1.1" viewBox="0 0 800 600" width="800px" xmlns="http://www.w3.org/2000/svg" xmlns:ev="http://www.w3.org/2001/xml-events" xmlns:xlink="http://www.w3.org/1999/xlink"><defs /><rect fill="white" height="600" width="800" x="0" y="0" /><polygon fill="none" id="floor_plan_boundary" points="572.96875,175.546875 511.796875,175.546875 509.6875,215.625 330.390625,215.625 328.28125,181.875 231.25,181.875 231.25,287.34375 208.046875,289.453125 208.046875,401.25 366.25,401.25 368.359375,424.453125 372.578125,397.03125 212.265625,394.921875 212.265625,295.78125 235.46875,293.671875 237.578125,186.09375 321.953125,186.09375 324.0625,219.84375 516.015625,219.84375 518.125,179.765625 566.640625,179.765625 568.75,327.421875 587.734375,329.53125 587.734375,416.015625 440.078125,418.125 437.96875,399.140625 397.890625,399.140625 402.109375,424.453125 404.21875,403.359375 431.640625,403.359375 433.75,422.34375 591.953125,422.34375 591.953125,323.203125 572.96875,321.09375" stroke="black" stroke-linecap="butt" stroke-linejoin="miter" stroke-width="4" /><g id="room_living_room"><polygon fill="rgb(238,232,170)" fill-opacity="0.7" points="214.375,295.78125 214.375,394.921875 372.578125,394.921875 374.6875,418.125 395.78125,418.125 397.890625,397.03125 431.640625,397.03125 433.75,361.171875 463.28125,361.171875 463.28125,329.53125 324.0625,329.53125 321.953125,295.78125" stroke="black" stroke-width="1.5" /><text dominant-baseline="middle" fill="black" font-family="Arial" font-size="12px" font-weight="bold" text-anchor="middle" x="339.8828125" y="358.0078125">Living Room</text></g><g id="room_master_bedroom"><polygon fill="rgb(255,165,0)" fill-opacity="0.7" points="440.078125,369.609375 440.078125,416.015625 585.625,416.015625 585.625,329.53125 471.71875,329.53125 473.828125,365.390625" stroke="black" stroke-width="1.5" /><text dominant-baseline="middle" fill="black" font-family="Arial" font-size="12px" font-weight="bold" text-anchor="middle" x="513.90625" y="373.828125">Master Bedroom</text></g><g id="room_common_room"><polygon fill="rgb(255,215,0)" fill-opacity="0.7" points="435.859375,221.953125 435.859375,321.09375 528.671875,321.09375 528.671875,221.953125" stroke="black" stroke-width="1.5" /><text dominant-baseline="middle" fill="black" font-family="Arial" font-size="12px" font-weight="bold" text-anchor="middle" x="483.3203125" y="272.578125">Common Room</text></g><g id="room_common_room_2"><polygon fill="rgb(255,215,0)" fill-opacity="0.7" points="237.578125,188.203125 237.578125,287.34375 321.953125,287.34375 321.953125,188.203125" stroke="black" stroke-width="1.5" /><text dominant-baseline="middle" fill="black" font-family="Arial" font-size="12px" font-weight="bold" text-anchor="middle" x="280.8203125" y="238.828125">Common Room 2</text></g><g id="room_kitchen"><polygon fill="rgb(240,128,128)" fill-opacity="0.7" points="330.390625,221.953125 330.390625,321.09375 378.90625,321.09375 378.90625,221.953125" stroke="black" stroke-width="1.5" /><text dominant-baseline="middle" fill="black" font-family="Arial" font-size="12px" font-weight="bold" text-anchor="middle" x="355.703125" y="272.578125">Kitchen</text></g><g id="room_balcony"><polygon fill="rgb(107,142,35)" fill-opacity="0.7" points="518.125,181.875 518.125,213.515625 537.109375,215.625 537.109375,321.09375 566.640625,321.09375 566.640625,181.875" stroke="black" stroke-width="1.5" /><text dominant-baseline="middle" fill="black" font-family="Arial" font-size="12px" font-weight="bold" text-anchor="middle" x="543.4375" y="252.5390625">Balcony</text></g><g id="room_bathroom"><polygon fill="rgb(173,216,230)" fill-opacity="0.7" points="387.34375,221.953125 387.34375,321.09375 427.421875,321.09375 427.421875,221.953125" stroke="black" stroke-width="1.5" /><text dominant-baseline="middle" fill="black" font-family="Arial" font-size="12px" font-weight="bold" text-anchor="middle" x="408.4375" y="272.578125">Bathroom</text></g><rect fill="red" fill-opacity="0.9" height="6.328125" id="main_door" stroke="darkred" stroke-width="3" width="27.421875" x="372.578125" y="420.234375" /><text dominant-baseline="middle" fill="white" font-family="Arial" font-size="9px" font-weight="bold" text-anchor="middle" x="386.2890625" y="423.3984375">Main Door</text><text fill="black" font-family="Arial" font-size="18px" font-weight="bold" text-anchor="middle" x="400.0" y="30">Floor Plan - ID: 15175</text></svg>