<?xml version="1.0" encoding="utf-8" ?>
<svg baseProfile="full" height="600px" version="1.1" viewBox="0 0 800 600" width="800px" xmlns="http://www.w3.org/2000/svg" xmlns:ev="http://www.w3.org/2001/xml-events" xmlns:xlink="http://www.w3.org/1999/xlink"><defs /><rect fill="white" height="600" width="800" x="0" y="0" /><polygon fill="none" id="floor_plan_boundary" points="273.4375,133.359375 273.4375,183.984375 231.25,186.09375 231.25,348.515625 305.078125,350.625 311.40625,466.640625 503.359375,466.640625 503.359375,443.4375 518.125,441.328125 518.125,378.046875 568.75,375.9375 568.75,186.09375 473.828125,186.09375 471.71875,152.34375 410.546875,152.34375 408.4375,133.359375 397.890625,133.359375 400.0,160.78125 461.171875,160.78125 463.28125,194.53125 560.3125,196.640625 560.3125,369.609375 509.6875,371.71875 509.6875,430.78125 494.921875,432.890625 492.8125,458.203125 321.953125,458.203125 319.84375,435.0 313.515625,432.890625 313.515625,340.078125 239.6875,337.96875 239.6875,196.640625 281.875,194.53125 283.984375,141.796875 368.359375,141.796875 368.359375,133.359375" stroke="black" stroke-linecap="butt" stroke-linejoin="miter" stroke-width="4" /><g id="room_living_room"><polygon fill="rgb(238,232,170)" fill-opacity="0.7" points="366.25,143.90625 366.25,192.421875 315.625,194.53125 321.953125,456.09375 421.09375,456.09375 421.09375,359.0625 452.734375,356.953125 454.84375,310.546875 507.578125,302.109375 397.890625,300.0 397.890625,143.90625" stroke="black" stroke-width="1.5" /><text dominant-baseline="middle" fill="black" font-family="Arial" font-size="12px" font-weight="bold" text-anchor="middle" x="412.65625" y="301.0546875">Living Room</text></g><g id="room_master_bedroom"><polygon fill="rgb(255,165,0)" fill-opacity="0.7" points="410.546875,162.890625 410.546875,289.453125 558.203125,291.5625 558.203125,196.640625 463.28125,196.640625 461.171875,162.890625" stroke="black" stroke-width="1.5" /><text dominant-baseline="middle" fill="black" font-family="Arial" font-size="12px" font-weight="bold" text-anchor="middle" x="485.4296875" y="228.28125">Master Bedroom</text></g><g id="room_common_room_2"><polygon fill="rgb(255,215,0)" fill-opacity="0.7" points="302.96875,194.53125 241.796875,196.640625 241.796875,337.96875 302.96875,337.96875" stroke="black" stroke-width="1.5" /><text dominant-baseline="middle" fill="black" font-family="Arial" font-size="12px" font-weight="bold" text-anchor="middle" x="273.4375" y="267.3046875">Common Room 2</text></g><g id="room_common_room"><polygon fill="rgb(255,215,0)" fill-opacity="0.7" points="429.53125,365.390625 429.53125,456.09375 492.8125,456.09375 492.8125,432.890625 507.578125,430.78125 507.578125,365.390625" stroke="black" stroke-width="1.5" /><text dominant-baseline="middle" fill="black" font-family="Arial" font-size="12px" font-weight="bold" text-anchor="middle" x="469.609375" y="411.796875">Common Room</text></g><g id="room_kitchen"><polygon fill="rgb(240,128,128)" fill-opacity="0.7" points="283.984375,143.90625 283.984375,186.09375 353.59375,186.09375 353.59375,143.90625" stroke="black" stroke-width="1.5" /><text dominant-baseline="middle" fill="black" font-family="Arial" font-size="12px" font-weight="bold" text-anchor="middle" x="319.84375" y="166.0546875">Kitchen</text></g><g id="room_balcony"><polygon fill="rgb(107,142,35)" fill-opacity="0.7" points="520.234375,300.0 520.234375,369.609375 558.203125,369.609375 558.203125,300.0" stroke="black" stroke-width="1.5" /><text dominant-baseline="middle" fill="black" font-family="Arial" font-size="12px" font-weight="bold" text-anchor="middle" x="540.2734375" y="335.859375">Balcony</text></g><g id="room_bathroom"><polygon fill="rgb(173,216,230)" fill-opacity="0.7" points="461.171875,318.984375 461.171875,356.953125 507.578125,356.953125 507.578125,318.984375" stroke="black" stroke-width="1.5" /><text dominant-baseline="middle" fill="black" font-family="Arial" font-size="12px" font-weight="bold" text-anchor="middle" x="485.4296875" y="339.0234375">Bathroom</text></g><rect fill="red" fill-opacity="0.9" height="10.546875" id="main_door" stroke="darkred" stroke-width="3" width="27.421875" x="370.46875" y="133.359375" /><text dominant-baseline="middle" fill="white" font-family="Arial" font-size="9px" font-weight="bold" text-anchor="middle" x="384.1796875" y="138.6328125">Main Door</text><text fill="black" font-family="Arial" font-size="18px" font-weight="bold" text-anchor="middle" x="400.0" y="30">Floor Plan - ID: 15593</text></svg>