<?xml version="1.0" encoding="utf-8" ?>
<svg baseProfile="full" height="600px" version="1.1" viewBox="0 0 800 600" width="800px" xmlns="http://www.w3.org/2000/svg" xmlns:ev="http://www.w3.org/2001/xml-events" xmlns:xlink="http://www.w3.org/1999/xlink"><defs /><rect fill="white" height="600" width="800" x="0" y="0" /><polygon fill="none" id="floor_plan_boundary" points="250.234375,103.828125 250.234375,202.96875 298.75,202.96875 300.859375,234.609375 305.078125,198.75 254.453125,196.640625 256.5625,108.046875 334.609375,108.046875 336.71875,127.03125 429.53125,127.03125 431.640625,108.046875 520.234375,110.15625 520.234375,234.609375 545.546875,236.71875 545.546875,489.84375 484.375,491.953125 482.265625,470.859375 437.96875,470.859375 435.859375,491.953125 317.734375,491.953125 315.625,266.25 300.859375,264.140625 311.40625,272.578125 311.40625,496.171875 442.1875,496.171875 444.296875,475.078125 475.9375,475.078125 478.046875,496.171875 549.765625,496.171875 549.765625,230.390625 524.453125,228.28125 524.453125,103.828125 425.3125,103.828125 423.203125,122.8125 343.046875,122.8125 340.9375,103.828125" stroke="black" stroke-linecap="butt" stroke-linejoin="miter" stroke-width="4" /><g id="room_living_room"><polygon fill="rgb(238,232,170)" fill-opacity="0.7" points="343.046875,188.203125 345.15625,219.84375 307.1875,224.0625 307.1875,264.140625 319.84375,268.359375 317.734375,430.78125 435.859375,430.78125 433.75,308.4375 475.9375,304.21875 475.9375,272.578125 421.09375,268.359375 423.203125,188.203125" stroke="black" stroke-width="1.5" /><text dominant-baseline="middle" fill="black" font-family="Arial" font-size="12px" font-weight="bold" text-anchor="middle" x="392.6171875" y="310.546875">Living Room</text></g><g id="room_master_bedroom"><polygon fill="rgb(255,165,0)" fill-opacity="0.7" points="444.296875,312.65625 444.296875,468.75 482.265625,468.75 484.375,489.84375 543.4375,489.84375 543.4375,312.65625" stroke="black" stroke-width="1.5" /><text dominant-baseline="middle" fill="black" font-family="Arial" font-size="12px" font-weight="bold" text-anchor="middle" x="494.921875" y="402.3046875">Master Bedroom</text></g><g id="room_common_room"><polygon fill="rgb(255,215,0)" fill-opacity="0.7" points="431.640625,110.15625 431.640625,264.140625 475.9375,264.140625 480.15625,226.171875 518.125,228.28125 518.125,110.15625" stroke="black" stroke-width="1.5" /><text dominant-baseline="middle" fill="black" font-family="Arial" font-size="12px" font-weight="bold" text-anchor="middle" x="475.9375" y="188.203125">Common Room</text></g><g id="room_common_room_2"><polygon fill="rgb(255,215,0)" fill-opacity="0.7" points="256.5625,110.15625 256.5625,196.640625 305.078125,196.640625 307.1875,215.625 334.609375,215.625 334.609375,110.15625" stroke="black" stroke-width="1.5" /><text dominant-baseline="middle" fill="black" font-family="Arial" font-size="12px" font-weight="bold" text-anchor="middle" x="296.640625" y="163.9453125">Common Room 2</text></g><g id="room_balcony"><polygon fill="rgb(107,142,35)" fill-opacity="0.7" points="317.734375,439.21875 317.734375,489.84375 435.859375,489.84375 435.859375,439.21875" stroke="black" stroke-width="1.5" /><text dominant-baseline="middle" fill="black" font-family="Arial" font-size="12px" font-weight="bold" text-anchor="middle" x="377.8515625" y="465.5859375">Balcony</text></g><g id="room_kitchen"><polygon fill="rgb(240,128,128)" fill-opacity="0.7" points="343.046875,129.140625 343.046875,179.765625 423.203125,179.765625 423.203125,129.140625" stroke="black" stroke-width="1.5" /><text dominant-baseline="middle" fill="black" font-family="Arial" font-size="12px" font-weight="bold" text-anchor="middle" x="384.1796875" y="155.5078125">Kitchen</text></g><g id="room_bathroom"><polygon fill="rgb(173,216,230)" fill-opacity="0.7" points="484.375,236.71875 484.375,304.21875 543.4375,304.21875 543.4375,236.71875" stroke="black" stroke-width="1.5" /><text dominant-baseline="middle" fill="black" font-family="Arial" font-size="12px" font-weight="bold" text-anchor="middle" x="514.9609375" y="271.5234375">Bathroom</text></g><rect fill="red" fill-opacity="0.9" height="27.421875" id="main_door" stroke="darkred" stroke-width="3" width="6.328125" x="300.859375" y="236.71875" /><text dominant-baseline="middle" fill="white" font-family="Arial" font-size="9px" font-weight="bold" text-anchor="middle" x="304.0234375" y="250.4296875">Main Door</text><text fill="black" font-family="Arial" font-size="18px" font-weight="bold" text-anchor="middle" x="400.0" y="30">Floor Plan - ID: 1573</text></svg>