<?xml version="1.0" encoding="utf-8" ?>
<svg baseProfile="full" height="600px" version="1.1" viewBox="0 0 800 600" width="800px" xmlns="http://www.w3.org/2000/svg" xmlns:ev="http://www.w3.org/2001/xml-events" xmlns:xlink="http://www.w3.org/1999/xlink"><defs /><rect fill="white" height="600" width="800" x="0" y="0" /><polygon fill="none" id="floor_plan_boundary" points="262.890625,158.671875 262.890625,209.296875 286.09375,209.296875 294.53125,226.171875 294.53125,367.5 330.390625,369.609375 330.390625,481.40625 408.4375,481.40625 334.609375,475.078125 334.609375,363.28125 298.75,361.171875 298.75,219.84375 292.421875,217.734375 292.421875,205.078125 267.109375,202.96875 267.109375,165.0 425.3125,162.890625 427.421875,122.8125 532.890625,124.921875 532.890625,475.078125 437.96875,481.40625 537.109375,481.40625 537.109375,118.59375 421.09375,118.59375 418.984375,158.671875" stroke="black" stroke-linecap="butt" stroke-linejoin="miter" stroke-width="4" /><g id="room_living_room"><polygon fill="rgb(238,232,170)" fill-opacity="0.7" points="300.859375,247.265625 300.859375,283.125 345.15625,285.234375 336.71875,394.921875 393.671875,399.140625 391.5625,475.078125 530.78125,475.078125 530.78125,293.671875 423.203125,295.78125 418.984375,247.265625" stroke="black" stroke-width="1.5" /><text dominant-baseline="middle" fill="black" font-family="Arial" font-size="12px" font-weight="bold" text-anchor="middle" x="416.875" y="362.2265625">Living Room</text></g><g id="room_master_bedroom"><polygon fill="rgb(255,165,0)" fill-opacity="0.7" points="427.421875,165.0 427.421875,285.234375 530.78125,285.234375 530.78125,165.0" stroke="black" stroke-width="1.5" /><text dominant-baseline="middle" fill="black" font-family="Arial" font-size="12px" font-weight="bold" text-anchor="middle" x="480.15625" y="226.171875">Master Bedroom</text></g><g id="room_common_room_2"><polygon fill="rgb(255,215,0)" fill-opacity="0.7" points="269.21875,165.0 269.21875,202.96875 294.53125,205.078125 294.53125,217.734375 300.859375,219.84375 300.859375,238.828125 353.59375,238.828125 353.59375,165.0" stroke="black" stroke-width="1.5" /><text dominant-baseline="middle" fill="black" font-family="Arial" font-size="12px" font-weight="bold" text-anchor="middle" x="312.4609375" y="202.96875">Common Room 2</text></g><g id="room_common_room"><polygon fill="rgb(255,215,0)" fill-opacity="0.7" points="362.03125,165.0 362.03125,238.828125 418.984375,238.828125 418.984375,165.0" stroke="black" stroke-width="1.5" /><text dominant-baseline="middle" fill="black" font-family="Arial" font-size="12px" font-weight="bold" text-anchor="middle" x="391.5625" y="202.96875">Common Room</text></g><g id="room_kitchen"><polygon fill="rgb(240,128,128)" fill-opacity="0.7" points="336.71875,403.359375 336.71875,475.078125 383.125,475.078125 383.125,403.359375" stroke="black" stroke-width="1.5" /><text dominant-baseline="middle" fill="black" font-family="Arial" font-size="12px" font-weight="bold" text-anchor="middle" x="360.9765625" y="440.2734375">Kitchen</text></g><g id="room_balcony"><polygon fill="rgb(107,142,35)" fill-opacity="0.7" points="427.421875,124.921875 427.421875,156.5625 530.78125,156.5625 530.78125,124.921875" stroke="black" stroke-width="1.5" /><text dominant-baseline="middle" fill="black" font-family="Arial" font-size="12px" font-weight="bold" text-anchor="middle" x="480.15625" y="141.796875">Balcony</text></g><g id="room_bathroom"><polygon fill="rgb(173,216,230)" fill-opacity="0.7" points="300.859375,291.5625 300.859375,361.171875 328.28125,361.171875 328.28125,318.984375 332.5,314.765625 336.71875,316.875 336.71875,291.5625" stroke="black" stroke-width="1.5" /><text dominant-baseline="middle" fill="black" font-family="Arial" font-size="12px" font-weight="bold" text-anchor="middle" x="319.84375" y="327.421875">Bathroom</text></g><rect fill="red" fill-opacity="0.9" height="6.328125" id="main_door" stroke="darkred" stroke-width="3" width="27.421875" x="410.546875" y="477.1875" /><text dominant-baseline="middle" fill="white" font-family="Arial" font-size="9px" font-weight="bold" text-anchor="middle" x="424.2578125" y="480.3515625">Main Door</text><text fill="black" font-family="Arial" font-size="18px" font-weight="bold" text-anchor="middle" x="400.0" y="30">Floor Plan - ID: 15782</text></svg>