<?xml version="1.0" encoding="utf-8" ?>
<svg baseProfile="full" height="600px" version="1.1" viewBox="0 0 800 600" width="800px" xmlns="http://www.w3.org/2000/svg" xmlns:ev="http://www.w3.org/2001/xml-events" xmlns:xlink="http://www.w3.org/1999/xlink"><defs /><rect fill="white" height="600" width="800" x="0" y="0" /><polygon fill="none" id="floor_plan_boundary" points="543.4375,114.375 440.078125,114.375 437.96875,156.5625 389.453125,156.5625 444.296875,160.78125 446.40625,118.59375 539.21875,120.703125 539.21875,202.96875 503.359375,205.078125 503.359375,416.015625 404.21875,418.125 402.109375,481.40625 302.96875,479.296875 302.96875,276.796875 260.78125,274.6875 260.78125,192.421875 359.921875,190.3125 359.921875,156.5625 353.59375,186.09375 256.5625,186.09375 256.5625,281.015625 298.75,283.125 298.75,485.625 408.4375,485.625 410.546875,422.34375 507.578125,422.34375 507.578125,211.40625 543.4375,209.296875" stroke="black" stroke-linecap="butt" stroke-linejoin="miter" stroke-width="4" /><g id="room_living_room"><polygon fill="rgb(238,232,170)" fill-opacity="0.7" points="402.109375,162.890625 362.03125,162.890625 362.03125,281.015625 305.078125,283.125 305.078125,432.890625 402.109375,432.890625 402.109375,295.78125 437.96875,293.671875 437.96875,264.140625 402.109375,262.03125" stroke="black" stroke-width="1.5" /><text dominant-baseline="middle" fill="black" font-family="Arial" font-size="12px" font-weight="bold" text-anchor="middle" x="372.578125" y="298.9453125">Living Room</text></g><g id="room_master_bedroom"><polygon fill="rgb(255,165,0)" fill-opacity="0.7" points="410.546875,302.109375 410.546875,416.015625 501.25,416.015625 501.25,318.984375 440.078125,318.984375 437.96875,302.109375" stroke="black" stroke-width="1.5" /><text dominant-baseline="middle" fill="black" font-family="Arial" font-size="12px" font-weight="bold" text-anchor="middle" x="456.953125" y="360.1171875">Master Bedroom</text></g><g id="room_common_room_2"><polygon fill="rgb(255,215,0)" fill-opacity="0.7" points="410.546875,162.890625 410.546875,202.96875 537.109375,202.96875 537.109375,120.703125 446.40625,120.703125 446.40625,160.78125" stroke="black" stroke-width="1.5" /><text dominant-baseline="middle" fill="black" font-family="Arial" font-size="12px" font-weight="bold" text-anchor="middle" x="474.8828125" y="162.890625">Common Room 2</text></g><g id="room_common_room"><polygon fill="rgb(255,215,0)" fill-opacity="0.7" points="262.890625,192.421875 262.890625,274.6875 353.59375,274.6875 353.59375,192.421875" stroke="black" stroke-width="1.5" /><text dominant-baseline="middle" fill="black" font-family="Arial" font-size="12px" font-weight="bold" text-anchor="middle" x="309.296875" y="234.609375">Common Room</text></g><g id="room_kitchen"><polygon fill="rgb(240,128,128)" fill-opacity="0.7" points="410.546875,211.40625 410.546875,255.703125 501.25,255.703125 501.25,211.40625" stroke="black" stroke-width="1.5" /><text dominant-baseline="middle" fill="black" font-family="Arial" font-size="12px" font-weight="bold" text-anchor="middle" x="456.953125" y="234.609375">Kitchen</text></g><g id="room_balcony"><polygon fill="rgb(107,142,35)" fill-opacity="0.7" points="305.078125,441.328125 305.078125,479.296875 402.109375,479.296875 402.109375,441.328125" stroke="black" stroke-width="1.5" /><text dominant-baseline="middle" fill="black" font-family="Arial" font-size="12px" font-weight="bold" text-anchor="middle" x="354.6484375" y="461.3671875">Balcony</text></g><g id="room_bathroom"><polygon fill="rgb(173,216,230)" fill-opacity="0.7" points="446.40625,264.140625 446.40625,310.546875 501.25,310.546875 501.25,264.140625" stroke="black" stroke-width="1.5" /><text dominant-baseline="middle" fill="black" font-family="Arial" font-size="12px" font-weight="bold" text-anchor="middle" x="474.8828125" y="288.3984375">Bathroom</text></g><rect fill="red" fill-opacity="0.9" height="6.328125" id="main_door" stroke="darkred" stroke-width="3" width="27.421875" x="362.03125" y="156.5625" /><text dominant-baseline="middle" fill="white" font-family="Arial" font-size="9px" font-weight="bold" text-anchor="middle" x="375.7421875" y="159.7265625">Main Door</text><text fill="black" font-family="Arial" font-size="18px" font-weight="bold" text-anchor="middle" x="400.0" y="30">Floor Plan - ID: 15811</text></svg>