<?xml version="1.0" encoding="utf-8" ?>
<svg baseProfile="full" height="600px" version="1.1" viewBox="0 0 800 600" width="800px" xmlns="http://www.w3.org/2000/svg" xmlns:ev="http://www.w3.org/2001/xml-events" xmlns:xlink="http://www.w3.org/1999/xlink"><defs /><rect fill="white" height="600" width="800" x="0" y="0" /><polygon fill="none" id="floor_plan_boundary" points="296.640625,137.578125 296.640625,181.875 277.65625,183.984375 277.65625,323.203125 229.140625,325.3125 229.140625,462.421875 353.59375,462.421875 233.359375,456.09375 233.359375,331.640625 281.875,329.53125 281.875,190.3125 300.859375,188.203125 302.96875,141.796875 522.34375,143.90625 522.34375,302.109375 566.640625,304.21875 566.640625,456.09375 461.171875,458.203125 459.0625,430.78125 393.671875,430.78125 391.5625,462.421875 397.890625,462.421875 400.0,435.0 452.734375,435.0 454.84375,462.421875 570.859375,462.421875 570.859375,297.890625 526.5625,295.78125 526.5625,137.578125" stroke="black" stroke-linecap="butt" stroke-linejoin="miter" stroke-width="4" /><g id="room_living_room"><polygon fill="rgb(238,232,170)" fill-opacity="0.7" points="520.234375,190.3125 389.453125,190.3125 391.5625,327.421875 355.703125,331.640625 355.703125,456.09375 391.5625,456.09375 395.78125,426.5625 452.734375,428.671875 456.953125,327.421875 520.234375,329.53125" stroke="black" stroke-width="1.5" /><text dominant-baseline="middle" fill="black" font-family="Arial" font-size="12px" font-weight="bold" text-anchor="middle" x="439.0234375" y="324.2578125">Living Room</text></g><g id="room_common_room"><polygon fill="rgb(255,215,0)" fill-opacity="0.7" points="564.53125,304.21875 528.671875,304.21875 526.5625,337.96875 461.171875,337.96875 461.171875,456.09375 564.53125,456.09375" stroke="black" stroke-width="1.5" /><text dominant-baseline="middle" fill="black" font-family="Arial" font-size="12px" font-weight="bold" text-anchor="middle" x="513.90625" y="381.2109375">Common Room</text></g><g id="room_master_bedroom"><polygon fill="rgb(255,165,0)" fill-opacity="0.7" points="283.984375,190.3125 283.984375,323.203125 381.015625,323.203125 381.015625,190.3125" stroke="black" stroke-width="1.5" /><text dominant-baseline="middle" fill="black" font-family="Arial" font-size="12px" font-weight="bold" text-anchor="middle" x="333.5546875" y="257.8125">Master Bedroom</text></g><g id="room_kitchen"><polygon fill="rgb(240,128,128)" fill-opacity="0.7" points="235.46875,331.640625 235.46875,456.09375 347.265625,456.09375 347.265625,401.25 277.65625,401.25 275.546875,331.640625" stroke="black" stroke-width="1.5" /><text dominant-baseline="middle" fill="black" font-family="Arial" font-size="12px" font-weight="bold" text-anchor="middle" x="292.421875" y="394.921875">Kitchen</text></g><g id="room_balcony"><polygon fill="rgb(107,142,35)" fill-opacity="0.7" points="302.96875,143.90625 302.96875,181.875 520.234375,181.875 520.234375,143.90625" stroke="black" stroke-width="1.5" /><text dominant-baseline="middle" fill="black" font-family="Arial" font-size="12px" font-weight="bold" text-anchor="middle" x="412.65625" y="163.9453125">Balcony</text></g><g id="room_bathroom"><polygon fill="rgb(173,216,230)" fill-opacity="0.7" points="283.984375,331.640625 283.984375,392.8125 347.265625,392.8125 347.265625,331.640625" stroke="black" stroke-width="1.5" /><text dominant-baseline="middle" fill="black" font-family="Arial" font-size="12px" font-weight="bold" text-anchor="middle" x="316.6796875" y="363.28125">Bathroom</text></g><rect fill="red" fill-opacity="0.9" height="6.328125" id="main_door" stroke="darkred" stroke-width="3" width="35.859375" x="355.703125" y="458.203125" /><text dominant-baseline="middle" fill="white" font-family="Arial" font-size="9px" font-weight="bold" text-anchor="middle" x="373.6328125" y="461.3671875">Main Door</text><text fill="black" font-family="Arial" font-size="18px" font-weight="bold" text-anchor="middle" x="400.0" y="30">Floor Plan - ID: 16013</text></svg>