<?xml version="1.0" encoding="utf-8" ?>
<svg baseProfile="full" height="600px" version="1.1" viewBox="0 0 800 600" width="800px" xmlns="http://www.w3.org/2000/svg" xmlns:ev="http://www.w3.org/2001/xml-events" xmlns:xlink="http://www.w3.org/1999/xlink"><defs /><rect fill="white" height="600" width="800" x="0" y="0" /><polygon fill="none" id="floor_plan_boundary" points="532.890625,97.5 461.171875,97.5 459.0625,124.921875 283.984375,124.921875 283.984375,249.375 267.109375,251.484375 267.109375,403.359375 283.984375,405.46875 283.984375,502.5 433.75,502.5 433.75,405.46875 469.609375,403.359375 469.609375,371.71875 461.171875,371.71875 459.0625,394.921875 425.3125,394.921875 423.203125,494.0625 292.421875,491.953125 292.421875,394.921875 275.546875,392.8125 275.546875,262.03125 292.421875,259.921875 292.421875,135.46875 469.609375,133.359375 471.71875,105.9375 524.453125,108.046875 524.453125,213.515625 461.171875,215.625 461.171875,329.53125 469.609375,329.53125 469.609375,226.171875 532.890625,224.0625" stroke="black" stroke-linecap="butt" stroke-linejoin="miter" stroke-width="4" /><g id="room_living_room"><polygon fill="rgb(238,232,170)" fill-opacity="0.7" points="459.0625,186.09375 393.671875,186.09375 391.5625,262.03125 277.65625,262.03125 277.65625,392.8125 459.0625,392.8125" stroke="black" stroke-width="1.5" /><text dominant-baseline="middle" fill="black" font-family="Arial" font-size="12px" font-weight="bold" text-anchor="middle" x="369.4140625" y="290.5078125">Living Room</text></g><g id="room_master_bedroom"><polygon fill="rgb(255,165,0)" fill-opacity="0.7" points="294.53125,405.46875 294.53125,491.953125 423.203125,491.953125 423.203125,405.46875" stroke="black" stroke-width="1.5" /><text dominant-baseline="middle" fill="black" font-family="Arial" font-size="12px" font-weight="bold" text-anchor="middle" x="359.921875" y="449.765625">Master Bedroom</text></g><g id="room_common_room"><polygon fill="rgb(255,215,0)" fill-opacity="0.7" points="294.53125,135.46875 294.53125,249.375 381.015625,249.375 381.015625,135.46875" stroke="black" stroke-width="1.5" /><text dominant-baseline="middle" fill="black" font-family="Arial" font-size="12px" font-weight="bold" text-anchor="middle" x="338.828125" y="193.4765625">Common Room</text></g><g id="room_kitchen"><polygon fill="rgb(240,128,128)" fill-opacity="0.7" points="471.71875,108.046875 471.71875,213.515625 522.34375,213.515625 522.34375,108.046875" stroke="black" stroke-width="1.5" /><text dominant-baseline="middle" fill="black" font-family="Arial" font-size="12px" font-weight="bold" text-anchor="middle" x="498.0859375" y="161.8359375">Kitchen</text></g><g id="room_bathroom"><polygon fill="rgb(173,216,230)" fill-opacity="0.7" points="393.671875,135.46875 393.671875,177.65625 459.0625,177.65625 459.0625,135.46875" stroke="black" stroke-width="1.5" /><text dominant-baseline="middle" fill="black" font-family="Arial" font-size="12px" font-weight="bold" text-anchor="middle" x="427.421875" y="157.6171875">Bathroom</text></g><rect fill="red" fill-opacity="0.9" height="40.078125" id="main_door" stroke="darkred" stroke-width="3" width="10.546875" x="461.171875" y="331.640625" /><text dominant-baseline="middle" fill="white" font-family="Arial" font-size="9px" font-weight="bold" text-anchor="middle" x="466.4453125" y="351.6796875">Main Door</text><text fill="black" font-family="Arial" font-size="18px" font-weight="bold" text-anchor="middle" x="400.0" y="30">Floor Plan - ID: 16136</text></svg>