<?xml version="1.0" encoding="utf-8" ?>
<svg baseProfile="full" height="600px" version="1.1" viewBox="0 0 800 600" width="800px" xmlns="http://www.w3.org/2000/svg" xmlns:ev="http://www.w3.org/2001/xml-events" xmlns:xlink="http://www.w3.org/1999/xlink"><defs /><rect fill="white" height="600" width="800" x="0" y="0" /><polygon fill="none" id="floor_plan_boundary" points="254.453125,143.90625 254.453125,230.390625 235.46875,232.5 235.46875,300.0 254.453125,302.109375 254.453125,409.6875 359.921875,409.6875 362.03125,475.078125 492.8125,475.078125 492.8125,302.109375 539.21875,300.0 539.21875,276.796875 532.890625,295.78125 488.59375,295.78125 488.59375,468.75 368.359375,470.859375 366.25,405.46875 258.671875,403.359375 258.671875,295.78125 239.6875,293.671875 239.6875,238.828125 258.671875,236.71875 258.671875,150.234375 347.265625,148.125 349.375,129.140625 486.484375,129.140625 488.59375,148.125 558.203125,148.125 560.3125,230.390625 535.0,234.609375 564.53125,236.71875 564.53125,143.90625 494.921875,143.90625 492.8125,124.921875 343.046875,124.921875 340.9375,143.90625" stroke="black" stroke-linecap="butt" stroke-linejoin="miter" stroke-width="4" /><g id="room_living_room"><polygon fill="rgb(238,232,170)" fill-opacity="0.7" points="404.21875,179.765625 402.109375,238.828125 336.71875,238.828125 336.71875,270.46875 368.359375,272.578125 368.359375,420.234375 486.484375,420.234375 484.375,297.890625 532.890625,293.671875 532.890625,238.828125 484.375,234.609375 486.484375,179.765625" stroke="black" stroke-width="1.5" /><text dominant-baseline="middle" fill="black" font-family="Arial" font-size="12px" font-weight="bold" text-anchor="middle" x="435.859375" y="301.0546875">Living Room</text></g><g id="room_master_bedroom"><polygon fill="rgb(255,165,0)" fill-opacity="0.7" points="359.921875,278.90625 336.71875,278.90625 334.609375,302.109375 260.78125,302.109375 260.78125,403.359375 359.921875,403.359375" stroke="black" stroke-width="1.5" /><text dominant-baseline="middle" fill="black" font-family="Arial" font-size="12px" font-weight="bold" text-anchor="middle" x="311.40625" y="342.1875">Master Bedroom</text></g><g id="room_common_room_2"><polygon fill="rgb(255,215,0)" fill-opacity="0.7" points="260.78125,150.234375 260.78125,230.390625 340.9375,230.390625 340.9375,150.234375" stroke="black" stroke-width="1.5" /><text dominant-baseline="middle" fill="black" font-family="Arial" font-size="12px" font-weight="bold" text-anchor="middle" x="301.9140625" y="191.3671875">Common Room 2</text></g><g id="room_common_room"><polygon fill="rgb(255,215,0)" fill-opacity="0.7" points="494.921875,150.234375 494.921875,230.390625 558.203125,230.390625 558.203125,150.234375" stroke="black" stroke-width="1.5" /><text dominant-baseline="middle" fill="black" font-family="Arial" font-size="12px" font-weight="bold" text-anchor="middle" x="527.6171875" y="191.3671875">Common Room</text></g><g id="room_room_8"><polygon fill="rgb(221,160,221)" fill-opacity="0.7" points="241.796875,238.828125 241.796875,293.671875 328.28125,293.671875 328.28125,238.828125" stroke="black" stroke-width="1.5" /><text dominant-baseline="middle" fill="black" font-family="Arial" font-size="12px" font-weight="bold" text-anchor="middle" x="286.09375" y="267.3046875">Room 8</text></g><g id="room_balcony"><polygon fill="rgb(107,142,35)" fill-opacity="0.7" points="368.359375,428.671875 368.359375,468.75 486.484375,468.75 486.484375,428.671875" stroke="black" stroke-width="1.5" /><text dominant-baseline="middle" fill="black" font-family="Arial" font-size="12px" font-weight="bold" text-anchor="middle" x="428.4765625" y="449.765625">Balcony</text></g><g id="room_bathroom"><polygon fill="rgb(173,216,230)" fill-opacity="0.7" points="349.375,131.25 349.375,230.390625 395.78125,230.390625 395.78125,131.25" stroke="black" stroke-width="1.5" /><text dominant-baseline="middle" fill="black" font-family="Arial" font-size="12px" font-weight="bold" text-anchor="middle" x="373.6328125" y="181.875">Bathroom</text></g><g id="room_kitchen"><polygon fill="rgb(240,128,128)" fill-opacity="0.7" points="404.21875,131.25 404.21875,171.328125 486.484375,171.328125 486.484375,131.25" stroke="black" stroke-width="1.5" /><text dominant-baseline="middle" fill="black" font-family="Arial" font-size="12px" font-weight="bold" text-anchor="middle" x="446.40625" y="152.34375">Kitchen</text></g><rect fill="red" fill-opacity="0.9" height="40.078125" id="main_door" stroke="darkred" stroke-width="3" width="6.328125" x="535.0" y="236.71875" /><text dominant-baseline="middle" fill="white" font-family="Arial" font-size="9px" font-weight="bold" text-anchor="middle" x="538.1640625" y="256.7578125">Main Door</text><text fill="black" font-family="Arial" font-size="18px" font-weight="bold" text-anchor="middle" x="400.0" y="30">Floor Plan - ID: 16341</text></svg>