<?xml version="1.0" encoding="utf-8" ?>
<svg baseProfile="full" height="600px" version="1.1" viewBox="0 0 800 600" width="800px" xmlns="http://www.w3.org/2000/svg" xmlns:ev="http://www.w3.org/2001/xml-events" xmlns:xlink="http://www.w3.org/1999/xlink"><defs /><rect fill="white" height="600" width="800" x="0" y="0" /><polygon fill="none" id="floor_plan_boundary" points="389.453125,82.734375 387.34375,122.8125 300.859375,122.8125 300.859375,224.0625 283.984375,226.171875 283.984375,352.734375 300.859375,354.84375 300.859375,496.171875 395.78125,496.171875 397.890625,517.265625 516.015625,517.265625 516.015625,378.046875 494.921875,375.9375 494.921875,314.765625 480.15625,314.765625 478.046875,308.4375 469.609375,308.4375 467.5,323.203125 486.484375,325.3125 486.484375,386.484375 507.578125,388.59375 507.578125,506.71875 408.4375,508.828125 406.328125,487.734375 309.296875,485.625 309.296875,344.296875 292.421875,342.1875 292.421875,236.71875 309.296875,234.609375 309.296875,133.359375 397.890625,131.25 400.0,91.171875 454.84375,91.171875 456.953125,131.25 469.609375,133.359375 469.609375,274.6875 478.046875,274.6875 478.046875,127.03125 465.390625,120.703125 465.390625,82.734375" stroke="black" stroke-linecap="butt" stroke-linejoin="miter" stroke-width="4" /><g id="room_living_room"><polygon fill="rgb(238,232,170)" fill-opacity="0.7" points="400.0,133.359375 397.890625,236.71875 294.53125,236.71875 294.53125,342.1875 406.328125,342.1875 408.4375,407.578125 437.96875,407.578125 437.96875,316.875 467.5,312.65625 467.5,133.359375" stroke="black" stroke-width="1.5" /><text dominant-baseline="middle" fill="black" font-family="Arial" font-size="12px" font-weight="bold" text-anchor="middle" x="382.0703125" y="271.5234375">Living Room</text></g><g id="room_master_bedroom"><polygon fill="rgb(255,165,0)" fill-opacity="0.7" points="311.40625,354.84375 311.40625,485.625 395.78125,485.625 395.78125,354.84375" stroke="black" stroke-width="1.5" /><text dominant-baseline="middle" fill="black" font-family="Arial" font-size="12px" font-weight="bold" text-anchor="middle" x="354.6484375" y="421.2890625">Master Bedroom</text></g><g id="room_common_room"><polygon fill="rgb(255,215,0)" fill-opacity="0.7" points="408.4375,420.234375 408.4375,506.71875 505.46875,506.71875 505.46875,420.234375" stroke="black" stroke-width="1.5" /><text dominant-baseline="middle" fill="black" font-family="Arial" font-size="12px" font-weight="bold" text-anchor="middle" x="458.0078125" y="464.53125">Common Room</text></g><g id="room_common_room_2"><polygon fill="rgb(255,215,0)" fill-opacity="0.7" points="311.40625,133.359375 311.40625,224.0625 387.34375,224.0625 387.34375,133.359375" stroke="black" stroke-width="1.5" /><text dominant-baseline="middle" fill="black" font-family="Arial" font-size="12px" font-weight="bold" text-anchor="middle" x="350.4296875" y="179.765625">Common Room 2</text></g><g id="room_bathroom"><polygon fill="rgb(173,216,230)" fill-opacity="0.7" points="446.40625,323.203125 446.40625,407.578125 505.46875,407.578125 505.46875,388.59375 484.375,386.484375 484.375,325.3125" stroke="black" stroke-width="1.5" /><text dominant-baseline="middle" fill="black" font-family="Arial" font-size="12px" font-weight="bold" text-anchor="middle" x="476.9921875" y="366.4453125">Bathroom</text></g><g id="room_balcony"><polygon fill="rgb(107,142,35)" fill-opacity="0.7" points="400.0,93.28125 400.0,120.703125 454.84375,120.703125 454.84375,93.28125" stroke="black" stroke-width="1.5" /><text dominant-baseline="middle" fill="black" font-family="Arial" font-size="12px" font-weight="bold" text-anchor="middle" x="428.4765625" y="108.046875">Balcony</text></g><rect fill="red" fill-opacity="0.9" height="31.640625" id="main_door" stroke="darkred" stroke-width="3" width="10.546875" x="469.609375" y="276.796875" /><text dominant-baseline="middle" fill="white" font-family="Arial" font-size="9px" font-weight="bold" text-anchor="middle" x="474.8828125" y="292.6171875">Main Door</text><text fill="black" font-family="Arial" font-size="18px" font-weight="bold" text-anchor="middle" x="400.0" y="30">Floor Plan - ID: 16499</text></svg>