<?xml version="1.0" encoding="utf-8" ?>
<svg baseProfile="full" height="600px" version="1.1" viewBox="0 0 800 600" width="800px" xmlns="http://www.w3.org/2000/svg" xmlns:ev="http://www.w3.org/2001/xml-events" xmlns:xlink="http://www.w3.org/1999/xlink"><defs /><rect fill="white" height="600" width="800" x="0" y="0" /><polygon fill="none" id="floor_plan_boundary" points="317.734375,118.59375 315.625,156.5625 271.328125,156.5625 271.328125,327.421875 296.640625,329.53125 296.640625,407.578125 271.328125,409.6875 271.328125,481.40625 372.578125,481.40625 374.6875,458.203125 393.671875,458.203125 395.78125,470.859375 499.140625,470.859375 499.140625,432.890625 528.671875,430.78125 528.671875,247.265625 503.359375,247.265625 503.359375,255.703125 520.234375,257.8125 520.234375,420.234375 490.703125,422.34375 488.59375,462.421875 406.328125,462.421875 404.21875,449.765625 364.140625,449.765625 362.03125,472.96875 279.765625,470.859375 279.765625,420.234375 305.078125,418.125 305.078125,318.984375 279.765625,316.875 279.765625,167.109375 326.171875,165.0 328.28125,127.03125 444.296875,127.03125 446.40625,255.703125 473.828125,255.703125 473.828125,247.265625 454.84375,245.15625 454.84375,118.59375" stroke="black" stroke-linecap="butt" stroke-linejoin="miter" stroke-width="4" /><g id="room_living_room"><polygon fill="rgb(238,232,170)" fill-opacity="0.7" points="374.6875,194.53125 374.6875,255.703125 343.046875,257.8125 343.046875,281.015625 406.328125,297.890625 406.328125,420.234375 518.125,420.234375 518.125,257.8125 446.40625,257.8125 444.296875,194.53125" stroke="black" stroke-width="1.5" /><text dominant-baseline="middle" fill="black" font-family="Arial" font-size="12px" font-weight="bold" text-anchor="middle" x="431.640625" y="308.4375">Living Room</text></g><g id="room_master_bedroom"><polygon fill="rgb(255,165,0)" fill-opacity="0.7" points="393.671875,308.4375 374.6875,308.4375 372.578125,329.53125 307.1875,329.53125 307.1875,418.125 281.875,420.234375 281.875,470.859375 362.03125,470.859375 364.140625,447.65625 393.671875,447.65625" stroke="black" stroke-width="1.5" /><text dominant-baseline="middle" fill="black" font-family="Arial" font-size="12px" font-weight="bold" text-anchor="middle" x="338.828125" y="390.703125">Master Bedroom</text></g><g id="room_common_room"><polygon fill="rgb(255,215,0)" fill-opacity="0.7" points="281.875,167.109375 281.875,245.15625 362.03125,245.15625 362.03125,171.328125" stroke="black" stroke-width="1.5" /><text dominant-baseline="middle" fill="black" font-family="Arial" font-size="12px" font-weight="bold" text-anchor="middle" x="323.0078125" y="207.1875">Common Room</text></g><g id="room_kitchen"><polygon fill="rgb(240,128,128)" fill-opacity="0.7" points="374.6875,129.140625 374.6875,181.875 444.296875,181.875 444.296875,129.140625" stroke="black" stroke-width="1.5" /><text dominant-baseline="middle" fill="black" font-family="Arial" font-size="12px" font-weight="bold" text-anchor="middle" x="410.546875" y="156.5625">Kitchen</text></g><g id="room_bathroom"><polygon fill="rgb(173,216,230)" fill-opacity="0.7" points="281.875,257.8125 281.875,316.875 362.03125,316.875 362.03125,293.671875 330.390625,291.5625 330.390625,257.8125" stroke="black" stroke-width="1.5" /><text dominant-baseline="middle" fill="black" font-family="Arial" font-size="12px" font-weight="bold" text-anchor="middle" x="323.0078125" y="288.3984375">Bathroom</text></g><g id="room_balcony"><polygon fill="rgb(107,142,35)" fill-opacity="0.7" points="406.328125,432.890625 406.328125,460.3125 488.59375,460.3125 488.59375,432.890625" stroke="black" stroke-width="1.5" /><text dominant-baseline="middle" fill="black" font-family="Arial" font-size="12px" font-weight="bold" text-anchor="middle" x="448.515625" y="447.65625">Balcony</text></g><g id="room_balcony_2"><polygon fill="rgb(107,142,35)" fill-opacity="0.7" points="328.28125,129.140625 328.28125,158.671875 362.03125,158.671875 362.03125,129.140625" stroke="black" stroke-width="1.5" /><text dominant-baseline="middle" fill="black" font-family="Arial" font-size="12px" font-weight="bold" text-anchor="middle" x="346.2109375" y="144.9609375">Balcony 2</text></g><rect fill="red" fill-opacity="0.9" height="10.546875" id="main_door" stroke="darkred" stroke-width="3" width="27.421875" x="475.9375" y="247.265625" /><text dominant-baseline="middle" fill="white" font-family="Arial" font-size="9px" font-weight="bold" text-anchor="middle" x="489.6484375" y="252.5390625">Main Door</text><text fill="black" font-family="Arial" font-size="18px" font-weight="bold" text-anchor="middle" x="400.0" y="30">Floor Plan - ID: 16598</text></svg>