<?xml version="1.0" encoding="utf-8" ?>
<svg baseProfile="full" height="600px" version="1.1" viewBox="0 0 800 600" width="800px" xmlns="http://www.w3.org/2000/svg" xmlns:ev="http://www.w3.org/2001/xml-events" xmlns:xlink="http://www.w3.org/1999/xlink"><defs /><rect fill="white" height="600" width="800" x="0" y="0" /><polygon fill="none" id="floor_plan_boundary" points="281.875,120.703125 281.875,272.578125 288.203125,124.921875 414.765625,124.921875 416.875,160.78125 513.90625,162.890625 513.90625,472.96875 311.40625,475.078125 309.296875,314.765625 281.875,314.765625 305.078125,321.09375 305.078125,479.296875 518.125,479.296875 518.125,156.5625 423.203125,156.5625 421.09375,120.703125" stroke="black" stroke-linecap="butt" stroke-linejoin="miter" stroke-width="4" /><g id="room_living_room"><polygon fill="rgb(238,232,170)" fill-opacity="0.7" points="343.046875,127.03125 343.046875,262.03125 288.203125,264.140625 288.203125,312.65625 311.40625,314.765625 311.40625,472.96875 414.765625,472.96875 414.765625,329.53125 456.953125,327.421875 456.953125,304.21875 414.765625,302.109375 414.765625,127.03125" stroke="black" stroke-width="1.5" /><text dominant-baseline="middle" fill="black" font-family="Arial" font-size="12px" font-weight="bold" text-anchor="middle" x="373.6328125" y="301.0546875">Living Room</text></g><g id="room_master_bedroom"><polygon fill="rgb(255,165,0)" fill-opacity="0.7" points="423.203125,335.859375 423.203125,472.96875 511.796875,472.96875 511.796875,335.859375" stroke="black" stroke-width="1.5" /><text dominant-baseline="middle" fill="black" font-family="Arial" font-size="12px" font-weight="bold" text-anchor="middle" x="468.5546875" y="405.46875">Master Bedroom</text></g><g id="room_common_room"><polygon fill="rgb(255,215,0)" fill-opacity="0.7" points="511.796875,162.890625 423.203125,162.890625 423.203125,295.78125 456.953125,295.78125 459.0625,262.03125 511.796875,262.03125" stroke="black" stroke-width="1.5" /><text dominant-baseline="middle" fill="black" font-family="Arial" font-size="12px" font-weight="bold" text-anchor="middle" x="468.5546875" y="230.390625">Common Room</text></g><g id="room_kitchen"><polygon fill="rgb(240,128,128)" fill-opacity="0.7" points="288.203125,162.890625 288.203125,255.703125 334.609375,255.703125 334.609375,162.890625" stroke="black" stroke-width="1.5" /><text dominant-baseline="middle" fill="black" font-family="Arial" font-size="12px" font-weight="bold" text-anchor="middle" x="312.4609375" y="210.3515625">Kitchen</text></g><g id="room_bathroom"><polygon fill="rgb(173,216,230)" fill-opacity="0.7" points="465.390625,270.46875 465.390625,327.421875 511.796875,327.421875 511.796875,270.46875" stroke="black" stroke-width="1.5" /><text dominant-baseline="middle" fill="black" font-family="Arial" font-size="12px" font-weight="bold" text-anchor="middle" x="489.6484375" y="300.0">Bathroom</text></g><g id="room_balcony"><polygon fill="rgb(107,142,35)" fill-opacity="0.7" points="288.203125,127.03125 288.203125,154.453125 334.609375,154.453125 334.609375,127.03125" stroke="black" stroke-width="1.5" /><text dominant-baseline="middle" fill="black" font-family="Arial" font-size="12px" font-weight="bold" text-anchor="middle" x="312.4609375" y="141.796875">Balcony</text></g><rect fill="red" fill-opacity="0.9" height="40.078125" id="main_door" stroke="darkred" stroke-width="3" width="6.328125" x="281.875" y="274.6875" /><text dominant-baseline="middle" fill="white" font-family="Arial" font-size="9px" font-weight="bold" text-anchor="middle" x="285.0390625" y="294.7265625">Main Door</text><text fill="black" font-family="Arial" font-size="18px" font-weight="bold" text-anchor="middle" x="400.0" y="30">Floor Plan - ID: 17017</text></svg>