<?xml version="1.0" encoding="utf-8" ?>
<svg baseProfile="full" height="600px" version="1.1" viewBox="0 0 800 600" width="800px" xmlns="http://www.w3.org/2000/svg" xmlns:ev="http://www.w3.org/2001/xml-events" xmlns:xlink="http://www.w3.org/1999/xlink"><defs /><rect fill="white" height="600" width="800" x="0" y="0" /><polygon fill="none" id="floor_plan_boundary" points="208.046875,177.65625 208.046875,422.34375 530.78125,422.34375 214.375,418.125 214.375,181.875 585.625,181.875 587.734375,416.015625 560.3125,422.34375 591.953125,422.34375 591.953125,177.65625" stroke="black" stroke-linecap="butt" stroke-linejoin="miter" stroke-width="4" /><g id="room_living_room"><polygon fill="rgb(238,232,170)" fill-opacity="0.7" points="317.734375,251.484375 317.734375,325.3125 435.859375,327.421875 435.859375,416.015625 585.625,416.015625 585.625,217.734375 435.859375,217.734375 433.75,251.484375" stroke="black" stroke-width="1.5" /><text dominant-baseline="middle" fill="black" font-family="Arial" font-size="12px" font-weight="bold" text-anchor="middle" x="452.734375" y="317.9296875">Living Room</text></g><g id="room_common_room"><polygon fill="rgb(255,215,0)" fill-opacity="0.7" points="214.375,382.265625 214.375,416.015625 427.421875,416.015625 427.421875,333.75 317.734375,333.75 315.625,382.265625" stroke="black" stroke-width="1.5" /><text dominant-baseline="middle" fill="black" font-family="Arial" font-size="12px" font-weight="bold" text-anchor="middle" x="321.953125" y="375.9375">Common Room</text></g><g id="room_common_room_2"><polygon fill="rgb(255,215,0)" fill-opacity="0.7" points="317.734375,183.984375 317.734375,243.046875 427.421875,243.046875 427.421875,183.984375" stroke="black" stroke-width="1.5" /><text dominant-baseline="middle" fill="black" font-family="Arial" font-size="12px" font-weight="bold" text-anchor="middle" x="373.6328125" y="214.5703125">Common Room 2</text></g><g id="room_master_bedroom"><polygon fill="rgb(255,165,0)" fill-opacity="0.7" points="214.375,217.734375 214.375,281.015625 309.296875,281.015625 309.296875,217.734375" stroke="black" stroke-width="1.5" /><text dominant-baseline="middle" fill="black" font-family="Arial" font-size="12px" font-weight="bold" text-anchor="middle" x="262.890625" y="250.4296875">Master Bedroom</text></g><g id="room_bathroom"><polygon fill="rgb(173,216,230)" fill-opacity="0.7" points="214.375,333.75 214.375,373.828125 309.296875,373.828125 309.296875,333.75" stroke="black" stroke-width="1.5" /><text dominant-baseline="middle" fill="black" font-family="Arial" font-size="12px" font-weight="bold" text-anchor="middle" x="262.890625" y="354.84375">Bathroom</text></g><g id="room_balcony"><polygon fill="rgb(107,142,35)" fill-opacity="0.7" points="435.859375,183.984375 435.859375,209.296875 585.625,209.296875 585.625,183.984375" stroke="black" stroke-width="1.5" /><text dominant-baseline="middle" fill="black" font-family="Arial" font-size="12px" font-weight="bold" text-anchor="middle" x="511.796875" y="197.6953125">Balcony</text></g><g id="room_kitchen"><polygon fill="rgb(240,128,128)" fill-opacity="0.7" points="214.375,289.453125 214.375,325.3125 309.296875,325.3125 309.296875,289.453125" stroke="black" stroke-width="1.5" /><text dominant-baseline="middle" fill="black" font-family="Arial" font-size="12px" font-weight="bold" text-anchor="middle" x="262.890625" y="308.4375">Kitchen</text></g><g id="room_bathroom_2"><polygon fill="rgb(173,216,230)" fill-opacity="0.7" points="214.375,183.984375 214.375,209.296875 309.296875,209.296875 309.296875,183.984375" stroke="black" stroke-width="1.5" /><text dominant-baseline="middle" fill="black" font-family="Arial" font-size="12px" font-weight="bold" text-anchor="middle" x="262.890625" y="197.6953125">Bathroom 2</text></g><rect fill="red" fill-opacity="0.9" height="6.328125" id="main_door" stroke="darkred" stroke-width="3" width="27.421875" x="532.890625" y="418.125" /><text dominant-baseline="middle" fill="white" font-family="Arial" font-size="9px" font-weight="bold" text-anchor="middle" x="546.6015625" y="421.2890625">Main Door</text><text fill="black" font-family="Arial" font-size="18px" font-weight="bold" text-anchor="middle" x="400.0" y="30">Floor Plan - ID: 17094</text></svg>