<?xml version="1.0" encoding="utf-8" ?>
<svg baseProfile="full" height="600px" version="1.1" viewBox="0 0 800 600" width="800px" xmlns="http://www.w3.org/2000/svg" xmlns:ev="http://www.w3.org/2001/xml-events" xmlns:xlink="http://www.w3.org/1999/xlink"><defs /><rect fill="white" height="600" width="800" x="0" y="0" /><polygon fill="none" id="floor_plan_boundary" points="288.203125,101.71875 288.203125,226.171875 296.640625,226.171875 298.75,110.15625 442.1875,110.15625 444.296875,196.640625 505.46875,198.75 505.46875,325.3125 545.546875,327.421875 545.546875,487.734375 256.5625,489.84375 254.453125,272.578125 296.640625,270.46875 296.640625,255.703125 288.203125,255.703125 286.09375,262.03125 246.015625,262.03125 246.015625,498.28125 553.984375,498.28125 553.984375,316.875 513.90625,314.765625 513.90625,188.203125 452.734375,186.09375 452.734375,101.71875" stroke="black" stroke-linecap="butt" stroke-linejoin="miter" stroke-width="4" /><g id="room_living_room"><polygon fill="rgb(238,232,170)" fill-opacity="0.7" points="503.359375,198.75 351.484375,198.75 349.375,167.109375 298.75,167.109375 298.75,270.46875 256.5625,272.578125 256.5625,439.21875 313.515625,439.21875 315.625,344.296875 381.015625,344.296875 383.125,380.15625 418.984375,380.15625 421.09375,314.765625 503.359375,314.765625" stroke="black" stroke-width="1.5" /><text dominant-baseline="middle" fill="black" font-family="Arial" font-size="12px" font-weight="bold" text-anchor="middle" x="381.015625" y="304.21875">Living Room</text></g><g id="room_master_bedroom"><polygon fill="rgb(255,165,0)" fill-opacity="0.7" points="431.640625,327.421875 431.640625,487.734375 543.4375,487.734375 543.4375,392.8125 471.71875,392.8125 469.609375,327.421875" stroke="black" stroke-width="1.5" /><text dominant-baseline="middle" fill="black" font-family="Arial" font-size="12px" font-weight="bold" text-anchor="middle" x="488.59375" y="408.6328125">Master Bedroom</text></g><g id="room_common_room"><polygon fill="rgb(255,215,0)" fill-opacity="0.7" points="326.171875,356.953125 326.171875,487.734375 418.984375,487.734375 418.984375,392.8125 372.578125,392.8125 370.46875,356.953125" stroke="black" stroke-width="1.5" /><text dominant-baseline="middle" fill="black" font-family="Arial" font-size="12px" font-weight="bold" text-anchor="middle" x="373.6328125" y="423.3984375">Common Room</text></g><g id="room_common_room_2"><polygon fill="rgb(255,215,0)" fill-opacity="0.7" points="362.03125,112.265625 362.03125,186.09375 442.1875,186.09375 442.1875,112.265625" stroke="black" stroke-width="1.5" /><text dominant-baseline="middle" fill="black" font-family="Arial" font-size="12px" font-weight="bold" text-anchor="middle" x="403.1640625" y="150.234375">Common Room 2</text></g><g id="room_bathroom"><polygon fill="rgb(173,216,230)" fill-opacity="0.7" points="482.265625,327.421875 482.265625,380.15625 543.4375,380.15625 543.4375,327.421875" stroke="black" stroke-width="1.5" /><text dominant-baseline="middle" fill="black" font-family="Arial" font-size="12px" font-weight="bold" text-anchor="middle" x="513.90625" y="354.84375">Bathroom</text></g><g id="room_bathroom_2"><polygon fill="rgb(173,216,230)" fill-opacity="0.7" points="298.75,112.265625 298.75,154.453125 349.375,154.453125 349.375,112.265625" stroke="black" stroke-width="1.5" /><text dominant-baseline="middle" fill="black" font-family="Arial" font-size="12px" font-weight="bold" text-anchor="middle" x="325.1171875" y="134.4140625">Bathroom 2</text></g><g id="room_balcony"><polygon fill="rgb(107,142,35)" fill-opacity="0.7" points="256.5625,451.875 256.5625,487.734375 313.515625,487.734375 313.515625,451.875" stroke="black" stroke-width="1.5" /><text dominant-baseline="middle" fill="black" font-family="Arial" font-size="12px" font-weight="bold" text-anchor="middle" x="286.09375" y="470.859375">Balcony</text></g><rect fill="red" fill-opacity="0.9" height="27.421875" id="main_door" stroke="darkred" stroke-width="3" width="10.546875" x="288.203125" y="228.28125" /><text dominant-baseline="middle" fill="white" font-family="Arial" font-size="9px" font-weight="bold" text-anchor="middle" x="293.4765625" y="241.9921875">Main Door</text><text fill="black" font-family="Arial" font-size="18px" font-weight="bold" text-anchor="middle" x="400.0" y="30">Floor Plan - ID: 17294</text></svg>