<?xml version="1.0" encoding="utf-8" ?>
<svg baseProfile="full" height="600px" version="1.1" viewBox="0 0 800 600" width="800px" xmlns="http://www.w3.org/2000/svg" xmlns:ev="http://www.w3.org/2001/xml-events" xmlns:xlink="http://www.w3.org/1999/xlink"><defs /><rect fill="white" height="600" width="800" x="0" y="0" /><polygon fill="none" id="floor_plan_boundary" points="180.625,243.046875 180.625,382.265625 241.796875,382.265625 243.90625,443.4375 370.46875,443.4375 250.234375,439.21875 248.125,378.046875 184.84375,375.9375 184.84375,249.375 292.421875,247.265625 292.421875,186.09375 315.625,183.984375 319.84375,160.78125 383.125,160.78125 385.234375,183.984375 613.046875,183.984375 615.15625,285.234375 594.0625,287.34375 594.0625,384.375 408.4375,386.484375 412.65625,443.4375 414.765625,390.703125 598.28125,390.703125 598.28125,293.671875 619.375,291.5625 619.375,179.765625 391.5625,179.765625 389.453125,156.5625 311.40625,156.5625 313.515625,177.65625 288.203125,179.765625 286.09375,243.046875" stroke="black" stroke-linecap="butt" stroke-linejoin="miter" stroke-width="4" /><g id="room_living_room"><polygon fill="rgb(238,232,170)" fill-opacity="0.7" points="319.84375,162.890625 315.625,186.09375 294.53125,186.09375 296.640625,316.875 258.671875,321.09375 258.671875,375.9375 364.140625,375.9375 366.25,437.109375 406.328125,437.109375 406.328125,186.09375 385.234375,186.09375 383.125,162.890625" stroke="black" stroke-width="1.5" /><text dominant-baseline="middle" fill="black" font-family="Arial" font-size="12px" font-weight="bold" text-anchor="middle" x="333.5546875" y="301.0546875">Living Room</text></g><g id="room_master_bedroom"><polygon fill="rgb(255,165,0)" fill-opacity="0.7" points="414.765625,255.703125 414.765625,285.234375 613.046875,285.234375 613.046875,186.09375 473.828125,186.09375 473.828125,253.59375" stroke="black" stroke-width="1.5" /><text dominant-baseline="middle" fill="black" font-family="Arial" font-size="12px" font-weight="bold" text-anchor="middle" x="514.9609375" y="236.71875">Master Bedroom</text></g><g id="room_common_room"><polygon fill="rgb(255,215,0)" fill-opacity="0.7" points="414.765625,293.671875 414.765625,384.375 532.890625,384.375 532.890625,293.671875" stroke="black" stroke-width="1.5" /><text dominant-baseline="middle" fill="black" font-family="Arial" font-size="12px" font-weight="bold" text-anchor="middle" x="474.8828125" y="340.078125">Common Room</text></g><g id="room_common_room_2"><polygon fill="rgb(255,215,0)" fill-opacity="0.7" points="186.953125,249.375 186.953125,312.65625 286.09375,312.65625 286.09375,249.375" stroke="black" stroke-width="1.5" /><text dominant-baseline="middle" fill="black" font-family="Arial" font-size="12px" font-weight="bold" text-anchor="middle" x="237.578125" y="282.0703125">Common Room 2</text></g><g id="room_kitchen"><polygon fill="rgb(240,128,128)" fill-opacity="0.7" points="250.234375,384.375 250.234375,437.109375 357.8125,437.109375 357.8125,384.375" stroke="black" stroke-width="1.5" /><text dominant-baseline="middle" fill="black" font-family="Arial" font-size="12px" font-weight="bold" text-anchor="middle" x="305.078125" y="411.796875">Kitchen</text></g><g id="room_balcony"><polygon fill="rgb(107,142,35)" fill-opacity="0.7" points="541.328125,293.671875 541.328125,384.375 591.953125,384.375 591.953125,293.671875" stroke="black" stroke-width="1.5" /><text dominant-baseline="middle" fill="black" font-family="Arial" font-size="12px" font-weight="bold" text-anchor="middle" x="567.6953125" y="340.078125">Balcony</text></g><g id="room_bathroom"><polygon fill="rgb(173,216,230)" fill-opacity="0.7" points="186.953125,321.09375 186.953125,375.9375 250.234375,375.9375 250.234375,321.09375" stroke="black" stroke-width="1.5" /><text dominant-baseline="middle" fill="black" font-family="Arial" font-size="12px" font-weight="bold" text-anchor="middle" x="219.6484375" y="349.5703125">Bathroom</text></g><g id="room_bathroom_2"><polygon fill="rgb(173,216,230)" fill-opacity="0.7" points="414.765625,186.09375 414.765625,247.265625 465.390625,247.265625 465.390625,186.09375" stroke="black" stroke-width="1.5" /><text dominant-baseline="middle" fill="black" font-family="Arial" font-size="12px" font-weight="bold" text-anchor="middle" x="441.1328125" y="217.734375">Bathroom 2</text></g><rect fill="red" fill-opacity="0.9" height="6.328125" id="main_door" stroke="darkred" stroke-width="3" width="35.859375" x="372.578125" y="439.21875" /><text dominant-baseline="middle" fill="white" font-family="Arial" font-size="9px" font-weight="bold" text-anchor="middle" x="390.5078125" y="442.3828125">Main Door</text><text fill="black" font-family="Arial" font-size="18px" font-weight="bold" text-anchor="middle" x="400.0" y="30">Floor Plan - ID: 17291</text></svg>