<?xml version="1.0" encoding="utf-8" ?>
<svg baseProfile="full" height="600px" version="1.1" viewBox="0 0 800 600" width="800px" xmlns="http://www.w3.org/2000/svg" xmlns:ev="http://www.w3.org/2001/xml-events" xmlns:xlink="http://www.w3.org/1999/xlink"><defs /><rect fill="white" height="600" width="800" x="0" y="0" /><polygon fill="none" id="floor_plan_boundary" points="288.203125,122.8125 283.984375,188.203125 296.640625,188.203125 298.75,131.25 530.78125,133.359375 530.78125,188.203125 560.3125,190.3125 560.3125,466.640625 241.796875,468.75 239.6875,190.3125 254.453125,188.203125 254.453125,179.765625 231.25,179.765625 231.25,477.1875 568.75,477.1875 568.75,179.765625 539.21875,177.65625 539.21875,122.8125" stroke="black" stroke-linecap="butt" stroke-linejoin="miter" stroke-width="4" /><g id="room_living_room"><polygon fill="rgb(238,232,170)" fill-opacity="0.7" points="241.796875,190.3125 241.796875,466.640625 351.484375,466.640625 351.484375,325.3125 404.21875,323.203125 406.328125,367.5 440.078125,367.5 440.078125,211.40625 330.390625,211.40625 328.28125,198.75" stroke="black" stroke-width="1.5" /><text dominant-baseline="middle" fill="black" font-family="Arial" font-size="12px" font-weight="bold" text-anchor="middle" x="341.9921875" y="329.53125">Living Room</text></g><g id="room_master_bedroom"><polygon fill="rgb(255,165,0)" fill-opacity="0.7" points="448.515625,331.640625 448.515625,466.640625 558.203125,466.640625 558.203125,331.640625" stroke="black" stroke-width="1.5" /><text dominant-baseline="middle" fill="black" font-family="Arial" font-size="12px" font-weight="bold" text-anchor="middle" x="504.4140625" y="400.1953125">Master Bedroom</text></g><g id="room_common_room_2"><polygon fill="rgb(255,215,0)" fill-opacity="0.7" points="475.9375,188.203125 473.828125,211.40625 448.515625,211.40625 448.515625,323.203125 558.203125,323.203125 558.203125,190.3125" stroke="black" stroke-width="1.5" /><text dominant-baseline="middle" fill="black" font-family="Arial" font-size="12px" font-weight="bold" text-anchor="middle" x="504.4140625" y="256.7578125">Common Room 2</text></g><g id="room_bathroom"><polygon fill="rgb(173,216,230)" fill-opacity="0.7" points="400.0,133.359375 400.0,202.96875 467.5,202.96875 471.71875,177.65625 528.671875,179.765625 528.671875,133.359375" stroke="black" stroke-width="1.5" /><text dominant-baseline="middle" fill="black" font-family="Arial" font-size="12px" font-weight="bold" text-anchor="middle" x="465.390625" y="169.21875">Bathroom</text></g><g id="room_common_room"><polygon fill="rgb(255,215,0)" fill-opacity="0.7" points="359.921875,375.9375 359.921875,466.640625 440.078125,466.640625 440.078125,375.9375" stroke="black" stroke-width="1.5" /><text dominant-baseline="middle" fill="black" font-family="Arial" font-size="12px" font-weight="bold" text-anchor="middle" x="401.0546875" y="422.34375">Common Room</text></g><g id="room_kitchen"><polygon fill="rgb(240,128,128)" fill-opacity="0.7" points="298.75,133.359375 296.640625,190.3125 338.828125,190.3125 340.9375,202.96875 391.5625,202.96875 391.5625,133.359375" stroke="black" stroke-width="1.5" /><text dominant-baseline="middle" fill="black" font-family="Arial" font-size="12px" font-weight="bold" text-anchor="middle" x="345.15625" y="169.21875">Kitchen</text></g><rect fill="red" fill-opacity="0.9" height="10.546875" id="main_door" stroke="darkred" stroke-width="3" width="27.421875" x="256.5625" y="179.765625" /><text dominant-baseline="middle" fill="white" font-family="Arial" font-size="9px" font-weight="bold" text-anchor="middle" x="270.2734375" y="185.0390625">Main Door</text><text fill="black" font-family="Arial" font-size="18px" font-weight="bold" text-anchor="middle" x="400.0" y="30">Floor Plan - ID: 17387</text></svg>