<?xml version="1.0" encoding="utf-8" ?>
<svg baseProfile="full" height="600px" version="1.1" viewBox="0 0 800 600" width="800px" xmlns="http://www.w3.org/2000/svg" xmlns:ev="http://www.w3.org/2001/xml-events" xmlns:xlink="http://www.w3.org/1999/xlink"><defs /><rect fill="white" height="600" width="800" x="0" y="0" /><polygon fill="none" id="floor_plan_boundary" points="362.03125,80.625 362.03125,230.390625 408.4375,230.390625 410.546875,268.359375 418.984375,268.359375 418.984375,221.953125 370.46875,219.84375 370.46875,91.171875 516.015625,91.171875 516.015625,508.828125 283.984375,508.828125 283.984375,390.703125 362.03125,388.59375 362.03125,342.1875 404.21875,340.078125 404.21875,318.984375 418.984375,316.875 418.984375,297.890625 410.546875,297.890625 408.4375,308.4375 395.78125,308.4375 393.671875,331.640625 353.59375,331.640625 351.484375,380.15625 275.546875,380.15625 275.546875,519.375 524.453125,519.375 524.453125,80.625" stroke="black" stroke-linecap="butt" stroke-linejoin="miter" stroke-width="4" /><g id="room_living_room"><polygon fill="rgb(238,232,170)" fill-opacity="0.7" points="427.421875,192.421875 421.09375,316.875 406.328125,318.984375 404.21875,342.1875 364.140625,342.1875 364.140625,378.046875 406.328125,380.15625 406.328125,508.828125 513.90625,508.828125 513.90625,316.875 456.953125,314.765625 456.953125,192.421875" stroke="black" stroke-width="1.5" /><text dominant-baseline="middle" fill="black" font-family="Arial" font-size="12px" font-weight="bold" text-anchor="middle" x="440.078125" y="351.6796875">Living Room</text></g><g id="room_master_bedroom"><polygon fill="rgb(255,165,0)" fill-opacity="0.7" points="286.09375,390.703125 286.09375,508.828125 393.671875,508.828125 393.671875,390.703125" stroke="black" stroke-width="1.5" /><text dominant-baseline="middle" fill="black" font-family="Arial" font-size="12px" font-weight="bold" text-anchor="middle" x="340.9375" y="450.8203125">Master Bedroom</text></g><g id="room_common_room"><polygon fill="rgb(255,215,0)" fill-opacity="0.7" points="427.421875,91.171875 427.421875,179.765625 467.5,179.765625 469.609375,198.75 513.90625,198.75 513.90625,91.171875" stroke="black" stroke-width="1.5" /><text dominant-baseline="middle" fill="black" font-family="Arial" font-size="12px" font-weight="bold" text-anchor="middle" x="471.71875" y="146.015625">Common Room</text></g><g id="room_kitchen"><polygon fill="rgb(240,128,128)" fill-opacity="0.7" points="372.578125,91.171875 372.578125,219.84375 414.765625,219.84375 414.765625,91.171875" stroke="black" stroke-width="1.5" /><text dominant-baseline="middle" fill="black" font-family="Arial" font-size="12px" font-weight="bold" text-anchor="middle" x="394.7265625" y="156.5625">Kitchen</text></g><g id="room_bathroom"><polygon fill="rgb(173,216,230)" fill-opacity="0.7" points="469.609375,211.40625 469.609375,304.21875 513.90625,304.21875 513.90625,211.40625" stroke="black" stroke-width="1.5" /><text dominant-baseline="middle" fill="black" font-family="Arial" font-size="12px" font-weight="bold" text-anchor="middle" x="492.8125" y="258.8671875">Bathroom</text></g><rect fill="red" fill-opacity="0.9" height="27.421875" id="main_door" stroke="darkred" stroke-width="3" width="10.546875" x="410.546875" y="270.46875" /><text dominant-baseline="middle" fill="white" font-family="Arial" font-size="9px" font-weight="bold" text-anchor="middle" x="415.8203125" y="284.1796875">Main Door</text><text fill="black" font-family="Arial" font-size="18px" font-weight="bold" text-anchor="middle" x="400.0" y="30">Floor Plan - ID: 1770</text></svg>