<?xml version="1.0" encoding="utf-8" ?>
<svg baseProfile="full" height="600px" version="1.1" viewBox="0 0 800 600" width="800px" xmlns="http://www.w3.org/2000/svg" xmlns:ev="http://www.w3.org/2001/xml-events" xmlns:xlink="http://www.w3.org/1999/xlink"><defs /><rect fill="white" height="600" width="800" x="0" y="0" /><polygon fill="none" id="floor_plan_boundary" points="425.3125,103.828125 423.203125,139.6875 338.828125,139.6875 336.71875,188.203125 281.875,188.203125 281.875,477.1875 412.65625,477.1875 414.765625,496.171875 518.125,496.171875 518.125,316.875 509.6875,316.875 507.578125,487.734375 425.3125,487.734375 423.203125,468.75 290.3125,466.640625 290.3125,198.75 347.265625,196.640625 349.375,148.125 433.75,148.125 435.859375,112.265625 507.578125,112.265625 509.6875,283.125 518.125,283.125 518.125,103.828125" stroke="black" stroke-linecap="butt" stroke-linejoin="miter" stroke-width="4" /><g id="room_living_room"><polygon fill="rgb(238,232,170)" fill-opacity="0.7" points="435.859375,200.859375 435.859375,283.125 349.375,285.234375 349.375,316.875 397.890625,318.984375 397.890625,466.640625 423.203125,466.640625 425.3125,485.625 507.578125,485.625 507.578125,200.859375" stroke="black" stroke-width="1.5" /><text dominant-baseline="middle" fill="black" font-family="Arial" font-size="12px" font-weight="bold" text-anchor="middle" x="429.53125" y="344.296875">Living Room</text></g><g id="room_master_bedroom"><polygon fill="rgb(255,165,0)" fill-opacity="0.7" points="292.421875,329.53125 292.421875,466.640625 385.234375,466.640625 385.234375,329.53125" stroke="black" stroke-width="1.5" /><text dominant-baseline="middle" fill="black" font-family="Arial" font-size="12px" font-weight="bold" text-anchor="middle" x="339.8828125" y="399.140625">Master Bedroom</text></g><g id="room_common_room"><polygon fill="rgb(255,215,0)" fill-opacity="0.7" points="349.375,150.234375 349.375,272.578125 423.203125,272.578125 423.203125,150.234375" stroke="black" stroke-width="1.5" /><text dominant-baseline="middle" fill="black" font-family="Arial" font-size="12px" font-weight="bold" text-anchor="middle" x="387.34375" y="212.4609375">Common Room</text></g><g id="room_kitchen"><polygon fill="rgb(240,128,128)" fill-opacity="0.7" points="435.859375,114.375 435.859375,192.421875 507.578125,192.421875 507.578125,114.375" stroke="black" stroke-width="1.5" /><text dominant-baseline="middle" fill="black" font-family="Arial" font-size="12px" font-weight="bold" text-anchor="middle" x="472.7734375" y="154.453125">Kitchen</text></g><g id="room_bathroom"><polygon fill="rgb(173,216,230)" fill-opacity="0.7" points="292.421875,198.75 292.421875,316.875 336.71875,316.875 336.71875,198.75" stroke="black" stroke-width="1.5" /><text dominant-baseline="middle" fill="black" font-family="Arial" font-size="12px" font-weight="bold" text-anchor="middle" x="315.625" y="258.8671875">Bathroom</text></g><rect fill="red" fill-opacity="0.9" height="31.640625" id="main_door" stroke="darkred" stroke-width="3" width="10.546875" x="509.6875" y="285.234375" /><text dominant-baseline="middle" fill="white" font-family="Arial" font-size="9px" font-weight="bold" text-anchor="middle" x="514.9609375" y="301.0546875">Main Door</text><text fill="black" font-family="Arial" font-size="18px" font-weight="bold" text-anchor="middle" x="400.0" y="30">Floor Plan - ID: 17766</text></svg>