<?xml version="1.0" encoding="utf-8" ?>
<svg baseProfile="full" height="600px" version="1.1" viewBox="0 0 800 600" width="800px" xmlns="http://www.w3.org/2000/svg" xmlns:ev="http://www.w3.org/2001/xml-events" xmlns:xlink="http://www.w3.org/1999/xlink"><defs /><rect fill="white" height="600" width="800" x="0" y="0" /><polygon fill="none" id="floor_plan_boundary" points="478.046875,112.265625 391.5625,112.265625 391.5625,120.703125 469.609375,122.8125 469.609375,232.5 518.125,234.609375 518.125,365.390625 469.609375,367.5 467.5,422.34375 368.359375,422.34375 366.25,479.296875 281.875,477.1875 281.875,160.78125 357.8125,158.671875 362.03125,112.265625 349.375,112.265625 347.265625,150.234375 273.4375,150.234375 273.4375,487.734375 376.796875,487.734375 378.90625,430.78125 478.046875,430.78125 478.046875,378.046875 526.5625,375.9375 526.5625,224.0625 478.046875,221.953125" stroke="black" stroke-linecap="butt" stroke-linejoin="miter" stroke-width="4" /><g id="room_living_room"><polygon fill="rgb(238,232,170)" fill-opacity="0.7" points="359.921875,122.8125 359.921875,158.671875 343.046875,160.78125 343.046875,268.359375 378.90625,270.46875 378.90625,420.234375 467.5,420.234375 467.5,122.8125" stroke="black" stroke-width="1.5" /><text dominant-baseline="middle" fill="black" font-family="Arial" font-size="12px" font-weight="bold" text-anchor="middle" x="406.328125" y="272.578125">Living Room</text></g><g id="room_master_bedroom"><polygon fill="rgb(255,165,0)" fill-opacity="0.7" points="283.984375,281.015625 283.984375,420.234375 366.25,420.234375 366.25,281.015625" stroke="black" stroke-width="1.5" /><text dominant-baseline="middle" fill="black" font-family="Arial" font-size="12px" font-weight="bold" text-anchor="middle" x="326.171875" y="351.6796875">Master Bedroom</text></g><g id="room_bathroom"><polygon fill="rgb(173,216,230)" fill-opacity="0.7" points="283.984375,160.78125 283.984375,268.359375 330.390625,268.359375 330.390625,160.78125" stroke="black" stroke-width="1.5" /><text dominant-baseline="middle" fill="black" font-family="Arial" font-size="12px" font-weight="bold" text-anchor="middle" x="308.2421875" y="215.625">Bathroom</text></g><g id="room_kitchen"><polygon fill="rgb(240,128,128)" fill-opacity="0.7" points="480.15625,234.609375 480.15625,365.390625 516.015625,365.390625 516.015625,234.609375" stroke="black" stroke-width="1.5" /><text dominant-baseline="middle" fill="black" font-family="Arial" font-size="12px" font-weight="bold" text-anchor="middle" x="499.140625" y="301.0546875">Kitchen</text></g><g id="room_balcony"><polygon fill="rgb(107,142,35)" fill-opacity="0.7" points="283.984375,432.890625 283.984375,477.1875 366.25,477.1875 366.25,432.890625" stroke="black" stroke-width="1.5" /><text dominant-baseline="middle" fill="black" font-family="Arial" font-size="12px" font-weight="bold" text-anchor="middle" x="326.171875" y="456.09375">Balcony</text></g><rect fill="red" fill-opacity="0.9" height="10.546875" id="main_door" stroke="darkred" stroke-width="3" width="27.421875" x="364.140625" y="112.265625" /><text dominant-baseline="middle" fill="white" font-family="Arial" font-size="9px" font-weight="bold" text-anchor="middle" x="377.8515625" y="117.5390625">Main Door</text><text fill="black" font-family="Arial" font-size="18px" font-weight="bold" text-anchor="middle" x="400.0" y="30">Floor Plan - ID: 17973</text></svg>