<?xml version="1.0" encoding="utf-8" ?>
<svg baseProfile="full" height="600px" version="1.1" viewBox="0 0 800 600" width="800px" xmlns="http://www.w3.org/2000/svg" xmlns:ev="http://www.w3.org/2001/xml-events" xmlns:xlink="http://www.w3.org/1999/xlink"><defs /><rect fill="white" height="600" width="800" x="0" y="0" /><polygon fill="none" id="floor_plan_boundary" points="262.890625,156.5625 260.78125,177.65625 239.6875,177.65625 239.6875,371.71875 220.703125,373.828125 220.703125,437.109375 288.203125,437.109375 290.3125,420.234375 345.15625,420.234375 347.265625,460.3125 452.734375,460.3125 452.734375,451.875 357.8125,451.875 355.703125,411.796875 279.765625,411.796875 277.65625,428.671875 229.140625,426.5625 229.140625,384.375 248.125,382.265625 248.125,188.203125 271.328125,186.09375 273.4375,165.0 311.40625,165.0 313.515625,186.09375 355.703125,186.09375 357.8125,148.125 490.703125,148.125 492.8125,186.09375 570.859375,188.203125 570.859375,310.546875 492.8125,312.65625 490.703125,460.3125 501.25,460.3125 501.25,323.203125 579.296875,321.09375 579.296875,177.65625 503.359375,177.65625 501.25,139.6875 347.265625,139.6875 345.15625,177.65625 324.0625,177.65625 321.953125,156.5625" stroke="black" stroke-linecap="butt" stroke-linejoin="miter" stroke-width="4" /><g id="room_living_room"><polygon fill="rgb(238,232,170)" fill-opacity="0.7" points="357.8125,188.203125 357.8125,449.765625 490.703125,449.765625 492.8125,188.203125" stroke="black" stroke-width="1.5" /><text dominant-baseline="middle" fill="black" font-family="Arial" font-size="12px" font-weight="bold" text-anchor="middle" x="426.3671875" y="320.0390625">Living Room</text></g><g id="room_master_bedroom"><polygon fill="rgb(255,165,0)" fill-opacity="0.7" points="250.234375,295.78125 250.234375,382.265625 231.25,384.375 231.25,426.5625 277.65625,426.5625 279.765625,409.6875 345.15625,409.6875 345.15625,295.78125" stroke="black" stroke-width="1.5" /><text dominant-baseline="middle" fill="black" font-family="Arial" font-size="12px" font-weight="bold" text-anchor="middle" x="289.2578125" y="362.2265625">Master Bedroom</text></g><g id="room_common_room"><polygon fill="rgb(255,215,0)" fill-opacity="0.7" points="273.4375,167.109375 271.328125,188.203125 250.234375,188.203125 250.234375,283.125 345.15625,283.125 345.15625,188.203125 313.515625,188.203125 311.40625,167.109375" stroke="black" stroke-width="1.5" /><text dominant-baseline="middle" fill="black" font-family="Arial" font-size="12px" font-weight="bold" text-anchor="middle" x="298.75" y="226.171875">Common Room</text></g><g id="room_kitchen"><polygon fill="rgb(240,128,128)" fill-opacity="0.7" points="501.25,188.203125 503.359375,249.375 568.75,249.375 568.75,188.203125" stroke="black" stroke-width="1.5" /><text dominant-baseline="middle" fill="black" font-family="Arial" font-size="12px" font-weight="bold" text-anchor="middle" x="536.0546875" y="219.84375">Kitchen</text></g><g id="room_balcony"><polygon fill="rgb(107,142,35)" fill-opacity="0.7" points="357.8125,150.234375 357.8125,175.546875 490.703125,175.546875 490.703125,150.234375" stroke="black" stroke-width="1.5" /><text dominant-baseline="middle" fill="black" font-family="Arial" font-size="12px" font-weight="bold" text-anchor="middle" x="425.3125" y="163.9453125">Balcony</text></g><g id="room_bathroom"><polygon fill="rgb(173,216,230)" fill-opacity="0.7" points="503.359375,262.03125 503.359375,310.546875 568.75,310.546875 568.75,262.03125" stroke="black" stroke-width="1.5" /><text dominant-baseline="middle" fill="black" font-family="Arial" font-size="12px" font-weight="bold" text-anchor="middle" x="537.109375" y="287.34375">Bathroom</text></g><rect fill="red" fill-opacity="0.9" height="10.546875" id="main_door" stroke="darkred" stroke-width="3" width="35.859375" x="454.84375" y="451.875" /><text dominant-baseline="middle" fill="white" font-family="Arial" font-size="9px" font-weight="bold" text-anchor="middle" x="472.7734375" y="457.1484375">Main Door</text><text fill="black" font-family="Arial" font-size="18px" font-weight="bold" text-anchor="middle" x="400.0" y="30">Floor Plan - ID: 18090</text></svg>