<?xml version="1.0" encoding="utf-8" ?>
<svg baseProfile="full" height="600px" version="1.1" viewBox="0 0 800 600" width="800px" xmlns="http://www.w3.org/2000/svg" xmlns:ev="http://www.w3.org/2001/xml-events" xmlns:xlink="http://www.w3.org/1999/xlink"><defs /><rect fill="white" height="600" width="800" x="0" y="0" /><polygon fill="none" id="floor_plan_boundary" points="286.09375,114.375 286.09375,445.546875 385.234375,445.546875 387.34375,485.625 513.90625,485.625 513.90625,318.984375 459.0625,318.984375 459.0625,327.421875 505.46875,329.53125 503.359375,477.1875 397.890625,477.1875 395.78125,437.109375 294.53125,435.0 294.53125,124.921875 456.953125,122.8125 459.0625,289.453125 467.5,289.453125 467.5,114.375" stroke="black" stroke-linecap="butt" stroke-linejoin="miter" stroke-width="4" /><g id="room_living_room"><polygon fill="rgb(238,232,170)" fill-opacity="0.7" points="296.640625,124.921875 296.640625,316.875 456.953125,316.875 456.953125,179.765625 391.5625,179.765625 389.453125,124.921875" stroke="black" stroke-width="1.5" /><text dominant-baseline="middle" fill="black" font-family="Arial" font-size="12px" font-weight="bold" text-anchor="middle" x="377.8515625" y="221.953125">Living Room</text></g><g id="room_master_bedroom"><polygon fill="rgb(255,165,0)" fill-opacity="0.7" points="397.890625,329.53125 397.890625,435.0 503.359375,435.0 503.359375,329.53125" stroke="black" stroke-width="1.5" /><text dominant-baseline="middle" fill="black" font-family="Arial" font-size="12px" font-weight="bold" text-anchor="middle" x="451.6796875" y="383.3203125">Master Bedroom</text></g><g id="room_common_room"><polygon fill="rgb(255,215,0)" fill-opacity="0.7" points="296.640625,329.53125 296.640625,435.0 385.234375,435.0 385.234375,329.53125" stroke="black" stroke-width="1.5" /><text dominant-baseline="middle" fill="black" font-family="Arial" font-size="12px" font-weight="bold" text-anchor="middle" x="341.9921875" y="383.3203125">Common Room</text></g><g id="room_balcony"><polygon fill="rgb(107,142,35)" fill-opacity="0.7" points="397.890625,447.65625 397.890625,475.078125 503.359375,475.078125 503.359375,447.65625" stroke="black" stroke-width="1.5" /><text dominant-baseline="middle" fill="black" font-family="Arial" font-size="12px" font-weight="bold" text-anchor="middle" x="451.6796875" y="462.421875">Balcony</text></g><g id="room_bathroom"><polygon fill="rgb(173,216,230)" fill-opacity="0.7" points="402.109375,124.921875 402.109375,167.109375 456.953125,167.109375 456.953125,124.921875" stroke="black" stroke-width="1.5" /><text dominant-baseline="middle" fill="black" font-family="Arial" font-size="12px" font-weight="bold" text-anchor="middle" x="430.5859375" y="147.0703125">Bathroom</text></g><rect fill="red" fill-opacity="0.9" height="27.421875" id="main_door" stroke="darkred" stroke-width="3" width="10.546875" x="459.0625" y="291.5625" /><text dominant-baseline="middle" fill="white" font-family="Arial" font-size="9px" font-weight="bold" text-anchor="middle" x="464.3359375" y="305.2734375">Main Door</text><text fill="black" font-family="Arial" font-size="18px" font-weight="bold" text-anchor="middle" x="400.0" y="30">Floor Plan - ID: 1838</text></svg>