<?xml version="1.0" encoding="utf-8" ?>
<svg baseProfile="full" height="600px" version="1.1" viewBox="0 0 800 600" width="800px" xmlns="http://www.w3.org/2000/svg" xmlns:ev="http://www.w3.org/2001/xml-events" xmlns:xlink="http://www.w3.org/1999/xlink"><defs /><rect fill="white" height="600" width="800" x="0" y="0" /><polygon fill="none" id="floor_plan_boundary" points="385.234375,105.9375 383.125,158.671875 393.671875,158.671875 395.78125,114.375 524.453125,116.484375 524.453125,192.421875 484.375,194.53125 484.375,483.515625 395.78125,485.625 393.671875,458.203125 302.96875,456.09375 302.96875,348.515625 275.546875,346.40625 275.546875,194.53125 343.046875,192.421875 345.15625,150.234375 334.609375,150.234375 332.5,183.984375 267.109375,183.984375 267.109375,356.953125 294.53125,359.0625 294.53125,466.640625 383.125,466.640625 385.234375,494.0625 492.8125,494.0625 492.8125,205.078125 532.890625,202.96875 532.890625,105.9375" stroke="black" stroke-linecap="butt" stroke-linejoin="miter" stroke-width="4" /><g id="room_living_room"><polygon fill="rgb(238,232,170)" fill-opacity="0.7" points="345.15625,160.78125 345.15625,192.421875 355.703125,194.53125 355.703125,346.40625 383.125,346.40625 385.234375,310.546875 482.265625,310.546875 482.265625,205.078125 385.234375,205.078125 383.125,160.78125" stroke="black" stroke-width="1.5" /><text dominant-baseline="middle" fill="black" font-family="Arial" font-size="12px" font-weight="bold" text-anchor="middle" x="414.765625" y="254.6484375">Living Room</text></g><g id="room_common_room_2"><polygon fill="rgb(255,215,0)" fill-opacity="0.7" points="395.78125,116.484375 395.78125,192.421875 522.34375,192.421875 522.34375,116.484375" stroke="black" stroke-width="1.5" /><text dominant-baseline="middle" fill="black" font-family="Arial" font-size="12px" font-weight="bold" text-anchor="middle" x="460.1171875" y="155.5078125">Common Room 2</text></g><g id="room_master_bedroom"><polygon fill="rgb(255,165,0)" fill-opacity="0.7" points="395.78125,323.203125 395.78125,430.78125 482.265625,430.78125 482.265625,323.203125" stroke="black" stroke-width="1.5" /><text dominant-baseline="middle" fill="black" font-family="Arial" font-size="12px" font-weight="bold" text-anchor="middle" x="440.078125" y="378.046875">Master Bedroom</text></g><g id="room_common_room"><polygon fill="rgb(255,215,0)" fill-opacity="0.7" points="305.078125,359.0625 305.078125,456.09375 383.125,456.09375 383.125,359.0625" stroke="black" stroke-width="1.5" /><text dominant-baseline="middle" fill="black" font-family="Arial" font-size="12px" font-weight="bold" text-anchor="middle" x="345.15625" y="408.6328125">Common Room</text></g><g id="room_kitchen"><polygon fill="rgb(240,128,128)" fill-opacity="0.7" points="277.65625,264.140625 277.65625,346.40625 343.046875,346.40625 343.046875,264.140625" stroke="black" stroke-width="1.5" /><text dominant-baseline="middle" fill="black" font-family="Arial" font-size="12px" font-weight="bold" text-anchor="middle" x="311.40625" y="306.328125">Kitchen</text></g><g id="room_bathroom"><polygon fill="rgb(173,216,230)" fill-opacity="0.7" points="277.65625,194.53125 277.65625,251.484375 343.046875,251.484375 343.046875,205.078125 334.609375,205.078125 332.5,194.53125" stroke="black" stroke-width="1.5" /><text dominant-baseline="middle" fill="black" font-family="Arial" font-size="12px" font-weight="bold" text-anchor="middle" x="311.40625" y="224.0625">Bathroom</text></g><g id="room_balcony"><polygon fill="rgb(107,142,35)" fill-opacity="0.7" points="395.78125,443.4375 395.78125,483.515625 482.265625,483.515625 482.265625,443.4375" stroke="black" stroke-width="1.5" /><text dominant-baseline="middle" fill="black" font-family="Arial" font-size="12px" font-weight="bold" text-anchor="middle" x="440.078125" y="464.53125">Balcony</text></g><rect fill="red" fill-opacity="0.9" height="10.546875" id="main_door" stroke="darkred" stroke-width="3" width="35.859375" x="347.265625" y="150.234375" /><text dominant-baseline="middle" fill="white" font-family="Arial" font-size="9px" font-weight="bold" text-anchor="middle" x="365.1953125" y="155.5078125">Main Door</text><text fill="black" font-family="Arial" font-size="18px" font-weight="bold" text-anchor="middle" x="400.0" y="30">Floor Plan - ID: 18431</text></svg>