<?xml version="1.0" encoding="utf-8" ?>
<svg baseProfile="full" height="600px" version="1.1" viewBox="0 0 800 600" width="800px" xmlns="http://www.w3.org/2000/svg" xmlns:ev="http://www.w3.org/2001/xml-events" xmlns:xlink="http://www.w3.org/1999/xlink"><defs /><rect fill="white" height="600" width="800" x="0" y="0" /><polygon fill="none" id="floor_plan_boundary" points="262.890625,152.34375 262.890625,276.796875 269.21875,156.5625 351.484375,156.5625 353.59375,141.796875 416.875,141.796875 418.984375,156.5625 532.890625,158.671875 532.890625,424.453125 418.984375,426.5625 416.875,458.203125 269.21875,458.203125 262.890625,302.109375 262.890625,462.421875 423.203125,462.421875 425.3125,430.78125 537.109375,430.78125 537.109375,152.34375 425.3125,152.34375 423.203125,137.578125 347.265625,137.578125 345.15625,152.34375" stroke="black" stroke-linecap="butt" stroke-linejoin="miter" stroke-width="4" /><g id="room_living_room"><polygon fill="rgb(238,232,170)" fill-opacity="0.7" points="416.875,158.671875 353.59375,158.671875 351.484375,262.03125 269.21875,262.03125 269.21875,424.453125 416.875,424.453125 416.875,325.3125 473.828125,323.203125 473.828125,262.03125 416.875,259.921875" stroke="black" stroke-width="1.5" /><text dominant-baseline="middle" fill="black" font-family="Arial" font-size="12px" font-weight="bold" text-anchor="middle" x="372.578125" y="292.6171875">Living Room</text></g><g id="room_master_bedroom"><polygon fill="rgb(255,165,0)" fill-opacity="0.7" points="425.3125,158.671875 425.3125,253.59375 530.78125,253.59375 530.78125,158.671875" stroke="black" stroke-width="1.5" /><text dominant-baseline="middle" fill="black" font-family="Arial" font-size="12px" font-weight="bold" text-anchor="middle" x="479.1015625" y="207.1875">Master Bedroom</text></g><g id="room_common_room"><polygon fill="rgb(255,215,0)" fill-opacity="0.7" points="425.3125,331.640625 425.3125,424.453125 530.78125,424.453125 530.78125,331.640625" stroke="black" stroke-width="1.5" /><text dominant-baseline="middle" fill="black" font-family="Arial" font-size="12px" font-weight="bold" text-anchor="middle" x="479.1015625" y="379.1015625">Common Room</text></g><g id="room_kitchen"><polygon fill="rgb(240,128,128)" fill-opacity="0.7" points="269.21875,158.671875 269.21875,253.59375 345.15625,253.59375 345.15625,158.671875" stroke="black" stroke-width="1.5" /><text dominant-baseline="middle" fill="black" font-family="Arial" font-size="12px" font-weight="bold" text-anchor="middle" x="308.2421875" y="207.1875">Kitchen</text></g><g id="room_balcony"><polygon fill="rgb(107,142,35)" fill-opacity="0.7" points="269.21875,432.890625 269.21875,456.09375 416.875,456.09375 416.875,432.890625" stroke="black" stroke-width="1.5" /><text dominant-baseline="middle" fill="black" font-family="Arial" font-size="12px" font-weight="bold" text-anchor="middle" x="344.1015625" y="445.546875">Balcony</text></g><g id="room_bathroom"><polygon fill="rgb(173,216,230)" fill-opacity="0.7" points="482.265625,262.03125 482.265625,323.203125 530.78125,323.203125 530.78125,262.03125" stroke="black" stroke-width="1.5" /><text dominant-baseline="middle" fill="black" font-family="Arial" font-size="12px" font-weight="bold" text-anchor="middle" x="507.578125" y="293.671875">Bathroom</text></g><text fill="black" font-family="Arial" font-size="18px" font-weight="bold" text-anchor="middle" x="400.0" y="30">Floor Plan - ID: 18567</text></svg>