<?xml version="1.0" encoding="utf-8" ?>
<svg baseProfile="full" height="600px" version="1.1" viewBox="0 0 800 600" width="800px" xmlns="http://www.w3.org/2000/svg" xmlns:ev="http://www.w3.org/2001/xml-events" xmlns:xlink="http://www.w3.org/1999/xlink"><defs /><rect fill="white" height="600" width="800" x="0" y="0" /><polygon fill="none" id="floor_plan_boundary" points="283.984375,148.125 283.984375,289.453125 239.6875,291.5625 239.6875,453.984375 362.03125,453.984375 362.03125,445.546875 248.125,443.4375 248.125,302.109375 292.421875,300.0 294.53125,156.5625 518.125,158.671875 518.125,205.078125 505.46875,207.1875 505.46875,318.984375 551.875,321.09375 551.875,443.4375 391.5625,445.546875 391.5625,453.984375 560.3125,453.984375 560.3125,310.546875 513.90625,308.4375 513.90625,217.734375 526.5625,215.625 526.5625,148.125" stroke="black" stroke-linecap="butt" stroke-linejoin="miter" stroke-width="4" /><g id="room_living_room"><polygon fill="rgb(238,232,170)" fill-opacity="0.7" points="397.890625,217.734375 397.890625,340.078125 359.921875,344.296875 359.921875,443.4375 465.390625,443.4375 465.390625,333.75 503.359375,331.640625 503.359375,217.734375" stroke="black" stroke-width="1.5" /><text dominant-baseline="middle" fill="black" font-family="Arial" font-size="12px" font-weight="bold" text-anchor="middle" x="432.6953125" y="331.640625">Living Room</text></g><g id="room_master_bedroom"><polygon fill="rgb(255,165,0)" fill-opacity="0.7" points="294.53125,217.734375 294.53125,331.640625 385.234375,331.640625 385.234375,217.734375" stroke="black" stroke-width="1.5" /><text dominant-baseline="middle" fill="black" font-family="Arial" font-size="12px" font-weight="bold" text-anchor="middle" x="340.9375" y="275.7421875">Master Bedroom</text></g><g id="room_common_room"><polygon fill="rgb(255,215,0)" fill-opacity="0.7" points="549.765625,321.09375 516.015625,321.09375 513.90625,344.296875 478.046875,344.296875 478.046875,443.4375 549.765625,443.4375" stroke="black" stroke-width="1.5" /><text dominant-baseline="middle" fill="black" font-family="Arial" font-size="12px" font-weight="bold" text-anchor="middle" x="514.9609375" y="383.3203125">Common Room</text></g><g id="room_kitchen"><polygon fill="rgb(240,128,128)" fill-opacity="0.7" points="250.234375,302.109375 250.234375,443.4375 347.265625,443.4375 347.265625,397.03125 286.09375,397.03125 281.875,302.109375" stroke="black" stroke-width="1.5" /><text dominant-baseline="middle" fill="black" font-family="Arial" font-size="12px" font-weight="bold" text-anchor="middle" x="299.8046875" y="373.828125">Kitchen</text></g><g id="room_balcony"><polygon fill="rgb(107,142,35)" fill-opacity="0.7" points="397.890625,158.671875 397.890625,205.078125 516.015625,205.078125 516.015625,158.671875" stroke="black" stroke-width="1.5" /><text dominant-baseline="middle" fill="black" font-family="Arial" font-size="12px" font-weight="bold" text-anchor="middle" x="458.0078125" y="182.9296875">Balcony</text></g><g id="room_common_room_2"><polygon fill="rgb(255,215,0)" fill-opacity="0.7" points="294.53125,158.671875 294.53125,205.078125 385.234375,205.078125 385.234375,158.671875" stroke="black" stroke-width="1.5" /><text dominant-baseline="middle" fill="black" font-family="Arial" font-size="12px" font-weight="bold" text-anchor="middle" x="340.9375" y="182.9296875">Common Room 2</text></g><g id="room_bathroom"><polygon fill="rgb(173,216,230)" fill-opacity="0.7" points="294.53125,344.296875 294.53125,384.375 347.265625,384.375 347.265625,344.296875" stroke="black" stroke-width="1.5" /><text dominant-baseline="middle" fill="black" font-family="Arial" font-size="12px" font-weight="bold" text-anchor="middle" x="321.953125" y="365.390625">Bathroom</text></g><rect fill="red" fill-opacity="0.9" height="10.546875" id="main_door" stroke="darkred" stroke-width="3" width="27.421875" x="364.140625" y="445.546875" /><text dominant-baseline="middle" fill="white" font-family="Arial" font-size="9px" font-weight="bold" text-anchor="middle" x="377.8515625" y="450.8203125">Main Door</text><text fill="black" font-family="Arial" font-size="18px" font-weight="bold" text-anchor="middle" x="400.0" y="30">Floor Plan - ID: 18677</text></svg>