<?xml version="1.0" encoding="utf-8" ?>
<svg baseProfile="full" height="600px" version="1.1" viewBox="0 0 800 600" width="800px" xmlns="http://www.w3.org/2000/svg" xmlns:ev="http://www.w3.org/2001/xml-events" xmlns:xlink="http://www.w3.org/1999/xlink"><defs /><rect fill="white" height="600" width="800" x="0" y="0" /><polygon fill="none" id="floor_plan_boundary" points="381.015625,82.734375 381.015625,116.484375 357.8125,118.59375 357.8125,264.140625 404.21875,266.25 404.21875,255.703125 366.25,253.59375 366.25,129.140625 389.453125,127.03125 391.5625,91.171875 435.859375,91.171875 437.96875,127.03125 535.0,129.140625 535.0,506.71875 265.0,506.71875 265.0,392.8125 294.53125,390.703125 296.640625,382.265625 362.03125,382.265625 364.140625,365.390625 404.21875,365.390625 404.21875,308.4375 395.78125,308.4375 393.671875,356.953125 353.59375,356.953125 351.484375,373.828125 286.09375,373.828125 283.984375,382.265625 256.5625,382.265625 256.5625,517.265625 543.4375,517.265625 543.4375,118.59375 448.515625,118.59375 446.40625,82.734375" stroke="black" stroke-linecap="butt" stroke-linejoin="miter" stroke-width="4" /><g id="room_living_room"><polygon fill="rgb(238,232,170)" fill-opacity="0.7" points="368.359375,198.75 368.359375,253.59375 406.328125,255.703125 406.328125,365.390625 338.828125,384.375 338.828125,506.71875 435.859375,506.71875 435.859375,304.21875 448.515625,302.109375 450.625,270.46875 475.9375,270.46875 475.9375,243.046875 435.859375,240.9375 435.859375,198.75" stroke="black" stroke-width="1.5" /><text dominant-baseline="middle" fill="black" font-family="Arial" font-size="12px" font-weight="bold" text-anchor="middle" x="408.4375" y="353.7890625">Living Room</text></g><g id="room_master_bedroom"><polygon fill="rgb(255,165,0)" fill-opacity="0.7" points="448.515625,314.765625 448.515625,506.71875 532.890625,506.71875 532.890625,386.484375 478.046875,386.484375 475.9375,314.765625" stroke="black" stroke-width="1.5" /><text dominant-baseline="middle" fill="black" font-family="Arial" font-size="12px" font-weight="bold" text-anchor="middle" x="491.7578125" y="411.796875">Master Bedroom</text></g><g id="room_common_room_2"><polygon fill="rgb(255,215,0)" fill-opacity="0.7" points="448.515625,129.140625 448.515625,230.390625 532.890625,230.390625 532.890625,129.140625" stroke="black" stroke-width="1.5" /><text dominant-baseline="middle" fill="black" font-family="Arial" font-size="12px" font-weight="bold" text-anchor="middle" x="491.7578125" y="180.8203125">Common Room 2</text></g><g id="room_common_room"><polygon fill="rgb(255,215,0)" fill-opacity="0.7" points="267.109375,392.8125 267.109375,506.71875 330.390625,506.71875 330.390625,384.375 296.640625,384.375 294.53125,392.8125" stroke="black" stroke-width="1.5" /><text dominant-baseline="middle" fill="black" font-family="Arial" font-size="12px" font-weight="bold" text-anchor="middle" x="299.8046875" y="446.6015625">Common Room</text></g><g id="room_kitchen"><polygon fill="rgb(240,128,128)" fill-opacity="0.7" points="368.359375,129.140625 368.359375,186.09375 435.859375,186.09375 435.859375,129.140625" stroke="black" stroke-width="1.5" /><text dominant-baseline="middle" fill="black" font-family="Arial" font-size="12px" font-weight="bold" text-anchor="middle" x="403.1640625" y="158.671875">Kitchen</text></g><g id="room_bathroom_2"><polygon fill="rgb(173,216,230)" fill-opacity="0.7" points="456.953125,278.90625 456.953125,302.109375 532.890625,302.109375 532.890625,243.046875 484.375,243.046875 484.375,276.796875" stroke="black" stroke-width="1.5" /><text dominant-baseline="middle" fill="black" font-family="Arial" font-size="12px" font-weight="bold" text-anchor="middle" x="495.9765625" y="273.6328125">Bathroom 2</text></g><g id="room_bathroom"><polygon fill="rgb(173,216,230)" fill-opacity="0.7" points="484.375,314.765625 484.375,378.046875 532.890625,378.046875 532.890625,314.765625" stroke="black" stroke-width="1.5" /><text dominant-baseline="middle" fill="black" font-family="Arial" font-size="12px" font-weight="bold" text-anchor="middle" x="509.6875" y="347.4609375">Bathroom</text></g><g id="room_balcony"><polygon fill="rgb(107,142,35)" fill-opacity="0.7" points="391.5625,93.28125 391.5625,116.484375 435.859375,116.484375 435.859375,93.28125" stroke="black" stroke-width="1.5" /><text dominant-baseline="middle" fill="black" font-family="Arial" font-size="12px" font-weight="bold" text-anchor="middle" x="414.765625" y="105.9375">Balcony</text></g><rect fill="red" fill-opacity="0.9" height="40.078125" id="main_door" stroke="darkred" stroke-width="3" width="10.546875" x="395.78125" y="268.359375" /><text dominant-baseline="middle" fill="white" font-family="Arial" font-size="9px" font-weight="bold" text-anchor="middle" x="401.0546875" y="288.3984375">Main Door</text><text fill="black" font-family="Arial" font-size="18px" font-weight="bold" text-anchor="middle" x="400.0" y="30">Floor Plan - ID: 18703</text></svg>