<?xml version="1.0" encoding="utf-8" ?>
<svg baseProfile="full" height="600px" version="1.1" viewBox="0 0 800 600" width="800px" xmlns="http://www.w3.org/2000/svg" xmlns:ev="http://www.w3.org/2001/xml-events" xmlns:xlink="http://www.w3.org/1999/xlink"><defs /><rect fill="white" height="600" width="800" x="0" y="0" /><polygon fill="none" id="floor_plan_boundary" points="214.375,202.96875 214.375,335.859375 376.796875,335.859375 378.90625,380.15625 385.234375,380.15625 383.125,331.640625 218.59375,329.53125 218.59375,209.296875 364.140625,207.1875 366.25,183.984375 522.34375,183.984375 524.453125,249.375 581.40625,251.484375 581.40625,373.828125 543.4375,375.9375 541.328125,416.015625 448.515625,416.015625 446.40625,375.9375 414.765625,380.15625 442.1875,382.265625 442.1875,420.234375 547.65625,420.234375 547.65625,382.265625 585.625,380.15625 585.625,245.15625 528.671875,243.046875 528.671875,179.765625 359.921875,179.765625 357.8125,202.96875" stroke="black" stroke-linecap="butt" stroke-linejoin="miter" stroke-width="4" /><g id="room_living_room"><polygon fill="rgb(238,232,170)" fill-opacity="0.7" points="366.25,186.09375 366.25,300.0 309.296875,302.109375 309.296875,329.53125 383.125,329.53125 385.234375,373.828125 478.046875,373.828125 478.046875,186.09375" stroke="black" stroke-width="1.5" /><text dominant-baseline="middle" fill="black" font-family="Arial" font-size="12px" font-weight="bold" text-anchor="middle" x="394.7265625" y="281.015625">Living Room</text></g><g id="room_master_bedroom"><polygon fill="rgb(255,165,0)" fill-opacity="0.7" points="486.484375,251.484375 486.484375,373.828125 579.296875,373.828125 579.296875,251.484375" stroke="black" stroke-width="1.5" /><text dominant-baseline="middle" fill="black" font-family="Arial" font-size="12px" font-weight="bold" text-anchor="middle" x="533.9453125" y="313.7109375">Master Bedroom</text></g><g id="room_common_room"><polygon fill="rgb(255,215,0)" fill-opacity="0.7" points="220.703125,209.296875 220.703125,329.53125 300.859375,329.53125 300.859375,209.296875" stroke="black" stroke-width="1.5" /><text dominant-baseline="middle" fill="black" font-family="Arial" font-size="12px" font-weight="bold" text-anchor="middle" x="261.8359375" y="270.46875">Common Room</text></g><g id="room_bathroom"><polygon fill="rgb(173,216,230)" fill-opacity="0.7" points="309.296875,209.296875 309.296875,293.671875 357.8125,293.671875 357.8125,209.296875" stroke="black" stroke-width="1.5" /><text dominant-baseline="middle" fill="black" font-family="Arial" font-size="12px" font-weight="bold" text-anchor="middle" x="334.609375" y="252.5390625">Bathroom</text></g><g id="room_kitchen"><polygon fill="rgb(240,128,128)" fill-opacity="0.7" points="448.515625,382.265625 448.515625,413.90625 541.328125,413.90625 541.328125,382.265625" stroke="black" stroke-width="1.5" /><text dominant-baseline="middle" fill="black" font-family="Arial" font-size="12px" font-weight="bold" text-anchor="middle" x="495.9765625" y="399.140625">Kitchen</text></g><g id="room_balcony"><polygon fill="rgb(107,142,35)" fill-opacity="0.7" points="486.484375,186.09375 486.484375,243.046875 522.34375,243.046875 522.34375,186.09375" stroke="black" stroke-width="1.5" /><text dominant-baseline="middle" fill="black" font-family="Arial" font-size="12px" font-weight="bold" text-anchor="middle" x="505.46875" y="215.625">Balcony</text></g><rect fill="red" fill-opacity="0.9" height="6.328125" id="main_door" stroke="darkred" stroke-width="3" width="27.421875" x="387.34375" y="375.9375" /><text dominant-baseline="middle" fill="white" font-family="Arial" font-size="9px" font-weight="bold" text-anchor="middle" x="401.0546875" y="379.1015625">Main Door</text><text fill="black" font-family="Arial" font-size="18px" font-weight="bold" text-anchor="middle" x="400.0" y="30">Floor Plan - ID: 18843</text></svg>