<?xml version="1.0" encoding="utf-8" ?>
<svg baseProfile="full" height="600px" version="1.1" viewBox="0 0 800 600" width="800px" xmlns="http://www.w3.org/2000/svg" xmlns:ev="http://www.w3.org/2001/xml-events" xmlns:xlink="http://www.w3.org/1999/xlink"><defs /><rect fill="white" height="600" width="800" x="0" y="0" /><polygon fill="none" id="floor_plan_boundary" points="281.875,78.515625 281.875,120.703125 260.78125,122.8125 260.78125,224.0625 324.0625,226.171875 324.0625,276.796875 298.75,278.90625 298.75,287.34375 332.5,287.34375 332.5,215.625 269.21875,213.515625 269.21875,133.359375 290.3125,131.25 292.421875,86.953125 324.0625,89.0625 324.0625,179.765625 568.75,181.875 568.75,502.5 471.71875,504.609375 469.609375,472.96875 343.046875,472.96875 340.9375,513.046875 233.359375,513.046875 231.25,344.296875 265.0,342.1875 265.0,289.453125 256.5625,278.90625 256.5625,331.640625 222.8125,333.75 222.8125,521.484375 351.484375,521.484375 353.59375,481.40625 459.0625,481.40625 461.171875,513.046875 577.1875,513.046875 577.1875,171.328125 334.609375,171.328125 332.5,78.515625" stroke="black" stroke-linecap="butt" stroke-linejoin="miter" stroke-width="4" /><g id="room_living_room"><polygon fill="rgb(238,232,170)" fill-opacity="0.7" points="410.546875,181.875 334.609375,181.875 334.609375,287.34375 267.109375,289.453125 267.109375,342.1875 233.359375,344.296875 233.359375,510.9375 340.9375,510.9375 340.9375,472.96875 364.140625,470.859375 366.25,321.09375 505.46875,321.09375 505.46875,297.890625 467.5,295.78125 467.5,255.703125 410.546875,253.59375" stroke="black" stroke-width="1.5" /><text dominant-baseline="middle" fill="black" font-family="Arial" font-size="12px" font-weight="bold" text-anchor="middle" x="370.46875" y="347.4609375">Living Room</text></g><g id="room_master_bedroom"><polygon fill="rgb(255,165,0)" fill-opacity="0.7" points="471.71875,333.75 471.71875,502.5 566.640625,502.5 566.640625,371.71875 507.578125,371.71875 505.46875,333.75" stroke="black" stroke-width="1.5" /><text dominant-baseline="middle" fill="black" font-family="Arial" font-size="12px" font-weight="bold" text-anchor="middle" x="520.234375" y="419.1796875">Master Bedroom</text></g><g id="room_common_room"><polygon fill="rgb(255,215,0)" fill-opacity="0.7" points="376.796875,333.75 376.796875,470.859375 459.0625,470.859375 459.0625,333.75" stroke="black" stroke-width="1.5" /><text dominant-baseline="middle" fill="black" font-family="Arial" font-size="12px" font-weight="bold" text-anchor="middle" x="418.984375" y="403.359375">Common Room</text></g><g id="room_common_room_2"><polygon fill="rgb(255,215,0)" fill-opacity="0.7" points="480.15625,181.875 480.15625,285.234375 566.640625,285.234375 566.640625,181.875" stroke="black" stroke-width="1.5" /><text dominant-baseline="middle" fill="black" font-family="Arial" font-size="12px" font-weight="bold" text-anchor="middle" x="524.453125" y="234.609375">Common Room 2</text></g><g id="room_kitchen"><polygon fill="rgb(240,128,128)" fill-opacity="0.7" points="271.328125,133.359375 271.328125,213.515625 321.953125,213.515625 321.953125,133.359375" stroke="black" stroke-width="1.5" /><text dominant-baseline="middle" fill="black" font-family="Arial" font-size="12px" font-weight="bold" text-anchor="middle" x="297.6953125" y="174.4921875">Kitchen</text></g><g id="room_bathroom"><polygon fill="rgb(173,216,230)" fill-opacity="0.7" points="518.125,297.890625 518.125,359.0625 566.640625,359.0625 566.640625,297.890625" stroke="black" stroke-width="1.5" /><text dominant-baseline="middle" fill="black" font-family="Arial" font-size="12px" font-weight="bold" text-anchor="middle" x="543.4375" y="329.53125">Bathroom</text></g><g id="room_bathroom_2"><polygon fill="rgb(173,216,230)" fill-opacity="0.7" points="423.203125,181.875 423.203125,243.046875 467.5,243.046875 467.5,181.875" stroke="black" stroke-width="1.5" /><text dominant-baseline="middle" fill="black" font-family="Arial" font-size="12px" font-weight="bold" text-anchor="middle" x="446.40625" y="213.515625">Bathroom 2</text></g><g id="room_balcony"><polygon fill="rgb(107,142,35)" fill-opacity="0.7" points="292.421875,89.0625 292.421875,120.703125 321.953125,120.703125 321.953125,89.0625" stroke="black" stroke-width="1.5" /><text dominant-baseline="middle" fill="black" font-family="Arial" font-size="12px" font-weight="bold" text-anchor="middle" x="308.2421875" y="105.9375">Balcony</text></g><rect fill="red" fill-opacity="0.9" height="10.546875" id="main_door" stroke="darkred" stroke-width="3" width="35.859375" x="262.890625" y="278.90625" /><text dominant-baseline="middle" fill="white" font-family="Arial" font-size="9px" font-weight="bold" text-anchor="middle" x="280.8203125" y="284.1796875">Main Door</text><text fill="black" font-family="Arial" font-size="18px" font-weight="bold" text-anchor="middle" x="400.0" y="30">Floor Plan - ID: 18917</text></svg>