<?xml version="1.0" encoding="utf-8" ?>
<svg baseProfile="full" height="600px" version="1.1" viewBox="0 0 800 600" width="800px" xmlns="http://www.w3.org/2000/svg" xmlns:ev="http://www.w3.org/2001/xml-events" xmlns:xlink="http://www.w3.org/1999/xlink"><defs /><rect fill="white" height="600" width="800" x="0" y="0" /><polygon fill="none" id="floor_plan_boundary" points="283.984375,70.078125 283.984375,291.5625 292.421875,291.5625 294.53125,78.515625 406.328125,78.515625 408.4375,135.46875 507.578125,137.578125 505.46875,521.484375 435.859375,519.375 435.859375,479.296875 416.875,477.1875 416.875,327.421875 294.53125,327.421875 283.984375,335.859375 406.328125,335.859375 408.4375,487.734375 427.421875,489.84375 427.421875,529.921875 516.015625,529.921875 516.015625,127.03125 418.984375,127.03125 416.875,70.078125" stroke="black" stroke-linecap="butt" stroke-linejoin="miter" stroke-width="4" /><g id="room_living_room"><polygon fill="rgb(238,232,170)" fill-opacity="0.7" points="294.53125,80.625 294.53125,325.3125 330.390625,325.3125 332.5,272.578125 414.765625,272.578125 416.875,325.3125 446.40625,325.3125 446.40625,245.15625 406.328125,240.9375 406.328125,80.625" stroke="black" stroke-width="1.5" /><text dominant-baseline="middle" fill="black" font-family="Arial" font-size="12px" font-weight="bold" text-anchor="middle" x="371.5234375" y="204.0234375">Living Room</text></g><g id="room_master_bedroom"><polygon fill="rgb(255,165,0)" fill-opacity="0.7" points="418.984375,337.96875 418.984375,477.1875 437.96875,479.296875 437.96875,519.375 505.46875,519.375 505.46875,337.96875" stroke="black" stroke-width="1.5" /><text dominant-baseline="middle" fill="black" font-family="Arial" font-size="12px" font-weight="bold" text-anchor="middle" x="463.28125" y="429.7265625">Master Bedroom</text></g><g id="room_common_room"><polygon fill="rgb(255,215,0)" fill-opacity="0.7" points="416.875,137.578125 416.875,236.71875 452.734375,236.71875 454.84375,255.703125 505.46875,255.703125 505.46875,137.578125" stroke="black" stroke-width="1.5" /><text dominant-baseline="middle" fill="black" font-family="Arial" font-size="12px" font-weight="bold" text-anchor="middle" x="462.2265625" y="197.6953125">Common Room</text></g><g id="room_bathroom_2"><polygon fill="rgb(173,216,230)" fill-opacity="0.7" points="454.84375,264.140625 454.84375,325.3125 505.46875,325.3125 505.46875,264.140625" stroke="black" stroke-width="1.5" /><text dominant-baseline="middle" fill="black" font-family="Arial" font-size="12px" font-weight="bold" text-anchor="middle" x="481.2109375" y="295.78125">Bathroom 2</text></g><g id="room_bathroom"><polygon fill="rgb(173,216,230)" fill-opacity="0.7" points="338.828125,281.015625 338.828125,325.3125 408.4375,325.3125 408.4375,281.015625" stroke="black" stroke-width="1.5" /><text dominant-baseline="middle" fill="black" font-family="Arial" font-size="12px" font-weight="bold" text-anchor="middle" x="374.6875" y="304.21875">Bathroom</text></g><rect fill="red" fill-opacity="0.9" height="35.859375" id="main_door" stroke="darkred" stroke-width="3" width="10.546875" x="283.984375" y="293.671875" /><text dominant-baseline="middle" fill="white" font-family="Arial" font-size="9px" font-weight="bold" text-anchor="middle" x="289.2578125" y="311.6015625">Main Door</text><text fill="black" font-family="Arial" font-size="18px" font-weight="bold" text-anchor="middle" x="400.0" y="30">Floor Plan - ID: 19052</text></svg>