<?xml version="1.0" encoding="utf-8" ?>
<svg baseProfile="full" height="600px" version="1.1" viewBox="0 0 800 600" width="800px" xmlns="http://www.w3.org/2000/svg" xmlns:ev="http://www.w3.org/2001/xml-events" xmlns:xlink="http://www.w3.org/1999/xlink"><defs /><rect fill="white" height="600" width="800" x="0" y="0" /><polygon fill="none" id="floor_plan_boundary" points="594.0625,165.0 471.71875,165.0 469.609375,249.375 372.578125,249.375 370.46875,217.734375 248.125,217.734375 246.015625,205.078125 174.296875,205.078125 174.296875,329.53125 197.5,331.640625 197.5,435.0 370.46875,435.0 370.46875,388.59375 364.140625,430.78125 203.828125,430.78125 201.71875,325.3125 178.515625,323.203125 180.625,209.296875 239.6875,209.296875 241.796875,221.953125 364.140625,221.953125 366.25,253.59375 475.9375,253.59375 478.046875,169.21875 589.84375,171.328125 589.84375,297.890625 621.484375,300.0 621.484375,386.484375 400.0,392.8125 625.703125,392.8125 625.703125,293.671875 594.0625,291.5625" stroke="black" stroke-linecap="butt" stroke-linejoin="miter" stroke-width="4" /><g id="room_living_room"><polygon fill="rgb(238,232,170)" fill-opacity="0.7" points="231.25,224.0625 231.25,323.203125 370.46875,323.203125 372.578125,386.484375 400.0,386.484375 402.109375,314.765625 545.546875,314.765625 545.546875,255.703125 366.25,255.703125 364.140625,224.0625" stroke="black" stroke-width="1.5" /><text dominant-baseline="middle" fill="black" font-family="Arial" font-size="12px" font-weight="bold" text-anchor="middle" x="389.453125" y="306.328125">Living Room</text></g><g id="room_common_room"><polygon fill="rgb(255,215,0)" fill-opacity="0.7" points="203.828125,331.640625 203.828125,428.671875 364.140625,428.671875 364.140625,331.640625" stroke="black" stroke-width="1.5" /><text dominant-baseline="middle" fill="black" font-family="Arial" font-size="12px" font-weight="bold" text-anchor="middle" x="285.0390625" y="381.2109375">Common Room</text></g><g id="room_common_room_3"><polygon fill="rgb(255,215,0)" fill-opacity="0.7" points="478.046875,171.328125 478.046875,247.265625 587.734375,247.265625 587.734375,171.328125" stroke="black" stroke-width="1.5" /><text dominant-baseline="middle" fill="black" font-family="Arial" font-size="12px" font-weight="bold" text-anchor="middle" x="533.9453125" y="210.3515625">Common Room 3</text></g><g id="room_common_room_2"><polygon fill="rgb(255,215,0)" fill-opacity="0.7" points="553.984375,255.703125 553.984375,386.484375 619.375,386.484375 619.375,300.0 587.734375,297.890625 587.734375,255.703125" stroke="black" stroke-width="1.5" /><text dominant-baseline="middle" fill="black" font-family="Arial" font-size="12px" font-weight="bold" text-anchor="middle" x="587.734375" y="322.1484375">Common Room 2</text></g><g id="room_balcony"><polygon fill="rgb(107,142,35)" fill-opacity="0.7" points="180.625,211.40625 180.625,323.203125 222.8125,323.203125 222.8125,217.734375 239.6875,215.625 239.6875,211.40625" stroke="black" stroke-width="1.5" /><text dominant-baseline="middle" fill="black" font-family="Arial" font-size="12px" font-weight="bold" text-anchor="middle" x="211.2109375" y="268.359375">Balcony</text></g><g id="room_bathroom"><polygon fill="rgb(173,216,230)" fill-opacity="0.7" points="478.046875,323.203125 478.046875,386.484375 545.546875,386.484375 545.546875,323.203125" stroke="black" stroke-width="1.5" /><text dominant-baseline="middle" fill="black" font-family="Arial" font-size="12px" font-weight="bold" text-anchor="middle" x="512.8515625" y="355.8984375">Bathroom</text></g><g id="room_kitchen"><polygon fill="rgb(240,128,128)" fill-opacity="0.7" points="408.4375,323.203125 408.4375,386.484375 469.609375,386.484375 469.609375,323.203125" stroke="black" stroke-width="1.5" /><text dominant-baseline="middle" fill="black" font-family="Arial" font-size="12px" font-weight="bold" text-anchor="middle" x="440.078125" y="355.8984375">Kitchen</text></g><rect fill="red" fill-opacity="0.9" height="6.328125" id="main_door" stroke="darkred" stroke-width="3" width="27.421875" x="372.578125" y="388.59375" /><text dominant-baseline="middle" fill="white" font-family="Arial" font-size="9px" font-weight="bold" text-anchor="middle" x="386.2890625" y="391.7578125">Main Door</text><text fill="black" font-family="Arial" font-size="18px" font-weight="bold" text-anchor="middle" x="400.0" y="30">Floor Plan - ID: 19097</text></svg>