<?xml version="1.0" encoding="utf-8" ?>
<svg baseProfile="full" height="600px" version="1.1" viewBox="0 0 800 600" width="800px" xmlns="http://www.w3.org/2000/svg" xmlns:ev="http://www.w3.org/2001/xml-events" xmlns:xlink="http://www.w3.org/1999/xlink"><defs /><rect fill="white" height="600" width="800" x="0" y="0" /><polygon fill="none" id="floor_plan_boundary" points="231.25,146.015625 231.25,257.8125 252.34375,257.8125 252.34375,249.375 239.6875,247.265625 241.796875,154.453125 528.671875,156.5625 528.671875,257.8125 560.3125,259.921875 560.3125,337.96875 522.34375,340.078125 520.234375,449.765625 300.859375,449.765625 298.75,302.109375 254.453125,302.109375 252.34375,291.5625 243.90625,291.5625 243.90625,310.546875 290.3125,312.65625 290.3125,453.984375 530.78125,453.984375 530.78125,350.625 568.75,348.515625 568.75,249.375 537.109375,247.265625 537.109375,146.015625" stroke="black" stroke-linecap="butt" stroke-linejoin="miter" stroke-width="4" /><g id="room_living_room"><polygon fill="rgb(238,232,170)" fill-opacity="0.7" points="300.859375,154.453125 300.859375,255.703125 254.453125,257.8125 254.453125,300.0 300.859375,302.109375 300.859375,401.25 406.328125,401.25 406.328125,340.078125 463.28125,337.96875 463.28125,259.921875 414.765625,259.921875 412.65625,215.625 364.140625,213.515625 364.140625,154.453125" stroke="black" stroke-width="1.5" /><text dominant-baseline="middle" fill="black" font-family="Arial" font-size="12px" font-weight="bold" text-anchor="middle" x="359.921875" y="278.90625">Living Room</text></g><g id="room_master_bedroom"><polygon fill="rgb(255,165,0)" fill-opacity="0.7" points="418.984375,350.625 418.984375,447.65625 520.234375,447.65625 520.234375,350.625" stroke="black" stroke-width="1.5" /><text dominant-baseline="middle" fill="black" font-family="Arial" font-size="12px" font-weight="bold" text-anchor="middle" x="470.6640625" y="400.1953125">Master Bedroom</text></g><g id="room_common_room_2"><polygon fill="rgb(255,215,0)" fill-opacity="0.7" points="440.078125,156.5625 440.078125,213.515625 421.09375,215.625 421.09375,247.265625 526.5625,247.265625 526.5625,156.5625" stroke="black" stroke-width="1.5" /><text dominant-baseline="middle" fill="black" font-family="Arial" font-size="12px" font-weight="bold" text-anchor="middle" x="474.8828125" y="202.96875">Common Room 2</text></g><g id="room_common_room"><polygon fill="rgb(255,215,0)" fill-opacity="0.7" points="475.9375,259.921875 475.9375,337.96875 558.203125,337.96875 558.203125,259.921875" stroke="black" stroke-width="1.5" /><text dominant-baseline="middle" fill="black" font-family="Arial" font-size="12px" font-weight="bold" text-anchor="middle" x="518.125" y="300.0">Common Room</text></g><g id="room_kitchen"><polygon fill="rgb(240,128,128)" fill-opacity="0.7" points="241.796875,156.5625 241.796875,247.265625 288.203125,249.375 288.203125,156.5625" stroke="black" stroke-width="1.5" /><text dominant-baseline="middle" fill="black" font-family="Arial" font-size="12px" font-weight="bold" text-anchor="middle" x="266.0546875" y="204.0234375">Kitchen</text></g><g id="room_balcony"><polygon fill="rgb(107,142,35)" fill-opacity="0.7" points="300.859375,413.90625 300.859375,447.65625 406.328125,447.65625 406.328125,413.90625" stroke="black" stroke-width="1.5" /><text dominant-baseline="middle" fill="black" font-family="Arial" font-size="12px" font-weight="bold" text-anchor="middle" x="354.6484375" y="431.8359375">Balcony</text></g><g id="room_bathroom"><polygon fill="rgb(173,216,230)" fill-opacity="0.7" points="376.796875,156.5625 376.796875,202.96875 427.421875,202.96875 427.421875,156.5625" stroke="black" stroke-width="1.5" /><text dominant-baseline="middle" fill="black" font-family="Arial" font-size="12px" font-weight="bold" text-anchor="middle" x="403.1640625" y="180.8203125">Bathroom</text></g><rect fill="red" fill-opacity="0.9" height="31.640625" id="main_door" stroke="darkred" stroke-width="3" width="10.546875" x="243.90625" y="259.921875" /><text dominant-baseline="middle" fill="white" font-family="Arial" font-size="9px" font-weight="bold" text-anchor="middle" x="249.1796875" y="275.7421875">Main Door</text><text fill="black" font-family="Arial" font-size="18px" font-weight="bold" text-anchor="middle" x="400.0" y="30">Floor Plan - ID: 192</text></svg>