<?xml version="1.0" encoding="utf-8" ?>
<svg baseProfile="full" height="600px" version="1.1" viewBox="0 0 800 600" width="800px" xmlns="http://www.w3.org/2000/svg" xmlns:ev="http://www.w3.org/2001/xml-events" xmlns:xlink="http://www.w3.org/1999/xlink"><defs /><rect fill="white" height="600" width="800" x="0" y="0" /><polygon fill="none" id="floor_plan_boundary" points="243.90625,173.4375 243.90625,403.359375 330.390625,403.359375 332.5,435.0 421.09375,435.0 423.203125,481.40625 556.09375,481.40625 556.09375,154.453125 535.0,154.453125 535.0,162.890625 547.65625,165.0 545.546875,472.96875 433.75,472.96875 431.640625,426.5625 343.046875,426.5625 340.9375,394.921875 252.34375,392.8125 252.34375,183.984375 378.90625,181.875 381.015625,171.328125 437.96875,171.328125 440.078125,127.03125 497.03125,127.03125 499.140625,162.890625 505.46875,162.890625 507.578125,118.59375 429.53125,118.59375 427.421875,162.890625 370.46875,162.890625 368.359375,173.4375" stroke="black" stroke-linecap="butt" stroke-linejoin="miter" stroke-width="4" /><g id="room_living_room"><polygon fill="rgb(238,232,170)" fill-opacity="0.7" points="545.546875,165.0 509.6875,165.0 507.578125,209.296875 440.078125,209.296875 437.96875,289.453125 343.046875,289.453125 343.046875,316.875 433.75,318.984375 433.75,424.453125 545.546875,424.453125" stroke="black" stroke-width="1.5" /><text dominant-baseline="middle" fill="black" font-family="Arial" font-size="12px" font-weight="bold" text-anchor="middle" x="445.3515625" y="295.78125">Living Room</text></g><g id="room_common_room_2"><polygon fill="rgb(255,215,0)" fill-opacity="0.7" points="254.453125,183.984375 254.453125,276.796875 368.359375,276.796875 368.359375,183.984375" stroke="black" stroke-width="1.5" /><text dominant-baseline="middle" fill="black" font-family="Arial" font-size="12px" font-weight="bold" text-anchor="middle" x="312.4609375" y="231.4453125">Common Room 2</text></g><g id="room_master_bedroom"><polygon fill="rgb(255,165,0)" fill-opacity="0.7" points="254.453125,289.453125 254.453125,392.8125 330.390625,392.8125 330.390625,289.453125" stroke="black" stroke-width="1.5" /><text dominant-baseline="middle" fill="black" font-family="Arial" font-size="12px" font-weight="bold" text-anchor="middle" x="293.4765625" y="342.1875">Master Bedroom</text></g><g id="room_common_room"><polygon fill="rgb(255,215,0)" fill-opacity="0.7" points="343.046875,329.53125 343.046875,424.453125 421.09375,424.453125 421.09375,329.53125" stroke="black" stroke-width="1.5" /><text dominant-baseline="middle" fill="black" font-family="Arial" font-size="12px" font-weight="bold" text-anchor="middle" x="383.125" y="378.046875">Common Room</text></g><g id="room_kitchen"><polygon fill="rgb(240,128,128)" fill-opacity="0.7" points="440.078125,129.140625 440.078125,196.640625 497.03125,196.640625 497.03125,129.140625" stroke="black" stroke-width="1.5" /><text dominant-baseline="middle" fill="black" font-family="Arial" font-size="12px" font-weight="bold" text-anchor="middle" x="469.609375" y="163.9453125">Kitchen</text></g><g id="room_balcony"><polygon fill="rgb(107,142,35)" fill-opacity="0.7" points="433.75,437.109375 433.75,470.859375 545.546875,470.859375 545.546875,437.109375" stroke="black" stroke-width="1.5" /><text dominant-baseline="middle" fill="black" font-family="Arial" font-size="12px" font-weight="bold" text-anchor="middle" x="490.703125" y="455.0390625">Balcony</text></g><g id="room_bathroom"><polygon fill="rgb(173,216,230)" fill-opacity="0.7" points="381.015625,209.296875 381.015625,276.796875 427.421875,276.796875 427.421875,209.296875" stroke="black" stroke-width="1.5" /><text dominant-baseline="middle" fill="black" font-family="Arial" font-size="12px" font-weight="bold" text-anchor="middle" x="405.2734375" y="244.1015625">Bathroom</text></g><g id="room_balcony_2"><polygon fill="rgb(107,142,35)" fill-opacity="0.7" points="381.015625,173.4375 381.015625,196.640625 427.421875,196.640625 427.421875,173.4375" stroke="black" stroke-width="1.5" /><text dominant-baseline="middle" fill="black" font-family="Arial" font-size="12px" font-weight="bold" text-anchor="middle" x="405.2734375" y="186.09375">Balcony 2</text></g><rect fill="red" fill-opacity="0.9" height="10.546875" id="main_door" stroke="darkred" stroke-width="3" width="27.421875" x="507.578125" y="154.453125" /><text dominant-baseline="middle" fill="white" font-family="Arial" font-size="9px" font-weight="bold" text-anchor="middle" x="521.2890625" y="159.7265625">Main Door</text><text fill="black" font-family="Arial" font-size="18px" font-weight="bold" text-anchor="middle" x="400.0" y="30">Floor Plan - ID: 19521</text></svg>