<?xml version="1.0" encoding="utf-8" ?>
<svg baseProfile="full" height="600px" version="1.1" viewBox="0 0 800 600" width="800px" xmlns="http://www.w3.org/2000/svg" xmlns:ev="http://www.w3.org/2001/xml-events" xmlns:xlink="http://www.w3.org/1999/xlink"><defs /><rect fill="white" height="600" width="800" x="0" y="0" /><polygon fill="none" id="floor_plan_boundary" points="277.65625,89.0625 277.65625,304.21875 309.296875,306.328125 309.296875,380.15625 317.734375,380.15625 317.734375,295.78125 286.09375,293.671875 286.09375,99.609375 397.890625,97.5 400.0,141.796875 492.8125,141.796875 494.921875,152.34375 513.90625,154.453125 513.90625,500.390625 296.640625,502.5 294.53125,418.125 317.734375,416.015625 317.734375,409.6875 286.09375,407.578125 286.09375,510.9375 522.34375,510.9375 522.34375,143.90625 505.46875,143.90625 503.359375,133.359375 410.546875,133.359375 408.4375,89.0625" stroke="black" stroke-linecap="butt" stroke-linejoin="miter" stroke-width="4" /><g id="room_living_room"><polygon fill="rgb(238,232,170)" fill-opacity="0.7" points="288.203125,143.90625 288.203125,293.671875 319.84375,295.78125 319.84375,416.015625 296.640625,418.125 296.640625,449.765625 347.265625,449.765625 347.265625,407.578125 397.890625,405.46875 397.890625,356.953125 437.96875,354.84375 437.96875,325.3125 397.890625,323.203125 397.890625,143.90625" stroke="black" stroke-width="1.5" /><text dominant-baseline="middle" fill="black" font-family="Arial" font-size="12px" font-weight="bold" text-anchor="middle" x="364.140625" y="297.890625">Living Room</text></g><g id="room_master_bedroom"><polygon fill="rgb(255,165,0)" fill-opacity="0.7" points="410.546875,143.90625 410.546875,312.65625 450.625,316.875 450.625,354.84375 511.796875,354.84375 511.796875,154.453125 494.921875,154.453125 492.8125,143.90625" stroke="black" stroke-width="1.5" /><text dominant-baseline="middle" fill="black" font-family="Arial" font-size="12px" font-weight="bold" text-anchor="middle" x="462.2265625" y="250.4296875">Master Bedroom</text></g><g id="room_common_room"><polygon fill="rgb(255,215,0)" fill-opacity="0.7" points="410.546875,367.5 410.546875,500.390625 511.796875,500.390625 511.796875,367.5" stroke="black" stroke-width="1.5" /><text dominant-baseline="middle" fill="black" font-family="Arial" font-size="12px" font-weight="bold" text-anchor="middle" x="462.2265625" y="435.0">Common Room</text></g><g id="room_balcony"><polygon fill="rgb(107,142,35)" fill-opacity="0.7" points="288.203125,99.609375 288.203125,131.25 397.890625,131.25 397.890625,99.609375" stroke="black" stroke-width="1.5" /><text dominant-baseline="middle" fill="black" font-family="Arial" font-size="12px" font-weight="bold" text-anchor="middle" x="344.1015625" y="116.484375">Balcony</text></g><g id="room_kitchen"><polygon fill="rgb(240,128,128)" fill-opacity="0.7" points="359.921875,418.125 359.921875,500.390625 397.890625,500.390625 397.890625,418.125" stroke="black" stroke-width="1.5" /><text dominant-baseline="middle" fill="black" font-family="Arial" font-size="12px" font-weight="bold" text-anchor="middle" x="379.9609375" y="460.3125">Kitchen</text></g><g id="room_bathroom"><polygon fill="rgb(173,216,230)" fill-opacity="0.7" points="296.640625,462.421875 296.640625,500.390625 347.265625,500.390625 347.265625,462.421875" stroke="black" stroke-width="1.5" /><text dominant-baseline="middle" fill="black" font-family="Arial" font-size="12px" font-weight="bold" text-anchor="middle" x="323.0078125" y="482.4609375">Bathroom</text></g><rect fill="red" fill-opacity="0.9" height="27.421875" id="main_door" stroke="darkred" stroke-width="3" width="10.546875" x="309.296875" y="382.265625" /><text dominant-baseline="middle" fill="white" font-family="Arial" font-size="9px" font-weight="bold" text-anchor="middle" x="314.5703125" y="395.9765625">Main Door</text><text fill="black" font-family="Arial" font-size="18px" font-weight="bold" text-anchor="middle" x="400.0" y="30">Floor Plan - ID: 20294</text></svg>