<?xml version="1.0" encoding="utf-8" ?>
<svg baseProfile="full" height="600px" version="1.1" viewBox="0 0 800 600" width="800px" xmlns="http://www.w3.org/2000/svg" xmlns:ev="http://www.w3.org/2001/xml-events" xmlns:xlink="http://www.w3.org/1999/xlink"><defs /><rect fill="white" height="600" width="800" x="0" y="0" /><polygon fill="none" id="floor_plan_boundary" points="195.390625,146.015625 195.390625,304.21875 199.609375,152.34375 275.546875,150.234375 277.65625,175.546875 349.375,175.546875 351.484375,192.421875 406.328125,192.421875 410.546875,175.546875 490.703125,175.546875 492.8125,234.609375 543.4375,236.71875 543.4375,310.546875 600.390625,312.65625 598.28125,449.765625 283.984375,449.765625 281.875,361.171875 201.71875,361.171875 195.390625,337.96875 195.390625,365.390625 277.65625,367.5 277.65625,453.984375 604.609375,453.984375 604.609375,306.328125 547.65625,304.21875 547.65625,230.390625 497.03125,228.28125 497.03125,171.328125 402.109375,171.328125 402.109375,188.203125 357.8125,188.203125 355.703125,171.328125 283.984375,171.328125 281.875,146.015625" stroke="black" stroke-linecap="butt" stroke-linejoin="miter" stroke-width="4" /><g id="room_living_room"><polygon fill="rgb(238,232,170)" fill-opacity="0.7" points="201.71875,304.21875 201.71875,359.0625 283.984375,361.171875 283.984375,447.65625 490.703125,447.65625 490.703125,325.3125 518.125,312.65625 402.109375,312.65625 402.109375,264.140625 357.8125,264.140625 355.703125,312.65625" stroke="black" stroke-width="1.5" /><text dominant-baseline="middle" fill="black" font-family="Arial" font-size="12px" font-weight="bold" text-anchor="middle" x="360.9765625" y="356.953125">Living Room</text></g><g id="room_master_bedroom"><polygon fill="rgb(255,165,0)" fill-opacity="0.7" points="526.5625,312.65625 524.453125,331.640625 499.140625,331.640625 499.140625,447.65625 598.28125,447.65625 598.28125,312.65625" stroke="black" stroke-width="1.5" /><text dominant-baseline="middle" fill="black" font-family="Arial" font-size="12px" font-weight="bold" text-anchor="middle" x="549.765625" y="381.2109375">Master Bedroom</text></g><g id="room_common_room_2"><polygon fill="rgb(255,215,0)" fill-opacity="0.7" points="410.546875,177.65625 410.546875,304.21875 490.703125,304.21875 490.703125,177.65625" stroke="black" stroke-width="1.5" /><text dominant-baseline="middle" fill="black" font-family="Arial" font-size="12px" font-weight="bold" text-anchor="middle" x="451.6796875" y="241.9921875">Common Room 2</text></g><g id="room_common_room_3"><polygon fill="rgb(255,215,0)" fill-opacity="0.7" points="283.984375,177.65625 283.984375,304.21875 349.375,304.21875 349.375,177.65625" stroke="black" stroke-width="1.5" /><text dominant-baseline="middle" fill="black" font-family="Arial" font-size="12px" font-weight="bold" text-anchor="middle" x="317.734375" y="241.9921875">Common Room 3</text></g><g id="room_kitchen"><polygon fill="rgb(240,128,128)" fill-opacity="0.7" points="201.71875,211.40625 201.71875,295.78125 275.546875,295.78125 275.546875,211.40625" stroke="black" stroke-width="1.5" /><text dominant-baseline="middle" fill="black" font-family="Arial" font-size="12px" font-weight="bold" text-anchor="middle" x="239.6875" y="254.6484375">Kitchen</text></g><g id="room_balcony"><polygon fill="rgb(107,142,35)" fill-opacity="0.7" points="201.71875,152.34375 201.71875,202.96875 275.546875,202.96875 275.546875,152.34375" stroke="black" stroke-width="1.5" /><text dominant-baseline="middle" fill="black" font-family="Arial" font-size="12px" font-weight="bold" text-anchor="middle" x="239.6875" y="178.7109375">Balcony</text></g><g id="room_common_room"><polygon fill="rgb(255,215,0)" fill-opacity="0.7" points="499.140625,236.71875 499.140625,304.21875 541.328125,304.21875 541.328125,236.71875" stroke="black" stroke-width="1.5" /><text dominant-baseline="middle" fill="black" font-family="Arial" font-size="12px" font-weight="bold" text-anchor="middle" x="521.2890625" y="271.5234375">Common Room</text></g><g id="room_bathroom"><polygon fill="rgb(173,216,230)" fill-opacity="0.7" points="357.8125,194.53125 357.8125,255.703125 402.109375,255.703125 402.109375,194.53125" stroke="black" stroke-width="1.5" /><text dominant-baseline="middle" fill="black" font-family="Arial" font-size="12px" font-weight="bold" text-anchor="middle" x="381.015625" y="226.171875">Bathroom</text></g><rect fill="red" fill-opacity="0.9" height="31.640625" id="main_door" stroke="darkred" stroke-width="3" width="6.328125" x="195.390625" y="306.328125" /><text dominant-baseline="middle" fill="white" font-family="Arial" font-size="9px" font-weight="bold" text-anchor="middle" x="198.5546875" y="322.1484375">Main Door</text><text fill="black" font-family="Arial" font-size="18px" font-weight="bold" text-anchor="middle" x="400.0" y="30">Floor Plan - ID: 20464</text></svg>