<?xml version="1.0" encoding="utf-8" ?>
<svg baseProfile="full" height="600px" version="1.1" viewBox="0 0 800 600" width="800px" xmlns="http://www.w3.org/2000/svg" xmlns:ev="http://www.w3.org/2001/xml-events" xmlns:xlink="http://www.w3.org/1999/xlink"><defs /><rect fill="white" height="600" width="800" x="0" y="0" /><polygon fill="none" id="floor_plan_boundary" points="330.390625,86.953125 330.390625,183.984375 275.546875,186.09375 275.546875,513.046875 524.453125,513.046875 524.453125,337.96875 486.484375,337.96875 484.375,331.640625 475.9375,331.640625 475.9375,346.40625 516.015625,348.515625 513.90625,504.609375 283.984375,502.5 283.984375,196.640625 338.828125,194.53125 338.828125,97.5 475.9375,97.5 475.9375,302.109375 484.375,302.109375 484.375,86.953125" stroke="black" stroke-linecap="butt" stroke-linejoin="miter" stroke-width="4" /><g id="room_living_room"><polygon fill="rgb(238,232,170)" fill-opacity="0.7" points="391.5625,158.671875 391.5625,300.0 347.265625,302.109375 347.265625,335.859375 391.5625,337.96875 391.5625,502.5 513.90625,502.5 513.90625,348.515625 473.828125,346.40625 473.828125,158.671875" stroke="black" stroke-width="1.5" /><text dominant-baseline="middle" fill="black" font-family="Arial" font-size="12px" font-weight="bold" text-anchor="middle" x="431.640625" y="331.640625">Living Room</text></g><g id="room_common_room"><polygon fill="rgb(255,215,0)" fill-opacity="0.7" points="286.09375,325.3125 286.09375,451.875 378.90625,451.875 378.90625,348.515625 336.71875,348.515625 334.609375,325.3125" stroke="black" stroke-width="1.5" /><text dominant-baseline="middle" fill="black" font-family="Arial" font-size="12px" font-weight="bold" text-anchor="middle" x="333.5546875" y="389.6484375">Common Room</text></g><g id="room_common_room_2"><polygon fill="rgb(255,215,0)" fill-opacity="0.7" points="286.09375,196.640625 286.09375,312.65625 334.609375,312.65625 336.71875,289.453125 378.90625,289.453125 378.90625,196.640625" stroke="black" stroke-width="1.5" /><text dominant-baseline="middle" fill="black" font-family="Arial" font-size="12px" font-weight="bold" text-anchor="middle" x="333.5546875" y="255.703125">Common Room 2</text></g><g id="room_kitchen"><polygon fill="rgb(240,128,128)" fill-opacity="0.7" points="340.9375,97.5 340.9375,183.984375 378.90625,183.984375 378.90625,148.125 414.765625,146.015625 414.765625,97.5" stroke="black" stroke-width="1.5" /><text dominant-baseline="middle" fill="black" font-family="Arial" font-size="12px" font-weight="bold" text-anchor="middle" x="378.90625" y="141.796875">Kitchen</text></g><g id="room_balcony"><polygon fill="rgb(107,142,35)" fill-opacity="0.7" points="286.09375,464.53125 286.09375,502.5 378.90625,502.5 378.90625,464.53125" stroke="black" stroke-width="1.5" /><text dominant-baseline="middle" fill="black" font-family="Arial" font-size="12px" font-weight="bold" text-anchor="middle" x="333.5546875" y="484.5703125">Balcony</text></g><g id="room_bathroom"><polygon fill="rgb(173,216,230)" fill-opacity="0.7" points="427.421875,97.5 427.421875,146.015625 473.828125,146.015625 473.828125,97.5" stroke="black" stroke-width="1.5" /><text dominant-baseline="middle" fill="black" font-family="Arial" font-size="12px" font-weight="bold" text-anchor="middle" x="451.6796875" y="122.8125">Bathroom</text></g><rect fill="red" fill-opacity="0.9" height="27.421875" id="main_door" stroke="darkred" stroke-width="3" width="10.546875" x="475.9375" y="304.21875" /><text dominant-baseline="middle" fill="white" font-family="Arial" font-size="9px" font-weight="bold" text-anchor="middle" x="481.2109375" y="317.9296875">Main Door</text><text fill="black" font-family="Arial" font-size="18px" font-weight="bold" text-anchor="middle" x="400.0" y="30">Floor Plan - ID: 2048</text></svg>