<?xml version="1.0" encoding="utf-8" ?>
<svg baseProfile="full" height="600px" version="1.1" viewBox="0 0 800 600" width="800px" xmlns="http://www.w3.org/2000/svg" xmlns:ev="http://www.w3.org/2001/xml-events" xmlns:xlink="http://www.w3.org/1999/xlink"><defs /><rect fill="white" height="600" width="800" x="0" y="0" /><polygon fill="none" id="floor_plan_boundary" points="182.734375,213.515625 182.734375,428.671875 227.03125,428.671875 227.03125,420.234375 191.171875,418.125 191.171875,224.0625 254.453125,221.953125 256.5625,165.0 397.890625,165.0 397.890625,221.953125 530.78125,221.953125 532.890625,232.5 613.046875,234.609375 610.9375,422.34375 532.890625,422.34375 530.78125,430.78125 279.765625,430.78125 277.65625,420.234375 260.78125,420.234375 269.21875,439.21875 541.328125,439.21875 543.4375,426.5625 617.265625,426.5625 617.265625,228.28125 543.4375,228.28125 541.328125,213.515625 406.328125,213.515625 404.21875,160.78125 250.234375,160.78125 248.125,213.515625" stroke="black" stroke-linecap="butt" stroke-linejoin="miter" stroke-width="4" /><g id="room_living_room"><polygon fill="rgb(238,232,170)" fill-opacity="0.7" points="256.5625,224.0625 256.5625,363.28125 193.28125,365.390625 193.28125,418.125 397.890625,428.671875 397.890625,224.0625" stroke="black" stroke-width="1.5" /><text dominant-baseline="middle" fill="black" font-family="Arial" font-size="12px" font-weight="bold" text-anchor="middle" x="296.640625" y="327.421875">Living Room</text></g><g id="room_common_room"><polygon fill="rgb(255,215,0)" fill-opacity="0.7" points="406.328125,224.0625 406.328125,327.421875 530.78125,327.421875 530.78125,224.0625" stroke="black" stroke-width="1.5" /><text dominant-baseline="middle" fill="black" font-family="Arial" font-size="12px" font-weight="bold" text-anchor="middle" x="469.609375" y="276.796875">Common Room</text></g><g id="room_balcony"><polygon fill="rgb(107,142,35)" fill-opacity="0.7" points="543.4375,234.609375 543.4375,420.234375 610.9375,420.234375 610.9375,234.609375" stroke="black" stroke-width="1.5" /><text dominant-baseline="middle" fill="black" font-family="Arial" font-size="12px" font-weight="bold" text-anchor="middle" x="578.2421875" y="328.4765625">Balcony</text></g><g id="room_master_bedroom"><polygon fill="rgb(255,165,0)" fill-opacity="0.7" points="406.328125,335.859375 406.328125,428.671875 530.78125,428.671875 530.78125,335.859375" stroke="black" stroke-width="1.5" /><text dominant-baseline="middle" fill="black" font-family="Arial" font-size="12px" font-weight="bold" text-anchor="middle" x="469.609375" y="383.3203125">Master Bedroom</text></g><g id="room_bathroom"><polygon fill="rgb(173,216,230)" fill-opacity="0.7" points="193.28125,224.0625 193.28125,356.953125 248.125,356.953125 248.125,224.0625" stroke="black" stroke-width="1.5" /><text dominant-baseline="middle" fill="black" font-family="Arial" font-size="12px" font-weight="bold" text-anchor="middle" x="221.7578125" y="291.5625">Bathroom</text></g><g id="room_kitchen"><polygon fill="rgb(240,128,128)" fill-opacity="0.7" points="256.5625,167.109375 256.5625,211.40625 397.890625,211.40625 397.890625,167.109375" stroke="black" stroke-width="1.5" /><text dominant-baseline="middle" fill="black" font-family="Arial" font-size="12px" font-weight="bold" text-anchor="middle" x="328.28125" y="190.3125">Kitchen</text></g><rect fill="red" fill-opacity="0.9" height="10.546875" id="main_door" stroke="darkred" stroke-width="3" width="31.640625" x="229.140625" y="420.234375" /><text dominant-baseline="middle" fill="white" font-family="Arial" font-size="9px" font-weight="bold" text-anchor="middle" x="244.9609375" y="425.5078125">Main Door</text><text fill="black" font-family="Arial" font-size="18px" font-weight="bold" text-anchor="middle" x="400.0" y="30">Floor Plan - ID: 20612</text></svg>