<?xml version="1.0" encoding="utf-8" ?>
<svg baseProfile="full" height="600px" version="1.1" viewBox="0 0 800 600" width="800px" xmlns="http://www.w3.org/2000/svg" xmlns:ev="http://www.w3.org/2001/xml-events" xmlns:xlink="http://www.w3.org/1999/xlink"><defs /><rect fill="white" height="600" width="800" x="0" y="0" /><polygon fill="none" id="floor_plan_boundary" points="237.578125,179.765625 237.578125,479.296875 366.25,479.296875 368.359375,392.8125 562.421875,392.8125 562.421875,230.390625 513.90625,228.28125 513.90625,171.328125 423.203125,171.328125 421.09375,120.703125 349.375,120.703125 349.375,129.140625 410.546875,129.140625 412.65625,179.765625 503.359375,179.765625 505.46875,238.828125 553.984375,240.9375 553.984375,382.265625 357.8125,384.375 355.703125,470.859375 248.125,470.859375 246.015625,190.3125 319.84375,188.203125 324.0625,120.703125 311.40625,120.703125 309.296875,179.765625" stroke="black" stroke-linecap="butt" stroke-linejoin="miter" stroke-width="4" /><g id="room_living_room"><polygon fill="rgb(238,232,170)" fill-opacity="0.7" points="450.625,181.875 423.203125,181.875 421.09375,259.921875 355.703125,257.8125 355.703125,131.25 321.953125,131.25 319.84375,190.3125 248.125,190.3125 248.125,418.125 355.703125,418.125 355.703125,285.234375 450.625,283.125" stroke="black" stroke-width="1.5" /><text dominant-baseline="middle" fill="black" font-family="Arial" font-size="12px" font-weight="bold" text-anchor="middle" x="350.4296875" y="275.7421875">Living Room</text></g><g id="room_master_bedroom"><polygon fill="rgb(255,165,0)" fill-opacity="0.7" points="463.28125,240.9375 463.28125,382.265625 551.875,382.265625 551.875,240.9375" stroke="black" stroke-width="1.5" /><text dominant-baseline="middle" fill="black" font-family="Arial" font-size="12px" font-weight="bold" text-anchor="middle" x="508.6328125" y="312.65625">Master Bedroom</text></g><g id="room_common_room"><polygon fill="rgb(255,215,0)" fill-opacity="0.7" points="368.359375,295.78125 368.359375,382.265625 450.625,382.265625 450.625,295.78125" stroke="black" stroke-width="1.5" /><text dominant-baseline="middle" fill="black" font-family="Arial" font-size="12px" font-weight="bold" text-anchor="middle" x="410.546875" y="340.078125">Common Room</text></g><g id="room_kitchen"><polygon fill="rgb(240,128,128)" fill-opacity="0.7" points="368.359375,131.25 368.359375,247.265625 410.546875,247.265625 410.546875,131.25" stroke="black" stroke-width="1.5" /><text dominant-baseline="middle" fill="black" font-family="Arial" font-size="12px" font-weight="bold" text-anchor="middle" x="390.5078125" y="190.3125">Kitchen</text></g><g id="room_balcony"><polygon fill="rgb(107,142,35)" fill-opacity="0.7" points="248.125,430.78125 248.125,468.75 355.703125,468.75 355.703125,430.78125" stroke="black" stroke-width="1.5" /><text dominant-baseline="middle" fill="black" font-family="Arial" font-size="12px" font-weight="bold" text-anchor="middle" x="302.96875" y="450.8203125">Balcony</text></g><g id="room_bathroom"><polygon fill="rgb(173,216,230)" fill-opacity="0.7" points="463.28125,181.875 463.28125,228.28125 503.359375,228.28125 503.359375,181.875" stroke="black" stroke-width="1.5" /><text dominant-baseline="middle" fill="black" font-family="Arial" font-size="12px" font-weight="bold" text-anchor="middle" x="484.375" y="206.1328125">Bathroom</text></g><rect fill="red" fill-opacity="0.9" height="10.546875" id="main_door" stroke="darkred" stroke-width="3" width="23.203125" x="326.171875" y="120.703125" /><text dominant-baseline="middle" fill="white" font-family="Arial" font-size="9px" font-weight="bold" text-anchor="middle" x="337.7734375" y="125.9765625">Main Door</text><text fill="black" font-family="Arial" font-size="18px" font-weight="bold" text-anchor="middle" x="400.0" y="30">Floor Plan - ID: 20634</text></svg>