<?xml version="1.0" encoding="utf-8" ?>
<svg baseProfile="full" height="600px" version="1.1" viewBox="0 0 800 600" width="800px" xmlns="http://www.w3.org/2000/svg" xmlns:ev="http://www.w3.org/2001/xml-events" xmlns:xlink="http://www.w3.org/1999/xlink"><defs /><rect fill="white" height="600" width="800" x="0" y="0" /><polygon fill="none" id="floor_plan_boundary" points="229.140625,173.4375 229.140625,447.65625 237.578125,447.65625 239.6875,181.875 279.765625,181.875 281.875,160.78125 340.9375,160.78125 343.046875,181.875 560.3125,181.875 562.421875,264.140625 507.578125,266.25 507.578125,348.515625 526.5625,350.625 526.5625,399.140625 507.578125,401.25 505.46875,439.21875 267.109375,439.21875 267.109375,447.65625 516.015625,447.65625 516.015625,411.796875 535.0,409.6875 535.0,340.078125 516.015625,337.96875 516.015625,276.796875 570.859375,274.6875 570.859375,173.4375 353.59375,173.4375 351.484375,152.34375 271.328125,152.34375 269.21875,173.4375" stroke="black" stroke-linecap="butt" stroke-linejoin="miter" stroke-width="4" /><g id="room_living_room"><polygon fill="rgb(238,232,170)" fill-opacity="0.7" points="281.875,162.890625 279.765625,183.984375 239.6875,183.984375 239.6875,437.109375 340.9375,437.109375 340.9375,340.078125 433.75,337.96875 433.75,306.328125 343.046875,306.328125 340.9375,162.890625" stroke="black" stroke-width="1.5" /><text dominant-baseline="middle" fill="black" font-family="Arial" font-size="12px" font-weight="bold" text-anchor="middle" x="337.7734375" y="301.0546875">Living Room</text></g><g id="room_common_room"><polygon fill="rgb(255,215,0)" fill-opacity="0.7" points="410.546875,350.625 410.546875,437.109375 505.46875,437.109375 505.46875,401.25 524.453125,399.140625 524.453125,350.625" stroke="black" stroke-width="1.5" /><text dominant-baseline="middle" fill="black" font-family="Arial" font-size="12px" font-weight="bold" text-anchor="middle" x="468.5546875" y="394.921875">Common Room</text></g><g id="room_master_bedroom"><polygon fill="rgb(255,165,0)" fill-opacity="0.7" points="410.546875,183.984375 410.546875,293.671875 433.75,293.671875 435.859375,264.140625 505.46875,264.140625 505.46875,183.984375" stroke="black" stroke-width="1.5" /><text dominant-baseline="middle" fill="black" font-family="Arial" font-size="12px" font-weight="bold" text-anchor="middle" x="459.0625" y="239.8828125">Master Bedroom</text></g><g id="room_kitchen"><polygon fill="rgb(240,128,128)" fill-opacity="0.7" points="353.59375,183.984375 353.59375,293.671875 397.890625,293.671875 397.890625,183.984375" stroke="black" stroke-width="1.5" /><text dominant-baseline="middle" fill="black" font-family="Arial" font-size="12px" font-weight="bold" text-anchor="middle" x="376.796875" y="239.8828125">Kitchen</text></g><g id="room_bathroom"><polygon fill="rgb(173,216,230)" fill-opacity="0.7" points="353.59375,350.625 353.59375,437.109375 397.890625,437.109375 397.890625,350.625" stroke="black" stroke-width="1.5" /><text dominant-baseline="middle" fill="black" font-family="Arial" font-size="12px" font-weight="bold" text-anchor="middle" x="376.796875" y="394.921875">Bathroom</text></g><g id="room_room_7"><polygon fill="rgb(221,160,221)" fill-opacity="0.7" points="446.40625,276.796875 446.40625,337.96875 505.46875,337.96875 505.46875,276.796875" stroke="black" stroke-width="1.5" /><text dominant-baseline="middle" fill="black" font-family="Arial" font-size="12px" font-weight="bold" text-anchor="middle" x="476.9921875" y="308.4375">Room 7</text></g><g id="room_balcony"><polygon fill="rgb(107,142,35)" fill-opacity="0.7" points="518.125,183.984375 518.125,264.140625 560.3125,264.140625 560.3125,183.984375" stroke="black" stroke-width="1.5" /><text dominant-baseline="middle" fill="black" font-family="Arial" font-size="12px" font-weight="bold" text-anchor="middle" x="540.2734375" y="225.1171875">Balcony</text></g><rect fill="red" fill-opacity="0.9" height="10.546875" id="main_door" stroke="darkred" stroke-width="3" width="27.421875" x="239.6875" y="439.21875" /><text dominant-baseline="middle" fill="white" font-family="Arial" font-size="9px" font-weight="bold" text-anchor="middle" x="253.3984375" y="444.4921875">Main Door</text><text fill="black" font-family="Arial" font-size="18px" font-weight="bold" text-anchor="middle" x="400.0" y="30">Floor Plan - ID: 20671</text></svg>