<?xml version="1.0" encoding="utf-8" ?>
<svg baseProfile="full" height="600px" version="1.1" viewBox="0 0 800 600" width="800px" xmlns="http://www.w3.org/2000/svg" xmlns:ev="http://www.w3.org/2001/xml-events" xmlns:xlink="http://www.w3.org/1999/xlink"><defs /><rect fill="white" height="600" width="800" x="0" y="0" /><polygon fill="none" id="floor_plan_boundary" points="248.125,148.125 248.125,337.96875 311.40625,340.078125 311.40625,428.671875 431.640625,428.671875 433.75,451.875 478.046875,451.875 480.15625,428.671875 551.875,428.671875 551.875,148.125 522.34375,148.125 522.34375,156.5625 543.4375,158.671875 543.4375,418.125 469.609375,420.234375 467.5,447.65625 440.078125,447.65625 440.078125,420.234375 319.84375,418.125 319.84375,329.53125 256.5625,327.421875 256.5625,158.671875 480.15625,156.5625 480.15625,148.125" stroke="black" stroke-linecap="butt" stroke-linejoin="miter" stroke-width="4" /><g id="room_living_room"><polygon fill="rgb(238,232,170)" fill-opacity="0.7" points="421.09375,158.671875 421.09375,249.375 364.140625,251.484375 364.140625,285.234375 418.984375,285.234375 421.09375,304.21875 475.9375,304.21875 478.046875,418.125 541.328125,418.125 541.328125,158.671875" stroke="black" stroke-width="1.5" /><text dominant-baseline="middle" fill="black" font-family="Arial" font-size="12px" font-weight="bold" text-anchor="middle" x="453.7890625" y="289.453125">Living Room</text></g><g id="room_master_bedroom"><polygon fill="rgb(255,165,0)" fill-opacity="0.7" points="258.671875,158.671875 258.671875,327.421875 309.296875,327.421875 311.40625,285.234375 355.703125,285.234375 355.703125,158.671875" stroke="black" stroke-width="1.5" /><text dominant-baseline="middle" fill="black" font-family="Arial" font-size="12px" font-weight="bold" text-anchor="middle" x="308.2421875" y="244.1015625">Master Bedroom</text></g><g id="room_common_room"><polygon fill="rgb(255,215,0)" fill-opacity="0.7" points="321.953125,293.671875 321.953125,418.125 408.4375,418.125 408.4375,293.671875" stroke="black" stroke-width="1.5" /><text dominant-baseline="middle" fill="black" font-family="Arial" font-size="12px" font-weight="bold" text-anchor="middle" x="366.25" y="356.953125">Common Room</text></g><g id="room_kitchen"><polygon fill="rgb(240,128,128)" fill-opacity="0.7" points="421.09375,312.65625 421.09375,418.125 442.1875,420.234375 440.078125,445.546875 467.5,445.546875 469.609375,312.65625" stroke="black" stroke-width="1.5" /><text dominant-baseline="middle" fill="black" font-family="Arial" font-size="12px" font-weight="bold" text-anchor="middle" x="446.40625" y="380.15625">Kitchen</text></g><g id="room_bathroom"><polygon fill="rgb(173,216,230)" fill-opacity="0.7" points="364.140625,158.671875 364.140625,243.046875 408.4375,243.046875 408.4375,158.671875" stroke="black" stroke-width="1.5" /><text dominant-baseline="middle" fill="black" font-family="Arial" font-size="12px" font-weight="bold" text-anchor="middle" x="387.34375" y="201.9140625">Bathroom</text></g><rect fill="red" fill-opacity="0.9" height="10.546875" id="main_door" stroke="darkred" stroke-width="3" width="40.078125" x="482.265625" y="148.125" /><text dominant-baseline="middle" fill="white" font-family="Arial" font-size="9px" font-weight="bold" text-anchor="middle" x="502.3046875" y="153.3984375">Main Door</text><text fill="black" font-family="Arial" font-size="18px" font-weight="bold" text-anchor="middle" x="400.0" y="30">Floor Plan - ID: 20756</text></svg>