<?xml version="1.0" encoding="utf-8" ?>
<svg baseProfile="full" height="600px" version="1.1" viewBox="0 0 800 600" width="800px" xmlns="http://www.w3.org/2000/svg" xmlns:ev="http://www.w3.org/2001/xml-events" xmlns:xlink="http://www.w3.org/1999/xlink"><defs /><rect fill="white" height="600" width="800" x="0" y="0" /><polygon fill="none" id="floor_plan_boundary" points="330.390625,114.375 330.390625,156.5625 277.65625,158.671875 277.65625,190.3125 286.09375,190.3125 288.203125,167.109375 338.828125,167.109375 340.9375,122.8125 400.0,122.8125 402.109375,192.421875 494.921875,194.53125 494.921875,295.78125 513.90625,297.890625 513.90625,475.078125 286.09375,475.078125 286.09375,236.71875 277.65625,236.71875 277.65625,485.625 522.34375,485.625 522.34375,287.34375 503.359375,285.234375 503.359375,183.984375 412.65625,183.984375 410.546875,114.375" stroke="black" stroke-linecap="butt" stroke-linejoin="miter" stroke-width="4" /><g id="room_living_room"><polygon fill="rgb(238,232,170)" fill-opacity="0.7" points="288.203125,169.21875 288.203125,435.0 400.0,435.0 400.0,318.984375 440.078125,316.875 440.078125,289.453125 400.0,287.34375 400.0,219.84375 330.390625,219.84375 328.28125,169.21875" stroke="black" stroke-width="1.5" /><text dominant-baseline="middle" fill="black" font-family="Arial" font-size="12px" font-weight="bold" text-anchor="middle" x="365.1953125" y="303.1640625">Living Room</text></g><g id="room_master_bedroom"><polygon fill="rgb(255,165,0)" fill-opacity="0.7" points="412.65625,325.3125 412.65625,475.078125 511.796875,475.078125 511.796875,363.28125 442.1875,363.28125 440.078125,325.3125" stroke="black" stroke-width="1.5" /><text dominant-baseline="middle" fill="black" font-family="Arial" font-size="12px" font-weight="bold" text-anchor="middle" x="463.28125" y="401.25">Master Bedroom</text></g><g id="room_common_room"><polygon fill="rgb(255,215,0)" fill-opacity="0.7" points="412.65625,194.53125 412.65625,276.796875 492.8125,276.796875 492.8125,194.53125" stroke="black" stroke-width="1.5" /><text dominant-baseline="middle" fill="black" font-family="Arial" font-size="12px" font-weight="bold" text-anchor="middle" x="453.7890625" y="236.71875">Common Room</text></g><g id="room_kitchen"><polygon fill="rgb(240,128,128)" fill-opacity="0.7" points="340.9375,124.921875 340.9375,207.1875 400.0,207.1875 400.0,124.921875" stroke="black" stroke-width="1.5" /><text dominant-baseline="middle" fill="black" font-family="Arial" font-size="12px" font-weight="bold" text-anchor="middle" x="371.5234375" y="167.109375">Kitchen</text></g><g id="room_bathroom"><polygon fill="rgb(173,216,230)" fill-opacity="0.7" points="452.734375,289.453125 452.734375,350.625 511.796875,350.625 511.796875,297.890625 494.921875,297.890625 492.8125,289.453125" stroke="black" stroke-width="1.5" /><text dominant-baseline="middle" fill="black" font-family="Arial" font-size="12px" font-weight="bold" text-anchor="middle" x="483.3203125" y="321.09375">Bathroom</text></g><g id="room_balcony"><polygon fill="rgb(107,142,35)" fill-opacity="0.7" points="288.203125,447.65625 288.203125,475.078125 400.0,475.078125 400.0,447.65625" stroke="black" stroke-width="1.5" /><text dominant-baseline="middle" fill="black" font-family="Arial" font-size="12px" font-weight="bold" text-anchor="middle" x="345.15625" y="462.421875">Balcony</text></g><rect fill="red" fill-opacity="0.9" height="44.296875" id="main_door" stroke="darkred" stroke-width="3" width="10.546875" x="277.65625" y="192.421875" /><text dominant-baseline="middle" fill="white" font-family="Arial" font-size="9px" font-weight="bold" text-anchor="middle" x="282.9296875" y="214.5703125">Main Door</text><text fill="black" font-family="Arial" font-size="18px" font-weight="bold" text-anchor="middle" x="400.0" y="30">Floor Plan - ID: 21216</text></svg>