<?xml version="1.0" encoding="utf-8" ?>
<svg baseProfile="full" height="600px" version="1.1" viewBox="0 0 800 600" width="800px" xmlns="http://www.w3.org/2000/svg" xmlns:ev="http://www.w3.org/2001/xml-events" xmlns:xlink="http://www.w3.org/1999/xlink"><defs /><rect fill="white" height="600" width="800" x="0" y="0" /><polygon fill="none" id="floor_plan_boundary" points="296.640625,118.59375 296.640625,274.6875 302.96875,122.8125 366.25,122.8125 368.359375,152.34375 537.109375,154.453125 537.109375,424.453125 368.359375,426.5625 366.25,477.1875 265.0,477.1875 262.890625,346.40625 300.859375,344.296875 296.640625,308.4375 294.53125,340.078125 258.671875,340.078125 258.671875,481.40625 372.578125,481.40625 374.6875,430.78125 541.328125,430.78125 541.328125,148.125 374.6875,148.125 372.578125,118.59375" stroke="black" stroke-linecap="butt" stroke-linejoin="miter" stroke-width="4" /><g id="room_living_room"><polygon fill="rgb(238,232,170)" fill-opacity="0.7" points="302.96875,154.453125 302.96875,344.296875 265.0,346.40625 265.0,424.453125 366.25,424.453125 366.25,308.4375 499.140625,306.328125 499.140625,278.90625 368.359375,278.90625 366.25,154.453125" stroke="black" stroke-width="1.5" /><text dominant-baseline="middle" fill="black" font-family="Arial" font-size="12px" font-weight="bold" text-anchor="middle" x="383.125" y="290.5078125">Living Room</text></g><g id="room_master_bedroom"><polygon fill="rgb(255,165,0)" fill-opacity="0.7" points="374.6875,314.765625 374.6875,424.453125 467.5,424.453125 467.5,314.765625" stroke="black" stroke-width="1.5" /><text dominant-baseline="middle" fill="black" font-family="Arial" font-size="12px" font-weight="bold" text-anchor="middle" x="422.1484375" y="370.6640625">Master Bedroom</text></g><g id="room_common_room_2"><polygon fill="rgb(255,215,0)" fill-opacity="0.7" points="475.9375,154.453125 475.9375,270.46875 505.46875,270.46875 507.578125,285.234375 535.0,285.234375 535.0,154.453125" stroke="black" stroke-width="1.5" /><text dominant-baseline="middle" fill="black" font-family="Arial" font-size="12px" font-weight="bold" text-anchor="middle" x="506.5234375" y="220.8984375">Common Room 2</text></g><g id="room_common_room"><polygon fill="rgb(255,215,0)" fill-opacity="0.7" points="535.0,293.671875 507.578125,293.671875 505.46875,314.765625 475.9375,314.765625 475.9375,424.453125 535.0,424.453125" stroke="black" stroke-width="1.5" /><text dominant-baseline="middle" fill="black" font-family="Arial" font-size="12px" font-weight="bold" text-anchor="middle" x="506.5234375" y="360.1171875">Common Room</text></g><g id="room_kitchen"><polygon fill="rgb(240,128,128)" fill-opacity="0.7" points="374.6875,154.453125 374.6875,270.46875 423.203125,270.46875 423.203125,154.453125" stroke="black" stroke-width="1.5" /><text dominant-baseline="middle" fill="black" font-family="Arial" font-size="12px" font-weight="bold" text-anchor="middle" x="400.0" y="213.515625">Kitchen</text></g><g id="room_balcony"><polygon fill="rgb(107,142,35)" fill-opacity="0.7" points="265.0,432.890625 265.0,475.078125 366.25,475.078125 366.25,432.890625" stroke="black" stroke-width="1.5" /><text dominant-baseline="middle" fill="black" font-family="Arial" font-size="12px" font-weight="bold" text-anchor="middle" x="316.6796875" y="455.0390625">Balcony</text></g><g id="room_bathroom"><polygon fill="rgb(173,216,230)" fill-opacity="0.7" points="431.640625,154.453125 431.640625,270.46875 467.5,270.46875 467.5,154.453125" stroke="black" stroke-width="1.5" /><text dominant-baseline="middle" fill="black" font-family="Arial" font-size="12px" font-weight="bold" text-anchor="middle" x="450.625" y="213.515625">Bathroom</text></g><g id="room_balcony_2"><polygon fill="rgb(107,142,35)" fill-opacity="0.7" points="302.96875,124.921875 302.96875,146.015625 366.25,146.015625 366.25,124.921875" stroke="black" stroke-width="1.5" /><text dominant-baseline="middle" fill="black" font-family="Arial" font-size="12px" font-weight="bold" text-anchor="middle" x="335.6640625" y="136.5234375">Balcony 2</text></g><rect fill="red" fill-opacity="0.9" height="31.640625" id="main_door" stroke="darkred" stroke-width="3" width="6.328125" x="296.640625" y="276.796875" /><text dominant-baseline="middle" fill="white" font-family="Arial" font-size="9px" font-weight="bold" text-anchor="middle" x="299.8046875" y="292.6171875">Main Door</text><text fill="black" font-family="Arial" font-size="18px" font-weight="bold" text-anchor="middle" x="400.0" y="30">Floor Plan - ID: 21235</text></svg>