<?xml version="1.0" encoding="utf-8" ?>
<svg baseProfile="full" height="600px" version="1.1" viewBox="0 0 800 600" width="800px" xmlns="http://www.w3.org/2000/svg" xmlns:ev="http://www.w3.org/2001/xml-events" xmlns:xlink="http://www.w3.org/1999/xlink"><defs /><rect fill="white" height="600" width="800" x="0" y="0" /><polygon fill="none" id="floor_plan_boundary" points="216.484375,124.921875 216.484375,435.0 321.953125,435.0 324.0625,487.734375 471.71875,487.734375 473.828125,435.0 583.515625,435.0 583.515625,289.453125 575.078125,289.453125 575.078125,424.453125 465.390625,426.5625 465.390625,483.515625 330.390625,483.515625 330.390625,426.5625 227.03125,426.5625 227.03125,133.359375 313.515625,133.359375 315.625,156.5625 385.234375,156.5625 385.234375,116.484375 473.828125,116.484375 475.9375,156.5625 545.546875,158.671875 545.546875,259.921875 583.515625,259.921875 583.515625,251.484375 553.984375,249.375 553.984375,148.125 482.265625,148.125 480.15625,112.265625 378.90625,112.265625 376.796875,148.125 326.171875,148.125 324.0625,124.921875" stroke="black" stroke-linecap="butt" stroke-linejoin="miter" stroke-width="4" /><g id="room_living_room"><polygon fill="rgb(238,232,170)" fill-opacity="0.7" points="387.34375,158.671875 387.34375,259.921875 290.3125,262.03125 290.3125,293.671875 332.5,295.78125 332.5,424.453125 473.828125,424.453125 473.828125,297.890625 572.96875,295.78125 572.96875,262.03125 473.828125,262.03125 471.71875,158.671875" stroke="black" stroke-width="1.5" /><text dominant-baseline="middle" fill="black" font-family="Arial" font-size="12px" font-weight="bold" text-anchor="middle" x="432.6953125" y="292.6171875">Living Room</text></g><g id="room_master_bedroom"><polygon fill="rgb(255,165,0)" fill-opacity="0.7" points="227.03125,285.234375 227.03125,424.453125 319.84375,424.453125 319.84375,306.328125 279.765625,306.328125 277.65625,285.234375" stroke="black" stroke-width="1.5" /><text dominant-baseline="middle" fill="black" font-family="Arial" font-size="12px" font-weight="bold" text-anchor="middle" x="274.4921875" y="356.953125">Master Bedroom</text></g><g id="room_common_room_2"><polygon fill="rgb(255,215,0)" fill-opacity="0.7" points="227.03125,135.46875 227.03125,272.578125 277.65625,272.578125 279.765625,249.375 313.515625,249.375 313.515625,135.46875" stroke="black" stroke-width="1.5" /><text dominant-baseline="middle" fill="black" font-family="Arial" font-size="12px" font-weight="bold" text-anchor="middle" x="271.328125" y="205.078125">Common Room 2</text></g><g id="room_common_room"><polygon fill="rgb(255,215,0)" fill-opacity="0.7" points="486.484375,308.4375 486.484375,424.453125 572.96875,424.453125 572.96875,308.4375" stroke="black" stroke-width="1.5" /><text dominant-baseline="middle" fill="black" font-family="Arial" font-size="12px" font-weight="bold" text-anchor="middle" x="530.78125" y="367.5">Common Room</text></g><g id="room_balcony"><polygon fill="rgb(107,142,35)" fill-opacity="0.7" points="330.390625,437.109375 330.390625,481.40625 465.390625,481.40625 465.390625,437.109375" stroke="black" stroke-width="1.5" /><text dominant-baseline="middle" fill="black" font-family="Arial" font-size="12px" font-weight="bold" text-anchor="middle" x="398.9453125" y="460.3125">Balcony</text></g><g id="room_kitchen"><polygon fill="rgb(240,128,128)" fill-opacity="0.7" points="484.375,158.671875 484.375,249.375 543.4375,249.375 543.4375,158.671875" stroke="black" stroke-width="1.5" /><text dominant-baseline="middle" fill="black" font-family="Arial" font-size="12px" font-weight="bold" text-anchor="middle" x="514.9609375" y="205.078125">Kitchen</text></g><g id="room_bathroom"><polygon fill="rgb(173,216,230)" fill-opacity="0.7" points="326.171875,158.671875 326.171875,249.375 374.6875,249.375 374.6875,158.671875" stroke="black" stroke-width="1.5" /><text dominant-baseline="middle" fill="black" font-family="Arial" font-size="12px" font-weight="bold" text-anchor="middle" x="351.484375" y="205.078125">Bathroom</text></g><g id="room_balcony_2"><polygon fill="rgb(107,142,35)" fill-opacity="0.7" points="385.234375,118.59375 385.234375,146.015625 473.828125,146.015625 473.828125,118.59375" stroke="black" stroke-width="1.5" /><text dominant-baseline="middle" fill="black" font-family="Arial" font-size="12px" font-weight="bold" text-anchor="middle" x="430.5859375" y="133.359375">Balcony 2</text></g><rect fill="red" fill-opacity="0.9" height="27.421875" id="main_door" stroke="darkred" stroke-width="3" width="10.546875" x="575.078125" y="262.03125" /><text dominant-baseline="middle" fill="white" font-family="Arial" font-size="9px" font-weight="bold" text-anchor="middle" x="580.3515625" y="275.7421875">Main Door</text><text fill="black" font-family="Arial" font-size="18px" font-weight="bold" text-anchor="middle" x="400.0" y="30">Floor Plan - ID: 21321</text></svg>