<?xml version="1.0" encoding="utf-8" ?>
<svg baseProfile="full" height="600px" version="1.1" viewBox="0 0 800 600" width="800px" xmlns="http://www.w3.org/2000/svg" xmlns:ev="http://www.w3.org/2001/xml-events" xmlns:xlink="http://www.w3.org/1999/xlink"><defs /><rect fill="white" height="600" width="800" x="0" y="0" /><polygon fill="none" id="floor_plan_boundary" points="553.984375,108.046875 461.171875,108.046875 459.0625,122.8125 349.375,122.8125 347.265625,143.90625 231.25,143.90625 231.25,491.953125 357.8125,491.953125 359.921875,447.65625 376.796875,449.765625 376.796875,466.640625 463.28125,466.640625 465.390625,447.65625 490.703125,447.65625 490.703125,312.65625 509.6875,310.546875 509.6875,302.109375 482.265625,302.109375 482.265625,437.109375 456.953125,439.21875 456.953125,462.421875 383.125,462.421875 381.015625,439.21875 349.375,439.21875 347.265625,483.515625 241.796875,483.515625 239.6875,154.453125 357.8125,152.34375 359.921875,131.25 469.609375,131.25 471.71875,116.484375 543.4375,116.484375 545.546875,152.34375 560.3125,154.453125 560.3125,251.484375 501.25,253.59375 501.25,259.921875 568.75,262.03125 568.75,143.90625 553.984375,141.796875" stroke="black" stroke-linecap="butt" stroke-linejoin="miter" stroke-width="4" /><g id="room_living_room"><polygon fill="rgb(238,232,170)" fill-opacity="0.7" points="359.921875,196.640625 359.921875,253.59375 319.84375,255.703125 319.84375,300.0 359.921875,302.109375 359.921875,437.109375 381.015625,437.109375 383.125,460.3125 456.953125,460.3125 454.84375,439.21875 480.15625,437.109375 480.15625,302.109375 499.140625,300.0 499.140625,264.140625 459.0625,262.03125 459.0625,196.640625" stroke="black" stroke-width="1.5" /><text dominant-baseline="middle" fill="black" font-family="Arial" font-size="12px" font-weight="bold" text-anchor="middle" x="410.546875" y="329.53125">Living Room</text></g><g id="room_master_bedroom"><polygon fill="rgb(255,165,0)" fill-opacity="0.7" points="347.265625,312.65625 319.84375,312.65625 317.734375,321.09375 241.796875,321.09375 241.796875,437.109375 347.265625,437.109375" stroke="black" stroke-width="1.5" /><text dominant-baseline="middle" fill="black" font-family="Arial" font-size="12px" font-weight="bold" text-anchor="middle" x="295.5859375" y="375.9375">Master Bedroom</text></g><g id="room_common_room_2"><polygon fill="rgb(255,215,0)" fill-opacity="0.7" points="241.796875,154.453125 241.796875,245.15625 347.265625,243.046875 347.265625,154.453125" stroke="black" stroke-width="1.5" /><text dominant-baseline="middle" fill="black" font-family="Arial" font-size="12px" font-weight="bold" text-anchor="middle" x="295.5859375" y="200.859375">Common Room 2</text></g><g id="room_common_room"><polygon fill="rgb(255,215,0)" fill-opacity="0.7" points="471.71875,154.453125 471.71875,251.484375 558.203125,251.484375 558.203125,154.453125" stroke="black" stroke-width="1.5" /><text dominant-baseline="middle" fill="black" font-family="Arial" font-size="12px" font-weight="bold" text-anchor="middle" x="516.015625" y="204.0234375">Common Room</text></g><g id="room_kitchen"><polygon fill="rgb(240,128,128)" fill-opacity="0.7" points="359.921875,133.359375 359.921875,188.203125 459.0625,188.203125 459.0625,133.359375" stroke="black" stroke-width="1.5" /><text dominant-baseline="middle" fill="black" font-family="Arial" font-size="12px" font-weight="bold" text-anchor="middle" x="410.546875" y="161.8359375">Kitchen</text></g><g id="room_bathroom"><polygon fill="rgb(173,216,230)" fill-opacity="0.7" points="241.796875,253.59375 241.796875,312.65625 311.40625,312.65625 309.296875,253.59375" stroke="black" stroke-width="1.5" /><text dominant-baseline="middle" fill="black" font-family="Arial" font-size="12px" font-weight="bold" text-anchor="middle" x="277.65625" y="284.1796875">Bathroom</text></g><g id="room_balcony"><polygon fill="rgb(107,142,35)" fill-opacity="0.7" points="241.796875,449.765625 241.796875,481.40625 347.265625,481.40625 347.265625,449.765625" stroke="black" stroke-width="1.5" /><text dominant-baseline="middle" fill="black" font-family="Arial" font-size="12px" font-weight="bold" text-anchor="middle" x="295.5859375" y="466.640625">Balcony</text></g><g id="room_balcony_2"><polygon fill="rgb(107,142,35)" fill-opacity="0.7" points="471.71875,118.59375 471.71875,141.796875 543.4375,141.796875 543.4375,118.59375" stroke="black" stroke-width="1.5" /><text dominant-baseline="middle" fill="black" font-family="Arial" font-size="12px" font-weight="bold" text-anchor="middle" x="508.6328125" y="131.25">Balcony 2</text></g><rect fill="red" fill-opacity="0.9" height="40.078125" id="main_door" stroke="darkred" stroke-width="3" width="10.546875" x="501.25" y="262.03125" /><text dominant-baseline="middle" fill="white" font-family="Arial" font-size="9px" font-weight="bold" text-anchor="middle" x="506.5234375" y="282.0703125">Main Door</text><text fill="black" font-family="Arial" font-size="18px" font-weight="bold" text-anchor="middle" x="400.0" y="30">Floor Plan - ID: 21408</text></svg>