<?xml version="1.0" encoding="utf-8" ?>
<svg baseProfile="full" height="600px" version="1.1" viewBox="0 0 800 600" width="800px" xmlns="http://www.w3.org/2000/svg" xmlns:ev="http://www.w3.org/2001/xml-events" xmlns:xlink="http://www.w3.org/1999/xlink"><defs /><rect fill="white" height="600" width="800" x="0" y="0" /><polygon fill="none" id="floor_plan_boundary" points="271.328125,124.921875 271.328125,487.734375 305.078125,487.734375 307.1875,513.046875 490.703125,521.484375 492.8125,487.734375 528.671875,487.734375 528.671875,323.203125 488.59375,323.203125 486.484375,302.109375 478.046875,302.109375 478.046875,331.640625 520.234375,333.75 520.234375,477.1875 486.484375,479.296875 484.375,517.265625 313.515625,508.828125 313.515625,479.296875 279.765625,477.1875 279.765625,135.46875 406.328125,133.359375 406.328125,82.734375 475.9375,82.734375 478.046875,272.578125 486.484375,272.578125 486.484375,78.515625 400.0,78.515625 397.890625,124.921875" stroke="black" stroke-linecap="butt" stroke-linejoin="miter" stroke-width="4" /><g id="room_living_room"><polygon fill="rgb(238,232,170)" fill-opacity="0.7" points="387.34375,211.40625 387.34375,266.25 349.375,268.359375 349.375,342.1875 397.890625,344.296875 397.890625,477.1875 518.125,477.1875 518.125,333.75 475.9375,331.640625 475.9375,211.40625" stroke="black" stroke-width="1.5" /><text dominant-baseline="middle" fill="black" font-family="Arial" font-size="12px" font-weight="bold" text-anchor="middle" x="434.8046875" y="345.3515625">Living Room</text></g><g id="room_master_bedroom"><polygon fill="rgb(255,165,0)" fill-opacity="0.7" points="281.875,354.84375 281.875,477.1875 385.234375,477.1875 385.234375,354.84375" stroke="black" stroke-width="1.5" /><text dominant-baseline="middle" fill="black" font-family="Arial" font-size="12px" font-weight="bold" text-anchor="middle" x="334.609375" y="417.0703125">Master Bedroom</text></g><g id="room_common_room"><polygon fill="rgb(255,215,0)" fill-opacity="0.7" points="281.875,135.46875 281.875,255.703125 374.6875,255.703125 374.6875,135.46875" stroke="black" stroke-width="1.5" /><text dominant-baseline="middle" fill="black" font-family="Arial" font-size="12px" font-weight="bold" text-anchor="middle" x="329.3359375" y="196.640625">Common Room</text></g><g id="room_kitchen"><polygon fill="rgb(240,128,128)" fill-opacity="0.7" points="387.34375,135.46875 387.34375,202.96875 475.9375,202.96875 475.9375,135.46875" stroke="black" stroke-width="1.5" /><text dominant-baseline="middle" fill="black" font-family="Arial" font-size="12px" font-weight="bold" text-anchor="middle" x="432.6953125" y="170.2734375">Kitchen</text></g><g id="room_bathroom"><polygon fill="rgb(173,216,230)" fill-opacity="0.7" points="281.875,268.359375 281.875,342.1875 340.9375,342.1875 340.9375,268.359375" stroke="black" stroke-width="1.5" /><text dominant-baseline="middle" fill="black" font-family="Arial" font-size="12px" font-weight="bold" text-anchor="middle" x="312.4609375" y="306.328125">Bathroom</text></g><g id="room_balcony_3"><polygon fill="rgb(107,142,35)" fill-opacity="0.7" points="406.328125,84.84375 406.328125,122.8125 475.9375,122.8125 475.9375,84.84375" stroke="black" stroke-width="1.5" /><text dominant-baseline="middle" fill="black" font-family="Arial" font-size="12px" font-weight="bold" text-anchor="middle" x="442.1875" y="104.8828125">Balcony 3</text></g><g id="room_balcony"><polygon fill="rgb(107,142,35)" fill-opacity="0.7" points="395.78125,489.84375 395.78125,515.15625 484.375,515.15625 484.375,489.84375" stroke="black" stroke-width="1.5" /><text dominant-baseline="middle" fill="black" font-family="Arial" font-size="12px" font-weight="bold" text-anchor="middle" x="441.1328125" y="503.5546875">Balcony</text></g><g id="room_balcony_2"><polygon fill="rgb(107,142,35)" fill-opacity="0.7" points="313.515625,489.84375 313.515625,506.71875 387.34375,506.71875 387.34375,489.84375" stroke="black" stroke-width="1.5" /><text dominant-baseline="middle" fill="black" font-family="Arial" font-size="12px" font-weight="bold" text-anchor="middle" x="351.484375" y="499.3359375">Balcony 2</text></g><rect fill="red" fill-opacity="0.9" height="27.421875" id="main_door" stroke="darkred" stroke-width="3" width="10.546875" x="478.046875" y="274.6875" /><text dominant-baseline="middle" fill="white" font-family="Arial" font-size="9px" font-weight="bold" text-anchor="middle" x="483.3203125" y="288.3984375">Main Door</text><text fill="black" font-family="Arial" font-size="18px" font-weight="bold" text-anchor="middle" x="400.0" y="30">Floor Plan - ID: 21536</text></svg>