<?xml version="1.0" encoding="utf-8" ?>
<svg baseProfile="full" height="600px" version="1.1" viewBox="0 0 800 600" width="800px" xmlns="http://www.w3.org/2000/svg" xmlns:ev="http://www.w3.org/2001/xml-events" xmlns:xlink="http://www.w3.org/1999/xlink"><defs /><rect fill="white" height="600" width="800" x="0" y="0" /><polygon fill="none" id="floor_plan_boundary" points="260.78125,141.796875 260.78125,259.921875 218.59375,262.03125 218.59375,270.46875 269.21875,270.46875 271.328125,150.234375 357.8125,150.234375 359.921875,131.25 545.546875,133.359375 545.546875,270.46875 572.96875,272.578125 570.859375,468.75 328.28125,468.75 326.171875,422.34375 271.328125,420.234375 271.328125,352.734375 229.140625,352.734375 227.03125,308.4375 218.59375,308.4375 218.59375,361.171875 262.890625,363.28125 262.890625,430.78125 315.625,430.78125 317.734375,477.1875 581.40625,477.1875 581.40625,262.03125 553.984375,259.921875 553.984375,122.8125 349.375,122.8125 347.265625,141.796875" stroke="black" stroke-linecap="butt" stroke-linejoin="miter" stroke-width="4" /><g id="room_living_room"><polygon fill="rgb(238,232,170)" fill-opacity="0.7" points="271.328125,217.734375 271.328125,270.46875 229.140625,272.578125 229.140625,310.546875 273.4375,312.65625 273.4375,420.234375 452.734375,420.234375 452.734375,312.65625 492.8125,310.546875 492.8125,270.46875 349.375,270.46875 347.265625,217.734375" stroke="black" stroke-width="1.5" /><text dominant-baseline="middle" fill="black" font-family="Arial" font-size="12px" font-weight="bold" text-anchor="middle" x="362.03125" y="320.0390625">Living Room</text></g><g id="room_master_bedroom"><polygon fill="rgb(255,165,0)" fill-opacity="0.7" points="461.171875,318.984375 461.171875,466.640625 570.859375,466.640625 570.859375,348.515625 494.921875,348.515625 492.8125,318.984375" stroke="black" stroke-width="1.5" /><text dominant-baseline="middle" fill="black" font-family="Arial" font-size="12px" font-weight="bold" text-anchor="middle" x="517.0703125" y="393.8671875">Master Bedroom</text></g><g id="room_common_room_2"><polygon fill="rgb(255,215,0)" fill-opacity="0.7" points="359.921875,133.359375 359.921875,262.03125 452.734375,262.03125 452.734375,133.359375" stroke="black" stroke-width="1.5" /><text dominant-baseline="middle" fill="black" font-family="Arial" font-size="12px" font-weight="bold" text-anchor="middle" x="407.3828125" y="198.75">Common Room 2</text></g><g id="room_common_room"><polygon fill="rgb(255,215,0)" fill-opacity="0.7" points="461.171875,133.359375 461.171875,262.03125 543.4375,262.03125 543.4375,133.359375" stroke="black" stroke-width="1.5" /><text dominant-baseline="middle" fill="black" font-family="Arial" font-size="12px" font-weight="bold" text-anchor="middle" x="503.359375" y="198.75">Common Room</text></g><g id="room_bathroom"><polygon fill="rgb(173,216,230)" fill-opacity="0.7" points="501.25,270.46875 501.25,340.078125 570.859375,340.078125 570.859375,272.578125" stroke="black" stroke-width="1.5" /><text dominant-baseline="middle" fill="black" font-family="Arial" font-size="12px" font-weight="bold" text-anchor="middle" x="537.109375" y="306.328125">Bathroom</text></g><g id="room_kitchen"><polygon fill="rgb(240,128,128)" fill-opacity="0.7" points="271.328125,152.34375 271.328125,209.296875 347.265625,209.296875 347.265625,152.34375" stroke="black" stroke-width="1.5" /><text dominant-baseline="middle" fill="black" font-family="Arial" font-size="12px" font-weight="bold" text-anchor="middle" x="310.3515625" y="181.875">Kitchen</text></g><g id="room_balcony"><polygon fill="rgb(107,142,35)" fill-opacity="0.7" points="328.28125,432.890625 328.28125,466.640625 452.734375,466.640625 452.734375,432.890625" stroke="black" stroke-width="1.5" /><text dominant-baseline="middle" fill="black" font-family="Arial" font-size="12px" font-weight="bold" text-anchor="middle" x="391.5625" y="450.8203125">Balcony</text></g><g id="room_room_8"><polygon fill="rgb(221,160,221)" fill-opacity="0.7" points="229.140625,318.984375 229.140625,350.625 260.78125,350.625 260.78125,318.984375" stroke="black" stroke-width="1.5" /><text dominant-baseline="middle" fill="black" font-family="Arial" font-size="12px" font-weight="bold" text-anchor="middle" x="246.015625" y="335.859375">Room 8</text></g><rect fill="red" fill-opacity="0.9" height="35.859375" id="main_door" stroke="darkred" stroke-width="3" width="10.546875" x="218.59375" y="272.578125" /><text dominant-baseline="middle" fill="white" font-family="Arial" font-size="9px" font-weight="bold" text-anchor="middle" x="223.8671875" y="290.5078125">Main Door</text><text fill="black" font-family="Arial" font-size="18px" font-weight="bold" text-anchor="middle" x="400.0" y="30">Floor Plan - ID: 21555</text></svg>