<?xml version="1.0" encoding="utf-8" ?>
<svg baseProfile="full" height="600px" version="1.1" viewBox="0 0 800 600" width="800px" xmlns="http://www.w3.org/2000/svg" xmlns:ev="http://www.w3.org/2001/xml-events" xmlns:xlink="http://www.w3.org/1999/xlink"><defs /><rect fill="white" height="600" width="800" x="0" y="0" /><polygon fill="none" id="floor_plan_boundary" points="252.34375,118.59375 252.34375,228.28125 290.3125,230.390625 290.3125,464.53125 305.078125,464.53125 307.1875,481.40625 503.359375,481.40625 503.359375,466.640625 518.125,464.53125 518.125,230.390625 547.65625,228.28125 547.65625,118.59375 467.5,118.59375 467.5,127.03125 539.21875,129.140625 539.21875,217.734375 509.6875,219.84375 509.6875,453.984375 494.921875,456.09375 492.8125,472.96875 317.734375,472.96875 315.625,456.09375 298.75,453.984375 298.75,219.84375 260.78125,217.734375 260.78125,129.140625 425.3125,127.03125 425.3125,118.59375" stroke="black" stroke-linecap="butt" stroke-linejoin="miter" stroke-width="4" /><g id="room_living_room"><polygon fill="rgb(238,232,170)" fill-opacity="0.7" points="370.46875,129.140625 370.46875,217.734375 404.21875,219.84375 404.21875,424.453125 507.578125,424.453125 507.578125,291.5625 467.5,289.453125 469.609375,129.140625" stroke="black" stroke-width="1.5" /><text dominant-baseline="middle" fill="black" font-family="Arial" font-size="12px" font-weight="bold" text-anchor="middle" x="440.078125" y="277.8515625">Living Room</text></g><g id="room_master_bedroom"><polygon fill="rgb(255,165,0)" fill-opacity="0.7" points="300.859375,318.984375 300.859375,424.453125 391.5625,424.453125 391.5625,318.984375" stroke="black" stroke-width="1.5" /><text dominant-baseline="middle" fill="black" font-family="Arial" font-size="12px" font-weight="bold" text-anchor="middle" x="347.265625" y="372.7734375">Master Bedroom</text></g><g id="room_common_room_2"><polygon fill="rgb(255,215,0)" fill-opacity="0.7" points="262.890625,129.140625 262.890625,217.734375 357.8125,217.734375 357.8125,129.140625" stroke="black" stroke-width="1.5" /><text dominant-baseline="middle" fill="black" font-family="Arial" font-size="12px" font-weight="bold" text-anchor="middle" x="311.40625" y="174.4921875">Common Room 2</text></g><g id="room_common_room"><polygon fill="rgb(255,215,0)" fill-opacity="0.7" points="300.859375,230.390625 300.859375,306.328125 391.5625,306.328125 391.5625,230.390625" stroke="black" stroke-width="1.5" /><text dominant-baseline="middle" fill="black" font-family="Arial" font-size="12px" font-weight="bold" text-anchor="middle" x="347.265625" y="269.4140625">Common Room</text></g><g id="room_kitchen"><polygon fill="rgb(240,128,128)" fill-opacity="0.7" points="482.265625,129.140625 482.265625,217.734375 537.109375,217.734375 537.109375,129.140625" stroke="black" stroke-width="1.5" /><text dominant-baseline="middle" fill="black" font-family="Arial" font-size="12px" font-weight="bold" text-anchor="middle" x="510.7421875" y="174.4921875">Kitchen</text></g><g id="room_balcony_2"><polygon fill="rgb(107,142,35)" fill-opacity="0.7" points="300.859375,437.109375 300.859375,453.984375 315.625,453.984375 317.734375,470.859375 400.0,470.859375 400.0,437.109375" stroke="black" stroke-width="1.5" /><text dominant-baseline="middle" fill="black" font-family="Arial" font-size="12px" font-weight="bold" text-anchor="middle" x="351.484375" y="455.0390625">Balcony 2</text></g><g id="room_balcony"><polygon fill="rgb(107,142,35)" fill-opacity="0.7" points="412.65625,437.109375 412.65625,470.859375 492.8125,470.859375 492.8125,456.09375 507.578125,453.984375 507.578125,437.109375" stroke="black" stroke-width="1.5" /><text dominant-baseline="middle" fill="black" font-family="Arial" font-size="12px" font-weight="bold" text-anchor="middle" x="461.171875" y="455.0390625">Balcony</text></g><g id="room_bathroom"><polygon fill="rgb(173,216,230)" fill-opacity="0.7" points="480.15625,230.390625 480.15625,278.90625 507.578125,278.90625 507.578125,230.390625" stroke="black" stroke-width="1.5" /><text dominant-baseline="middle" fill="black" font-family="Arial" font-size="12px" font-weight="bold" text-anchor="middle" x="494.921875" y="255.703125">Bathroom</text></g><rect fill="red" fill-opacity="0.9" height="10.546875" id="main_door" stroke="darkred" stroke-width="3" width="40.078125" x="427.421875" y="118.59375" /><text dominant-baseline="middle" fill="white" font-family="Arial" font-size="9px" font-weight="bold" text-anchor="middle" x="447.4609375" y="123.8671875">Main Door</text><text fill="black" font-family="Arial" font-size="18px" font-weight="bold" text-anchor="middle" x="400.0" y="30">Floor Plan - ID: 21584</text></svg>