<?xml version="1.0" encoding="utf-8" ?>
<svg baseProfile="full" height="600px" version="1.1" viewBox="0 0 800 600" width="800px" xmlns="http://www.w3.org/2000/svg" xmlns:ev="http://www.w3.org/2001/xml-events" xmlns:xlink="http://www.w3.org/1999/xlink"><defs /><rect fill="white" height="600" width="800" x="0" y="0" /><polygon fill="none" id="floor_plan_boundary" points="330.390625,70.078125 330.390625,217.734375 338.828125,217.734375 340.9375,78.515625 446.40625,78.515625 448.515625,143.90625 503.359375,146.015625 503.359375,462.421875 484.375,464.53125 482.265625,487.734375 429.53125,487.734375 427.421875,464.53125 395.78125,464.53125 393.671875,521.484375 296.640625,519.375 296.640625,264.140625 338.828125,262.03125 338.828125,255.703125 288.203125,253.59375 288.203125,529.921875 404.21875,529.921875 406.328125,472.96875 418.984375,475.078125 418.984375,496.171875 492.8125,496.171875 492.8125,475.078125 511.796875,472.96875 511.796875,135.46875 456.953125,133.359375 456.953125,70.078125" stroke="black" stroke-linecap="butt" stroke-linejoin="miter" stroke-width="4" /><g id="room_living_room"><polygon fill="rgb(238,232,170)" fill-opacity="0.7" points="340.9375,146.015625 340.9375,251.484375 357.8125,253.59375 357.8125,346.40625 393.671875,346.40625 395.78125,306.328125 501.25,306.328125 501.25,146.015625" stroke="black" stroke-width="1.5" /><text dominant-baseline="middle" fill="black" font-family="Arial" font-size="12px" font-weight="bold" text-anchor="middle" x="422.1484375" y="247.265625">Living Room</text></g><g id="room_common_room"><polygon fill="rgb(255,215,0)" fill-opacity="0.7" points="406.328125,318.984375 406.328125,462.421875 427.421875,462.421875 429.53125,485.625 482.265625,485.625 482.265625,464.53125 501.25,462.421875 501.25,318.984375" stroke="black" stroke-width="1.5" /><text dominant-baseline="middle" fill="black" font-family="Arial" font-size="12px" font-weight="bold" text-anchor="middle" x="454.84375" y="403.359375">Common Room</text></g><g id="room_master_bedroom"><polygon fill="rgb(255,165,0)" fill-opacity="0.7" points="298.75,359.0625 298.75,462.421875 393.671875,462.421875 393.671875,359.0625" stroke="black" stroke-width="1.5" /><text dominant-baseline="middle" fill="black" font-family="Arial" font-size="12px" font-weight="bold" text-anchor="middle" x="347.265625" y="411.796875">Master Bedroom</text></g><g id="room_kitchen"><polygon fill="rgb(240,128,128)" fill-opacity="0.7" points="340.9375,80.625 340.9375,133.359375 446.40625,133.359375 446.40625,80.625" stroke="black" stroke-width="1.5" /><text dominant-baseline="middle" fill="black" font-family="Arial" font-size="12px" font-weight="bold" text-anchor="middle" x="394.7265625" y="108.046875">Kitchen</text></g><g id="room_balcony"><polygon fill="rgb(107,142,35)" fill-opacity="0.7" points="298.75,475.078125 298.75,519.375 393.671875,519.375 393.671875,475.078125" stroke="black" stroke-width="1.5" /><text dominant-baseline="middle" fill="black" font-family="Arial" font-size="12px" font-weight="bold" text-anchor="middle" x="347.265625" y="498.28125">Balcony</text></g><g id="room_bathroom"><polygon fill="rgb(173,216,230)" fill-opacity="0.7" points="298.75,264.140625 298.75,346.40625 345.15625,346.40625 345.15625,264.140625" stroke="black" stroke-width="1.5" /><text dominant-baseline="middle" fill="black" font-family="Arial" font-size="12px" font-weight="bold" text-anchor="middle" x="323.0078125" y="306.328125">Bathroom</text></g><rect fill="red" fill-opacity="0.9" height="35.859375" id="main_door" stroke="darkred" stroke-width="3" width="10.546875" x="330.390625" y="219.84375" /><text dominant-baseline="middle" fill="white" font-family="Arial" font-size="9px" font-weight="bold" text-anchor="middle" x="335.6640625" y="237.7734375">Main Door</text><text fill="black" font-family="Arial" font-size="18px" font-weight="bold" text-anchor="middle" x="400.0" y="30">Floor Plan - ID: 21623</text></svg>