<?xml version="1.0" encoding="utf-8" ?>
<svg baseProfile="full" height="600px" version="1.1" viewBox="0 0 800 600" width="800px" xmlns="http://www.w3.org/2000/svg" xmlns:ev="http://www.w3.org/2001/xml-events" xmlns:xlink="http://www.w3.org/1999/xlink"><defs /><rect fill="white" height="600" width="800" x="0" y="0" /><polygon fill="none" id="floor_plan_boundary" points="260.78125,72.1875 260.78125,91.171875 250.234375,93.28125 250.234375,274.6875 309.296875,274.6875 309.296875,266.25 258.671875,264.140625 258.671875,103.828125 269.21875,101.71875 271.328125,80.625 435.859375,80.625 437.96875,148.125 541.328125,150.234375 541.328125,517.265625 433.75,519.375 431.640625,466.640625 410.546875,466.640625 408.4375,483.515625 340.9375,483.515625 338.828125,466.640625 311.40625,466.640625 309.296875,304.21875 300.859375,304.21875 300.859375,475.078125 328.28125,475.078125 330.390625,491.953125 418.984375,491.953125 421.09375,475.078125 423.203125,527.8125 547.65625,527.8125 549.765625,141.796875 448.515625,139.6875 446.40625,72.1875" stroke="black" stroke-linecap="butt" stroke-linejoin="miter" stroke-width="4" /><g id="room_living_room"><polygon fill="rgb(238,232,170)" fill-opacity="0.7" points="271.328125,82.734375 271.328125,101.71875 260.78125,103.828125 260.78125,264.140625 309.296875,264.140625 311.40625,306.328125 461.171875,306.328125 461.171875,274.6875 423.203125,272.578125 423.203125,148.125 332.5,148.125 330.390625,82.734375" stroke="black" stroke-width="1.5" /><text dominant-baseline="middle" fill="black" font-family="Arial" font-size="12px" font-weight="bold" text-anchor="middle" x="362.03125" y="195.5859375">Living Room</text></g><g id="room_common_room"><polygon fill="rgb(255,215,0)" fill-opacity="0.7" points="311.40625,314.765625 311.40625,464.53125 338.828125,464.53125 340.9375,481.40625 408.4375,481.40625 408.4375,466.640625 423.203125,464.53125 423.203125,314.765625" stroke="black" stroke-width="1.5" /><text dominant-baseline="middle" fill="black" font-family="Arial" font-size="12px" font-weight="bold" text-anchor="middle" x="368.359375" y="399.140625">Common Room</text></g><g id="room_master_bedroom"><polygon fill="rgb(255,165,0)" fill-opacity="0.7" points="431.640625,314.765625 431.640625,464.53125 539.21875,464.53125 539.21875,337.96875 463.28125,337.96875 461.171875,314.765625" stroke="black" stroke-width="1.5" /><text dominant-baseline="middle" fill="black" font-family="Arial" font-size="12px" font-weight="bold" text-anchor="middle" x="486.484375" y="390.703125">Master Bedroom</text></g><g id="room_common_room_2"><polygon fill="rgb(255,215,0)" fill-opacity="0.7" points="431.640625,148.125 431.640625,266.25 539.21875,266.25 539.21875,150.234375" stroke="black" stroke-width="1.5" /><text dominant-baseline="middle" fill="black" font-family="Arial" font-size="12px" font-weight="bold" text-anchor="middle" x="486.484375" y="208.2421875">Common Room 2</text></g><g id="room_kitchen"><polygon fill="rgb(240,128,128)" fill-opacity="0.7" points="338.828125,82.734375 338.828125,139.6875 435.859375,139.6875 435.859375,82.734375" stroke="black" stroke-width="1.5" /><text dominant-baseline="middle" fill="black" font-family="Arial" font-size="12px" font-weight="bold" text-anchor="middle" x="388.3984375" y="112.265625">Kitchen</text></g><g id="room_balcony"><polygon fill="rgb(107,142,35)" fill-opacity="0.7" points="433.75,477.1875 433.75,517.265625 539.21875,517.265625 539.21875,477.1875" stroke="black" stroke-width="1.5" /><text dominant-baseline="middle" fill="black" font-family="Arial" font-size="12px" font-weight="bold" text-anchor="middle" x="487.5390625" y="498.28125">Balcony</text></g><g id="room_bathroom"><polygon fill="rgb(173,216,230)" fill-opacity="0.7" points="469.609375,274.6875 469.609375,329.53125 539.21875,329.53125 539.21875,274.6875" stroke="black" stroke-width="1.5" /><text dominant-baseline="middle" fill="black" font-family="Arial" font-size="12px" font-weight="bold" text-anchor="middle" x="505.46875" y="303.1640625">Bathroom</text></g><rect fill="red" fill-opacity="0.9" height="27.421875" id="main_door" stroke="darkred" stroke-width="3" width="10.546875" x="300.859375" y="276.796875" /><text dominant-baseline="middle" fill="white" font-family="Arial" font-size="9px" font-weight="bold" text-anchor="middle" x="306.1328125" y="290.5078125">Main Door</text><text fill="black" font-family="Arial" font-size="18px" font-weight="bold" text-anchor="middle" x="400.0" y="30">Floor Plan - ID: 21635</text></svg>