<?xml version="1.0" encoding="utf-8" ?>
<svg baseProfile="full" height="600px" version="1.1" viewBox="0 0 800 600" width="800px" xmlns="http://www.w3.org/2000/svg" xmlns:ev="http://www.w3.org/2001/xml-events" xmlns:xlink="http://www.w3.org/1999/xlink"><defs /><rect fill="white" height="600" width="800" x="0" y="0" /><polygon fill="none" id="floor_plan_boundary" points="235.46875,141.796875 235.46875,293.671875 298.75,295.78125 298.75,458.203125 522.34375,458.203125 522.34375,213.515625 564.53125,211.40625 564.53125,141.796875 454.84375,141.796875 454.84375,171.328125 463.28125,171.328125 465.390625,150.234375 556.09375,152.34375 556.09375,200.859375 513.90625,202.96875 511.796875,449.765625 307.1875,447.65625 307.1875,285.234375 243.90625,283.125 243.90625,152.34375 296.640625,150.234375 298.75,171.328125 418.984375,169.21875 418.984375,160.78125 309.296875,160.78125 307.1875,141.796875" stroke="black" stroke-linecap="butt" stroke-linejoin="miter" stroke-width="4" /><g id="room_living_room"><polygon fill="rgb(238,232,170)" fill-opacity="0.7" points="345.15625,171.328125 343.046875,272.578125 309.296875,274.6875 309.296875,390.703125 412.65625,390.703125 412.65625,270.46875 454.84375,266.25 454.84375,173.4375" stroke="black" stroke-width="1.5" /><text dominant-baseline="middle" fill="black" font-family="Arial" font-size="12px" font-weight="bold" text-anchor="middle" x="383.125" y="282.0703125">Living Room</text></g><g id="room_master_bedroom"><polygon fill="rgb(255,165,0)" fill-opacity="0.7" points="423.203125,274.6875 425.3125,390.703125 511.796875,390.703125 511.796875,274.6875" stroke="black" stroke-width="1.5" /><text dominant-baseline="middle" fill="black" font-family="Arial" font-size="12px" font-weight="bold" text-anchor="middle" x="468.5546875" y="333.75">Master Bedroom</text></g><g id="room_common_room"><polygon fill="rgb(255,215,0)" fill-opacity="0.7" points="246.015625,152.34375 246.015625,283.125 296.640625,283.125 298.75,266.25 334.609375,266.25 334.609375,173.4375 298.75,173.4375 296.640625,152.34375" stroke="black" stroke-width="1.5" /><text dominant-baseline="middle" fill="black" font-family="Arial" font-size="12px" font-weight="bold" text-anchor="middle" x="291.3671875" y="218.7890625">Common Room</text></g><g id="room_balcony"><polygon fill="rgb(107,142,35)" fill-opacity="0.7" points="309.296875,403.359375 309.296875,447.65625 511.796875,447.65625 511.796875,403.359375" stroke="black" stroke-width="1.5" /><text dominant-baseline="middle" fill="black" font-family="Arial" font-size="12px" font-weight="bold" text-anchor="middle" x="411.6015625" y="426.5625">Balcony</text></g><g id="room_kitchen"><polygon fill="rgb(240,128,128)" fill-opacity="0.7" points="465.390625,152.34375 463.28125,202.96875 553.984375,200.859375 553.984375,152.34375" stroke="black" stroke-width="1.5" /><text dominant-baseline="middle" fill="black" font-family="Arial" font-size="12px" font-weight="bold" text-anchor="middle" x="509.6875" y="178.7109375">Kitchen</text></g><g id="room_bathroom"><polygon fill="rgb(173,216,230)" fill-opacity="0.7" points="463.28125,211.40625 463.28125,266.25 511.796875,266.25 511.796875,211.40625" stroke="black" stroke-width="1.5" /><text dominant-baseline="middle" fill="black" font-family="Arial" font-size="12px" font-weight="bold" text-anchor="middle" x="488.59375" y="239.8828125">Bathroom</text></g><rect fill="red" fill-opacity="0.9" height="10.546875" id="main_door" stroke="darkred" stroke-width="3" width="35.859375" x="421.09375" y="160.78125" /><text dominant-baseline="middle" fill="white" font-family="Arial" font-size="9px" font-weight="bold" text-anchor="middle" x="439.0234375" y="166.0546875">Main Door</text><text fill="black" font-family="Arial" font-size="18px" font-weight="bold" text-anchor="middle" x="400.0" y="30">Floor Plan - ID: 21759</text></svg>