<?xml version="1.0" encoding="utf-8" ?>
<svg baseProfile="full" height="600px" version="1.1" viewBox="0 0 800 600" width="800px" xmlns="http://www.w3.org/2000/svg" xmlns:ev="http://www.w3.org/2001/xml-events" xmlns:xlink="http://www.w3.org/1999/xlink"><defs /><rect fill="white" height="600" width="800" x="0" y="0" /><polygon fill="none" id="floor_plan_boundary" points="250.234375,133.359375 250.234375,306.328125 292.421875,308.4375 292.421875,439.21875 381.015625,439.21875 383.125,468.75 406.328125,468.75 406.328125,460.3125 391.5625,458.203125 391.5625,430.78125 300.859375,428.671875 300.859375,302.109375 254.453125,300.0 254.453125,139.6875 520.234375,141.796875 520.234375,304.21875 501.25,306.328125 501.25,386.484375 541.328125,388.59375 541.328125,428.671875 501.25,430.78125 499.140625,460.3125 435.859375,460.3125 435.859375,468.75 509.6875,468.75 511.796875,439.21875 549.765625,439.21875 549.765625,378.046875 509.6875,375.9375 509.6875,316.875 528.671875,314.765625 528.671875,131.25" stroke="black" stroke-linecap="butt" stroke-linejoin="miter" stroke-width="4" /><g id="room_living_room"><polygon fill="rgb(238,232,170)" fill-opacity="0.7" points="408.4375,194.53125 404.21875,232.5 302.96875,230.390625 302.96875,428.671875 391.5625,428.671875 393.671875,458.203125 435.859375,458.203125 435.859375,194.53125" stroke="black" stroke-width="1.5" /><text dominant-baseline="middle" fill="black" font-family="Arial" font-size="12px" font-weight="bold" text-anchor="middle" x="370.46875" y="327.421875">Living Room</text></g><g id="room_master_bedroom"><polygon fill="rgb(255,165,0)" fill-opacity="0.7" points="302.96875,141.796875 302.96875,221.953125 400.0,221.953125 400.0,188.203125 416.875,186.09375 416.875,141.796875" stroke="black" stroke-width="1.5" /><text dominant-baseline="middle" fill="black" font-family="Arial" font-size="12px" font-weight="bold" text-anchor="middle" x="360.9765625" y="182.9296875">Master Bedroom</text></g><g id="room_common_room_2"><polygon fill="rgb(255,215,0)" fill-opacity="0.7" points="425.3125,141.796875 425.3125,186.09375 444.296875,188.203125 444.296875,221.953125 518.125,221.953125 518.125,141.796875" stroke="black" stroke-width="1.5" /><text dominant-baseline="middle" fill="black" font-family="Arial" font-size="12px" font-weight="bold" text-anchor="middle" x="472.7734375" y="182.9296875">Common Room 2</text></g><g id="room_common_room"><polygon fill="rgb(255,215,0)" fill-opacity="0.7" points="444.296875,230.390625 444.296875,304.21875 518.125,304.21875 518.125,230.390625" stroke="black" stroke-width="1.5" /><text dominant-baseline="middle" fill="black" font-family="Arial" font-size="12px" font-weight="bold" text-anchor="middle" x="482.265625" y="268.359375">Common Room</text></g><g id="room_balcony_2"><polygon fill="rgb(107,142,35)" fill-opacity="0.7" points="256.5625,139.6875 256.5625,300.0 290.3125,300.0 290.3125,139.6875" stroke="black" stroke-width="1.5" /><text dominant-baseline="middle" fill="black" font-family="Arial" font-size="12px" font-weight="bold" text-anchor="middle" x="274.4921875" y="220.8984375">Balcony 2</text></g><g id="room_kitchen"><polygon fill="rgb(240,128,128)" fill-opacity="0.7" points="444.296875,386.484375 444.296875,458.203125 499.140625,458.203125 499.140625,386.484375" stroke="black" stroke-width="1.5" /><text dominant-baseline="middle" fill="black" font-family="Arial" font-size="12px" font-weight="bold" text-anchor="middle" x="472.7734375" y="423.3984375">Kitchen</text></g><g id="room_bathroom"><polygon fill="rgb(173,216,230)" fill-opacity="0.7" points="444.296875,316.875 444.296875,378.046875 499.140625,378.046875 499.140625,316.875" stroke="black" stroke-width="1.5" /><text dominant-baseline="middle" fill="black" font-family="Arial" font-size="12px" font-weight="bold" text-anchor="middle" x="472.7734375" y="348.515625">Bathroom</text></g><g id="room_balcony"><polygon fill="rgb(107,142,35)" fill-opacity="0.7" points="511.796875,388.59375 511.796875,428.671875 539.21875,428.671875 539.21875,388.59375" stroke="black" stroke-width="1.5" /><text dominant-baseline="middle" fill="black" font-family="Arial" font-size="12px" font-weight="bold" text-anchor="middle" x="526.5625" y="409.6875">Balcony</text></g><rect fill="red" fill-opacity="0.9" height="10.546875" id="main_door" stroke="darkred" stroke-width="3" width="27.421875" x="408.4375" y="460.3125" /><text dominant-baseline="middle" fill="white" font-family="Arial" font-size="9px" font-weight="bold" text-anchor="middle" x="422.1484375" y="465.5859375">Main Door</text><text fill="black" font-family="Arial" font-size="18px" font-weight="bold" text-anchor="middle" x="400.0" y="30">Floor Plan - ID: 21894</text></svg>