<?xml version="1.0" encoding="utf-8" ?>
<svg baseProfile="full" height="600px" version="1.1" viewBox="0 0 800 600" width="800px" xmlns="http://www.w3.org/2000/svg" xmlns:ev="http://www.w3.org/2001/xml-events" xmlns:xlink="http://www.w3.org/1999/xlink"><defs /><rect fill="white" height="600" width="800" x="0" y="0" /><polygon fill="none" id="floor_plan_boundary" points="184.84375,150.234375 184.84375,323.203125 298.75,323.203125 305.078125,401.25 309.296875,314.765625 193.28125,312.65625 195.390625,158.671875 218.59375,158.671875 218.59375,141.796875 286.09375,141.796875 288.203125,158.671875 302.96875,158.671875 305.078125,133.359375 475.9375,141.796875 475.9375,158.671875 543.4375,158.671875 543.4375,133.359375 608.828125,133.359375 610.9375,192.421875 585.625,194.53125 583.515625,435.0 475.9375,435.0 473.828125,462.421875 368.359375,462.421875 366.25,392.8125 347.265625,392.8125 357.8125,403.359375 357.8125,470.859375 484.375,470.859375 486.484375,443.4375 594.0625,443.4375 594.0625,200.859375 615.15625,198.75 615.15625,129.140625 537.109375,129.140625 535.0,150.234375 484.375,150.234375 482.265625,137.578125 402.109375,137.578125 400.0,129.140625 298.75,129.140625 296.640625,150.234375 292.421875,137.578125 212.265625,137.578125 210.15625,150.234375" stroke="black" stroke-linecap="butt" stroke-linejoin="miter" stroke-width="4" /><g id="room_living_room"><polygon fill="rgb(238,232,170)" fill-opacity="0.7" points="402.109375,143.90625 402.109375,160.78125 372.578125,160.78125 370.46875,194.53125 307.1875,194.53125 307.1875,264.140625 273.4375,266.25 273.4375,312.65625 311.40625,314.765625 311.40625,390.703125 368.359375,392.8125 368.359375,460.3125 473.828125,460.3125 473.828125,293.671875 516.015625,291.5625 516.015625,262.03125 473.828125,259.921875 475.9375,143.90625" stroke="black" stroke-width="1.5" /><text dominant-baseline="middle" fill="black" font-family="Arial" font-size="12px" font-weight="bold" text-anchor="middle" x="395.78125" y="303.1640625">Living Room</text></g><g id="room_master_bedroom"><polygon fill="rgb(255,165,0)" fill-opacity="0.7" points="486.484375,300.0 486.484375,432.890625 583.515625,432.890625 583.515625,329.53125 518.125,329.53125 516.015625,300.0" stroke="black" stroke-width="1.5" /><text dominant-baseline="middle" fill="black" font-family="Arial" font-size="12px" font-weight="bold" text-anchor="middle" x="536.0546875" y="367.5">Master Bedroom</text></g><g id="room_common_room"><polygon fill="rgb(255,215,0)" fill-opacity="0.7" points="195.390625,160.78125 195.390625,257.8125 294.53125,257.8125 294.53125,160.78125 286.09375,158.671875 286.09375,143.90625 218.59375,143.90625 218.59375,160.78125" stroke="black" stroke-width="1.5" /><text dominant-baseline="middle" fill="black" font-family="Arial" font-size="12px" font-weight="bold" text-anchor="middle" x="246.015625" y="201.9140625">Common Room</text></g><g id="room_common_room_2"><polygon fill="rgb(255,215,0)" fill-opacity="0.7" points="608.828125,135.46875 543.4375,135.46875 543.4375,160.78125 486.484375,160.78125 486.484375,253.59375 516.015625,253.59375 518.125,234.609375 583.515625,234.609375 583.515625,194.53125 608.828125,192.421875" stroke="black" stroke-width="1.5" /><text dominant-baseline="middle" fill="black" font-family="Arial" font-size="12px" font-weight="bold" text-anchor="middle" x="548.7109375" y="195.5859375">Common Room 2</text></g><g id="room_bathroom_2"><polygon fill="rgb(173,216,230)" fill-opacity="0.7" points="524.453125,243.046875 524.453125,321.09375 583.515625,321.09375 583.515625,243.046875" stroke="black" stroke-width="1.5" /><text dominant-baseline="middle" fill="black" font-family="Arial" font-size="12px" font-weight="bold" text-anchor="middle" x="555.0390625" y="283.125">Bathroom 2</text></g><g id="room_balcony"><polygon fill="rgb(107,142,35)" fill-opacity="0.7" points="307.1875,186.09375 364.140625,186.09375 362.03125,150.234375 393.671875,148.125 393.671875,135.46875 305.078125,135.46875" stroke="black" stroke-width="1.5" /><text dominant-baseline="middle" fill="black" font-family="Arial" font-size="12px" font-weight="bold" text-anchor="middle" x="350.4296875" y="161.8359375">Balcony</text></g><g id="room_bathroom"><polygon fill="rgb(173,216,230)" fill-opacity="0.7" points="195.390625,266.25 195.390625,312.65625 265.0,312.65625 265.0,266.25" stroke="black" stroke-width="1.5" /><text dominant-baseline="middle" fill="black" font-family="Arial" font-size="12px" font-weight="bold" text-anchor="middle" x="231.25" y="290.5078125">Bathroom</text></g><rect fill="red" fill-opacity="0.9" height="10.546875" id="main_door" stroke="darkred" stroke-width="3" width="40.078125" x="307.1875" y="392.8125" /><text dominant-baseline="middle" fill="white" font-family="Arial" font-size="9px" font-weight="bold" text-anchor="middle" x="327.2265625" y="398.0859375">Main Door</text><text fill="black" font-family="Arial" font-size="18px" font-weight="bold" text-anchor="middle" x="400.0" y="30">Floor Plan - ID: 22743</text></svg>