<?xml version="1.0" encoding="utf-8" ?>
<svg baseProfile="full" height="600px" version="1.1" viewBox="0 0 800 600" width="800px" xmlns="http://www.w3.org/2000/svg" xmlns:ev="http://www.w3.org/2001/xml-events" xmlns:xlink="http://www.w3.org/1999/xlink"><defs /><rect fill="white" height="600" width="800" x="0" y="0" /><polygon fill="none" id="floor_plan_boundary" points="229.140625,192.421875 229.140625,367.5 258.671875,367.5 258.671875,359.0625 237.578125,356.953125 239.6875,200.859375 298.75,200.859375 300.859375,181.875 383.125,181.875 385.234375,200.859375 530.78125,200.859375 532.890625,348.515625 562.421875,350.625 560.3125,418.125 332.5,418.125 330.390625,359.0625 288.203125,359.0625 288.203125,367.5 321.953125,369.609375 321.953125,426.5625 570.859375,426.5625 570.859375,340.078125 541.328125,337.96875 541.328125,192.421875 395.78125,192.421875 393.671875,173.4375 290.3125,173.4375 288.203125,192.421875" stroke="black" stroke-linecap="butt" stroke-linejoin="miter" stroke-width="4" /><g id="room_living_room"><polygon fill="rgb(238,232,170)" fill-opacity="0.7" points="300.859375,183.984375 298.75,316.875 239.6875,318.984375 239.6875,356.953125 330.390625,356.953125 332.5,416.015625 406.328125,416.015625 406.328125,340.078125 446.40625,337.96875 446.40625,312.65625 406.328125,310.546875 406.328125,202.96875 385.234375,202.96875 383.125,183.984375" stroke="black" stroke-width="1.5" /><text dominant-baseline="middle" fill="black" font-family="Arial" font-size="12px" font-weight="bold" text-anchor="middle" x="344.1015625" y="301.0546875">Living Room</text></g><g id="room_master_bedroom"><polygon fill="rgb(255,165,0)" fill-opacity="0.7" points="418.984375,202.96875 418.984375,304.21875 448.515625,304.21875 452.734375,283.125 530.78125,285.234375 530.78125,202.96875" stroke="black" stroke-width="1.5" /><text dominant-baseline="middle" fill="black" font-family="Arial" font-size="12px" font-weight="bold" text-anchor="middle" x="475.9375" y="254.6484375">Master Bedroom</text></g><g id="room_common_room"><polygon fill="rgb(255,215,0)" fill-opacity="0.7" points="418.984375,350.625 418.984375,416.015625 530.78125,416.015625 530.78125,350.625" stroke="black" stroke-width="1.5" /><text dominant-baseline="middle" fill="black" font-family="Arial" font-size="12px" font-weight="bold" text-anchor="middle" x="475.9375" y="384.375">Common Room</text></g><g id="room_kitchen"><polygon fill="rgb(240,128,128)" fill-opacity="0.7" points="239.6875,202.96875 239.6875,310.546875 290.3125,310.546875 290.3125,202.96875" stroke="black" stroke-width="1.5" /><text dominant-baseline="middle" fill="black" font-family="Arial" font-size="12px" font-weight="bold" text-anchor="middle" x="266.0546875" y="257.8125">Kitchen</text></g><g id="room_bathroom"><polygon fill="rgb(173,216,230)" fill-opacity="0.7" points="456.953125,293.671875 459.0625,337.96875 530.78125,337.96875 530.78125,293.671875" stroke="black" stroke-width="1.5" /><text dominant-baseline="middle" fill="black" font-family="Arial" font-size="12px" font-weight="bold" text-anchor="middle" x="494.921875" y="316.875">Bathroom</text></g><g id="room_balcony"><polygon fill="rgb(107,142,35)" fill-opacity="0.7" points="543.4375,350.625 543.4375,416.015625 560.3125,416.015625 560.3125,350.625" stroke="black" stroke-width="1.5" /><text dominant-baseline="middle" fill="black" font-family="Arial" font-size="12px" font-weight="bold" text-anchor="middle" x="552.9296875" y="384.375">Balcony</text></g><rect fill="red" fill-opacity="0.9" height="10.546875" id="main_door" stroke="darkred" stroke-width="3" width="27.421875" x="260.78125" y="359.0625" /><text dominant-baseline="middle" fill="white" font-family="Arial" font-size="9px" font-weight="bold" text-anchor="middle" x="274.4921875" y="364.3359375">Main Door</text><text fill="black" font-family="Arial" font-size="18px" font-weight="bold" text-anchor="middle" x="400.0" y="30">Floor Plan - ID: 22811</text></svg>