<?xml version="1.0" encoding="utf-8" ?>
<svg baseProfile="full" height="600px" version="1.1" viewBox="0 0 800 600" width="800px" xmlns="http://www.w3.org/2000/svg" xmlns:ev="http://www.w3.org/2001/xml-events" xmlns:xlink="http://www.w3.org/1999/xlink"><defs /><rect fill="white" height="600" width="800" x="0" y="0" /><polygon fill="none" id="floor_plan_boundary" points="262.890625,122.8125 265.0,424.453125 376.796875,424.453125 378.90625,504.609375 537.109375,504.609375 537.109375,262.03125 482.265625,262.03125 528.671875,268.359375 526.5625,496.171875 389.453125,496.171875 387.34375,420.234375 269.21875,418.125 271.328125,133.359375 406.328125,131.25 406.328125,99.609375 480.15625,99.609375 480.15625,232.5 488.59375,232.5 486.484375,95.390625 400.0,95.390625 397.890625,122.8125" stroke="black" stroke-linecap="butt" stroke-linejoin="miter" stroke-width="4" /><g id="room_living_room"><polygon fill="rgb(238,232,170)" fill-opacity="0.7" points="273.4375,234.609375 273.4375,382.265625 526.5625,382.265625 526.5625,350.625 452.734375,348.515625 452.734375,262.03125 480.15625,259.921875 480.15625,234.609375" stroke="black" stroke-width="1.5" /><text dominant-baseline="middle" fill="black" font-family="Arial" font-size="12px" font-weight="bold" text-anchor="middle" x="401.0546875" y="309.4921875">Living Room</text></g><g id="room_master_bedroom"><polygon fill="rgb(255,165,0)" fill-opacity="0.7" points="526.5625,390.703125 389.453125,392.8125 389.453125,494.0625 526.5625,494.0625" stroke="black" stroke-width="1.5" /><text dominant-baseline="middle" fill="black" font-family="Arial" font-size="12px" font-weight="bold" text-anchor="middle" x="459.0625" y="443.4375">Master Bedroom</text></g><g id="room_common_room"><polygon fill="rgb(255,215,0)" fill-opacity="0.7" points="273.4375,133.359375 273.4375,226.171875 397.890625,226.171875 397.890625,133.359375" stroke="black" stroke-width="1.5" /><text dominant-baseline="middle" fill="black" font-family="Arial" font-size="12px" font-weight="bold" text-anchor="middle" x="336.71875" y="180.8203125">Common Room</text></g><g id="room_kitchen"><polygon fill="rgb(240,128,128)" fill-opacity="0.7" points="406.328125,133.359375 406.328125,226.171875 478.046875,226.171875 478.046875,133.359375" stroke="black" stroke-width="1.5" /><text dominant-baseline="middle" fill="black" font-family="Arial" font-size="12px" font-weight="bold" text-anchor="middle" x="443.2421875" y="180.8203125">Kitchen</text></g><g id="room_bathroom"><polygon fill="rgb(173,216,230)" fill-opacity="0.7" points="461.171875,268.359375 461.171875,342.1875 526.5625,342.1875 526.5625,268.359375" stroke="black" stroke-width="1.5" /><text dominant-baseline="middle" fill="black" font-family="Arial" font-size="12px" font-weight="bold" text-anchor="middle" x="494.921875" y="306.328125">Bathroom</text></g><g id="room_balcony"><polygon fill="rgb(107,142,35)" fill-opacity="0.7" points="271.328125,390.703125 271.328125,418.125 376.796875,418.125 376.796875,390.703125" stroke="black" stroke-width="1.5" /><text dominant-baseline="middle" fill="black" font-family="Arial" font-size="12px" font-weight="bold" text-anchor="middle" x="325.1171875" y="405.46875">Balcony</text></g><g id="room_balcony_2"><polygon fill="rgb(107,142,35)" fill-opacity="0.7" points="406.328125,101.71875 406.328125,120.703125 480.15625,120.703125 480.15625,101.71875" stroke="black" stroke-width="1.5" /><text dominant-baseline="middle" fill="black" font-family="Arial" font-size="12px" font-weight="bold" text-anchor="middle" x="444.296875" y="112.265625">Balcony 2</text></g><rect fill="red" fill-opacity="0.9" height="27.421875" id="main_door" stroke="darkred" stroke-width="3" width="6.328125" x="482.265625" y="234.609375" /><text dominant-baseline="middle" fill="white" font-family="Arial" font-size="9px" font-weight="bold" text-anchor="middle" x="485.4296875" y="248.3203125">Main Door</text><text fill="black" font-family="Arial" font-size="18px" font-weight="bold" text-anchor="middle" x="400.0" y="30">Floor Plan - ID: 22979</text></svg>