<?xml version="1.0" encoding="utf-8" ?>
<svg baseProfile="full" height="600px" version="1.1" viewBox="0 0 800 600" width="800px" xmlns="http://www.w3.org/2000/svg" xmlns:ev="http://www.w3.org/2001/xml-events" xmlns:xlink="http://www.w3.org/1999/xlink"><defs /><rect fill="white" height="600" width="800" x="0" y="0" /><polygon fill="none" id="floor_plan_boundary" points="309.296875,131.25 309.296875,219.84375 281.875,221.953125 281.875,405.46875 298.75,407.578125 298.75,426.5625 385.234375,426.5625 385.234375,407.578125 391.5625,405.46875 393.671875,468.75 518.125,468.75 518.125,131.25 440.078125,131.25 440.078125,139.6875 509.6875,141.796875 507.578125,460.3125 404.21875,460.3125 402.109375,397.03125 376.796875,397.03125 374.6875,418.125 309.296875,418.125 307.1875,397.03125 290.3125,394.921875 290.3125,232.5 317.734375,230.390625 317.734375,141.796875 410.546875,139.6875 410.546875,131.25" stroke="black" stroke-linecap="butt" stroke-linejoin="miter" stroke-width="4" /><g id="room_living_room"><polygon fill="rgb(238,232,170)" fill-opacity="0.7" points="404.21875,141.796875 404.21875,230.390625 359.921875,232.5 359.921875,278.90625 402.109375,281.015625 402.109375,394.921875 507.578125,394.921875 507.578125,230.390625 444.296875,230.390625 442.1875,141.796875" stroke="black" stroke-width="1.5" /><text dominant-baseline="middle" fill="black" font-family="Arial" font-size="12px" font-weight="bold" text-anchor="middle" x="434.8046875" y="269.4140625">Living Room</text></g><g id="room_master_bedroom"><polygon fill="rgb(255,165,0)" fill-opacity="0.7" points="292.421875,291.5625 292.421875,394.921875 309.296875,397.03125 309.296875,416.015625 374.6875,416.015625 374.6875,397.03125 393.671875,394.921875 393.671875,291.5625" stroke="black" stroke-width="1.5" /><text dominant-baseline="middle" fill="black" font-family="Arial" font-size="12px" font-weight="bold" text-anchor="middle" x="344.1015625" y="354.84375">Master Bedroom</text></g><g id="room_common_room"><polygon fill="rgb(255,215,0)" fill-opacity="0.7" points="319.84375,141.796875 319.84375,219.84375 391.5625,219.84375 391.5625,141.796875" stroke="black" stroke-width="1.5" /><text dominant-baseline="middle" fill="black" font-family="Arial" font-size="12px" font-weight="bold" text-anchor="middle" x="356.7578125" y="181.875">Common Room</text></g><g id="room_balcony"><polygon fill="rgb(107,142,35)" fill-opacity="0.7" points="404.21875,407.578125 404.21875,458.203125 507.578125,458.203125 507.578125,407.578125" stroke="black" stroke-width="1.5" /><text dominant-baseline="middle" fill="black" font-family="Arial" font-size="12px" font-weight="bold" text-anchor="middle" x="456.953125" y="433.9453125">Balcony</text></g><g id="room_kitchen"><polygon fill="rgb(240,128,128)" fill-opacity="0.7" points="450.625,141.796875 450.625,221.953125 507.578125,221.953125 507.578125,141.796875" stroke="black" stroke-width="1.5" /><text dominant-baseline="middle" fill="black" font-family="Arial" font-size="12px" font-weight="bold" text-anchor="middle" x="480.15625" y="182.9296875">Kitchen</text></g><g id="room_bathroom"><polygon fill="rgb(173,216,230)" fill-opacity="0.7" points="292.421875,232.5 292.421875,278.90625 351.484375,278.90625 351.484375,232.5" stroke="black" stroke-width="1.5" /><text dominant-baseline="middle" fill="black" font-family="Arial" font-size="12px" font-weight="bold" text-anchor="middle" x="323.0078125" y="256.7578125">Bathroom</text></g><rect fill="red" fill-opacity="0.9" height="10.546875" id="main_door" stroke="darkred" stroke-width="3" width="27.421875" x="412.65625" y="131.25" /><text dominant-baseline="middle" fill="white" font-family="Arial" font-size="9px" font-weight="bold" text-anchor="middle" x="426.3671875" y="136.5234375">Main Door</text><text fill="black" font-family="Arial" font-size="18px" font-weight="bold" text-anchor="middle" x="400.0" y="30">Floor Plan - ID: 23080</text></svg>