<?xml version="1.0" encoding="utf-8" ?>
<svg baseProfile="full" height="600px" version="1.1" viewBox="0 0 800 600" width="800px" xmlns="http://www.w3.org/2000/svg" xmlns:ev="http://www.w3.org/2001/xml-events" xmlns:xlink="http://www.w3.org/1999/xlink"><defs /><rect fill="white" height="600" width="800" x="0" y="0" /><polygon fill="none" id="floor_plan_boundary" points="353.59375,89.0625 353.59375,205.078125 281.875,207.1875 281.875,460.3125 300.859375,460.3125 302.96875,481.40625 387.34375,481.40625 389.453125,510.9375 518.125,510.9375 518.125,112.265625 505.46875,112.265625 509.6875,500.390625 400.0,502.5 397.890625,472.96875 313.515625,472.96875 311.40625,451.875 290.3125,449.765625 290.3125,217.734375 362.03125,215.625 364.140625,97.5 463.28125,97.5 465.390625,120.703125 475.9375,120.703125 473.828125,89.0625" stroke="black" stroke-linecap="butt" stroke-linejoin="miter" stroke-width="4" /><g id="room_living_room"><polygon fill="rgb(238,232,170)" fill-opacity="0.7" points="507.578125,122.8125 473.828125,122.8125 473.828125,156.5625 440.078125,158.671875 440.078125,217.734375 400.0,217.734375 400.0,449.765625 507.578125,449.765625" stroke="black" stroke-width="1.5" /><text dominant-baseline="middle" fill="black" font-family="Arial" font-size="12px" font-weight="bold" text-anchor="middle" x="454.84375" y="287.34375">Living Room</text></g><g id="room_master_bedroom"><polygon fill="rgb(255,165,0)" fill-opacity="0.7" points="292.421875,327.421875 292.421875,449.765625 311.40625,449.765625 313.515625,470.859375 387.34375,470.859375 387.34375,327.421875" stroke="black" stroke-width="1.5" /><text dominant-baseline="middle" fill="black" font-family="Arial" font-size="12px" font-weight="bold" text-anchor="middle" x="340.9375" y="400.1953125">Master Bedroom</text></g><g id="room_common_room"><polygon fill="rgb(255,215,0)" fill-opacity="0.7" points="292.421875,217.734375 292.421875,314.765625 387.34375,314.765625 387.34375,217.734375" stroke="black" stroke-width="1.5" /><text dominant-baseline="middle" fill="black" font-family="Arial" font-size="12px" font-weight="bold" text-anchor="middle" x="340.9375" y="267.3046875">Common Room</text></g><g id="room_kitchen"><polygon fill="rgb(240,128,128)" fill-opacity="0.7" points="364.140625,99.609375 364.140625,150.234375 465.390625,150.234375 463.28125,99.609375" stroke="black" stroke-width="1.5" /><text dominant-baseline="middle" fill="black" font-family="Arial" font-size="12px" font-weight="bold" text-anchor="middle" x="415.8203125" y="125.9765625">Kitchen</text></g><g id="room_balcony"><polygon fill="rgb(107,142,35)" fill-opacity="0.7" points="400.0,462.421875 400.0,500.390625 507.578125,500.390625 507.578125,462.421875" stroke="black" stroke-width="1.5" /><text dominant-baseline="middle" fill="black" font-family="Arial" font-size="12px" font-weight="bold" text-anchor="middle" x="454.84375" y="482.4609375">Balcony</text></g><g id="room_bathroom"><polygon fill="rgb(173,216,230)" fill-opacity="0.7" points="364.140625,158.671875 364.140625,205.078125 431.640625,205.078125 431.640625,158.671875" stroke="black" stroke-width="1.5" /><text dominant-baseline="middle" fill="black" font-family="Arial" font-size="12px" font-weight="bold" text-anchor="middle" x="398.9453125" y="182.9296875">Bathroom</text></g><rect fill="red" fill-opacity="0.9" height="10.546875" id="main_door" stroke="darkred" stroke-width="3" width="27.421875" x="478.046875" y="112.265625" /><text dominant-baseline="middle" fill="white" font-family="Arial" font-size="9px" font-weight="bold" text-anchor="middle" x="491.7578125" y="117.5390625">Main Door</text><text fill="black" font-family="Arial" font-size="18px" font-weight="bold" text-anchor="middle" x="400.0" y="30">Floor Plan - ID: 23171</text></svg>