<?xml version="1.0" encoding="utf-8" ?>
<svg baseProfile="full" height="600px" version="1.1" viewBox="0 0 800 600" width="800px" xmlns="http://www.w3.org/2000/svg" xmlns:ev="http://www.w3.org/2001/xml-events" xmlns:xlink="http://www.w3.org/1999/xlink"><defs /><rect fill="white" height="600" width="800" x="0" y="0" /><polygon fill="none" id="floor_plan_boundary" points="248.125,175.546875 248.125,420.234375 471.71875,420.234375 473.828125,479.296875 551.875,479.296875 551.875,321.09375 473.828125,323.203125 473.828125,329.53125 543.4375,331.640625 541.328125,470.859375 484.375,470.859375 482.265625,411.796875 256.5625,409.6875 256.5625,186.09375 362.03125,183.984375 364.140625,129.140625 471.71875,129.140625 473.828125,289.453125 482.265625,289.453125 482.265625,120.703125 353.59375,120.703125 351.484375,175.546875" stroke="black" stroke-linecap="butt" stroke-linejoin="miter" stroke-width="4" /><g id="room_living_room"><polygon fill="rgb(238,232,170)" fill-opacity="0.7" points="364.140625,186.09375 364.140625,293.671875 319.84375,295.78125 319.84375,318.984375 362.03125,318.984375 364.140625,348.515625 408.4375,348.515625 410.546875,409.6875 471.71875,409.6875 471.71875,186.09375" stroke="black" stroke-width="1.5" /><text dominant-baseline="middle" fill="black" font-family="Arial" font-size="12px" font-weight="bold" text-anchor="middle" x="396.8359375" y="298.9453125">Living Room</text></g><g id="room_master_bedroom"><polygon fill="rgb(255,165,0)" fill-opacity="0.7" points="258.671875,186.09375 258.671875,300.0 307.1875,300.0 309.296875,283.125 351.484375,283.125 351.484375,186.09375" stroke="black" stroke-width="1.5" /><text dominant-baseline="middle" fill="black" font-family="Arial" font-size="12px" font-weight="bold" text-anchor="middle" x="306.1328125" y="244.1015625">Master Bedroom</text></g><g id="room_common_room"><polygon fill="rgb(255,215,0)" fill-opacity="0.7" points="258.671875,312.65625 258.671875,409.6875 351.484375,409.6875 351.484375,331.640625 309.296875,331.640625 307.1875,312.65625" stroke="black" stroke-width="1.5" /><text dominant-baseline="middle" fill="black" font-family="Arial" font-size="12px" font-weight="bold" text-anchor="middle" x="306.1328125" y="362.2265625">Common Room</text></g><g id="room_balcony_2"><polygon fill="rgb(107,142,35)" fill-opacity="0.7" points="364.140625,131.25 364.140625,173.4375 471.71875,173.4375 471.71875,131.25" stroke="black" stroke-width="1.5" /><text dominant-baseline="middle" fill="black" font-family="Arial" font-size="12px" font-weight="bold" text-anchor="middle" x="418.984375" y="153.3984375">Balcony 2</text></g><g id="room_kitchen"><polygon fill="rgb(240,128,128)" fill-opacity="0.7" points="484.375,331.640625 484.375,409.6875 541.328125,409.6875 541.328125,331.640625" stroke="black" stroke-width="1.5" /><text dominant-baseline="middle" fill="black" font-family="Arial" font-size="12px" font-weight="bold" text-anchor="middle" x="513.90625" y="371.71875">Kitchen</text></g><g id="room_balcony"><polygon fill="rgb(107,142,35)" fill-opacity="0.7" points="484.375,422.34375 484.375,468.75 541.328125,468.75 541.328125,422.34375" stroke="black" stroke-width="1.5" /><text dominant-baseline="middle" fill="black" font-family="Arial" font-size="12px" font-weight="bold" text-anchor="middle" x="513.90625" y="446.6015625">Balcony</text></g><g id="room_bathroom"><polygon fill="rgb(173,216,230)" fill-opacity="0.7" points="364.140625,361.171875 364.140625,409.6875 397.890625,409.6875 397.890625,361.171875" stroke="black" stroke-width="1.5" /><text dominant-baseline="middle" fill="black" font-family="Arial" font-size="12px" font-weight="bold" text-anchor="middle" x="382.0703125" y="386.484375">Bathroom</text></g><rect fill="red" fill-opacity="0.9" height="31.640625" id="main_door" stroke="darkred" stroke-width="3" width="10.546875" x="473.828125" y="291.5625" /><text dominant-baseline="middle" fill="white" font-family="Arial" font-size="9px" font-weight="bold" text-anchor="middle" x="479.1015625" y="307.3828125">Main Door</text><text fill="black" font-family="Arial" font-size="18px" font-weight="bold" text-anchor="middle" x="400.0" y="30">Floor Plan - ID: 2319</text></svg>