<?xml version="1.0" encoding="utf-8" ?>
<svg baseProfile="full" height="600px" version="1.1" viewBox="0 0 800 600" width="800px" xmlns="http://www.w3.org/2000/svg" xmlns:ev="http://www.w3.org/2001/xml-events" xmlns:xlink="http://www.w3.org/1999/xlink"><defs /><rect fill="white" height="600" width="800" x="0" y="0" /><polygon fill="none" id="floor_plan_boundary" points="269.21875,108.046875 269.21875,221.953125 302.96875,224.0625 305.078125,491.953125 425.3125,491.953125 427.421875,432.890625 530.78125,432.890625 530.78125,192.421875 465.390625,192.421875 463.28125,118.59375 442.1875,118.59375 442.1875,127.03125 454.84375,129.140625 454.84375,200.859375 522.34375,202.96875 522.34375,422.34375 421.09375,424.453125 418.984375,487.734375 309.296875,485.625 311.40625,213.515625 277.65625,211.40625 277.65625,118.59375 366.25,116.484375 368.359375,127.03125 412.65625,127.03125 412.65625,118.59375 378.90625,118.59375 376.796875,108.046875" stroke="black" stroke-linecap="butt" stroke-linejoin="miter" stroke-width="4" /><g id="room_living_room"><polygon fill="rgb(238,232,170)" fill-opacity="0.7" points="452.734375,129.140625 378.90625,129.140625 378.90625,281.015625 313.515625,283.125 313.515625,422.34375 416.875,422.34375 416.875,295.78125 452.734375,293.671875" stroke="black" stroke-width="1.5" /><text dominant-baseline="middle" fill="black" font-family="Arial" font-size="12px" font-weight="bold" text-anchor="middle" x="384.1796875" y="276.796875">Living Room</text></g><g id="room_master_bedroom"><polygon fill="rgb(255,165,0)" fill-opacity="0.7" points="429.53125,306.328125 429.53125,422.34375 520.234375,422.34375 520.234375,306.328125" stroke="black" stroke-width="1.5" /><text dominant-baseline="middle" fill="black" font-family="Arial" font-size="12px" font-weight="bold" text-anchor="middle" x="475.9375" y="365.390625">Master Bedroom</text></g><g id="room_common_room"><polygon fill="rgb(255,215,0)" fill-opacity="0.7" points="279.765625,118.59375 279.765625,211.40625 366.25,211.40625 366.25,118.59375" stroke="black" stroke-width="1.5" /><text dominant-baseline="middle" fill="black" font-family="Arial" font-size="12px" font-weight="bold" text-anchor="middle" x="324.0625" y="166.0546875">Common Room</text></g><g id="room_balcony"><polygon fill="rgb(107,142,35)" fill-opacity="0.7" points="311.40625,435.0 311.40625,485.625 418.984375,485.625 418.984375,435.0" stroke="black" stroke-width="1.5" /><text dominant-baseline="middle" fill="black" font-family="Arial" font-size="12px" font-weight="bold" text-anchor="middle" x="366.25" y="461.3671875">Balcony</text></g><g id="room_kitchen"><polygon fill="rgb(240,128,128)" fill-opacity="0.7" points="465.390625,202.96875 465.390625,293.671875 520.234375,293.671875 520.234375,202.96875" stroke="black" stroke-width="1.5" /><text dominant-baseline="middle" fill="black" font-family="Arial" font-size="12px" font-weight="bold" text-anchor="middle" x="493.8671875" y="249.375">Kitchen</text></g><g id="room_bathroom"><polygon fill="rgb(173,216,230)" fill-opacity="0.7" points="313.515625,224.0625 313.515625,270.46875 366.25,270.46875 366.25,224.0625" stroke="black" stroke-width="1.5" /><text dominant-baseline="middle" fill="black" font-family="Arial" font-size="12px" font-weight="bold" text-anchor="middle" x="340.9375" y="248.3203125">Bathroom</text></g><rect fill="red" fill-opacity="0.9" height="10.546875" id="main_door" stroke="darkred" stroke-width="3" width="27.421875" x="414.765625" y="118.59375" /><text dominant-baseline="middle" fill="white" font-family="Arial" font-size="9px" font-weight="bold" text-anchor="middle" x="428.4765625" y="123.8671875">Main Door</text><text fill="black" font-family="Arial" font-size="18px" font-weight="bold" text-anchor="middle" x="400.0" y="30">Floor Plan - ID: 23550</text></svg>