<?xml version="1.0" encoding="utf-8" ?>
<svg baseProfile="full" height="600px" version="1.1" viewBox="0 0 800 600" width="800px" xmlns="http://www.w3.org/2000/svg" xmlns:ev="http://www.w3.org/2001/xml-events" xmlns:xlink="http://www.w3.org/1999/xlink"><defs /><rect fill="white" height="600" width="800" x="0" y="0" /><polygon fill="none" id="floor_plan_boundary" points="235.46875,99.609375 233.359375,439.21875 252.34375,439.21875 252.34375,430.78125 241.796875,428.671875 241.796875,103.828125 450.625,103.828125 452.734375,158.671875 558.203125,160.78125 558.203125,318.984375 490.703125,321.09375 486.484375,390.703125 395.78125,390.703125 397.890625,491.953125 302.96875,494.0625 298.75,430.78125 296.640625,502.5 402.109375,502.5 402.109375,401.25 497.03125,399.140625 494.921875,327.421875 566.640625,325.3125 566.640625,150.234375 459.0625,150.234375 456.953125,99.609375" stroke="black" stroke-linecap="butt" stroke-linejoin="miter" stroke-width="4" /><g id="room_living_room"><polygon fill="rgb(238,232,170)" fill-opacity="0.7" points="357.8125,158.671875 243.90625,158.671875 243.90625,428.671875 294.53125,428.671875 292.421875,394.921875 332.5,390.703125 334.609375,302.109375 450.625,302.109375 450.625,274.6875 357.8125,274.6875" stroke="black" stroke-width="1.5" /><text dominant-baseline="middle" fill="black" font-family="Arial" font-size="12px" font-weight="bold" text-anchor="middle" x="348.3203125" y="294.7265625">Living Room</text></g><g id="room_common_room_2"><polygon fill="rgb(255,215,0)" fill-opacity="0.7" points="368.359375,105.9375 370.46875,264.140625 450.625,266.25 450.625,105.9375" stroke="black" stroke-width="1.5" /><text dominant-baseline="middle" fill="black" font-family="Arial" font-size="12px" font-weight="bold" text-anchor="middle" x="410.546875" y="187.1484375">Common Room 2</text></g><g id="room_master_bedroom"><polygon fill="rgb(255,165,0)" fill-opacity="0.7" points="556.09375,160.78125 461.171875,160.78125 459.0625,302.109375 488.59375,302.109375 490.703125,264.140625 556.09375,264.140625" stroke="black" stroke-width="1.5" /><text dominant-baseline="middle" fill="black" font-family="Arial" font-size="12px" font-weight="bold" text-anchor="middle" x="508.6328125" y="232.5">Master Bedroom</text></g><g id="room_kitchen"><polygon fill="rgb(240,128,128)" fill-opacity="0.7" points="302.96875,399.140625 302.96875,491.953125 395.78125,491.953125 395.78125,422.34375 362.03125,422.34375 357.8125,418.125 359.921875,399.140625" stroke="black" stroke-width="1.5" /><text dominant-baseline="middle" fill="black" font-family="Arial" font-size="12px" font-weight="bold" text-anchor="middle" x="350.4296875" y="446.6015625">Kitchen</text></g><g id="room_common_room"><polygon fill="rgb(255,215,0)" fill-opacity="0.7" points="391.5625,310.546875 391.5625,388.59375 486.484375,388.59375 488.59375,310.546875" stroke="black" stroke-width="1.5" /><text dominant-baseline="middle" fill="black" font-family="Arial" font-size="12px" font-weight="bold" text-anchor="middle" x="441.1328125" y="350.625">Common Room</text></g><g id="room_balcony"><polygon fill="rgb(107,142,35)" fill-opacity="0.7" points="241.796875,105.9375 241.796875,150.234375 359.921875,150.234375 359.921875,105.9375" stroke="black" stroke-width="1.5" /><text dominant-baseline="middle" fill="black" font-family="Arial" font-size="12px" font-weight="bold" text-anchor="middle" x="301.9140625" y="129.140625">Balcony</text></g><g id="room_bathroom"><polygon fill="rgb(173,216,230)" fill-opacity="0.7" points="340.9375,310.546875 340.9375,390.703125 364.140625,388.59375 370.46875,394.921875 368.359375,413.90625 395.78125,413.90625 395.78125,401.25 383.125,399.140625 383.125,310.546875" stroke="black" stroke-width="1.5" /><text dominant-baseline="middle" fill="black" font-family="Arial" font-size="12px" font-weight="bold" text-anchor="middle" x="369.4140625" y="363.28125">Bathroom</text></g><g id="room_bathroom_2"><polygon fill="rgb(173,216,230)" fill-opacity="0.7" points="497.03125,272.578125 497.03125,318.984375 556.09375,318.984375 556.09375,272.578125" stroke="black" stroke-width="1.5" /><text dominant-baseline="middle" fill="black" font-family="Arial" font-size="12px" font-weight="bold" text-anchor="middle" x="527.6171875" y="296.8359375">Bathroom 2</text></g><rect fill="red" fill-opacity="0.9" height="10.546875" id="main_door" stroke="darkred" stroke-width="3" width="44.296875" x="254.453125" y="430.78125" /><text dominant-baseline="middle" fill="white" font-family="Arial" font-size="9px" font-weight="bold" text-anchor="middle" x="276.6015625" y="436.0546875">Main Door</text><text fill="black" font-family="Arial" font-size="18px" font-weight="bold" text-anchor="middle" x="400.0" y="30">Floor Plan - ID: 23757</text></svg>