<?xml version="1.0" encoding="utf-8" ?>
<svg baseProfile="full" height="600px" version="1.1" viewBox="0 0 800 600" width="800px" xmlns="http://www.w3.org/2000/svg" xmlns:ev="http://www.w3.org/2001/xml-events" xmlns:xlink="http://www.w3.org/1999/xlink"><defs /><rect fill="white" height="600" width="800" x="0" y="0" /><polygon fill="none" id="floor_plan_boundary" points="305.078125,95.390625 305.078125,198.75 256.5625,200.859375 256.5625,504.609375 370.46875,504.609375 372.578125,485.625 543.4375,485.625 543.4375,325.3125 524.453125,323.203125 524.453125,278.90625 503.359375,278.90625 503.359375,287.34375 516.015625,289.453125 516.015625,333.75 535.0,335.859375 532.890625,477.1875 362.03125,477.1875 359.921875,496.171875 265.0,494.0625 265.0,211.40625 313.515625,209.296875 313.515625,105.9375 528.671875,105.9375 526.5625,156.5625 459.0625,156.5625 459.0625,287.34375 467.5,276.796875 467.5,167.109375 537.109375,165.0 537.109375,95.390625" stroke="black" stroke-linecap="butt" stroke-linejoin="miter" stroke-width="4" /><g id="room_living_room"><polygon fill="rgb(238,232,170)" fill-opacity="0.7" points="267.109375,211.40625 267.109375,323.203125 387.34375,323.203125 387.34375,356.953125 450.625,356.953125 454.84375,475.078125 532.890625,475.078125 532.890625,439.21875 480.15625,437.109375 480.15625,325.3125 513.90625,323.203125 513.90625,289.453125 456.953125,287.34375 456.953125,211.40625" stroke="black" stroke-width="1.5" /><text dominant-baseline="middle" fill="black" font-family="Arial" font-size="12px" font-weight="bold" text-anchor="middle" x="401.0546875" y="344.296875">Living Room</text></g><g id="room_master_bedroom"><polygon fill="rgb(255,165,0)" fill-opacity="0.7" points="378.90625,335.859375 338.828125,335.859375 336.71875,380.15625 267.109375,380.15625 267.109375,494.0625 359.921875,494.0625 362.03125,359.0625 378.90625,356.953125" stroke="black" stroke-width="1.5" /><text dominant-baseline="middle" fill="black" font-family="Arial" font-size="12px" font-weight="bold" text-anchor="middle" x="324.0625" y="416.015625">Master Bedroom</text></g><g id="room_common_room_2"><polygon fill="rgb(255,215,0)" fill-opacity="0.7" points="315.625,105.9375 315.625,198.75 408.4375,198.75 408.4375,105.9375" stroke="black" stroke-width="1.5" /><text dominant-baseline="middle" fill="black" font-family="Arial" font-size="12px" font-weight="bold" text-anchor="middle" x="363.0859375" y="153.3984375">Common Room 2</text></g><g id="room_common_room"><polygon fill="rgb(255,215,0)" fill-opacity="0.7" points="370.46875,365.390625 370.46875,475.078125 442.1875,475.078125 444.296875,365.390625" stroke="black" stroke-width="1.5" /><text dominant-baseline="middle" fill="black" font-family="Arial" font-size="12px" font-weight="bold" text-anchor="middle" x="408.4375" y="421.2890625">Common Room</text></g><g id="room_kitchen"><polygon fill="rgb(240,128,128)" fill-opacity="0.7" points="416.875,105.9375 416.875,198.75 456.953125,198.75 459.0625,154.453125 526.5625,154.453125 526.5625,105.9375" stroke="black" stroke-width="1.5" /><text dominant-baseline="middle" fill="black" font-family="Arial" font-size="12px" font-weight="bold" text-anchor="middle" x="472.7734375" y="153.3984375">Kitchen</text></g><g id="room_bathroom"><polygon fill="rgb(173,216,230)" fill-opacity="0.7" points="490.703125,335.859375 490.703125,426.5625 532.890625,426.5625 532.890625,335.859375" stroke="black" stroke-width="1.5" /><text dominant-baseline="middle" fill="black" font-family="Arial" font-size="12px" font-weight="bold" text-anchor="middle" x="512.8515625" y="382.265625">Bathroom</text></g><g id="room_bathroom_2"><polygon fill="rgb(173,216,230)" fill-opacity="0.7" points="267.109375,335.859375 267.109375,371.71875 330.390625,371.71875 330.390625,335.859375" stroke="black" stroke-width="1.5" /><text dominant-baseline="middle" fill="black" font-family="Arial" font-size="12px" font-weight="bold" text-anchor="middle" x="299.8046875" y="354.84375">Bathroom 2</text></g><rect fill="red" fill-opacity="0.9" height="10.546875" id="main_door" stroke="darkred" stroke-width="3" width="35.859375" x="467.5" y="278.90625" /><text dominant-baseline="middle" fill="white" font-family="Arial" font-size="9px" font-weight="bold" text-anchor="middle" x="485.4296875" y="284.1796875">Main Door</text><text fill="black" font-family="Arial" font-size="18px" font-weight="bold" text-anchor="middle" x="400.0" y="30">Floor Plan - ID: 2403</text></svg>