<?xml version="1.0" encoding="utf-8" ?>
<svg baseProfile="full" height="600px" version="1.1" viewBox="0 0 800 600" width="800px" xmlns="http://www.w3.org/2000/svg" xmlns:ev="http://www.w3.org/2001/xml-events" xmlns:xlink="http://www.w3.org/1999/xlink"><defs /><rect fill="white" height="600" width="800" x="0" y="0" /><polygon fill="none" id="floor_plan_boundary" points="235.46875,135.46875 235.46875,270.46875 288.203125,272.578125 288.203125,401.25 400.0,401.25 402.109375,464.53125 526.5625,464.53125 526.5625,272.578125 564.53125,270.46875 564.53125,135.46875 435.859375,135.46875 560.3125,141.796875 560.3125,264.140625 522.34375,266.25 520.234375,460.3125 408.4375,460.3125 406.328125,397.03125 292.421875,394.921875 292.421875,266.25 239.6875,264.140625 239.6875,141.796875 397.890625,135.46875" stroke="black" stroke-linecap="butt" stroke-linejoin="miter" stroke-width="4" /><g id="room_living_room"><polygon fill="rgb(238,232,170)" fill-opacity="0.7" points="330.390625,141.796875 330.390625,219.84375 408.4375,221.953125 408.4375,403.359375 520.234375,403.359375 520.234375,272.578125 499.140625,270.46875 499.140625,194.53125 456.953125,192.421875 456.953125,141.796875" stroke="black" stroke-width="1.5" /><text dominant-baseline="middle" fill="black" font-family="Arial" font-size="12px" font-weight="bold" text-anchor="middle" x="426.3671875" y="273.6328125">Living Room</text></g><g id="room_master_bedroom"><polygon fill="rgb(255,165,0)" fill-opacity="0.7" points="241.796875,141.796875 241.796875,264.140625 321.953125,264.140625 321.953125,141.796875" stroke="black" stroke-width="1.5" /><text dominant-baseline="middle" fill="black" font-family="Arial" font-size="12px" font-weight="bold" text-anchor="middle" x="282.9296875" y="204.0234375">Master Bedroom</text></g><g id="room_common_room"><polygon fill="rgb(255,215,0)" fill-opacity="0.7" points="294.53125,308.4375 294.53125,394.921875 400.0,394.921875 400.0,308.4375" stroke="black" stroke-width="1.5" /><text dominant-baseline="middle" fill="black" font-family="Arial" font-size="12px" font-weight="bold" text-anchor="middle" x="348.3203125" y="352.734375">Common Room</text></g><g id="room_common_room_2"><polygon fill="rgb(255,215,0)" fill-opacity="0.7" points="294.53125,272.578125 294.53125,300.0 400.0,300.0 400.0,228.28125 330.390625,228.28125 332.5,268.359375 328.28125,272.578125" stroke="black" stroke-width="1.5" /><text dominant-baseline="middle" fill="black" font-family="Arial" font-size="12px" font-weight="bold" text-anchor="middle" x="348.3203125" y="265.1953125">Common Room 2</text></g><g id="room_balcony"><polygon fill="rgb(107,142,35)" fill-opacity="0.7" points="408.4375,411.796875 408.4375,458.203125 520.234375,458.203125 520.234375,411.796875" stroke="black" stroke-width="1.5" /><text dominant-baseline="middle" fill="black" font-family="Arial" font-size="12px" font-weight="bold" text-anchor="middle" x="465.390625" y="436.0546875">Balcony</text></g><g id="room_kitchen"><polygon fill="rgb(240,128,128)" fill-opacity="0.7" points="465.390625,141.796875 465.390625,186.09375 558.203125,186.09375 558.203125,141.796875" stroke="black" stroke-width="1.5" /><text dominant-baseline="middle" fill="black" font-family="Arial" font-size="12px" font-weight="bold" text-anchor="middle" x="512.8515625" y="165.0">Kitchen</text></g><g id="room_bathroom"><polygon fill="rgb(173,216,230)" fill-opacity="0.7" points="507.578125,194.53125 507.578125,264.140625 558.203125,264.140625 558.203125,194.53125" stroke="black" stroke-width="1.5" /><text dominant-baseline="middle" fill="black" font-family="Arial" font-size="12px" font-weight="bold" text-anchor="middle" x="533.9453125" y="230.390625">Bathroom</text></g><rect fill="red" fill-opacity="0.9" height="6.328125" id="main_door" stroke="darkred" stroke-width="3" width="35.859375" x="400.0" y="135.46875" /><text dominant-baseline="middle" fill="white" font-family="Arial" font-size="9px" font-weight="bold" text-anchor="middle" x="417.9296875" y="138.6328125">Main Door</text><text fill="black" font-family="Arial" font-size="18px" font-weight="bold" text-anchor="middle" x="400.0" y="30">Floor Plan - ID: 24169</text></svg>