<?xml version="1.0" encoding="utf-8" ?>
<svg baseProfile="full" height="600px" version="1.1" viewBox="0 0 800 600" width="800px" xmlns="http://www.w3.org/2000/svg" xmlns:ev="http://www.w3.org/2001/xml-events" xmlns:xlink="http://www.w3.org/1999/xlink"><defs /><rect fill="white" height="600" width="800" x="0" y="0" /><polygon fill="none" id="floor_plan_boundary" points="522.34375,131.25 412.65625,131.25 410.546875,181.875 279.765625,181.875 279.765625,240.9375 224.921875,243.046875 224.921875,420.234375 258.671875,420.234375 260.78125,435.0 332.5,435.0 334.609375,468.75 486.484375,468.75 488.59375,422.34375 575.078125,422.34375 575.078125,188.203125 560.3125,188.203125 566.640625,198.75 564.53125,413.90625 478.046875,413.90625 475.9375,460.3125 345.15625,460.3125 343.046875,426.5625 271.328125,426.5625 269.21875,411.796875 233.359375,409.6875 233.359375,253.59375 288.203125,251.484375 290.3125,190.3125 421.09375,190.3125 423.203125,139.6875 511.796875,139.6875 513.90625,196.640625 526.5625,196.640625" stroke="black" stroke-linecap="butt" stroke-linejoin="miter" stroke-width="4" /><g id="room_living_room"><polygon fill="rgb(238,232,170)" fill-opacity="0.7" points="564.53125,198.75 524.453125,198.75 522.34375,215.625 446.40625,215.625 444.296875,276.796875 345.15625,276.796875 345.15625,297.890625 446.40625,300.0 446.40625,411.796875 564.53125,411.796875" stroke="black" stroke-width="1.5" /><text dominant-baseline="middle" fill="black" font-family="Arial" font-size="12px" font-weight="bold" text-anchor="middle" x="455.8984375" y="306.328125">Living Room</text></g><g id="room_master_bedroom"><polygon fill="rgb(255,165,0)" fill-opacity="0.7" points="332.5,276.796875 305.078125,276.796875 302.96875,312.65625 235.46875,312.65625 235.46875,409.6875 269.21875,409.6875 271.328125,424.453125 332.5,424.453125" stroke="black" stroke-width="1.5" /><text dominant-baseline="middle" fill="black" font-family="Arial" font-size="12px" font-weight="bold" text-anchor="middle" x="285.0390625" y="351.6796875">Master Bedroom</text></g><g id="room_common_room"><polygon fill="rgb(255,215,0)" fill-opacity="0.7" points="345.15625,310.546875 345.15625,411.796875 433.75,411.796875 433.75,310.546875" stroke="black" stroke-width="1.5" /><text dominant-baseline="middle" fill="black" font-family="Arial" font-size="12px" font-weight="bold" text-anchor="middle" x="390.5078125" y="362.2265625">Common Room</text></g><g id="room_common_room_2"><polygon fill="rgb(255,215,0)" fill-opacity="0.7" points="290.3125,192.421875 290.3125,240.9375 305.078125,243.046875 305.078125,264.140625 381.015625,264.140625 381.015625,192.421875" stroke="black" stroke-width="1.5" /><text dominant-baseline="middle" fill="black" font-family="Arial" font-size="12px" font-weight="bold" text-anchor="middle" x="336.71875" y="229.3359375">Common Room 2</text></g><g id="room_kitchen"><polygon fill="rgb(240,128,128)" fill-opacity="0.7" points="423.203125,141.796875 423.203125,179.765625 444.296875,179.765625 446.40625,202.96875 511.796875,202.96875 511.796875,141.796875" stroke="black" stroke-width="1.5" /><text dominant-baseline="middle" fill="black" font-family="Arial" font-size="12px" font-weight="bold" text-anchor="middle" x="468.5546875" y="173.4375">Kitchen</text></g><g id="room_balcony"><polygon fill="rgb(107,142,35)" fill-opacity="0.7" points="345.15625,424.453125 345.15625,458.203125 475.9375,458.203125 475.9375,424.453125" stroke="black" stroke-width="1.5" /><text dominant-baseline="middle" fill="black" font-family="Arial" font-size="12px" font-weight="bold" text-anchor="middle" x="411.6015625" y="442.3828125">Balcony</text></g><g id="room_bathroom_2"><polygon fill="rgb(173,216,230)" fill-opacity="0.7" points="393.671875,192.421875 393.671875,264.140625 433.75,264.140625 433.75,192.421875" stroke="black" stroke-width="1.5" /><text dominant-baseline="middle" fill="black" font-family="Arial" font-size="12px" font-weight="bold" text-anchor="middle" x="414.765625" y="229.3359375">Bathroom 2</text></g><g id="room_bathroom"><polygon fill="rgb(173,216,230)" fill-opacity="0.7" points="235.46875,253.59375 235.46875,300.0 292.421875,300.0 292.421875,253.59375" stroke="black" stroke-width="1.5" /><text dominant-baseline="middle" fill="black" font-family="Arial" font-size="12px" font-weight="bold" text-anchor="middle" x="265.0" y="277.8515625">Bathroom</text></g><rect fill="red" fill-opacity="0.9" height="10.546875" id="main_door" stroke="darkred" stroke-width="3" width="31.640625" x="528.671875" y="188.203125" /><text dominant-baseline="middle" fill="white" font-family="Arial" font-size="9px" font-weight="bold" text-anchor="middle" x="544.4921875" y="193.4765625">Main Door</text><text fill="black" font-family="Arial" font-size="18px" font-weight="bold" text-anchor="middle" x="400.0" y="30">Floor Plan - ID: 24266</text></svg>