<?xml version="1.0" encoding="utf-8" ?>
<svg baseProfile="full" height="600px" version="1.1" viewBox="0 0 800 600" width="800px" xmlns="http://www.w3.org/2000/svg" xmlns:ev="http://www.w3.org/2001/xml-events" xmlns:xlink="http://www.w3.org/1999/xlink"><defs /><rect fill="white" height="600" width="800" x="0" y="0" /><polygon fill="none" id="floor_plan_boundary" points="184.84375,181.875 184.84375,270.46875 248.125,272.578125 248.125,373.828125 353.59375,373.828125 355.703125,418.125 490.703125,418.125 492.8125,373.828125 615.15625,373.828125 615.15625,266.25 492.8125,266.25 490.703125,186.09375 410.546875,181.875 410.546875,190.3125 482.265625,196.640625 482.265625,274.6875 606.71875,276.796875 604.609375,365.390625 482.265625,365.390625 480.15625,409.6875 366.25,409.6875 364.140625,365.390625 258.671875,365.390625 256.5625,262.03125 193.28125,259.921875 193.28125,192.421875 372.578125,190.3125 372.578125,181.875" stroke="black" stroke-linecap="butt" stroke-linejoin="miter" stroke-width="4" /><g id="room_living_room"><polygon fill="rgb(238,232,170)" fill-opacity="0.7" points="256.5625,192.421875 256.5625,259.921875 366.25,262.03125 366.25,407.578125 480.15625,407.578125 480.15625,276.796875 414.765625,274.6875 414.765625,192.421875" stroke="black" stroke-width="1.5" /><text dominant-baseline="middle" fill="black" font-family="Arial" font-size="12px" font-weight="bold" text-anchor="middle" x="369.4140625" y="301.0546875">Living Room</text></g><g id="room_master_bedroom"><polygon fill="rgb(255,165,0)" fill-opacity="0.7" points="492.8125,276.796875 492.8125,363.28125 604.609375,363.28125 604.609375,276.796875" stroke="black" stroke-width="1.5" /><text dominant-baseline="middle" fill="black" font-family="Arial" font-size="12px" font-weight="bold" text-anchor="middle" x="549.765625" y="321.09375">Master Bedroom</text></g><g id="room_common_room"><polygon fill="rgb(255,215,0)" fill-opacity="0.7" points="258.671875,272.578125 258.671875,363.28125 353.59375,363.28125 353.59375,272.578125" stroke="black" stroke-width="1.5" /><text dominant-baseline="middle" fill="black" font-family="Arial" font-size="12px" font-weight="bold" text-anchor="middle" x="307.1875" y="318.984375">Common Room</text></g><g id="room_bathroom"><polygon fill="rgb(173,216,230)" fill-opacity="0.7" points="423.203125,192.421875 423.203125,264.140625 480.15625,264.140625 480.15625,196.640625" stroke="black" stroke-width="1.5" /><text dominant-baseline="middle" fill="black" font-family="Arial" font-size="12px" font-weight="bold" text-anchor="middle" x="452.734375" y="229.3359375">Bathroom</text></g><g id="room_kitchen"><polygon fill="rgb(240,128,128)" fill-opacity="0.7" points="195.390625,192.421875 195.390625,259.921875 248.125,259.921875 248.125,192.421875" stroke="black" stroke-width="1.5" /><text dominant-baseline="middle" fill="black" font-family="Arial" font-size="12px" font-weight="bold" text-anchor="middle" x="222.8125" y="227.2265625">Kitchen</text></g><rect fill="red" fill-opacity="0.9" height="10.546875" id="main_door" stroke="darkred" stroke-width="3" width="35.859375" x="374.6875" y="181.875" /><text dominant-baseline="middle" fill="white" font-family="Arial" font-size="9px" font-weight="bold" text-anchor="middle" x="392.6171875" y="187.1484375">Main Door</text><text fill="black" font-family="Arial" font-size="18px" font-weight="bold" text-anchor="middle" x="400.0" y="30">Floor Plan - ID: 24441</text></svg>