<?xml version="1.0" encoding="utf-8" ?>
<svg baseProfile="full" height="600px" version="1.1" viewBox="0 0 800 600" width="800px" xmlns="http://www.w3.org/2000/svg" xmlns:ev="http://www.w3.org/2001/xml-events" xmlns:xlink="http://www.w3.org/1999/xlink"><defs /><rect fill="white" height="600" width="800" x="0" y="0" /><polygon fill="none" id="floor_plan_boundary" points="587.734375,108.046875 459.0625,108.046875 456.953125,122.8125 328.28125,122.8125 328.28125,274.6875 336.71875,274.6875 338.828125,131.25 467.5,131.25 469.609375,116.484375 579.296875,118.59375 577.1875,453.984375 459.0625,453.984375 456.953125,483.515625 313.515625,483.515625 311.40625,453.984375 222.8125,453.984375 220.703125,327.421875 336.71875,325.3125 336.71875,312.65625 212.265625,316.875 212.265625,462.421875 300.859375,462.421875 302.96875,491.953125 467.5,491.953125 469.609375,462.421875 587.734375,462.421875" stroke="black" stroke-linecap="butt" stroke-linejoin="miter" stroke-width="4" /><g id="room_living_room"><polygon fill="rgb(238,232,170)" fill-opacity="0.7" points="338.828125,190.3125 338.828125,325.3125 313.515625,327.421875 313.515625,481.40625 456.953125,481.40625 456.953125,308.4375 503.359375,306.328125 503.359375,264.140625 456.953125,262.03125 456.953125,190.3125" stroke="black" stroke-width="1.5" /><text dominant-baseline="middle" fill="black" font-family="Arial" font-size="12px" font-weight="bold" text-anchor="middle" x="409.4921875" y="336.9140625">Living Room</text></g><g id="room_master_bedroom"><polygon fill="rgb(255,165,0)" fill-opacity="0.7" points="469.609375,318.984375 469.609375,451.875 577.1875,451.875 577.1875,327.421875 503.359375,327.421875 501.25,318.984375" stroke="black" stroke-width="1.5" /><text dominant-baseline="middle" fill="black" font-family="Arial" font-size="12px" font-weight="bold" text-anchor="middle" x="524.453125" y="386.484375">Master Bedroom</text></g><g id="room_common_room_2"><polygon fill="rgb(255,215,0)" fill-opacity="0.7" points="469.609375,118.59375 469.609375,251.484375 503.359375,251.484375 505.46875,238.828125 577.1875,238.828125 577.1875,118.59375" stroke="black" stroke-width="1.5" /><text dominant-baseline="middle" fill="black" font-family="Arial" font-size="12px" font-weight="bold" text-anchor="middle" x="524.453125" y="186.09375">Common Room 2</text></g><g id="room_common_room"><polygon fill="rgb(255,215,0)" fill-opacity="0.7" points="222.8125,327.421875 222.8125,451.875 300.859375,451.875 300.859375,327.421875" stroke="black" stroke-width="1.5" /><text dominant-baseline="middle" fill="black" font-family="Arial" font-size="12px" font-weight="bold" text-anchor="middle" x="262.890625" y="390.703125">Common Room</text></g><g id="room_kitchen"><polygon fill="rgb(240,128,128)" fill-opacity="0.7" points="338.828125,133.359375 338.828125,181.875 456.953125,181.875 456.953125,133.359375" stroke="black" stroke-width="1.5" /><text dominant-baseline="middle" fill="black" font-family="Arial" font-size="12px" font-weight="bold" text-anchor="middle" x="398.9453125" y="158.671875">Kitchen</text></g><g id="room_bathroom"><polygon fill="rgb(173,216,230)" fill-opacity="0.7" points="511.796875,247.265625 513.90625,314.765625 577.1875,314.765625 577.1875,247.265625" stroke="black" stroke-width="1.5" /><text dominant-baseline="middle" fill="black" font-family="Arial" font-size="12px" font-weight="bold" text-anchor="middle" x="545.546875" y="282.0703125">Bathroom</text></g><rect fill="red" fill-opacity="0.9" height="35.859375" id="main_door" stroke="darkred" stroke-width="3" width="10.546875" x="328.28125" y="276.796875" /><text dominant-baseline="middle" fill="white" font-family="Arial" font-size="9px" font-weight="bold" text-anchor="middle" x="333.5546875" y="294.7265625">Main Door</text><text fill="black" font-family="Arial" font-size="18px" font-weight="bold" text-anchor="middle" x="400.0" y="30">Floor Plan - ID: 24558</text></svg>