<?xml version="1.0" encoding="utf-8" ?>
<svg baseProfile="full" height="600px" version="1.1" viewBox="0 0 800 600" width="800px" xmlns="http://www.w3.org/2000/svg" xmlns:ev="http://www.w3.org/2001/xml-events" xmlns:xlink="http://www.w3.org/1999/xlink"><defs /><rect fill="white" height="600" width="800" x="0" y="0" /><polygon fill="none" id="floor_plan_boundary" points="265.0,97.5 265.0,175.546875 300.859375,177.65625 300.859375,460.3125 406.328125,460.3125 408.4375,502.5 509.6875,502.5 509.6875,435.0 535.0,432.890625 535.0,186.09375 463.28125,186.09375 461.171875,110.15625 450.625,110.15625 452.734375,194.53125 526.5625,196.640625 526.5625,422.34375 501.25,424.453125 499.140625,494.0625 418.984375,494.0625 416.875,451.875 309.296875,449.765625 309.296875,171.328125 273.4375,169.21875 275.546875,105.9375 406.328125,105.9375 408.4375,114.375 421.09375,114.375 416.875,97.5" stroke="black" stroke-linecap="butt" stroke-linejoin="miter" stroke-width="4" /><g id="room_living_room"><polygon fill="rgb(238,232,170)" fill-opacity="0.7" points="410.546875,116.484375 418.984375,276.796875 376.796875,278.90625 376.796875,310.546875 418.984375,312.65625 418.984375,422.34375 524.453125,422.34375 524.453125,196.640625 452.734375,196.640625 450.625,116.484375" stroke="black" stroke-width="1.5" /><text dominant-baseline="middle" fill="black" font-family="Arial" font-size="12px" font-weight="bold" text-anchor="middle" x="451.6796875" y="270.46875">Living Room</text></g><g id="room_master_bedroom"><polygon fill="rgb(255,165,0)" fill-opacity="0.7" points="406.328125,318.984375 376.796875,318.984375 374.6875,340.078125 311.40625,340.078125 311.40625,449.765625 406.328125,449.765625" stroke="black" stroke-width="1.5" /><text dominant-baseline="middle" fill="black" font-family="Arial" font-size="12px" font-weight="bold" text-anchor="middle" x="359.921875" y="385.4296875">Master Bedroom</text></g><g id="room_common_room"><polygon fill="rgb(255,215,0)" fill-opacity="0.7" points="311.40625,177.65625 311.40625,270.46875 406.328125,270.46875 406.328125,177.65625" stroke="black" stroke-width="1.5" /><text dominant-baseline="middle" fill="black" font-family="Arial" font-size="12px" font-weight="bold" text-anchor="middle" x="359.921875" y="225.1171875">Common Room</text></g><g id="room_kitchen"><polygon fill="rgb(240,128,128)" fill-opacity="0.7" points="311.40625,108.046875 311.40625,169.21875 402.109375,169.21875 400.0,112.265625 404.21875,108.046875" stroke="black" stroke-width="1.5" /><text dominant-baseline="middle" fill="black" font-family="Arial" font-size="12px" font-weight="bold" text-anchor="middle" x="358.8671875" y="139.6875">Kitchen</text></g><g id="room_balcony"><polygon fill="rgb(107,142,35)" fill-opacity="0.7" points="418.984375,435.0 418.984375,491.953125 499.140625,491.953125 499.140625,435.0" stroke="black" stroke-width="1.5" /><text dominant-baseline="middle" fill="black" font-family="Arial" font-size="12px" font-weight="bold" text-anchor="middle" x="460.1171875" y="464.53125">Balcony</text></g><g id="room_bathroom"><polygon fill="rgb(173,216,230)" fill-opacity="0.7" points="311.40625,278.90625 311.40625,331.640625 368.359375,331.640625 368.359375,278.90625" stroke="black" stroke-width="1.5" /><text dominant-baseline="middle" fill="black" font-family="Arial" font-size="12px" font-weight="bold" text-anchor="middle" x="340.9375" y="306.328125">Bathroom</text></g><g id="room_balcony_2"><polygon fill="rgb(107,142,35)" fill-opacity="0.7" points="275.546875,108.046875 275.546875,169.21875 298.75,169.21875 298.75,108.046875" stroke="black" stroke-width="1.5" /><text dominant-baseline="middle" fill="black" font-family="Arial" font-size="12px" font-weight="bold" text-anchor="middle" x="288.203125" y="139.6875">Balcony 2</text></g><rect fill="red" fill-opacity="0.9" height="6.328125" id="main_door" stroke="darkred" stroke-width="3" width="27.421875" x="423.203125" y="110.15625" /><text dominant-baseline="middle" fill="white" font-family="Arial" font-size="9px" font-weight="bold" text-anchor="middle" x="436.9140625" y="113.3203125">Main Door</text><text fill="black" font-family="Arial" font-size="18px" font-weight="bold" text-anchor="middle" x="400.0" y="30">Floor Plan - ID: 24608</text></svg>