<?xml version="1.0" encoding="utf-8" ?>
<svg baseProfile="full" height="600px" version="1.1" viewBox="0 0 800 600" width="800px" xmlns="http://www.w3.org/2000/svg" xmlns:ev="http://www.w3.org/2001/xml-events" xmlns:xlink="http://www.w3.org/1999/xlink"><defs /><rect fill="white" height="600" width="800" x="0" y="0" /><polygon fill="none" id="floor_plan_boundary" points="294.53125,129.140625 294.53125,249.375 239.6875,251.484375 239.6875,354.84375 252.34375,356.953125 252.34375,432.890625 433.75,432.890625 435.859375,470.859375 560.3125,470.859375 560.3125,287.34375 553.984375,466.640625 442.1875,466.640625 440.078125,428.671875 256.5625,426.5625 256.5625,350.625 243.90625,348.515625 243.90625,257.8125 298.75,255.703125 300.859375,133.359375 553.984375,133.359375 560.3125,253.59375 560.3125,129.140625" stroke="black" stroke-linecap="butt" stroke-linejoin="miter" stroke-width="4" /><g id="room_living_room"><polygon fill="rgb(238,232,170)" fill-opacity="0.7" points="307.1875,257.8125 307.1875,304.21875 442.1875,306.328125 442.1875,426.5625 553.984375,426.5625 553.984375,190.3125 448.515625,190.3125 446.40625,219.84375 374.6875,219.84375 372.578125,257.8125" stroke="black" stroke-width="1.5" /><text dominant-baseline="middle" fill="black" font-family="Arial" font-size="12px" font-weight="bold" text-anchor="middle" x="431.640625" y="309.4921875">Living Room</text></g><g id="room_master_bedroom"><polygon fill="rgb(255,165,0)" fill-opacity="0.7" points="353.59375,312.65625 307.1875,312.65625 305.078125,356.953125 258.671875,356.953125 258.671875,426.5625 353.59375,426.5625" stroke="black" stroke-width="1.5" /><text dominant-baseline="middle" fill="black" font-family="Arial" font-size="12px" font-weight="bold" text-anchor="middle" x="307.1875" y="370.6640625">Master Bedroom</text></g><g id="room_common_room"><polygon fill="rgb(255,215,0)" fill-opacity="0.7" points="362.03125,312.65625 362.03125,426.5625 433.75,426.5625 433.75,312.65625" stroke="black" stroke-width="1.5" /><text dominant-baseline="middle" fill="black" font-family="Arial" font-size="12px" font-weight="bold" text-anchor="middle" x="398.9453125" y="370.6640625">Common Room</text></g><g id="room_common_room_2"><polygon fill="rgb(255,215,0)" fill-opacity="0.7" points="300.859375,135.46875 300.859375,249.375 366.25,249.375 366.25,135.46875" stroke="black" stroke-width="1.5" /><text dominant-baseline="middle" fill="black" font-family="Arial" font-size="12px" font-weight="bold" text-anchor="middle" x="334.609375" y="193.4765625">Common Room 2</text></g><g id="room_bathroom_2"><polygon fill="rgb(173,216,230)" fill-opacity="0.7" points="374.6875,135.46875 374.6875,211.40625 440.078125,211.40625 440.078125,135.46875" stroke="black" stroke-width="1.5" /><text dominant-baseline="middle" fill="black" font-family="Arial" font-size="12px" font-weight="bold" text-anchor="middle" x="408.4375" y="174.4921875">Bathroom 2</text></g><g id="room_kitchen"><polygon fill="rgb(240,128,128)" fill-opacity="0.7" points="448.515625,135.46875 448.515625,181.875 553.984375,181.875 553.984375,135.46875" stroke="black" stroke-width="1.5" /><text dominant-baseline="middle" fill="black" font-family="Arial" font-size="12px" font-weight="bold" text-anchor="middle" x="502.3046875" y="159.7265625">Kitchen</text></g><g id="room_bathroom"><polygon fill="rgb(173,216,230)" fill-opacity="0.7" points="246.015625,257.8125 246.015625,348.515625 298.75,348.515625 298.75,257.8125" stroke="black" stroke-width="1.5" /><text dominant-baseline="middle" fill="black" font-family="Arial" font-size="12px" font-weight="bold" text-anchor="middle" x="273.4375" y="304.21875">Bathroom</text></g><g id="room_balcony"><polygon fill="rgb(107,142,35)" fill-opacity="0.7" points="442.1875,435.0 442.1875,464.53125 553.984375,464.53125 553.984375,435.0" stroke="black" stroke-width="1.5" /><text dominant-baseline="middle" fill="black" font-family="Arial" font-size="12px" font-weight="bold" text-anchor="middle" x="499.140625" y="450.8203125">Balcony</text></g><rect fill="red" fill-opacity="0.9" height="31.640625" id="main_door" stroke="darkred" stroke-width="3" width="6.328125" x="556.09375" y="255.703125" /><text dominant-baseline="middle" fill="white" font-family="Arial" font-size="9px" font-weight="bold" text-anchor="middle" x="559.2578125" y="271.5234375">Main Door</text><text fill="black" font-family="Arial" font-size="18px" font-weight="bold" text-anchor="middle" x="400.0" y="30">Floor Plan - ID: 24671</text></svg>