<?xml version="1.0" encoding="utf-8" ?>
<svg baseProfile="full" height="600px" version="1.1" viewBox="0 0 800 600" width="800px" xmlns="http://www.w3.org/2000/svg" xmlns:ev="http://www.w3.org/2001/xml-events" xmlns:xlink="http://www.w3.org/1999/xlink"><defs /><rect fill="white" height="600" width="800" x="0" y="0" /><polygon fill="none" id="floor_plan_boundary" points="281.875,127.03125 281.875,232.5 300.859375,234.609375 298.75,243.046875 281.875,243.046875 281.875,253.59375 305.078125,247.265625 307.1875,224.0625 290.3125,221.953125 290.3125,137.578125 359.921875,135.46875 362.03125,188.203125 484.375,190.3125 484.375,268.359375 547.65625,270.46875 547.65625,340.078125 488.59375,342.1875 486.484375,464.53125 254.453125,464.53125 252.34375,354.84375 281.875,352.734375 281.875,293.671875 290.3125,291.5625 290.3125,278.90625 273.4375,283.125 273.4375,342.1875 243.90625,344.296875 243.90625,472.96875 497.03125,472.96875 497.03125,352.734375 556.09375,350.625 556.09375,259.921875 492.8125,257.8125 492.8125,179.765625 372.578125,179.765625 370.46875,127.03125" stroke="black" stroke-linecap="butt" stroke-linejoin="miter" stroke-width="4" /><g id="room_living_room"><polygon fill="rgb(238,232,170)" fill-opacity="0.7" points="292.421875,190.3125 292.421875,221.953125 309.296875,232.5 292.421875,249.375 283.984375,342.1875 334.609375,342.1875 336.71875,394.921875 370.46875,394.921875 372.578125,340.078125 545.546875,340.078125 545.546875,270.46875 389.453125,270.46875 383.125,190.3125" stroke="black" stroke-width="1.5" /><text dominant-baseline="middle" fill="black" font-family="Arial" font-size="12px" font-weight="bold" text-anchor="middle" x="415.8203125" y="293.671875">Living Room</text></g><g id="room_master_bedroom"><polygon fill="rgb(255,165,0)" fill-opacity="0.7" points="383.125,352.734375 383.125,462.421875 486.484375,462.421875 486.484375,352.734375" stroke="black" stroke-width="1.5" /><text dominant-baseline="middle" fill="black" font-family="Arial" font-size="12px" font-weight="bold" text-anchor="middle" x="435.859375" y="408.6328125">Master Bedroom</text></g><g id="room_common_room"><polygon fill="rgb(255,215,0)" fill-opacity="0.7" points="254.453125,403.359375 254.453125,462.421875 370.46875,462.421875 370.46875,403.359375" stroke="black" stroke-width="1.5" /><text dominant-baseline="middle" fill="black" font-family="Arial" font-size="12px" font-weight="bold" text-anchor="middle" x="313.515625" y="433.9453125">Common Room</text></g><g id="room_common_room_2"><polygon fill="rgb(255,215,0)" fill-opacity="0.7" points="395.78125,190.3125 395.78125,259.921875 482.265625,259.921875 482.265625,190.3125" stroke="black" stroke-width="1.5" /><text dominant-baseline="middle" fill="black" font-family="Arial" font-size="12px" font-weight="bold" text-anchor="middle" x="440.078125" y="226.171875">Common Room 2</text></g><g id="room_bathroom"><polygon fill="rgb(173,216,230)" fill-opacity="0.7" points="254.453125,354.84375 254.453125,394.921875 328.28125,394.921875 328.28125,354.84375" stroke="black" stroke-width="1.5" /><text dominant-baseline="middle" fill="black" font-family="Arial" font-size="12px" font-weight="bold" text-anchor="middle" x="292.421875" y="375.9375">Bathroom</text></g><g id="room_balcony"><polygon fill="rgb(107,142,35)" fill-opacity="0.7" points="292.421875,137.578125 292.421875,177.65625 359.921875,177.65625 359.921875,137.578125" stroke="black" stroke-width="1.5" /><text dominant-baseline="middle" fill="black" font-family="Arial" font-size="12px" font-weight="bold" text-anchor="middle" x="327.2265625" y="158.671875">Balcony</text></g><rect fill="red" fill-opacity="0.9" height="23.203125" id="main_door" stroke="darkred" stroke-width="3" width="10.546875" x="281.875" y="255.703125" /><text dominant-baseline="middle" fill="white" font-family="Arial" font-size="9px" font-weight="bold" text-anchor="middle" x="287.1484375" y="267.3046875">Main Door</text><text fill="black" font-family="Arial" font-size="18px" font-weight="bold" text-anchor="middle" x="400.0" y="30">Floor Plan - ID: 24719</text></svg>