<?xml version="1.0" encoding="utf-8" ?>
<svg baseProfile="full" height="600px" version="1.1" viewBox="0 0 800 600" width="800px" xmlns="http://www.w3.org/2000/svg" xmlns:ev="http://www.w3.org/2001/xml-events" xmlns:xlink="http://www.w3.org/1999/xlink"><defs /><rect fill="white" height="600" width="800" x="0" y="0" /><polygon fill="none" id="floor_plan_boundary" points="606.71875,217.734375 532.890625,215.625 530.78125,133.359375 429.53125,133.359375 427.421875,165.0 193.28125,165.0 193.28125,173.4375 433.75,169.21875 435.859375,137.578125 526.5625,137.578125 528.671875,221.953125 602.5,224.0625 600.390625,413.90625 486.484375,413.90625 484.375,462.421875 315.625,462.421875 313.515625,407.578125 197.5,405.46875 193.28125,207.1875 193.28125,411.796875 307.1875,411.796875 309.296875,466.640625 490.703125,466.640625 492.8125,418.125 606.71875,418.125" stroke="black" stroke-linecap="butt" stroke-linejoin="miter" stroke-width="4" /><g id="room_living_room"><polygon fill="rgb(238,232,170)" fill-opacity="0.7" points="199.609375,171.328125 199.609375,287.34375 271.328125,289.453125 271.328125,405.46875 393.671875,405.46875 393.671875,272.578125 484.375,270.46875 484.375,238.828125 368.359375,240.9375 364.140625,171.328125" stroke="black" stroke-width="1.5" /><text dominant-baseline="middle" fill="black" font-family="Arial" font-size="12px" font-weight="bold" text-anchor="middle" x="343.046875" y="289.453125">Living Room</text></g><g id="room_master_bedroom"><polygon fill="rgb(255,165,0)" fill-opacity="0.7" points="492.8125,238.828125 492.8125,411.796875 600.390625,411.796875 600.390625,278.90625 528.671875,278.90625 526.5625,238.828125" stroke="black" stroke-width="1.5" /><text dominant-baseline="middle" fill="black" font-family="Arial" font-size="12px" font-weight="bold" text-anchor="middle" x="547.65625" y="326.3671875">Master Bedroom</text></g><g id="room_common_room"><polygon fill="rgb(255,215,0)" fill-opacity="0.7" points="402.109375,278.90625 402.109375,405.46875 484.375,405.46875 484.375,278.90625" stroke="black" stroke-width="1.5" /><text dominant-baseline="middle" fill="black" font-family="Arial" font-size="12px" font-weight="bold" text-anchor="middle" x="444.296875" y="343.2421875">Common Room</text></g><g id="room_common_room_2"><polygon fill="rgb(255,215,0)" fill-opacity="0.7" points="435.859375,139.6875 435.859375,230.390625 526.5625,230.390625 526.5625,139.6875" stroke="black" stroke-width="1.5" /><text dominant-baseline="middle" fill="black" font-family="Arial" font-size="12px" font-weight="bold" text-anchor="middle" x="482.265625" y="186.09375">Common Room 2</text></g><g id="room_balcony"><polygon fill="rgb(107,142,35)" fill-opacity="0.7" points="315.625,413.90625 315.625,460.3125 484.375,460.3125 484.375,413.90625" stroke="black" stroke-width="1.5" /><text dominant-baseline="middle" fill="black" font-family="Arial" font-size="12px" font-weight="bold" text-anchor="middle" x="401.0546875" y="438.1640625">Balcony</text></g><g id="room_kitchen"><polygon fill="rgb(240,128,128)" fill-opacity="0.7" points="199.609375,295.78125 199.609375,405.46875 262.890625,405.46875 262.890625,295.78125" stroke="black" stroke-width="1.5" /><text dominant-baseline="middle" fill="black" font-family="Arial" font-size="12px" font-weight="bold" text-anchor="middle" x="232.3046875" y="351.6796875">Kitchen</text></g><g id="room_bathroom_2"><polygon fill="rgb(173,216,230)" fill-opacity="0.7" points="372.578125,171.328125 372.578125,230.390625 427.421875,230.390625 427.421875,171.328125" stroke="black" stroke-width="1.5" /><text dominant-baseline="middle" fill="black" font-family="Arial" font-size="12px" font-weight="bold" text-anchor="middle" x="401.0546875" y="201.9140625">Bathroom 2</text></g><g id="room_bathroom"><polygon fill="rgb(173,216,230)" fill-opacity="0.7" points="535.0,224.0625 535.0,270.46875 600.390625,270.46875 600.390625,224.0625" stroke="black" stroke-width="1.5" /><text dominant-baseline="middle" fill="black" font-family="Arial" font-size="12px" font-weight="bold" text-anchor="middle" x="568.75" y="248.3203125">Bathroom</text></g><rect fill="red" fill-opacity="0.9" height="31.640625" id="main_door" stroke="darkred" stroke-width="3" width="6.328125" x="193.28125" y="175.546875" /><text dominant-baseline="middle" fill="white" font-family="Arial" font-size="9px" font-weight="bold" text-anchor="middle" x="196.4453125" y="191.3671875">Main Door</text><text fill="black" font-family="Arial" font-size="18px" font-weight="bold" text-anchor="middle" x="400.0" y="30">Floor Plan - ID: 24726</text></svg>