<?xml version="1.0" encoding="utf-8" ?>
<svg baseProfile="full" height="600px" version="1.1" viewBox="0 0 800 600" width="800px" xmlns="http://www.w3.org/2000/svg" xmlns:ev="http://www.w3.org/2001/xml-events" xmlns:xlink="http://www.w3.org/1999/xlink"><defs /><rect fill="white" height="600" width="800" x="0" y="0" /><polygon fill="none" id="floor_plan_boundary" points="353.59375,131.25 353.59375,183.984375 334.609375,190.3125 357.8125,190.3125 359.921875,135.46875 442.1875,135.46875 444.296875,190.3125 501.25,192.421875 501.25,449.765625 471.71875,451.875 469.609375,464.53125 440.078125,464.53125 437.96875,451.875 370.46875,451.875 368.359375,464.53125 330.390625,464.53125 328.28125,451.875 298.75,449.765625 294.53125,186.09375 294.53125,456.09375 321.953125,456.09375 324.0625,468.75 374.6875,468.75 376.796875,456.09375 431.640625,456.09375 433.75,468.75 475.9375,468.75 478.046875,456.09375 505.46875,456.09375 505.46875,186.09375 450.625,186.09375 448.515625,131.25" stroke="black" stroke-linecap="butt" stroke-linejoin="miter" stroke-width="4" /><g id="room_living_room"><polygon fill="rgb(238,232,170)" fill-opacity="0.7" points="300.859375,192.421875 300.859375,449.765625 368.359375,462.421875 370.46875,449.765625 395.78125,449.765625 395.78125,192.421875" stroke="black" stroke-width="1.5" /><text dominant-baseline="middle" fill="black" font-family="Arial" font-size="12px" font-weight="bold" text-anchor="middle" x="349.375" y="328.4765625">Living Room</text></g><g id="room_master_bedroom"><polygon fill="rgb(255,165,0)" fill-opacity="0.7" points="404.21875,344.296875 404.21875,449.765625 437.96875,449.765625 440.078125,462.421875 469.609375,462.421875 471.71875,449.765625 499.140625,449.765625 499.140625,344.296875" stroke="black" stroke-width="1.5" /><text dominant-baseline="middle" fill="black" font-family="Arial" font-size="12px" font-weight="bold" text-anchor="middle" x="452.734375" y="404.4140625">Master Bedroom</text></g><g id="room_common_room"><polygon fill="rgb(255,215,0)" fill-opacity="0.7" points="404.21875,253.59375 404.21875,335.859375 499.140625,335.859375 499.140625,253.59375" stroke="black" stroke-width="1.5" /><text dominant-baseline="middle" fill="black" font-family="Arial" font-size="12px" font-weight="bold" text-anchor="middle" x="452.734375" y="295.78125">Common Room</text></g><g id="room_kitchen"><polygon fill="rgb(240,128,128)" fill-opacity="0.7" points="404.21875,192.421875 404.21875,245.15625 499.140625,245.15625 499.140625,192.421875" stroke="black" stroke-width="1.5" /><text dominant-baseline="middle" fill="black" font-family="Arial" font-size="12px" font-weight="bold" text-anchor="middle" x="452.734375" y="219.84375">Kitchen</text></g><g id="room_bathroom"><polygon fill="rgb(173,216,230)" fill-opacity="0.7" points="359.921875,137.578125 359.921875,183.984375 442.1875,183.984375 442.1875,137.578125" stroke="black" stroke-width="1.5" /><text dominant-baseline="middle" fill="black" font-family="Arial" font-size="12px" font-weight="bold" text-anchor="middle" x="402.109375" y="161.8359375">Bathroom</text></g><rect fill="red" fill-opacity="0.9" height="6.328125" id="main_door" stroke="darkred" stroke-width="3" width="35.859375" x="298.75" y="186.09375" /><text dominant-baseline="middle" fill="white" font-family="Arial" font-size="9px" font-weight="bold" text-anchor="middle" x="316.6796875" y="189.2578125">Main Door</text><text fill="black" font-family="Arial" font-size="18px" font-weight="bold" text-anchor="middle" x="400.0" y="30">Floor Plan - ID: 24939</text></svg>