<?xml version="1.0" encoding="utf-8" ?>
<svg baseProfile="full" height="600px" version="1.1" viewBox="0 0 800 600" width="800px" xmlns="http://www.w3.org/2000/svg" xmlns:ev="http://www.w3.org/2001/xml-events" xmlns:xlink="http://www.w3.org/1999/xlink"><defs /><rect fill="white" height="600" width="800" x="0" y="0" /><polygon fill="none" id="floor_plan_boundary" points="368.359375,74.296875 366.25,143.90625 269.21875,143.90625 269.21875,487.734375 400.0,487.734375 402.109375,525.703125 530.78125,525.703125 530.78125,335.859375 486.484375,333.75 486.484375,266.25 463.28125,264.140625 463.28125,230.390625 454.84375,230.390625 454.84375,274.6875 478.046875,276.796875 478.046875,344.296875 522.34375,346.40625 522.34375,519.375 408.4375,521.484375 406.328125,479.296875 277.65625,477.1875 277.65625,154.453125 376.796875,152.34375 378.90625,82.734375 475.9375,82.734375 478.046875,141.796875 454.84375,143.90625 454.84375,192.421875 463.28125,192.421875 463.28125,154.453125 486.484375,152.34375 486.484375,74.296875" stroke="black" stroke-linecap="butt" stroke-linejoin="miter" stroke-width="4" /><g id="room_living_room"><polygon fill="rgb(238,232,170)" fill-opacity="0.7" points="378.90625,154.453125 378.90625,274.6875 340.9375,276.796875 340.9375,333.75 378.90625,335.859375 378.90625,477.1875 520.234375,477.1875 520.234375,346.40625 475.9375,344.296875 475.9375,276.796875 452.734375,274.6875 452.734375,154.453125" stroke="black" stroke-width="1.5" /><text dominant-baseline="middle" fill="black" font-family="Arial" font-size="12px" font-weight="bold" text-anchor="middle" x="431.640625" y="316.875">Living Room</text></g><g id="room_master_bedroom"><polygon fill="rgb(255,165,0)" fill-opacity="0.7" points="279.765625,346.40625 279.765625,477.1875 366.25,477.1875 366.25,346.40625" stroke="black" stroke-width="1.5" /><text dominant-baseline="middle" fill="black" font-family="Arial" font-size="12px" font-weight="bold" text-anchor="middle" x="324.0625" y="412.8515625">Master Bedroom</text></g><g id="room_common_room"><polygon fill="rgb(255,215,0)" fill-opacity="0.7" points="279.765625,154.453125 279.765625,264.140625 366.25,264.140625 366.25,154.453125" stroke="black" stroke-width="1.5" /><text dominant-baseline="middle" fill="black" font-family="Arial" font-size="12px" font-weight="bold" text-anchor="middle" x="324.0625" y="210.3515625">Common Room</text></g><g id="room_kitchen"><polygon fill="rgb(240,128,128)" fill-opacity="0.7" points="378.90625,84.84375 378.90625,141.796875 475.9375,141.796875 475.9375,84.84375" stroke="black" stroke-width="1.5" /><text dominant-baseline="middle" fill="black" font-family="Arial" font-size="12px" font-weight="bold" text-anchor="middle" x="428.4765625" y="114.375">Kitchen</text></g><g id="room_balcony"><polygon fill="rgb(107,142,35)" fill-opacity="0.7" points="408.4375,489.84375 408.4375,519.375 520.234375,519.375 520.234375,489.84375" stroke="black" stroke-width="1.5" /><text dominant-baseline="middle" fill="black" font-family="Arial" font-size="12px" font-weight="bold" text-anchor="middle" x="465.390625" y="505.6640625">Balcony</text></g><g id="room_bathroom"><polygon fill="rgb(173,216,230)" fill-opacity="0.7" points="279.765625,276.796875 279.765625,333.75 328.28125,333.75 328.28125,276.796875" stroke="black" stroke-width="1.5" /><text dominant-baseline="middle" fill="black" font-family="Arial" font-size="12px" font-weight="bold" text-anchor="middle" x="305.078125" y="306.328125">Bathroom</text></g><rect fill="red" fill-opacity="0.9" height="35.859375" id="main_door" stroke="darkred" stroke-width="3" width="10.546875" x="454.84375" y="194.53125" /><text dominant-baseline="middle" fill="white" font-family="Arial" font-size="9px" font-weight="bold" text-anchor="middle" x="460.1171875" y="212.4609375">Main Door</text><text fill="black" font-family="Arial" font-size="18px" font-weight="bold" text-anchor="middle" x="400.0" y="30">Floor Plan - ID: 25032</text></svg>