<?xml version="1.0" encoding="utf-8" ?>
<svg baseProfile="full" height="600px" version="1.1" viewBox="0 0 800 600" width="800px" xmlns="http://www.w3.org/2000/svg" xmlns:ev="http://www.w3.org/2001/xml-events" xmlns:xlink="http://www.w3.org/1999/xlink"><defs /><rect fill="white" height="600" width="800" x="0" y="0" /><polygon fill="none" id="floor_plan_boundary" points="558.203125,135.46875 486.484375,135.46875 482.265625,162.890625 494.921875,162.890625 497.03125,143.90625 549.765625,146.015625 547.65625,456.09375 475.9375,456.09375 473.828125,443.4375 440.078125,443.4375 437.96875,382.265625 349.375,382.265625 347.265625,418.125 250.234375,416.015625 250.234375,219.84375 400.0,217.734375 400.0,165.0 452.734375,162.890625 452.734375,154.453125 391.5625,154.453125 389.453125,209.296875 241.796875,209.296875 241.796875,426.5625 357.8125,426.5625 359.921875,390.703125 427.421875,390.703125 429.53125,451.875 463.28125,451.875 465.390625,464.53125 558.203125,464.53125" stroke="black" stroke-linecap="butt" stroke-linejoin="miter" stroke-width="4" /><g id="room_living_room"><polygon fill="rgb(238,232,170)" fill-opacity="0.7" points="402.109375,165.0 402.109375,207.1875 442.1875,209.296875 440.078125,266.25 321.953125,268.359375 321.953125,295.78125 435.859375,295.78125 440.078125,380.15625 547.65625,380.15625 547.65625,238.828125 484.375,236.71875 484.375,165.0" stroke="black" stroke-width="1.5" /><text dominant-baseline="middle" fill="black" font-family="Arial" font-size="12px" font-weight="bold" text-anchor="middle" x="435.859375" y="273.6328125">Living Room</text></g><g id="room_master_bedroom"><polygon fill="rgb(255,165,0)" fill-opacity="0.7" points="252.34375,304.21875 252.34375,416.015625 347.265625,416.015625 349.375,304.21875" stroke="black" stroke-width="1.5" /><text dominant-baseline="middle" fill="black" font-family="Arial" font-size="12px" font-weight="bold" text-anchor="middle" x="301.9140625" y="361.171875">Master Bedroom</text></g><g id="room_common_room_2"><polygon fill="rgb(255,215,0)" fill-opacity="0.7" points="252.34375,219.84375 252.34375,295.78125 313.515625,295.78125 315.625,259.921875 351.484375,259.921875 351.484375,219.84375" stroke="black" stroke-width="1.5" /><text dominant-baseline="middle" fill="black" font-family="Arial" font-size="12px" font-weight="bold" text-anchor="middle" x="302.96875" y="258.8671875">Common Room 2</text></g><g id="room_balcony"><polygon fill="rgb(107,142,35)" fill-opacity="0.7" points="440.078125,392.8125 440.078125,441.328125 473.828125,441.328125 475.9375,453.984375 547.65625,453.984375 547.65625,392.8125" stroke="black" stroke-width="1.5" /><text dominant-baseline="middle" fill="black" font-family="Arial" font-size="12px" font-weight="bold" text-anchor="middle" x="494.921875" y="424.453125">Balcony</text></g><g id="room_common_room"><polygon fill="rgb(255,215,0)" fill-opacity="0.7" points="357.8125,304.21875 359.921875,380.15625 427.421875,380.15625 429.53125,304.21875" stroke="black" stroke-width="1.5" /><text dominant-baseline="middle" fill="black" font-family="Arial" font-size="12px" font-weight="bold" text-anchor="middle" x="394.7265625" y="343.2421875">Common Room</text></g><g id="room_kitchen"><polygon fill="rgb(240,128,128)" fill-opacity="0.7" points="497.03125,146.015625 497.03125,230.390625 547.65625,230.390625 547.65625,146.015625" stroke="black" stroke-width="1.5" /><text dominant-baseline="middle" fill="black" font-family="Arial" font-size="12px" font-weight="bold" text-anchor="middle" x="523.3984375" y="189.2578125">Kitchen</text></g><g id="room_bathroom"><polygon fill="rgb(173,216,230)" fill-opacity="0.7" points="359.921875,219.84375 359.921875,259.921875 431.640625,259.921875 431.640625,219.84375" stroke="black" stroke-width="1.5" /><text dominant-baseline="middle" fill="black" font-family="Arial" font-size="12px" font-weight="bold" text-anchor="middle" x="396.8359375" y="240.9375">Bathroom</text></g><rect fill="red" fill-opacity="0.9" height="10.546875" id="main_door" stroke="darkred" stroke-width="3" width="27.421875" x="454.84375" y="154.453125" /><text dominant-baseline="middle" fill="white" font-family="Arial" font-size="9px" font-weight="bold" text-anchor="middle" x="468.5546875" y="159.7265625">Main Door</text><text fill="black" font-family="Arial" font-size="18px" font-weight="bold" text-anchor="middle" x="400.0" y="30">Floor Plan - ID: 25430</text></svg>