<?xml version="1.0" encoding="utf-8" ?>
<svg baseProfile="full" height="600px" version="1.1" viewBox="0 0 800 600" width="800px" xmlns="http://www.w3.org/2000/svg" xmlns:ev="http://www.w3.org/2001/xml-events" xmlns:xlink="http://www.w3.org/1999/xlink"><defs /><rect fill="white" height="600" width="800" x="0" y="0" /><polygon fill="none" id="floor_plan_boundary" points="315.625,116.484375 315.625,173.4375 277.65625,175.546875 277.65625,483.515625 492.8125,481.40625 494.921875,441.328125 522.34375,439.21875 522.34375,268.359375 516.015625,268.359375 513.90625,428.671875 486.484375,430.78125 486.484375,477.1875 286.09375,472.96875 286.09375,186.09375 324.0625,183.984375 324.0625,127.03125 471.71875,124.921875 473.828125,276.796875 482.265625,266.25 482.265625,116.484375" stroke="black" stroke-linecap="butt" stroke-linejoin="miter" stroke-width="4" /><g id="room_living_room"><polygon fill="rgb(238,232,170)" fill-opacity="0.7" points="471.71875,213.515625 372.578125,213.515625 370.46875,276.796875 288.203125,276.796875 288.203125,397.03125 406.328125,397.03125 408.4375,310.546875 486.484375,310.546875 488.59375,325.3125 511.796875,325.3125 511.796875,278.90625 471.71875,276.796875" stroke="black" stroke-width="1.5" /><text dominant-baseline="middle" fill="black" font-family="Arial" font-size="12px" font-weight="bold" text-anchor="middle" x="401.0546875" y="306.328125">Living Room</text></g><g id="room_common_room_2"><polygon fill="rgb(255,215,0)" fill-opacity="0.7" points="418.984375,318.984375 418.984375,428.671875 511.796875,428.671875 511.796875,333.75 484.375,335.859375 480.15625,318.984375" stroke="black" stroke-width="1.5" /><text dominant-baseline="middle" fill="black" font-family="Arial" font-size="12px" font-weight="bold" text-anchor="middle" x="466.4453125" y="374.8828125">Common Room 2</text></g><g id="room_common_room_3"><polygon fill="rgb(255,215,0)" fill-opacity="0.7" points="326.171875,127.03125 326.171875,205.078125 402.109375,205.078125 402.109375,127.03125" stroke="black" stroke-width="1.5" /><text dominant-baseline="middle" fill="black" font-family="Arial" font-size="12px" font-weight="bold" text-anchor="middle" x="365.1953125" y="167.109375">Common Room 3</text></g><g id="room_balcony"><polygon fill="rgb(107,142,35)" fill-opacity="0.7" points="362.03125,405.46875 362.03125,475.078125 486.484375,475.078125 484.375,441.328125 408.4375,441.328125 406.328125,405.46875" stroke="black" stroke-width="1.5" /><text dominant-baseline="middle" fill="black" font-family="Arial" font-size="12px" font-weight="bold" text-anchor="middle" x="425.3125" y="441.328125">Balcony</text></g><g id="room_bathroom"><polygon fill="rgb(173,216,230)" fill-opacity="0.7" points="288.203125,186.09375 288.203125,268.359375 364.140625,268.359375 364.140625,213.515625 315.625,213.515625 313.515625,186.09375" stroke="black" stroke-width="1.5" /><text dominant-baseline="middle" fill="black" font-family="Arial" font-size="12px" font-weight="bold" text-anchor="middle" x="327.2265625" y="228.28125">Bathroom</text></g><g id="room_kitchen"><polygon fill="rgb(240,128,128)" fill-opacity="0.7" points="410.546875,127.03125 410.546875,205.078125 471.71875,205.078125 471.71875,127.03125" stroke="black" stroke-width="1.5" /><text dominant-baseline="middle" fill="black" font-family="Arial" font-size="12px" font-weight="bold" text-anchor="middle" x="442.1875" y="167.109375">Kitchen</text></g><g id="room_common_room"><polygon fill="rgb(255,215,0)" fill-opacity="0.7" points="288.203125,405.46875 288.203125,472.96875 349.375,472.96875 349.375,405.46875" stroke="black" stroke-width="1.5" /><text dominant-baseline="middle" fill="black" font-family="Arial" font-size="12px" font-weight="bold" text-anchor="middle" x="319.84375" y="440.2734375">Common Room</text></g><rect fill="red" fill-opacity="0.9" height="10.546875" id="main_door" stroke="darkred" stroke-width="3" width="35.859375" x="480.15625" y="268.359375" /><text dominant-baseline="middle" fill="white" font-family="Arial" font-size="9px" font-weight="bold" text-anchor="middle" x="498.0859375" y="273.6328125">Main Door</text><text fill="black" font-family="Arial" font-size="18px" font-weight="bold" text-anchor="middle" x="400.0" y="30">Floor Plan - ID: 25572</text></svg>