<?xml version="1.0" encoding="utf-8" ?>
<svg baseProfile="full" height="600px" version="1.1" viewBox="0 0 800 600" width="800px" xmlns="http://www.w3.org/2000/svg" xmlns:ev="http://www.w3.org/2001/xml-events" xmlns:xlink="http://www.w3.org/1999/xlink"><defs /><rect fill="white" height="600" width="800" x="0" y="0" /><polygon fill="none" id="floor_plan_boundary" points="558.203125,55.3125 362.03125,55.3125 362.03125,146.015625 269.21875,148.125 269.21875,276.796875 241.796875,278.90625 241.796875,523.59375 254.453125,525.703125 254.453125,544.6875 340.9375,544.6875 340.9375,525.703125 357.8125,523.59375 359.921875,337.96875 494.921875,337.96875 494.921875,329.53125 349.375,329.53125 349.375,513.046875 332.5,515.15625 330.390625,536.25 265.0,536.25 262.890625,515.15625 250.234375,513.046875 250.234375,289.453125 277.65625,287.34375 277.65625,158.671875 370.46875,156.5625 372.578125,63.75 547.65625,63.75 549.765625,251.484375 486.484375,253.59375 486.484375,287.34375 494.921875,287.34375 497.03125,262.03125 558.203125,262.03125" stroke="black" stroke-linecap="butt" stroke-linejoin="miter" stroke-width="4" /><g id="room_living_room"><polygon fill="rgb(238,232,170)" fill-opacity="0.7" points="486.484375,118.59375 372.578125,118.59375 372.578125,287.34375 315.625,289.453125 315.625,367.5 347.265625,367.5 349.375,327.421875 484.375,327.421875" stroke="black" stroke-width="1.5" /><text dominant-baseline="middle" fill="black" font-family="Arial" font-size="12px" font-weight="bold" text-anchor="middle" x="402.109375" y="244.1015625">Living Room</text></g><g id="room_master_bedroom"><polygon fill="rgb(255,165,0)" fill-opacity="0.7" points="252.34375,375.9375 252.34375,513.046875 265.0,515.15625 265.0,534.140625 330.390625,534.140625 330.390625,515.15625 347.265625,513.046875 347.265625,375.9375" stroke="black" stroke-width="1.5" /><text dominant-baseline="middle" fill="black" font-family="Arial" font-size="12px" font-weight="bold" text-anchor="middle" x="300.859375" y="456.09375">Master Bedroom</text></g><g id="room_common_room"><polygon fill="rgb(255,215,0)" fill-opacity="0.7" points="279.765625,158.671875 279.765625,276.796875 362.03125,276.796875 362.03125,158.671875" stroke="black" stroke-width="1.5" /><text dominant-baseline="middle" fill="black" font-family="Arial" font-size="12px" font-weight="bold" text-anchor="middle" x="321.953125" y="218.7890625">Common Room</text></g><g id="room_balcony"><polygon fill="rgb(107,142,35)" fill-opacity="0.7" points="372.578125,65.859375 372.578125,105.9375 547.65625,105.9375 547.65625,65.859375" stroke="black" stroke-width="1.5" /><text dominant-baseline="middle" fill="black" font-family="Arial" font-size="12px" font-weight="bold" text-anchor="middle" x="461.171875" y="86.953125">Balcony</text></g><g id="room_kitchen"><polygon fill="rgb(240,128,128)" fill-opacity="0.7" points="494.921875,118.59375 494.921875,251.484375 547.65625,251.484375 547.65625,118.59375" stroke="black" stroke-width="1.5" /><text dominant-baseline="middle" fill="black" font-family="Arial" font-size="12px" font-weight="bold" text-anchor="middle" x="522.34375" y="186.09375">Kitchen</text></g><g id="room_bathroom"><polygon fill="rgb(173,216,230)" fill-opacity="0.7" points="252.34375,289.453125 252.34375,367.5 307.1875,367.5 307.1875,289.453125" stroke="black" stroke-width="1.5" /><text dominant-baseline="middle" fill="black" font-family="Arial" font-size="12px" font-weight="bold" text-anchor="middle" x="280.8203125" y="329.53125">Bathroom</text></g><rect fill="red" fill-opacity="0.9" height="40.078125" id="main_door" stroke="darkred" stroke-width="3" width="10.546875" x="486.484375" y="289.453125" /><text dominant-baseline="middle" fill="white" font-family="Arial" font-size="9px" font-weight="bold" text-anchor="middle" x="491.7578125" y="309.4921875">Main Door</text><text fill="black" font-family="Arial" font-size="18px" font-weight="bold" text-anchor="middle" x="400.0" y="30">Floor Plan - ID: 25618</text></svg>