<?xml version="1.0" encoding="utf-8" ?>
<svg baseProfile="full" height="600px" version="1.1" viewBox="0 0 800 600" width="800px" xmlns="http://www.w3.org/2000/svg" xmlns:ev="http://www.w3.org/2001/xml-events" xmlns:xlink="http://www.w3.org/1999/xlink"><defs /><rect fill="white" height="600" width="800" x="0" y="0" /><polygon fill="none" id="floor_plan_boundary" points="296.640625,110.15625 296.640625,489.84375 395.78125,489.84375 397.890625,470.859375 423.203125,470.859375 425.3125,487.734375 503.359375,487.734375 503.359375,264.140625 486.484375,262.03125 486.484375,232.5 478.046875,232.5 478.046875,272.578125 494.921875,274.6875 494.921875,477.1875 435.859375,479.296875 433.75,462.421875 387.34375,462.421875 385.234375,481.40625 305.078125,479.296875 305.078125,120.703125 475.9375,118.59375 478.046875,202.96875 486.484375,202.96875 486.484375,110.15625" stroke="black" stroke-linecap="butt" stroke-linejoin="miter" stroke-width="4" /><g id="room_living_room"><polygon fill="rgb(238,232,170)" fill-opacity="0.7" points="307.1875,120.703125 307.1875,306.328125 393.671875,306.328125 395.78125,348.515625 425.3125,348.515625 425.3125,243.046875 475.9375,240.9375 475.9375,205.078125 414.765625,202.96875 414.765625,120.703125" stroke="black" stroke-width="1.5" /><text dominant-baseline="middle" fill="black" font-family="Arial" font-size="12px" font-weight="bold" text-anchor="middle" x="392.6171875" y="235.6640625">Living Room</text></g><g id="room_common_room"><polygon fill="rgb(255,215,0)" fill-opacity="0.7" points="395.78125,356.953125 397.890625,460.3125 433.75,460.3125 435.859375,477.1875 492.8125,477.1875 492.8125,348.515625 433.75,348.515625 431.640625,356.953125" stroke="black" stroke-width="1.5" /><text dominant-baseline="middle" fill="black" font-family="Arial" font-size="12px" font-weight="bold" text-anchor="middle" x="445.3515625" y="413.90625">Common Room</text></g><g id="room_master_bedroom"><polygon fill="rgb(255,165,0)" fill-opacity="0.7" points="307.1875,314.765625 307.1875,432.890625 387.34375,432.890625 387.34375,314.765625" stroke="black" stroke-width="1.5" /><text dominant-baseline="middle" fill="black" font-family="Arial" font-size="12px" font-weight="bold" text-anchor="middle" x="348.3203125" y="374.8828125">Master Bedroom</text></g><g id="room_bathroom"><polygon fill="rgb(173,216,230)" fill-opacity="0.7" points="433.75,253.59375 433.75,340.078125 492.8125,340.078125 492.8125,274.6875 475.9375,272.578125 475.9375,253.59375" stroke="black" stroke-width="1.5" /><text dominant-baseline="middle" fill="black" font-family="Arial" font-size="12px" font-weight="bold" text-anchor="middle" x="464.3359375" y="297.890625">Bathroom</text></g><g id="room_kitchen"><polygon fill="rgb(240,128,128)" fill-opacity="0.7" points="427.421875,120.703125 427.421875,192.421875 475.9375,192.421875 475.9375,120.703125" stroke="black" stroke-width="1.5" /><text dominant-baseline="middle" fill="black" font-family="Arial" font-size="12px" font-weight="bold" text-anchor="middle" x="452.734375" y="157.6171875">Kitchen</text></g><g id="room_balcony"><polygon fill="rgb(107,142,35)" fill-opacity="0.7" points="307.1875,441.328125 307.1875,479.296875 385.234375,479.296875 385.234375,441.328125" stroke="black" stroke-width="1.5" /><text dominant-baseline="middle" fill="black" font-family="Arial" font-size="12px" font-weight="bold" text-anchor="middle" x="347.265625" y="461.3671875">Balcony</text></g><rect fill="red" fill-opacity="0.9" height="27.421875" id="main_door" stroke="darkred" stroke-width="3" width="10.546875" x="478.046875" y="205.078125" /><text dominant-baseline="middle" fill="white" font-family="Arial" font-size="9px" font-weight="bold" text-anchor="middle" x="483.3203125" y="218.7890625">Main Door</text><text fill="black" font-family="Arial" font-size="18px" font-weight="bold" text-anchor="middle" x="400.0" y="30">Floor Plan - ID: 25667</text></svg>