<?xml version="1.0" encoding="utf-8" ?>
<svg baseProfile="full" height="600px" version="1.1" viewBox="0 0 800 600" width="800px" xmlns="http://www.w3.org/2000/svg" xmlns:ev="http://www.w3.org/2001/xml-events" xmlns:xlink="http://www.w3.org/1999/xlink"><defs /><rect fill="white" height="600" width="800" x="0" y="0" /><polygon fill="none" id="floor_plan_boundary" points="237.578125,137.578125 237.578125,217.734375 273.4375,219.84375 273.4375,416.015625 292.421875,418.125 292.421875,462.421875 516.015625,462.421875 516.015625,293.671875 562.421875,291.5625 562.421875,183.984375 450.625,183.984375 448.515625,137.578125 393.671875,137.578125 393.671875,146.015625 440.078125,148.125 440.078125,192.421875 553.984375,194.53125 553.984375,281.015625 507.578125,283.125 507.578125,451.875 302.96875,453.984375 300.859375,407.578125 281.875,405.46875 281.875,209.296875 246.015625,207.1875 246.015625,148.125 351.484375,146.015625 351.484375,137.578125" stroke="black" stroke-linecap="butt" stroke-linejoin="miter" stroke-width="4" /><g id="room_living_room"><polygon fill="rgb(238,232,170)" fill-opacity="0.7" points="437.96875,148.125 357.8125,148.125 357.8125,291.5625 283.984375,293.671875 283.984375,405.46875 302.96875,407.578125 302.96875,451.875 397.890625,451.875 397.890625,283.125 437.96875,281.015625" stroke="black" stroke-width="1.5" /><text dominant-baseline="middle" fill="black" font-family="Arial" font-size="12px" font-weight="bold" text-anchor="middle" x="362.03125" y="301.0546875">Living Room</text></g><g id="room_master_bedroom"><polygon fill="rgb(255,165,0)" fill-opacity="0.7" points="410.546875,293.671875 410.546875,405.46875 505.46875,405.46875 505.46875,293.671875" stroke="black" stroke-width="1.5" /><text dominant-baseline="middle" fill="black" font-family="Arial" font-size="12px" font-weight="bold" text-anchor="middle" x="459.0625" y="350.625">Master Bedroom</text></g><g id="room_common_room"><polygon fill="rgb(255,215,0)" fill-opacity="0.7" points="450.625,194.53125 450.625,281.015625 551.875,281.015625 551.875,194.53125" stroke="black" stroke-width="1.5" /><text dominant-baseline="middle" fill="black" font-family="Arial" font-size="12px" font-weight="bold" text-anchor="middle" x="502.3046875" y="238.828125">Common Room</text></g><g id="room_kitchen"><polygon fill="rgb(240,128,128)" fill-opacity="0.7" points="248.125,148.125 248.125,207.1875 345.15625,207.1875 345.15625,148.125" stroke="black" stroke-width="1.5" /><text dominant-baseline="middle" fill="black" font-family="Arial" font-size="12px" font-weight="bold" text-anchor="middle" x="297.6953125" y="178.7109375">Kitchen</text></g><g id="room_bathroom"><polygon fill="rgb(173,216,230)" fill-opacity="0.7" points="283.984375,219.84375 283.984375,281.015625 345.15625,281.015625 345.15625,219.84375" stroke="black" stroke-width="1.5" /><text dominant-baseline="middle" fill="black" font-family="Arial" font-size="12px" font-weight="bold" text-anchor="middle" x="315.625" y="251.484375">Bathroom</text></g><g id="room_balcony"><polygon fill="rgb(107,142,35)" fill-opacity="0.7" points="410.546875,418.125 410.546875,451.875 505.46875,451.875 505.46875,418.125" stroke="black" stroke-width="1.5" /><text dominant-baseline="middle" fill="black" font-family="Arial" font-size="12px" font-weight="bold" text-anchor="middle" x="459.0625" y="436.0546875">Balcony</text></g><rect fill="red" fill-opacity="0.9" height="10.546875" id="main_door" stroke="darkred" stroke-width="3" width="40.078125" x="353.59375" y="137.578125" /><text dominant-baseline="middle" fill="white" font-family="Arial" font-size="9px" font-weight="bold" text-anchor="middle" x="373.6328125" y="142.8515625">Main Door</text><text fill="black" font-family="Arial" font-size="18px" font-weight="bold" text-anchor="middle" x="400.0" y="30">Floor Plan - ID: 25949</text></svg>