<?xml version="1.0" encoding="utf-8" ?>
<svg baseProfile="full" height="600px" version="1.1" viewBox="0 0 800 600" width="800px" xmlns="http://www.w3.org/2000/svg" xmlns:ev="http://www.w3.org/2001/xml-events" xmlns:xlink="http://www.w3.org/1999/xlink"><defs /><rect fill="white" height="600" width="800" x="0" y="0" /><polygon fill="none" id="floor_plan_boundary" points="286.09375,101.71875 286.09375,179.765625 246.015625,181.875 246.015625,224.0625 254.453125,224.0625 256.5625,190.3125 294.53125,190.3125 296.640625,110.15625 353.59375,110.15625 355.703125,120.703125 440.078125,120.703125 442.1875,148.125 545.546875,150.234375 545.546875,238.828125 509.6875,240.9375 509.6875,430.78125 387.34375,432.890625 385.234375,496.171875 294.53125,494.0625 294.53125,251.484375 246.015625,253.59375 246.015625,259.921875 286.09375,262.03125 286.09375,500.390625 391.5625,500.390625 393.671875,441.328125 518.125,441.328125 518.125,251.484375 553.984375,249.375 553.984375,139.6875 452.734375,139.6875 450.625,116.484375 366.25,116.484375 364.140625,101.71875" stroke="black" stroke-linecap="butt" stroke-linejoin="miter" stroke-width="4" /><g id="room_living_room"><polygon fill="rgb(238,232,170)" fill-opacity="0.7" points="256.5625,192.421875 256.5625,249.375 296.640625,251.484375 296.640625,430.78125 412.65625,430.78125 412.65625,278.90625 440.078125,276.796875 440.078125,192.421875 366.25,192.421875 364.140625,219.84375 286.09375,219.84375 283.984375,192.421875" stroke="black" stroke-width="1.5" /><text dominant-baseline="middle" fill="black" font-family="Arial" font-size="12px" font-weight="bold" text-anchor="middle" x="349.375" y="312.65625">Living Room</text></g><g id="room_master_bedroom"><polygon fill="rgb(255,165,0)" fill-opacity="0.7" points="425.3125,289.453125 425.3125,430.78125 507.578125,430.78125 507.578125,335.859375 442.1875,335.859375 440.078125,289.453125" stroke="black" stroke-width="1.5" /><text dominant-baseline="middle" fill="black" font-family="Arial" font-size="12px" font-weight="bold" text-anchor="middle" x="467.5" y="361.171875">Master Bedroom</text></g><g id="room_common_room"><polygon fill="rgb(255,215,0)" fill-opacity="0.7" points="452.734375,150.234375 452.734375,238.828125 543.4375,238.828125 543.4375,150.234375" stroke="black" stroke-width="1.5" /><text dominant-baseline="middle" fill="black" font-family="Arial" font-size="12px" font-weight="bold" text-anchor="middle" x="499.140625" y="195.5859375">Common Room</text></g><g id="room_kitchen"><polygon fill="rgb(240,128,128)" fill-opacity="0.7" points="296.640625,112.265625 296.640625,211.40625 353.59375,211.40625 353.59375,112.265625" stroke="black" stroke-width="1.5" /><text dominant-baseline="middle" fill="black" font-family="Arial" font-size="12px" font-weight="bold" text-anchor="middle" x="326.171875" y="162.890625">Kitchen</text></g><g id="room_balcony"><polygon fill="rgb(107,142,35)" fill-opacity="0.7" points="296.640625,443.4375 296.640625,494.0625 385.234375,494.0625 385.234375,443.4375" stroke="black" stroke-width="1.5" /><text dominant-baseline="middle" fill="black" font-family="Arial" font-size="12px" font-weight="bold" text-anchor="middle" x="341.9921875" y="469.8046875">Balcony</text></g><g id="room_balcony_2"><polygon fill="rgb(107,142,35)" fill-opacity="0.7" points="366.25,122.8125 366.25,179.765625 440.078125,179.765625 440.078125,122.8125" stroke="black" stroke-width="1.5" /><text dominant-baseline="middle" fill="black" font-family="Arial" font-size="12px" font-weight="bold" text-anchor="middle" x="404.21875" y="152.34375">Balcony 2</text></g><g id="room_bathroom"><polygon fill="rgb(173,216,230)" fill-opacity="0.7" points="452.734375,251.484375 452.734375,323.203125 507.578125,323.203125 507.578125,251.484375" stroke="black" stroke-width="1.5" /><text dominant-baseline="middle" fill="black" font-family="Arial" font-size="12px" font-weight="bold" text-anchor="middle" x="481.2109375" y="288.3984375">Bathroom</text></g><rect fill="red" fill-opacity="0.9" height="27.421875" id="main_door" stroke="darkred" stroke-width="3" width="10.546875" x="246.015625" y="226.171875" /><text dominant-baseline="middle" fill="white" font-family="Arial" font-size="9px" font-weight="bold" text-anchor="middle" x="251.2890625" y="239.8828125">Main Door</text><text fill="black" font-family="Arial" font-size="18px" font-weight="bold" text-anchor="middle" x="400.0" y="30">Floor Plan - ID: 26238</text></svg>