<?xml version="1.0" encoding="utf-8" ?>
<svg baseProfile="full" height="600px" version="1.1" viewBox="0 0 800 600" width="800px" xmlns="http://www.w3.org/2000/svg" xmlns:ev="http://www.w3.org/2001/xml-events" xmlns:xlink="http://www.w3.org/1999/xlink"><defs /><rect fill="white" height="600" width="800" x="0" y="0" /><polygon fill="none" id="floor_plan_boundary" points="543.4375,156.5625 340.9375,158.671875 338.828125,207.1875 193.28125,207.1875 193.28125,335.859375 214.375,337.96875 214.375,443.4375 349.375,443.4375 349.375,386.484375 364.140625,384.375 364.140625,375.9375 340.9375,375.9375 338.828125,435.0 222.8125,432.890625 222.8125,327.421875 201.71875,325.3125 201.71875,217.734375 349.375,215.625 351.484375,167.109375 532.890625,165.0 535.0,253.59375 570.859375,255.703125 570.859375,337.96875 598.28125,340.078125 598.28125,397.03125 492.8125,399.140625 490.703125,329.53125 414.765625,329.53125 414.765625,373.828125 402.109375,375.9375 402.109375,384.375 423.203125,384.375 425.3125,337.96875 480.15625,337.96875 482.265625,407.578125 606.71875,407.578125 606.71875,329.53125 579.296875,327.421875 579.296875,245.15625 543.4375,243.046875" stroke="black" stroke-linecap="butt" stroke-linejoin="miter" stroke-width="4" /><g id="room_living_room"><polygon fill="rgb(238,232,170)" fill-opacity="0.7" points="252.34375,217.734375 252.34375,325.3125 349.375,325.3125 351.484375,373.828125 412.65625,373.828125 414.765625,327.421875 532.890625,327.421875 532.890625,255.703125 414.765625,255.703125 412.65625,215.625" stroke="black" stroke-width="1.5" /><text dominant-baseline="middle" fill="black" font-family="Arial" font-size="12px" font-weight="bold" text-anchor="middle" x="393.671875" y="295.78125">Living Room</text></g><g id="room_master_bedroom"><polygon fill="rgb(255,165,0)" fill-opacity="0.7" points="224.921875,337.96875 224.921875,432.890625 338.828125,432.890625 338.828125,337.96875" stroke="black" stroke-width="1.5" /><text dominant-baseline="middle" fill="black" font-family="Arial" font-size="12px" font-weight="bold" text-anchor="middle" x="282.9296875" y="386.484375">Master Bedroom</text></g><g id="room_common_room"><polygon fill="rgb(255,215,0)" fill-opacity="0.7" points="425.3125,167.109375 425.3125,243.046875 532.890625,243.046875 532.890625,167.109375" stroke="black" stroke-width="1.5" /><text dominant-baseline="middle" fill="black" font-family="Arial" font-size="12px" font-weight="bold" text-anchor="middle" x="480.15625" y="206.1328125">Common Room</text></g><g id="room_kitchen"><polygon fill="rgb(240,128,128)" fill-opacity="0.7" points="492.8125,340.078125 492.8125,397.03125 596.171875,397.03125 596.171875,340.078125" stroke="black" stroke-width="1.5" /><text dominant-baseline="middle" fill="black" font-family="Arial" font-size="12px" font-weight="bold" text-anchor="middle" x="545.546875" y="369.609375">Kitchen</text></g><g id="room_balcony_2"><polygon fill="rgb(107,142,35)" fill-opacity="0.7" points="203.828125,217.734375 203.828125,325.3125 239.6875,325.3125 239.6875,217.734375" stroke="black" stroke-width="1.5" /><text dominant-baseline="middle" fill="black" font-family="Arial" font-size="12px" font-weight="bold" text-anchor="middle" x="222.8125" y="272.578125">Balcony 2</text></g><g id="room_bathroom"><polygon fill="rgb(173,216,230)" fill-opacity="0.7" points="351.484375,169.21875 351.484375,207.1875 412.65625,207.1875 412.65625,169.21875" stroke="black" stroke-width="1.5" /><text dominant-baseline="middle" fill="black" font-family="Arial" font-size="12px" font-weight="bold" text-anchor="middle" x="383.125" y="189.2578125">Bathroom</text></g><g id="room_balcony"><polygon fill="rgb(107,142,35)" fill-opacity="0.7" points="545.546875,255.703125 545.546875,327.421875 568.75,327.421875 568.75,255.703125" stroke="black" stroke-width="1.5" /><text dominant-baseline="middle" fill="black" font-family="Arial" font-size="12px" font-weight="bold" text-anchor="middle" x="558.203125" y="292.6171875">Balcony</text></g><rect fill="red" fill-opacity="0.9" height="10.546875" id="main_door" stroke="darkred" stroke-width="3" width="35.859375" x="366.25" y="375.9375" /><text dominant-baseline="middle" fill="white" font-family="Arial" font-size="9px" font-weight="bold" text-anchor="middle" x="384.1796875" y="381.2109375">Main Door</text><text fill="black" font-family="Arial" font-size="18px" font-weight="bold" text-anchor="middle" x="400.0" y="30">Floor Plan - ID: 26268</text></svg>