<?xml version="1.0" encoding="utf-8" ?>
<svg baseProfile="full" height="600px" version="1.1" viewBox="0 0 800 600" width="800px" xmlns="http://www.w3.org/2000/svg" xmlns:ev="http://www.w3.org/2001/xml-events" xmlns:xlink="http://www.w3.org/1999/xlink"><defs /><rect fill="white" height="600" width="800" x="0" y="0" /><polygon fill="none" id="floor_plan_boundary" points="269.21875,129.140625 269.21875,238.828125 317.734375,240.9375 317.734375,302.109375 288.203125,304.21875 288.203125,451.875 311.40625,453.984375 311.40625,481.40625 402.109375,481.40625 404.21875,494.0625 499.140625,494.0625 501.25,453.984375 530.78125,451.875 530.78125,122.8125 471.71875,129.140625 469.609375,105.9375 435.859375,105.9375 435.859375,114.375 461.171875,116.484375 461.171875,137.578125 511.796875,137.578125 513.90625,127.03125 522.34375,129.140625 522.34375,441.328125 490.703125,443.4375 490.703125,485.625 315.625,475.078125 315.625,443.4375 296.640625,441.328125 296.640625,314.765625 326.171875,312.65625 326.171875,230.390625 277.65625,228.28125 277.65625,139.6875 404.21875,137.578125 406.328125,105.9375 395.78125,105.9375 393.671875,129.140625" stroke="black" stroke-linecap="butt" stroke-linejoin="miter" stroke-width="4" /><g id="room_living_room"><polygon fill="rgb(238,232,170)" fill-opacity="0.7" points="406.328125,116.484375 406.328125,441.328125 520.234375,441.328125 520.234375,215.625 463.28125,215.625 461.171875,167.109375 435.859375,165.0 435.859375,116.484375" stroke="black" stroke-width="1.5" /><text dominant-baseline="middle" fill="black" font-family="Arial" font-size="12px" font-weight="bold" text-anchor="middle" x="464.3359375" y="279.9609375">Living Room</text></g><g id="room_master_bedroom"><polygon fill="rgb(255,165,0)" fill-opacity="0.7" points="298.75,314.765625 298.75,441.328125 393.671875,441.328125 393.671875,312.65625" stroke="black" stroke-width="1.5" /><text dominant-baseline="middle" fill="black" font-family="Arial" font-size="12px" font-weight="bold" text-anchor="middle" x="347.265625" y="378.046875">Master Bedroom</text></g><g id="room_common_room"><polygon fill="rgb(255,215,0)" fill-opacity="0.7" points="279.765625,139.6875 279.765625,228.28125 393.671875,230.390625 393.671875,139.6875" stroke="black" stroke-width="1.5" /><text dominant-baseline="middle" fill="black" font-family="Arial" font-size="12px" font-weight="bold" text-anchor="middle" x="337.7734375" y="186.09375">Common Room</text></g><g id="room_kitchen"><polygon fill="rgb(240,128,128)" fill-opacity="0.7" points="328.28125,238.828125 328.28125,304.21875 393.671875,304.21875 393.671875,238.828125" stroke="black" stroke-width="1.5" /><text dominant-baseline="middle" fill="black" font-family="Arial" font-size="12px" font-weight="bold" text-anchor="middle" x="362.03125" y="272.578125">Kitchen</text></g><g id="room_bathroom"><polygon fill="rgb(173,216,230)" fill-opacity="0.7" points="520.234375,129.140625 513.90625,129.140625 511.796875,139.6875 469.609375,139.6875 469.609375,207.1875 520.234375,207.1875" stroke="black" stroke-width="1.5" /><text dominant-baseline="middle" fill="black" font-family="Arial" font-size="12px" font-weight="bold" text-anchor="middle" x="495.9765625" y="169.21875">Bathroom</text></g><g id="room_balcony"><polygon fill="rgb(107,142,35)" fill-opacity="0.7" points="414.765625,453.984375 414.765625,483.515625 490.703125,483.515625 490.703125,453.984375" stroke="black" stroke-width="1.5" /><text dominant-baseline="middle" fill="black" font-family="Arial" font-size="12px" font-weight="bold" text-anchor="middle" x="453.7890625" y="469.8046875">Balcony</text></g><g id="room_balcony_2"><polygon fill="rgb(107,142,35)" fill-opacity="0.7" points="317.734375,453.984375 317.734375,475.078125 402.109375,475.078125 402.109375,453.984375" stroke="black" stroke-width="1.5" /><text dominant-baseline="middle" fill="black" font-family="Arial" font-size="12px" font-weight="bold" text-anchor="middle" x="360.9765625" y="465.5859375">Balcony 2</text></g><rect fill="red" fill-opacity="0.9" height="10.546875" id="main_door" stroke="darkred" stroke-width="3" width="27.421875" x="408.4375" y="105.9375" /><text dominant-baseline="middle" fill="white" font-family="Arial" font-size="9px" font-weight="bold" text-anchor="middle" x="422.1484375" y="111.2109375">Main Door</text><text fill="black" font-family="Arial" font-size="18px" font-weight="bold" text-anchor="middle" x="400.0" y="30">Floor Plan - ID: 26342</text></svg>