<?xml version="1.0" encoding="utf-8" ?>
<svg baseProfile="full" height="600px" version="1.1" viewBox="0 0 800 600" width="800px" xmlns="http://www.w3.org/2000/svg" xmlns:ev="http://www.w3.org/2001/xml-events" xmlns:xlink="http://www.w3.org/1999/xlink"><defs /><rect fill="white" height="600" width="800" x="0" y="0" /><polygon fill="none" id="floor_plan_boundary" points="241.796875,167.109375 241.796875,333.75 265.0,335.859375 265.0,445.546875 368.359375,445.546875 370.46875,472.96875 465.390625,472.96875 467.5,445.546875 558.203125,445.546875 558.203125,318.984375 494.921875,318.984375 492.8125,306.328125 488.59375,323.203125 553.984375,325.3125 551.875,441.328125 461.171875,441.328125 459.0625,468.75 376.796875,468.75 374.6875,441.328125 269.21875,439.21875 269.21875,329.53125 246.015625,327.421875 246.015625,173.4375 359.921875,171.328125 362.03125,131.25 480.15625,131.25 492.8125,276.796875 486.484375,127.03125 355.703125,127.03125 353.59375,167.109375" stroke="black" stroke-linecap="butt" stroke-linejoin="miter" stroke-width="4" /><g id="room_living_room"><polygon fill="rgb(238,232,170)" fill-opacity="0.7" points="362.03125,173.4375 364.140625,266.25 326.171875,270.46875 326.171875,327.421875 364.140625,331.640625 362.03125,439.21875 378.90625,443.4375 376.796875,466.640625 459.0625,466.640625 486.484375,257.8125 427.421875,253.59375 429.53125,173.4375" stroke="black" stroke-width="1.5" /><text dominant-baseline="middle" fill="black" font-family="Arial" font-size="12px" font-weight="bold" text-anchor="middle" x="407.3828125" y="321.09375">Living Room</text></g><g id="room_common_room_2"><polygon fill="rgb(255,215,0)" fill-opacity="0.7" points="248.125,173.4375 248.125,262.03125 353.59375,262.03125 353.59375,173.4375" stroke="black" stroke-width="1.5" /><text dominant-baseline="middle" fill="black" font-family="Arial" font-size="12px" font-weight="bold" text-anchor="middle" x="301.9140625" y="218.7890625">Common Room 2</text></g><g id="room_common_room"><polygon fill="rgb(255,215,0)" fill-opacity="0.7" points="271.328125,335.859375 271.328125,439.21875 353.59375,439.21875 353.59375,335.859375" stroke="black" stroke-width="1.5" /><text dominant-baseline="middle" fill="black" font-family="Arial" font-size="12px" font-weight="bold" text-anchor="middle" x="313.515625" y="388.59375">Common Room</text></g><g id="room_master_bedroom"><polygon fill="rgb(255,165,0)" fill-opacity="0.7" points="480.15625,325.3125 480.15625,439.21875 551.875,439.21875 551.875,325.3125" stroke="black" stroke-width="1.5" /><text dominant-baseline="middle" fill="black" font-family="Arial" font-size="12px" font-weight="bold" text-anchor="middle" x="517.0703125" y="383.3203125">Master Bedroom</text></g><g id="room_kitchen"><polygon fill="rgb(240,128,128)" fill-opacity="0.7" points="437.96875,133.359375 437.96875,249.375 486.484375,249.375 486.484375,173.4375 478.046875,169.21875 480.15625,133.359375" stroke="black" stroke-width="1.5" /><text dominant-baseline="middle" fill="black" font-family="Arial" font-size="12px" font-weight="bold" text-anchor="middle" x="463.28125" y="192.421875">Kitchen</text></g><g id="room_bathroom"><polygon fill="rgb(173,216,230)" fill-opacity="0.7" points="248.125,270.46875 248.125,327.421875 317.734375,327.421875 317.734375,270.46875" stroke="black" stroke-width="1.5" /><text dominant-baseline="middle" fill="black" font-family="Arial" font-size="12px" font-weight="bold" text-anchor="middle" x="283.984375" y="300.0">Bathroom</text></g><g id="room_balcony"><polygon fill="rgb(107,142,35)" fill-opacity="0.7" points="362.03125,133.359375 362.03125,165.0 429.53125,165.0 429.53125,133.359375" stroke="black" stroke-width="1.5" /><text dominant-baseline="middle" fill="black" font-family="Arial" font-size="12px" font-weight="bold" text-anchor="middle" x="396.8359375" y="150.234375">Balcony</text></g><rect fill="red" fill-opacity="0.9" height="27.421875" id="main_door" stroke="darkred" stroke-width="3" width="6.328125" x="488.59375" y="278.90625" /><text dominant-baseline="middle" fill="white" font-family="Arial" font-size="9px" font-weight="bold" text-anchor="middle" x="491.7578125" y="292.6171875">Main Door</text><text fill="black" font-family="Arial" font-size="18px" font-weight="bold" text-anchor="middle" x="400.0" y="30">Floor Plan - ID: 26354</text></svg>