<?xml version="1.0" encoding="utf-8" ?>
<svg baseProfile="full" height="600px" version="1.1" viewBox="0 0 800 600" width="800px" xmlns="http://www.w3.org/2000/svg" xmlns:ev="http://www.w3.org/2001/xml-events" xmlns:xlink="http://www.w3.org/1999/xlink"><defs /><rect fill="white" height="600" width="800" x="0" y="0" /><polygon fill="none" id="floor_plan_boundary" points="537.109375,143.90625 374.6875,143.90625 532.890625,150.234375 532.890625,238.828125 486.484375,240.9375 486.484375,413.90625 378.90625,416.015625 376.796875,451.875 267.109375,449.765625 267.109375,217.734375 300.859375,215.625 302.96875,186.09375 340.9375,186.09375 345.15625,143.90625 336.71875,143.90625 334.609375,181.875 296.640625,181.875 294.53125,211.40625 262.890625,211.40625 262.890625,456.09375 383.125,456.09375 385.234375,420.234375 490.703125,420.234375 490.703125,247.265625 537.109375,245.15625" stroke="black" stroke-linecap="butt" stroke-linejoin="miter" stroke-width="4" /><g id="room_living_room"><polygon fill="rgb(238,232,170)" fill-opacity="0.7" points="376.796875,150.234375 343.046875,150.234375 340.9375,188.203125 302.96875,188.203125 345.15625,194.53125 345.15625,257.8125 269.21875,262.03125 269.21875,449.765625 376.796875,449.765625" stroke="black" stroke-width="1.5" /><text dominant-baseline="middle" fill="black" font-family="Arial" font-size="12px" font-weight="bold" text-anchor="middle" x="324.0625" y="301.0546875">Living Room</text></g><g id="room_common_room"><polygon fill="rgb(255,215,0)" fill-opacity="0.7" points="385.234375,150.234375 385.234375,238.828125 530.78125,238.828125 530.78125,150.234375" stroke="black" stroke-width="1.5" /><text dominant-baseline="middle" fill="black" font-family="Arial" font-size="12px" font-weight="bold" text-anchor="middle" x="459.0625" y="195.5859375">Common Room</text></g><g id="room_master_bedroom"><polygon fill="rgb(255,165,0)" fill-opacity="0.7" points="385.234375,302.109375 385.234375,413.90625 484.375,413.90625 484.375,302.109375" stroke="black" stroke-width="1.5" /><text dominant-baseline="middle" fill="black" font-family="Arial" font-size="12px" font-weight="bold" text-anchor="middle" x="435.859375" y="359.0625">Master Bedroom</text></g><g id="room_kitchen"><polygon fill="rgb(240,128,128)" fill-opacity="0.7" points="385.234375,247.265625 385.234375,293.671875 484.375,293.671875 484.375,247.265625" stroke="black" stroke-width="1.5" /><text dominant-baseline="middle" fill="black" font-family="Arial" font-size="12px" font-weight="bold" text-anchor="middle" x="435.859375" y="271.5234375">Kitchen</text></g><g id="room_bathroom"><polygon fill="rgb(173,216,230)" fill-opacity="0.7" points="334.609375,198.75 302.96875,198.75 300.859375,217.734375 269.21875,217.734375 269.21875,253.59375 334.609375,253.59375" stroke="black" stroke-width="1.5" /><text dominant-baseline="middle" fill="black" font-family="Arial" font-size="12px" font-weight="bold" text-anchor="middle" x="302.96875" y="227.2265625">Bathroom</text></g><rect fill="red" fill-opacity="0.9" height="6.328125" id="main_door" stroke="darkred" stroke-width="3" width="27.421875" x="347.265625" y="143.90625" /><text dominant-baseline="middle" fill="white" font-family="Arial" font-size="9px" font-weight="bold" text-anchor="middle" x="360.9765625" y="147.0703125">Main Door</text><text fill="black" font-family="Arial" font-size="18px" font-weight="bold" text-anchor="middle" x="400.0" y="30">Floor Plan - ID: 26760</text></svg>