<?xml version="1.0" encoding="utf-8" ?>
<svg baseProfile="full" height="600px" version="1.1" viewBox="0 0 800 600" width="800px" xmlns="http://www.w3.org/2000/svg" xmlns:ev="http://www.w3.org/2001/xml-events" xmlns:xlink="http://www.w3.org/1999/xlink"><defs /><rect fill="white" height="600" width="800" x="0" y="0" /><polygon fill="none" id="floor_plan_boundary" points="233.359375,137.578125 233.359375,272.578125 241.796875,272.578125 243.90625,146.015625 328.28125,146.015625 330.390625,129.140625 435.859375,129.140625 437.96875,158.671875 513.90625,158.671875 516.015625,181.875 530.78125,183.984375 530.78125,274.6875 558.203125,276.796875 558.203125,420.234375 543.4375,422.34375 541.328125,447.65625 437.96875,447.65625 435.859375,470.859375 355.703125,470.859375 353.59375,304.21875 233.359375,302.109375 233.359375,312.65625 345.15625,316.875 345.15625,479.296875 446.40625,479.296875 448.515625,456.09375 551.875,456.09375 551.875,432.890625 566.640625,430.78125 566.640625,266.25 539.21875,264.140625 539.21875,173.4375 524.453125,171.328125 524.453125,150.234375 448.515625,150.234375 446.40625,120.703125 319.84375,120.703125 317.734375,137.578125" stroke="black" stroke-linecap="butt" stroke-linejoin="miter" stroke-width="4" /><g id="room_living_room"><polygon fill="rgb(238,232,170)" fill-opacity="0.7" points="243.90625,205.078125 243.90625,304.21875 444.296875,304.21875 446.40625,321.09375 471.71875,321.09375 471.71875,274.6875 435.859375,272.578125 435.859375,131.25 330.390625,131.25 326.171875,205.078125" stroke="black" stroke-width="1.5" /><text dominant-baseline="middle" fill="black" font-family="Arial" font-size="12px" font-weight="bold" text-anchor="middle" x="358.8671875" y="227.2265625">Living Room</text></g><g id="room_master_bedroom"><polygon fill="rgb(255,165,0)" fill-opacity="0.7" points="446.40625,329.53125 448.515625,445.546875 541.328125,445.546875 541.328125,422.34375 556.09375,420.234375 556.09375,329.53125" stroke="black" stroke-width="1.5" /><text dominant-baseline="middle" fill="black" font-family="Arial" font-size="12px" font-weight="bold" text-anchor="middle" x="502.3046875" y="388.59375">Master Bedroom</text></g><g id="room_common_room"><polygon fill="rgb(255,215,0)" fill-opacity="0.7" points="355.703125,314.765625 355.703125,420.234375 437.96875,420.234375 437.96875,314.765625" stroke="black" stroke-width="1.5" /><text dominant-baseline="middle" fill="black" font-family="Arial" font-size="12px" font-weight="bold" text-anchor="middle" x="397.890625" y="368.5546875">Common Room</text></g><g id="room_common_room_2"><polygon fill="rgb(255,215,0)" fill-opacity="0.7" points="448.515625,160.78125 448.515625,266.25 528.671875,266.25 528.671875,183.984375 513.90625,181.875 513.90625,160.78125" stroke="black" stroke-width="1.5" /><text dominant-baseline="middle" fill="black" font-family="Arial" font-size="12px" font-weight="bold" text-anchor="middle" x="489.6484375" y="214.5703125">Common Room 2</text></g><g id="room_kitchen"><polygon fill="rgb(240,128,128)" fill-opacity="0.7" points="243.90625,148.125 243.90625,196.640625 319.84375,196.640625 317.734375,148.125" stroke="black" stroke-width="1.5" /><text dominant-baseline="middle" fill="black" font-family="Arial" font-size="12px" font-weight="bold" text-anchor="middle" x="282.9296875" y="173.4375">Kitchen</text></g><g id="room_bathroom"><polygon fill="rgb(173,216,230)" fill-opacity="0.7" points="480.15625,274.6875 480.15625,321.09375 556.09375,321.09375 556.09375,276.796875" stroke="black" stroke-width="1.5" /><text dominant-baseline="middle" fill="black" font-family="Arial" font-size="12px" font-weight="bold" text-anchor="middle" x="519.1796875" y="298.9453125">Bathroom</text></g><g id="room_balcony"><polygon fill="rgb(107,142,35)" fill-opacity="0.7" points="355.703125,432.890625 355.703125,468.75 435.859375,468.75 435.859375,432.890625" stroke="black" stroke-width="1.5" /><text dominant-baseline="middle" fill="black" font-family="Arial" font-size="12px" font-weight="bold" text-anchor="middle" x="396.8359375" y="451.875">Balcony</text></g><rect fill="red" fill-opacity="0.9" height="27.421875" id="main_door" stroke="darkred" stroke-width="3" width="10.546875" x="233.359375" y="274.6875" /><text dominant-baseline="middle" fill="white" font-family="Arial" font-size="9px" font-weight="bold" text-anchor="middle" x="238.6328125" y="288.3984375">Main Door</text><text fill="black" font-family="Arial" font-size="18px" font-weight="bold" text-anchor="middle" x="400.0" y="30">Floor Plan - ID: 26820</text></svg>