<?xml version="1.0" encoding="utf-8" ?>
<svg baseProfile="full" height="600px" version="1.1" viewBox="0 0 800 600" width="800px" xmlns="http://www.w3.org/2000/svg" xmlns:ev="http://www.w3.org/2001/xml-events" xmlns:xlink="http://www.w3.org/1999/xlink"><defs /><rect fill="white" height="600" width="800" x="0" y="0" /><polygon fill="none" id="floor_plan_boundary" points="191.171875,124.921875 191.171875,224.0625 250.234375,224.0625 252.34375,245.15625 260.78125,245.15625 260.78125,215.625 199.609375,213.515625 201.71875,133.359375 395.78125,133.359375 397.890625,160.78125 598.28125,160.78125 598.28125,466.640625 376.796875,466.640625 374.6875,287.34375 252.34375,287.34375 252.34375,295.78125 366.25,297.890625 366.25,475.078125 608.828125,475.078125 608.828125,152.34375 408.4375,152.34375 406.328125,124.921875" stroke="black" stroke-linecap="butt" stroke-linejoin="miter" stroke-width="4" /><g id="room_living_room"><polygon fill="rgb(238,232,170)" fill-opacity="0.7" points="347.265625,135.46875 347.265625,211.40625 290.3125,213.515625 290.3125,247.265625 262.890625,249.375 262.890625,285.234375 376.796875,287.34375 376.796875,464.53125 490.703125,464.53125 490.703125,289.453125 530.78125,287.34375 530.78125,249.375 490.703125,247.265625 490.703125,162.890625 397.890625,162.890625 395.78125,135.46875" stroke="black" stroke-width="1.5" /><text dominant-baseline="middle" fill="black" font-family="Arial" font-size="12px" font-weight="bold" text-anchor="middle" x="397.890625" y="301.0546875">Living Room</text></g><g id="room_master_bedroom"><polygon fill="rgb(255,165,0)" fill-opacity="0.7" points="503.359375,295.78125 503.359375,464.53125 598.28125,464.53125 598.28125,331.640625 532.890625,331.640625 530.78125,295.78125" stroke="black" stroke-width="1.5" /><text dominant-baseline="middle" fill="black" font-family="Arial" font-size="12px" font-weight="bold" text-anchor="middle" x="551.875" y="381.2109375">Master Bedroom</text></g><g id="room_common_room"><polygon fill="rgb(255,215,0)" fill-opacity="0.7" points="503.359375,162.890625 503.359375,240.9375 537.109375,240.9375 539.21875,259.921875 598.28125,259.921875 598.28125,162.890625" stroke="black" stroke-width="1.5" /><text dominant-baseline="middle" fill="black" font-family="Arial" font-size="12px" font-weight="bold" text-anchor="middle" x="551.875" y="212.4609375">Common Room</text></g><g id="room_common_room_2"><polygon fill="rgb(255,215,0)" fill-opacity="0.7" points="201.71875,135.46875 201.71875,213.515625 260.78125,213.515625 262.890625,240.9375 281.875,240.9375 281.875,135.46875" stroke="black" stroke-width="1.5" /><text dominant-baseline="middle" fill="black" font-family="Arial" font-size="12px" font-weight="bold" text-anchor="middle" x="242.8515625" y="189.2578125">Common Room 2</text></g><g id="room_bathroom"><polygon fill="rgb(173,216,230)" fill-opacity="0.7" points="539.21875,268.359375 539.21875,323.203125 598.28125,323.203125 598.28125,268.359375" stroke="black" stroke-width="1.5" /><text dominant-baseline="middle" fill="black" font-family="Arial" font-size="12px" font-weight="bold" text-anchor="middle" x="569.8046875" y="296.8359375">Bathroom</text></g><g id="room_bathroom_2"><polygon fill="rgb(173,216,230)" fill-opacity="0.7" points="290.3125,135.46875 290.3125,205.078125 334.609375,205.078125 334.609375,135.46875" stroke="black" stroke-width="1.5" /><text dominant-baseline="middle" fill="black" font-family="Arial" font-size="12px" font-weight="bold" text-anchor="middle" x="313.515625" y="171.328125">Bathroom 2</text></g><rect fill="red" fill-opacity="0.9" height="40.078125" id="main_door" stroke="darkred" stroke-width="3" width="10.546875" x="252.34375" y="247.265625" /><text dominant-baseline="middle" fill="white" font-family="Arial" font-size="9px" font-weight="bold" text-anchor="middle" x="257.6171875" y="267.3046875">Main Door</text><text fill="black" font-family="Arial" font-size="18px" font-weight="bold" text-anchor="middle" x="400.0" y="30">Floor Plan - ID: 2709</text></svg>