<?xml version="1.0" encoding="utf-8" ?>
<svg baseProfile="full" height="600px" version="1.1" viewBox="0 0 800 600" width="800px" xmlns="http://www.w3.org/2000/svg" xmlns:ev="http://www.w3.org/2001/xml-events" xmlns:xlink="http://www.w3.org/1999/xlink"><defs /><rect fill="white" height="600" width="800" x="0" y="0" /><polygon fill="none" id="floor_plan_boundary" points="203.828125,116.484375 203.828125,247.265625 233.359375,245.15625 212.265625,236.71875 214.375,124.921875 357.8125,124.921875 359.921875,139.6875 437.96875,139.6875 440.078125,160.78125 503.359375,160.78125 505.46875,139.6875 585.625,139.6875 585.625,443.4375 480.15625,443.4375 478.046875,475.078125 370.46875,475.078125 368.359375,287.34375 224.921875,283.125 224.921875,295.78125 359.921875,297.890625 359.921875,483.515625 488.59375,483.515625 490.703125,451.875 596.171875,451.875 596.171875,131.25 494.921875,131.25 492.8125,152.34375 450.625,152.34375 448.515625,131.25 370.46875,131.25 368.359375,116.484375" stroke="black" stroke-linecap="butt" stroke-linejoin="miter" stroke-width="4" /><g id="room_living_room"><polygon fill="rgb(238,232,170)" fill-opacity="0.7" points="277.65625,127.03125 279.765625,247.265625 235.46875,249.375 235.46875,285.234375 368.359375,285.234375 370.46875,416.015625 478.046875,416.015625 478.046875,287.34375 530.78125,285.234375 530.78125,249.375 359.921875,249.375 357.8125,127.03125" stroke="black" stroke-width="1.5" /><text dominant-baseline="middle" fill="black" font-family="Arial" font-size="12px" font-weight="bold" text-anchor="middle" x="384.1796875" y="272.578125">Living Room</text></g><g id="room_master_bedroom"><polygon fill="rgb(255,165,0)" fill-opacity="0.7" points="490.703125,297.890625 490.703125,441.328125 585.625,441.328125 585.625,329.53125 532.890625,329.53125 530.78125,297.890625" stroke="black" stroke-width="1.5" /><text dominant-baseline="middle" fill="black" font-family="Arial" font-size="12px" font-weight="bold" text-anchor="middle" x="539.21875" y="370.6640625">Master Bedroom</text></g><g id="room_common_room"><polygon fill="rgb(255,215,0)" fill-opacity="0.7" points="505.46875,141.796875 505.46875,236.71875 585.625,236.71875 585.625,141.796875" stroke="black" stroke-width="1.5" /><text dominant-baseline="middle" fill="black" font-family="Arial" font-size="12px" font-weight="bold" text-anchor="middle" x="546.6015625" y="190.3125">Common Room</text></g><g id="room_common_room_2"><polygon fill="rgb(255,215,0)" fill-opacity="0.7" points="370.46875,141.796875 370.46875,236.71875 437.96875,236.71875 437.96875,141.796875" stroke="black" stroke-width="1.5" /><text dominant-baseline="middle" fill="black" font-family="Arial" font-size="12px" font-weight="bold" text-anchor="middle" x="405.2734375" y="190.3125">Common Room 2</text></g><g id="room_kitchen"><polygon fill="rgb(240,128,128)" fill-opacity="0.7" points="214.375,127.03125 214.375,236.71875 269.21875,236.71875 269.21875,127.03125" stroke="black" stroke-width="1.5" /><text dominant-baseline="middle" fill="black" font-family="Arial" font-size="12px" font-weight="bold" text-anchor="middle" x="242.8515625" y="182.9296875">Kitchen</text></g><g id="room_balcony"><polygon fill="rgb(107,142,35)" fill-opacity="0.7" points="370.46875,428.671875 370.46875,472.96875 478.046875,472.96875 478.046875,428.671875" stroke="black" stroke-width="1.5" /><text dominant-baseline="middle" fill="black" font-family="Arial" font-size="12px" font-weight="bold" text-anchor="middle" x="425.3125" y="451.875">Balcony</text></g><g id="room_bathroom_2"><polygon fill="rgb(173,216,230)" fill-opacity="0.7" points="450.625,162.890625 450.625,236.71875 492.8125,236.71875 492.8125,162.890625" stroke="black" stroke-width="1.5" /><text dominant-baseline="middle" fill="black" font-family="Arial" font-size="12px" font-weight="bold" text-anchor="middle" x="472.7734375" y="200.859375">Bathroom 2</text></g><g id="room_bathroom"><polygon fill="rgb(173,216,230)" fill-opacity="0.7" points="543.4375,249.375 543.4375,316.875 585.625,316.875 585.625,249.375" stroke="black" stroke-width="1.5" /><text dominant-baseline="middle" fill="black" font-family="Arial" font-size="12px" font-weight="bold" text-anchor="middle" x="565.5859375" y="284.1796875">Bathroom</text></g><rect fill="red" fill-opacity="0.9" height="35.859375" id="main_door" stroke="darkred" stroke-width="3" width="10.546875" x="224.921875" y="247.265625" /><text dominant-baseline="middle" fill="white" font-family="Arial" font-size="9px" font-weight="bold" text-anchor="middle" x="230.1953125" y="265.1953125">Main Door</text><text fill="black" font-family="Arial" font-size="18px" font-weight="bold" text-anchor="middle" x="400.0" y="30">Floor Plan - ID: 27182</text></svg>