<?xml version="1.0" encoding="utf-8" ?>
<svg baseProfile="full" height="600px" version="1.1" viewBox="0 0 800 600" width="800px" xmlns="http://www.w3.org/2000/svg" xmlns:ev="http://www.w3.org/2001/xml-events" xmlns:xlink="http://www.w3.org/1999/xlink"><defs /><rect fill="white" height="600" width="800" x="0" y="0" /><polygon fill="none" id="floor_plan_boundary" points="317.734375,95.390625 317.734375,213.515625 326.171875,213.515625 328.28125,103.828125 444.296875,103.828125 446.40625,173.4375 484.375,175.546875 484.375,276.796875 511.796875,278.90625 511.796875,451.875 404.21875,453.984375 402.109375,496.171875 288.203125,494.0625 288.203125,337.96875 326.171875,335.859375 326.171875,251.484375 317.734375,251.484375 317.734375,325.3125 279.765625,327.421875 279.765625,504.609375 412.65625,504.609375 414.765625,462.421875 520.234375,462.421875 520.234375,268.359375 492.8125,266.25 492.8125,165.0 454.84375,162.890625 454.84375,95.390625" stroke="black" stroke-linecap="butt" stroke-linejoin="miter" stroke-width="4" /><g id="room_living_room"><polygon fill="rgb(238,232,170)" fill-opacity="0.7" points="328.28125,175.546875 328.28125,325.3125 440.078125,325.3125 440.078125,262.03125 482.265625,259.921875 482.265625,175.546875" stroke="black" stroke-width="1.5" /><text dominant-baseline="middle" fill="black" font-family="Arial" font-size="12px" font-weight="bold" text-anchor="middle" x="406.328125" y="251.484375">Living Room</text></g><g id="room_common_room"><polygon fill="rgb(255,215,0)" fill-opacity="0.7" points="290.3125,337.96875 290.3125,494.0625 402.109375,494.0625 402.109375,337.96875" stroke="black" stroke-width="1.5" /><text dominant-baseline="middle" fill="black" font-family="Arial" font-size="12px" font-weight="bold" text-anchor="middle" x="347.265625" y="417.0703125">Common Room</text></g><g id="room_master_bedroom"><polygon fill="rgb(255,165,0)" fill-opacity="0.7" points="414.765625,337.96875 414.765625,451.875 509.6875,451.875 509.6875,337.96875" stroke="black" stroke-width="1.5" /><text dominant-baseline="middle" fill="black" font-family="Arial" font-size="12px" font-weight="bold" text-anchor="middle" x="463.28125" y="395.9765625">Master Bedroom</text></g><g id="room_kitchen"><polygon fill="rgb(240,128,128)" fill-opacity="0.7" points="328.28125,105.9375 328.28125,162.890625 444.296875,162.890625 444.296875,105.9375" stroke="black" stroke-width="1.5" /><text dominant-baseline="middle" fill="black" font-family="Arial" font-size="12px" font-weight="bold" text-anchor="middle" x="387.34375" y="135.46875">Kitchen</text></g><g id="room_bathroom"><polygon fill="rgb(173,216,230)" fill-opacity="0.7" points="452.734375,272.578125 452.734375,325.3125 509.6875,325.3125 509.6875,278.90625 484.375,278.90625 482.265625,272.578125" stroke="black" stroke-width="1.5" /><text dominant-baseline="middle" fill="black" font-family="Arial" font-size="12px" font-weight="bold" text-anchor="middle" x="482.265625" y="300.0">Bathroom</text></g><rect fill="red" fill-opacity="0.9" height="35.859375" id="main_door" stroke="darkred" stroke-width="3" width="10.546875" x="317.734375" y="215.625" /><text dominant-baseline="middle" fill="white" font-family="Arial" font-size="9px" font-weight="bold" text-anchor="middle" x="323.0078125" y="233.5546875">Main Door</text><text fill="black" font-family="Arial" font-size="18px" font-weight="bold" text-anchor="middle" x="400.0" y="30">Floor Plan - ID: 27200</text></svg>