<?xml version="1.0" encoding="utf-8" ?>
<svg baseProfile="full" height="600px" version="1.1" viewBox="0 0 800 600" width="800px" xmlns="http://www.w3.org/2000/svg" xmlns:ev="http://www.w3.org/2001/xml-events" xmlns:xlink="http://www.w3.org/1999/xlink"><defs /><rect fill="white" height="600" width="800" x="0" y="0" /><polygon fill="none" id="floor_plan_boundary" points="296.640625,105.9375 294.53125,160.78125 229.140625,160.78125 229.140625,394.921875 233.359375,167.109375 300.859375,165.0 302.96875,110.15625 393.671875,110.15625 395.78125,165.0 566.640625,167.109375 566.640625,464.53125 535.0,466.640625 532.890625,489.84375 501.25,489.84375 499.140625,466.640625 362.03125,466.640625 359.921875,487.734375 302.96875,487.734375 300.859375,422.34375 229.140625,426.5625 294.53125,426.5625 296.640625,491.953125 366.25,491.953125 368.359375,470.859375 492.8125,470.859375 494.921875,494.0625 539.21875,494.0625 541.328125,470.859375 570.859375,470.859375 570.859375,160.78125 402.109375,160.78125 400.0,105.9375" stroke="black" stroke-linecap="butt" stroke-linejoin="miter" stroke-width="4" /><g id="room_living_room"><polygon fill="rgb(238,232,170)" fill-opacity="0.7" points="454.84375,245.15625 402.109375,245.15625 397.890625,285.234375 235.46875,283.125 235.46875,420.234375 298.75,418.125 302.96875,485.625 359.921875,485.625 362.03125,464.53125 454.84375,464.53125" stroke="black" stroke-width="1.5" /><text dominant-baseline="middle" fill="black" font-family="Arial" font-size="12px" font-weight="bold" text-anchor="middle" x="346.2109375" y="366.4453125">Living Room</text></g><g id="room_master_bedroom"><polygon fill="rgb(255,165,0)" fill-opacity="0.7" points="463.28125,283.125 463.28125,464.53125 497.03125,462.421875 501.25,487.734375 532.890625,487.734375 537.109375,462.421875 564.53125,464.53125 564.53125,346.40625 494.921875,346.40625 492.8125,283.125" stroke="black" stroke-width="1.5" /><text dominant-baseline="middle" fill="black" font-family="Arial" font-size="12px" font-weight="bold" text-anchor="middle" x="514.9609375" y="386.484375">Master Bedroom</text></g><g id="room_common_room"><polygon fill="rgb(255,215,0)" fill-opacity="0.7" points="463.28125,167.109375 463.28125,274.6875 564.53125,274.6875 564.53125,167.109375" stroke="black" stroke-width="1.5" /><text dominant-baseline="middle" fill="black" font-family="Arial" font-size="12px" font-weight="bold" text-anchor="middle" x="514.9609375" y="221.953125">Common Room</text></g><g id="room_common_room_2"><polygon fill="rgb(255,215,0)" fill-opacity="0.7" points="302.96875,167.109375 302.96875,274.6875 393.671875,274.6875 393.671875,167.109375" stroke="black" stroke-width="1.5" /><text dominant-baseline="middle" fill="black" font-family="Arial" font-size="12px" font-weight="bold" text-anchor="middle" x="349.375" y="221.953125">Common Room 2</text></g><g id="room_kitchen"><polygon fill="rgb(240,128,128)" fill-opacity="0.7" points="235.46875,167.109375 235.46875,274.6875 294.53125,274.6875 294.53125,167.109375" stroke="black" stroke-width="1.5" /><text dominant-baseline="middle" fill="black" font-family="Arial" font-size="12px" font-weight="bold" text-anchor="middle" x="266.0546875" y="221.953125">Kitchen</text></g><g id="room_balcony"><polygon fill="rgb(107,142,35)" fill-opacity="0.7" points="302.96875,112.265625 302.96875,158.671875 393.671875,158.671875 393.671875,112.265625" stroke="black" stroke-width="1.5" /><text dominant-baseline="middle" fill="black" font-family="Arial" font-size="12px" font-weight="bold" text-anchor="middle" x="349.375" y="136.5234375">Balcony</text></g><g id="room_bathroom_2"><polygon fill="rgb(173,216,230)" fill-opacity="0.7" points="402.109375,167.109375 402.109375,236.71875 454.84375,236.71875 454.84375,167.109375" stroke="black" stroke-width="1.5" /><text dominant-baseline="middle" fill="black" font-family="Arial" font-size="12px" font-weight="bold" text-anchor="middle" x="429.53125" y="202.96875">Bathroom 2</text></g><g id="room_bathroom"><polygon fill="rgb(173,216,230)" fill-opacity="0.7" points="501.25,283.125 501.25,337.96875 564.53125,337.96875 564.53125,283.125" stroke="black" stroke-width="1.5" /><text dominant-baseline="middle" fill="black" font-family="Arial" font-size="12px" font-weight="bold" text-anchor="middle" x="533.9453125" y="311.6015625">Bathroom</text></g><rect fill="red" fill-opacity="0.9" height="27.421875" id="main_door" stroke="darkred" stroke-width="3" width="6.328125" x="229.140625" y="397.03125" /><text dominant-baseline="middle" fill="white" font-family="Arial" font-size="9px" font-weight="bold" text-anchor="middle" x="232.3046875" y="410.7421875">Main Door</text><text fill="black" font-family="Arial" font-size="18px" font-weight="bold" text-anchor="middle" x="400.0" y="30">Floor Plan - ID: 27208</text></svg>