<?xml version="1.0" encoding="utf-8" ?>
<svg baseProfile="full" height="600px" version="1.1" viewBox="0 0 800 600" width="800px" xmlns="http://www.w3.org/2000/svg" xmlns:ev="http://www.w3.org/2001/xml-events" xmlns:xlink="http://www.w3.org/1999/xlink"><defs /><rect fill="white" height="600" width="800" x="0" y="0" /><polygon fill="none" id="floor_plan_boundary" points="184.84375,118.59375 184.84375,257.8125 218.59375,253.59375 193.28125,247.265625 195.390625,127.03125 340.9375,127.03125 343.046875,154.453125 427.421875,154.453125 429.53125,179.765625 543.4375,179.765625 545.546875,302.109375 606.71875,304.21875 604.609375,472.96875 393.671875,472.96875 391.5625,293.671875 210.15625,291.5625 210.15625,302.109375 383.125,304.21875 383.125,481.40625 615.15625,481.40625 615.15625,293.671875 553.984375,291.5625 553.984375,171.328125 440.078125,171.328125 437.96875,146.015625 353.59375,146.015625 351.484375,118.59375" stroke="black" stroke-linecap="butt" stroke-linejoin="miter" stroke-width="4" /><g id="room_living_room"><polygon fill="rgb(238,232,170)" fill-opacity="0.7" points="220.703125,259.921875 220.703125,291.5625 391.5625,291.5625 393.671875,325.3125 494.921875,325.3125 494.921875,304.21875 427.421875,302.109375 427.421875,156.5625 353.59375,156.5625 351.484375,194.53125 265.0,194.53125 265.0,257.8125" stroke="black" stroke-width="1.5" /><text dominant-baseline="middle" fill="black" font-family="Arial" font-size="12px" font-weight="bold" text-anchor="middle" x="358.8671875" y="241.9921875">Living Room</text></g><g id="room_master_bedroom"><polygon fill="rgb(255,165,0)" fill-opacity="0.7" points="507.578125,304.21875 507.578125,470.859375 604.609375,470.859375 604.609375,365.390625 545.546875,365.390625 543.4375,304.21875" stroke="black" stroke-width="1.5" /><text dominant-baseline="middle" fill="black" font-family="Arial" font-size="12px" font-weight="bold" text-anchor="middle" x="557.1484375" y="388.59375">Master Bedroom</text></g><g id="room_common_room_2"><polygon fill="rgb(255,215,0)" fill-opacity="0.7" points="440.078125,181.875 440.078125,291.5625 543.4375,291.5625 543.4375,181.875" stroke="black" stroke-width="1.5" /><text dominant-baseline="middle" fill="black" font-family="Arial" font-size="12px" font-weight="bold" text-anchor="middle" x="492.8125" y="237.7734375">Common Room 2</text></g><g id="room_common_room"><polygon fill="rgb(255,215,0)" fill-opacity="0.7" points="393.671875,337.96875 393.671875,422.34375 494.921875,422.34375 494.921875,337.96875" stroke="black" stroke-width="1.5" /><text dominant-baseline="middle" fill="black" font-family="Arial" font-size="12px" font-weight="bold" text-anchor="middle" x="445.3515625" y="381.2109375">Common Room</text></g><g id="room_bathroom_2"><polygon fill="rgb(173,216,230)" fill-opacity="0.7" points="195.390625,129.140625 195.390625,247.265625 252.34375,247.265625 252.34375,129.140625" stroke="black" stroke-width="1.5" /><text dominant-baseline="middle" fill="black" font-family="Arial" font-size="12px" font-weight="bold" text-anchor="middle" x="224.921875" y="189.2578125">Bathroom 2</text></g><g id="room_kitchen"><polygon fill="rgb(240,128,128)" fill-opacity="0.7" points="265.0,129.140625 265.0,181.875 340.9375,181.875 340.9375,129.140625" stroke="black" stroke-width="1.5" /><text dominant-baseline="middle" fill="black" font-family="Arial" font-size="12px" font-weight="bold" text-anchor="middle" x="304.0234375" y="156.5625">Kitchen</text></g><g id="room_balcony"><polygon fill="rgb(107,142,35)" fill-opacity="0.7" points="393.671875,435.0 393.671875,470.859375 494.921875,470.859375 494.921875,435.0" stroke="black" stroke-width="1.5" /><text dominant-baseline="middle" fill="black" font-family="Arial" font-size="12px" font-weight="bold" text-anchor="middle" x="445.3515625" y="453.984375">Balcony</text></g><g id="room_bathroom"><polygon fill="rgb(173,216,230)" fill-opacity="0.7" points="556.09375,304.21875 556.09375,352.734375 604.609375,352.734375 604.609375,304.21875" stroke="black" stroke-width="1.5" /><text dominant-baseline="middle" fill="black" font-family="Arial" font-size="12px" font-weight="bold" text-anchor="middle" x="581.40625" y="329.53125">Bathroom</text></g><rect fill="red" fill-opacity="0.9" height="35.859375" id="main_door" stroke="darkred" stroke-width="3" width="10.546875" x="210.15625" y="255.703125" /><text dominant-baseline="middle" fill="white" font-family="Arial" font-size="9px" font-weight="bold" text-anchor="middle" x="215.4296875" y="273.6328125">Main Door</text><text fill="black" font-family="Arial" font-size="18px" font-weight="bold" text-anchor="middle" x="400.0" y="30">Floor Plan - ID: 27348</text></svg>