<?xml version="1.0" encoding="utf-8" ?>
<svg baseProfile="full" height="600px" version="1.1" viewBox="0 0 800 600" width="800px" xmlns="http://www.w3.org/2000/svg" xmlns:ev="http://www.w3.org/2001/xml-events" xmlns:xlink="http://www.w3.org/1999/xlink"><defs /><rect fill="white" height="600" width="800" x="0" y="0" /><polygon fill="none" id="floor_plan_boundary" points="220.703125,202.96875 220.703125,327.421875 199.609375,329.53125 199.609375,378.046875 235.46875,378.046875 237.578125,399.140625 324.0625,399.140625 324.0625,384.375 317.734375,394.921875 243.90625,394.921875 241.796875,373.828125 203.828125,371.71875 203.828125,335.859375 224.921875,333.75 227.03125,207.1875 353.59375,207.1875 355.703125,165.0 562.421875,165.0 564.53125,268.359375 596.171875,270.46875 596.171875,432.890625 427.421875,435.0 425.3125,403.359375 370.46875,403.359375 368.359375,384.375 353.59375,388.59375 364.140625,390.703125 364.140625,407.578125 418.984375,407.578125 421.09375,439.21875 600.390625,439.21875 600.390625,264.140625 568.75,262.03125 568.75,160.78125 349.375,160.78125 347.265625,202.96875" stroke="black" stroke-linecap="butt" stroke-linejoin="miter" stroke-width="4" /><g id="room_living_room"><polygon fill="rgb(238,232,170)" fill-opacity="0.7" points="227.03125,209.296875 227.03125,327.421875 324.0625,327.421875 326.171875,382.265625 368.359375,382.265625 370.46875,401.25 418.984375,401.25 418.984375,209.296875" stroke="black" stroke-width="1.5" /><text dominant-baseline="middle" fill="black" font-family="Arial" font-size="12px" font-weight="bold" text-anchor="middle" x="324.0625" y="306.328125">Living Room</text></g><g id="room_master_bedroom"><polygon fill="rgb(255,165,0)" fill-opacity="0.7" points="427.421875,167.109375 427.421875,262.03125 562.421875,262.03125 562.421875,167.109375" stroke="black" stroke-width="1.5" /><text dominant-baseline="middle" fill="black" font-family="Arial" font-size="12px" font-weight="bold" text-anchor="middle" x="495.9765625" y="215.625">Master Bedroom</text></g><g id="room_common_room_2"><polygon fill="rgb(255,215,0)" fill-opacity="0.7" points="427.421875,270.46875 427.421875,350.625 543.4375,350.625 543.4375,270.46875" stroke="black" stroke-width="1.5" /><text dominant-baseline="middle" fill="black" font-family="Arial" font-size="12px" font-weight="bold" text-anchor="middle" x="486.484375" y="311.6015625">Common Room 2</text></g><g id="room_common_room"><polygon fill="rgb(255,215,0)" fill-opacity="0.7" points="427.421875,359.0625 427.421875,432.890625 543.4375,432.890625 543.4375,359.0625" stroke="black" stroke-width="1.5" /><text dominant-baseline="middle" fill="black" font-family="Arial" font-size="12px" font-weight="bold" text-anchor="middle" x="486.484375" y="397.03125">Common Room</text></g><g id="room_balcony"><polygon fill="rgb(107,142,35)" fill-opacity="0.7" points="551.875,270.46875 551.875,432.890625 594.0625,432.890625 594.0625,270.46875" stroke="black" stroke-width="1.5" /><text dominant-baseline="middle" fill="black" font-family="Arial" font-size="12px" font-weight="bold" text-anchor="middle" x="574.0234375" y="352.734375">Balcony</text></g><g id="room_kitchen"><polygon fill="rgb(240,128,128)" fill-opacity="0.7" points="205.9375,335.859375 205.9375,371.71875 241.796875,371.71875 246.015625,375.9375 243.90625,392.8125 317.734375,392.8125 317.734375,335.859375" stroke="black" stroke-width="1.5" /><text dominant-baseline="middle" fill="black" font-family="Arial" font-size="12px" font-weight="bold" text-anchor="middle" x="262.890625" y="365.390625">Kitchen</text></g><g id="room_bathroom"><polygon fill="rgb(173,216,230)" fill-opacity="0.7" points="355.703125,167.109375 355.703125,200.859375 418.984375,200.859375 418.984375,167.109375" stroke="black" stroke-width="1.5" /><text dominant-baseline="middle" fill="black" font-family="Arial" font-size="12px" font-weight="bold" text-anchor="middle" x="388.3984375" y="185.0390625">Bathroom</text></g><rect fill="red" fill-opacity="0.9" height="6.328125" id="main_door" stroke="darkred" stroke-width="3" width="27.421875" x="326.171875" y="384.375" /><text dominant-baseline="middle" fill="white" font-family="Arial" font-size="9px" font-weight="bold" text-anchor="middle" x="339.8828125" y="387.5390625">Main Door</text><text fill="black" font-family="Arial" font-size="18px" font-weight="bold" text-anchor="middle" x="400.0" y="30">Floor Plan - ID: 27625</text></svg>