<?xml version="1.0" encoding="utf-8" ?>
<svg baseProfile="full" height="600px" version="1.1" viewBox="0 0 800 600" width="800px" xmlns="http://www.w3.org/2000/svg" xmlns:ev="http://www.w3.org/2001/xml-events" xmlns:xlink="http://www.w3.org/1999/xlink"><defs /><rect fill="white" height="600" width="800" x="0" y="0" /><polygon fill="none" id="floor_plan_boundary" points="507.578125,80.625 353.59375,80.625 353.59375,171.328125 292.421875,173.4375 292.421875,390.703125 334.609375,392.8125 334.609375,468.75 311.40625,470.859375 311.40625,519.375 395.78125,519.375 397.890625,496.171875 440.078125,496.171875 440.078125,293.671875 507.578125,291.5625 507.578125,281.015625 501.25,287.34375 435.859375,287.34375 435.859375,489.84375 391.5625,491.953125 389.453125,515.15625 317.734375,515.15625 315.625,477.1875 338.828125,475.078125 338.828125,386.484375 296.640625,384.375 296.640625,179.765625 357.8125,177.65625 359.921875,84.84375 501.25,84.84375 507.578125,234.609375" stroke="black" stroke-linecap="butt" stroke-linejoin="miter" stroke-width="4" /><g id="room_living_room"><polygon fill="rgb(238,232,170)" fill-opacity="0.7" points="340.9375,179.765625 340.9375,285.234375 402.109375,285.234375 404.21875,342.1875 433.75,342.1875 435.859375,285.234375 501.25,285.234375 501.25,179.765625" stroke="black" stroke-width="1.5" /><text dominant-baseline="middle" fill="black" font-family="Arial" font-size="12px" font-weight="bold" text-anchor="middle" x="422.1484375" y="262.03125">Living Room</text></g><g id="room_master_bedroom"><polygon fill="rgb(255,165,0)" fill-opacity="0.7" points="433.75,350.625 404.21875,350.625 402.109375,369.609375 340.9375,369.609375 343.046875,472.96875 317.734375,477.1875 317.734375,513.046875 389.453125,513.046875 393.671875,487.734375 433.75,489.84375" stroke="black" stroke-width="1.5" /><text dominant-baseline="middle" fill="black" font-family="Arial" font-size="12px" font-weight="bold" text-anchor="middle" x="376.796875" y="432.890625">Master Bedroom</text></g><g id="room_common_room"><polygon fill="rgb(255,215,0)" fill-opacity="0.7" points="359.921875,86.953125 359.921875,171.328125 444.296875,171.328125 444.296875,86.953125" stroke="black" stroke-width="1.5" /><text dominant-baseline="middle" fill="black" font-family="Arial" font-size="12px" font-weight="bold" text-anchor="middle" x="403.1640625" y="130.1953125">Common Room</text></g><g id="room_balcony"><polygon fill="rgb(107,142,35)" fill-opacity="0.7" points="298.75,179.765625 298.75,384.375 332.5,384.375 332.5,179.765625" stroke="black" stroke-width="1.5" /><text dominant-baseline="middle" fill="black" font-family="Arial" font-size="12px" font-weight="bold" text-anchor="middle" x="316.6796875" y="283.125">Balcony</text></g><g id="room_kitchen"><polygon fill="rgb(240,128,128)" fill-opacity="0.7" points="452.734375,86.953125 452.734375,171.328125 501.25,171.328125 501.25,86.953125" stroke="black" stroke-width="1.5" /><text dominant-baseline="middle" fill="black" font-family="Arial" font-size="12px" font-weight="bold" text-anchor="middle" x="478.046875" y="130.1953125">Kitchen</text></g><g id="room_bathroom"><polygon fill="rgb(173,216,230)" fill-opacity="0.7" points="340.9375,293.671875 340.9375,361.171875 395.78125,361.171875 395.78125,293.671875" stroke="black" stroke-width="1.5" /><text dominant-baseline="middle" fill="black" font-family="Arial" font-size="12px" font-weight="bold" text-anchor="middle" x="369.4140625" y="328.4765625">Bathroom</text></g><rect fill="red" fill-opacity="0.9" height="44.296875" id="main_door" stroke="darkred" stroke-width="3" width="6.328125" x="503.359375" y="236.71875" /><text dominant-baseline="middle" fill="white" font-family="Arial" font-size="9px" font-weight="bold" text-anchor="middle" x="506.5234375" y="258.8671875">Main Door</text><text fill="black" font-family="Arial" font-size="18px" font-weight="bold" text-anchor="middle" x="400.0" y="30">Floor Plan - ID: 27954</text></svg>