<?xml version="1.0" encoding="utf-8" ?>
<svg baseProfile="full" height="600px" version="1.1" viewBox="0 0 800 600" width="800px" xmlns="http://www.w3.org/2000/svg" xmlns:ev="http://www.w3.org/2001/xml-events" xmlns:xlink="http://www.w3.org/1999/xlink"><defs /><rect fill="white" height="600" width="800" x="0" y="0" /><polygon fill="none" id="floor_plan_boundary" points="254.453125,131.25 254.453125,354.84375 214.375,356.953125 214.375,468.75 545.546875,468.75 545.546875,367.5 585.625,365.390625 585.625,259.921875 545.546875,257.8125 545.546875,171.328125 418.984375,171.328125 418.984375,179.765625 535.0,179.765625 537.109375,268.359375 577.1875,270.46875 577.1875,354.84375 537.109375,356.953125 535.0,460.3125 222.8125,458.203125 222.8125,367.5 262.890625,365.390625 262.890625,141.796875 427.421875,137.578125 427.421875,131.25" stroke="black" stroke-linecap="butt" stroke-linejoin="miter" stroke-width="4" /><g id="room_living_room"><polygon fill="rgb(238,232,170)" fill-opacity="0.7" points="265.0,141.796875 265.0,257.8125 400.0,259.921875 400.0,390.703125 416.875,390.703125 418.984375,354.84375 486.484375,354.84375 486.484375,270.46875 416.875,268.359375 416.875,141.796875" stroke="black" stroke-width="1.5" /><text dominant-baseline="middle" fill="black" font-family="Arial" font-size="12px" font-weight="bold" text-anchor="middle" x="376.796875" y="267.3046875">Living Room</text></g><g id="room_common_room_2"><polygon fill="rgb(255,215,0)" fill-opacity="0.7" points="265.0,367.5 265.0,458.203125 402.109375,458.203125 402.109375,403.359375 387.34375,401.25 387.34375,367.5" stroke="black" stroke-width="1.5" /><text dominant-baseline="middle" fill="black" font-family="Arial" font-size="12px" font-weight="bold" text-anchor="middle" x="334.609375" y="413.90625">Common Room 2</text></g><g id="room_common_room"><polygon fill="rgb(255,215,0)" fill-opacity="0.7" points="429.53125,367.5 429.53125,401.25 414.765625,403.359375 414.765625,458.203125 535.0,458.203125 535.0,367.5" stroke="black" stroke-width="1.5" /><text dominant-baseline="middle" fill="black" font-family="Arial" font-size="12px" font-weight="bold" text-anchor="middle" x="475.9375" y="413.90625">Common Room</text></g><g id="room_master_bedroom"><polygon fill="rgb(255,165,0)" fill-opacity="0.7" points="265.0,270.46875 265.0,354.84375 387.34375,354.84375 387.34375,270.46875" stroke="black" stroke-width="1.5" /><text dominant-baseline="middle" fill="black" font-family="Arial" font-size="12px" font-weight="bold" text-anchor="middle" x="327.2265625" y="313.7109375">Master Bedroom</text></g><g id="room_kitchen"><polygon fill="rgb(240,128,128)" fill-opacity="0.7" points="499.140625,270.46875 499.140625,354.84375 575.078125,354.84375 575.078125,270.46875" stroke="black" stroke-width="1.5" /><text dominant-baseline="middle" fill="black" font-family="Arial" font-size="12px" font-weight="bold" text-anchor="middle" x="538.1640625" y="313.7109375">Kitchen</text></g><g id="room_bathroom_2"><polygon fill="rgb(173,216,230)" fill-opacity="0.7" points="429.53125,181.875 429.53125,257.8125 486.484375,257.8125 486.484375,181.875" stroke="black" stroke-width="1.5" /><text dominant-baseline="middle" fill="black" font-family="Arial" font-size="12px" font-weight="bold" text-anchor="middle" x="459.0625" y="220.8984375">Bathroom 2</text></g><g id="room_bathroom"><polygon fill="rgb(173,216,230)" fill-opacity="0.7" points="499.140625,181.875 499.140625,257.8125 535.0,257.8125 535.0,181.875" stroke="black" stroke-width="1.5" /><text dominant-baseline="middle" fill="black" font-family="Arial" font-size="12px" font-weight="bold" text-anchor="middle" x="518.125" y="220.8984375">Bathroom</text></g><g id="room_balcony"><polygon fill="rgb(107,142,35)" fill-opacity="0.7" points="224.921875,367.5 224.921875,458.203125 252.34375,458.203125 252.34375,367.5" stroke="black" stroke-width="1.5" /><text dominant-baseline="middle" fill="black" font-family="Arial" font-size="12px" font-weight="bold" text-anchor="middle" x="239.6875" y="413.90625">Balcony</text></g><rect fill="red" fill-opacity="0.9" height="31.640625" id="main_door" stroke="darkred" stroke-width="3" width="10.546875" x="418.984375" y="139.6875" /><text dominant-baseline="middle" fill="white" font-family="Arial" font-size="9px" font-weight="bold" text-anchor="middle" x="424.2578125" y="155.5078125">Main Door</text><text fill="black" font-family="Arial" font-size="18px" font-weight="bold" text-anchor="middle" x="400.0" y="30">Floor Plan - ID: 27974</text></svg>