<?xml version="1.0" encoding="utf-8" ?>
<svg baseProfile="full" height="600px" version="1.1" viewBox="0 0 800 600" width="800px" xmlns="http://www.w3.org/2000/svg" xmlns:ev="http://www.w3.org/2001/xml-events" xmlns:xlink="http://www.w3.org/1999/xlink"><defs /><rect fill="white" height="600" width="800" x="0" y="0" /><polygon fill="none" id="floor_plan_boundary" points="222.8125,108.046875 222.8125,491.953125 229.140625,112.265625 345.15625,112.265625 347.265625,160.78125 480.15625,160.78125 482.265625,146.015625 532.890625,146.015625 535.0,160.78125 556.09375,160.78125 558.203125,337.96875 572.96875,340.078125 572.96875,392.8125 558.203125,394.921875 556.09375,420.234375 400.0,420.234375 397.890625,487.734375 258.671875,491.953125 404.21875,491.953125 406.328125,424.453125 562.421875,424.453125 562.421875,401.25 577.1875,399.140625 577.1875,333.75 562.421875,331.640625 562.421875,156.5625 541.328125,156.5625 539.21875,139.6875 475.9375,139.6875 473.828125,156.5625 353.59375,156.5625 351.484375,108.046875" stroke="black" stroke-linecap="butt" stroke-linejoin="miter" stroke-width="4" /><g id="room_living_room"><polygon fill="rgb(238,232,170)" fill-opacity="0.7" points="345.15625,114.375 229.140625,114.375 229.140625,485.625 258.671875,485.625 260.78125,418.125 345.15625,418.125 347.265625,308.4375 450.625,308.4375 450.625,283.125 343.046875,278.90625" stroke="black" stroke-width="1.5" /><text dominant-baseline="middle" fill="black" font-family="Arial" font-size="12px" font-weight="bold" text-anchor="middle" x="340.9375" y="301.0546875">Living Room</text></g><g id="room_master_bedroom"><polygon fill="rgb(255,165,0)" fill-opacity="0.7" points="406.328125,316.875 406.328125,418.125 556.09375,418.125 556.09375,394.921875 570.859375,392.8125 570.859375,340.078125 556.09375,337.96875 556.09375,316.875" stroke="black" stroke-width="1.5" /><text dominant-baseline="middle" fill="black" font-family="Arial" font-size="12px" font-weight="bold" text-anchor="middle" x="489.6484375" y="368.5546875">Master Bedroom</text></g><g id="room_common_room_2"><polygon fill="rgb(255,215,0)" fill-opacity="0.7" points="482.265625,148.125 480.15625,162.890625 459.0625,162.890625 459.0625,308.4375 556.09375,308.4375 556.09375,162.890625 535.0,162.890625 532.890625,148.125" stroke="black" stroke-width="1.5" /><text dominant-baseline="middle" fill="black" font-family="Arial" font-size="12px" font-weight="bold" text-anchor="middle" x="508.6328125" y="229.3359375">Common Room 2</text></g><g id="room_common_room"><polygon fill="rgb(255,215,0)" fill-opacity="0.7" points="353.59375,162.890625 353.59375,274.6875 450.625,274.6875 450.625,162.890625" stroke="black" stroke-width="1.5" /><text dominant-baseline="middle" fill="black" font-family="Arial" font-size="12px" font-weight="bold" text-anchor="middle" x="403.1640625" y="219.84375">Common Room</text></g><g id="room_kitchen"><polygon fill="rgb(240,128,128)" fill-opacity="0.7" points="267.109375,426.5625 267.109375,485.625 397.890625,485.625 397.890625,449.765625 347.265625,449.765625 343.046875,445.546875 345.15625,426.5625" stroke="black" stroke-width="1.5" /><text dominant-baseline="middle" fill="black" font-family="Arial" font-size="12px" font-weight="bold" text-anchor="middle" x="333.5546875" y="457.1484375">Kitchen</text></g><g id="room_bathroom"><polygon fill="rgb(173,216,230)" fill-opacity="0.7" points="353.59375,380.15625 353.59375,441.328125 397.890625,441.328125 397.890625,380.15625" stroke="black" stroke-width="1.5" /><text dominant-baseline="middle" fill="black" font-family="Arial" font-size="12px" font-weight="bold" text-anchor="middle" x="376.796875" y="411.796875">Bathroom</text></g><g id="room_bathroom_2"><polygon fill="rgb(173,216,230)" fill-opacity="0.7" points="353.59375,316.875 353.59375,371.71875 397.890625,371.71875 397.890625,316.875" stroke="black" stroke-width="1.5" /><text dominant-baseline="middle" fill="black" font-family="Arial" font-size="12px" font-weight="bold" text-anchor="middle" x="376.796875" y="345.3515625">Bathroom 2</text></g><rect fill="red" fill-opacity="0.9" height="6.328125" id="main_door" stroke="darkred" stroke-width="3" width="31.640625" x="227.03125" y="487.734375" /><text dominant-baseline="middle" fill="white" font-family="Arial" font-size="9px" font-weight="bold" text-anchor="middle" x="242.8515625" y="490.8984375">Main Door</text><text fill="black" font-family="Arial" font-size="18px" font-weight="bold" text-anchor="middle" x="400.0" y="30">Floor Plan - ID: 28046</text></svg>