<?xml version="1.0" encoding="utf-8" ?>
<svg baseProfile="full" height="600px" version="1.1" viewBox="0 0 800 600" width="800px" xmlns="http://www.w3.org/2000/svg" xmlns:ev="http://www.w3.org/2001/xml-events" xmlns:xlink="http://www.w3.org/1999/xlink"><defs /><rect fill="white" height="600" width="800" x="0" y="0" /><polygon fill="none" id="floor_plan_boundary" points="178.515625,175.546875 178.515625,371.71875 347.265625,371.71875 182.734375,365.390625 184.84375,179.765625 482.265625,179.765625 484.375,211.40625 579.296875,213.515625 579.296875,304.21875 617.265625,306.328125 617.265625,418.125 446.40625,420.234375 444.296875,367.5 385.234375,371.71875 437.96875,371.71875 440.078125,424.453125 621.484375,424.453125 621.484375,300.0 583.515625,297.890625 583.515625,207.1875 490.703125,207.1875 488.59375,175.546875" stroke="black" stroke-linecap="butt" stroke-linejoin="miter" stroke-width="4" /><g id="room_living_room"><polygon fill="rgb(238,232,170)" fill-opacity="0.7" points="184.84375,365.390625 378.90625,365.390625 381.015625,297.890625 482.265625,297.890625 482.265625,274.6875 381.015625,274.6875 378.90625,181.875 283.984375,181.875 281.875,253.59375 184.84375,253.59375" stroke="black" stroke-width="1.5" /><text dominant-baseline="middle" fill="black" font-family="Arial" font-size="12px" font-weight="bold" text-anchor="middle" x="334.609375" y="274.6875">Living Room</text></g><g id="room_master_bedroom"><polygon fill="rgb(255,165,0)" fill-opacity="0.7" points="446.40625,306.328125 446.40625,418.125 577.1875,418.125 577.1875,306.328125" stroke="black" stroke-width="1.5" /><text dominant-baseline="middle" fill="black" font-family="Arial" font-size="12px" font-weight="bold" text-anchor="middle" x="512.8515625" y="363.28125">Master Bedroom</text></g><g id="room_common_room_2"><polygon fill="rgb(255,215,0)" fill-opacity="0.7" points="387.34375,181.875 387.34375,266.25 482.265625,266.25 482.265625,181.875" stroke="black" stroke-width="1.5" /><text dominant-baseline="middle" fill="black" font-family="Arial" font-size="12px" font-weight="bold" text-anchor="middle" x="435.859375" y="225.1171875">Common Room 2</text></g><g id="room_common_room"><polygon fill="rgb(255,215,0)" fill-opacity="0.7" points="490.703125,213.515625 490.703125,297.890625 577.1875,297.890625 577.1875,213.515625" stroke="black" stroke-width="1.5" /><text dominant-baseline="middle" fill="black" font-family="Arial" font-size="12px" font-weight="bold" text-anchor="middle" x="535.0" y="256.7578125">Common Room</text></g><g id="room_kitchen"><polygon fill="rgb(240,128,128)" fill-opacity="0.7" points="184.84375,181.875 184.84375,245.15625 275.546875,245.15625 275.546875,181.875" stroke="black" stroke-width="1.5" /><text dominant-baseline="middle" fill="black" font-family="Arial" font-size="12px" font-weight="bold" text-anchor="middle" x="231.25" y="214.5703125">Kitchen</text></g><g id="room_balcony"><polygon fill="rgb(107,142,35)" fill-opacity="0.7" points="585.625,306.328125 585.625,418.125 615.15625,418.125 615.15625,306.328125" stroke="black" stroke-width="1.5" /><text dominant-baseline="middle" fill="black" font-family="Arial" font-size="12px" font-weight="bold" text-anchor="middle" x="601.4453125" y="363.28125">Balcony</text></g><g id="room_bathroom"><polygon fill="rgb(173,216,230)" fill-opacity="0.7" points="387.34375,306.328125 387.34375,365.390625 437.96875,365.390625 437.96875,306.328125" stroke="black" stroke-width="1.5" /><text dominant-baseline="middle" fill="black" font-family="Arial" font-size="12px" font-weight="bold" text-anchor="middle" x="413.7109375" y="336.9140625">Bathroom</text></g><rect fill="red" fill-opacity="0.9" height="6.328125" id="main_door" stroke="darkred" stroke-width="3" width="35.859375" x="349.375" y="367.5" /><text dominant-baseline="middle" fill="white" font-family="Arial" font-size="9px" font-weight="bold" text-anchor="middle" x="367.3046875" y="370.6640625">Main Door</text><text fill="black" font-family="Arial" font-size="18px" font-weight="bold" text-anchor="middle" x="400.0" y="30">Floor Plan - ID: 28242</text></svg>