<?xml version="1.0" encoding="utf-8" ?>
<svg baseProfile="full" height="600px" version="1.1" viewBox="0 0 800 600" width="800px" xmlns="http://www.w3.org/2000/svg" xmlns:ev="http://www.w3.org/2001/xml-events" xmlns:xlink="http://www.w3.org/1999/xlink"><defs /><rect fill="white" height="600" width="800" x="0" y="0" /><polygon fill="none" id="floor_plan_boundary" points="277.65625,165.0 277.65625,266.25 227.03125,268.359375 227.03125,394.921875 349.375,394.921875 231.25,388.59375 231.25,274.6875 281.875,272.578125 283.984375,169.21875 366.25,169.21875 368.359375,200.859375 568.75,202.96875 568.75,428.671875 440.078125,430.78125 437.96875,390.703125 378.90625,394.921875 431.640625,394.921875 433.75,435.0 572.96875,435.0 572.96875,196.640625 374.6875,196.640625 372.578125,165.0" stroke="black" stroke-linecap="butt" stroke-linejoin="miter" stroke-width="4" /><g id="room_living_room"><polygon fill="rgb(238,232,170)" fill-opacity="0.7" points="283.984375,350.625 283.984375,388.59375 437.96875,388.59375 440.078125,428.671875 566.640625,428.671875 566.640625,337.96875 459.0625,337.96875 456.953125,306.328125 368.359375,306.328125 366.25,274.6875 336.71875,274.6875 334.609375,350.625" stroke="black" stroke-width="1.5" /><text dominant-baseline="middle" fill="black" font-family="Arial" font-size="12px" font-weight="bold" text-anchor="middle" x="426.3671875" y="352.734375">Living Room</text></g><g id="room_master_bedroom"><polygon fill="rgb(255,165,0)" fill-opacity="0.7" points="465.390625,202.96875 465.390625,329.53125 566.640625,329.53125 566.640625,202.96875" stroke="black" stroke-width="1.5" /><text dominant-baseline="middle" fill="black" font-family="Arial" font-size="12px" font-weight="bold" text-anchor="middle" x="517.0703125" y="267.3046875">Master Bedroom</text></g><g id="room_common_room"><polygon fill="rgb(255,215,0)" fill-opacity="0.7" points="374.6875,202.96875 374.6875,297.890625 456.953125,297.890625 456.953125,202.96875" stroke="black" stroke-width="1.5" /><text dominant-baseline="middle" fill="black" font-family="Arial" font-size="12px" font-weight="bold" text-anchor="middle" x="416.875" y="251.484375">Common Room</text></g><g id="room_common_room_2"><polygon fill="rgb(255,215,0)" fill-opacity="0.7" points="283.984375,171.328125 283.984375,266.25 366.25,266.25 366.25,171.328125" stroke="black" stroke-width="1.5" /><text dominant-baseline="middle" fill="black" font-family="Arial" font-size="12px" font-weight="bold" text-anchor="middle" x="326.171875" y="219.84375">Common Room 2</text></g><g id="room_bathroom"><polygon fill="rgb(173,216,230)" fill-opacity="0.7" points="233.359375,316.875 233.359375,388.59375 275.546875,388.59375 275.546875,316.875" stroke="black" stroke-width="1.5" /><text dominant-baseline="middle" fill="black" font-family="Arial" font-size="12px" font-weight="bold" text-anchor="middle" x="255.5078125" y="353.7890625">Bathroom</text></g><g id="room_kitchen"><polygon fill="rgb(240,128,128)" fill-opacity="0.7" points="283.984375,274.6875 283.984375,342.1875 328.28125,342.1875 328.28125,274.6875" stroke="black" stroke-width="1.5" /><text dominant-baseline="middle" fill="black" font-family="Arial" font-size="12px" font-weight="bold" text-anchor="middle" x="307.1875" y="309.4921875">Kitchen</text></g><g id="room_balcony"><polygon fill="rgb(107,142,35)" fill-opacity="0.7" points="233.359375,274.6875 233.359375,308.4375 275.546875,308.4375 275.546875,274.6875" stroke="black" stroke-width="1.5" /><text dominant-baseline="middle" fill="black" font-family="Arial" font-size="12px" font-weight="bold" text-anchor="middle" x="255.5078125" y="292.6171875">Balcony</text></g><rect fill="red" fill-opacity="0.9" height="6.328125" id="main_door" stroke="darkred" stroke-width="3" width="27.421875" x="351.484375" y="390.703125" /><text dominant-baseline="middle" fill="white" font-family="Arial" font-size="9px" font-weight="bold" text-anchor="middle" x="365.1953125" y="393.8671875">Main Door</text><text fill="black" font-family="Arial" font-size="18px" font-weight="bold" text-anchor="middle" x="400.0" y="30">Floor Plan - ID: 28352</text></svg>