<?xml version="1.0" encoding="utf-8" ?>
<svg baseProfile="full" height="600px" version="1.1" viewBox="0 0 800 600" width="800px" xmlns="http://www.w3.org/2000/svg" xmlns:ev="http://www.w3.org/2001/xml-events" xmlns:xlink="http://www.w3.org/1999/xlink"><defs /><rect fill="white" height="600" width="800" x="0" y="0" /><polygon fill="none" id="floor_plan_boundary" points="260.78125,135.46875 260.78125,192.421875 250.234375,194.53125 252.34375,287.34375 260.78125,289.453125 260.78125,407.578125 393.671875,407.578125 397.890625,464.53125 499.140625,464.53125 501.25,238.828125 549.765625,236.71875 549.765625,135.46875 416.875,135.46875 416.875,143.90625 541.328125,146.015625 541.328125,230.390625 492.8125,232.5 492.8125,460.3125 404.21875,460.3125 404.21875,399.140625 269.21875,397.03125 269.21875,278.90625 256.5625,276.796875 256.5625,205.078125 269.21875,202.96875 269.21875,146.015625 378.90625,143.90625 378.90625,135.46875" stroke="black" stroke-linecap="butt" stroke-linejoin="miter" stroke-width="4" /><g id="room_living_room"><polygon fill="rgb(238,232,170)" fill-opacity="0.7" points="383.125,146.015625 383.125,202.96875 345.15625,205.078125 345.15625,276.796875 383.125,278.90625 383.125,397.03125 490.703125,397.03125 490.703125,240.9375 427.421875,240.9375 425.3125,146.015625" stroke="black" stroke-width="1.5" /><text dominant-baseline="middle" fill="black" font-family="Arial" font-size="12px" font-weight="bold" text-anchor="middle" x="418.984375" y="272.578125">Living Room</text></g><g id="room_master_bedroom"><polygon fill="rgb(255,165,0)" fill-opacity="0.7" points="271.328125,289.453125 271.328125,397.03125 370.46875,397.03125 370.46875,289.453125" stroke="black" stroke-width="1.5" /><text dominant-baseline="middle" fill="black" font-family="Arial" font-size="12px" font-weight="bold" text-anchor="middle" x="321.953125" y="344.296875">Master Bedroom</text></g><g id="room_master_bedroom_2"><polygon fill="rgb(255,165,0)" fill-opacity="0.7" points="437.96875,146.015625 437.96875,228.28125 539.21875,230.390625 539.21875,146.015625" stroke="black" stroke-width="1.5" /><text dominant-baseline="middle" fill="black" font-family="Arial" font-size="12px" font-weight="bold" text-anchor="middle" x="489.6484375" y="189.2578125">Master Bedroom 2</text></g><g id="room_kitchen"><polygon fill="rgb(240,128,128)" fill-opacity="0.7" points="271.328125,146.015625 271.328125,192.421875 370.46875,192.421875 370.46875,146.015625" stroke="black" stroke-width="1.5" /><text dominant-baseline="middle" fill="black" font-family="Arial" font-size="12px" font-weight="bold" text-anchor="middle" x="321.953125" y="170.2734375">Kitchen</text></g><g id="room_balcony"><polygon fill="rgb(107,142,35)" fill-opacity="0.7" points="406.328125,409.6875 404.21875,458.203125 492.8125,458.203125 492.8125,409.6875" stroke="black" stroke-width="1.5" /><text dominant-baseline="middle" fill="black" font-family="Arial" font-size="12px" font-weight="bold" text-anchor="middle" x="449.5703125" y="435.0">Balcony</text></g><g id="room_balcony_2"><polygon fill="rgb(107,142,35)" fill-opacity="0.7" points="258.671875,205.078125 258.671875,276.796875 292.421875,276.796875 292.421875,205.078125" stroke="black" stroke-width="1.5" /><text dominant-baseline="middle" fill="black" font-family="Arial" font-size="12px" font-weight="bold" text-anchor="middle" x="276.6015625" y="241.9921875">Balcony 2</text></g><g id="room_bathroom"><polygon fill="rgb(173,216,230)" fill-opacity="0.7" points="305.078125,205.078125 305.078125,276.796875 336.71875,276.796875 336.71875,205.078125" stroke="black" stroke-width="1.5" /><text dominant-baseline="middle" fill="black" font-family="Arial" font-size="12px" font-weight="bold" text-anchor="middle" x="321.953125" y="241.9921875">Bathroom</text></g><rect fill="red" fill-opacity="0.9" height="10.546875" id="main_door" stroke="darkred" stroke-width="3" width="35.859375" x="381.015625" y="135.46875" /><text dominant-baseline="middle" fill="white" font-family="Arial" font-size="9px" font-weight="bold" text-anchor="middle" x="398.9453125" y="140.7421875">Main Door</text><text fill="black" font-family="Arial" font-size="18px" font-weight="bold" text-anchor="middle" x="400.0" y="30">Floor Plan - ID: 28694</text></svg>