<?xml version="1.0" encoding="utf-8" ?>
<svg baseProfile="full" height="600px" version="1.1" viewBox="0 0 800 600" width="800px" xmlns="http://www.w3.org/2000/svg" xmlns:ev="http://www.w3.org/2001/xml-events" xmlns:xlink="http://www.w3.org/1999/xlink"><defs /><rect fill="white" height="600" width="800" x="0" y="0" /><polygon fill="none" id="floor_plan_boundary" points="317.734375,135.46875 317.734375,209.296875 324.0625,139.6875 526.5625,141.796875 526.5625,428.671875 391.5625,430.78125 389.453125,460.3125 275.546875,460.3125 273.4375,327.421875 321.953125,325.3125 317.734375,238.828125 317.734375,318.984375 269.21875,321.09375 269.21875,464.53125 395.78125,464.53125 397.890625,435.0 530.78125,435.0 530.78125,135.46875" stroke="black" stroke-linecap="butt" stroke-linejoin="miter" stroke-width="4" /><g id="room_living_room"><polygon fill="rgb(238,232,170)" fill-opacity="0.7" points="397.890625,141.796875 397.890625,350.625 435.859375,350.625 437.96875,318.984375 524.453125,318.984375 524.453125,141.796875" stroke="black" stroke-width="1.5" /><text dominant-baseline="middle" fill="black" font-family="Arial" font-size="12px" font-weight="bold" text-anchor="middle" x="462.2265625" y="247.265625">Living Room</text></g><g id="room_master_bedroom"><polygon fill="rgb(255,165,0)" fill-opacity="0.7" points="275.546875,327.421875 275.546875,428.671875 389.453125,428.671875 389.453125,327.421875" stroke="black" stroke-width="1.5" /><text dominant-baseline="middle" fill="black" font-family="Arial" font-size="12px" font-weight="bold" text-anchor="middle" x="333.5546875" y="379.1015625">Master Bedroom</text></g><g id="room_common_room"><polygon fill="rgb(255,215,0)" fill-opacity="0.7" points="397.890625,359.0625 397.890625,428.671875 524.453125,428.671875 524.453125,327.421875 444.296875,327.421875 442.1875,359.0625" stroke="black" stroke-width="1.5" /><text dominant-baseline="middle" fill="black" font-family="Arial" font-size="12px" font-weight="bold" text-anchor="middle" x="462.2265625" y="379.1015625">Common Room</text></g><g id="room_kitchen"><polygon fill="rgb(240,128,128)" fill-opacity="0.7" points="324.0625,141.796875 324.0625,234.609375 389.453125,234.609375 389.453125,141.796875" stroke="black" stroke-width="1.5" /><text dominant-baseline="middle" fill="black" font-family="Arial" font-size="12px" font-weight="bold" text-anchor="middle" x="357.8125" y="189.2578125">Kitchen</text></g><g id="room_bathroom"><polygon fill="rgb(173,216,230)" fill-opacity="0.7" points="324.0625,243.046875 324.0625,318.984375 389.453125,318.984375 389.453125,243.046875" stroke="black" stroke-width="1.5" /><text dominant-baseline="middle" fill="black" font-family="Arial" font-size="12px" font-weight="bold" text-anchor="middle" x="357.8125" y="282.0703125">Bathroom</text></g><g id="room_balcony"><polygon fill="rgb(107,142,35)" fill-opacity="0.7" points="275.546875,437.109375 275.546875,458.203125 389.453125,458.203125 389.453125,437.109375" stroke="black" stroke-width="1.5" /><text dominant-baseline="middle" fill="black" font-family="Arial" font-size="12px" font-weight="bold" text-anchor="middle" x="333.5546875" y="448.7109375">Balcony</text></g><rect fill="red" fill-opacity="0.9" height="27.421875" id="main_door" stroke="darkred" stroke-width="3" width="6.328125" x="317.734375" y="211.40625" /><text dominant-baseline="middle" fill="white" font-family="Arial" font-size="9px" font-weight="bold" text-anchor="middle" x="320.8984375" y="225.1171875">Main Door</text><text fill="black" font-family="Arial" font-size="18px" font-weight="bold" text-anchor="middle" x="400.0" y="30">Floor Plan - ID: 28801</text></svg>