<?xml version="1.0" encoding="utf-8" ?>
<svg baseProfile="full" height="600px" version="1.1" viewBox="0 0 800 600" width="800px" xmlns="http://www.w3.org/2000/svg" xmlns:ev="http://www.w3.org/2001/xml-events" xmlns:xlink="http://www.w3.org/1999/xlink"><defs /><rect fill="white" height="600" width="800" x="0" y="0" /><polygon fill="none" id="floor_plan_boundary" points="235.46875,131.25 235.46875,262.03125 279.765625,264.140625 279.765625,468.75 518.125,468.75 518.125,281.015625 564.53125,278.90625 564.53125,150.234375 429.53125,150.234375 560.3125,156.5625 560.3125,272.578125 513.90625,274.6875 513.90625,462.421875 286.09375,464.53125 283.984375,257.8125 239.6875,255.703125 239.6875,137.578125 324.0625,135.46875 326.171875,154.453125 400.0,150.234375 332.5,150.234375 330.390625,131.25" stroke="black" stroke-linecap="butt" stroke-linejoin="miter" stroke-width="4" /><g id="room_living_room"><polygon fill="rgb(238,232,170)" fill-opacity="0.7" points="332.5,156.5625 332.5,255.703125 364.140625,255.703125 366.25,287.34375 402.109375,289.453125 402.109375,407.578125 511.796875,407.578125 511.796875,281.015625 450.625,278.90625 450.625,156.5625" stroke="black" stroke-width="1.5" /><text dominant-baseline="middle" fill="black" font-family="Arial" font-size="12px" font-weight="bold" text-anchor="middle" x="423.203125" y="283.125">Living Room</text></g><g id="room_master_bedroom"><polygon fill="rgb(255,165,0)" fill-opacity="0.7" points="393.671875,295.78125 366.25,295.78125 364.140625,344.296875 286.09375,344.296875 286.09375,462.421875 393.671875,462.421875" stroke="black" stroke-width="1.5" /><text dominant-baseline="middle" fill="black" font-family="Arial" font-size="12px" font-weight="bold" text-anchor="middle" x="340.9375" y="380.15625">Master Bedroom</text></g><g id="room_common_room"><polygon fill="rgb(255,215,0)" fill-opacity="0.7" points="241.796875,137.578125 241.796875,255.703125 277.65625,255.703125 279.765625,238.828125 324.0625,238.828125 324.0625,137.578125" stroke="black" stroke-width="1.5" /><text dominant-baseline="middle" fill="black" font-family="Arial" font-size="12px" font-weight="bold" text-anchor="middle" x="283.984375" y="197.6953125">Common Room</text></g><g id="room_bathroom"><polygon fill="rgb(173,216,230)" fill-opacity="0.7" points="286.09375,247.265625 286.09375,335.859375 357.8125,335.859375 357.8125,264.140625 326.171875,264.140625 324.0625,247.265625" stroke="black" stroke-width="1.5" /><text dominant-baseline="middle" fill="black" font-family="Arial" font-size="12px" font-weight="bold" text-anchor="middle" x="323.0078125" y="292.6171875">Bathroom</text></g><g id="room_kitchen"><polygon fill="rgb(240,128,128)" fill-opacity="0.7" points="459.0625,156.5625 459.0625,209.296875 558.203125,209.296875 558.203125,156.5625" stroke="black" stroke-width="1.5" /><text dominant-baseline="middle" fill="black" font-family="Arial" font-size="12px" font-weight="bold" text-anchor="middle" x="509.6875" y="183.984375">Kitchen</text></g><g id="room_balcony"><polygon fill="rgb(107,142,35)" fill-opacity="0.7" points="402.109375,416.015625 402.109375,462.421875 511.796875,462.421875 511.796875,416.015625" stroke="black" stroke-width="1.5" /><text dominant-baseline="middle" fill="black" font-family="Arial" font-size="12px" font-weight="bold" text-anchor="middle" x="458.0078125" y="440.2734375">Balcony</text></g><g id="room_bathroom_2"><polygon fill="rgb(173,216,230)" fill-opacity="0.7" points="459.0625,217.734375 459.0625,272.578125 511.796875,272.578125 511.796875,217.734375" stroke="black" stroke-width="1.5" /><text dominant-baseline="middle" fill="black" font-family="Arial" font-size="12px" font-weight="bold" text-anchor="middle" x="486.484375" y="246.2109375">Bathroom 2</text></g><g id="room_balcony_2"><polygon fill="rgb(107,142,35)" fill-opacity="0.7" points="520.234375,217.734375 520.234375,272.578125 558.203125,272.578125 558.203125,217.734375" stroke="black" stroke-width="1.5" /><text dominant-baseline="middle" fill="black" font-family="Arial" font-size="12px" font-weight="bold" text-anchor="middle" x="540.2734375" y="246.2109375">Balcony 2</text></g><rect fill="red" fill-opacity="0.9" height="6.328125" id="main_door" stroke="darkred" stroke-width="3" width="27.421875" x="402.109375" y="150.234375" /><text dominant-baseline="middle" fill="white" font-family="Arial" font-size="9px" font-weight="bold" text-anchor="middle" x="415.8203125" y="153.3984375">Main Door</text><text fill="black" font-family="Arial" font-size="18px" font-weight="bold" text-anchor="middle" x="400.0" y="30">Floor Plan - ID: 28908</text></svg>