<?xml version="1.0" encoding="utf-8" ?>
<svg baseProfile="full" height="600px" version="1.1" viewBox="0 0 800 600" width="800px" xmlns="http://www.w3.org/2000/svg" xmlns:ev="http://www.w3.org/2001/xml-events" xmlns:xlink="http://www.w3.org/1999/xlink"><defs /><rect fill="white" height="600" width="800" x="0" y="0" /><polygon fill="none" id="floor_plan_boundary" points="250.234375,133.359375 250.234375,466.640625 366.25,466.640625 368.359375,346.40625 545.546875,346.40625 545.546875,335.859375 539.21875,342.1875 362.03125,342.1875 362.03125,460.3125 256.5625,462.421875 254.453125,139.6875 543.4375,137.578125 545.546875,302.109375 549.765625,133.359375" stroke="black" stroke-linecap="butt" stroke-linejoin="miter" stroke-width="4" /><g id="room_living_room"><polygon fill="rgb(238,232,170)" fill-opacity="0.7" points="368.359375,139.6875 368.359375,253.59375 332.5,255.703125 332.5,293.671875 368.359375,295.78125 368.359375,340.078125 539.21875,340.078125 539.21875,291.5625 488.59375,289.453125 488.59375,139.6875" stroke="black" stroke-width="1.5" /><text dominant-baseline="middle" fill="black" font-family="Arial" font-size="12px" font-weight="bold" text-anchor="middle" x="436.9140625" y="240.9375">Living Room</text></g><g id="room_master_bedroom"><polygon fill="rgb(255,165,0)" fill-opacity="0.7" points="359.921875,302.109375 332.5,302.109375 330.390625,327.421875 256.5625,327.421875 256.5625,460.3125 359.921875,460.3125" stroke="black" stroke-width="1.5" /><text dominant-baseline="middle" fill="black" font-family="Arial" font-size="12px" font-weight="bold" text-anchor="middle" x="309.296875" y="382.265625">Master Bedroom</text></g><g id="room_master_bedroom_2"><polygon fill="rgb(255,165,0)" fill-opacity="0.7" points="256.5625,139.6875 256.5625,247.265625 359.921875,247.265625 359.921875,139.6875" stroke="black" stroke-width="1.5" /><text dominant-baseline="middle" fill="black" font-family="Arial" font-size="12px" font-weight="bold" text-anchor="middle" x="309.296875" y="194.53125">Master Bedroom 2</text></g><g id="room_kitchen"><polygon fill="rgb(240,128,128)" fill-opacity="0.7" points="497.03125,139.6875 497.03125,283.125 543.4375,283.125 543.4375,139.6875" stroke="black" stroke-width="1.5" /><text dominant-baseline="middle" fill="black" font-family="Arial" font-size="12px" font-weight="bold" text-anchor="middle" x="521.2890625" y="212.4609375">Kitchen</text></g><g id="room_bathroom"><polygon fill="rgb(173,216,230)" fill-opacity="0.7" points="256.5625,255.703125 256.5625,318.984375 324.0625,318.984375 324.0625,255.703125" stroke="black" stroke-width="1.5" /><text dominant-baseline="middle" fill="black" font-family="Arial" font-size="12px" font-weight="bold" text-anchor="middle" x="291.3671875" y="288.3984375">Bathroom</text></g><rect fill="red" fill-opacity="0.9" height="31.640625" id="main_door" stroke="darkred" stroke-width="3" width="6.328125" x="541.328125" y="304.21875" /><text dominant-baseline="middle" fill="white" font-family="Arial" font-size="9px" font-weight="bold" text-anchor="middle" x="544.4921875" y="320.0390625">Main Door</text><text fill="black" font-family="Arial" font-size="18px" font-weight="bold" text-anchor="middle" x="400.0" y="30">Floor Plan - ID: 29031</text></svg>