<?xml version="1.0" encoding="utf-8" ?>
<svg baseProfile="full" height="600px" version="1.1" viewBox="0 0 800 600" width="800px" xmlns="http://www.w3.org/2000/svg" xmlns:ev="http://www.w3.org/2001/xml-events" xmlns:xlink="http://www.w3.org/1999/xlink"><defs /><rect fill="white" height="600" width="800" x="0" y="0" /><polygon fill="none" id="floor_plan_boundary" points="260.78125,82.734375 260.78125,295.78125 267.109375,86.953125 406.328125,86.953125 408.4375,133.359375 440.078125,133.359375 442.1875,114.375 537.109375,116.484375 537.109375,342.1875 505.46875,344.296875 503.359375,513.046875 406.328125,510.9375 406.328125,321.09375 260.78125,325.3125 400.0,325.3125 402.109375,517.265625 509.6875,517.265625 509.6875,350.625 541.328125,348.515625 541.328125,110.15625 435.859375,110.15625 433.75,129.140625 414.765625,129.140625 412.65625,82.734375" stroke="black" stroke-linecap="butt" stroke-linejoin="miter" stroke-width="4" /><g id="room_living_room"><polygon fill="rgb(238,232,170)" fill-opacity="0.7" points="321.953125,135.46875 321.953125,221.953125 267.109375,224.0625 267.109375,318.984375 406.328125,318.984375 408.4375,342.1875 433.75,342.1875 433.75,257.8125 465.390625,255.703125 465.390625,224.0625 433.75,221.953125 433.75,135.46875" stroke="black" stroke-width="1.5" /><text dominant-baseline="middle" fill="black" font-family="Arial" font-size="12px" font-weight="bold" text-anchor="middle" x="367.3046875" y="239.8828125">Living Room</text></g><g id="room_master_bedroom"><polygon fill="rgb(255,165,0)" fill-opacity="0.7" points="408.4375,350.625 408.4375,510.9375 503.359375,510.9375 503.359375,409.6875 435.859375,409.6875 433.75,350.625" stroke="black" stroke-width="1.5" /><text dominant-baseline="middle" fill="black" font-family="Arial" font-size="12px" font-weight="bold" text-anchor="middle" x="456.953125" y="431.8359375">Master Bedroom</text></g><g id="room_common_room_2"><polygon fill="rgb(255,215,0)" fill-opacity="0.7" points="442.1875,116.484375 442.1875,215.625 465.390625,215.625 467.5,198.75 535.0,198.75 535.0,116.484375" stroke="black" stroke-width="1.5" /><text dominant-baseline="middle" fill="black" font-family="Arial" font-size="12px" font-weight="bold" text-anchor="middle" x="489.6484375" y="167.109375">Common Room 2</text></g><g id="room_common_room"><polygon fill="rgb(255,215,0)" fill-opacity="0.7" points="442.1875,264.140625 442.1875,342.1875 535.0,342.1875 535.0,264.140625" stroke="black" stroke-width="1.5" /><text dominant-baseline="middle" fill="black" font-family="Arial" font-size="12px" font-weight="bold" text-anchor="middle" x="489.6484375" y="304.21875">Common Room</text></g><g id="room_balcony"><polygon fill="rgb(107,142,35)" fill-opacity="0.7" points="267.109375,89.0625 267.109375,127.03125 406.328125,127.03125 406.328125,89.0625" stroke="black" stroke-width="1.5" /><text dominant-baseline="middle" fill="black" font-family="Arial" font-size="12px" font-weight="bold" text-anchor="middle" x="337.7734375" y="109.1015625">Balcony</text></g><g id="room_kitchen"><polygon fill="rgb(240,128,128)" fill-opacity="0.7" points="267.109375,135.46875 267.109375,215.625 313.515625,215.625 313.515625,135.46875" stroke="black" stroke-width="1.5" /><text dominant-baseline="middle" fill="black" font-family="Arial" font-size="12px" font-weight="bold" text-anchor="middle" x="291.3671875" y="176.6015625">Kitchen</text></g><g id="room_bathroom"><polygon fill="rgb(173,216,230)" fill-opacity="0.7" points="442.1875,350.625 442.1875,401.25 503.359375,401.25 503.359375,350.625" stroke="black" stroke-width="1.5" /><text dominant-baseline="middle" fill="black" font-family="Arial" font-size="12px" font-weight="bold" text-anchor="middle" x="473.828125" y="376.9921875">Bathroom</text></g><g id="room_bathroom_2"><polygon fill="rgb(173,216,230)" fill-opacity="0.7" points="473.828125,207.1875 473.828125,255.703125 535.0,255.703125 535.0,207.1875" stroke="black" stroke-width="1.5" /><text dominant-baseline="middle" fill="black" font-family="Arial" font-size="12px" font-weight="bold" text-anchor="middle" x="505.46875" y="232.5">Bathroom 2</text></g><rect fill="red" fill-opacity="0.9" height="27.421875" id="main_door" stroke="darkred" stroke-width="3" width="6.328125" x="260.78125" y="297.890625" /><text dominant-baseline="middle" fill="white" font-family="Arial" font-size="9px" font-weight="bold" text-anchor="middle" x="263.9453125" y="311.6015625">Main Door</text><text fill="black" font-family="Arial" font-size="18px" font-weight="bold" text-anchor="middle" x="400.0" y="30">Floor Plan - ID: 29222</text></svg>