<?xml version="1.0" encoding="utf-8" ?>
<svg baseProfile="full" height="600px" version="1.1" viewBox="0 0 800 600" width="800px" xmlns="http://www.w3.org/2000/svg" xmlns:ev="http://www.w3.org/2001/xml-events" xmlns:xlink="http://www.w3.org/1999/xlink"><defs /><rect fill="white" height="600" width="800" x="0" y="0" /><polygon fill="none" id="floor_plan_boundary" points="581.40625,127.03125 520.234375,127.03125 518.125,202.96875 433.75,202.96875 524.453125,207.1875 524.453125,133.359375 577.1875,133.359375 577.1875,230.390625 560.3125,232.5 560.3125,289.453125 579.296875,291.5625 577.1875,468.75 220.703125,466.640625 220.703125,247.265625 389.453125,245.15625 389.453125,209.296875 400.0,202.96875 385.234375,202.96875 383.125,240.9375 216.484375,240.9375 216.484375,472.96875 583.515625,472.96875 583.515625,285.234375 564.53125,283.125 564.53125,238.828125 581.40625,236.71875" stroke="black" stroke-linecap="butt" stroke-linejoin="miter" stroke-width="4" /><g id="room_living_room"><polygon fill="rgb(238,232,170)" fill-opacity="0.7" points="518.125,209.296875 391.5625,209.296875 389.453125,247.265625 222.8125,247.265625 222.8125,361.171875 402.109375,361.171875 404.21875,399.140625 456.953125,399.140625 454.84375,287.34375 518.125,283.125" stroke="black" stroke-width="1.5" /><text dominant-baseline="middle" fill="black" font-family="Arial" font-size="12px" font-weight="bold" text-anchor="middle" x="371.5234375" y="305.2734375">Living Room</text></g><g id="room_master_bedroom"><polygon fill="rgb(255,165,0)" fill-opacity="0.7" points="222.8125,466.640625 334.609375,466.640625 332.5,403.359375 395.78125,399.140625 395.78125,369.609375 222.8125,369.609375" stroke="black" stroke-width="1.5" /><text dominant-baseline="middle" fill="black" font-family="Arial" font-size="12px" font-weight="bold" text-anchor="middle" x="310.3515625" y="419.1796875">Master Bedroom</text></g><g id="room_common_room"><polygon fill="rgb(255,215,0)" fill-opacity="0.7" points="465.390625,369.609375 465.390625,466.640625 577.1875,466.640625 577.1875,369.609375" stroke="black" stroke-width="1.5" /><text dominant-baseline="middle" fill="black" font-family="Arial" font-size="12px" font-weight="bold" text-anchor="middle" x="522.34375" y="419.1796875">Common Room</text></g><g id="room_common_room_2"><polygon fill="rgb(255,215,0)" fill-opacity="0.7" points="465.390625,291.5625 465.390625,361.171875 577.1875,361.171875 577.1875,291.5625" stroke="black" stroke-width="1.5" /><text dominant-baseline="middle" fill="black" font-family="Arial" font-size="12px" font-weight="bold" text-anchor="middle" x="522.34375" y="327.421875">Common Room 2</text></g><g id="room_kitchen"><polygon fill="rgb(240,128,128)" fill-opacity="0.7" points="526.5625,133.359375 526.5625,230.390625 575.078125,230.390625 575.078125,133.359375" stroke="black" stroke-width="1.5" /><text dominant-baseline="middle" fill="black" font-family="Arial" font-size="12px" font-weight="bold" text-anchor="middle" x="551.875" y="182.9296875">Kitchen</text></g><g id="room_bathroom"><polygon fill="rgb(173,216,230)" fill-opacity="0.7" points="400.0,407.578125 400.0,466.640625 456.953125,466.640625 456.953125,407.578125" stroke="black" stroke-width="1.5" /><text dominant-baseline="middle" fill="black" font-family="Arial" font-size="12px" font-weight="bold" text-anchor="middle" x="429.53125" y="438.1640625">Bathroom</text></g><g id="room_bathroom_2"><polygon fill="rgb(173,216,230)" fill-opacity="0.7" points="343.046875,407.578125 343.046875,466.640625 391.5625,466.640625 391.5625,407.578125" stroke="black" stroke-width="1.5" /><text dominant-baseline="middle" fill="black" font-family="Arial" font-size="12px" font-weight="bold" text-anchor="middle" x="368.359375" y="438.1640625">Bathroom 2</text></g><g id="room_balcony"><polygon fill="rgb(107,142,35)" fill-opacity="0.7" points="526.5625,238.828125 526.5625,283.125 558.203125,283.125 558.203125,238.828125" stroke="black" stroke-width="1.5" /><text dominant-baseline="middle" fill="black" font-family="Arial" font-size="12px" font-weight="bold" text-anchor="middle" x="543.4375" y="262.03125">Balcony</text></g><rect fill="red" fill-opacity="0.9" height="6.328125" id="main_door" stroke="darkred" stroke-width="3" width="31.640625" x="402.109375" y="202.96875" /><text dominant-baseline="middle" fill="white" font-family="Arial" font-size="9px" font-weight="bold" text-anchor="middle" x="417.9296875" y="206.1328125">Main Door</text><text fill="black" font-family="Arial" font-size="18px" font-weight="bold" text-anchor="middle" x="400.0" y="30">Floor Plan - ID: 29236</text></svg>