<?xml version="1.0" encoding="utf-8" ?>
<svg baseProfile="full" height="600px" version="1.1" viewBox="0 0 800 600" width="800px" xmlns="http://www.w3.org/2000/svg" xmlns:ev="http://www.w3.org/2001/xml-events" xmlns:xlink="http://www.w3.org/1999/xlink"><defs /><rect fill="white" height="600" width="800" x="0" y="0" /><polygon fill="none" id="floor_plan_boundary" points="397.890625,95.390625 395.78125,146.015625 294.53125,146.015625 294.53125,264.140625 300.859375,150.234375 402.109375,150.234375 404.21875,99.609375 526.5625,99.609375 528.671875,498.28125 391.5625,500.390625 389.453125,460.3125 273.4375,460.3125 271.328125,300.0 298.75,293.671875 267.109375,293.671875 267.109375,464.53125 383.125,464.53125 385.234375,504.609375 532.890625,504.609375 532.890625,95.390625" stroke="black" stroke-linecap="butt" stroke-linejoin="miter" stroke-width="4" /><g id="room_living_room"><polygon fill="rgb(238,232,170)" fill-opacity="0.7" points="300.859375,262.03125 300.859375,291.5625 338.828125,293.671875 338.828125,348.515625 526.5625,348.515625 526.5625,152.34375 404.21875,152.34375 406.328125,257.8125" stroke="black" stroke-width="1.5" /><text dominant-baseline="middle" fill="black" font-family="Arial" font-size="12px" font-weight="bold" text-anchor="middle" x="414.765625" y="251.484375">Living Room</text></g><g id="room_master_bedroom"><polygon fill="rgb(255,165,0)" fill-opacity="0.7" points="391.5625,356.953125 391.5625,498.28125 526.5625,498.28125 526.5625,356.953125" stroke="black" stroke-width="1.5" /><text dominant-baseline="middle" fill="black" font-family="Arial" font-size="12px" font-weight="bold" text-anchor="middle" x="460.1171875" y="428.671875">Master Bedroom</text></g><g id="room_common_room"><polygon fill="rgb(255,215,0)" fill-opacity="0.7" points="273.4375,356.953125 273.4375,458.203125 383.125,458.203125 383.125,356.953125" stroke="black" stroke-width="1.5" /><text dominant-baseline="middle" fill="black" font-family="Arial" font-size="12px" font-weight="bold" text-anchor="middle" x="329.3359375" y="408.6328125">Common Room</text></g><g id="room_common_room_2"><polygon fill="rgb(255,215,0)" fill-opacity="0.7" points="300.859375,152.34375 300.859375,253.59375 395.78125,253.59375 395.78125,152.34375" stroke="black" stroke-width="1.5" /><text dominant-baseline="middle" fill="black" font-family="Arial" font-size="12px" font-weight="bold" text-anchor="middle" x="349.375" y="204.0234375">Common Room 2</text></g><g id="room_kitchen"><polygon fill="rgb(240,128,128)" fill-opacity="0.7" points="404.21875,101.71875 404.21875,143.90625 526.5625,143.90625 526.5625,101.71875" stroke="black" stroke-width="1.5" /><text dominant-baseline="middle" fill="black" font-family="Arial" font-size="12px" font-weight="bold" text-anchor="middle" x="466.4453125" y="123.8671875">Kitchen</text></g><g id="room_bathroom"><polygon fill="rgb(173,216,230)" fill-opacity="0.7" points="273.4375,300.0 273.4375,348.515625 330.390625,348.515625 330.390625,300.0" stroke="black" stroke-width="1.5" /><text dominant-baseline="middle" fill="black" font-family="Arial" font-size="12px" font-weight="bold" text-anchor="middle" x="302.96875" y="325.3125">Bathroom</text></g><rect fill="red" fill-opacity="0.9" height="27.421875" id="main_door" stroke="darkred" stroke-width="3" width="6.328125" x="294.53125" y="266.25" /><text dominant-baseline="middle" fill="white" font-family="Arial" font-size="9px" font-weight="bold" text-anchor="middle" x="297.6953125" y="279.9609375">Main Door</text><text fill="black" font-family="Arial" font-size="18px" font-weight="bold" text-anchor="middle" x="400.0" y="30">Floor Plan - ID: 29401</text></svg>