<?xml version="1.0" encoding="utf-8" ?>
<svg baseProfile="full" height="600px" version="1.1" viewBox="0 0 800 600" width="800px" xmlns="http://www.w3.org/2000/svg" xmlns:ev="http://www.w3.org/2001/xml-events" xmlns:xlink="http://www.w3.org/1999/xlink"><defs /><rect fill="white" height="600" width="800" x="0" y="0" /><polygon fill="none" id="floor_plan_boundary" points="248.125,175.546875 248.125,304.21875 273.4375,306.328125 273.4375,424.453125 490.703125,424.453125 492.8125,371.71875 551.875,371.71875 547.65625,243.046875 547.65625,365.390625 486.484375,367.5 484.375,420.234375 279.765625,420.234375 277.65625,300.0 252.34375,297.890625 254.453125,179.765625 518.125,179.765625 520.234375,211.40625 551.875,213.515625 551.875,207.1875 524.453125,205.078125 524.453125,175.546875" stroke="black" stroke-linecap="butt" stroke-linejoin="miter" stroke-width="4" /><g id="room_living_room"><polygon fill="rgb(238,232,170)" fill-opacity="0.7" points="374.6875,181.875 374.6875,268.359375 336.71875,270.46875 336.71875,327.421875 368.359375,329.53125 368.359375,418.125 484.375,418.125 484.375,238.828125 545.546875,236.71875 545.546875,213.515625 518.125,211.40625 518.125,181.875" stroke="black" stroke-width="1.5" /><text dominant-baseline="middle" fill="black" font-family="Arial" font-size="12px" font-weight="bold" text-anchor="middle" x="442.1875" y="301.0546875">Living Room</text></g><g id="room_master_bedroom"><polygon fill="rgb(255,165,0)" fill-opacity="0.7" points="254.453125,181.875 254.453125,297.890625 271.328125,297.890625 273.4375,262.03125 366.25,262.03125 366.25,181.875" stroke="black" stroke-width="1.5" /><text dominant-baseline="middle" fill="black" font-family="Arial" font-size="12px" font-weight="bold" text-anchor="middle" x="311.40625" y="240.9375">Master Bedroom</text></g><g id="room_common_room"><polygon fill="rgb(255,215,0)" fill-opacity="0.7" points="279.765625,335.859375 279.765625,418.125 359.921875,418.125 359.921875,335.859375" stroke="black" stroke-width="1.5" /><text dominant-baseline="middle" fill="black" font-family="Arial" font-size="12px" font-weight="bold" text-anchor="middle" x="320.8984375" y="378.046875">Common Room</text></g><g id="room_kitchen"><polygon fill="rgb(240,128,128)" fill-opacity="0.7" points="492.8125,245.15625 492.8125,365.390625 545.546875,365.390625 545.546875,245.15625" stroke="black" stroke-width="1.5" /><text dominant-baseline="middle" fill="black" font-family="Arial" font-size="12px" font-weight="bold" text-anchor="middle" x="520.234375" y="306.328125">Kitchen</text></g><g id="room_bathroom"><polygon fill="rgb(173,216,230)" fill-opacity="0.7" points="279.765625,270.46875 279.765625,327.421875 328.28125,327.421875 328.28125,270.46875" stroke="black" stroke-width="1.5" /><text dominant-baseline="middle" fill="black" font-family="Arial" font-size="12px" font-weight="bold" text-anchor="middle" x="305.078125" y="300.0">Bathroom</text></g><rect fill="red" fill-opacity="0.9" height="27.421875" id="main_door" stroke="darkred" stroke-width="3" width="6.328125" x="547.65625" y="215.625" /><text dominant-baseline="middle" fill="white" font-family="Arial" font-size="9px" font-weight="bold" text-anchor="middle" x="550.8203125" y="229.3359375">Main Door</text><text fill="black" font-family="Arial" font-size="18px" font-weight="bold" text-anchor="middle" x="400.0" y="30">Floor Plan - ID: 29430</text></svg>