<?xml version="1.0" encoding="utf-8" ?>
<svg baseProfile="full" height="600px" version="1.1" viewBox="0 0 800 600" width="800px" xmlns="http://www.w3.org/2000/svg" xmlns:ev="http://www.w3.org/2001/xml-events" xmlns:xlink="http://www.w3.org/1999/xlink"><defs /><rect fill="white" height="600" width="800" x="0" y="0" /><polygon fill="none" id="floor_plan_boundary" points="541.328125,78.515625 364.140625,78.515625 362.03125,65.859375 258.671875,65.859375 258.671875,534.140625 362.03125,534.140625 364.140625,325.3125 469.609375,325.3125 469.609375,236.71875 463.28125,321.09375 357.8125,321.09375 357.8125,527.8125 262.890625,527.8125 262.890625,72.1875 355.703125,70.078125 357.8125,82.734375 535.0,82.734375 537.109375,181.875 526.5625,194.53125 465.390625,194.53125 465.390625,207.1875 471.71875,198.75 532.890625,198.75 541.328125,188.203125" stroke="black" stroke-linecap="butt" stroke-linejoin="miter" stroke-width="4" /><g id="room_living_room"><polygon fill="rgb(238,232,170)" fill-opacity="0.7" points="364.140625,84.84375 364.140625,228.28125 334.609375,230.390625 334.609375,318.984375 463.28125,318.984375 463.28125,84.84375" stroke="black" stroke-width="1.5" /><text dominant-baseline="middle" fill="black" font-family="Arial" font-size="12px" font-weight="bold" text-anchor="middle" x="400.0" y="202.96875">Living Room</text></g><g id="room_master_bedroom"><polygon fill="rgb(255,165,0)" fill-opacity="0.7" points="265.0,327.421875 265.0,491.953125 355.703125,491.953125 355.703125,327.421875" stroke="black" stroke-width="1.5" /><text dominant-baseline="middle" fill="black" font-family="Arial" font-size="12px" font-weight="bold" text-anchor="middle" x="311.40625" y="410.7421875">Master Bedroom</text></g><g id="room_common_room"><polygon fill="rgb(255,215,0)" fill-opacity="0.7" points="265.0,72.1875 265.0,221.953125 355.703125,221.953125 355.703125,72.1875" stroke="black" stroke-width="1.5" /><text dominant-baseline="middle" fill="black" font-family="Arial" font-size="12px" font-weight="bold" text-anchor="middle" x="311.40625" y="148.125">Common Room</text></g><g id="room_kitchen"><polygon fill="rgb(240,128,128)" fill-opacity="0.7" points="471.71875,84.84375 471.71875,192.421875 526.5625,192.421875 526.5625,183.984375 535.0,181.875 535.0,84.84375" stroke="black" stroke-width="1.5" /><text dominant-baseline="middle" fill="black" font-family="Arial" font-size="12px" font-weight="bold" text-anchor="middle" x="504.4140625" y="139.6875">Kitchen</text></g><g id="room_bathroom"><polygon fill="rgb(173,216,230)" fill-opacity="0.7" points="265.0,230.390625 265.0,318.984375 326.171875,318.984375 326.171875,230.390625" stroke="black" stroke-width="1.5" /><text dominant-baseline="middle" fill="black" font-family="Arial" font-size="12px" font-weight="bold" text-anchor="middle" x="296.640625" y="275.7421875">Bathroom</text></g><g id="room_balcony"><polygon fill="rgb(107,142,35)" fill-opacity="0.7" points="265.0,500.390625 265.0,527.8125 355.703125,527.8125 355.703125,500.390625" stroke="black" stroke-width="1.5" /><text dominant-baseline="middle" fill="black" font-family="Arial" font-size="12px" font-weight="bold" text-anchor="middle" x="311.40625" y="515.15625">Balcony</text></g><rect fill="red" fill-opacity="0.9" height="27.421875" id="main_door" stroke="darkred" stroke-width="3" width="6.328125" x="465.390625" y="209.296875" /><text dominant-baseline="middle" fill="white" font-family="Arial" font-size="9px" font-weight="bold" text-anchor="middle" x="468.5546875" y="223.0078125">Main Door</text><text fill="black" font-family="Arial" font-size="18px" font-weight="bold" text-anchor="middle" x="400.0" y="30">Floor Plan - ID: 29600</text></svg>