<?xml version="1.0" encoding="utf-8" ?>
<svg baseProfile="full" height="600px" version="1.1" viewBox="0 0 800 600" width="800px" xmlns="http://www.w3.org/2000/svg" xmlns:ev="http://www.w3.org/2001/xml-events" xmlns:xlink="http://www.w3.org/1999/xlink"><defs /><rect fill="white" height="600" width="800" x="0" y="0" /><polygon fill="none" id="floor_plan_boundary" points="298.75,93.28125 298.75,167.109375 241.796875,169.21875 241.796875,283.125 279.765625,285.234375 279.765625,274.6875 250.234375,272.578125 250.234375,179.765625 307.1875,177.65625 309.296875,101.71875 423.203125,101.71875 425.3125,120.703125 520.234375,122.8125 520.234375,228.28125 549.765625,230.390625 549.765625,369.609375 528.671875,371.71875 528.671875,485.625 541.328125,487.734375 539.21875,498.28125 433.75,496.171875 433.75,335.859375 281.875,335.859375 279.765625,323.203125 271.328125,323.203125 271.328125,344.296875 423.203125,344.296875 425.3125,506.71875 549.765625,506.71875 549.765625,477.1875 537.109375,475.078125 537.109375,382.265625 558.203125,380.15625 558.203125,219.84375 528.671875,217.734375 528.671875,112.265625 435.859375,112.265625 433.75,93.28125" stroke="black" stroke-linecap="butt" stroke-linejoin="miter" stroke-width="4" /><g id="room_living_room"><polygon fill="rgb(238,232,170)" fill-opacity="0.7" points="309.296875,150.234375 307.1875,281.015625 281.875,283.125 281.875,333.75 433.75,333.75 435.859375,352.734375 459.0625,352.734375 459.0625,253.59375 425.3125,251.484375 425.3125,150.234375" stroke="black" stroke-width="1.5" /><text dominant-baseline="middle" fill="black" font-family="Arial" font-size="12px" font-weight="bold" text-anchor="middle" x="371.5234375" y="252.5390625">Living Room</text></g><g id="room_master_bedroom"><polygon fill="rgb(255,165,0)" fill-opacity="0.7" points="435.859375,361.171875 435.859375,496.171875 539.21875,496.171875 539.21875,487.734375 526.5625,485.625 526.5625,380.15625 461.171875,380.15625 459.0625,361.171875" stroke="black" stroke-width="1.5" /><text dominant-baseline="middle" fill="black" font-family="Arial" font-size="12px" font-weight="bold" text-anchor="middle" x="488.59375" y="429.7265625">Master Bedroom</text></g><g id="room_common_room_2"><polygon fill="rgb(255,215,0)" fill-opacity="0.7" points="435.859375,122.8125 433.75,245.15625 459.0625,245.15625 461.171875,219.84375 518.125,219.84375 518.125,122.8125" stroke="black" stroke-width="1.5" /><text dominant-baseline="middle" fill="black" font-family="Arial" font-size="12px" font-weight="bold" text-anchor="middle" x="476.9921875" y="185.0390625">Common Room 2</text></g><g id="room_common_room"><polygon fill="rgb(255,215,0)" fill-opacity="0.7" points="467.5,228.28125 467.5,312.65625 547.65625,312.65625 547.65625,230.390625" stroke="black" stroke-width="1.5" /><text dominant-baseline="middle" fill="black" font-family="Arial" font-size="12px" font-weight="bold" text-anchor="middle" x="508.6328125" y="271.5234375">Common Room</text></g><g id="room_kitchen"><polygon fill="rgb(240,128,128)" fill-opacity="0.7" points="252.34375,179.765625 252.34375,272.578125 298.75,274.6875 298.75,179.765625" stroke="black" stroke-width="1.5" /><text dominant-baseline="middle" fill="black" font-family="Arial" font-size="12px" font-weight="bold" text-anchor="middle" x="276.6015625" y="228.28125">Kitchen</text></g><g id="room_bathroom"><polygon fill="rgb(173,216,230)" fill-opacity="0.7" points="467.5,321.09375 467.5,371.71875 547.65625,369.609375 547.65625,321.09375" stroke="black" stroke-width="1.5" /><text dominant-baseline="middle" fill="black" font-family="Arial" font-size="12px" font-weight="bold" text-anchor="middle" x="508.6328125" y="347.4609375">Bathroom</text></g><g id="room_balcony"><polygon fill="rgb(107,142,35)" fill-opacity="0.7" points="309.296875,103.828125 309.296875,137.578125 423.203125,137.578125 423.203125,103.828125" stroke="black" stroke-width="1.5" /><text dominant-baseline="middle" fill="black" font-family="Arial" font-size="12px" font-weight="bold" text-anchor="middle" x="367.3046875" y="121.7578125">Balcony</text></g><rect fill="red" fill-opacity="0.9" height="35.859375" id="main_door" stroke="darkred" stroke-width="3" width="10.546875" x="271.328125" y="287.34375" /><text dominant-baseline="middle" fill="white" font-family="Arial" font-size="9px" font-weight="bold" text-anchor="middle" x="276.6015625" y="305.2734375">Main Door</text><text fill="black" font-family="Arial" font-size="18px" font-weight="bold" text-anchor="middle" x="400.0" y="30">Floor Plan - ID: 29741</text></svg>