<?xml version="1.0" encoding="utf-8" ?>
<svg baseProfile="full" height="600px" version="1.1" viewBox="0 0 800 600" width="800px" xmlns="http://www.w3.org/2000/svg" xmlns:ev="http://www.w3.org/2001/xml-events" xmlns:xlink="http://www.w3.org/1999/xlink"><defs /><rect fill="white" height="600" width="800" x="0" y="0" /><polygon fill="none" id="floor_plan_boundary" points="258.671875,118.59375 258.671875,481.40625 454.84375,481.40625 454.84375,447.65625 475.9375,445.546875 475.9375,293.671875 499.140625,291.5625 499.140625,276.796875 467.5,283.125 467.5,435.0 446.40625,437.109375 444.296875,472.96875 267.109375,470.859375 267.109375,129.140625 530.78125,127.03125 532.890625,209.296875 490.703125,211.40625 490.703125,243.046875 499.140625,243.046875 501.25,219.84375 541.328125,219.84375 541.328125,118.59375" stroke="black" stroke-linecap="butt" stroke-linejoin="miter" stroke-width="4" /><g id="room_living_room"><polygon fill="rgb(238,232,170)" fill-opacity="0.7" points="357.8125,190.3125 357.8125,285.234375 321.953125,287.34375 321.953125,321.09375 357.8125,323.203125 357.8125,470.859375 444.296875,470.859375 444.296875,437.109375 465.390625,435.0 465.390625,283.125 488.59375,281.015625 488.59375,243.046875 437.96875,243.046875 435.859375,190.3125" stroke="black" stroke-width="1.5" /><text dominant-baseline="middle" fill="black" font-family="Arial" font-size="12px" font-weight="bold" text-anchor="middle" x="406.328125" y="331.640625">Living Room</text></g><g id="room_master_bedroom"><polygon fill="rgb(255,165,0)" fill-opacity="0.7" points="345.15625,329.53125 321.953125,329.53125 319.84375,367.5 269.21875,367.5 269.21875,470.859375 345.15625,470.859375" stroke="black" stroke-width="1.5" /><text dominant-baseline="middle" fill="black" font-family="Arial" font-size="12px" font-weight="bold" text-anchor="middle" x="308.2421875" y="401.25">Master Bedroom</text></g><g id="room_common_room"><polygon fill="rgb(255,215,0)" fill-opacity="0.7" points="448.515625,129.140625 448.515625,230.390625 488.59375,230.390625 490.703125,209.296875 530.78125,209.296875 530.78125,129.140625" stroke="black" stroke-width="1.5" /><text dominant-baseline="middle" fill="black" font-family="Arial" font-size="12px" font-weight="bold" text-anchor="middle" x="490.703125" y="180.8203125">Common Room</text></g><g id="room_common_room_2"><polygon fill="rgb(255,215,0)" fill-opacity="0.7" points="269.21875,129.140625 269.21875,226.171875 345.15625,226.171875 345.15625,129.140625" stroke="black" stroke-width="1.5" /><text dominant-baseline="middle" fill="black" font-family="Arial" font-size="12px" font-weight="bold" text-anchor="middle" x="308.2421875" y="178.7109375">Common Room 2</text></g><g id="room_kitchen"><polygon fill="rgb(240,128,128)" fill-opacity="0.7" points="357.8125,129.140625 357.8125,181.875 435.859375,181.875 435.859375,129.140625" stroke="black" stroke-width="1.5" /><text dominant-baseline="middle" fill="black" font-family="Arial" font-size="12px" font-weight="bold" text-anchor="middle" x="397.890625" y="156.5625">Kitchen</text></g><g id="room_bathroom_2"><polygon fill="rgb(173,216,230)" fill-opacity="0.7" points="269.21875,238.828125 269.21875,278.90625 345.15625,278.90625 345.15625,238.828125" stroke="black" stroke-width="1.5" /><text dominant-baseline="middle" fill="black" font-family="Arial" font-size="12px" font-weight="bold" text-anchor="middle" x="308.2421875" y="259.921875">Bathroom 2</text></g><g id="room_bathroom"><polygon fill="rgb(173,216,230)" fill-opacity="0.7" points="269.21875,287.34375 269.21875,354.84375 313.515625,354.84375 313.515625,287.34375" stroke="black" stroke-width="1.5" /><text dominant-baseline="middle" fill="black" font-family="Arial" font-size="12px" font-weight="bold" text-anchor="middle" x="292.421875" y="322.1484375">Bathroom</text></g><rect fill="red" fill-opacity="0.9" height="31.640625" id="main_door" stroke="darkred" stroke-width="3" width="10.546875" x="490.703125" y="245.15625" /><text dominant-baseline="middle" fill="white" font-family="Arial" font-size="9px" font-weight="bold" text-anchor="middle" x="495.9765625" y="260.9765625">Main Door</text><text fill="black" font-family="Arial" font-size="18px" font-weight="bold" text-anchor="middle" x="400.0" y="30">Floor Plan - ID: 29883</text></svg>