<?xml version="1.0" encoding="utf-8" ?>
<svg baseProfile="full" height="600px" version="1.1" viewBox="0 0 800 600" width="800px" xmlns="http://www.w3.org/2000/svg" xmlns:ev="http://www.w3.org/2001/xml-events" xmlns:xlink="http://www.w3.org/1999/xlink"><defs /><rect fill="white" height="600" width="800" x="0" y="0" /><polygon fill="none" id="floor_plan_boundary" points="275.546875,93.28125 275.546875,194.53125 283.984375,194.53125 286.09375,101.71875 435.859375,101.71875 437.96875,194.53125 516.015625,196.640625 516.015625,496.171875 283.984375,496.171875 283.984375,228.28125 275.546875,228.28125 275.546875,506.71875 524.453125,506.71875 524.453125,186.09375 446.40625,183.984375 446.40625,93.28125" stroke="black" stroke-linecap="butt" stroke-linejoin="miter" stroke-width="4" /><g id="room_living_room"><polygon fill="rgb(238,232,170)" fill-opacity="0.7" points="286.09375,194.53125 286.09375,432.890625 400.0,432.890625 400.0,316.875 450.625,314.765625 450.625,285.234375 387.34375,283.125 387.34375,196.640625" stroke="black" stroke-width="1.5" /><text dominant-baseline="middle" fill="black" font-family="Arial" font-size="12px" font-weight="bold" text-anchor="middle" x="369.4140625" y="314.765625">Living Room</text></g><g id="room_master_bedroom"><polygon fill="rgb(255,165,0)" fill-opacity="0.7" points="412.65625,323.203125 412.65625,496.171875 513.90625,496.171875 513.90625,388.59375 452.734375,388.59375 450.625,323.203125" stroke="black" stroke-width="1.5" /><text dominant-baseline="middle" fill="black" font-family="Arial" font-size="12px" font-weight="bold" text-anchor="middle" x="464.3359375" y="410.7421875">Master Bedroom</text></g><g id="room_common_room"><polygon fill="rgb(255,215,0)" fill-opacity="0.7" points="400.0,196.640625 400.0,272.578125 513.90625,272.578125 513.90625,196.640625" stroke="black" stroke-width="1.5" /><text dominant-baseline="middle" fill="black" font-family="Arial" font-size="12px" font-weight="bold" text-anchor="middle" x="458.0078125" y="235.6640625">Common Room</text></g><g id="room_balcony_2"><polygon fill="rgb(107,142,35)" fill-opacity="0.7" points="357.8125,103.828125 357.8125,183.984375 435.859375,183.984375 435.859375,103.828125" stroke="black" stroke-width="1.5" /><text dominant-baseline="middle" fill="black" font-family="Arial" font-size="12px" font-weight="bold" text-anchor="middle" x="397.890625" y="144.9609375">Balcony 2</text></g><g id="room_balcony"><polygon fill="rgb(107,142,35)" fill-opacity="0.7" points="286.09375,445.546875 286.09375,496.171875 400.0,496.171875 400.0,445.546875" stroke="black" stroke-width="1.5" /><text dominant-baseline="middle" fill="black" font-family="Arial" font-size="12px" font-weight="bold" text-anchor="middle" x="344.1015625" y="471.9140625">Balcony</text></g><g id="room_kitchen"><polygon fill="rgb(240,128,128)" fill-opacity="0.7" points="286.09375,103.828125 286.09375,186.09375 345.15625,186.09375 345.15625,103.828125" stroke="black" stroke-width="1.5" /><text dominant-baseline="middle" fill="black" font-family="Arial" font-size="12px" font-weight="bold" text-anchor="middle" x="316.6796875" y="146.015625">Kitchen</text></g><g id="room_bathroom_2"><polygon fill="rgb(173,216,230)" fill-opacity="0.7" points="459.0625,285.234375 459.0625,329.53125 513.90625,329.53125 513.90625,285.234375" stroke="black" stroke-width="1.5" /><text dominant-baseline="middle" fill="black" font-family="Arial" font-size="12px" font-weight="bold" text-anchor="middle" x="487.5390625" y="308.4375">Bathroom 2</text></g><g id="room_bathroom"><polygon fill="rgb(173,216,230)" fill-opacity="0.7" points="459.0625,337.96875 459.0625,380.15625 499.140625,380.15625 501.25,375.9375 513.90625,375.9375 513.90625,337.96875" stroke="black" stroke-width="1.5" /><text dominant-baseline="middle" fill="black" font-family="Arial" font-size="12px" font-weight="bold" text-anchor="middle" x="487.5390625" y="360.1171875">Bathroom</text></g><rect fill="red" fill-opacity="0.9" height="31.640625" id="main_door" stroke="darkred" stroke-width="3" width="10.546875" x="275.546875" y="196.640625" /><text dominant-baseline="middle" fill="white" font-family="Arial" font-size="9px" font-weight="bold" text-anchor="middle" x="280.8203125" y="212.4609375">Main Door</text><text fill="black" font-family="Arial" font-size="18px" font-weight="bold" text-anchor="middle" x="400.0" y="30">Floor Plan - ID: 30049</text></svg>