<?xml version="1.0" encoding="utf-8" ?>
<svg baseProfile="full" height="600px" version="1.1" viewBox="0 0 800 600" width="800px" xmlns="http://www.w3.org/2000/svg" xmlns:ev="http://www.w3.org/2001/xml-events" xmlns:xlink="http://www.w3.org/1999/xlink"><defs /><rect fill="white" height="600" width="800" x="0" y="0" /><polygon fill="none" id="floor_plan_boundary" points="203.828125,139.6875 203.828125,245.15625 210.15625,143.90625 589.84375,143.90625 589.84375,411.796875 452.734375,411.796875 450.625,456.09375 294.53125,456.09375 292.421875,293.671875 210.15625,293.671875 203.828125,274.6875 203.828125,297.890625 288.203125,300.0 288.203125,460.3125 456.953125,460.3125 459.0625,416.015625 596.171875,416.015625 596.171875,139.6875" stroke="black" stroke-linecap="butt" stroke-linejoin="miter" stroke-width="4" /><g id="room_living_room"><polygon fill="rgb(238,232,170)" fill-opacity="0.7" points="275.546875,171.328125 275.546875,249.375 210.15625,251.484375 210.15625,291.5625 294.53125,293.671875 294.53125,409.6875 450.625,409.6875 450.625,297.890625 505.46875,295.78125 505.46875,251.484375 366.25,251.484375 364.140625,171.328125" stroke="black" stroke-width="1.5" /><text dominant-baseline="middle" fill="black" font-family="Arial" font-size="12px" font-weight="bold" text-anchor="middle" x="358.8671875" y="291.5625">Living Room</text></g><g id="room_master_bedroom"><polygon fill="rgb(255,165,0)" fill-opacity="0.7" points="459.0625,304.21875 459.0625,409.6875 589.84375,409.6875 589.84375,304.21875" stroke="black" stroke-width="1.5" /><text dominant-baseline="middle" fill="black" font-family="Arial" font-size="12px" font-weight="bold" text-anchor="middle" x="525.5078125" y="358.0078125">Master Bedroom</text></g><g id="room_common_room"><polygon fill="rgb(255,215,0)" fill-opacity="0.7" points="459.0625,146.015625 459.0625,243.046875 589.84375,243.046875 589.84375,146.015625" stroke="black" stroke-width="1.5" /><text dominant-baseline="middle" fill="black" font-family="Arial" font-size="12px" font-weight="bold" text-anchor="middle" x="525.5078125" y="195.5859375">Common Room</text></g><g id="room_bathroom"><polygon fill="rgb(173,216,230)" fill-opacity="0.7" points="372.578125,146.015625 372.578125,243.046875 450.625,243.046875 450.625,146.015625" stroke="black" stroke-width="1.5" /><text dominant-baseline="middle" fill="black" font-family="Arial" font-size="12px" font-weight="bold" text-anchor="middle" x="412.65625" y="195.5859375">Bathroom</text></g><g id="room_balcony"><polygon fill="rgb(107,142,35)" fill-opacity="0.7" points="294.53125,418.125 294.53125,453.984375 450.625,453.984375 450.625,418.125" stroke="black" stroke-width="1.5" /><text dominant-baseline="middle" fill="black" font-family="Arial" font-size="12px" font-weight="bold" text-anchor="middle" x="373.6328125" y="437.109375">Balcony</text></g><g id="room_kitchen"><polygon fill="rgb(240,128,128)" fill-opacity="0.7" points="210.15625,146.015625 210.15625,243.046875 267.109375,243.046875 267.109375,146.015625" stroke="black" stroke-width="1.5" /><text dominant-baseline="middle" fill="black" font-family="Arial" font-size="12px" font-weight="bold" text-anchor="middle" x="239.6875" y="195.5859375">Kitchen</text></g><g id="room_room_8"><polygon fill="rgb(221,160,221)" fill-opacity="0.7" points="513.90625,251.484375 513.90625,295.78125 589.84375,295.78125 589.84375,251.484375" stroke="black" stroke-width="1.5" /><text dominant-baseline="middle" fill="black" font-family="Arial" font-size="12px" font-weight="bold" text-anchor="middle" x="552.9296875" y="274.6875">Room 8</text></g><g id="room_balcony_2"><polygon fill="rgb(107,142,35)" fill-opacity="0.7" points="275.546875,146.015625 275.546875,162.890625 364.140625,162.890625 364.140625,146.015625" stroke="black" stroke-width="1.5" /><text dominant-baseline="middle" fill="black" font-family="Arial" font-size="12px" font-weight="bold" text-anchor="middle" x="320.8984375" y="155.5078125">Balcony 2</text></g><rect fill="red" fill-opacity="0.9" height="27.421875" id="main_door" stroke="darkred" stroke-width="3" width="6.328125" x="203.828125" y="247.265625" /><text dominant-baseline="middle" fill="white" font-family="Arial" font-size="9px" font-weight="bold" text-anchor="middle" x="206.9921875" y="260.9765625">Main Door</text><text fill="black" font-family="Arial" font-size="18px" font-weight="bold" text-anchor="middle" x="400.0" y="30">Floor Plan - ID: 30181</text></svg>