<?xml version="1.0" encoding="utf-8" ?>
<svg baseProfile="full" height="600px" version="1.1" viewBox="0 0 800 600" width="800px" xmlns="http://www.w3.org/2000/svg" xmlns:ev="http://www.w3.org/2001/xml-events" xmlns:xlink="http://www.w3.org/1999/xlink"><defs /><rect fill="white" height="600" width="800" x="0" y="0" /><polygon fill="none" id="floor_plan_boundary" points="203.828125,316.875 203.828125,424.453125 269.21875,424.453125 271.328125,392.8125 549.765625,392.8125 549.765625,295.78125 596.171875,293.671875 596.171875,175.546875 302.96875,175.546875 302.96875,243.046875 237.578125,245.15625 307.1875,249.375 309.296875,179.765625 589.84375,179.765625 591.953125,287.34375 545.546875,289.453125 543.4375,388.59375 265.0,388.59375 262.890625,420.234375 210.15625,420.234375 208.046875,323.203125 241.796875,321.09375 241.796875,287.34375 235.46875,316.875" stroke="black" stroke-linecap="butt" stroke-linejoin="miter" stroke-width="4" /><g id="room_living_room"><polygon fill="rgb(238,232,170)" fill-opacity="0.7" points="243.90625,251.484375 243.90625,287.34375 271.328125,289.453125 271.328125,327.421875 328.28125,327.421875 330.390625,287.34375 543.4375,287.34375 543.4375,181.875 309.296875,181.875 309.296875,249.375" stroke="black" stroke-width="1.5" /><text dominant-baseline="middle" fill="black" font-family="Arial" font-size="12px" font-weight="bold" text-anchor="middle" x="394.7265625" y="255.703125">Living Room</text></g><g id="room_master_bedroom"><polygon fill="rgb(255,165,0)" fill-opacity="0.7" points="427.421875,295.78125 427.421875,386.484375 543.4375,386.484375 543.4375,295.78125" stroke="black" stroke-width="1.5" /><text dominant-baseline="middle" fill="black" font-family="Arial" font-size="12px" font-weight="bold" text-anchor="middle" x="486.484375" y="342.1875">Master Bedroom</text></g><g id="room_common_room"><polygon fill="rgb(255,215,0)" fill-opacity="0.7" points="336.71875,295.78125 336.71875,386.484375 418.984375,386.484375 418.984375,295.78125" stroke="black" stroke-width="1.5" /><text dominant-baseline="middle" fill="black" font-family="Arial" font-size="12px" font-weight="bold" text-anchor="middle" x="378.90625" y="342.1875">Common Room</text></g><g id="room_kitchen"><polygon fill="rgb(240,128,128)" fill-opacity="0.7" points="262.890625,295.78125 243.90625,295.78125 241.796875,323.203125 210.15625,323.203125 210.15625,418.125 262.890625,418.125" stroke="black" stroke-width="1.5" /><text dominant-baseline="middle" fill="black" font-family="Arial" font-size="12px" font-weight="bold" text-anchor="middle" x="237.578125" y="358.0078125">Kitchen</text></g><g id="room_balcony"><polygon fill="rgb(107,142,35)" fill-opacity="0.7" points="551.875,181.875 551.875,287.34375 589.84375,287.34375 589.84375,181.875" stroke="black" stroke-width="1.5" /><text dominant-baseline="middle" fill="black" font-family="Arial" font-size="12px" font-weight="bold" text-anchor="middle" x="571.9140625" y="235.6640625">Balcony</text></g><g id="room_bathroom"><polygon fill="rgb(173,216,230)" fill-opacity="0.7" points="271.328125,335.859375 271.328125,386.484375 328.28125,386.484375 328.28125,335.859375" stroke="black" stroke-width="1.5" /><text dominant-baseline="middle" fill="black" font-family="Arial" font-size="12px" font-weight="bold" text-anchor="middle" x="300.859375" y="362.2265625">Bathroom</text></g><rect fill="red" fill-opacity="0.9" height="35.859375" id="main_door" stroke="darkred" stroke-width="3" width="6.328125" x="237.578125" y="251.484375" /><text dominant-baseline="middle" fill="white" font-family="Arial" font-size="9px" font-weight="bold" text-anchor="middle" x="240.7421875" y="269.4140625">Main Door</text><text fill="black" font-family="Arial" font-size="18px" font-weight="bold" text-anchor="middle" x="400.0" y="30">Floor Plan - ID: 30363</text></svg>