<?xml version="1.0" encoding="utf-8" ?>
<svg baseProfile="full" height="600px" version="1.1" viewBox="0 0 800 600" width="800px" xmlns="http://www.w3.org/2000/svg" xmlns:ev="http://www.w3.org/2001/xml-events" xmlns:xlink="http://www.w3.org/1999/xlink"><defs /><rect fill="white" height="600" width="800" x="0" y="0" /><polygon fill="none" id="floor_plan_boundary" points="271.328125,110.15625 271.328125,228.28125 326.171875,232.5 326.171875,224.0625 275.546875,221.953125 277.65625,114.375 330.390625,114.375 332.5,158.671875 564.53125,160.78125 564.53125,439.21875 456.953125,441.328125 454.84375,485.625 328.28125,485.625 326.171875,441.328125 237.578125,441.328125 235.46875,350.625 267.109375,348.515625 269.21875,308.4375 326.171875,308.4375 321.953125,278.90625 319.84375,304.21875 262.890625,304.21875 262.890625,342.1875 231.25,344.296875 231.25,445.546875 319.84375,445.546875 321.953125,489.84375 461.171875,489.84375 463.28125,445.546875 568.75,445.546875 568.75,154.453125 338.828125,154.453125 336.71875,110.15625" stroke="black" stroke-linecap="butt" stroke-linejoin="miter" stroke-width="4" /><g id="room_living_room"><polygon fill="rgb(238,232,170)" fill-opacity="0.7" points="338.828125,160.78125 328.28125,483.515625 454.84375,483.515625 454.84375,304.21875 499.140625,302.109375 499.140625,270.46875 463.28125,268.359375 463.28125,230.390625 410.546875,228.28125 410.546875,160.78125" stroke="black" stroke-width="1.5" /><text dominant-baseline="middle" fill="black" font-family="Arial" font-size="12px" font-weight="bold" text-anchor="middle" x="414.765625" y="323.203125">Living Room</text></g><g id="room_master_bedroom"><polygon fill="rgb(255,165,0)" fill-opacity="0.7" points="463.28125,310.546875 463.28125,439.21875 562.421875,439.21875 562.421875,291.5625 507.578125,291.5625 505.46875,310.546875" stroke="black" stroke-width="1.5" /><text dominant-baseline="middle" fill="black" font-family="Arial" font-size="12px" font-weight="bold" text-anchor="middle" x="513.90625" y="366.4453125">Master Bedroom</text></g><g id="room_common_room_2"><polygon fill="rgb(255,215,0)" fill-opacity="0.7" points="471.71875,160.78125 471.71875,262.03125 505.46875,262.03125 507.578125,283.125 562.421875,283.125 562.421875,160.78125" stroke="black" stroke-width="1.5" /><text dominant-baseline="middle" fill="black" font-family="Arial" font-size="12px" font-weight="bold" text-anchor="middle" x="518.125" y="223.0078125">Common Room 2</text></g><g id="room_common_room"><polygon fill="rgb(255,215,0)" fill-opacity="0.7" points="269.21875,310.546875 271.328125,346.40625 237.578125,350.625 237.578125,439.21875 319.84375,439.21875 319.84375,310.546875" stroke="black" stroke-width="1.5" /><text dominant-baseline="middle" fill="black" font-family="Arial" font-size="12px" font-weight="bold" text-anchor="middle" x="279.765625" y="375.9375">Common Room</text></g><g id="room_kitchen"><polygon fill="rgb(240,128,128)" fill-opacity="0.7" points="277.65625,116.484375 277.65625,221.953125 330.390625,221.953125 330.390625,116.484375" stroke="black" stroke-width="1.5" /><text dominant-baseline="middle" fill="black" font-family="Arial" font-size="12px" font-weight="bold" text-anchor="middle" x="305.078125" y="170.2734375">Kitchen</text></g><g id="room_bathroom"><polygon fill="rgb(173,216,230)" fill-opacity="0.7" points="418.984375,160.78125 418.984375,221.953125 463.28125,221.953125 463.28125,160.78125" stroke="black" stroke-width="1.5" /><text dominant-baseline="middle" fill="black" font-family="Arial" font-size="12px" font-weight="bold" text-anchor="middle" x="442.1875" y="192.421875">Bathroom</text></g><rect fill="red" fill-opacity="0.9" height="44.296875" id="main_door" stroke="darkred" stroke-width="3" width="6.328125" x="321.953125" y="234.609375" /><text dominant-baseline="middle" fill="white" font-family="Arial" font-size="9px" font-weight="bold" text-anchor="middle" x="325.1171875" y="256.7578125">Main Door</text><text fill="black" font-family="Arial" font-size="18px" font-weight="bold" text-anchor="middle" x="400.0" y="30">Floor Plan - ID: 30401</text></svg>