<?xml version="1.0" encoding="utf-8" ?>
<svg baseProfile="full" height="600px" version="1.1" viewBox="0 0 800 600" width="800px" xmlns="http://www.w3.org/2000/svg" xmlns:ev="http://www.w3.org/2001/xml-events" xmlns:xlink="http://www.w3.org/1999/xlink"><defs /><rect fill="white" height="600" width="800" x="0" y="0" /><polygon fill="none" id="floor_plan_boundary" points="235.46875,124.921875 235.46875,458.203125 243.90625,458.203125 246.015625,133.359375 357.8125,133.359375 359.921875,186.09375 389.453125,186.09375 389.453125,165.0 429.53125,165.0 431.640625,186.09375 482.265625,186.09375 484.375,165.0 532.890625,165.0 535.0,186.09375 556.09375,188.203125 553.984375,449.765625 532.890625,449.765625 530.78125,470.859375 492.8125,470.859375 490.703125,449.765625 273.4375,449.765625 273.4375,458.203125 484.375,458.203125 486.484375,475.078125 537.109375,475.078125 539.21875,458.203125 564.53125,458.203125 564.53125,177.65625 541.328125,177.65625 539.21875,160.78125 478.046875,160.78125 475.9375,177.65625 437.96875,177.65625 435.859375,160.78125 383.125,160.78125 383.125,175.546875 370.46875,177.65625 368.359375,124.921875" stroke="black" stroke-linecap="butt" stroke-linejoin="miter" stroke-width="4" /><g id="room_living_room"><polygon fill="rgb(238,232,170)" fill-opacity="0.7" points="246.015625,188.203125 246.015625,447.65625 343.046875,447.65625 345.15625,361.171875 492.8125,359.0625 492.8125,333.75 357.8125,331.640625 357.8125,188.203125" stroke="black" stroke-width="1.5" /><text dominant-baseline="middle" fill="black" font-family="Arial" font-size="12px" font-weight="bold" text-anchor="middle" x="370.46875" y="318.984375">Living Room</text></g><g id="room_master_bedroom"><polygon fill="rgb(255,165,0)" fill-opacity="0.7" points="532.890625,167.109375 484.375,167.109375 482.265625,188.203125 461.171875,188.203125 461.171875,321.09375 492.8125,321.09375 494.921875,291.5625 553.984375,291.5625 553.984375,188.203125 535.0,188.203125" stroke="black" stroke-width="1.5" /><text dominant-baseline="middle" fill="black" font-family="Arial" font-size="12px" font-weight="bold" text-anchor="middle" x="508.6328125" y="245.15625">Master Bedroom</text></g><g id="room_common_room_2"><polygon fill="rgb(255,215,0)" fill-opacity="0.7" points="389.453125,167.109375 391.5625,186.09375 370.46875,188.203125 370.46875,321.09375 448.515625,321.09375 448.515625,188.203125 429.53125,186.09375 429.53125,167.109375" stroke="black" stroke-width="1.5" /><text dominant-baseline="middle" fill="black" font-family="Arial" font-size="12px" font-weight="bold" text-anchor="middle" x="410.546875" y="245.15625">Common Room 2</text></g><g id="room_common_room"><polygon fill="rgb(255,215,0)" fill-opacity="0.7" points="469.609375,371.71875 469.609375,447.65625 490.703125,447.65625 492.8125,468.75 530.78125,468.75 532.890625,447.65625 553.984375,447.65625 553.984375,371.71875" stroke="black" stroke-width="1.5" /><text dominant-baseline="middle" fill="black" font-family="Arial" font-size="12px" font-weight="bold" text-anchor="middle" x="512.8515625" y="421.2890625">Common Room</text></g><g id="room_balcony"><polygon fill="rgb(107,142,35)" fill-opacity="0.7" points="246.015625,135.46875 246.015625,175.546875 357.8125,175.546875 357.8125,135.46875" stroke="black" stroke-width="1.5" /><text dominant-baseline="middle" fill="black" font-family="Arial" font-size="12px" font-weight="bold" text-anchor="middle" x="302.96875" y="156.5625">Balcony</text></g><g id="room_kitchen"><polygon fill="rgb(240,128,128)" fill-opacity="0.7" points="351.484375,369.609375 351.484375,447.65625 402.109375,447.65625 402.109375,371.71875" stroke="black" stroke-width="1.5" /><text dominant-baseline="middle" fill="black" font-family="Arial" font-size="12px" font-weight="bold" text-anchor="middle" x="377.8515625" y="409.6875">Kitchen</text></g><g id="room_bathroom"><polygon fill="rgb(173,216,230)" fill-opacity="0.7" points="414.765625,371.71875 414.765625,447.65625 456.953125,447.65625 456.953125,371.71875" stroke="black" stroke-width="1.5" /><text dominant-baseline="middle" fill="black" font-family="Arial" font-size="12px" font-weight="bold" text-anchor="middle" x="436.9140625" y="410.7421875">Bathroom</text></g><g id="room_bathroom_2"><polygon fill="rgb(173,216,230)" fill-opacity="0.7" points="505.46875,304.21875 505.46875,359.0625 553.984375,359.0625 553.984375,304.21875" stroke="black" stroke-width="1.5" /><text dominant-baseline="middle" fill="black" font-family="Arial" font-size="12px" font-weight="bold" text-anchor="middle" x="530.78125" y="332.6953125">Bathroom 2</text></g><rect fill="red" fill-opacity="0.9" height="10.546875" id="main_door" stroke="darkred" stroke-width="3" width="27.421875" x="246.015625" y="449.765625" /><text dominant-baseline="middle" fill="white" font-family="Arial" font-size="9px" font-weight="bold" text-anchor="middle" x="259.7265625" y="455.0390625">Main Door</text><text fill="black" font-family="Arial" font-size="18px" font-weight="bold" text-anchor="middle" x="400.0" y="30">Floor Plan - ID: 3069</text></svg>