<?xml version="1.0" encoding="utf-8" ?>
<svg baseProfile="full" height="600px" version="1.1" viewBox="0 0 800 600" width="800px" xmlns="http://www.w3.org/2000/svg" xmlns:ev="http://www.w3.org/2001/xml-events" xmlns:xlink="http://www.w3.org/1999/xlink"><defs /><rect fill="white" height="600" width="800" x="0" y="0" /><polygon fill="none" id="floor_plan_boundary" points="172.1875,179.765625 172.1875,346.40625 317.734375,346.40625 317.734375,337.96875 180.625,335.859375 182.734375,188.203125 364.140625,188.203125 366.25,152.34375 463.28125,152.34375 465.390625,194.53125 560.3125,194.53125 562.421875,308.4375 619.375,310.546875 617.265625,447.65625 547.65625,447.65625 545.546875,382.265625 372.578125,382.265625 370.46875,337.96875 347.265625,337.96875 347.265625,346.40625 362.03125,348.515625 362.03125,390.703125 535.0,390.703125 537.109375,456.09375 627.8125,456.09375 627.8125,300.0 570.859375,297.890625 570.859375,186.09375 475.9375,186.09375 473.828125,143.90625 355.703125,143.90625 353.59375,179.765625" stroke="black" stroke-linecap="butt" stroke-linejoin="miter" stroke-width="4" /><g id="room_living_room"><polygon fill="rgb(238,232,170)" fill-opacity="0.7" points="309.296875,310.546875 309.296875,335.859375 372.578125,337.96875 372.578125,380.15625 450.625,380.15625 452.734375,335.859375 535.0,335.859375 535.0,310.546875 463.28125,308.4375 463.28125,196.640625 366.25,196.640625 366.25,308.4375" stroke="black" stroke-width="1.5" /><text dominant-baseline="middle" fill="black" font-family="Arial" font-size="12px" font-weight="bold" text-anchor="middle" x="423.203125" y="289.453125">Living Room</text></g><g id="room_master_bedroom"><polygon fill="rgb(255,165,0)" fill-opacity="0.7" points="547.65625,310.546875 547.65625,445.546875 617.265625,445.546875 617.265625,310.546875" stroke="black" stroke-width="1.5" /><text dominant-baseline="middle" fill="black" font-family="Arial" font-size="12px" font-weight="bold" text-anchor="middle" x="583.515625" y="379.1015625">Master Bedroom</text></g><g id="room_balcony"><polygon fill="rgb(107,142,35)" fill-opacity="0.7" points="182.734375,335.859375 214.375,335.859375 216.484375,221.953125 353.59375,221.953125 353.59375,190.3125 182.734375,190.3125" stroke="black" stroke-width="1.5" /><text dominant-baseline="middle" fill="black" font-family="Arial" font-size="12px" font-weight="bold" text-anchor="middle" x="269.21875" y="264.140625">Balcony</text></g><g id="room_common_room_2"><polygon fill="rgb(255,215,0)" fill-opacity="0.7" points="475.9375,196.640625 475.9375,297.890625 560.3125,297.890625 560.3125,196.640625" stroke="black" stroke-width="1.5" /><text dominant-baseline="middle" fill="black" font-family="Arial" font-size="12px" font-weight="bold" text-anchor="middle" x="519.1796875" y="248.3203125">Common Room 2</text></g><g id="room_common_room"><polygon fill="rgb(255,215,0)" fill-opacity="0.7" points="227.03125,234.609375 227.03125,335.859375 296.640625,335.859375 296.640625,234.609375" stroke="black" stroke-width="1.5" /><text dominant-baseline="middle" fill="black" font-family="Arial" font-size="12px" font-weight="bold" text-anchor="middle" x="262.890625" y="286.2890625">Common Room</text></g><g id="room_balcony_2"><polygon fill="rgb(107,142,35)" fill-opacity="0.7" points="366.25,154.453125 366.25,183.984375 463.28125,183.984375 463.28125,154.453125" stroke="black" stroke-width="1.5" /><text dominant-baseline="middle" fill="black" font-family="Arial" font-size="12px" font-weight="bold" text-anchor="middle" x="415.8203125" y="170.2734375">Balcony 2</text></g><g id="room_kitchen"><polygon fill="rgb(240,128,128)" fill-opacity="0.7" points="309.296875,234.609375 309.296875,297.890625 353.59375,297.890625 353.59375,234.609375" stroke="black" stroke-width="1.5" /><text dominant-baseline="middle" fill="black" font-family="Arial" font-size="12px" font-weight="bold" text-anchor="middle" x="332.5" y="267.3046875">Kitchen</text></g><g id="room_bathroom"><polygon fill="rgb(173,216,230)" fill-opacity="0.7" points="463.28125,348.515625 463.28125,380.15625 535.0,380.15625 535.0,348.515625" stroke="black" stroke-width="1.5" /><text dominant-baseline="middle" fill="black" font-family="Arial" font-size="12px" font-weight="bold" text-anchor="middle" x="500.1953125" y="365.390625">Bathroom</text></g><rect fill="red" fill-opacity="0.9" height="10.546875" id="main_door" stroke="darkred" stroke-width="3" width="27.421875" x="319.84375" y="337.96875" /><text dominant-baseline="middle" fill="white" font-family="Arial" font-size="9px" font-weight="bold" text-anchor="middle" x="333.5546875" y="343.2421875">Main Door</text><text fill="black" font-family="Arial" font-size="18px" font-weight="bold" text-anchor="middle" x="400.0" y="30">Floor Plan - ID: 30898</text></svg>