<?xml version="1.0" encoding="utf-8" ?>
<svg baseProfile="full" height="600px" version="1.1" viewBox="0 0 800 600" width="800px" xmlns="http://www.w3.org/2000/svg" xmlns:ev="http://www.w3.org/2001/xml-events" xmlns:xlink="http://www.w3.org/1999/xlink"><defs /><rect fill="white" height="600" width="800" x="0" y="0" /><polygon fill="none" id="floor_plan_boundary" points="233.359375,110.15625 233.359375,259.921875 283.984375,259.921875 283.984375,251.484375 241.796875,249.375 243.90625,118.59375 558.203125,120.703125 556.09375,481.40625 452.734375,479.296875 452.734375,302.109375 275.546875,297.890625 275.546875,310.546875 442.1875,310.546875 444.296875,489.84375 566.640625,489.84375 566.640625,110.15625" stroke="black" stroke-linecap="butt" stroke-linejoin="miter" stroke-width="4" /><g id="room_living_room"><polygon fill="rgb(238,232,170)" fill-opacity="0.7" points="243.90625,177.65625 243.90625,249.375 286.09375,251.484375 286.09375,300.0 497.03125,300.0 497.03125,224.0625 452.734375,221.953125 452.734375,120.703125 336.71875,120.703125 334.609375,177.65625" stroke="black" stroke-width="1.5" /><text dominant-baseline="middle" fill="black" font-family="Arial" font-size="12px" font-weight="bold" text-anchor="middle" x="371.5234375" y="211.40625">Living Room</text></g><g id="room_master_bedroom"><polygon fill="rgb(255,165,0)" fill-opacity="0.7" points="454.84375,312.65625 454.84375,428.671875 556.09375,428.671875 556.09375,312.65625" stroke="black" stroke-width="1.5" /><text dominant-baseline="middle" fill="black" font-family="Arial" font-size="12px" font-weight="bold" text-anchor="middle" x="506.5234375" y="371.71875">Master Bedroom</text></g><g id="room_common_room"><polygon fill="rgb(255,215,0)" fill-opacity="0.7" points="465.390625,120.703125 465.390625,215.625 556.09375,215.625 556.09375,120.703125" stroke="black" stroke-width="1.5" /><text dominant-baseline="middle" fill="black" font-family="Arial" font-size="12px" font-weight="bold" text-anchor="middle" x="511.796875" y="169.21875">Common Room</text></g><g id="room_kitchen"><polygon fill="rgb(240,128,128)" fill-opacity="0.7" points="243.90625,120.703125 243.90625,169.21875 324.0625,169.21875 324.0625,120.703125" stroke="black" stroke-width="1.5" /><text dominant-baseline="middle" fill="black" font-family="Arial" font-size="12px" font-weight="bold" text-anchor="middle" x="285.0390625" y="146.015625">Kitchen</text></g><g id="room_balcony"><polygon fill="rgb(107,142,35)" fill-opacity="0.7" points="454.84375,441.328125 454.84375,479.296875 556.09375,479.296875 556.09375,441.328125" stroke="black" stroke-width="1.5" /><text dominant-baseline="middle" fill="black" font-family="Arial" font-size="12px" font-weight="bold" text-anchor="middle" x="506.5234375" y="461.3671875">Balcony</text></g><g id="room_bathroom"><polygon fill="rgb(173,216,230)" fill-opacity="0.7" points="505.46875,224.0625 505.46875,300.0 556.09375,300.0 556.09375,224.0625" stroke="black" stroke-width="1.5" /><text dominant-baseline="middle" fill="black" font-family="Arial" font-size="12px" font-weight="bold" text-anchor="middle" x="531.8359375" y="263.0859375">Bathroom</text></g><rect fill="red" fill-opacity="0.9" height="35.859375" id="main_door" stroke="darkred" stroke-width="3" width="10.546875" x="275.546875" y="262.03125" /><text dominant-baseline="middle" fill="white" font-family="Arial" font-size="9px" font-weight="bold" text-anchor="middle" x="280.8203125" y="279.9609375">Main Door</text><text fill="black" font-family="Arial" font-size="18px" font-weight="bold" text-anchor="middle" x="400.0" y="30">Floor Plan - ID: 31011</text></svg>