<?xml version="1.0" encoding="utf-8" ?>
<svg baseProfile="full" height="600px" version="1.1" viewBox="0 0 800 600" width="800px" xmlns="http://www.w3.org/2000/svg" xmlns:ev="http://www.w3.org/2001/xml-events" xmlns:xlink="http://www.w3.org/1999/xlink"><defs /><rect fill="white" height="600" width="800" x="0" y="0" /><polygon fill="none" id="floor_plan_boundary" points="450.625,97.5 381.015625,97.5 378.90625,118.59375 283.984375,118.59375 283.984375,196.640625 248.125,198.75 248.125,287.34375 265.0,289.453125 265.0,502.5 355.703125,502.5 357.8125,373.828125 450.625,373.828125 452.734375,340.078125 551.875,340.078125 547.65625,304.21875 545.546875,335.859375 446.40625,335.859375 444.296875,369.609375 351.484375,369.609375 351.484375,496.171875 269.21875,496.171875 269.21875,283.125 252.34375,281.015625 252.34375,205.078125 288.203125,202.96875 290.3125,122.8125 385.234375,122.8125 387.34375,101.71875 444.296875,101.71875 446.40625,177.65625 547.65625,179.765625 551.875,274.6875 551.875,173.4375 452.734375,173.4375" stroke="black" stroke-linecap="butt" stroke-linejoin="miter" stroke-width="4" /><g id="room_living_room"><polygon fill="rgb(238,232,170)" fill-opacity="0.7" points="545.546875,243.046875 490.703125,240.9375 490.703125,179.765625 452.734375,179.765625 450.625,205.078125 357.8125,205.078125 357.8125,287.34375 271.328125,289.453125 271.328125,367.5 444.296875,367.5 446.40625,333.75 545.546875,333.75" stroke="black" stroke-width="1.5" /><text dominant-baseline="middle" fill="black" font-family="Arial" font-size="12px" font-weight="bold" text-anchor="middle" x="409.4921875" y="274.6875">Living Room</text></g><g id="room_common_room"><polygon fill="rgb(255,215,0)" fill-opacity="0.7" points="254.453125,205.078125 254.453125,281.015625 349.375,281.015625 349.375,205.078125" stroke="black" stroke-width="1.5" /><text dominant-baseline="middle" fill="black" font-family="Arial" font-size="12px" font-weight="bold" text-anchor="middle" x="302.96875" y="244.1015625">Common Room</text></g><g id="room_master_bedroom"><polygon fill="rgb(255,165,0)" fill-opacity="0.7" points="271.328125,375.9375 271.328125,462.421875 349.375,462.421875 349.375,375.9375" stroke="black" stroke-width="1.5" /><text dominant-baseline="middle" fill="black" font-family="Arial" font-size="12px" font-weight="bold" text-anchor="middle" x="311.40625" y="420.234375">Master Bedroom</text></g><g id="room_common_room_2"><polygon fill="rgb(255,215,0)" fill-opacity="0.7" points="290.3125,124.921875 290.3125,196.640625 378.90625,196.640625 378.90625,124.921875" stroke="black" stroke-width="1.5" /><text dominant-baseline="middle" fill="black" font-family="Arial" font-size="12px" font-weight="bold" text-anchor="middle" x="335.6640625" y="161.8359375">Common Room 2</text></g><g id="room_kitchen"><polygon fill="rgb(240,128,128)" fill-opacity="0.7" points="387.34375,103.828125 387.34375,196.640625 444.296875,196.640625 444.296875,103.828125" stroke="black" stroke-width="1.5" /><text dominant-baseline="middle" fill="black" font-family="Arial" font-size="12px" font-weight="bold" text-anchor="middle" x="416.875" y="151.2890625">Kitchen</text></g><g id="room_bathroom"><polygon fill="rgb(173,216,230)" fill-opacity="0.7" points="499.140625,179.765625 499.140625,234.609375 545.546875,234.609375 545.546875,179.765625" stroke="black" stroke-width="1.5" /><text dominant-baseline="middle" fill="black" font-family="Arial" font-size="12px" font-weight="bold" text-anchor="middle" x="523.3984375" y="208.2421875">Bathroom</text></g><g id="room_balcony"><polygon fill="rgb(107,142,35)" fill-opacity="0.7" points="271.328125,470.859375 271.328125,496.171875 349.375,496.171875 349.375,470.859375" stroke="black" stroke-width="1.5" /><text dominant-baseline="middle" fill="black" font-family="Arial" font-size="12px" font-weight="bold" text-anchor="middle" x="311.40625" y="484.5703125">Balcony</text></g><rect fill="red" fill-opacity="0.9" height="27.421875" id="main_door" stroke="darkred" stroke-width="3" width="6.328125" x="547.65625" y="276.796875" /><text dominant-baseline="middle" fill="white" font-family="Arial" font-size="9px" font-weight="bold" text-anchor="middle" x="550.8203125" y="290.5078125">Main Door</text><text fill="black" font-family="Arial" font-size="18px" font-weight="bold" text-anchor="middle" x="400.0" y="30">Floor Plan - ID: 31100</text></svg>