<?xml version="1.0" encoding="utf-8" ?>
<svg baseProfile="full" height="600px" version="1.1" viewBox="0 0 800 600" width="800px" xmlns="http://www.w3.org/2000/svg" xmlns:ev="http://www.w3.org/2001/xml-events" xmlns:xlink="http://www.w3.org/1999/xlink"><defs /><rect fill="white" height="600" width="800" x="0" y="0" /><polygon fill="none" id="floor_plan_boundary" points="262.890625,99.609375 262.890625,194.53125 332.5,196.640625 332.5,287.34375 336.71875,190.3125 267.109375,188.203125 269.21875,103.828125 347.265625,103.828125 349.375,148.125 416.875,148.125 418.984375,167.109375 562.421875,169.21875 562.421875,494.0625 338.828125,496.171875 336.71875,441.328125 239.6875,441.328125 237.578125,331.640625 336.71875,329.53125 336.71875,316.875 330.390625,325.3125 233.359375,325.3125 233.359375,445.546875 330.390625,445.546875 332.5,500.390625 566.640625,500.390625 566.640625,162.890625 425.3125,162.890625 423.203125,143.90625 355.703125,143.90625 353.59375,99.609375" stroke="black" stroke-linecap="butt" stroke-linejoin="miter" stroke-width="4" /><g id="room_living_room"><polygon fill="rgb(238,232,170)" fill-opacity="0.7" points="338.828125,150.234375 338.828125,439.21875 452.734375,439.21875 452.734375,325.3125 482.265625,323.203125 471.71875,169.21875 418.984375,169.21875 416.875,150.234375" stroke="black" stroke-width="1.5" /><text dominant-baseline="middle" fill="black" font-family="Arial" font-size="12px" font-weight="bold" text-anchor="middle" x="411.6015625" y="295.78125">Living Room</text></g><g id="room_master_bedroom"><polygon fill="rgb(255,165,0)" fill-opacity="0.7" points="461.171875,331.640625 461.171875,494.0625 560.3125,494.0625 560.3125,359.0625 484.375,359.0625 482.265625,331.640625" stroke="black" stroke-width="1.5" /><text dominant-baseline="middle" fill="black" font-family="Arial" font-size="12px" font-weight="bold" text-anchor="middle" x="511.796875" y="413.90625">Master Bedroom</text></g><g id="room_common_room_2"><polygon fill="rgb(255,215,0)" fill-opacity="0.7" points="480.15625,169.21875 480.15625,276.796875 490.703125,278.90625 490.703125,295.78125 560.3125,295.78125 560.3125,169.21875" stroke="black" stroke-width="1.5" /><text dominant-baseline="middle" fill="black" font-family="Arial" font-size="12px" font-weight="bold" text-anchor="middle" x="521.2890625" y="233.5546875">Common Room 2</text></g><g id="room_common_room"><polygon fill="rgb(255,215,0)" fill-opacity="0.7" points="239.6875,331.640625 239.6875,439.21875 330.390625,439.21875 330.390625,331.640625" stroke="black" stroke-width="1.5" /><text dominant-baseline="middle" fill="black" font-family="Arial" font-size="12px" font-weight="bold" text-anchor="middle" x="286.09375" y="386.484375">Common Room</text></g><g id="room_kitchen"><polygon fill="rgb(240,128,128)" fill-opacity="0.7" points="269.21875,105.9375 269.21875,188.203125 330.390625,188.203125 330.390625,143.90625 347.265625,141.796875 347.265625,105.9375" stroke="black" stroke-width="1.5" /><text dominant-baseline="middle" fill="black" font-family="Arial" font-size="12px" font-weight="bold" text-anchor="middle" x="309.296875" y="148.125">Kitchen</text></g><g id="room_balcony"><polygon fill="rgb(107,142,35)" fill-opacity="0.7" points="338.828125,447.65625 338.828125,494.0625 452.734375,494.0625 452.734375,447.65625" stroke="black" stroke-width="1.5" /><text dominant-baseline="middle" fill="black" font-family="Arial" font-size="12px" font-weight="bold" text-anchor="middle" x="396.8359375" y="471.9140625">Balcony</text></g><g id="room_bathroom"><polygon fill="rgb(173,216,230)" fill-opacity="0.7" points="490.703125,304.21875 490.703125,350.625 560.3125,350.625 560.3125,304.21875" stroke="black" stroke-width="1.5" /><text dominant-baseline="middle" fill="black" font-family="Arial" font-size="12px" font-weight="bold" text-anchor="middle" x="526.5625" y="328.4765625">Bathroom</text></g><rect fill="red" fill-opacity="0.9" height="27.421875" id="main_door" stroke="darkred" stroke-width="3" width="6.328125" x="332.5" y="289.453125" /><text dominant-baseline="middle" fill="white" font-family="Arial" font-size="9px" font-weight="bold" text-anchor="middle" x="335.6640625" y="303.1640625">Main Door</text><text fill="black" font-family="Arial" font-size="18px" font-weight="bold" text-anchor="middle" x="400.0" y="30">Floor Plan - ID: 31264</text></svg>