<?xml version="1.0" encoding="utf-8" ?>
<svg baseProfile="full" height="600px" version="1.1" viewBox="0 0 800 600" width="800px" xmlns="http://www.w3.org/2000/svg" xmlns:ev="http://www.w3.org/2001/xml-events" xmlns:xlink="http://www.w3.org/1999/xlink"><defs /><rect fill="white" height="600" width="800" x="0" y="0" /><polygon fill="none" id="floor_plan_boundary" points="321.953125,105.9375 321.953125,198.75 275.546875,200.859375 275.546875,494.0625 494.921875,494.0625 494.921875,207.1875 524.453125,205.078125 524.453125,131.25 497.03125,131.25 494.921875,105.9375 446.40625,105.9375 488.59375,110.15625 490.703125,135.46875 520.234375,137.578125 520.234375,198.75 490.703125,200.859375 490.703125,487.734375 279.765625,487.734375 279.765625,207.1875 326.171875,205.078125 328.28125,110.15625 408.4375,110.15625" stroke="black" stroke-linecap="butt" stroke-linejoin="miter" stroke-width="4" /><g id="room_living_room"><polygon fill="rgb(238,232,170)" fill-opacity="0.7" points="328.28125,112.265625 328.28125,205.078125 281.875,207.1875 281.875,314.765625 425.3125,314.765625 425.3125,200.859375 446.40625,198.75 446.40625,112.265625" stroke="black" stroke-width="1.5" /><text dominant-baseline="middle" fill="black" font-family="Arial" font-size="12px" font-weight="bold" text-anchor="middle" x="365.1953125" y="214.5703125">Living Room</text></g><g id="room_common_room"><polygon fill="rgb(255,215,0)" fill-opacity="0.7" points="281.875,323.203125 281.875,441.328125 385.234375,441.328125 385.234375,323.203125" stroke="black" stroke-width="1.5" /><text dominant-baseline="middle" fill="black" font-family="Arial" font-size="12px" font-weight="bold" text-anchor="middle" x="334.609375" y="383.3203125">Common Room</text></g><g id="room_master_bedroom"><polygon fill="rgb(255,165,0)" fill-opacity="0.7" points="393.671875,323.203125 393.671875,441.328125 488.59375,441.328125 488.59375,323.203125" stroke="black" stroke-width="1.5" /><text dominant-baseline="middle" fill="black" font-family="Arial" font-size="12px" font-weight="bold" text-anchor="middle" x="442.1875" y="383.3203125">Master Bedroom</text></g><g id="room_balcony"><polygon fill="rgb(107,142,35)" fill-opacity="0.7" points="281.875,449.765625 281.875,487.734375 488.59375,487.734375 488.59375,449.765625" stroke="black" stroke-width="1.5" /><text dominant-baseline="middle" fill="black" font-family="Arial" font-size="12px" font-weight="bold" text-anchor="middle" x="386.2890625" y="469.8046875">Balcony</text></g><g id="room_bathroom"><polygon fill="rgb(173,216,230)" fill-opacity="0.7" points="433.75,207.1875 433.75,314.765625 488.59375,314.765625 488.59375,207.1875" stroke="black" stroke-width="1.5" /><text dominant-baseline="middle" fill="black" font-family="Arial" font-size="12px" font-weight="bold" text-anchor="middle" x="462.2265625" y="262.03125">Bathroom</text></g><g id="room_kitchen"><polygon fill="rgb(240,128,128)" fill-opacity="0.7" points="454.84375,112.265625 454.84375,198.75 518.125,198.75 518.125,137.578125 490.703125,137.578125 488.59375,112.265625" stroke="black" stroke-width="1.5" /><text dominant-baseline="middle" fill="black" font-family="Arial" font-size="12px" font-weight="bold" text-anchor="middle" x="487.5390625" y="156.5625">Kitchen</text></g><rect fill="red" fill-opacity="0.9" height="6.328125" id="main_door" stroke="darkred" stroke-width="3" width="35.859375" x="410.546875" y="105.9375" /><text dominant-baseline="middle" fill="white" font-family="Arial" font-size="9px" font-weight="bold" text-anchor="middle" x="428.4765625" y="109.1015625">Main Door</text><text fill="black" font-family="Arial" font-size="18px" font-weight="bold" text-anchor="middle" x="400.0" y="30">Floor Plan - ID: 3136</text></svg>