<?xml version="1.0" encoding="utf-8" ?>
<svg baseProfile="full" height="600px" version="1.1" viewBox="0 0 800 600" width="800px" xmlns="http://www.w3.org/2000/svg" xmlns:ev="http://www.w3.org/2001/xml-events" xmlns:xlink="http://www.w3.org/1999/xlink"><defs /><rect fill="white" height="600" width="800" x="0" y="0" /><polygon fill="none" id="floor_plan_boundary" points="488.59375,114.375 391.5625,114.375 389.453125,167.109375 271.328125,167.109375 271.328125,462.421875 296.640625,462.421875 298.75,485.625 395.78125,485.625 397.890625,468.75 507.578125,468.75 507.578125,439.21875 528.671875,437.109375 528.671875,167.109375 522.34375,167.109375 524.453125,430.78125 503.359375,432.890625 503.359375,462.421875 391.5625,464.53125 389.453125,481.40625 305.078125,481.40625 302.96875,458.203125 275.546875,456.09375 275.546875,173.4375 395.78125,171.328125 397.890625,118.59375 482.265625,118.59375 484.375,171.328125 492.8125,171.328125" stroke="black" stroke-linecap="butt" stroke-linejoin="miter" stroke-width="4" /><g id="room_living_room"><polygon fill="rgb(238,232,170)" fill-opacity="0.7" points="522.34375,173.4375 490.703125,173.4375 488.59375,207.1875 397.890625,207.1875 397.890625,276.796875 362.03125,278.90625 362.03125,327.421875 397.890625,329.53125 397.890625,462.421875 501.25,462.421875 501.25,432.890625 522.34375,430.78125" stroke="black" stroke-width="1.5" /><text dominant-baseline="middle" fill="black" font-family="Arial" font-size="12px" font-weight="bold" text-anchor="middle" x="443.2421875" y="318.984375">Living Room</text></g><g id="room_master_bedroom"><polygon fill="rgb(255,165,0)" fill-opacity="0.7" points="389.453125,335.859375 362.03125,335.859375 359.921875,346.40625 277.65625,346.40625 277.65625,456.09375 302.96875,456.09375 305.078125,479.296875 389.453125,479.296875" stroke="black" stroke-width="1.5" /><text dominant-baseline="middle" fill="black" font-family="Arial" font-size="12px" font-weight="bold" text-anchor="middle" x="334.609375" y="408.6328125">Master Bedroom</text></g><g id="room_common_room"><polygon fill="rgb(255,215,0)" fill-opacity="0.7" points="277.65625,173.4375 277.65625,270.46875 389.453125,270.46875 389.453125,173.4375" stroke="black" stroke-width="1.5" /><text dominant-baseline="middle" fill="black" font-family="Arial" font-size="12px" font-weight="bold" text-anchor="middle" x="334.609375" y="223.0078125">Common Room</text></g><g id="room_kitchen"><polygon fill="rgb(240,128,128)" fill-opacity="0.7" points="397.890625,120.703125 397.890625,198.75 482.265625,198.75 482.265625,120.703125" stroke="black" stroke-width="1.5" /><text dominant-baseline="middle" fill="black" font-family="Arial" font-size="12px" font-weight="bold" text-anchor="middle" x="441.1328125" y="160.78125">Kitchen</text></g><g id="room_bathroom"><polygon fill="rgb(173,216,230)" fill-opacity="0.7" points="277.65625,278.90625 277.65625,337.96875 353.59375,337.96875 353.59375,278.90625" stroke="black" stroke-width="1.5" /><text dominant-baseline="middle" fill="black" font-family="Arial" font-size="12px" font-weight="bold" text-anchor="middle" x="316.6796875" y="309.4921875">Bathroom</text></g><rect fill="red" fill-opacity="0.9" height="6.328125" id="main_door" stroke="darkred" stroke-width="3" width="27.421875" x="494.921875" y="167.109375" /><text dominant-baseline="middle" fill="white" font-family="Arial" font-size="9px" font-weight="bold" text-anchor="middle" x="508.6328125" y="170.2734375">Main Door</text><text fill="black" font-family="Arial" font-size="18px" font-weight="bold" text-anchor="middle" x="400.0" y="30">Floor Plan - ID: 31400</text></svg>