<?xml version="1.0" encoding="utf-8" ?>
<svg baseProfile="full" height="600px" version="1.1" viewBox="0 0 800 600" width="800px" xmlns="http://www.w3.org/2000/svg" xmlns:ev="http://www.w3.org/2001/xml-events" xmlns:xlink="http://www.w3.org/1999/xlink"><defs /><rect fill="white" height="600" width="800" x="0" y="0" /><polygon fill="none" id="floor_plan_boundary" points="277.65625,143.90625 277.65625,475.078125 404.21875,475.078125 406.328125,506.71875 522.34375,506.71875 522.34375,304.21875 484.375,302.109375 484.375,234.609375 433.75,234.609375 433.75,243.046875 473.828125,243.046875 475.9375,312.65625 513.90625,314.765625 513.90625,496.171875 416.875,498.28125 414.765625,466.640625 286.09375,464.53125 286.09375,154.453125 393.671875,152.34375 395.78125,101.71875 465.390625,101.71875 467.5,162.890625 433.75,165.0 433.75,196.640625 442.1875,196.640625 444.296875,173.4375 475.9375,173.4375 475.9375,93.28125 385.234375,93.28125 383.125,143.90625" stroke="black" stroke-linecap="butt" stroke-linejoin="miter" stroke-width="4" /><g id="room_living_room"><polygon fill="rgb(238,232,170)" fill-opacity="0.7" points="395.78125,173.4375 395.78125,287.34375 353.59375,289.453125 353.59375,318.984375 395.78125,321.09375 395.78125,464.53125 511.796875,464.53125 511.796875,314.765625 473.828125,312.65625 473.828125,245.15625 433.75,245.15625 431.640625,173.4375" stroke="black" stroke-width="1.5" /><text dominant-baseline="middle" fill="black" font-family="Arial" font-size="12px" font-weight="bold" text-anchor="middle" x="433.75" y="320.0390625">Living Room</text></g><g id="room_master_bedroom"><polygon fill="rgb(255,165,0)" fill-opacity="0.7" points="383.125,327.421875 353.59375,327.421875 351.484375,348.515625 288.203125,348.515625 288.203125,464.53125 383.125,464.53125" stroke="black" stroke-width="1.5" /><text dominant-baseline="middle" fill="black" font-family="Arial" font-size="12px" font-weight="bold" text-anchor="middle" x="336.71875" y="397.03125">Master Bedroom</text></g><g id="room_common_room"><polygon fill="rgb(255,215,0)" fill-opacity="0.7" points="288.203125,154.453125 288.203125,251.484375 353.59375,251.484375 353.59375,281.015625 383.125,281.015625 383.125,154.453125" stroke="black" stroke-width="1.5" /><text dominant-baseline="middle" fill="black" font-family="Arial" font-size="12px" font-weight="bold" text-anchor="middle" x="336.71875" y="218.7890625">Common Room</text></g><g id="room_kitchen"><polygon fill="rgb(240,128,128)" fill-opacity="0.7" points="395.78125,103.828125 395.78125,165.0 465.390625,162.890625 465.390625,103.828125" stroke="black" stroke-width="1.5" /><text dominant-baseline="middle" fill="black" font-family="Arial" font-size="12px" font-weight="bold" text-anchor="middle" x="431.640625" y="135.46875">Kitchen</text></g><g id="room_bathroom"><polygon fill="rgb(173,216,230)" fill-opacity="0.7" points="288.203125,264.140625 288.203125,335.859375 345.15625,335.859375 345.15625,264.140625" stroke="black" stroke-width="1.5" /><text dominant-baseline="middle" fill="black" font-family="Arial" font-size="12px" font-weight="bold" text-anchor="middle" x="317.734375" y="301.0546875">Bathroom</text></g><g id="room_balcony"><polygon fill="rgb(107,142,35)" fill-opacity="0.7" points="416.875,477.1875 416.875,496.171875 511.796875,496.171875 511.796875,477.1875" stroke="black" stroke-width="1.5" /><text dominant-baseline="middle" fill="black" font-family="Arial" font-size="12px" font-weight="bold" text-anchor="middle" x="465.390625" y="487.734375">Balcony</text></g><rect fill="red" fill-opacity="0.9" height="35.859375" id="main_door" stroke="darkred" stroke-width="3" width="10.546875" x="433.75" y="198.75" /><text dominant-baseline="middle" fill="white" font-family="Arial" font-size="9px" font-weight="bold" text-anchor="middle" x="439.0234375" y="216.6796875">Main Door</text><text fill="black" font-family="Arial" font-size="18px" font-weight="bold" text-anchor="middle" x="400.0" y="30">Floor Plan - ID: 31718</text></svg>