<?xml version="1.0" encoding="utf-8" ?>
<svg baseProfile="full" height="600px" version="1.1" viewBox="0 0 800 600" width="800px" xmlns="http://www.w3.org/2000/svg" xmlns:ev="http://www.w3.org/2001/xml-events" xmlns:xlink="http://www.w3.org/1999/xlink"><defs /><rect fill="white" height="600" width="800" x="0" y="0" /><polygon fill="none" id="floor_plan_boundary" points="224.921875,175.546875 224.921875,281.015625 269.21875,283.125 269.21875,447.65625 425.3125,447.65625 427.421875,418.125 551.875,418.125 551.875,228.28125 575.078125,226.171875 575.078125,173.4375 494.921875,173.4375 492.8125,162.890625 456.953125,162.890625 454.84375,152.34375 381.015625,152.34375 448.515625,156.5625 450.625,167.109375 486.484375,167.109375 488.59375,177.65625 570.859375,179.765625 570.859375,219.84375 547.65625,221.953125 547.65625,411.796875 421.09375,413.90625 418.984375,443.4375 273.4375,441.328125 273.4375,276.796875 229.140625,274.6875 229.140625,181.875 349.375,179.765625 345.15625,152.34375 343.046875,175.546875" stroke="black" stroke-linecap="butt" stroke-linejoin="miter" stroke-width="4" /><g id="room_living_room"><polygon fill="rgb(238,232,170)" fill-opacity="0.7" points="448.515625,158.671875 351.484375,158.671875 351.484375,281.015625 275.546875,283.125 275.546875,411.796875 418.984375,411.796875 418.984375,276.796875 467.5,274.6875 467.5,228.28125 448.515625,226.171875" stroke="black" stroke-width="1.5" /><text dominant-baseline="middle" fill="black" font-family="Arial" font-size="12px" font-weight="bold" text-anchor="middle" x="372.578125" y="286.2890625">Living Room</text></g><g id="room_master_bedroom"><polygon fill="rgb(255,165,0)" fill-opacity="0.7" points="427.421875,283.125 427.421875,411.796875 545.546875,411.796875 545.546875,283.125" stroke="black" stroke-width="1.5" /><text dominant-baseline="middle" fill="black" font-family="Arial" font-size="12px" font-weight="bold" text-anchor="middle" x="487.5390625" y="348.515625">Master Bedroom</text></g><g id="room_common_room"><polygon fill="rgb(255,215,0)" fill-opacity="0.7" points="231.25,181.875 231.25,274.6875 343.046875,274.6875 343.046875,181.875" stroke="black" stroke-width="1.5" /><text dominant-baseline="middle" fill="black" font-family="Arial" font-size="12px" font-weight="bold" text-anchor="middle" x="288.203125" y="229.3359375">Common Room</text></g><g id="room_kitchen"><polygon fill="rgb(240,128,128)" fill-opacity="0.7" points="456.953125,169.21875 456.953125,219.84375 568.75,219.84375 568.75,179.765625 490.703125,181.875 486.484375,169.21875" stroke="black" stroke-width="1.5" /><text dominant-baseline="middle" fill="black" font-family="Arial" font-size="12px" font-weight="bold" text-anchor="middle" x="513.90625" y="195.5859375">Kitchen</text></g><g id="room_bathroom"><polygon fill="rgb(173,216,230)" fill-opacity="0.7" points="475.9375,228.28125 475.9375,274.6875 545.546875,274.6875 545.546875,228.28125" stroke="black" stroke-width="1.5" /><text dominant-baseline="middle" fill="black" font-family="Arial" font-size="12px" font-weight="bold" text-anchor="middle" x="511.796875" y="252.5390625">Bathroom</text></g><g id="room_balcony"><polygon fill="rgb(107,142,35)" fill-opacity="0.7" points="275.546875,420.234375 275.546875,441.328125 418.984375,441.328125 418.984375,420.234375" stroke="black" stroke-width="1.5" /><text dominant-baseline="middle" fill="black" font-family="Arial" font-size="12px" font-weight="bold" text-anchor="middle" x="348.3203125" y="431.8359375">Balcony</text></g><rect fill="red" fill-opacity="0.9" height="6.328125" id="main_door" stroke="darkred" stroke-width="3" width="31.640625" x="349.375" y="152.34375" /><text dominant-baseline="middle" fill="white" font-family="Arial" font-size="9px" font-weight="bold" text-anchor="middle" x="365.1953125" y="155.5078125">Main Door</text><text fill="black" font-family="Arial" font-size="18px" font-weight="bold" text-anchor="middle" x="400.0" y="30">Floor Plan - ID: 31889</text></svg>