<?xml version="1.0" encoding="utf-8" ?>
<svg baseProfile="full" height="600px" version="1.1" viewBox="0 0 800 600" width="800px" xmlns="http://www.w3.org/2000/svg" xmlns:ev="http://www.w3.org/2001/xml-events" xmlns:xlink="http://www.w3.org/1999/xlink"><defs /><rect fill="white" height="600" width="800" x="0" y="0" /><polygon fill="none" id="floor_plan_boundary" points="254.453125,152.34375 254.453125,289.453125 296.640625,291.5625 296.640625,447.65625 410.546875,447.65625 412.65625,411.796875 520.234375,411.796875 520.234375,268.359375 545.546875,266.25 545.546875,152.34375 427.421875,152.34375 423.203125,171.328125 431.640625,171.328125 433.75,156.5625 539.21875,156.5625 541.328125,259.921875 516.015625,262.03125 516.015625,405.46875 406.328125,407.578125 404.21875,443.4375 300.859375,441.328125 300.859375,285.234375 258.671875,283.125 260.78125,156.5625 374.6875,156.5625 376.796875,171.328125 389.453125,167.109375 381.015625,165.0 381.015625,152.34375" stroke="black" stroke-linecap="butt" stroke-linejoin="miter" stroke-width="4" /><g id="room_living_room"><polygon fill="rgb(238,232,170)" fill-opacity="0.7" points="425.3125,173.4375 376.796875,173.4375 374.6875,158.671875 357.8125,158.671875 357.8125,266.25 302.96875,268.359375 302.96875,384.375 404.21875,384.375 404.21875,262.03125 459.0625,259.921875 459.0625,207.1875 427.421875,207.1875" stroke="black" stroke-width="1.5" /><text dominant-baseline="middle" fill="black" font-family="Arial" font-size="12px" font-weight="bold" text-anchor="middle" x="382.0703125" y="272.578125">Living Room</text></g><g id="room_master_bedroom"><polygon fill="rgb(255,165,0)" fill-opacity="0.7" points="412.65625,268.359375 412.65625,405.46875 513.90625,405.46875 513.90625,268.359375" stroke="black" stroke-width="1.5" /><text dominant-baseline="middle" fill="black" font-family="Arial" font-size="12px" font-weight="bold" text-anchor="middle" x="464.3359375" y="337.96875">Master Bedroom</text></g><g id="room_common_room"><polygon fill="rgb(255,215,0)" fill-opacity="0.7" points="260.78125,158.671875 260.78125,283.125 294.53125,283.125 296.640625,259.921875 349.375,259.921875 349.375,158.671875" stroke="black" stroke-width="1.5" /><text dominant-baseline="middle" fill="black" font-family="Arial" font-size="12px" font-weight="bold" text-anchor="middle" x="306.1328125" y="221.953125">Common Room</text></g><g id="room_kitchen"><polygon fill="rgb(240,128,128)" fill-opacity="0.7" points="433.75,158.671875 433.75,198.75 520.234375,198.75 522.34375,259.921875 539.21875,259.921875 539.21875,158.671875" stroke="black" stroke-width="1.5" /><text dominant-baseline="middle" fill="black" font-family="Arial" font-size="12px" font-weight="bold" text-anchor="middle" x="487.5390625" y="210.3515625">Kitchen</text></g><g id="room_balcony"><polygon fill="rgb(107,142,35)" fill-opacity="0.7" points="302.96875,392.8125 302.96875,441.328125 404.21875,441.328125 404.21875,392.8125" stroke="black" stroke-width="1.5" /><text dominant-baseline="middle" fill="black" font-family="Arial" font-size="12px" font-weight="bold" text-anchor="middle" x="354.6484375" y="418.125">Balcony</text></g><g id="room_bathroom"><polygon fill="rgb(173,216,230)" fill-opacity="0.7" points="467.5,207.1875 467.5,259.921875 513.90625,259.921875 513.90625,207.1875" stroke="black" stroke-width="1.5" /><text dominant-baseline="middle" fill="black" font-family="Arial" font-size="12px" font-weight="bold" text-anchor="middle" x="491.7578125" y="234.609375">Bathroom</text></g><rect fill="red" fill-opacity="0.9" height="6.328125" id="main_door" stroke="darkred" stroke-width="3" width="31.640625" x="391.5625" y="167.109375" /><text dominant-baseline="middle" fill="white" font-family="Arial" font-size="9px" font-weight="bold" text-anchor="middle" x="407.3828125" y="170.2734375">Main Door</text><text fill="black" font-family="Arial" font-size="18px" font-weight="bold" text-anchor="middle" x="400.0" y="30">Floor Plan - ID: 31917</text></svg>