<?xml version="1.0" encoding="utf-8" ?>
<svg baseProfile="full" height="600px" version="1.1" viewBox="0 0 800 600" width="800px" xmlns="http://www.w3.org/2000/svg" xmlns:ev="http://www.w3.org/2001/xml-events" xmlns:xlink="http://www.w3.org/1999/xlink"><defs /><rect fill="white" height="600" width="800" x="0" y="0" /><polygon fill="none" id="floor_plan_boundary" points="231.25,135.46875 231.25,249.375 265.0,253.59375 265.0,245.15625 235.46875,243.046875 237.578125,139.6875 349.375,139.6875 351.484375,114.375 564.53125,116.484375 562.421875,485.625 309.296875,485.625 307.1875,312.65625 267.109375,312.65625 260.78125,291.5625 260.78125,316.875 302.96875,318.984375 302.96875,489.84375 568.75,489.84375 568.75,110.15625 345.15625,110.15625 343.046875,135.46875" stroke="black" stroke-linecap="butt" stroke-linejoin="miter" stroke-width="4" /><g id="room_living_room"><polygon fill="rgb(238,232,170)" fill-opacity="0.7" points="351.484375,192.421875 349.375,251.484375 267.109375,251.484375 267.109375,310.546875 309.296875,312.65625 309.296875,439.21875 437.96875,439.21875 437.96875,340.078125 480.15625,337.96875 480.15625,274.6875 437.96875,272.578125 437.96875,192.421875" stroke="black" stroke-width="1.5" /><text dominant-baseline="middle" fill="black" font-family="Arial" font-size="12px" font-weight="bold" text-anchor="middle" x="374.6875" y="316.875">Living Room</text></g><g id="room_master_bedroom"><polygon fill="rgb(255,165,0)" fill-opacity="0.7" points="446.40625,116.484375 446.40625,266.25 562.421875,266.25 562.421875,116.484375" stroke="black" stroke-width="1.5" /><text dominant-baseline="middle" fill="black" font-family="Arial" font-size="12px" font-weight="bold" text-anchor="middle" x="505.46875" y="192.421875">Master Bedroom</text></g><g id="room_common_room"><polygon fill="rgb(255,215,0)" fill-opacity="0.7" points="446.40625,346.40625 446.40625,483.515625 562.421875,483.515625 562.421875,346.40625" stroke="black" stroke-width="1.5" /><text dominant-baseline="middle" fill="black" font-family="Arial" font-size="12px" font-weight="bold" text-anchor="middle" x="505.46875" y="416.015625">Common Room</text></g><g id="room_common_room_2"><polygon fill="rgb(255,215,0)" fill-opacity="0.7" points="237.578125,141.796875 237.578125,243.046875 343.046875,243.046875 343.046875,141.796875" stroke="black" stroke-width="1.5" /><text dominant-baseline="middle" fill="black" font-family="Arial" font-size="12px" font-weight="bold" text-anchor="middle" x="291.3671875" y="193.4765625">Common Room 2</text></g><g id="room_kitchen"><polygon fill="rgb(240,128,128)" fill-opacity="0.7" points="351.484375,116.484375 351.484375,183.984375 437.96875,183.984375 437.96875,116.484375" stroke="black" stroke-width="1.5" /><text dominant-baseline="middle" fill="black" font-family="Arial" font-size="12px" font-weight="bold" text-anchor="middle" x="395.78125" y="151.2890625">Kitchen</text></g><g id="room_bathroom"><polygon fill="rgb(173,216,230)" fill-opacity="0.7" points="488.59375,274.6875 488.59375,337.96875 562.421875,337.96875 562.421875,274.6875" stroke="black" stroke-width="1.5" /><text dominant-baseline="middle" fill="black" font-family="Arial" font-size="12px" font-weight="bold" text-anchor="middle" x="526.5625" y="307.3828125">Bathroom</text></g><g id="room_balcony"><polygon fill="rgb(107,142,35)" fill-opacity="0.7" points="309.296875,447.65625 309.296875,483.515625 437.96875,483.515625 437.96875,447.65625" stroke="black" stroke-width="1.5" /><text dominant-baseline="middle" fill="black" font-family="Arial" font-size="12px" font-weight="bold" text-anchor="middle" x="374.6875" y="466.640625">Balcony</text></g><rect fill="red" fill-opacity="0.9" height="35.859375" id="main_door" stroke="darkred" stroke-width="3" width="6.328125" x="260.78125" y="255.703125" /><text dominant-baseline="middle" fill="white" font-family="Arial" font-size="9px" font-weight="bold" text-anchor="middle" x="263.9453125" y="273.6328125">Main Door</text><text fill="black" font-family="Arial" font-size="18px" font-weight="bold" text-anchor="middle" x="400.0" y="30">Floor Plan - ID: 3199</text></svg>