<?xml version="1.0" encoding="utf-8" ?>
<svg baseProfile="full" height="600px" version="1.1" viewBox="0 0 800 600" width="800px" xmlns="http://www.w3.org/2000/svg" xmlns:ev="http://www.w3.org/2001/xml-events" xmlns:xlink="http://www.w3.org/1999/xlink"><defs /><rect fill="white" height="600" width="800" x="0" y="0" /><polygon fill="none" id="floor_plan_boundary" points="199.609375,175.546875 199.609375,405.46875 305.078125,405.46875 307.1875,424.453125 545.546875,424.453125 547.65625,405.46875 600.390625,405.46875 600.390625,228.28125 594.0625,401.25 541.328125,401.25 539.21875,420.234375 313.515625,420.234375 311.40625,401.25 203.828125,399.140625 205.9375,179.765625 600.390625,175.546875" stroke="black" stroke-linecap="butt" stroke-linejoin="miter" stroke-width="4" /><g id="room_living_room"><polygon fill="rgb(238,232,170)" fill-opacity="0.7" points="313.515625,308.4375 393.671875,308.4375 395.78125,344.296875 440.078125,344.296875 442.1875,308.4375 539.21875,308.4375 539.21875,224.0625 594.0625,221.953125 594.0625,181.875 313.515625,181.875" stroke="black" stroke-width="1.5" /><text dominant-baseline="middle" fill="black" font-family="Arial" font-size="12px" font-weight="bold" text-anchor="middle" x="454.84375" y="264.140625">Living Room</text></g><g id="room_master_bedroom"><polygon fill="rgb(255,165,0)" fill-opacity="0.7" points="205.9375,181.875 205.9375,344.296875 305.078125,344.296875 305.078125,181.875" stroke="black" stroke-width="1.5" /><text dominant-baseline="middle" fill="black" font-family="Arial" font-size="12px" font-weight="bold" text-anchor="middle" x="256.5625" y="264.140625">Master Bedroom</text></g><g id="room_common_room"><polygon fill="rgb(255,215,0)" fill-opacity="0.7" points="448.515625,316.875 448.515625,418.125 539.21875,418.125 539.21875,316.875" stroke="black" stroke-width="1.5" /><text dominant-baseline="middle" fill="black" font-family="Arial" font-size="12px" font-weight="bold" text-anchor="middle" x="494.921875" y="368.5546875">Common Room</text></g><g id="room_common_room_2"><polygon fill="rgb(255,215,0)" fill-opacity="0.7" points="313.515625,316.875 313.515625,418.125 387.34375,418.125 387.34375,316.875" stroke="black" stroke-width="1.5" /><text dominant-baseline="middle" fill="black" font-family="Arial" font-size="12px" font-weight="bold" text-anchor="middle" x="351.484375" y="368.5546875">Common Room 2</text></g><g id="room_kitchen"><polygon fill="rgb(240,128,128)" fill-opacity="0.7" points="547.65625,230.390625 547.65625,340.078125 594.0625,340.078125 594.0625,230.390625" stroke="black" stroke-width="1.5" /><text dominant-baseline="middle" fill="black" font-family="Arial" font-size="12px" font-weight="bold" text-anchor="middle" x="571.9140625" y="286.2890625">Kitchen</text></g><g id="room_bathroom_2"><polygon fill="rgb(173,216,230)" fill-opacity="0.7" points="205.9375,352.734375 205.9375,399.140625 305.078125,399.140625 305.078125,352.734375" stroke="black" stroke-width="1.5" /><text dominant-baseline="middle" fill="black" font-family="Arial" font-size="12px" font-weight="bold" text-anchor="middle" x="256.5625" y="376.9921875">Bathroom 2</text></g><g id="room_bathroom"><polygon fill="rgb(173,216,230)" fill-opacity="0.7" points="395.78125,352.734375 395.78125,418.125 440.078125,418.125 440.078125,352.734375" stroke="black" stroke-width="1.5" /><text dominant-baseline="middle" fill="black" font-family="Arial" font-size="12px" font-weight="bold" text-anchor="middle" x="418.984375" y="386.484375">Bathroom</text></g><g id="room_room_8"><polygon fill="rgb(221,160,221)" fill-opacity="0.7" points="547.65625,348.515625 547.65625,399.140625 594.0625,399.140625 594.0625,348.515625" stroke="black" stroke-width="1.5" /><text dominant-baseline="middle" fill="black" font-family="Arial" font-size="12px" font-weight="bold" text-anchor="middle" x="571.9140625" y="374.8828125">Room 8</text></g><rect fill="red" fill-opacity="0.9" height="48.515625" id="main_door" stroke="darkred" stroke-width="3" width="6.328125" x="596.171875" y="179.765625" /><text dominant-baseline="middle" fill="white" font-family="Arial" font-size="9px" font-weight="bold" text-anchor="middle" x="599.3359375" y="204.0234375">Main Door</text><text fill="black" font-family="Arial" font-size="18px" font-weight="bold" text-anchor="middle" x="400.0" y="30">Floor Plan - ID: 32076</text></svg>