<?xml version="1.0" encoding="utf-8" ?>
<svg baseProfile="full" height="600px" version="1.1" viewBox="0 0 800 600" width="800px" xmlns="http://www.w3.org/2000/svg" xmlns:ev="http://www.w3.org/2001/xml-events" xmlns:xlink="http://www.w3.org/1999/xlink"><defs /><rect fill="white" height="600" width="800" x="0" y="0" /><polygon fill="none" id="floor_plan_boundary" points="283.984375,86.953125 283.984375,183.984375 309.296875,188.203125 309.296875,175.546875 292.421875,173.4375 294.53125,95.390625 507.578125,97.5 507.578125,487.734375 400.0,489.84375 397.890625,506.71875 309.296875,504.609375 309.296875,226.171875 300.859375,226.171875 300.859375,515.15625 408.4375,515.15625 410.546875,498.28125 516.015625,498.28125 516.015625,86.953125" stroke="black" stroke-linecap="butt" stroke-linejoin="miter" stroke-width="4" /><g id="room_living_room"><polygon fill="rgb(238,232,170)" fill-opacity="0.7" points="355.703125,97.5 355.703125,181.875 311.40625,183.984375 311.40625,245.15625 366.25,247.265625 364.140625,350.625 400.0,350.625 402.109375,297.890625 505.46875,297.890625 505.46875,186.09375 431.640625,186.09375 429.53125,97.5" stroke="black" stroke-width="1.5" /><text dominant-baseline="middle" fill="black" font-family="Arial" font-size="12px" font-weight="bold" text-anchor="middle" x="409.4921875" y="225.1171875">Living Room</text></g><g id="room_master_bedroom"><polygon fill="rgb(255,165,0)" fill-opacity="0.7" points="408.4375,306.328125 410.546875,487.734375 505.46875,487.734375 505.46875,371.71875 442.1875,371.71875 440.078125,306.328125" stroke="black" stroke-width="1.5" /><text dominant-baseline="middle" fill="black" font-family="Arial" font-size="12px" font-weight="bold" text-anchor="middle" x="458.0078125" y="398.0859375">Master Bedroom</text></g><g id="room_common_room"><polygon fill="rgb(255,215,0)" fill-opacity="0.7" points="311.40625,340.078125 311.40625,456.09375 400.0,456.09375 400.0,359.0625 357.8125,359.0625 355.703125,340.078125" stroke="black" stroke-width="1.5" /><text dominant-baseline="middle" fill="black" font-family="Arial" font-size="12px" font-weight="bold" text-anchor="middle" x="356.7578125" y="399.140625">Common Room</text></g><g id="room_common_room_2"><polygon fill="rgb(255,215,0)" fill-opacity="0.7" points="437.96875,97.5 437.96875,177.65625 505.46875,177.65625 505.46875,97.5" stroke="black" stroke-width="1.5" /><text dominant-baseline="middle" fill="black" font-family="Arial" font-size="12px" font-weight="bold" text-anchor="middle" x="472.7734375" y="138.6328125">Common Room 2</text></g><g id="room_kitchen"><polygon fill="rgb(240,128,128)" fill-opacity="0.7" points="294.53125,97.5 294.53125,173.4375 347.265625,175.546875 347.265625,97.5" stroke="black" stroke-width="1.5" /><text dominant-baseline="middle" fill="black" font-family="Arial" font-size="12px" font-weight="bold" text-anchor="middle" x="321.953125" y="137.578125">Kitchen</text></g><g id="room_bathroom_2"><polygon fill="rgb(173,216,230)" fill-opacity="0.7" points="311.40625,257.8125 311.40625,331.640625 355.703125,331.640625 355.703125,257.8125" stroke="black" stroke-width="1.5" /><text dominant-baseline="middle" fill="black" font-family="Arial" font-size="12px" font-weight="bold" text-anchor="middle" x="334.609375" y="295.78125">Bathroom 2</text></g><g id="room_bathroom"><polygon fill="rgb(173,216,230)" fill-opacity="0.7" points="448.515625,306.328125 448.515625,363.28125 505.46875,363.28125 505.46875,306.328125" stroke="black" stroke-width="1.5" /><text dominant-baseline="middle" fill="black" font-family="Arial" font-size="12px" font-weight="bold" text-anchor="middle" x="478.046875" y="335.859375">Bathroom</text></g><g id="room_balcony"><polygon fill="rgb(107,142,35)" fill-opacity="0.7" points="311.40625,468.75 311.40625,504.609375 397.890625,504.609375 397.890625,468.75" stroke="black" stroke-width="1.5" /><text dominant-baseline="middle" fill="black" font-family="Arial" font-size="12px" font-weight="bold" text-anchor="middle" x="355.703125" y="487.734375">Balcony</text></g><rect fill="red" fill-opacity="0.9" height="35.859375" id="main_door" stroke="darkred" stroke-width="3" width="10.546875" x="300.859375" y="190.3125" /><text dominant-baseline="middle" fill="white" font-family="Arial" font-size="9px" font-weight="bold" text-anchor="middle" x="306.1328125" y="208.2421875">Main Door</text><text fill="black" font-family="Arial" font-size="18px" font-weight="bold" text-anchor="middle" x="400.0" y="30">Floor Plan - ID: 32806</text></svg>