<?xml version="1.0" encoding="utf-8" ?>
<svg baseProfile="full" height="600px" version="1.1" viewBox="0 0 800 600" width="800px" xmlns="http://www.w3.org/2000/svg" xmlns:ev="http://www.w3.org/2001/xml-events" xmlns:xlink="http://www.w3.org/1999/xlink"><defs /><rect fill="white" height="600" width="800" x="0" y="0" /><polygon fill="none" id="floor_plan_boundary" points="610.9375,105.9375 208.046875,105.9375 208.046875,243.046875 189.0625,245.15625 189.0625,475.078125 302.96875,475.078125 305.078125,494.0625 408.4375,494.0625 408.4375,308.4375 545.546875,306.328125 535.0,297.890625 400.0,297.890625 397.890625,485.625 315.625,485.625 313.515625,466.640625 199.609375,466.640625 197.5,255.703125 216.484375,253.59375 218.59375,114.375 600.390625,114.375 602.5,243.046875 537.109375,245.15625 537.109375,253.59375 610.9375,253.59375" stroke="black" stroke-linecap="butt" stroke-linejoin="miter" stroke-width="4" /><g id="room_living_room"><polygon fill="rgb(238,232,170)" fill-opacity="0.7" points="315.625,116.484375 315.625,253.59375 271.328125,255.703125 271.328125,316.875 302.96875,316.875 305.078125,295.78125 535.0,295.78125 535.0,156.5625 440.078125,156.5625 437.96875,116.484375" stroke="black" stroke-width="1.5" /><text dominant-baseline="middle" fill="black" font-family="Arial" font-size="12px" font-weight="bold" text-anchor="middle" x="404.21875" y="217.734375">Living Room</text></g><g id="room_master_bedroom"><polygon fill="rgb(255,165,0)" fill-opacity="0.7" points="199.609375,329.53125 199.609375,464.53125 302.96875,464.53125 302.96875,329.53125" stroke="black" stroke-width="1.5" /><text dominant-baseline="middle" fill="black" font-family="Arial" font-size="12px" font-weight="bold" text-anchor="middle" x="252.34375" y="398.0859375">Master Bedroom</text></g><g id="room_common_room_2"><polygon fill="rgb(255,215,0)" fill-opacity="0.7" points="218.59375,116.484375 218.59375,243.046875 302.96875,243.046875 302.96875,116.484375" stroke="black" stroke-width="1.5" /><text dominant-baseline="middle" fill="black" font-family="Arial" font-size="12px" font-weight="bold" text-anchor="middle" x="261.8359375" y="180.8203125">Common Room 2</text></g><g id="room_common_room"><polygon fill="rgb(255,215,0)" fill-opacity="0.7" points="315.625,308.4375 315.625,428.671875 397.890625,428.671875 397.890625,308.4375" stroke="black" stroke-width="1.5" /><text dominant-baseline="middle" fill="black" font-family="Arial" font-size="12px" font-weight="bold" text-anchor="middle" x="357.8125" y="369.609375">Common Room</text></g><g id="room_kitchen"><polygon fill="rgb(240,128,128)" fill-opacity="0.7" points="547.65625,116.484375 547.65625,243.046875 600.390625,243.046875 600.390625,116.484375" stroke="black" stroke-width="1.5" /><text dominant-baseline="middle" fill="black" font-family="Arial" font-size="12px" font-weight="bold" text-anchor="middle" x="575.078125" y="180.8203125">Kitchen</text></g><g id="room_bathroom"><polygon fill="rgb(173,216,230)" fill-opacity="0.7" points="199.609375,255.703125 199.609375,316.875 262.890625,316.875 262.890625,255.703125" stroke="black" stroke-width="1.5" /><text dominant-baseline="middle" fill="black" font-family="Arial" font-size="12px" font-weight="bold" text-anchor="middle" x="232.3046875" y="287.34375">Bathroom</text></g><g id="room_balcony"><polygon fill="rgb(107,142,35)" fill-opacity="0.7" points="315.625,441.328125 315.625,483.515625 397.890625,483.515625 397.890625,441.328125" stroke="black" stroke-width="1.5" /><text dominant-baseline="middle" fill="black" font-family="Arial" font-size="12px" font-weight="bold" text-anchor="middle" x="357.8125" y="463.4765625">Balcony</text></g><g id="room_balcony_2"><polygon fill="rgb(107,142,35)" fill-opacity="0.7" points="450.625,116.484375 450.625,143.90625 535.0,143.90625 535.0,116.484375" stroke="black" stroke-width="1.5" /><text dominant-baseline="middle" fill="black" font-family="Arial" font-size="12px" font-weight="bold" text-anchor="middle" x="493.8671875" y="131.25">Balcony 2</text></g><rect fill="red" fill-opacity="0.9" height="44.296875" id="main_door" stroke="darkred" stroke-width="3" width="10.546875" x="537.109375" y="255.703125" /><text dominant-baseline="middle" fill="white" font-family="Arial" font-size="9px" font-weight="bold" text-anchor="middle" x="542.3828125" y="277.8515625">Main Door</text><text fill="black" font-family="Arial" font-size="18px" font-weight="bold" text-anchor="middle" x="400.0" y="30">Floor Plan - ID: 3282</text></svg>