<?xml version="1.0" encoding="utf-8" ?>
<svg baseProfile="full" height="600px" version="1.1" viewBox="0 0 800 600" width="800px" xmlns="http://www.w3.org/2000/svg" xmlns:ev="http://www.w3.org/2001/xml-events" xmlns:xlink="http://www.w3.org/1999/xlink"><defs /><rect fill="white" height="600" width="800" x="0" y="0" /><polygon fill="none" id="floor_plan_boundary" points="288.203125,139.6875 288.203125,359.0625 243.90625,361.171875 243.90625,460.3125 410.546875,460.3125 248.125,453.984375 248.125,367.5 292.421875,365.390625 294.53125,143.90625 513.90625,146.015625 513.90625,365.390625 551.875,367.5 551.875,453.984375 444.296875,460.3125 556.09375,460.3125 556.09375,361.171875 518.125,359.0625 518.125,139.6875" stroke="black" stroke-linecap="butt" stroke-linejoin="miter" stroke-width="4" /><g id="room_living_room"><polygon fill="rgb(238,232,170)" fill-opacity="0.7" points="511.796875,146.015625 395.78125,146.015625 395.78125,302.109375 357.8125,304.21875 357.8125,453.984375 444.296875,453.984375 444.296875,297.890625 511.796875,295.78125" stroke="black" stroke-width="1.5" /><text dominant-baseline="middle" fill="black" font-family="Arial" font-size="12px" font-weight="bold" text-anchor="middle" x="435.859375" y="301.0546875">Living Room</text></g><g id="room_master_bedroom"><polygon fill="rgb(255,165,0)" fill-opacity="0.7" points="294.53125,188.203125 294.53125,295.78125 387.34375,295.78125 387.34375,188.203125" stroke="black" stroke-width="1.5" /><text dominant-baseline="middle" fill="black" font-family="Arial" font-size="12px" font-weight="bold" text-anchor="middle" x="341.9921875" y="243.046875">Master Bedroom</text></g><g id="room_common_room_2"><polygon fill="rgb(255,215,0)" fill-opacity="0.7" points="250.234375,367.5 250.234375,453.984375 349.375,453.984375 349.375,367.5" stroke="black" stroke-width="1.5" /><text dominant-baseline="middle" fill="black" font-family="Arial" font-size="12px" font-weight="bold" text-anchor="middle" x="300.859375" y="411.796875">Common Room 2</text></g><g id="room_common_room"><polygon fill="rgb(255,215,0)" fill-opacity="0.7" points="452.734375,367.5 452.734375,453.984375 549.765625,453.984375 549.765625,367.5" stroke="black" stroke-width="1.5" /><text dominant-baseline="middle" fill="black" font-family="Arial" font-size="12px" font-weight="bold" text-anchor="middle" x="502.3046875" y="411.796875">Common Room</text></g><g id="room_kitchen"><polygon fill="rgb(240,128,128)" fill-opacity="0.7" points="452.734375,304.21875 452.734375,359.0625 511.796875,359.0625 511.796875,304.21875" stroke="black" stroke-width="1.5" /><text dominant-baseline="middle" fill="black" font-family="Arial" font-size="12px" font-weight="bold" text-anchor="middle" x="483.3203125" y="332.6953125">Kitchen</text></g><g id="room_balcony"><polygon fill="rgb(107,142,35)" fill-opacity="0.7" points="294.53125,146.015625 294.53125,179.765625 387.34375,179.765625 387.34375,146.015625" stroke="black" stroke-width="1.5" /><text dominant-baseline="middle" fill="black" font-family="Arial" font-size="12px" font-weight="bold" text-anchor="middle" x="341.9921875" y="163.9453125">Balcony</text></g><g id="room_bathroom"><polygon fill="rgb(173,216,230)" fill-opacity="0.7" points="294.53125,304.21875 294.53125,359.0625 349.375,359.0625 349.375,304.21875" stroke="black" stroke-width="1.5" /><text dominant-baseline="middle" fill="black" font-family="Arial" font-size="12px" font-weight="bold" text-anchor="middle" x="323.0078125" y="332.6953125">Bathroom</text></g><rect fill="red" fill-opacity="0.9" height="6.328125" id="main_door" stroke="darkred" stroke-width="3" width="31.640625" x="412.65625" y="456.09375" /><text dominant-baseline="middle" fill="white" font-family="Arial" font-size="9px" font-weight="bold" text-anchor="middle" x="428.4765625" y="459.2578125">Main Door</text><text fill="black" font-family="Arial" font-size="18px" font-weight="bold" text-anchor="middle" x="400.0" y="30">Floor Plan - ID: 32882</text></svg>