<?xml version="1.0" encoding="utf-8" ?>
<svg baseProfile="full" height="600px" version="1.1" viewBox="0 0 800 600" width="800px" xmlns="http://www.w3.org/2000/svg" xmlns:ev="http://www.w3.org/2001/xml-events" xmlns:xlink="http://www.w3.org/1999/xlink"><defs /><rect fill="white" height="600" width="800" x="0" y="0" /><polygon fill="none" id="floor_plan_boundary" points="307.1875,80.625 307.1875,192.421875 355.703125,192.421875 357.8125,224.0625 362.03125,188.203125 311.40625,186.09375 313.515625,84.84375 412.65625,84.84375 414.765625,131.25 509.6875,133.359375 509.6875,217.734375 528.671875,219.84375 528.671875,470.859375 387.34375,472.96875 385.234375,515.15625 273.4375,515.15625 271.328125,344.296875 302.96875,342.1875 305.078125,272.578125 362.03125,272.578125 362.03125,262.03125 298.75,268.359375 298.75,335.859375 267.109375,337.96875 267.109375,519.375 391.5625,519.375 393.671875,477.1875 532.890625,477.1875 532.890625,213.515625 513.90625,211.40625 513.90625,127.03125 421.09375,127.03125 418.984375,80.625" stroke="black" stroke-linecap="butt" stroke-linejoin="miter" stroke-width="4" /><g id="room_living_room"><polygon fill="rgb(238,232,170)" fill-opacity="0.7" points="364.140625,219.84375 364.140625,266.25 393.671875,268.359375 393.671875,333.75 359.921875,335.859375 359.921875,369.609375 393.671875,371.71875 393.671875,470.859375 526.5625,470.859375 526.5625,274.6875 433.75,274.6875 431.640625,219.84375" stroke="black" stroke-width="1.5" /><text dominant-baseline="middle" fill="black" font-family="Arial" font-size="12px" font-weight="bold" text-anchor="middle" x="444.296875" y="346.40625">Living Room</text></g><g id="room_master_bedroom"><polygon fill="rgb(255,165,0)" fill-opacity="0.7" points="385.234375,378.046875 359.921875,378.046875 357.8125,407.578125 273.4375,407.578125 273.4375,513.046875 385.234375,513.046875" stroke="black" stroke-width="1.5" /><text dominant-baseline="middle" fill="black" font-family="Arial" font-size="12px" font-weight="bold" text-anchor="middle" x="330.390625" y="446.6015625">Master Bedroom</text></g><g id="room_common_room_2"><polygon fill="rgb(255,215,0)" fill-opacity="0.7" points="313.515625,86.953125 313.515625,186.09375 362.03125,186.09375 364.140625,211.40625 395.78125,211.40625 395.78125,127.03125 412.65625,124.921875 412.65625,86.953125" stroke="black" stroke-width="1.5" /><text dominant-baseline="middle" fill="black" font-family="Arial" font-size="12px" font-weight="bold" text-anchor="middle" x="364.140625" y="150.234375">Common Room 2</text></g><g id="room_common_room"><polygon fill="rgb(255,215,0)" fill-opacity="0.7" points="404.21875,133.359375 404.21875,211.40625 507.578125,211.40625 507.578125,133.359375" stroke="black" stroke-width="1.5" /><text dominant-baseline="middle" fill="black" font-family="Arial" font-size="12px" font-weight="bold" text-anchor="middle" x="456.953125" y="173.4375">Common Room</text></g><g id="room_bathroom"><polygon fill="rgb(173,216,230)" fill-opacity="0.7" points="305.078125,274.6875 305.078125,335.859375 351.484375,335.859375 353.59375,327.421875 385.234375,327.421875 385.234375,274.6875" stroke="black" stroke-width="1.5" /><text dominant-baseline="middle" fill="black" font-family="Arial" font-size="12px" font-weight="bold" text-anchor="middle" x="346.2109375" y="306.328125">Bathroom</text></g><g id="room_kitchen"><polygon fill="rgb(240,128,128)" fill-opacity="0.7" points="440.078125,219.84375 440.078125,266.25 526.5625,266.25 526.5625,219.84375" stroke="black" stroke-width="1.5" /><text dominant-baseline="middle" fill="black" font-family="Arial" font-size="12px" font-weight="bold" text-anchor="middle" x="484.375" y="244.1015625">Kitchen</text></g><rect fill="red" fill-opacity="0.9" height="35.859375" id="main_door" stroke="darkred" stroke-width="3" width="6.328125" x="357.8125" y="226.171875" /><text dominant-baseline="middle" fill="white" font-family="Arial" font-size="9px" font-weight="bold" text-anchor="middle" x="360.9765625" y="244.1015625">Main Door</text><text fill="black" font-family="Arial" font-size="18px" font-weight="bold" text-anchor="middle" x="400.0" y="30">Floor Plan - ID: 32964</text></svg>