<?xml version="1.0" encoding="utf-8" ?>
<svg baseProfile="full" height="600px" version="1.1" viewBox="0 0 800 600" width="800px" xmlns="http://www.w3.org/2000/svg" xmlns:ev="http://www.w3.org/2001/xml-events" xmlns:xlink="http://www.w3.org/1999/xlink"><defs /><rect fill="white" height="600" width="800" x="0" y="0" /><polygon fill="none" id="floor_plan_boundary" points="222.8125,200.859375 222.8125,300.0 319.84375,300.0 321.953125,375.9375 397.890625,375.9375 400.0,430.78125 494.921875,426.5625 406.328125,426.5625 404.21875,371.71875 328.28125,371.71875 326.171875,295.78125 229.140625,295.78125 227.03125,207.1875 326.171875,205.078125 328.28125,173.4375 421.09375,173.4375 423.203125,205.078125 570.859375,205.078125 572.96875,424.453125 524.453125,430.78125 577.1875,430.78125 577.1875,200.859375 429.53125,200.859375 427.421875,169.21875 321.953125,169.21875 319.84375,200.859375" stroke="black" stroke-linecap="butt" stroke-linejoin="miter" stroke-width="4" /><g id="room_living_room"><polygon fill="rgb(238,232,170)" fill-opacity="0.7" points="328.28125,276.796875 328.28125,293.671875 444.296875,293.671875 446.40625,369.609375 499.140625,371.71875 499.140625,424.453125 570.859375,424.453125 570.859375,207.1875 429.53125,207.1875 427.421875,276.796875" stroke="black" stroke-width="1.5" /><text dominant-baseline="middle" fill="black" font-family="Arial" font-size="12px" font-weight="bold" text-anchor="middle" x="450.625" y="316.875">Living Room</text></g><g id="room_master_bedroom"><polygon fill="rgb(255,165,0)" fill-opacity="0.7" points="328.28125,175.546875 328.28125,268.359375 421.09375,268.359375 421.09375,175.546875" stroke="black" stroke-width="1.5" /><text dominant-baseline="middle" fill="black" font-family="Arial" font-size="12px" font-weight="bold" text-anchor="middle" x="375.7421875" y="223.0078125">Master Bedroom</text></g><g id="room_common_room_2"><polygon fill="rgb(255,215,0)" fill-opacity="0.7" points="229.140625,207.1875 229.140625,293.671875 319.84375,293.671875 319.84375,207.1875" stroke="black" stroke-width="1.5" /><text dominant-baseline="middle" fill="black" font-family="Arial" font-size="12px" font-weight="bold" text-anchor="middle" x="275.546875" y="251.484375">Common Room 2</text></g><g id="room_common_room"><polygon fill="rgb(255,215,0)" fill-opacity="0.7" points="328.28125,302.109375 328.28125,369.609375 397.890625,369.609375 397.890625,302.109375" stroke="black" stroke-width="1.5" /><text dominant-baseline="middle" fill="black" font-family="Arial" font-size="12px" font-weight="bold" text-anchor="middle" x="364.140625" y="336.9140625">Common Room</text></g><g id="room_kitchen"><polygon fill="rgb(240,128,128)" fill-opacity="0.7" points="406.328125,378.046875 406.328125,424.453125 490.703125,424.453125 490.703125,378.046875" stroke="black" stroke-width="1.5" /><text dominant-baseline="middle" fill="black" font-family="Arial" font-size="12px" font-weight="bold" text-anchor="middle" x="449.5703125" y="402.3046875">Kitchen</text></g><g id="room_bathroom"><polygon fill="rgb(173,216,230)" fill-opacity="0.7" points="406.328125,302.109375 406.328125,369.609375 437.96875,369.609375 437.96875,302.109375" stroke="black" stroke-width="1.5" /><text dominant-baseline="middle" fill="black" font-family="Arial" font-size="12px" font-weight="bold" text-anchor="middle" x="423.203125" y="336.9140625">Bathroom</text></g><rect fill="red" fill-opacity="0.9" height="6.328125" id="main_door" stroke="darkred" stroke-width="3" width="27.421875" x="497.03125" y="426.5625" /><text dominant-baseline="middle" fill="white" font-family="Arial" font-size="9px" font-weight="bold" text-anchor="middle" x="510.7421875" y="429.7265625">Main Door</text><text fill="black" font-family="Arial" font-size="18px" font-weight="bold" text-anchor="middle" x="400.0" y="30">Floor Plan - ID: 33244</text></svg>