<?xml version="1.0" encoding="utf-8" ?>
<svg baseProfile="full" height="600px" version="1.1" viewBox="0 0 800 600" width="800px" xmlns="http://www.w3.org/2000/svg" xmlns:ev="http://www.w3.org/2001/xml-events" xmlns:xlink="http://www.w3.org/1999/xlink"><defs /><rect fill="white" height="600" width="800" x="0" y="0" /><polygon fill="none" id="floor_plan_boundary" points="262.890625,118.59375 262.890625,232.5 233.359375,234.609375 233.359375,388.59375 416.875,388.59375 418.984375,443.4375 437.96875,445.546875 437.96875,481.40625 541.328125,481.40625 541.328125,384.375 484.375,384.375 482.265625,356.953125 566.640625,354.84375 566.640625,207.1875 459.0625,207.1875 562.421875,213.515625 562.421875,348.515625 478.046875,350.625 478.046875,388.59375 537.109375,390.703125 537.109375,475.078125 444.296875,477.1875 442.1875,439.21875 423.203125,437.109375 423.203125,384.375 237.578125,382.265625 237.578125,240.9375 267.109375,238.828125 267.109375,124.921875 427.421875,122.8125 429.53125,211.40625 433.75,118.59375" stroke="black" stroke-linecap="butt" stroke-linejoin="miter" stroke-width="4" /><g id="room_living_room"><polygon fill="rgb(238,232,170)" fill-opacity="0.7" points="475.9375,213.515625 435.859375,213.515625 433.75,240.9375 239.6875,240.9375 239.6875,382.265625 475.9375,382.265625" stroke="black" stroke-width="1.5" /><text dominant-baseline="middle" fill="black" font-family="Arial" font-size="12px" font-weight="bold" text-anchor="middle" x="358.8671875" y="298.9453125">Living Room</text></g><g id="room_master_bedroom"><polygon fill="rgb(255,165,0)" fill-opacity="0.7" points="269.21875,124.921875 269.21875,232.5 427.421875,232.5 427.421875,124.921875" stroke="black" stroke-width="1.5" /><text dominant-baseline="middle" fill="black" font-family="Arial" font-size="12px" font-weight="bold" text-anchor="middle" x="349.375" y="179.765625">Master Bedroom</text></g><g id="room_common_room"><polygon fill="rgb(255,215,0)" fill-opacity="0.7" points="425.3125,390.703125 425.3125,437.109375 444.296875,439.21875 444.296875,475.078125 535.0,475.078125 535.0,390.703125" stroke="black" stroke-width="1.5" /><text dominant-baseline="middle" fill="black" font-family="Arial" font-size="12px" font-weight="bold" text-anchor="middle" x="481.2109375" y="433.9453125">Common Room</text></g><g id="room_bathroom"><polygon fill="rgb(173,216,230)" fill-opacity="0.7" points="484.375,213.515625 484.375,276.796875 560.3125,276.796875 560.3125,213.515625" stroke="black" stroke-width="1.5" /><text dominant-baseline="middle" fill="black" font-family="Arial" font-size="12px" font-weight="bold" text-anchor="middle" x="523.3984375" y="246.2109375">Bathroom</text></g><g id="room_kitchen"><polygon fill="rgb(240,128,128)" fill-opacity="0.7" points="484.375,285.234375 484.375,348.515625 560.3125,348.515625 560.3125,285.234375" stroke="black" stroke-width="1.5" /><text dominant-baseline="middle" fill="black" font-family="Arial" font-size="12px" font-weight="bold" text-anchor="middle" x="523.3984375" y="317.9296875">Kitchen</text></g><rect fill="red" fill-opacity="0.9" height="6.328125" id="main_door" stroke="darkred" stroke-width="3" width="27.421875" x="431.640625" y="207.1875" /><text dominant-baseline="middle" fill="white" font-family="Arial" font-size="9px" font-weight="bold" text-anchor="middle" x="445.3515625" y="210.3515625">Main Door</text><text fill="black" font-family="Arial" font-size="18px" font-weight="bold" text-anchor="middle" x="400.0" y="30">Floor Plan - ID: 33398</text></svg>