<?xml version="1.0" encoding="utf-8" ?>
<svg baseProfile="full" height="600px" version="1.1" viewBox="0 0 800 600" width="800px" xmlns="http://www.w3.org/2000/svg" xmlns:ev="http://www.w3.org/2001/xml-events" xmlns:xlink="http://www.w3.org/1999/xlink"><defs /><rect fill="white" height="600" width="800" x="0" y="0" /><polygon fill="none" id="floor_plan_boundary" points="195.390625,177.65625 195.390625,321.09375 277.65625,323.203125 277.65625,424.453125 366.25,424.453125 368.359375,407.578125 461.171875,407.578125 463.28125,470.859375 604.609375,470.859375 604.609375,399.140625 553.984375,394.921875 553.984375,407.578125 596.171875,409.6875 594.0625,462.421875 473.828125,462.421875 471.71875,399.140625 357.8125,399.140625 355.703125,416.015625 288.203125,416.015625 286.09375,312.65625 203.828125,310.546875 205.9375,186.09375 406.328125,186.09375 408.4375,137.578125 526.5625,137.578125 528.671875,356.953125 562.421875,356.953125 562.421875,348.515625 537.109375,346.40625 537.109375,129.140625 397.890625,129.140625 395.78125,177.65625" stroke="black" stroke-linecap="butt" stroke-linejoin="miter" stroke-width="4" /><g id="room_living_room"><polygon fill="rgb(238,232,170)" fill-opacity="0.7" points="313.515625,281.015625 315.625,312.65625 427.421875,312.65625 427.421875,397.03125 551.875,397.03125 551.875,359.0625 526.5625,356.953125 526.5625,188.203125 408.4375,188.203125 406.328125,281.015625" stroke="black" stroke-width="1.5" /><text dominant-baseline="middle" fill="black" font-family="Arial" font-size="12px" font-weight="bold" text-anchor="middle" x="433.75" y="293.671875">Living Room</text></g><g id="room_master_bedroom"><polygon fill="rgb(255,165,0)" fill-opacity="0.7" points="205.9375,188.203125 205.9375,310.546875 305.078125,310.546875 302.96875,188.203125" stroke="black" stroke-width="1.5" /><text dominant-baseline="middle" fill="black" font-family="Arial" font-size="12px" font-weight="bold" text-anchor="middle" x="256.5625" y="250.4296875">Master Bedroom</text></g><g id="room_common_room_2"><polygon fill="rgb(255,215,0)" fill-opacity="0.7" points="315.625,188.203125 315.625,268.359375 395.78125,268.359375 395.78125,188.203125" stroke="black" stroke-width="1.5" /><text dominant-baseline="middle" fill="black" font-family="Arial" font-size="12px" font-weight="bold" text-anchor="middle" x="356.7578125" y="229.3359375">Common Room 2</text></g><g id="room_common_room"><polygon fill="rgb(255,215,0)" fill-opacity="0.7" points="288.203125,323.203125 288.203125,413.90625 355.703125,413.90625 357.8125,321.09375" stroke="black" stroke-width="1.5" /><text dominant-baseline="middle" fill="black" font-family="Arial" font-size="12px" font-weight="bold" text-anchor="middle" x="324.0625" y="368.5546875">Common Room</text></g><g id="room_balcony_2"><polygon fill="rgb(107,142,35)" fill-opacity="0.7" points="408.4375,139.6875 408.4375,175.546875 526.5625,175.546875 526.5625,139.6875" stroke="black" stroke-width="1.5" /><text dominant-baseline="middle" fill="black" font-family="Arial" font-size="12px" font-weight="bold" text-anchor="middle" x="468.5546875" y="158.671875">Balcony 2</text></g><g id="room_kitchen"><polygon fill="rgb(240,128,128)" fill-opacity="0.7" points="511.796875,409.6875 511.796875,460.3125 594.0625,460.3125 594.0625,409.6875" stroke="black" stroke-width="1.5" /><text dominant-baseline="middle" fill="black" font-family="Arial" font-size="12px" font-weight="bold" text-anchor="middle" x="553.984375" y="436.0546875">Kitchen</text></g><g id="room_bathroom"><polygon fill="rgb(173,216,230)" fill-opacity="0.7" points="366.25,321.09375 366.25,397.03125 414.765625,397.03125 414.765625,323.203125" stroke="black" stroke-width="1.5" /><text dominant-baseline="middle" fill="black" font-family="Arial" font-size="12px" font-weight="bold" text-anchor="middle" x="391.5625" y="360.1171875">Bathroom</text></g><g id="room_balcony"><polygon fill="rgb(107,142,35)" fill-opacity="0.7" points="473.828125,409.6875 473.828125,460.3125 499.140625,460.3125 499.140625,409.6875" stroke="black" stroke-width="1.5" /><text dominant-baseline="middle" fill="black" font-family="Arial" font-size="12px" font-weight="bold" text-anchor="middle" x="487.5390625" y="436.0546875">Balcony</text></g><rect fill="red" fill-opacity="0.9" height="35.859375" id="main_door" stroke="darkred" stroke-width="3" width="10.546875" x="553.984375" y="359.0625" /><text dominant-baseline="middle" fill="white" font-family="Arial" font-size="9px" font-weight="bold" text-anchor="middle" x="559.2578125" y="376.9921875">Main Door</text><text fill="black" font-family="Arial" font-size="18px" font-weight="bold" text-anchor="middle" x="400.0" y="30">Floor Plan - ID: 33649</text></svg>