<?xml version="1.0" encoding="utf-8" ?>
<svg baseProfile="full" height="600px" version="1.1" viewBox="0 0 800 600" width="800px" xmlns="http://www.w3.org/2000/svg" xmlns:ev="http://www.w3.org/2001/xml-events" xmlns:xlink="http://www.w3.org/1999/xlink"><defs /><rect fill="white" height="600" width="800" x="0" y="0" /><polygon fill="none" id="floor_plan_boundary" points="562.421875,139.6875 237.578125,139.6875 237.578125,462.421875 366.25,462.421875 368.359375,293.671875 545.546875,293.671875 362.03125,289.453125 362.03125,456.09375 243.90625,458.203125 243.90625,143.90625 556.09375,143.90625 558.203125,228.28125 541.328125,230.390625 545.546875,240.9375 547.65625,234.609375 562.421875,234.609375" stroke="black" stroke-linecap="butt" stroke-linejoin="miter" stroke-width="4" /><g id="room_living_room"><polygon fill="rgb(238,232,170)" fill-opacity="0.7" points="368.359375,146.015625 368.359375,234.609375 330.390625,236.71875 330.390625,287.34375 539.21875,287.34375 539.21875,236.71875 492.8125,234.609375 492.8125,146.015625" stroke="black" stroke-width="1.5" /><text dominant-baseline="middle" fill="black" font-family="Arial" font-size="12px" font-weight="bold" text-anchor="middle" x="435.859375" y="217.734375">Living Room</text></g><g id="room_master_bedroom"><polygon fill="rgb(255,165,0)" fill-opacity="0.7" points="243.90625,289.453125 243.90625,407.578125 359.921875,407.578125 359.921875,295.78125" stroke="black" stroke-width="1.5" /><text dominant-baseline="middle" fill="black" font-family="Arial" font-size="12px" font-weight="bold" text-anchor="middle" x="302.96875" y="349.5703125">Master Bedroom</text></g><g id="room_common_room"><polygon fill="rgb(255,215,0)" fill-opacity="0.7" points="243.90625,146.015625 243.90625,228.28125 359.921875,228.28125 359.921875,146.015625" stroke="black" stroke-width="1.5" /><text dominant-baseline="middle" fill="black" font-family="Arial" font-size="12px" font-weight="bold" text-anchor="middle" x="302.96875" y="188.203125">Common Room</text></g><g id="room_balcony"><polygon fill="rgb(107,142,35)" fill-opacity="0.7" points="243.90625,416.015625 243.90625,456.09375 359.921875,456.09375 359.921875,416.015625" stroke="black" stroke-width="1.5" /><text dominant-baseline="middle" fill="black" font-family="Arial" font-size="12px" font-weight="bold" text-anchor="middle" x="302.96875" y="437.109375">Balcony</text></g><g id="room_kitchen"><polygon fill="rgb(240,128,128)" fill-opacity="0.7" points="501.25,146.015625 501.25,228.28125 556.09375,228.28125 556.09375,146.015625" stroke="black" stroke-width="1.5" /><text dominant-baseline="middle" fill="black" font-family="Arial" font-size="12px" font-weight="bold" text-anchor="middle" x="529.7265625" y="188.203125">Kitchen</text></g><g id="room_bathroom"><polygon fill="rgb(173,216,230)" fill-opacity="0.7" points="243.90625,236.71875 243.90625,281.015625 321.953125,281.015625 321.953125,236.71875" stroke="black" stroke-width="1.5" /><text dominant-baseline="middle" fill="black" font-family="Arial" font-size="12px" font-weight="bold" text-anchor="middle" x="283.984375" y="259.921875">Bathroom</text></g><rect fill="red" fill-opacity="0.9" height="48.515625" id="main_door" stroke="darkred" stroke-width="3" width="6.328125" x="541.328125" y="243.046875" /><text dominant-baseline="middle" fill="white" font-family="Arial" font-size="9px" font-weight="bold" text-anchor="middle" x="544.4921875" y="267.3046875">Main Door</text><text fill="black" font-family="Arial" font-size="18px" font-weight="bold" text-anchor="middle" x="400.0" y="30">Floor Plan - ID: 3364</text></svg>