<?xml version="1.0" encoding="utf-8" ?>
<svg baseProfile="full" height="600px" version="1.1" viewBox="0 0 800 600" width="800px" xmlns="http://www.w3.org/2000/svg" xmlns:ev="http://www.w3.org/2001/xml-events" xmlns:xlink="http://www.w3.org/1999/xlink"><defs /><rect fill="white" height="600" width="800" x="0" y="0" /><polygon fill="none" id="floor_plan_boundary" points="241.796875,97.5 241.796875,196.640625 275.546875,198.75 275.546875,192.421875 246.015625,190.3125 248.125,101.71875 351.484375,101.71875 353.59375,124.921875 431.640625,124.921875 433.75,167.109375 467.5,167.109375 469.609375,146.015625 545.546875,148.125 551.875,453.984375 440.078125,453.984375 437.96875,432.890625 416.875,432.890625 414.765625,498.28125 319.84375,498.28125 317.734375,240.9375 271.328125,236.71875 271.328125,245.15625 313.515625,247.265625 313.515625,502.5 421.09375,502.5 423.203125,437.109375 433.75,439.21875 433.75,458.203125 558.203125,458.203125 549.765625,141.796875 463.28125,141.796875 461.171875,162.890625 440.078125,162.890625 437.96875,120.703125 359.921875,120.703125 357.8125,97.5" stroke="black" stroke-linecap="butt" stroke-linejoin="miter" stroke-width="4" /><g id="room_living_room"><polygon fill="rgb(238,232,170)" fill-opacity="0.7" points="277.65625,198.75 277.65625,238.828125 319.84375,240.9375 319.84375,430.78125 431.640625,430.78125 431.640625,306.328125 482.265625,304.21875 482.265625,272.578125 431.640625,270.46875 431.640625,198.75" stroke="black" stroke-width="1.5" /><text dominant-baseline="middle" fill="black" font-family="Arial" font-size="12px" font-weight="bold" text-anchor="middle" x="381.015625" y="315.8203125">Living Room</text></g><g id="room_master_bedroom"><polygon fill="rgb(255,165,0)" fill-opacity="0.7" points="440.078125,312.65625 440.078125,451.875 551.875,451.875 551.875,293.671875 490.703125,293.671875 488.59375,312.65625" stroke="black" stroke-width="1.5" /><text dominant-baseline="middle" fill="black" font-family="Arial" font-size="12px" font-weight="bold" text-anchor="middle" x="497.03125" y="373.828125">Master Bedroom</text></g><g id="room_common_room"><polygon fill="rgb(255,215,0)" fill-opacity="0.7" points="469.609375,148.125 467.5,169.21875 440.078125,169.21875 440.078125,264.140625 488.59375,264.140625 490.703125,285.234375 543.4375,285.234375 543.4375,148.125" stroke="black" stroke-width="1.5" /><text dominant-baseline="middle" fill="black" font-family="Arial" font-size="12px" font-weight="bold" text-anchor="middle" x="492.8125" y="217.734375">Common Room</text></g><g id="room_balcony"><polygon fill="rgb(107,142,35)" fill-opacity="0.7" points="319.84375,439.21875 319.84375,496.171875 414.765625,496.171875 414.765625,439.21875" stroke="black" stroke-width="1.5" /><text dominant-baseline="middle" fill="black" font-family="Arial" font-size="12px" font-weight="bold" text-anchor="middle" x="368.359375" y="468.75">Balcony</text></g><g id="room_balcony_2"><polygon fill="rgb(107,142,35)" fill-opacity="0.7" points="359.921875,127.03125 359.921875,190.3125 431.640625,190.3125 431.640625,127.03125" stroke="black" stroke-width="1.5" /><text dominant-baseline="middle" fill="black" font-family="Arial" font-size="12px" font-weight="bold" text-anchor="middle" x="396.8359375" y="159.7265625">Balcony 2</text></g><g id="room_bathroom"><polygon fill="rgb(173,216,230)" fill-opacity="0.7" points="248.125,103.828125 248.125,190.3125 296.640625,190.3125 296.640625,103.828125" stroke="black" stroke-width="1.5" /><text dominant-baseline="middle" fill="black" font-family="Arial" font-size="12px" font-weight="bold" text-anchor="middle" x="273.4375" y="148.125">Bathroom</text></g><g id="room_kitchen"><polygon fill="rgb(240,128,128)" fill-opacity="0.7" points="305.078125,103.828125 305.078125,190.3125 351.484375,190.3125 351.484375,103.828125" stroke="black" stroke-width="1.5" /><text dominant-baseline="middle" fill="black" font-family="Arial" font-size="12px" font-weight="bold" text-anchor="middle" x="329.3359375" y="148.125">Kitchen</text></g><rect fill="red" fill-opacity="0.9" height="35.859375" id="main_door" stroke="darkred" stroke-width="3" width="6.328125" x="271.328125" y="200.859375" /><text dominant-baseline="middle" fill="white" font-family="Arial" font-size="9px" font-weight="bold" text-anchor="middle" x="274.4921875" y="218.7890625">Main Door</text><text fill="black" font-family="Arial" font-size="18px" font-weight="bold" text-anchor="middle" x="400.0" y="30">Floor Plan - ID: 33704</text></svg>