<?xml version="1.0" encoding="utf-8" ?>
<svg baseProfile="full" height="600px" version="1.1" viewBox="0 0 800 600" width="800px" xmlns="http://www.w3.org/2000/svg" xmlns:ev="http://www.w3.org/2001/xml-events" xmlns:xlink="http://www.w3.org/1999/xlink"><defs /><rect fill="white" height="600" width="800" x="0" y="0" /><polygon fill="none" id="floor_plan_boundary" points="265.0,99.609375 265.0,202.96875 309.296875,205.078125 309.296875,462.421875 429.53125,462.421875 431.640625,500.390625 535.0,500.390625 535.0,441.328125 518.125,441.328125 516.015625,426.5625 507.578125,426.5625 507.578125,449.765625 526.5625,451.875 524.453125,491.953125 442.1875,491.953125 440.078125,453.984375 317.734375,451.875 317.734375,194.53125 273.4375,192.421875 275.546875,108.046875 524.453125,108.046875 526.5625,369.609375 507.578125,371.71875 507.578125,392.8125 516.015625,392.8125 518.125,380.15625 535.0,380.15625 535.0,99.609375" stroke="black" stroke-linecap="butt" stroke-linejoin="miter" stroke-width="4" /><g id="room_living_room"><polygon fill="rgb(238,232,170)" fill-opacity="0.7" points="364.140625,205.078125 364.140625,266.25 319.84375,268.359375 319.84375,451.875 505.46875,439.21875 505.46875,382.265625 429.53125,380.15625 429.53125,259.921875 524.453125,257.8125 524.453125,205.078125" stroke="black" stroke-width="1.5" /><text dominant-baseline="middle" fill="black" font-family="Arial" font-size="12px" font-weight="bold" text-anchor="middle" x="423.203125" y="329.53125">Living Room</text></g><g id="room_master_bedroom"><polygon fill="rgb(255,165,0)" fill-opacity="0.7" points="404.21875,110.15625 404.21875,192.421875 524.453125,192.421875 524.453125,110.15625" stroke="black" stroke-width="1.5" /><text dominant-baseline="middle" fill="black" font-family="Arial" font-size="12px" font-weight="bold" text-anchor="middle" x="465.390625" y="152.34375">Master Bedroom</text></g><g id="room_common_room_2"><polygon fill="rgb(255,215,0)" fill-opacity="0.7" points="275.546875,110.15625 275.546875,192.421875 391.5625,192.421875 391.5625,110.15625" stroke="black" stroke-width="1.5" /><text dominant-baseline="middle" fill="black" font-family="Arial" font-size="12px" font-weight="bold" text-anchor="middle" x="334.609375" y="152.34375">Common Room 2</text></g><g id="room_common_room"><polygon fill="rgb(255,215,0)" fill-opacity="0.7" points="442.1875,270.46875 442.1875,369.609375 524.453125,369.609375 524.453125,270.46875" stroke="black" stroke-width="1.5" /><text dominant-baseline="middle" fill="black" font-family="Arial" font-size="12px" font-weight="bold" text-anchor="middle" x="484.375" y="321.09375">Common Room</text></g><g id="room_kitchen"><polygon fill="rgb(240,128,128)" fill-opacity="0.7" points="442.1875,451.875 442.1875,489.84375 524.453125,489.84375 524.453125,451.875" stroke="black" stroke-width="1.5" /><text dominant-baseline="middle" fill="black" font-family="Arial" font-size="12px" font-weight="bold" text-anchor="middle" x="484.375" y="471.9140625">Kitchen</text></g><g id="room_bathroom"><polygon fill="rgb(173,216,230)" fill-opacity="0.7" points="319.84375,205.078125 319.84375,259.921875 355.703125,259.921875 355.703125,205.078125" stroke="black" stroke-width="1.5" /><text dominant-baseline="middle" fill="black" font-family="Arial" font-size="12px" font-weight="bold" text-anchor="middle" x="338.828125" y="233.5546875">Bathroom</text></g><rect fill="red" fill-opacity="0.9" height="31.640625" id="main_door" stroke="darkred" stroke-width="3" width="10.546875" x="507.578125" y="394.921875" /><text dominant-baseline="middle" fill="white" font-family="Arial" font-size="9px" font-weight="bold" text-anchor="middle" x="512.8515625" y="410.7421875">Main Door</text><text fill="black" font-family="Arial" font-size="18px" font-weight="bold" text-anchor="middle" x="400.0" y="30">Floor Plan - ID: 33719</text></svg>