<?xml version="1.0" encoding="utf-8" ?>
<svg baseProfile="full" height="600px" version="1.1" viewBox="0 0 800 600" width="800px" xmlns="http://www.w3.org/2000/svg" xmlns:ev="http://www.w3.org/2001/xml-events" xmlns:xlink="http://www.w3.org/1999/xlink"><defs /><rect fill="white" height="600" width="800" x="0" y="0" /><polygon fill="none" id="floor_plan_boundary" points="275.546875,91.171875 275.546875,314.765625 294.53125,316.875 294.53125,498.28125 400.0,498.28125 402.109375,529.921875 509.6875,529.921875 509.6875,344.296875 452.734375,342.1875 452.734375,262.03125 444.296875,262.03125 444.296875,352.734375 501.25,354.84375 501.25,519.375 412.65625,521.484375 410.546875,489.84375 302.96875,487.734375 302.96875,306.328125 283.984375,304.21875 283.984375,101.71875 374.6875,99.609375 376.796875,78.515625 513.90625,78.515625 516.015625,177.65625 471.71875,179.765625 471.71875,207.1875 444.296875,209.296875 444.296875,219.84375 480.15625,217.734375 482.265625,188.203125 524.453125,188.203125 524.453125,70.078125 366.25,70.078125 364.140625,91.171875" stroke="black" stroke-linecap="butt" stroke-linejoin="miter" stroke-width="4" /><g id="room_living_room"><polygon fill="rgb(238,232,170)" fill-opacity="0.7" points="286.09375,190.3125 286.09375,304.21875 372.578125,304.21875 374.6875,363.28125 442.1875,363.28125 442.1875,209.296875 469.609375,207.1875 469.609375,190.3125" stroke="black" stroke-width="1.5" /><text dominant-baseline="middle" fill="black" font-family="Arial" font-size="12px" font-weight="bold" text-anchor="middle" x="378.90625" y="277.8515625">Living Room</text></g><g id="room_common_room"><polygon fill="rgb(255,215,0)" fill-opacity="0.7" points="305.078125,375.9375 305.078125,487.734375 400.0,487.734375 400.0,375.9375" stroke="black" stroke-width="1.5" /><text dominant-baseline="middle" fill="black" font-family="Arial" font-size="12px" font-weight="bold" text-anchor="middle" x="353.59375" y="432.890625">Common Room</text></g><g id="room_master_bedroom"><polygon fill="rgb(255,165,0)" fill-opacity="0.7" points="412.65625,375.9375 412.65625,466.640625 499.140625,466.640625 499.140625,354.84375 454.84375,354.84375 452.734375,375.9375" stroke="black" stroke-width="1.5" /><text dominant-baseline="middle" fill="black" font-family="Arial" font-size="12px" font-weight="bold" text-anchor="middle" x="456.953125" y="411.796875">Master Bedroom</text></g><g id="room_room_8"><polygon fill="rgb(218,112,214)" fill-opacity="0.7" points="376.796875,80.625 376.796875,177.65625 452.734375,177.65625 452.734375,80.625" stroke="black" stroke-width="1.5" /><text dominant-baseline="middle" fill="black" font-family="Arial" font-size="12px" font-weight="bold" text-anchor="middle" x="415.8203125" y="130.1953125">Room 8</text></g><g id="room_common_room_2"><polygon fill="rgb(255,215,0)" fill-opacity="0.7" points="286.09375,101.71875 286.09375,177.65625 364.140625,177.65625 364.140625,101.71875" stroke="black" stroke-width="1.5" /><text dominant-baseline="middle" fill="black" font-family="Arial" font-size="12px" font-weight="bold" text-anchor="middle" x="326.171875" y="140.7421875">Common Room 2</text></g><g id="room_kitchen"><polygon fill="rgb(240,128,128)" fill-opacity="0.7" points="465.390625,80.625 465.390625,177.65625 513.90625,177.65625 513.90625,80.625" stroke="black" stroke-width="1.5" /><text dominant-baseline="middle" fill="black" font-family="Arial" font-size="12px" font-weight="bold" text-anchor="middle" x="490.703125" y="130.1953125">Kitchen</text></g><g id="room_balcony"><polygon fill="rgb(107,142,35)" fill-opacity="0.7" points="412.65625,479.296875 412.65625,519.375 499.140625,519.375 499.140625,479.296875" stroke="black" stroke-width="1.5" /><text dominant-baseline="middle" fill="black" font-family="Arial" font-size="12px" font-weight="bold" text-anchor="middle" x="456.953125" y="500.390625">Balcony</text></g><g id="room_bathroom"><polygon fill="rgb(173,216,230)" fill-opacity="0.7" points="305.078125,316.875 305.078125,363.28125 366.25,363.28125 366.25,316.875" stroke="black" stroke-width="1.5" /><text dominant-baseline="middle" fill="black" font-family="Arial" font-size="12px" font-weight="bold" text-anchor="middle" x="336.71875" y="341.1328125">Bathroom</text></g><rect fill="red" fill-opacity="0.9" height="40.078125" id="main_door" stroke="darkred" stroke-width="3" width="10.546875" x="444.296875" y="221.953125" /><text dominant-baseline="middle" fill="white" font-family="Arial" font-size="9px" font-weight="bold" text-anchor="middle" x="449.5703125" y="241.9921875">Main Door</text><text fill="black" font-family="Arial" font-size="18px" font-weight="bold" text-anchor="middle" x="400.0" y="30">Floor Plan - ID: 33883</text></svg>