<?xml version="1.0" encoding="utf-8" ?>
<svg baseProfile="full" height="600px" version="1.1" viewBox="0 0 800 600" width="800px" xmlns="http://www.w3.org/2000/svg" xmlns:ev="http://www.w3.org/2001/xml-events" xmlns:xlink="http://www.w3.org/1999/xlink"><defs /><rect fill="white" height="600" width="800" x="0" y="0" /><polygon fill="none" id="floor_plan_boundary" points="296.640625,133.359375 296.640625,354.84375 252.34375,356.953125 252.34375,466.640625 366.25,466.640625 366.25,443.4375 376.796875,441.328125 362.03125,437.109375 359.921875,462.421875 256.5625,460.3125 256.5625,363.28125 305.078125,361.171875 307.1875,137.578125 368.359375,137.578125 370.46875,160.78125 433.75,160.78125 435.859375,141.796875 497.03125,143.90625 497.03125,312.65625 541.328125,314.765625 539.21875,432.890625 406.328125,441.328125 547.65625,443.4375 545.546875,308.4375 505.46875,306.328125 505.46875,137.578125 429.53125,137.578125 427.421875,156.5625 376.796875,156.5625 374.6875,133.359375" stroke="black" stroke-linecap="butt" stroke-linejoin="miter" stroke-width="4" /><g id="room_living_room"><polygon fill="rgb(238,232,170)" fill-opacity="0.7" points="307.1875,139.6875 307.1875,367.5 366.25,367.5 368.359375,435.0 406.328125,435.0 404.21875,382.265625 427.421875,380.15625 427.421875,331.640625 397.890625,329.53125 397.890625,162.890625 370.46875,162.890625 368.359375,139.6875" stroke="black" stroke-width="1.5" /><text dominant-baseline="middle" fill="black" font-family="Arial" font-size="12px" font-weight="bold" text-anchor="middle" x="368.359375" y="288.3984375">Living Room</text></g><g id="room_common_room"><polygon fill="rgb(255,215,0)" fill-opacity="0.7" points="258.671875,363.28125 258.671875,460.3125 359.921875,460.3125 359.921875,380.15625 296.640625,380.15625 294.53125,363.28125" stroke="black" stroke-width="1.5" /><text dominant-baseline="middle" fill="black" font-family="Arial" font-size="12px" font-weight="bold" text-anchor="middle" x="310.3515625" y="412.8515625">Common Room</text></g><g id="room_master_bedroom"><polygon fill="rgb(255,165,0)" fill-opacity="0.7" points="406.328125,162.890625 406.328125,247.265625 494.921875,247.265625 494.921875,143.90625 435.859375,143.90625 433.75,162.890625" stroke="black" stroke-width="1.5" /><text dominant-baseline="middle" fill="black" font-family="Arial" font-size="12px" font-weight="bold" text-anchor="middle" x="451.6796875" y="196.640625">Master Bedroom</text></g><g id="room_common_room_2"><polygon fill="rgb(255,215,0)" fill-opacity="0.7" points="406.328125,255.703125 406.328125,323.203125 497.03125,323.203125 494.921875,255.703125" stroke="black" stroke-width="1.5" /><text dominant-baseline="middle" fill="black" font-family="Arial" font-size="12px" font-weight="bold" text-anchor="middle" x="452.734375" y="290.5078125">Common Room 2</text></g><g id="room_kitchen"><polygon fill="rgb(240,128,128)" fill-opacity="0.7" points="539.21875,378.046875 507.578125,378.046875 505.46875,392.8125 414.765625,392.8125 414.765625,435.0 537.109375,432.890625" stroke="black" stroke-width="1.5" /><text dominant-baseline="middle" fill="black" font-family="Arial" font-size="12px" font-weight="bold" text-anchor="middle" x="478.046875" y="407.578125">Kitchen</text></g><g id="room_bathroom"><polygon fill="rgb(173,216,230)" fill-opacity="0.7" points="435.859375,331.640625 435.859375,380.15625 494.921875,380.15625 497.03125,331.640625" stroke="black" stroke-width="1.5" /><text dominant-baseline="middle" fill="black" font-family="Arial" font-size="12px" font-weight="bold" text-anchor="middle" x="467.5" y="356.953125">Bathroom</text></g><g id="room_balcony"><polygon fill="rgb(107,142,35)" fill-opacity="0.7" points="505.46875,314.765625 505.46875,369.609375 539.21875,369.609375 539.21875,314.765625" stroke="black" stroke-width="1.5" /><text dominant-baseline="middle" fill="black" font-family="Arial" font-size="12px" font-weight="bold" text-anchor="middle" x="523.3984375" y="343.2421875">Balcony</text></g><rect fill="red" fill-opacity="0.9" height="6.328125" id="main_door" stroke="darkred" stroke-width="3" width="27.421875" x="378.90625" y="437.109375" /><text dominant-baseline="middle" fill="white" font-family="Arial" font-size="9px" font-weight="bold" text-anchor="middle" x="392.6171875" y="440.2734375">Main Door</text><text fill="black" font-family="Arial" font-size="18px" font-weight="bold" text-anchor="middle" x="400.0" y="30">Floor Plan - ID: 34044</text></svg>