<?xml version="1.0" encoding="utf-8" ?>
<svg baseProfile="full" height="600px" version="1.1" viewBox="0 0 800 600" width="800px" xmlns="http://www.w3.org/2000/svg" xmlns:ev="http://www.w3.org/2001/xml-events" xmlns:xlink="http://www.w3.org/1999/xlink"><defs /><rect fill="white" height="600" width="800" x="0" y="0" /><polygon fill="none" id="floor_plan_boundary" points="262.890625,86.953125 262.890625,418.125 267.109375,93.28125 532.890625,93.28125 532.890625,462.421875 416.875,464.53125 414.765625,508.828125 269.21875,508.828125 262.890625,447.65625 262.890625,513.046875 421.09375,513.046875 423.203125,468.75 537.109375,468.75 537.109375,86.953125" stroke="black" stroke-linecap="butt" stroke-linejoin="miter" stroke-width="4" /><g id="room_living_room"><polygon fill="rgb(238,232,170)" fill-opacity="0.7" points="269.21875,93.28125 269.21875,506.71875 343.046875,506.71875 343.046875,321.09375 463.28125,318.984375 463.28125,257.8125 414.765625,255.703125 414.765625,93.28125" stroke="black" stroke-width="1.5" /><text dominant-baseline="middle" fill="black" font-family="Arial" font-size="12px" font-weight="bold" text-anchor="middle" x="367.3046875" y="301.0546875">Living Room</text></g><g id="room_master_bedroom"><polygon fill="rgb(255,165,0)" fill-opacity="0.7" points="423.203125,93.28125 423.203125,249.375 530.78125,249.375 530.78125,93.28125" stroke="black" stroke-width="1.5" /><text dominant-baseline="middle" fill="black" font-family="Arial" font-size="12px" font-weight="bold" text-anchor="middle" x="478.046875" y="172.3828125">Master Bedroom</text></g><g id="room_common_room_2"><polygon fill="rgb(255,215,0)" fill-opacity="0.7" points="423.203125,327.421875 423.203125,462.421875 530.78125,462.421875 530.78125,327.421875" stroke="black" stroke-width="1.5" /><text dominant-baseline="middle" fill="black" font-family="Arial" font-size="12px" font-weight="bold" text-anchor="middle" x="478.046875" y="395.9765625">Common Room 2</text></g><g id="room_kitchen"><polygon fill="rgb(240,128,128)" fill-opacity="0.7" points="351.484375,327.421875 351.484375,416.015625 414.765625,416.015625 414.765625,327.421875" stroke="black" stroke-width="1.5" /><text dominant-baseline="middle" fill="black" font-family="Arial" font-size="12px" font-weight="bold" text-anchor="middle" x="384.1796875" y="372.7734375">Kitchen</text></g><g id="room_common_room"><polygon fill="rgb(255,215,0)" fill-opacity="0.7" points="351.484375,424.453125 351.484375,506.71875 414.765625,506.71875 414.765625,424.453125" stroke="black" stroke-width="1.5" /><text dominant-baseline="middle" fill="black" font-family="Arial" font-size="12px" font-weight="bold" text-anchor="middle" x="384.1796875" y="466.640625">Common Room</text></g><g id="room_bathroom"><polygon fill="rgb(173,216,230)" fill-opacity="0.7" points="471.71875,257.8125 471.71875,318.984375 530.78125,318.984375 530.78125,257.8125" stroke="black" stroke-width="1.5" /><text dominant-baseline="middle" fill="black" font-family="Arial" font-size="12px" font-weight="bold" text-anchor="middle" x="502.3046875" y="289.453125">Bathroom</text></g><rect fill="red" fill-opacity="0.9" height="27.421875" id="main_door" stroke="darkred" stroke-width="3" width="6.328125" x="262.890625" y="420.234375" /><text dominant-baseline="middle" fill="white" font-family="Arial" font-size="9px" font-weight="bold" text-anchor="middle" x="266.0546875" y="433.9453125">Main Door</text><text fill="black" font-family="Arial" font-size="18px" font-weight="bold" text-anchor="middle" x="400.0" y="30">Floor Plan - ID: 34327</text></svg>