<?xml version="1.0" encoding="utf-8" ?>
<svg baseProfile="full" height="600px" version="1.1" viewBox="0 0 800 600" width="800px" xmlns="http://www.w3.org/2000/svg" xmlns:ev="http://www.w3.org/2001/xml-events" xmlns:xlink="http://www.w3.org/1999/xlink"><defs /><rect fill="white" height="600" width="800" x="0" y="0" /><polygon fill="none" id="floor_plan_boundary" points="288.203125,112.265625 288.203125,382.265625 246.015625,384.375 246.015625,483.515625 362.03125,483.515625 364.140625,435.0 475.9375,435.0 478.046875,487.734375 553.984375,487.734375 543.4375,479.296875 488.59375,479.296875 486.484375,426.5625 353.59375,426.5625 351.484375,475.078125 254.453125,472.96875 254.453125,394.921875 296.640625,392.8125 298.75,120.703125 545.546875,122.8125 545.546875,439.21875 553.984375,439.21875 553.984375,112.265625" stroke="black" stroke-linecap="butt" stroke-linejoin="miter" stroke-width="4" /><g id="room_living_room"><polygon fill="rgb(238,232,170)" fill-opacity="0.7" points="397.890625,221.953125 397.890625,243.046875 412.65625,245.15625 412.65625,424.453125 486.484375,424.453125 488.59375,477.1875 543.4375,477.1875 543.4375,221.953125" stroke="black" stroke-width="1.5" /><text dominant-baseline="middle" fill="black" font-family="Arial" font-size="12px" font-weight="bold" text-anchor="middle" x="471.71875" y="350.625">Living Room</text></g><g id="room_master_bedroom"><polygon fill="rgb(255,165,0)" fill-opacity="0.7" points="298.75,310.546875 298.75,424.453125 400.0,424.453125 400.0,310.546875" stroke="black" stroke-width="1.5" /><text dominant-baseline="middle" fill="black" font-family="Arial" font-size="12px" font-weight="bold" text-anchor="middle" x="350.4296875" y="368.5546875">Master Bedroom</text></g><g id="room_common_room_2"><polygon fill="rgb(255,215,0)" fill-opacity="0.7" points="298.75,122.8125 298.75,209.296875 427.421875,209.296875 427.421875,122.8125" stroke="black" stroke-width="1.5" /><text dominant-baseline="middle" fill="black" font-family="Arial" font-size="12px" font-weight="bold" text-anchor="middle" x="364.140625" y="167.109375">Common Room 2</text></g><g id="room_common_room"><polygon fill="rgb(255,215,0)" fill-opacity="0.7" points="298.75,221.953125 298.75,297.890625 400.0,297.890625 400.0,255.703125 385.234375,253.59375 385.234375,221.953125" stroke="black" stroke-width="1.5" /><text dominant-baseline="middle" fill="black" font-family="Arial" font-size="12px" font-weight="bold" text-anchor="middle" x="350.4296875" y="260.9765625">Common Room</text></g><g id="room_balcony"><polygon fill="rgb(107,142,35)" fill-opacity="0.7" points="256.5625,394.921875 256.5625,472.96875 351.484375,472.96875 351.484375,437.109375 288.203125,437.109375 286.09375,394.921875" stroke="black" stroke-width="1.5" /><text dominant-baseline="middle" fill="black" font-family="Arial" font-size="12px" font-weight="bold" text-anchor="middle" x="305.078125" y="435.0">Balcony</text></g><g id="room_kitchen"><polygon fill="rgb(240,128,128)" fill-opacity="0.7" points="490.703125,122.8125 490.703125,209.296875 543.4375,209.296875 543.4375,122.8125" stroke="black" stroke-width="1.5" /><text dominant-baseline="middle" fill="black" font-family="Arial" font-size="12px" font-weight="bold" text-anchor="middle" x="518.125" y="167.109375">Kitchen</text></g><g id="room_bathroom"><polygon fill="rgb(173,216,230)" fill-opacity="0.7" points="440.078125,122.8125 440.078125,209.296875 482.265625,209.296875 482.265625,122.8125" stroke="black" stroke-width="1.5" /><text dominant-baseline="middle" fill="black" font-family="Arial" font-size="12px" font-weight="bold" text-anchor="middle" x="462.2265625" y="167.109375">Bathroom</text></g><rect fill="red" fill-opacity="0.9" height="40.078125" id="main_door" stroke="darkred" stroke-width="3" width="10.546875" x="545.546875" y="441.328125" /><text dominant-baseline="middle" fill="white" font-family="Arial" font-size="9px" font-weight="bold" text-anchor="middle" x="550.8203125" y="461.3671875">Main Door</text><text fill="black" font-family="Arial" font-size="18px" font-weight="bold" text-anchor="middle" x="400.0" y="30">Floor Plan - ID: 34485</text></svg>