<?xml version="1.0" encoding="utf-8" ?>
<svg baseProfile="full" height="600px" version="1.1" viewBox="0 0 800 600" width="800px" xmlns="http://www.w3.org/2000/svg" xmlns:ev="http://www.w3.org/2001/xml-events" xmlns:xlink="http://www.w3.org/1999/xlink"><defs /><rect fill="white" height="600" width="800" x="0" y="0" /><polygon fill="none" id="floor_plan_boundary" points="235.46875,101.71875 235.46875,409.6875 214.375,411.796875 214.375,498.28125 332.5,498.28125 332.5,481.40625 362.03125,481.40625 364.140625,420.234375 585.625,420.234375 585.625,293.671875 503.359375,293.671875 501.25,281.015625 492.8125,281.015625 492.8125,302.109375 577.1875,304.21875 575.078125,411.796875 353.59375,411.796875 353.59375,470.859375 326.171875,472.96875 324.0625,489.84375 224.921875,489.84375 222.8125,422.34375 243.90625,420.234375 246.015625,110.15625 343.046875,112.265625 343.046875,249.375 501.25,251.484375 501.25,240.9375 353.59375,240.9375 351.484375,101.71875" stroke="black" stroke-linecap="butt" stroke-linejoin="miter" stroke-width="4" /><g id="room_living_room"><polygon fill="rgb(238,232,170)" fill-opacity="0.7" points="307.1875,251.484375 307.1875,291.5625 362.03125,291.5625 364.140625,333.75 433.75,335.859375 433.75,409.6875 575.078125,409.6875 575.078125,304.21875 492.8125,304.21875 490.703125,251.484375" stroke="black" stroke-width="1.5" /><text dominant-baseline="middle" fill="black" font-family="Arial" font-size="12px" font-weight="bold" text-anchor="middle" x="442.1875" y="331.640625">Living Room</text></g><g id="room_master_bedroom"><polygon fill="rgb(255,165,0)" fill-opacity="0.7" points="246.015625,304.21875 246.015625,409.6875 351.484375,409.6875 351.484375,304.21875" stroke="black" stroke-width="1.5" /><text dominant-baseline="middle" fill="black" font-family="Arial" font-size="12px" font-weight="bold" text-anchor="middle" x="299.8046875" y="358.0078125">Master Bedroom</text></g><g id="room_master_bedroom_2"><polygon fill="rgb(255,165,0)" fill-opacity="0.7" points="246.015625,112.265625 246.015625,221.953125 305.078125,221.953125 307.1875,238.828125 340.9375,238.828125 340.9375,112.265625" stroke="black" stroke-width="1.5" /><text dominant-baseline="middle" fill="black" font-family="Arial" font-size="12px" font-weight="bold" text-anchor="middle" x="294.53125" y="176.6015625">Master Bedroom 2</text></g><g id="room_balcony"><polygon fill="rgb(107,142,35)" fill-opacity="0.7" points="224.921875,422.34375 224.921875,487.734375 324.0625,487.734375 326.171875,470.859375 351.484375,470.859375 351.484375,422.34375" stroke="black" stroke-width="1.5" /><text dominant-baseline="middle" fill="black" font-family="Arial" font-size="12px" font-weight="bold" text-anchor="middle" x="289.2578125" y="456.09375">Balcony</text></g><g id="room_kitchen"><polygon fill="rgb(240,128,128)" fill-opacity="0.7" points="364.140625,346.40625 364.140625,409.6875 421.09375,409.6875 421.09375,346.40625" stroke="black" stroke-width="1.5" /><text dominant-baseline="middle" fill="black" font-family="Arial" font-size="12px" font-weight="bold" text-anchor="middle" x="393.671875" y="379.1015625">Kitchen</text></g><g id="room_bathroom"><polygon fill="rgb(173,216,230)" fill-opacity="0.7" points="246.015625,234.609375 246.015625,291.5625 294.53125,291.5625 294.53125,234.609375" stroke="black" stroke-width="1.5" /><text dominant-baseline="middle" fill="black" font-family="Arial" font-size="12px" font-weight="bold" text-anchor="middle" x="271.328125" y="264.140625">Bathroom</text></g><rect fill="red" fill-opacity="0.9" height="27.421875" id="main_door" stroke="darkred" stroke-width="3" width="10.546875" x="492.8125" y="253.59375" /><text dominant-baseline="middle" fill="white" font-family="Arial" font-size="9px" font-weight="bold" text-anchor="middle" x="498.0859375" y="267.3046875">Main Door</text><text fill="black" font-family="Arial" font-size="18px" font-weight="bold" text-anchor="middle" x="400.0" y="30">Floor Plan - ID: 34891</text></svg>