<?xml version="1.0" encoding="utf-8" ?>
<svg baseProfile="full" height="600px" version="1.1" viewBox="0 0 800 600" width="800px" xmlns="http://www.w3.org/2000/svg" xmlns:ev="http://www.w3.org/2001/xml-events" xmlns:xlink="http://www.w3.org/1999/xlink"><defs /><rect fill="white" height="600" width="800" x="0" y="0" /><polygon fill="none" id="floor_plan_boundary" points="197.5,188.203125 197.5,293.671875 241.796875,295.78125 241.796875,411.796875 372.578125,411.796875 374.6875,384.375 423.203125,380.15625 368.359375,380.15625 366.25,407.578125 248.125,407.578125 246.015625,289.453125 201.71875,287.34375 203.828125,192.421875 492.8125,192.421875 494.921875,236.71875 596.171875,236.71875 598.28125,378.046875 524.453125,380.15625 522.34375,356.953125 478.046875,356.953125 478.046875,378.046875 452.734375,384.375 482.265625,384.375 484.375,361.171875 516.015625,361.171875 518.125,384.375 602.5,384.375 602.5,232.5 501.25,232.5 499.140625,188.203125" stroke="black" stroke-linecap="butt" stroke-linejoin="miter" stroke-width="4" /><g id="room_living_room"><polygon fill="rgb(238,232,170)" fill-opacity="0.7" points="492.8125,295.78125 414.765625,295.78125 412.65625,266.25 366.25,266.25 364.140625,295.78125 248.125,295.78125 248.125,405.46875 366.25,405.46875 368.359375,378.046875 475.9375,378.046875 475.9375,356.953125 492.8125,354.84375" stroke="black" stroke-width="1.5" /><text dominant-baseline="middle" fill="black" font-family="Arial" font-size="12px" font-weight="bold" text-anchor="middle" x="371.5234375" y="336.9140625">Living Room</text></g><g id="room_master_bedroom"><polygon fill="rgb(255,165,0)" fill-opacity="0.7" points="248.125,194.53125 248.125,287.34375 357.8125,287.34375 357.8125,194.53125" stroke="black" stroke-width="1.5" /><text dominant-baseline="middle" fill="black" font-family="Arial" font-size="12px" font-weight="bold" text-anchor="middle" x="304.0234375" y="241.9921875">Master Bedroom</text></g><g id="room_common_room"><polygon fill="rgb(255,215,0)" fill-opacity="0.7" points="501.25,238.828125 501.25,321.09375 596.171875,321.09375 596.171875,238.828125" stroke="black" stroke-width="1.5" /><text dominant-baseline="middle" fill="black" font-family="Arial" font-size="12px" font-weight="bold" text-anchor="middle" x="549.765625" y="281.015625">Common Room</text></g><g id="room_common_room_2"><polygon fill="rgb(255,215,0)" fill-opacity="0.7" points="421.09375,194.53125 421.09375,287.34375 492.8125,287.34375 492.8125,194.53125" stroke="black" stroke-width="1.5" /><text dominant-baseline="middle" fill="black" font-family="Arial" font-size="12px" font-weight="bold" text-anchor="middle" x="458.0078125" y="241.9921875">Common Room 2</text></g><g id="room_kitchen"><polygon fill="rgb(240,128,128)" fill-opacity="0.7" points="501.25,329.53125 501.25,354.84375 520.234375,352.734375 524.453125,356.953125 524.453125,378.046875 596.171875,378.046875 596.171875,329.53125" stroke="black" stroke-width="1.5" /><text dominant-baseline="middle" fill="black" font-family="Arial" font-size="12px" font-weight="bold" text-anchor="middle" x="549.765625" y="354.84375">Kitchen</text></g><g id="room_balcony"><polygon fill="rgb(107,142,35)" fill-opacity="0.7" points="203.828125,194.53125 203.828125,287.34375 239.6875,287.34375 239.6875,194.53125" stroke="black" stroke-width="1.5" /><text dominant-baseline="middle" fill="black" font-family="Arial" font-size="12px" font-weight="bold" text-anchor="middle" x="222.8125" y="241.9921875">Balcony</text></g><g id="room_bathroom"><polygon fill="rgb(173,216,230)" fill-opacity="0.7" points="366.25,194.53125 366.25,257.8125 412.65625,257.8125 412.65625,194.53125" stroke="black" stroke-width="1.5" /><text dominant-baseline="middle" fill="black" font-family="Arial" font-size="12px" font-weight="bold" text-anchor="middle" x="390.5078125" y="227.2265625">Bathroom</text></g><rect fill="red" fill-opacity="0.9" height="6.328125" id="main_door" stroke="darkred" stroke-width="3" width="27.421875" x="425.3125" y="380.15625" /><text dominant-baseline="middle" fill="white" font-family="Arial" font-size="9px" font-weight="bold" text-anchor="middle" x="439.0234375" y="383.3203125">Main Door</text><text fill="black" font-family="Arial" font-size="18px" font-weight="bold" text-anchor="middle" x="400.0" y="30">Floor Plan - ID: 35251</text></svg>