<?xml version="1.0" encoding="utf-8" ?>
<svg baseProfile="full" height="600px" version="1.1" viewBox="0 0 800 600" width="800px" xmlns="http://www.w3.org/2000/svg" xmlns:ev="http://www.w3.org/2001/xml-events" xmlns:xlink="http://www.w3.org/1999/xlink"><defs /><rect fill="white" height="600" width="800" x="0" y="0" /><polygon fill="none" id="floor_plan_boundary" points="265.0,158.671875 265.0,441.328125 435.859375,441.328125 437.96875,428.671875 507.578125,428.671875 507.578125,285.234375 535.0,283.125 535.0,158.671875 435.859375,158.671875 435.859375,167.109375 526.5625,169.21875 526.5625,272.578125 499.140625,274.6875 499.140625,418.125 427.421875,420.234375 425.3125,432.890625 273.4375,430.78125 273.4375,169.21875 406.328125,167.109375 406.328125,158.671875" stroke="black" stroke-linecap="butt" stroke-linejoin="miter" stroke-width="4" /><g id="room_living_room"><polygon fill="rgb(238,232,170)" fill-opacity="0.7" points="275.546875,169.21875 275.546875,291.5625 389.453125,291.5625 391.5625,272.578125 433.75,272.578125 433.75,169.21875" stroke="black" stroke-width="1.5" /><text dominant-baseline="middle" fill="black" font-family="Arial" font-size="12px" font-weight="bold" text-anchor="middle" x="355.703125" y="231.4453125">Living Room</text></g><g id="room_common_room"><polygon fill="rgb(255,215,0)" fill-opacity="0.7" points="275.546875,304.21875 275.546875,430.78125 389.453125,430.78125 389.453125,304.21875" stroke="black" stroke-width="1.5" /><text dominant-baseline="middle" fill="black" font-family="Arial" font-size="12px" font-weight="bold" text-anchor="middle" x="333.5546875" y="368.5546875">Common Room</text></g><g id="room_master_bedroom"><polygon fill="rgb(255,165,0)" fill-opacity="0.7" points="402.109375,285.234375 402.109375,430.78125 425.3125,430.78125 427.421875,418.125 497.03125,418.125 497.03125,285.234375" stroke="black" stroke-width="1.5" /><text dominant-baseline="middle" fill="black" font-family="Arial" font-size="12px" font-weight="bold" text-anchor="middle" x="450.625" y="359.0625">Master Bedroom</text></g><g id="room_kitchen"><polygon fill="rgb(240,128,128)" fill-opacity="0.7" points="446.40625,169.21875 446.40625,217.734375 524.453125,217.734375 524.453125,169.21875" stroke="black" stroke-width="1.5" /><text dominant-baseline="middle" fill="black" font-family="Arial" font-size="12px" font-weight="bold" text-anchor="middle" x="486.484375" y="194.53125">Kitchen</text></g><g id="room_bathroom"><polygon fill="rgb(173,216,230)" fill-opacity="0.7" points="446.40625,230.390625 446.40625,272.578125 497.03125,272.578125 497.03125,230.390625" stroke="black" stroke-width="1.5" /><text dominant-baseline="middle" fill="black" font-family="Arial" font-size="12px" font-weight="bold" text-anchor="middle" x="472.7734375" y="252.5390625">Bathroom</text></g><rect fill="red" fill-opacity="0.9" height="10.546875" id="main_door" stroke="darkred" stroke-width="3" width="27.421875" x="408.4375" y="158.671875" /><text dominant-baseline="middle" fill="white" font-family="Arial" font-size="9px" font-weight="bold" text-anchor="middle" x="422.1484375" y="163.9453125">Main Door</text><text fill="black" font-family="Arial" font-size="18px" font-weight="bold" text-anchor="middle" x="400.0" y="30">Floor Plan - ID: 35636</text></svg>