<?xml version="1.0" encoding="utf-8" ?>
<svg baseProfile="full" height="600px" version="1.1" viewBox="0 0 800 600" width="800px" xmlns="http://www.w3.org/2000/svg" xmlns:ev="http://www.w3.org/2001/xml-events" xmlns:xlink="http://www.w3.org/1999/xlink"><defs /><rect fill="white" height="600" width="800" x="0" y="0" /><polygon fill="none" id="floor_plan_boundary" points="178.515625,177.65625 178.515625,312.65625 368.359375,312.65625 370.46875,422.34375 374.6875,308.4375 182.734375,306.328125 182.734375,183.984375 579.296875,181.875 581.40625,312.65625 617.265625,314.765625 617.265625,416.015625 404.21875,422.34375 621.484375,422.34375 621.484375,308.4375 585.625,306.328125 585.625,177.65625" stroke="black" stroke-linecap="butt" stroke-linejoin="miter" stroke-width="4" /><g id="room_common_room"><polygon fill="rgb(255,215,0)" fill-opacity="0.7" points="421.09375,183.984375 421.09375,306.328125 579.296875,306.328125 579.296875,183.984375" stroke="black" stroke-width="1.5" /><text dominant-baseline="middle" fill="black" font-family="Arial" font-size="12px" font-weight="bold" text-anchor="middle" x="501.25" y="246.2109375">Common Room</text></g><g id="room_living_room"><polygon fill="rgb(238,232,170)" fill-opacity="0.7" points="376.796875,257.8125 376.796875,416.015625 484.375,416.015625 486.484375,375.9375 579.296875,375.9375 579.296875,314.765625 416.875,316.875 412.65625,257.8125" stroke="black" stroke-width="1.5" /><text dominant-baseline="middle" fill="black" font-family="Arial" font-size="12px" font-weight="bold" text-anchor="middle" x="479.1015625" y="337.96875">Living Room</text></g><g id="room_master_bedroom"><polygon fill="rgb(255,165,0)" fill-opacity="0.7" points="220.703125,183.984375 220.703125,306.328125 368.359375,306.328125 368.359375,183.984375" stroke="black" stroke-width="1.5" /><text dominant-baseline="middle" fill="black" font-family="Arial" font-size="12px" font-weight="bold" text-anchor="middle" x="295.5859375" y="246.2109375">Master Bedroom</text></g><g id="room_balcony"><polygon fill="rgb(107,142,35)" fill-opacity="0.7" points="184.84375,183.984375 184.84375,306.328125 212.265625,306.328125 212.265625,183.984375" stroke="black" stroke-width="1.5" /><text dominant-baseline="middle" fill="black" font-family="Arial" font-size="12px" font-weight="bold" text-anchor="middle" x="199.609375" y="246.2109375">Balcony</text></g><g id="room_kitchen"><polygon fill="rgb(240,128,128)" fill-opacity="0.7" points="587.734375,314.765625 587.734375,416.015625 615.15625,416.015625 615.15625,314.765625" stroke="black" stroke-width="1.5" /><text dominant-baseline="middle" fill="black" font-family="Arial" font-size="12px" font-weight="bold" text-anchor="middle" x="602.5" y="366.4453125">Kitchen</text></g><g id="room_bathroom"><polygon fill="rgb(173,216,230)" fill-opacity="0.7" points="492.8125,384.375 492.8125,416.015625 579.296875,416.015625 579.296875,384.375" stroke="black" stroke-width="1.5" /><text dominant-baseline="middle" fill="black" font-family="Arial" font-size="12px" font-weight="bold" text-anchor="middle" x="537.109375" y="401.25">Bathroom</text></g><g id="room_room_7"><polygon fill="rgb(221,160,221)" fill-opacity="0.7" points="376.796875,183.984375 376.796875,249.375 412.65625,249.375 412.65625,183.984375" stroke="black" stroke-width="1.5" /><text dominant-baseline="middle" fill="black" font-family="Arial" font-size="12px" font-weight="bold" text-anchor="middle" x="395.78125" y="217.734375">Room 7</text></g><rect fill="red" fill-opacity="0.9" height="6.328125" id="main_door" stroke="darkred" stroke-width="3" width="27.421875" x="376.796875" y="418.125" /><text dominant-baseline="middle" fill="white" font-family="Arial" font-size="9px" font-weight="bold" text-anchor="middle" x="390.5078125" y="421.2890625">Main Door</text><text fill="black" font-family="Arial" font-size="18px" font-weight="bold" text-anchor="middle" x="400.0" y="30">Floor Plan - ID: 36158</text></svg>