<?xml version="1.0" encoding="utf-8" ?>
<svg baseProfile="full" height="600px" version="1.1" viewBox="0 0 800 600" width="800px" xmlns="http://www.w3.org/2000/svg" xmlns:ev="http://www.w3.org/2001/xml-events" xmlns:xlink="http://www.w3.org/1999/xlink"><defs /><rect fill="white" height="600" width="800" x="0" y="0" /><polygon fill="none" id="floor_plan_boundary" points="250.234375,202.96875 243.90625,432.890625 343.046875,432.890625 345.15625,483.515625 469.609375,483.515625 471.71875,466.640625 556.09375,466.640625 556.09375,373.828125 469.609375,371.71875 469.609375,306.328125 509.6875,300.0 465.390625,300.0 465.390625,378.046875 549.765625,378.046875 549.765625,462.421875 465.390625,462.421875 463.28125,479.296875 351.484375,479.296875 349.375,428.671875 248.125,426.5625 254.453125,209.296875 305.078125,207.1875 307.1875,165.0 397.890625,165.0 400.0,120.703125 469.609375,120.703125 471.71875,192.421875 537.109375,194.53125 541.328125,304.21875 541.328125,188.203125 475.9375,186.09375 475.9375,116.484375 393.671875,116.484375 391.5625,160.78125 300.859375,160.78125 298.75,202.96875" stroke="black" stroke-linecap="butt" stroke-linejoin="miter" stroke-width="4" /><g id="room_living_room"><polygon fill="rgb(238,232,170)" fill-opacity="0.7" points="400.0,167.109375 400.0,268.359375 307.1875,270.46875 307.1875,297.890625 351.484375,300.0 351.484375,432.890625 463.28125,432.890625 463.28125,300.0 535.0,297.890625 535.0,270.46875 469.609375,268.359375 469.609375,167.109375" stroke="black" stroke-width="1.5" /><text dominant-baseline="middle" fill="black" font-family="Arial" font-size="12px" font-weight="bold" text-anchor="middle" x="422.1484375" y="301.0546875">Living Room</text></g><g id="room_master_bedroom"><polygon fill="rgb(255,165,0)" fill-opacity="0.7" points="250.234375,306.328125 250.234375,426.5625 343.046875,426.5625 343.046875,306.328125" stroke="black" stroke-width="1.5" /><text dominant-baseline="middle" fill="black" font-family="Arial" font-size="12px" font-weight="bold" text-anchor="middle" x="297.6953125" y="367.5">Master Bedroom</text></g><g id="room_common_room_2"><polygon fill="rgb(255,215,0)" fill-opacity="0.7" points="307.1875,167.109375 307.1875,262.03125 391.5625,262.03125 391.5625,167.109375" stroke="black" stroke-width="1.5" /><text dominant-baseline="middle" fill="black" font-family="Arial" font-size="12px" font-weight="bold" text-anchor="middle" x="350.4296875" y="215.625">Common Room 2</text></g><g id="room_common_room"><polygon fill="rgb(255,215,0)" fill-opacity="0.7" points="471.71875,380.15625 471.71875,460.3125 549.765625,460.3125 549.765625,380.15625" stroke="black" stroke-width="1.5" /><text dominant-baseline="middle" fill="black" font-family="Arial" font-size="12px" font-weight="bold" text-anchor="middle" x="511.796875" y="421.2890625">Common Room</text></g><g id="room_balcony"><polygon fill="rgb(107,142,35)" fill-opacity="0.7" points="351.484375,441.328125 351.484375,477.1875 463.28125,477.1875 463.28125,441.328125" stroke="black" stroke-width="1.5" /><text dominant-baseline="middle" fill="black" font-family="Arial" font-size="12px" font-weight="bold" text-anchor="middle" x="408.4375" y="460.3125">Balcony</text></g><g id="room_kitchen"><polygon fill="rgb(240,128,128)" fill-opacity="0.7" points="478.046875,194.53125 478.046875,262.03125 535.0,262.03125 535.0,194.53125" stroke="black" stroke-width="1.5" /><text dominant-baseline="middle" fill="black" font-family="Arial" font-size="12px" font-weight="bold" text-anchor="middle" x="507.578125" y="229.3359375">Kitchen</text></g><g id="room_bathroom"><polygon fill="rgb(173,216,230)" fill-opacity="0.7" points="256.5625,209.296875 256.5625,297.890625 298.75,297.890625 298.75,209.296875" stroke="black" stroke-width="1.5" /><text dominant-baseline="middle" fill="black" font-family="Arial" font-size="12px" font-weight="bold" text-anchor="middle" x="278.7109375" y="254.6484375">Bathroom</text></g><g id="room_balcony_2"><polygon fill="rgb(107,142,35)" fill-opacity="0.7" points="400.0,122.8125 400.0,158.671875 469.609375,158.671875 469.609375,122.8125" stroke="black" stroke-width="1.5" /><text dominant-baseline="middle" fill="black" font-family="Arial" font-size="12px" font-weight="bold" text-anchor="middle" x="435.859375" y="141.796875">Balcony 2</text></g><rect fill="red" fill-opacity="0.9" height="6.328125" id="main_door" stroke="darkred" stroke-width="3" width="27.421875" x="511.796875" y="300.0" /><text dominant-baseline="middle" fill="white" font-family="Arial" font-size="9px" font-weight="bold" text-anchor="middle" x="525.5078125" y="303.1640625">Main Door</text><text fill="black" font-family="Arial" font-size="18px" font-weight="bold" text-anchor="middle" x="400.0" y="30">Floor Plan - ID: 36253</text></svg>