<?xml version="1.0" encoding="utf-8" ?>
<svg baseProfile="full" height="600px" version="1.1" viewBox="0 0 800 600" width="800px" xmlns="http://www.w3.org/2000/svg" xmlns:ev="http://www.w3.org/2001/xml-events" xmlns:xlink="http://www.w3.org/1999/xlink"><defs /><rect fill="white" height="600" width="800" x="0" y="0" /><polygon fill="none" id="floor_plan_boundary" points="317.734375,118.59375 317.734375,215.625 290.3125,217.734375 290.3125,445.546875 395.78125,445.546875 397.890625,481.40625 509.6875,481.40625 509.6875,441.328125 503.359375,439.21875 503.359375,291.5625 469.609375,289.453125 469.609375,253.59375 465.390625,295.78125 499.140625,297.890625 499.140625,445.546875 505.46875,447.65625 505.46875,475.078125 404.21875,477.1875 402.109375,441.328125 294.53125,439.21875 294.53125,224.0625 321.953125,221.953125 321.953125,124.921875 463.28125,122.8125 469.609375,224.0625 469.609375,118.59375" stroke="black" stroke-linecap="butt" stroke-linejoin="miter" stroke-width="4" /><g id="room_living_room"><polygon fill="rgb(238,232,170)" fill-opacity="0.7" points="370.46875,224.0625 353.59375,234.609375 353.59375,289.453125 395.78125,291.5625 404.21875,475.078125 503.359375,475.078125 497.03125,297.890625 463.28125,295.78125 463.28125,224.0625" stroke="black" stroke-width="1.5" /><text dominant-baseline="middle" fill="black" font-family="Arial" font-size="12px" font-weight="bold" text-anchor="middle" x="429.53125" y="350.625">Living Room</text></g><g id="room_master_bedroom"><polygon fill="rgb(255,165,0)" fill-opacity="0.7" points="296.640625,297.890625 296.640625,439.21875 387.34375,439.21875 387.34375,297.890625" stroke="black" stroke-width="1.5" /><text dominant-baseline="middle" fill="black" font-family="Arial" font-size="12px" font-weight="bold" text-anchor="middle" x="343.046875" y="369.609375">Master Bedroom</text></g><g id="room_common_room"><polygon fill="rgb(255,215,0)" fill-opacity="0.7" points="324.0625,124.921875 324.0625,226.171875 362.03125,226.171875 366.25,213.515625 395.78125,215.625 395.78125,124.921875" stroke="black" stroke-width="1.5" /><text dominant-baseline="middle" fill="black" font-family="Arial" font-size="12px" font-weight="bold" text-anchor="middle" x="360.9765625" y="176.6015625">Common Room</text></g><g id="room_kitchen"><polygon fill="rgb(240,128,128)" fill-opacity="0.7" points="404.21875,124.921875 404.21875,215.625 463.28125,215.625 463.28125,124.921875" stroke="black" stroke-width="1.5" /><text dominant-baseline="middle" fill="black" font-family="Arial" font-size="12px" font-weight="bold" text-anchor="middle" x="434.8046875" y="171.328125">Kitchen</text></g><g id="room_bathroom"><polygon fill="rgb(173,216,230)" fill-opacity="0.7" points="296.640625,224.0625 296.640625,289.453125 345.15625,289.453125 345.15625,234.609375 317.734375,234.609375 315.625,224.0625" stroke="black" stroke-width="1.5" /><text dominant-baseline="middle" fill="black" font-family="Arial" font-size="12px" font-weight="bold" text-anchor="middle" x="321.953125" y="257.8125">Bathroom</text></g><rect fill="red" fill-opacity="0.9" height="27.421875" id="main_door" stroke="darkred" stroke-width="3" width="6.328125" x="465.390625" y="226.171875" /><text dominant-baseline="middle" fill="white" font-family="Arial" font-size="9px" font-weight="bold" text-anchor="middle" x="468.5546875" y="239.8828125">Main Door</text><text fill="black" font-family="Arial" font-size="18px" font-weight="bold" text-anchor="middle" x="400.0" y="30">Floor Plan - ID: 36275</text></svg>