<?xml version="1.0" encoding="utf-8" ?>
<svg baseProfile="full" height="600px" version="1.1" viewBox="0 0 800 600" width="800px" xmlns="http://www.w3.org/2000/svg" xmlns:ev="http://www.w3.org/2001/xml-events" xmlns:xlink="http://www.w3.org/1999/xlink"><defs /><rect fill="white" height="600" width="800" x="0" y="0" /><polygon fill="none" id="floor_plan_boundary" points="252.34375,127.03125 252.34375,186.09375 324.0625,188.203125 324.0625,228.28125 300.859375,230.390625 300.859375,278.90625 324.0625,281.015625 324.0625,472.96875 387.34375,472.96875 389.453125,451.875 425.3125,451.875 427.421875,472.96875 547.65625,472.96875 547.65625,181.875 478.046875,181.875 475.9375,139.6875 463.28125,139.6875 471.71875,146.015625 471.71875,186.09375 543.4375,188.203125 543.4375,466.640625 433.75,468.75 431.640625,447.65625 383.125,447.65625 381.015625,468.75 330.390625,468.75 328.28125,274.6875 305.078125,272.578125 305.078125,236.71875 328.28125,234.609375 328.28125,181.875 258.671875,181.875 256.5625,133.359375 425.3125,131.25 433.75,143.90625 431.640625,127.03125" stroke="black" stroke-linecap="butt" stroke-linejoin="miter" stroke-width="4" /><g id="room_living_room"><polygon fill="rgb(238,232,170)" fill-opacity="0.7" points="433.75,146.015625 433.75,278.90625 395.78125,281.015625 395.78125,316.875 433.75,318.984375 433.75,403.359375 541.328125,403.359375 541.328125,188.203125 473.828125,190.3125 469.609375,146.015625" stroke="black" stroke-width="1.5" /><text dominant-baseline="middle" fill="black" font-family="Arial" font-size="12px" font-weight="bold" text-anchor="middle" x="469.609375" y="275.7421875">Living Room</text></g><g id="room_master_bedroom"><polygon fill="rgb(255,165,0)" fill-opacity="0.7" points="425.3125,325.3125 395.78125,325.3125 393.671875,340.078125 330.390625,340.078125 330.390625,466.640625 381.015625,466.640625 383.125,445.546875 425.3125,445.546875" stroke="black" stroke-width="1.5" /><text dominant-baseline="middle" fill="black" font-family="Arial" font-size="12px" font-weight="bold" text-anchor="middle" x="378.90625" y="397.03125">Master Bedroom</text></g><g id="room_common_room"><polygon fill="rgb(255,215,0)" fill-opacity="0.7" points="330.390625,188.203125 330.390625,234.609375 307.1875,236.71875 307.1875,272.578125 425.3125,272.578125 425.3125,188.203125" stroke="black" stroke-width="1.5" /><text dominant-baseline="middle" fill="black" font-family="Arial" font-size="12px" font-weight="bold" text-anchor="middle" x="367.3046875" y="231.4453125">Common Room</text></g><g id="room_balcony"><polygon fill="rgb(107,142,35)" fill-opacity="0.7" points="433.75,411.796875 433.75,466.640625 541.328125,466.640625 541.328125,411.796875" stroke="black" stroke-width="1.5" /><text dominant-baseline="middle" fill="black" font-family="Arial" font-size="12px" font-weight="bold" text-anchor="middle" x="488.59375" y="440.2734375">Balcony</text></g><g id="room_kitchen"><polygon fill="rgb(240,128,128)" fill-opacity="0.7" points="307.1875,133.359375 307.1875,179.765625 425.3125,179.765625 425.3125,133.359375" stroke="black" stroke-width="1.5" /><text dominant-baseline="middle" fill="black" font-family="Arial" font-size="12px" font-weight="bold" text-anchor="middle" x="367.3046875" y="157.6171875">Kitchen</text></g><g id="room_bathroom"><polygon fill="rgb(173,216,230)" fill-opacity="0.7" points="330.390625,281.015625 330.390625,331.640625 387.34375,331.640625 387.34375,281.015625" stroke="black" stroke-width="1.5" /><text dominant-baseline="middle" fill="black" font-family="Arial" font-size="12px" font-weight="bold" text-anchor="middle" x="359.921875" y="307.3828125">Bathroom</text></g><g id="room_balcony_2"><polygon fill="rgb(107,142,35)" fill-opacity="0.7" points="258.671875,133.359375 258.671875,179.765625 298.75,179.765625 298.75,133.359375" stroke="black" stroke-width="1.5" /><text dominant-baseline="middle" fill="black" font-family="Arial" font-size="12px" font-weight="bold" text-anchor="middle" x="279.765625" y="157.6171875">Balcony 2</text></g><rect fill="red" fill-opacity="0.9" height="6.328125" id="main_door" stroke="darkred" stroke-width="3" width="27.421875" x="435.859375" y="139.6875" /><text dominant-baseline="middle" fill="white" font-family="Arial" font-size="9px" font-weight="bold" text-anchor="middle" x="449.5703125" y="142.8515625">Main Door</text><text fill="black" font-family="Arial" font-size="18px" font-weight="bold" text-anchor="middle" x="400.0" y="30">Floor Plan - ID: 3640</text></svg>