<?xml version="1.0" encoding="utf-8" ?>
<svg baseProfile="full" height="600px" version="1.1" viewBox="0 0 800 600" width="800px" xmlns="http://www.w3.org/2000/svg" xmlns:ev="http://www.w3.org/2001/xml-events" xmlns:xlink="http://www.w3.org/1999/xlink"><defs /><rect fill="white" height="600" width="800" x="0" y="0" /><polygon fill="none" id="floor_plan_boundary" points="252.34375,86.953125 252.34375,270.46875 260.78125,270.46875 262.890625,95.390625 427.421875,95.390625 429.53125,122.8125 539.21875,124.921875 537.109375,504.609375 321.953125,504.609375 319.84375,314.765625 252.34375,308.4375 252.34375,323.203125 311.40625,325.3125 311.40625,513.046875 547.65625,513.046875 547.65625,114.375 440.078125,114.375 437.96875,86.953125" stroke="black" stroke-linecap="butt" stroke-linejoin="miter" stroke-width="4" /><g id="room_living_room"><polygon fill="rgb(238,232,170)" fill-opacity="0.7" points="353.59375,97.5 353.59375,245.15625 262.890625,247.265625 262.890625,312.65625 321.953125,314.765625 321.953125,453.984375 427.421875,453.984375 427.421875,276.796875 467.5,274.6875 467.5,247.265625 427.421875,245.15625 427.421875,97.5" stroke="black" stroke-width="1.5" /><text dominant-baseline="middle" fill="black" font-family="Arial" font-size="12px" font-weight="bold" text-anchor="middle" x="366.25" y="276.796875">Living Room</text></g><g id="room_master_bedroom"><polygon fill="rgb(255,165,0)" fill-opacity="0.7" points="440.078125,287.34375 440.078125,453.984375 537.109375,453.984375 537.109375,331.640625 469.609375,331.640625 467.5,287.34375" stroke="black" stroke-width="1.5" /><text dominant-baseline="middle" fill="black" font-family="Arial" font-size="12px" font-weight="bold" text-anchor="middle" x="489.6484375" y="371.71875">Master Bedroom</text></g><g id="room_common_room"><polygon fill="rgb(255,215,0)" fill-opacity="0.7" points="440.078125,124.921875 440.078125,234.609375 537.109375,234.609375 537.109375,124.921875" stroke="black" stroke-width="1.5" /><text dominant-baseline="middle" fill="black" font-family="Arial" font-size="12px" font-weight="bold" text-anchor="middle" x="489.6484375" y="180.8203125">Common Room</text></g><g id="room_balcony"><polygon fill="rgb(107,142,35)" fill-opacity="0.7" points="321.953125,466.640625 321.953125,502.5 537.109375,502.5 537.109375,466.640625" stroke="black" stroke-width="1.5" /><text dominant-baseline="middle" fill="black" font-family="Arial" font-size="12px" font-weight="bold" text-anchor="middle" x="430.5859375" y="485.625">Balcony</text></g><g id="room_common_room_2"><polygon fill="rgb(255,215,0)" fill-opacity="0.7" points="262.890625,97.5 262.890625,177.65625 317.734375,177.65625 319.84375,234.609375 340.9375,234.609375 340.9375,97.5" stroke="black" stroke-width="1.5" /><text dominant-baseline="middle" fill="black" font-family="Arial" font-size="12px" font-weight="bold" text-anchor="middle" x="302.96875" y="167.109375">Common Room 2</text></g><g id="room_bathroom"><polygon fill="rgb(173,216,230)" fill-opacity="0.7" points="480.15625,247.265625 480.15625,318.984375 537.109375,318.984375 537.109375,247.265625" stroke="black" stroke-width="1.5" /><text dominant-baseline="middle" fill="black" font-family="Arial" font-size="12px" font-weight="bold" text-anchor="middle" x="509.6875" y="284.1796875">Bathroom</text></g><g id="room_bathroom_2"><polygon fill="rgb(173,216,230)" fill-opacity="0.7" points="262.890625,186.09375 262.890625,234.609375 311.40625,234.609375 311.40625,186.09375" stroke="black" stroke-width="1.5" /><text dominant-baseline="middle" fill="black" font-family="Arial" font-size="12px" font-weight="bold" text-anchor="middle" x="288.203125" y="211.40625">Bathroom 2</text></g><rect fill="red" fill-opacity="0.9" height="35.859375" id="main_door" stroke="darkred" stroke-width="3" width="10.546875" x="252.34375" y="272.578125" /><text dominant-baseline="middle" fill="white" font-family="Arial" font-size="9px" font-weight="bold" text-anchor="middle" x="257.6171875" y="290.5078125">Main Door</text><text fill="black" font-family="Arial" font-size="18px" font-weight="bold" text-anchor="middle" x="400.0" y="30">Floor Plan - ID: 36627</text></svg>