<?xml version="1.0" encoding="utf-8" ?>
<svg baseProfile="full" height="600px" version="1.1" viewBox="0 0 800 600" width="800px" xmlns="http://www.w3.org/2000/svg" xmlns:ev="http://www.w3.org/2001/xml-events" xmlns:xlink="http://www.w3.org/1999/xlink"><defs /><rect fill="white" height="600" width="800" x="0" y="0" /><polygon fill="none" id="floor_plan_boundary" points="286.09375,152.34375 286.09375,483.515625 513.90625,483.515625 513.90625,257.8125 465.390625,255.703125 465.390625,152.34375 416.875,152.34375 414.765625,116.484375 400.0,116.484375 406.328125,127.03125 406.328125,160.78125 456.953125,162.890625 456.953125,266.25 505.46875,268.359375 505.46875,472.96875 294.53125,472.96875 294.53125,162.890625 366.25,160.78125 370.46875,116.484375 357.8125,116.484375 355.703125,152.34375" stroke="black" stroke-linecap="butt" stroke-linejoin="miter" stroke-width="4" /><g id="room_living_room"><polygon fill="rgb(238,232,170)" fill-opacity="0.7" points="404.21875,127.03125 368.359375,127.03125 368.359375,234.609375 296.640625,236.71875 296.640625,426.5625 404.21875,426.5625" stroke="black" stroke-width="1.5" /><text dominant-baseline="middle" fill="black" font-family="Arial" font-size="12px" font-weight="bold" text-anchor="middle" x="351.484375" y="277.8515625">Living Room</text></g><g id="room_master_bedroom"><polygon fill="rgb(255,165,0)" fill-opacity="0.7" points="416.875,369.609375 416.875,472.96875 503.359375,472.96875 503.359375,369.609375" stroke="black" stroke-width="1.5" /><text dominant-baseline="middle" fill="black" font-family="Arial" font-size="12px" font-weight="bold" text-anchor="middle" x="461.171875" y="422.34375">Master Bedroom</text></g><g id="room_common_room"><polygon fill="rgb(255,215,0)" fill-opacity="0.7" points="416.875,268.359375 416.875,356.953125 503.359375,356.953125 503.359375,268.359375" stroke="black" stroke-width="1.5" /><text dominant-baseline="middle" fill="black" font-family="Arial" font-size="12px" font-weight="bold" text-anchor="middle" x="461.171875" y="313.7109375">Common Room</text></g><g id="room_balcony"><polygon fill="rgb(107,142,35)" fill-opacity="0.7" points="296.640625,439.21875 296.640625,472.96875 404.21875,472.96875 404.21875,439.21875" stroke="black" stroke-width="1.5" /><text dominant-baseline="middle" fill="black" font-family="Arial" font-size="12px" font-weight="bold" text-anchor="middle" x="351.484375" y="457.1484375">Balcony</text></g><g id="room_bathroom"><polygon fill="rgb(173,216,230)" fill-opacity="0.7" points="296.640625,162.890625 296.640625,224.0625 355.703125,224.0625 355.703125,162.890625" stroke="black" stroke-width="1.5" /><text dominant-baseline="middle" fill="black" font-family="Arial" font-size="12px" font-weight="bold" text-anchor="middle" x="327.2265625" y="194.53125">Bathroom</text></g><g id="room_kitchen"><polygon fill="rgb(240,128,128)" fill-opacity="0.7" points="416.875,162.890625 416.875,255.703125 454.84375,255.703125 454.84375,162.890625" stroke="black" stroke-width="1.5" /><text dominant-baseline="middle" fill="black" font-family="Arial" font-size="12px" font-weight="bold" text-anchor="middle" x="436.9140625" y="210.3515625">Kitchen</text></g><rect fill="red" fill-opacity="0.9" height="10.546875" id="main_door" stroke="darkred" stroke-width="3" width="27.421875" x="372.578125" y="116.484375" /><text dominant-baseline="middle" fill="white" font-family="Arial" font-size="9px" font-weight="bold" text-anchor="middle" x="386.2890625" y="121.7578125">Main Door</text><text fill="black" font-family="Arial" font-size="18px" font-weight="bold" text-anchor="middle" x="400.0" y="30">Floor Plan - ID: 36680</text></svg>