<?xml version="1.0" encoding="utf-8" ?>
<svg baseProfile="full" height="600px" version="1.1" viewBox="0 0 800 600" width="800px" xmlns="http://www.w3.org/2000/svg" xmlns:ev="http://www.w3.org/2001/xml-events" xmlns:xlink="http://www.w3.org/1999/xlink"><defs /><rect fill="white" height="600" width="800" x="0" y="0" /><polygon fill="none" id="floor_plan_boundary" points="246.015625,118.59375 246.015625,424.453125 216.484375,426.5625 216.484375,439.21875 254.453125,435.0 256.5625,127.03125 376.796875,127.03125 378.90625,194.53125 475.9375,194.53125 478.046875,179.765625 545.546875,179.765625 547.65625,194.53125 572.96875,194.53125 575.078125,428.671875 545.546875,430.78125 543.4375,458.203125 505.46875,458.203125 503.359375,430.78125 450.625,430.78125 448.515625,458.203125 412.65625,458.203125 410.546875,430.78125 378.90625,430.78125 376.796875,472.96875 216.484375,472.96875 216.484375,481.40625 387.34375,481.40625 389.453125,439.21875 402.109375,441.328125 402.109375,466.640625 459.0625,466.640625 461.171875,439.21875 492.8125,439.21875 494.921875,466.640625 553.984375,466.640625 556.09375,439.21875 583.515625,439.21875 583.515625,186.09375 558.203125,186.09375 556.09375,171.328125 467.5,171.328125 465.390625,186.09375 389.453125,186.09375 387.34375,118.59375" stroke="black" stroke-linecap="butt" stroke-linejoin="miter" stroke-width="4" /><g id="room_living_room"><polygon fill="rgb(238,232,170)" fill-opacity="0.7" points="376.796875,196.640625 256.5625,196.640625 256.5625,435.0 227.03125,437.109375 227.03125,470.859375 296.640625,470.859375 296.640625,397.03125 378.90625,394.921875 381.015625,342.1875 473.828125,342.1875 473.828125,310.546875 431.640625,308.4375 431.640625,272.578125 378.90625,270.46875" stroke="black" stroke-width="1.5" /><text dominant-baseline="middle" fill="black" font-family="Arial" font-size="12px" font-weight="bold" text-anchor="middle" x="351.484375" y="334.8046875">Living Room</text></g><g id="room_master_bedroom"><polygon fill="rgb(255,165,0)" fill-opacity="0.7" points="440.078125,196.640625 440.078125,302.109375 572.96875,302.109375 572.96875,196.640625 547.65625,196.640625 545.546875,181.875 478.046875,181.875 475.9375,196.640625" stroke="black" stroke-width="1.5" /><text dominant-baseline="middle" fill="black" font-family="Arial" font-size="12px" font-weight="bold" text-anchor="middle" x="507.578125" y="243.046875">Master Bedroom</text></g><g id="room_common_room_2"><polygon fill="rgb(255,215,0)" fill-opacity="0.7" points="482.265625,310.546875 482.265625,428.671875 505.46875,430.78125 505.46875,456.09375 543.4375,456.09375 545.546875,428.671875 572.96875,428.671875 572.96875,310.546875" stroke="black" stroke-width="1.5" /><text dominant-baseline="middle" fill="black" font-family="Arial" font-size="12px" font-weight="bold" text-anchor="middle" x="528.671875" y="384.375">Common Room 2</text></g><g id="room_common_room"><polygon fill="rgb(255,215,0)" fill-opacity="0.7" points="387.34375,350.625 387.34375,428.671875 412.65625,430.78125 412.65625,456.09375 448.515625,456.09375 448.515625,430.78125 473.828125,428.671875 473.828125,350.625" stroke="black" stroke-width="1.5" /><text dominant-baseline="middle" fill="black" font-family="Arial" font-size="12px" font-weight="bold" text-anchor="middle" x="431.640625" y="404.4140625">Common Room</text></g><g id="room_balcony"><polygon fill="rgb(107,142,35)" fill-opacity="0.7" points="256.5625,129.140625 256.5625,183.984375 376.796875,183.984375 376.796875,129.140625" stroke="black" stroke-width="1.5" /><text dominant-baseline="middle" fill="black" font-family="Arial" font-size="12px" font-weight="bold" text-anchor="middle" x="317.734375" y="157.6171875">Balcony</text></g><g id="room_kitchen"><polygon fill="rgb(240,128,128)" fill-opacity="0.7" points="305.078125,403.359375 305.078125,470.859375 376.796875,470.859375 378.90625,403.359375" stroke="black" stroke-width="1.5" /><text dominant-baseline="middle" fill="black" font-family="Arial" font-size="12px" font-weight="bold" text-anchor="middle" x="343.046875" y="438.1640625">Kitchen</text></g><g id="room_bathroom"><polygon fill="rgb(173,216,230)" fill-opacity="0.7" points="389.453125,196.640625 387.34375,264.140625 431.640625,264.140625 431.640625,196.640625" stroke="black" stroke-width="1.5" /><text dominant-baseline="middle" fill="black" font-family="Arial" font-size="12px" font-weight="bold" text-anchor="middle" x="410.546875" y="231.4453125">Bathroom</text></g><rect fill="red" fill-opacity="0.9" height="31.640625" id="main_door" stroke="darkred" stroke-width="3" width="10.546875" x="216.484375" y="441.328125" /><text dominant-baseline="middle" fill="white" font-family="Arial" font-size="9px" font-weight="bold" text-anchor="middle" x="221.7578125" y="457.1484375">Main Door</text><text fill="black" font-family="Arial" font-size="18px" font-weight="bold" text-anchor="middle" x="400.0" y="30">Floor Plan - ID: 36767</text></svg>