<?xml version="1.0" encoding="utf-8" ?>
<svg baseProfile="full" height="600px" version="1.1" viewBox="0 0 800 600" width="800px" xmlns="http://www.w3.org/2000/svg" xmlns:ev="http://www.w3.org/2001/xml-events" xmlns:xlink="http://www.w3.org/1999/xlink"><defs /><rect fill="white" height="600" width="800" x="0" y="0" /><polygon fill="none" id="floor_plan_boundary" points="283.984375,67.96875 283.984375,152.34375 239.6875,154.453125 239.6875,342.1875 283.984375,344.296875 283.984375,508.828125 400.0,508.828125 402.109375,532.03125 560.3125,532.03125 560.3125,306.328125 492.8125,304.21875 492.8125,232.5 473.828125,232.5 488.59375,238.828125 488.59375,310.546875 556.09375,312.65625 556.09375,525.703125 408.4375,527.8125 406.328125,504.609375 288.203125,502.5 288.203125,337.96875 243.90625,335.859375 243.90625,160.78125 288.203125,158.671875 290.3125,72.1875 454.84375,72.1875 456.953125,152.34375 427.421875,154.453125 427.421875,236.71875 440.078125,236.71875 431.640625,230.390625 431.640625,160.78125 461.171875,158.671875 461.171875,67.96875" stroke="black" stroke-linecap="butt" stroke-linejoin="miter" stroke-width="4" /><g id="room_living_room"><polygon fill="rgb(238,232,170)" fill-opacity="0.7" points="353.59375,160.78125 353.59375,304.21875 408.4375,306.328125 408.4375,458.203125 553.984375,458.203125 553.984375,312.65625 486.484375,310.546875 486.484375,238.828125 425.3125,236.71875 425.3125,160.78125" stroke="black" stroke-width="1.5" /><text dominant-baseline="middle" fill="black" font-family="Arial" font-size="12px" font-weight="bold" text-anchor="middle" x="454.84375" y="310.546875">Living Room</text></g><g id="room_master_bedroom"><polygon fill="rgb(255,165,0)" fill-opacity="0.7" points="400.0,312.65625 353.59375,312.65625 351.484375,344.296875 290.3125,344.296875 290.3125,502.5 400.0,502.5" stroke="black" stroke-width="1.5" /><text dominant-baseline="middle" fill="black" font-family="Arial" font-size="12px" font-weight="bold" text-anchor="middle" x="346.2109375" y="408.6328125">Master Bedroom</text></g><g id="room_common_room"><polygon fill="rgb(255,215,0)" fill-opacity="0.7" points="246.015625,217.734375 246.015625,335.859375 345.15625,335.859375 345.15625,217.734375" stroke="black" stroke-width="1.5" /><text dominant-baseline="middle" fill="black" font-family="Arial" font-size="12px" font-weight="bold" text-anchor="middle" x="296.640625" y="277.8515625">Common Room</text></g><g id="room_balcony"><polygon fill="rgb(107,142,35)" fill-opacity="0.7" points="408.4375,466.640625 408.4375,525.703125 553.984375,525.703125 553.984375,466.640625" stroke="black" stroke-width="1.5" /><text dominant-baseline="middle" fill="black" font-family="Arial" font-size="12px" font-weight="bold" text-anchor="middle" x="482.265625" y="497.2265625">Balcony</text></g><g id="room_common_room_2"><polygon fill="rgb(255,215,0)" fill-opacity="0.7" points="290.3125,74.296875 290.3125,152.34375 378.90625,152.34375 378.90625,74.296875" stroke="black" stroke-width="1.5" /><text dominant-baseline="middle" fill="black" font-family="Arial" font-size="12px" font-weight="bold" text-anchor="middle" x="335.6640625" y="114.375">Common Room 2</text></g><g id="room_kitchen"><polygon fill="rgb(240,128,128)" fill-opacity="0.7" points="387.34375,74.296875 387.34375,152.34375 454.84375,152.34375 454.84375,74.296875" stroke="black" stroke-width="1.5" /><text dominant-baseline="middle" fill="black" font-family="Arial" font-size="12px" font-weight="bold" text-anchor="middle" x="422.1484375" y="114.375">Kitchen</text></g><g id="room_bathroom"><polygon fill="rgb(173,216,230)" fill-opacity="0.7" points="246.015625,160.78125 246.015625,209.296875 345.15625,209.296875 345.15625,160.78125" stroke="black" stroke-width="1.5" /><text dominant-baseline="middle" fill="black" font-family="Arial" font-size="12px" font-weight="bold" text-anchor="middle" x="296.640625" y="186.09375">Bathroom</text></g><rect fill="red" fill-opacity="0.9" height="6.328125" id="main_door" stroke="darkred" stroke-width="3" width="31.640625" x="442.1875" y="232.5" /><text dominant-baseline="middle" fill="white" font-family="Arial" font-size="9px" font-weight="bold" text-anchor="middle" x="458.0078125" y="235.6640625">Main Door</text><text fill="black" font-family="Arial" font-size="18px" font-weight="bold" text-anchor="middle" x="400.0" y="30">Floor Plan - ID: 36771</text></svg>