<?xml version="1.0" encoding="utf-8" ?>
<svg baseProfile="full" height="600px" version="1.1" viewBox="0 0 800 600" width="800px" xmlns="http://www.w3.org/2000/svg" xmlns:ev="http://www.w3.org/2001/xml-events" xmlns:xlink="http://www.w3.org/1999/xlink"><defs /><rect fill="white" height="600" width="800" x="0" y="0" /><polygon fill="none" id="floor_plan_boundary" points="265.0,122.8125 265.0,318.984375 220.703125,321.09375 220.703125,449.765625 406.328125,449.765625 408.4375,477.1875 414.765625,477.1875 416.875,441.328125 231.25,441.328125 229.140625,331.640625 273.4375,329.53125 275.546875,131.25 461.171875,131.25 463.28125,186.09375 507.578125,188.203125 507.578125,329.53125 570.859375,331.640625 570.859375,466.640625 448.515625,468.75 448.515625,477.1875 579.296875,477.1875 579.296875,321.09375 516.015625,318.984375 516.015625,177.65625 471.71875,175.546875 471.71875,122.8125" stroke="black" stroke-linecap="butt" stroke-linejoin="miter" stroke-width="4" /><g id="room_living_room"><polygon fill="rgb(238,232,170)" fill-opacity="0.7" points="275.546875,331.640625 275.546875,439.21875 416.875,439.21875 418.984375,466.640625 459.0625,466.640625 461.171875,403.359375 568.75,403.359375 568.75,331.640625 414.765625,329.53125 414.765625,243.046875 387.34375,243.046875 385.234375,331.640625" stroke="black" stroke-width="1.5" /><text dominant-baseline="middle" fill="black" font-family="Arial" font-size="12px" font-weight="bold" text-anchor="middle" x="423.203125" y="355.8984375">Living Room</text></g><g id="room_master_bedroom"><polygon fill="rgb(255,165,0)" fill-opacity="0.7" points="275.546875,133.359375 275.546875,230.390625 414.765625,230.390625 414.765625,202.96875 376.796875,200.859375 378.90625,133.359375" stroke="black" stroke-width="1.5" /><text dominant-baseline="middle" fill="black" font-family="Arial" font-size="12px" font-weight="bold" text-anchor="middle" x="346.2109375" y="182.9296875">Master Bedroom</text></g><g id="room_common_room"><polygon fill="rgb(255,215,0)" fill-opacity="0.7" points="275.546875,243.046875 275.546875,318.984375 374.6875,318.984375 374.6875,243.046875" stroke="black" stroke-width="1.5" /><text dominant-baseline="middle" fill="black" font-family="Arial" font-size="12px" font-weight="bold" text-anchor="middle" x="326.171875" y="282.0703125">Common Room</text></g><g id="room_common_room_2"><polygon fill="rgb(255,215,0)" fill-opacity="0.7" points="427.421875,188.203125 427.421875,268.359375 505.46875,268.359375 505.46875,188.203125" stroke="black" stroke-width="1.5" /><text dominant-baseline="middle" fill="black" font-family="Arial" font-size="12px" font-weight="bold" text-anchor="middle" x="467.5" y="229.3359375">Common Room 2</text></g><g id="room_kitchen"><polygon fill="rgb(240,128,128)" fill-opacity="0.7" points="471.71875,416.015625 471.71875,466.640625 568.75,466.640625 568.75,416.015625" stroke="black" stroke-width="1.5" /><text dominant-baseline="middle" fill="black" font-family="Arial" font-size="12px" font-weight="bold" text-anchor="middle" x="521.2890625" y="442.3828125">Kitchen</text></g><g id="room_bathroom_2"><polygon fill="rgb(173,216,230)" fill-opacity="0.7" points="387.34375,133.359375 387.34375,190.3125 414.765625,190.3125 416.875,175.546875 461.171875,175.546875 461.171875,133.359375" stroke="black" stroke-width="1.5" /><text dominant-baseline="middle" fill="black" font-family="Arial" font-size="12px" font-weight="bold" text-anchor="middle" x="425.3125" y="162.890625">Bathroom 2</text></g><g id="room_balcony"><polygon fill="rgb(107,142,35)" fill-opacity="0.7" points="231.25,331.640625 231.25,439.21875 262.890625,439.21875 262.890625,331.640625" stroke="black" stroke-width="1.5" /><text dominant-baseline="middle" fill="black" font-family="Arial" font-size="12px" font-weight="bold" text-anchor="middle" x="248.125" y="386.484375">Balcony</text></g><g id="room_bathroom"><polygon fill="rgb(173,216,230)" fill-opacity="0.7" points="427.421875,281.015625 427.421875,318.984375 505.46875,318.984375 505.46875,281.015625" stroke="black" stroke-width="1.5" /><text dominant-baseline="middle" fill="black" font-family="Arial" font-size="12px" font-weight="bold" text-anchor="middle" x="467.5" y="301.0546875">Bathroom</text></g><rect fill="red" fill-opacity="0.9" height="10.546875" id="main_door" stroke="darkred" stroke-width="3" width="31.640625" x="416.875" y="468.75" /><text dominant-baseline="middle" fill="white" font-family="Arial" font-size="9px" font-weight="bold" text-anchor="middle" x="432.6953125" y="474.0234375">Main Door</text><text fill="black" font-family="Arial" font-size="18px" font-weight="bold" text-anchor="middle" x="400.0" y="30">Floor Plan - ID: 37099</text></svg>