<?xml version="1.0" encoding="utf-8" ?>
<svg baseProfile="full" height="600px" version="1.1" viewBox="0 0 800 600" width="800px" xmlns="http://www.w3.org/2000/svg" xmlns:ev="http://www.w3.org/2001/xml-events" xmlns:xlink="http://www.w3.org/1999/xlink"><defs /><rect fill="white" height="600" width="800" x="0" y="0" /><polygon fill="none" id="floor_plan_boundary" points="281.875,78.515625 281.875,502.5 385.234375,502.5 387.34375,538.359375 518.125,538.359375 518.125,331.640625 482.265625,329.53125 482.265625,255.703125 446.40625,253.59375 446.40625,264.140625 473.828125,266.25 473.828125,340.078125 509.6875,342.1875 509.6875,527.8125 397.890625,529.921875 395.78125,494.0625 290.3125,491.953125 290.3125,89.0625 397.890625,86.953125 400.0,70.078125 465.390625,70.078125 467.5,169.21875 446.40625,171.328125 446.40625,215.625 454.84375,215.625 454.84375,181.875 475.9375,179.765625 475.9375,61.640625 389.453125,61.640625 387.34375,78.515625" stroke="black" stroke-linecap="butt" stroke-linejoin="miter" stroke-width="4" /><g id="room_living_room"><polygon fill="rgb(238,232,170)" fill-opacity="0.7" points="355.703125,217.734375 355.703125,289.453125 397.890625,291.5625 397.890625,527.8125 507.578125,527.8125 507.578125,342.1875 471.71875,340.078125 471.71875,266.25 444.296875,264.140625 444.296875,217.734375" stroke="black" stroke-width="1.5" /><text dominant-baseline="middle" fill="black" font-family="Arial" font-size="12px" font-weight="bold" text-anchor="middle" x="432.6953125" y="373.828125">Living Room</text></g><g id="room_master_bedroom"><polygon fill="rgb(255,165,0)" fill-opacity="0.7" points="385.234375,302.109375 355.703125,302.109375 353.59375,361.171875 292.421875,361.171875 292.421875,491.953125 385.234375,491.953125" stroke="black" stroke-width="1.5" /><text dominant-baseline="middle" fill="black" font-family="Arial" font-size="12px" font-weight="bold" text-anchor="middle" x="339.8828125" y="398.0859375">Master Bedroom</text></g><g id="room_common_room"><polygon fill="rgb(255,215,0)" fill-opacity="0.7" points="292.421875,89.0625 292.421875,205.078125 389.453125,205.078125 389.453125,89.0625" stroke="black" stroke-width="1.5" /><text dominant-baseline="middle" fill="black" font-family="Arial" font-size="12px" font-weight="bold" text-anchor="middle" x="341.9921875" y="148.125">Common Room</text></g><g id="room_kitchen"><polygon fill="rgb(240,128,128)" fill-opacity="0.7" points="397.890625,110.15625 397.890625,205.078125 444.296875,205.078125 444.296875,171.328125 465.390625,169.21875 465.390625,110.15625" stroke="black" stroke-width="1.5" /><text dominant-baseline="middle" fill="black" font-family="Arial" font-size="12px" font-weight="bold" text-anchor="middle" x="432.6953125" y="158.671875">Kitchen</text></g><g id="room_bathroom_2"><polygon fill="rgb(173,216,230)" fill-opacity="0.7" points="292.421875,217.734375 292.421875,291.5625 345.15625,291.5625 347.265625,217.734375" stroke="black" stroke-width="1.5" /><text dominant-baseline="middle" fill="black" font-family="Arial" font-size="12px" font-weight="bold" text-anchor="middle" x="320.8984375" y="255.703125">Bathroom 2</text></g><g id="room_bathroom"><polygon fill="rgb(173,216,230)" fill-opacity="0.7" points="292.421875,300.0 292.421875,352.734375 347.265625,352.734375 345.15625,300.0" stroke="black" stroke-width="1.5" /><text dominant-baseline="middle" fill="black" font-family="Arial" font-size="12px" font-weight="bold" text-anchor="middle" x="320.8984375" y="327.421875">Bathroom</text></g><g id="room_balcony"><polygon fill="rgb(107,142,35)" fill-opacity="0.7" points="400.0,72.1875 397.890625,101.71875 465.390625,101.71875 465.390625,72.1875" stroke="black" stroke-width="1.5" /><text dominant-baseline="middle" fill="black" font-family="Arial" font-size="12px" font-weight="bold" text-anchor="middle" x="432.6953125" y="88.0078125">Balcony</text></g><rect fill="red" fill-opacity="0.9" height="35.859375" id="main_door" stroke="darkred" stroke-width="3" width="10.546875" x="446.40625" y="217.734375" /><text dominant-baseline="middle" fill="white" font-family="Arial" font-size="9px" font-weight="bold" text-anchor="middle" x="451.6796875" y="235.6640625">Main Door</text><text fill="black" font-family="Arial" font-size="18px" font-weight="bold" text-anchor="middle" x="400.0" y="30">Floor Plan - ID: 37100</text></svg>