<?xml version="1.0" encoding="utf-8" ?>
<svg baseProfile="full" height="600px" version="1.1" viewBox="0 0 800 600" width="800px" xmlns="http://www.w3.org/2000/svg" xmlns:ev="http://www.w3.org/2001/xml-events" xmlns:xlink="http://www.w3.org/1999/xlink"><defs /><rect fill="white" height="600" width="800" x="0" y="0" /><polygon fill="none" id="floor_plan_boundary" points="216.484375,150.234375 216.484375,472.96875 583.515625,472.96875 583.515625,314.765625 524.453125,314.765625 522.34375,257.8125 518.125,318.984375 579.296875,321.09375 577.1875,468.75 222.8125,468.75 220.703125,156.5625 330.390625,154.453125 332.5,131.25 471.71875,131.25 473.828125,262.03125 480.15625,262.03125 478.046875,127.03125 326.171875,127.03125 324.0625,150.234375" stroke="black" stroke-linecap="butt" stroke-linejoin="miter" stroke-width="4" /><g id="room_living_room"><polygon fill="rgb(238,232,170)" fill-opacity="0.7" points="332.5,224.0625 330.390625,255.703125 288.203125,255.703125 288.203125,316.875 334.609375,321.09375 332.5,466.640625 471.71875,466.640625 471.71875,314.765625 516.015625,312.65625 516.015625,264.140625 473.828125,264.140625 471.71875,224.0625" stroke="black" stroke-width="1.5" /><text dominant-baseline="middle" fill="black" font-family="Arial" font-size="12px" font-weight="bold" text-anchor="middle" x="403.1640625" y="346.40625">Living Room</text></g><g id="room_master_bedroom"><polygon fill="rgb(255,165,0)" fill-opacity="0.7" points="222.8125,325.3125 222.8125,466.640625 324.0625,466.640625 324.0625,325.3125" stroke="black" stroke-width="1.5" /><text dominant-baseline="middle" fill="black" font-family="Arial" font-size="12px" font-weight="bold" text-anchor="middle" x="274.4921875" y="397.03125">Master Bedroom</text></g><g id="room_common_room"><polygon fill="rgb(255,215,0)" fill-opacity="0.7" points="480.15625,321.09375 480.15625,466.640625 577.1875,466.640625 577.1875,321.09375" stroke="black" stroke-width="1.5" /><text dominant-baseline="middle" fill="black" font-family="Arial" font-size="12px" font-weight="bold" text-anchor="middle" x="529.7265625" y="394.921875">Common Room</text></g><g id="room_common_room_2"><polygon fill="rgb(255,215,0)" fill-opacity="0.7" points="222.8125,156.5625 222.8125,247.265625 324.0625,247.265625 324.0625,156.5625" stroke="black" stroke-width="1.5" /><text dominant-baseline="middle" fill="black" font-family="Arial" font-size="12px" font-weight="bold" text-anchor="middle" x="274.4921875" y="202.96875">Common Room 2</text></g><g id="room_kitchen_2"><polygon fill="rgb(240,128,128)" fill-opacity="0.7" points="332.5,133.359375 332.5,215.625 393.671875,215.625 393.671875,133.359375" stroke="black" stroke-width="1.5" /><text dominant-baseline="middle" fill="black" font-family="Arial" font-size="12px" font-weight="bold" text-anchor="middle" x="364.140625" y="175.546875">Kitchen 2</text></g><g id="room_bathroom"><polygon fill="rgb(173,216,230)" fill-opacity="0.7" points="222.8125,255.703125 222.8125,316.875 279.765625,316.875 279.765625,255.703125" stroke="black" stroke-width="1.5" /><text dominant-baseline="middle" fill="black" font-family="Arial" font-size="12px" font-weight="bold" text-anchor="middle" x="252.34375" y="287.34375">Bathroom</text></g><g id="room_bathroom_2"><polygon fill="rgb(173,216,230)" fill-opacity="0.7" points="402.109375,133.359375 402.109375,177.65625 471.71875,177.65625 471.71875,133.359375" stroke="black" stroke-width="1.5" /><text dominant-baseline="middle" fill="black" font-family="Arial" font-size="12px" font-weight="bold" text-anchor="middle" x="437.96875" y="156.5625">Bathroom 2</text></g><g id="room_kitchen"><polygon fill="rgb(240,128,128)" fill-opacity="0.7" points="402.109375,186.09375 402.109375,215.625 471.71875,215.625 471.71875,186.09375" stroke="black" stroke-width="1.5" /><text dominant-baseline="middle" fill="black" font-family="Arial" font-size="12px" font-weight="bold" text-anchor="middle" x="437.96875" y="201.9140625">Kitchen</text></g><rect fill="red" fill-opacity="0.9" height="6.328125" id="main_door" stroke="darkred" stroke-width="3" width="35.859375" x="482.265625" y="257.8125" /><text dominant-baseline="middle" fill="white" font-family="Arial" font-size="9px" font-weight="bold" text-anchor="middle" x="500.1953125" y="260.9765625">Main Door</text><text fill="black" font-family="Arial" font-size="18px" font-weight="bold" text-anchor="middle" x="400.0" y="30">Floor Plan - ID: 37367</text></svg>