<?xml version="1.0" encoding="utf-8" ?>
<svg baseProfile="full" height="600px" version="1.1" viewBox="0 0 800 600" width="800px" xmlns="http://www.w3.org/2000/svg" xmlns:ev="http://www.w3.org/2001/xml-events" xmlns:xlink="http://www.w3.org/1999/xlink"><defs /><rect fill="white" height="600" width="800" x="0" y="0" /><polygon fill="none" id="floor_plan_boundary" points="201.71875,196.640625 201.71875,337.96875 391.5625,337.96875 393.671875,449.765625 486.484375,449.765625 486.484375,441.328125 402.109375,439.21875 402.109375,329.53125 212.265625,329.53125 210.15625,207.1875 402.109375,205.078125 404.21875,158.671875 509.6875,158.671875 511.796875,205.078125 587.734375,205.078125 587.734375,439.21875 516.015625,441.328125 516.015625,449.765625 596.171875,449.765625 598.28125,196.640625 522.34375,196.640625 520.234375,150.234375 393.671875,150.234375 391.5625,196.640625" stroke="black" stroke-linecap="butt" stroke-linejoin="miter" stroke-width="4" /><g id="room_living_room"><polygon fill="rgb(238,232,170)" fill-opacity="0.7" points="402.109375,207.1875 402.109375,297.890625 307.1875,300.0 307.1875,327.421875 404.21875,329.53125 404.21875,439.21875 509.6875,439.21875 509.6875,327.421875 545.546875,325.3125 545.546875,281.015625 509.6875,278.90625 509.6875,207.1875" stroke="black" stroke-width="1.5" /><text dominant-baseline="middle" fill="black" font-family="Arial" font-size="12px" font-weight="bold" text-anchor="middle" x="427.421875" y="324.2578125">Living Room</text></g><g id="room_master_bedroom"><polygon fill="rgb(255,165,0)" fill-opacity="0.7" points="212.265625,207.1875 212.265625,327.421875 294.53125,327.421875 294.53125,207.1875" stroke="black" stroke-width="1.5" /><text dominant-baseline="middle" fill="black" font-family="Arial" font-size="12px" font-weight="bold" text-anchor="middle" x="254.453125" y="268.359375">Master Bedroom</text></g><g id="room_common_room_2"><polygon fill="rgb(255,215,0)" fill-opacity="0.7" points="307.1875,207.1875 307.1875,291.5625 393.671875,291.5625 393.671875,207.1875" stroke="black" stroke-width="1.5" /><text dominant-baseline="middle" fill="black" font-family="Arial" font-size="12px" font-weight="bold" text-anchor="middle" x="351.484375" y="250.4296875">Common Room 2</text></g><g id="room_kitchen"><polygon fill="rgb(240,128,128)" fill-opacity="0.7" points="522.34375,337.96875 522.34375,439.21875 585.625,439.21875 585.625,337.96875" stroke="black" stroke-width="1.5" /><text dominant-baseline="middle" fill="black" font-family="Arial" font-size="12px" font-weight="bold" text-anchor="middle" x="555.0390625" y="389.6484375">Kitchen</text></g><g id="room_common_room"><polygon fill="rgb(255,215,0)" fill-opacity="0.7" points="522.34375,207.1875 522.34375,272.578125 587.734375,272.578125 587.734375,207.1875" stroke="black" stroke-width="1.5" /><text dominant-baseline="middle" fill="black" font-family="Arial" font-size="12px" font-weight="bold" text-anchor="middle" x="556.09375" y="240.9375">Common Room</text></g><g id="room_balcony"><polygon fill="rgb(107,142,35)" fill-opacity="0.7" points="404.21875,160.78125 404.21875,194.53125 509.6875,194.53125 509.6875,160.78125" stroke="black" stroke-width="1.5" /><text dominant-baseline="middle" fill="black" font-family="Arial" font-size="12px" font-weight="bold" text-anchor="middle" x="458.0078125" y="178.7109375">Balcony</text></g><g id="room_bathroom"><polygon fill="rgb(173,216,230)" fill-opacity="0.7" points="553.984375,281.015625 553.984375,325.3125 587.734375,325.3125 587.734375,281.015625" stroke="black" stroke-width="1.5" /><text dominant-baseline="middle" fill="black" font-family="Arial" font-size="12px" font-weight="bold" text-anchor="middle" x="571.9140625" y="304.21875">Bathroom</text></g><rect fill="red" fill-opacity="0.9" height="10.546875" id="main_door" stroke="darkred" stroke-width="3" width="27.421875" x="488.59375" y="441.328125" /><text dominant-baseline="middle" fill="white" font-family="Arial" font-size="9px" font-weight="bold" text-anchor="middle" x="502.3046875" y="446.6015625">Main Door</text><text fill="black" font-family="Arial" font-size="18px" font-weight="bold" text-anchor="middle" x="400.0" y="30">Floor Plan - ID: 37811</text></svg>