<?xml version="1.0" encoding="utf-8" ?>
<svg baseProfile="full" height="600px" version="1.1" viewBox="0 0 800 600" width="800px" xmlns="http://www.w3.org/2000/svg" xmlns:ev="http://www.w3.org/2001/xml-events" xmlns:xlink="http://www.w3.org/1999/xlink"><defs /><rect fill="white" height="600" width="800" x="0" y="0" /><polygon fill="none" id="floor_plan_boundary" points="279.765625,154.453125 279.765625,253.59375 237.578125,255.703125 237.578125,432.890625 340.9375,432.890625 343.046875,481.40625 471.71875,481.40625 473.828125,416.015625 562.421875,416.015625 562.421875,300.0 520.234375,293.671875 520.234375,308.4375 553.984375,310.546875 553.984375,405.46875 463.28125,407.578125 461.171875,472.96875 353.59375,472.96875 351.484375,424.453125 248.125,424.453125 246.015625,266.25 288.203125,264.140625 290.3125,162.890625 385.234375,162.890625 387.34375,127.03125 461.171875,127.03125 463.28125,162.890625 520.234375,165.0 520.234375,264.140625 528.671875,264.140625 528.671875,154.453125 473.828125,154.453125 471.71875,118.59375 376.796875,118.59375 374.6875,154.453125" stroke="black" stroke-linecap="butt" stroke-linejoin="miter" stroke-width="4" /><g id="room_living_room"><polygon fill="rgb(238,232,170)" fill-opacity="0.7" points="387.34375,190.3125 387.34375,264.140625 353.59375,266.25 353.59375,422.34375 461.171875,422.34375 461.171875,300.0 518.125,297.890625 518.125,266.25 461.171875,264.140625 461.171875,190.3125" stroke="black" stroke-width="1.5" /><text dominant-baseline="middle" fill="black" font-family="Arial" font-size="12px" font-weight="bold" text-anchor="middle" x="436.9140625" y="307.3828125">Living Room</text></g><g id="room_master_bedroom"><polygon fill="rgb(255,165,0)" fill-opacity="0.7" points="248.125,266.25 248.125,422.34375 340.9375,422.34375 340.9375,266.25" stroke="black" stroke-width="1.5" /><text dominant-baseline="middle" fill="black" font-family="Arial" font-size="12px" font-weight="bold" text-anchor="middle" x="295.5859375" y="345.3515625">Master Bedroom</text></g><g id="room_common_room_2"><polygon fill="rgb(255,215,0)" fill-opacity="0.7" points="290.3125,165.0 290.3125,253.59375 374.6875,253.59375 374.6875,165.0" stroke="black" stroke-width="1.5" /><text dominant-baseline="middle" fill="black" font-family="Arial" font-size="12px" font-weight="bold" text-anchor="middle" x="333.5546875" y="210.3515625">Common Room 2</text></g><g id="room_common_room"><polygon fill="rgb(255,215,0)" fill-opacity="0.7" points="473.828125,310.546875 473.828125,405.46875 551.875,405.46875 551.875,310.546875" stroke="black" stroke-width="1.5" /><text dominant-baseline="middle" fill="black" font-family="Arial" font-size="12px" font-weight="bold" text-anchor="middle" x="513.90625" y="359.0625">Common Room</text></g><g id="room_bathroom"><polygon fill="rgb(173,216,230)" fill-opacity="0.7" points="473.828125,165.0 473.828125,253.59375 518.125,253.59375 518.125,165.0" stroke="black" stroke-width="1.5" /><text dominant-baseline="middle" fill="black" font-family="Arial" font-size="12px" font-weight="bold" text-anchor="middle" x="497.03125" y="210.3515625">Bathroom</text></g><g id="room_balcony"><polygon fill="rgb(107,142,35)" fill-opacity="0.7" points="353.59375,435.0 353.59375,470.859375 461.171875,470.859375 461.171875,435.0" stroke="black" stroke-width="1.5" /><text dominant-baseline="middle" fill="black" font-family="Arial" font-size="12px" font-weight="bold" text-anchor="middle" x="408.4375" y="453.984375">Balcony</text></g><g id="room_kitchen"><polygon fill="rgb(240,128,128)" fill-opacity="0.7" points="387.34375,129.140625 387.34375,177.65625 461.171875,177.65625 461.171875,129.140625" stroke="black" stroke-width="1.5" /><text dominant-baseline="middle" fill="black" font-family="Arial" font-size="12px" font-weight="bold" text-anchor="middle" x="425.3125" y="154.453125">Kitchen</text></g><rect fill="red" fill-opacity="0.9" height="27.421875" id="main_door" stroke="darkred" stroke-width="3" width="10.546875" x="520.234375" y="266.25" /><text dominant-baseline="middle" fill="white" font-family="Arial" font-size="9px" font-weight="bold" text-anchor="middle" x="525.5078125" y="279.9609375">Main Door</text><text fill="black" font-family="Arial" font-size="18px" font-weight="bold" text-anchor="middle" x="400.0" y="30">Floor Plan - ID: 37959</text></svg>