<?xml version="1.0" encoding="utf-8" ?>
<svg baseProfile="full" height="600px" version="1.1" viewBox="0 0 800 600" width="800px" xmlns="http://www.w3.org/2000/svg" xmlns:ev="http://www.w3.org/2001/xml-events" xmlns:xlink="http://www.w3.org/1999/xlink"><defs /><rect fill="white" height="600" width="800" x="0" y="0" /><polygon fill="none" id="floor_plan_boundary" points="518.125,110.15625 423.203125,110.15625 421.09375,118.59375 260.78125,118.59375 260.78125,285.234375 267.109375,122.8125 427.421875,122.8125 429.53125,114.375 511.796875,114.375 513.90625,289.453125 535.0,291.5625 532.890625,475.078125 465.390625,475.078125 463.28125,462.421875 406.328125,462.421875 404.21875,487.734375 307.1875,487.734375 305.078125,329.53125 260.78125,327.421875 260.78125,333.75 300.859375,335.859375 300.859375,491.953125 410.546875,491.953125 412.65625,466.640625 456.953125,466.640625 459.0625,479.296875 539.21875,479.296875 539.21875,285.234375 518.125,283.125" stroke="black" stroke-linecap="butt" stroke-linejoin="miter" stroke-width="4" /><g id="room_living_room"><polygon fill="rgb(238,232,170)" fill-opacity="0.7" points="267.109375,190.3125 267.109375,327.421875 307.1875,329.53125 307.1875,430.78125 421.09375,430.78125 421.09375,285.234375 456.953125,283.125 456.953125,249.375 340.9375,249.375 338.828125,190.3125" stroke="black" stroke-width="1.5" /><text dominant-baseline="middle" fill="black" font-family="Arial" font-size="12px" font-weight="bold" text-anchor="middle" x="363.0859375" y="311.6015625">Living Room</text></g><g id="room_master_bedroom"><polygon fill="rgb(255,165,0)" fill-opacity="0.7" points="429.53125,291.5625 429.53125,460.3125 463.28125,460.3125 465.390625,472.96875 532.890625,472.96875 532.890625,344.296875 459.0625,344.296875 456.953125,291.5625" stroke="black" stroke-width="1.5" /><text dominant-baseline="middle" fill="black" font-family="Arial" font-size="12px" font-weight="bold" text-anchor="middle" x="482.265625" y="383.3203125">Master Bedroom</text></g><g id="room_common_room_2"><polygon fill="rgb(255,215,0)" fill-opacity="0.7" points="511.796875,116.484375 429.53125,116.484375 429.53125,240.9375 456.953125,240.9375 459.0625,213.515625 511.796875,213.515625" stroke="black" stroke-width="1.5" /><text dominant-baseline="middle" fill="black" font-family="Arial" font-size="12px" font-weight="bold" text-anchor="middle" x="471.71875" y="179.765625">Common Room 2</text></g><g id="room_common_room"><polygon fill="rgb(255,215,0)" fill-opacity="0.7" points="347.265625,124.921875 347.265625,240.9375 421.09375,240.9375 421.09375,124.921875" stroke="black" stroke-width="1.5" /><text dominant-baseline="middle" fill="black" font-family="Arial" font-size="12px" font-weight="bold" text-anchor="middle" x="385.234375" y="183.984375">Common Room</text></g><g id="room_balcony"><polygon fill="rgb(107,142,35)" fill-opacity="0.7" points="307.1875,485.625 404.21875,485.625 404.21875,462.421875 421.09375,460.3125 421.09375,439.21875 307.1875,439.21875" stroke="black" stroke-width="1.5" /><text dominant-baseline="middle" fill="black" font-family="Arial" font-size="12px" font-weight="bold" text-anchor="middle" x="365.1953125" y="463.4765625">Balcony</text></g><g id="room_kitchen"><polygon fill="rgb(240,128,128)" fill-opacity="0.7" points="267.109375,124.921875 267.109375,181.875 338.828125,181.875 338.828125,124.921875" stroke="black" stroke-width="1.5" /><text dominant-baseline="middle" fill="black" font-family="Arial" font-size="12px" font-weight="bold" text-anchor="middle" x="304.0234375" y="154.453125">Kitchen</text></g><g id="room_bathroom"><polygon fill="rgb(173,216,230)" fill-opacity="0.7" points="465.390625,291.5625 465.390625,335.859375 532.890625,335.859375 532.890625,291.5625" stroke="black" stroke-width="1.5" /><text dominant-baseline="middle" fill="black" font-family="Arial" font-size="12px" font-weight="bold" text-anchor="middle" x="500.1953125" y="314.765625">Bathroom</text></g><g id="room_bathroom_2"><polygon fill="rgb(173,216,230)" fill-opacity="0.7" points="465.390625,221.953125 465.390625,283.125 511.796875,283.125 511.796875,221.953125" stroke="black" stroke-width="1.5" /><text dominant-baseline="middle" fill="black" font-family="Arial" font-size="12px" font-weight="bold" text-anchor="middle" x="489.6484375" y="253.59375">Bathroom 2</text></g><rect fill="red" fill-opacity="0.9" height="40.078125" id="main_door" stroke="darkred" stroke-width="3" width="6.328125" x="260.78125" y="287.34375" /><text dominant-baseline="middle" fill="white" font-family="Arial" font-size="9px" font-weight="bold" text-anchor="middle" x="263.9453125" y="307.3828125">Main Door</text><text fill="black" font-family="Arial" font-size="18px" font-weight="bold" text-anchor="middle" x="400.0" y="30">Floor Plan - ID: 38037</text></svg>