<?xml version="1.0" encoding="utf-8" ?>
<svg baseProfile="full" height="600px" version="1.1" viewBox="0 0 800 600" width="800px" xmlns="http://www.w3.org/2000/svg" xmlns:ev="http://www.w3.org/2001/xml-events" xmlns:xlink="http://www.w3.org/1999/xlink"><defs /><rect fill="white" height="600" width="800" x="0" y="0" /><polygon fill="none" id="floor_plan_boundary" points="309.296875,95.390625 313.515625,259.921875 319.84375,103.828125 387.34375,103.828125 389.453125,141.796875 556.09375,143.90625 556.09375,447.65625 454.84375,449.765625 452.734375,496.171875 340.9375,496.171875 338.828125,449.765625 246.015625,449.765625 243.90625,262.03125 283.984375,259.921875 283.984375,251.484375 235.46875,251.484375 235.46875,458.203125 328.28125,458.203125 330.390625,504.609375 463.28125,504.609375 465.390625,458.203125 564.53125,458.203125 564.53125,133.359375 400.0,133.359375 397.890625,95.390625" stroke="black" stroke-linecap="butt" stroke-linejoin="miter" stroke-width="4" /><g id="room_living_room"><polygon fill="rgb(238,232,170)" fill-opacity="0.7" points="319.84375,165.0 319.84375,259.921875 246.015625,262.03125 246.015625,297.890625 340.9375,300.0 340.9375,447.65625 452.734375,447.65625 452.734375,291.5625 486.484375,289.453125 486.484375,259.921875 452.734375,257.8125 452.734375,205.078125 389.453125,205.078125 387.34375,165.0" stroke="black" stroke-width="1.5" /><text dominant-baseline="middle" fill="black" font-family="Arial" font-size="12px" font-weight="bold" text-anchor="middle" x="367.3046875" y="307.3828125">Living Room</text></g><g id="room_master_bedroom"><polygon fill="rgb(255,165,0)" fill-opacity="0.7" points="465.390625,302.109375 465.390625,447.65625 553.984375,447.65625 553.984375,314.765625 488.59375,314.765625 486.484375,302.109375" stroke="black" stroke-width="1.5" /><text dominant-baseline="middle" fill="black" font-family="Arial" font-size="12px" font-weight="bold" text-anchor="middle" x="510.7421875" y="375.9375">Master Bedroom</text></g><g id="room_common_room"><polygon fill="rgb(255,215,0)" fill-opacity="0.7" points="246.015625,310.546875 246.015625,447.65625 328.28125,447.65625 328.28125,310.546875" stroke="black" stroke-width="1.5" /><text dominant-baseline="middle" fill="black" font-family="Arial" font-size="12px" font-weight="bold" text-anchor="middle" x="288.203125" y="380.15625">Common Room</text></g><g id="room_common_room_2"><polygon fill="rgb(255,215,0)" fill-opacity="0.7" points="465.390625,143.90625 465.390625,251.484375 553.984375,251.484375 553.984375,143.90625" stroke="black" stroke-width="1.5" /><text dominant-baseline="middle" fill="black" font-family="Arial" font-size="12px" font-weight="bold" text-anchor="middle" x="510.7421875" y="198.75">Common Room 2</text></g><g id="room_balcony"><polygon fill="rgb(107,142,35)" fill-opacity="0.7" points="340.9375,460.3125 340.9375,494.0625 452.734375,494.0625 452.734375,460.3125" stroke="black" stroke-width="1.5" /><text dominant-baseline="middle" fill="black" font-family="Arial" font-size="12px" font-weight="bold" text-anchor="middle" x="397.890625" y="478.2421875">Balcony</text></g><g id="room_kitchen"><polygon fill="rgb(240,128,128)" fill-opacity="0.7" points="319.84375,105.9375 319.84375,152.34375 387.34375,152.34375 387.34375,105.9375" stroke="black" stroke-width="1.5" /><text dominant-baseline="middle" fill="black" font-family="Arial" font-size="12px" font-weight="bold" text-anchor="middle" x="354.6484375" y="130.1953125">Kitchen</text></g><g id="room_bathroom_2"><polygon fill="rgb(173,216,230)" fill-opacity="0.7" points="400.0,143.90625 400.0,196.640625 452.734375,196.640625 452.734375,143.90625" stroke="black" stroke-width="1.5" /><text dominant-baseline="middle" fill="black" font-family="Arial" font-size="12px" font-weight="bold" text-anchor="middle" x="427.421875" y="171.328125">Bathroom 2</text></g><g id="room_bathroom"><polygon fill="rgb(173,216,230)" fill-opacity="0.7" points="494.921875,259.921875 494.921875,302.109375 553.984375,302.109375 553.984375,259.921875" stroke="black" stroke-width="1.5" /><text dominant-baseline="middle" fill="black" font-family="Arial" font-size="12px" font-weight="bold" text-anchor="middle" x="525.5078125" y="282.0703125">Bathroom</text></g><rect fill="red" fill-opacity="0.9" height="10.546875" id="main_door" stroke="darkred" stroke-width="3" width="27.421875" x="286.09375" y="251.484375" /><text dominant-baseline="middle" fill="white" font-family="Arial" font-size="9px" font-weight="bold" text-anchor="middle" x="299.8046875" y="256.7578125">Main Door</text><text fill="black" font-family="Arial" font-size="18px" font-weight="bold" text-anchor="middle" x="400.0" y="30">Floor Plan - ID: 38103</text></svg>