<?xml version="1.0" encoding="utf-8" ?>
<svg baseProfile="full" height="600px" version="1.1" viewBox="0 0 800 600" width="800px" xmlns="http://www.w3.org/2000/svg" xmlns:ev="http://www.w3.org/2001/xml-events" xmlns:xlink="http://www.w3.org/1999/xlink"><defs /><rect fill="white" height="600" width="800" x="0" y="0" /><polygon fill="none" id="floor_plan_boundary" points="549.765625,91.171875 484.375,91.171875 482.265625,110.15625 412.65625,110.15625 410.546875,91.171875 250.234375,91.171875 250.234375,340.078125 273.4375,342.1875 275.546875,508.828125 381.015625,508.828125 385.234375,308.4375 503.359375,308.4375 503.359375,297.890625 372.578125,300.0 376.796875,502.5 281.875,504.609375 281.875,331.640625 258.671875,329.53125 258.671875,101.71875 400.0,99.609375 402.109375,114.375 492.8125,114.375 494.921875,99.609375 539.21875,99.609375 541.328125,207.1875 516.015625,209.296875 516.015625,251.484375 494.921875,253.59375 494.921875,268.359375 524.453125,262.03125 524.453125,219.84375 549.765625,217.734375" stroke="black" stroke-linecap="butt" stroke-linejoin="miter" stroke-width="4" /><g id="room_living_room"><polygon fill="rgb(238,232,170)" fill-opacity="0.7" points="482.265625,160.78125 412.65625,160.78125 406.328125,177.65625 353.59375,175.546875 351.484375,219.84375 260.78125,219.84375 260.78125,329.53125 372.578125,329.53125 372.578125,297.890625 492.8125,297.890625" stroke="black" stroke-width="1.5" /><text dominant-baseline="middle" fill="black" font-family="Arial" font-size="12px" font-weight="bold" text-anchor="middle" x="377.8515625" y="246.2109375">Living Room</text></g><g id="room_master_bedroom"><polygon fill="rgb(255,165,0)" fill-opacity="0.7" points="283.984375,342.1875 283.984375,470.859375 372.578125,470.859375 372.578125,342.1875" stroke="black" stroke-width="1.5" /><text dominant-baseline="middle" fill="black" font-family="Arial" font-size="12px" font-weight="bold" text-anchor="middle" x="329.3359375" y="407.578125">Master Bedroom</text></g><g id="room_common_room"><polygon fill="rgb(255,215,0)" fill-opacity="0.7" points="260.78125,101.71875 260.78125,207.1875 345.15625,207.1875 345.15625,101.71875" stroke="black" stroke-width="1.5" /><text dominant-baseline="middle" fill="black" font-family="Arial" font-size="12px" font-weight="bold" text-anchor="middle" x="304.0234375" y="155.5078125">Common Room</text></g><g id="room_kitchen"><polygon fill="rgb(240,128,128)" fill-opacity="0.7" points="539.21875,101.71875 494.921875,101.71875 494.921875,251.484375 513.90625,251.484375 513.90625,209.296875 539.21875,207.1875" stroke="black" stroke-width="1.5" /><text dominant-baseline="middle" fill="black" font-family="Arial" font-size="12px" font-weight="bold" text-anchor="middle" x="518.125" y="177.65625">Kitchen</text></g><g id="room_bathroom"><polygon fill="rgb(173,216,230)" fill-opacity="0.7" points="353.59375,101.71875 353.59375,167.109375 400.0,167.109375 400.0,101.71875" stroke="black" stroke-width="1.5" /><text dominant-baseline="middle" fill="black" font-family="Arial" font-size="12px" font-weight="bold" text-anchor="middle" x="377.8515625" y="135.46875">Bathroom</text></g><g id="room_balcony_2"><polygon fill="rgb(107,142,35)" fill-opacity="0.7" points="412.65625,116.484375 412.65625,148.125 482.265625,148.125 482.265625,116.484375" stroke="black" stroke-width="1.5" /><text dominant-baseline="middle" fill="black" font-family="Arial" font-size="12px" font-weight="bold" text-anchor="middle" x="448.515625" y="133.359375">Balcony 2</text></g><g id="room_balcony"><polygon fill="rgb(107,142,35)" fill-opacity="0.7" points="281.875,483.515625 281.875,502.5 374.6875,502.5 374.6875,483.515625" stroke="black" stroke-width="1.5" /><text dominant-baseline="middle" fill="black" font-family="Arial" font-size="12px" font-weight="bold" text-anchor="middle" x="329.3359375" y="494.0625">Balcony</text></g><rect fill="red" fill-opacity="0.9" height="27.421875" id="main_door" stroke="darkred" stroke-width="3" width="10.546875" x="494.921875" y="270.46875" /><text dominant-baseline="middle" fill="white" font-family="Arial" font-size="9px" font-weight="bold" text-anchor="middle" x="500.1953125" y="284.1796875">Main Door</text><text fill="black" font-family="Arial" font-size="18px" font-weight="bold" text-anchor="middle" x="400.0" y="30">Floor Plan - ID: 38151</text></svg>