<?xml version="1.0" encoding="utf-8" ?>
<svg baseProfile="full" height="600px" version="1.1" viewBox="0 0 800 600" width="800px" xmlns="http://www.w3.org/2000/svg" xmlns:ev="http://www.w3.org/2001/xml-events" xmlns:xlink="http://www.w3.org/1999/xlink"><defs /><rect fill="white" height="600" width="800" x="0" y="0" /><polygon fill="none" id="floor_plan_boundary" points="277.65625,152.34375 277.65625,392.8125 338.828125,394.921875 338.828125,477.1875 488.59375,477.1875 488.59375,437.109375 505.46875,435.0 505.46875,331.640625 501.25,428.671875 484.375,430.78125 482.265625,472.96875 345.15625,472.96875 343.046875,388.59375 281.875,386.484375 281.875,158.671875 391.5625,156.5625 393.671875,127.03125 516.015625,127.03125 518.125,304.21875 501.25,306.328125 522.34375,310.546875 522.34375,122.8125 387.34375,122.8125 385.234375,152.34375" stroke="black" stroke-linecap="butt" stroke-linejoin="miter" stroke-width="4" /><g id="room_living_room"><polygon fill="rgb(238,232,170)" fill-opacity="0.7" points="283.984375,285.234375 283.984375,386.484375 393.671875,386.484375 395.78125,428.671875 499.140625,428.671875 499.140625,306.328125 516.015625,304.21875 516.015625,285.234375" stroke="black" stroke-width="1.5" /><text dominant-baseline="middle" fill="black" font-family="Arial" font-size="12px" font-weight="bold" text-anchor="middle" x="401.0546875" y="358.0078125">Living Room</text></g><g id="room_master_bedroom"><polygon fill="rgb(255,165,0)" fill-opacity="0.7" points="393.671875,158.671875 393.671875,276.796875 516.015625,276.796875 516.015625,158.671875" stroke="black" stroke-width="1.5" /><text dominant-baseline="middle" fill="black" font-family="Arial" font-size="12px" font-weight="bold" text-anchor="middle" x="455.8984375" y="218.7890625">Master Bedroom</text></g><g id="room_common_room"><polygon fill="rgb(255,215,0)" fill-opacity="0.7" points="283.984375,158.671875 283.984375,276.796875 385.234375,276.796875 385.234375,158.671875" stroke="black" stroke-width="1.5" /><text dominant-baseline="middle" fill="black" font-family="Arial" font-size="12px" font-weight="bold" text-anchor="middle" x="335.6640625" y="218.7890625">Common Room</text></g><g id="room_kitchen"><polygon fill="rgb(240,128,128)" fill-opacity="0.7" points="345.15625,394.921875 345.15625,470.859375 387.34375,470.859375 387.34375,394.921875" stroke="black" stroke-width="1.5" /><text dominant-baseline="middle" fill="black" font-family="Arial" font-size="12px" font-weight="bold" text-anchor="middle" x="367.3046875" y="433.9453125">Kitchen</text></g><g id="room_bathroom"><polygon fill="rgb(173,216,230)" fill-opacity="0.7" points="395.78125,437.109375 395.78125,470.859375 482.265625,470.859375 482.265625,437.109375" stroke="black" stroke-width="1.5" /><text dominant-baseline="middle" fill="black" font-family="Arial" font-size="12px" font-weight="bold" text-anchor="middle" x="440.078125" y="455.0390625">Bathroom</text></g><g id="room_balcony"><polygon fill="rgb(107,142,35)" fill-opacity="0.7" points="393.671875,129.140625 393.671875,150.234375 516.015625,150.234375 516.015625,129.140625" stroke="black" stroke-width="1.5" /><text dominant-baseline="middle" fill="black" font-family="Arial" font-size="12px" font-weight="bold" text-anchor="middle" x="455.8984375" y="140.7421875">Balcony</text></g><text fill="black" font-family="Arial" font-size="18px" font-weight="bold" text-anchor="middle" x="400.0" y="30">Floor Plan - ID: 38212</text></svg>