<?xml version="1.0" encoding="utf-8" ?>
<svg baseProfile="full" height="600px" version="1.1" viewBox="0 0 800 600" width="800px" xmlns="http://www.w3.org/2000/svg" xmlns:ev="http://www.w3.org/2001/xml-events" xmlns:xlink="http://www.w3.org/1999/xlink"><defs /><rect fill="white" height="600" width="800" x="0" y="0" /><polygon fill="none" id="floor_plan_boundary" points="532.890625,116.484375 307.1875,116.484375 307.1875,270.46875 315.625,270.46875 317.734375,124.921875 522.34375,124.921875 524.453125,224.0625 558.203125,226.171875 558.203125,325.3125 475.9375,327.421875 473.828125,437.109375 370.46875,437.109375 368.359375,475.078125 243.90625,475.078125 241.796875,312.65625 315.625,310.546875 315.625,300.0 233.359375,302.109375 233.359375,483.515625 378.90625,483.515625 381.015625,445.546875 484.375,445.546875 484.375,337.96875 566.640625,335.859375 566.640625,215.625 532.890625,213.515625" stroke="black" stroke-linecap="butt" stroke-linejoin="miter" stroke-width="4" /><g id="room_living_room"><polygon fill="rgb(238,232,170)" fill-opacity="0.7" points="370.46875,127.03125 370.46875,224.0625 317.734375,226.171875 317.734375,300.0 330.390625,302.109375 330.390625,325.3125 556.09375,325.3125 556.09375,226.171875 427.421875,226.171875 425.3125,127.03125" stroke="black" stroke-width="1.5" /><text dominant-baseline="middle" fill="black" font-family="Arial" font-size="12px" font-weight="bold" text-anchor="middle" x="437.96875" y="227.2265625">Living Room</text></g><g id="room_master_bedroom"><polygon fill="rgb(255,165,0)" fill-opacity="0.7" points="243.90625,312.65625 243.90625,435.0 368.359375,435.0 368.359375,337.96875 319.84375,337.96875 317.734375,312.65625" stroke="black" stroke-width="1.5" /><text dominant-baseline="middle" fill="black" font-family="Arial" font-size="12px" font-weight="bold" text-anchor="middle" x="307.1875" y="374.8828125">Master Bedroom</text></g><g id="room_common_room_2"><polygon fill="rgb(255,215,0)" fill-opacity="0.7" points="437.96875,127.03125 437.96875,213.515625 522.34375,213.515625 522.34375,127.03125" stroke="black" stroke-width="1.5" /><text dominant-baseline="middle" fill="black" font-family="Arial" font-size="12px" font-weight="bold" text-anchor="middle" x="481.2109375" y="171.328125">Common Room 2</text></g><g id="room_common_room"><polygon fill="rgb(255,215,0)" fill-opacity="0.7" points="381.015625,337.96875 381.015625,407.578125 473.828125,407.578125 473.828125,337.96875" stroke="black" stroke-width="1.5" /><text dominant-baseline="middle" fill="black" font-family="Arial" font-size="12px" font-weight="bold" text-anchor="middle" x="428.4765625" y="373.828125">Common Room</text></g><g id="room_bathroom"><polygon fill="rgb(173,216,230)" fill-opacity="0.7" points="317.734375,127.03125 317.734375,213.515625 362.03125,213.515625 362.03125,127.03125" stroke="black" stroke-width="1.5" /><text dominant-baseline="middle" fill="black" font-family="Arial" font-size="12px" font-weight="bold" text-anchor="middle" x="340.9375" y="171.328125">Bathroom</text></g><g id="room_balcony"><polygon fill="rgb(107,142,35)" fill-opacity="0.7" points="243.90625,447.65625 243.90625,472.96875 368.359375,472.96875 368.359375,447.65625" stroke="black" stroke-width="1.5" /><text dominant-baseline="middle" fill="black" font-family="Arial" font-size="12px" font-weight="bold" text-anchor="middle" x="307.1875" y="461.3671875">Balcony</text></g><g id="room_balcony_2"><polygon fill="rgb(107,142,35)" fill-opacity="0.7" points="381.015625,420.234375 381.015625,435.0 473.828125,435.0 473.828125,420.234375" stroke="black" stroke-width="1.5" /><text dominant-baseline="middle" fill="black" font-family="Arial" font-size="12px" font-weight="bold" text-anchor="middle" x="428.4765625" y="428.671875">Balcony 2</text></g><rect fill="red" fill-opacity="0.9" height="27.421875" id="main_door" stroke="darkred" stroke-width="3" width="10.546875" x="307.1875" y="272.578125" /><text dominant-baseline="middle" fill="white" font-family="Arial" font-size="9px" font-weight="bold" text-anchor="middle" x="312.4609375" y="286.2890625">Main Door</text><text fill="black" font-family="Arial" font-size="18px" font-weight="bold" text-anchor="middle" x="400.0" y="30">Floor Plan - ID: 38243</text></svg>