<?xml version="1.0" encoding="utf-8" ?>
<svg baseProfile="full" height="600px" version="1.1" viewBox="0 0 800 600" width="800px" xmlns="http://www.w3.org/2000/svg" xmlns:ev="http://www.w3.org/2001/xml-events" xmlns:xlink="http://www.w3.org/1999/xlink"><defs /><rect fill="white" height="600" width="800" x="0" y="0" /><polygon fill="none" id="floor_plan_boundary" points="551.875,72.1875 423.203125,72.1875 421.09375,137.578125 336.71875,137.578125 334.609375,152.34375 248.125,152.34375 248.125,350.625 300.859375,352.734375 300.859375,475.078125 395.78125,475.078125 397.890625,527.8125 475.9375,527.8125 473.828125,297.890625 467.5,297.890625 467.5,517.265625 408.4375,519.375 406.328125,466.640625 311.40625,466.640625 309.296875,342.1875 256.5625,340.078125 256.5625,162.890625 345.15625,160.78125 347.265625,146.015625 431.640625,146.015625 433.75,80.625 541.328125,80.625 543.4375,295.78125 503.359375,297.890625 503.359375,306.328125 551.875,306.328125" stroke="black" stroke-linecap="butt" stroke-linejoin="miter" stroke-width="4" /><g id="room_living_room"><polygon fill="rgb(238,232,170)" fill-opacity="0.7" points="541.328125,135.46875 433.75,135.46875 433.75,262.03125 311.40625,264.140625 311.40625,291.5625 406.328125,291.5625 408.4375,373.828125 465.390625,373.828125 465.390625,297.890625 541.328125,295.78125" stroke="black" stroke-width="1.5" /><text dominant-baseline="middle" fill="black" font-family="Arial" font-size="12px" font-weight="bold" text-anchor="middle" x="427.421875" y="255.703125">Living Room</text></g><g id="room_master_bedroom"><polygon fill="rgb(255,165,0)" fill-opacity="0.7" points="311.40625,304.21875 311.40625,464.53125 395.78125,464.53125 395.78125,304.21875" stroke="black" stroke-width="1.5" /><text dominant-baseline="middle" fill="black" font-family="Arial" font-size="12px" font-weight="bold" text-anchor="middle" x="354.6484375" y="385.4296875">Master Bedroom</text></g><g id="room_common_room_2"><polygon fill="rgb(255,215,0)" fill-opacity="0.7" points="347.265625,148.125 347.265625,251.484375 421.09375,251.484375 421.09375,148.125" stroke="black" stroke-width="1.5" /><text dominant-baseline="middle" fill="black" font-family="Arial" font-size="12px" font-weight="bold" text-anchor="middle" x="385.234375" y="200.859375">Common Room 2</text></g><g id="room_common_room"><polygon fill="rgb(255,215,0)" fill-opacity="0.7" points="258.671875,162.890625 258.671875,251.484375 334.609375,251.484375 334.609375,162.890625" stroke="black" stroke-width="1.5" /><text dominant-baseline="middle" fill="black" font-family="Arial" font-size="12px" font-weight="bold" text-anchor="middle" x="297.6953125" y="208.2421875">Common Room</text></g><g id="room_kitchen"><polygon fill="rgb(240,128,128)" fill-opacity="0.7" points="408.4375,386.484375 408.4375,464.53125 465.390625,464.53125 465.390625,386.484375" stroke="black" stroke-width="1.5" /><text dominant-baseline="middle" fill="black" font-family="Arial" font-size="12px" font-weight="bold" text-anchor="middle" x="437.96875" y="426.5625">Kitchen</text></g><g id="room_balcony_2"><polygon fill="rgb(107,142,35)" fill-opacity="0.7" points="433.75,82.734375 433.75,122.8125 541.328125,122.8125 541.328125,82.734375" stroke="black" stroke-width="1.5" /><text dominant-baseline="middle" fill="black" font-family="Arial" font-size="12px" font-weight="bold" text-anchor="middle" x="488.59375" y="103.828125">Balcony 2</text></g><g id="room_bathroom"><polygon fill="rgb(173,216,230)" fill-opacity="0.7" points="258.671875,264.140625 258.671875,340.078125 298.75,340.078125 298.75,264.140625" stroke="black" stroke-width="1.5" /><text dominant-baseline="middle" fill="black" font-family="Arial" font-size="12px" font-weight="bold" text-anchor="middle" x="279.765625" y="303.1640625">Bathroom</text></g><g id="room_balcony"><polygon fill="rgb(107,142,35)" fill-opacity="0.7" points="408.4375,477.1875 408.4375,517.265625 465.390625,517.265625 465.390625,477.1875" stroke="black" stroke-width="1.5" /><text dominant-baseline="middle" fill="black" font-family="Arial" font-size="12px" font-weight="bold" text-anchor="middle" x="437.96875" y="498.28125">Balcony</text></g><rect fill="red" fill-opacity="0.9" height="10.546875" id="main_door" stroke="darkred" stroke-width="3" width="27.421875" x="475.9375" y="297.890625" /><text dominant-baseline="middle" fill="white" font-family="Arial" font-size="9px" font-weight="bold" text-anchor="middle" x="489.6484375" y="303.1640625">Main Door</text><text fill="black" font-family="Arial" font-size="18px" font-weight="bold" text-anchor="middle" x="400.0" y="30">Floor Plan - ID: 38352</text></svg>