<?xml version="1.0" encoding="utf-8" ?>
<svg baseProfile="full" height="600px" version="1.1" viewBox="0 0 800 600" width="800px" xmlns="http://www.w3.org/2000/svg" xmlns:ev="http://www.w3.org/2001/xml-events" xmlns:xlink="http://www.w3.org/1999/xlink"><defs /><rect fill="white" height="600" width="800" x="0" y="0" /><polygon fill="none" id="floor_plan_boundary" points="203.828125,196.640625 203.828125,375.9375 452.734375,375.9375 454.84375,424.453125 596.171875,424.453125 596.171875,272.578125 587.734375,272.578125 585.625,416.015625 465.390625,416.015625 463.28125,367.5 212.265625,365.390625 212.265625,207.1875 231.25,205.078125 233.359375,183.984375 585.625,183.984375 587.734375,243.046875 596.171875,243.046875 596.171875,175.546875 222.8125,175.546875 222.8125,194.53125" stroke="black" stroke-linecap="butt" stroke-linejoin="miter" stroke-width="4" /><g id="room_living_room"><polygon fill="rgb(238,232,170)" fill-opacity="0.7" points="269.21875,186.09375 269.21875,274.6875 585.625,274.6875 585.625,238.828125 532.890625,236.71875 532.890625,186.09375" stroke="black" stroke-width="1.5" /><text dominant-baseline="middle" fill="black" font-family="Arial" font-size="12px" font-weight="bold" text-anchor="middle" x="428.4765625" y="231.4453125">Living Room</text></g><g id="room_common_room"><polygon fill="rgb(255,215,0)" fill-opacity="0.7" points="507.578125,287.34375 507.578125,413.90625 585.625,413.90625 585.625,287.34375" stroke="black" stroke-width="1.5" /><text dominant-baseline="middle" fill="black" font-family="Arial" font-size="12px" font-weight="bold" text-anchor="middle" x="547.65625" y="351.6796875">Common Room</text></g><g id="room_master_bedroom"><polygon fill="rgb(255,165,0)" fill-opacity="0.7" points="269.21875,365.390625 366.25,365.390625 366.25,314.765625 423.203125,312.65625 423.203125,287.34375 269.21875,287.34375" stroke="black" stroke-width="1.5" /><text dominant-baseline="middle" fill="black" font-family="Arial" font-size="12px" font-weight="bold" text-anchor="middle" x="347.265625" y="327.421875">Master Bedroom</text></g><g id="room_balcony_2"><polygon fill="rgb(107,142,35)" fill-opacity="0.7" points="233.359375,186.09375 233.359375,205.078125 214.375,207.1875 214.375,365.390625 256.5625,365.390625 256.5625,186.09375" stroke="black" stroke-width="1.5" /><text dominant-baseline="middle" fill="black" font-family="Arial" font-size="12px" font-weight="bold" text-anchor="middle" x="236.5234375" y="276.796875">Balcony 2</text></g><g id="room_common_room_2"><polygon fill="rgb(255,215,0)" fill-opacity="0.7" points="431.640625,287.34375 431.640625,365.390625 494.921875,365.390625 494.921875,287.34375" stroke="black" stroke-width="1.5" /><text dominant-baseline="middle" fill="black" font-family="Arial" font-size="12px" font-weight="bold" text-anchor="middle" x="464.3359375" y="327.421875">Common Room 2</text></g><g id="room_bathroom_2"><polygon fill="rgb(173,216,230)" fill-opacity="0.7" points="541.328125,186.09375 541.328125,230.390625 585.625,230.390625 585.625,186.09375" stroke="black" stroke-width="1.5" /><text dominant-baseline="middle" fill="black" font-family="Arial" font-size="12px" font-weight="bold" text-anchor="middle" x="564.53125" y="209.296875">Bathroom 2</text></g><g id="room_bathroom"><polygon fill="rgb(173,216,230)" fill-opacity="0.7" points="378.90625,325.3125 378.90625,365.390625 423.203125,365.390625 423.203125,325.3125" stroke="black" stroke-width="1.5" /><text dominant-baseline="middle" fill="black" font-family="Arial" font-size="12px" font-weight="bold" text-anchor="middle" x="402.109375" y="346.40625">Bathroom</text></g><g id="room_balcony"><polygon fill="rgb(107,142,35)" fill-opacity="0.7" points="465.390625,378.046875 465.390625,413.90625 494.921875,413.90625 494.921875,378.046875" stroke="black" stroke-width="1.5" /><text dominant-baseline="middle" fill="black" font-family="Arial" font-size="12px" font-weight="bold" text-anchor="middle" x="481.2109375" y="397.03125">Balcony</text></g><rect fill="red" fill-opacity="0.9" height="27.421875" id="main_door" stroke="darkred" stroke-width="3" width="10.546875" x="587.734375" y="245.15625" /><text dominant-baseline="middle" fill="white" font-family="Arial" font-size="9px" font-weight="bold" text-anchor="middle" x="593.0078125" y="258.8671875">Main Door</text><text fill="black" font-family="Arial" font-size="18px" font-weight="bold" text-anchor="middle" x="400.0" y="30">Floor Plan - ID: 38373</text></svg>