<?xml version="1.0" encoding="utf-8" ?>
<svg baseProfile="full" height="600px" version="1.1" viewBox="0 0 800 600" width="800px" xmlns="http://www.w3.org/2000/svg" xmlns:ev="http://www.w3.org/2001/xml-events" xmlns:xlink="http://www.w3.org/1999/xlink"><defs /><rect fill="white" height="600" width="800" x="0" y="0" /><polygon fill="none" id="floor_plan_boundary" points="214.375,116.484375 214.375,230.390625 271.328125,230.390625 273.4375,302.109375 296.640625,304.21875 298.75,498.28125 585.625,500.390625 585.625,236.71875 492.8125,236.71875 490.703125,188.203125 387.34375,188.203125 385.234375,99.609375 357.8125,99.609375 357.8125,108.046875 376.796875,110.15625 376.796875,196.640625 480.15625,196.640625 482.265625,245.15625 577.1875,247.265625 577.1875,489.84375 302.96875,491.953125 305.078125,293.671875 281.875,291.5625 281.875,221.953125 222.8125,219.84375 222.8125,127.03125 321.953125,124.921875 319.84375,99.609375 311.40625,116.484375" stroke="black" stroke-linecap="butt" stroke-linejoin="miter" stroke-width="4" /><g id="room_living_room"><polygon fill="rgb(238,232,170)" fill-opacity="0.7" points="224.921875,127.03125 224.921875,169.21875 283.984375,171.328125 283.984375,291.5625 307.1875,293.671875 307.1875,443.4375 421.09375,443.4375 421.09375,333.75 505.46875,331.640625 505.46875,302.109375 374.6875,297.890625 374.6875,110.15625" stroke="black" stroke-width="1.5" /><text dominant-baseline="middle" fill="black" font-family="Arial" font-size="12px" font-weight="bold" text-anchor="middle" x="366.25" y="277.8515625">Living Room</text></g><g id="room_master_bedroom"><polygon fill="rgb(255,165,0)" fill-opacity="0.7" points="478.046875,340.078125 480.15625,489.84375 575.078125,489.84375 575.078125,390.703125 507.578125,390.703125 505.46875,340.078125" stroke="black" stroke-width="1.5" /><text dominant-baseline="middle" fill="black" font-family="Arial" font-size="12px" font-weight="bold" text-anchor="middle" x="527.6171875" y="416.015625">Master Bedroom</text></g><g id="room_common_room_2"><polygon fill="rgb(255,215,0)" fill-opacity="0.7" points="385.234375,198.75 385.234375,293.671875 482.265625,293.671875 480.15625,198.75" stroke="black" stroke-width="1.5" /><text dominant-baseline="middle" fill="black" font-family="Arial" font-size="12px" font-weight="bold" text-anchor="middle" x="434.8046875" y="247.265625">Common Room 2</text></g><g id="room_common_room"><polygon fill="rgb(255,215,0)" fill-opacity="0.7" points="490.703125,247.265625 490.703125,293.671875 513.90625,295.78125 513.90625,331.640625 575.078125,331.640625 575.078125,247.265625" stroke="black" stroke-width="1.5" /><text dominant-baseline="middle" fill="black" font-family="Arial" font-size="12px" font-weight="bold" text-anchor="middle" x="533.9453125" y="290.5078125">Common Room</text></g><g id="room_balcony"><polygon fill="rgb(107,142,35)" fill-opacity="0.7" points="305.078125,456.09375 305.078125,491.953125 467.5,491.953125 467.5,456.09375" stroke="black" stroke-width="1.5" /><text dominant-baseline="middle" fill="black" font-family="Arial" font-size="12px" font-weight="bold" text-anchor="middle" x="387.34375" y="475.078125">Balcony</text></g><g id="room_bathroom_2"><polygon fill="rgb(173,216,230)" fill-opacity="0.7" points="429.53125,340.078125 429.53125,443.4375 469.609375,443.4375 469.609375,340.078125" stroke="black" stroke-width="1.5" /><text dominant-baseline="middle" fill="black" font-family="Arial" font-size="12px" font-weight="bold" text-anchor="middle" x="450.625" y="392.8125">Bathroom 2</text></g><g id="room_bathroom"><polygon fill="rgb(173,216,230)" fill-opacity="0.7" points="513.90625,340.078125 513.90625,382.265625 575.078125,382.265625 575.078125,340.078125" stroke="black" stroke-width="1.5" /><text dominant-baseline="middle" fill="black" font-family="Arial" font-size="12px" font-weight="bold" text-anchor="middle" x="545.546875" y="362.2265625">Bathroom</text></g><g id="room_balcony_2"><polygon fill="rgb(107,142,35)" fill-opacity="0.7" points="224.921875,181.875 224.921875,219.84375 271.328125,219.84375 271.328125,181.875" stroke="black" stroke-width="1.5" /><text dominant-baseline="middle" fill="black" font-family="Arial" font-size="12px" font-weight="bold" text-anchor="middle" x="249.1796875" y="201.9140625">Balcony 2</text></g><rect fill="red" fill-opacity="0.9" height="10.546875" id="main_door" stroke="darkred" stroke-width="3" width="35.859375" x="321.953125" y="99.609375" /><text dominant-baseline="middle" fill="white" font-family="Arial" font-size="9px" font-weight="bold" text-anchor="middle" x="339.8828125" y="104.8828125">Main Door</text><text fill="black" font-family="Arial" font-size="18px" font-weight="bold" text-anchor="middle" x="400.0" y="30">Floor Plan - ID: 38370</text></svg>