<?xml version="1.0" encoding="utf-8" ?>
<svg baseProfile="full" height="600px" version="1.1" viewBox="0 0 800 600" width="800px" xmlns="http://www.w3.org/2000/svg" xmlns:ev="http://www.w3.org/2001/xml-events" xmlns:xlink="http://www.w3.org/1999/xlink"><defs /><rect fill="white" height="600" width="800" x="0" y="0" /><polygon fill="none" id="floor_plan_boundary" points="480.15625,129.140625 408.4375,129.140625 406.328125,165.0 248.125,165.0 248.125,456.09375 370.46875,456.09375 372.578125,470.859375 473.828125,470.859375 475.9375,437.109375 551.875,437.109375 551.875,297.890625 501.25,297.890625 501.25,306.328125 543.4375,308.4375 541.328125,428.671875 465.390625,428.671875 463.28125,462.421875 383.125,462.421875 381.015625,447.65625 256.5625,445.546875 256.5625,175.546875 416.875,173.4375 418.984375,137.578125 469.609375,137.578125 471.71875,173.4375 501.25,175.546875 501.25,268.359375 509.6875,268.359375 509.6875,165.0 480.15625,162.890625" stroke="black" stroke-linecap="butt" stroke-linejoin="miter" stroke-width="4" /><g id="room_living_room"><polygon fill="rgb(238,232,170)" fill-opacity="0.7" points="357.8125,247.265625 355.703125,278.90625 324.0625,278.90625 324.0625,312.65625 357.8125,314.765625 357.8125,445.546875 381.015625,445.546875 383.125,460.3125 463.28125,460.3125 463.28125,297.890625 499.140625,295.78125 499.140625,264.140625 408.4375,264.140625 406.328125,247.265625" stroke="black" stroke-width="1.5" /><text dominant-baseline="middle" fill="black" font-family="Arial" font-size="12px" font-weight="bold" text-anchor="middle" x="412.65625" y="354.84375">Living Room</text></g><g id="room_master_bedroom"><polygon fill="rgb(255,165,0)" fill-opacity="0.7" points="258.671875,321.09375 258.671875,445.546875 345.15625,445.546875 345.15625,321.09375" stroke="black" stroke-width="1.5" /><text dominant-baseline="middle" fill="black" font-family="Arial" font-size="12px" font-weight="bold" text-anchor="middle" x="302.96875" y="384.375">Master Bedroom</text></g><g id="room_common_room_2"><polygon fill="rgb(255,215,0)" fill-opacity="0.7" points="258.671875,175.546875 258.671875,266.25 345.15625,266.25 345.15625,175.546875" stroke="black" stroke-width="1.5" /><text dominant-baseline="middle" fill="black" font-family="Arial" font-size="12px" font-weight="bold" text-anchor="middle" x="302.96875" y="221.953125">Common Room 2</text></g><g id="room_common_room"><polygon fill="rgb(255,215,0)" fill-opacity="0.7" points="475.9375,308.4375 475.9375,426.5625 541.328125,426.5625 541.328125,308.4375" stroke="black" stroke-width="1.5" /><text dominant-baseline="middle" fill="black" font-family="Arial" font-size="12px" font-weight="bold" text-anchor="middle" x="509.6875" y="368.5546875">Common Room</text></g><g id="room_kitchen"><polygon fill="rgb(240,128,128)" fill-opacity="0.7" points="418.984375,175.546875 418.984375,251.484375 499.140625,251.484375 499.140625,175.546875" stroke="black" stroke-width="1.5" /><text dominant-baseline="middle" fill="black" font-family="Arial" font-size="12px" font-weight="bold" text-anchor="middle" x="460.1171875" y="214.5703125">Kitchen</text></g><g id="room_bathroom"><polygon fill="rgb(173,216,230)" fill-opacity="0.7" points="357.8125,175.546875 357.8125,234.609375 406.328125,234.609375 406.328125,175.546875" stroke="black" stroke-width="1.5" /><text dominant-baseline="middle" fill="black" font-family="Arial" font-size="12px" font-weight="bold" text-anchor="middle" x="383.125" y="206.1328125">Bathroom</text></g><g id="room_room_8"><polygon fill="rgb(221,160,221)" fill-opacity="0.7" points="258.671875,278.90625 258.671875,312.65625 315.625,312.65625 315.625,278.90625" stroke="black" stroke-width="1.5" /><text dominant-baseline="middle" fill="black" font-family="Arial" font-size="12px" font-weight="bold" text-anchor="middle" x="288.203125" y="296.8359375">Room 8</text></g><g id="room_balcony"><polygon fill="rgb(107,142,35)" fill-opacity="0.7" points="418.984375,139.6875 418.984375,162.890625 469.609375,162.890625 469.609375,139.6875" stroke="black" stroke-width="1.5" /><text dominant-baseline="middle" fill="black" font-family="Arial" font-size="12px" font-weight="bold" text-anchor="middle" x="445.3515625" y="152.34375">Balcony</text></g><rect fill="red" fill-opacity="0.9" height="27.421875" id="main_door" stroke="darkred" stroke-width="3" width="10.546875" x="501.25" y="270.46875" /><text dominant-baseline="middle" fill="white" font-family="Arial" font-size="9px" font-weight="bold" text-anchor="middle" x="506.5234375" y="284.1796875">Main Door</text><text fill="black" font-family="Arial" font-size="18px" font-weight="bold" text-anchor="middle" x="400.0" y="30">Floor Plan - ID: 38759</text></svg>