<?xml version="1.0" encoding="utf-8" ?>
<svg baseProfile="full" height="600px" version="1.1" viewBox="0 0 800 600" width="800px" xmlns="http://www.w3.org/2000/svg" xmlns:ev="http://www.w3.org/2001/xml-events" xmlns:xlink="http://www.w3.org/1999/xlink"><defs /><rect fill="white" height="600" width="800" x="0" y="0" /><polygon fill="none" id="floor_plan_boundary" points="520.234375,61.640625 385.234375,61.640625 383.125,76.40625 288.203125,76.40625 288.203125,196.640625 279.765625,198.75 288.203125,538.359375 410.546875,538.359375 410.546875,363.28125 503.359375,361.171875 503.359375,302.109375 473.828125,293.671875 473.828125,310.546875 494.921875,312.65625 492.8125,352.734375 402.109375,352.734375 402.109375,527.8125 296.640625,527.8125 296.640625,352.734375 288.203125,350.625 296.640625,86.953125 393.671875,84.84375 395.78125,70.078125 509.6875,70.078125 511.796875,234.609375 475.9375,236.71875 480.15625,262.03125 482.265625,240.9375 520.234375,240.9375" stroke="black" stroke-linecap="butt" stroke-linejoin="miter" stroke-width="4" /><g id="room_living_room"><polygon fill="rgb(238,232,170)" fill-opacity="0.7" points="509.6875,72.1875 395.78125,72.1875 395.78125,264.140625 372.578125,266.25 372.578125,352.734375 402.109375,350.625 404.21875,302.109375 471.71875,302.109375 473.828125,236.71875 509.6875,234.609375" stroke="black" stroke-width="1.5" /><text dominant-baseline="middle" fill="black" font-family="Arial" font-size="12px" font-weight="bold" text-anchor="middle" x="442.1875" y="213.515625">Living Room</text></g><g id="room_master_bedroom"><polygon fill="rgb(255,165,0)" fill-opacity="0.7" points="400.0,361.171875 370.46875,363.28125 366.25,420.234375 298.75,418.125 298.75,527.8125 400.0,527.8125" stroke="black" stroke-width="1.5" /><text dominant-baseline="middle" fill="black" font-family="Arial" font-size="12px" font-weight="bold" text-anchor="middle" x="350.4296875" y="445.546875">Master Bedroom</text></g><g id="room_common_room_2"><polygon fill="rgb(255,215,0)" fill-opacity="0.7" points="298.75,86.953125 298.75,198.75 383.125,198.75 383.125,86.953125" stroke="black" stroke-width="1.5" /><text dominant-baseline="middle" fill="black" font-family="Arial" font-size="12px" font-weight="bold" text-anchor="middle" x="341.9921875" y="143.90625">Common Room 2</text></g><g id="room_common_room"><polygon fill="rgb(255,215,0)" fill-opacity="0.7" points="290.3125,266.25 290.3125,350.625 359.921875,350.625 359.921875,266.25" stroke="black" stroke-width="1.5" /><text dominant-baseline="middle" fill="black" font-family="Arial" font-size="12px" font-weight="bold" text-anchor="middle" x="326.171875" y="309.4921875">Common Room</text></g><g id="room_kitchen"><polygon fill="rgb(240,128,128)" fill-opacity="0.7" points="290.3125,209.296875 290.3125,253.59375 383.125,253.59375 383.125,207.1875" stroke="black" stroke-width="1.5" /><text dominant-baseline="middle" fill="black" font-family="Arial" font-size="12px" font-weight="bold" text-anchor="middle" x="337.7734375" y="231.4453125">Kitchen</text></g><g id="room_bathroom_2"><polygon fill="rgb(173,216,230)" fill-opacity="0.7" points="410.546875,310.546875 410.546875,350.625 492.8125,350.625 492.8125,312.65625" stroke="black" stroke-width="1.5" /><text dominant-baseline="middle" fill="black" font-family="Arial" font-size="12px" font-weight="bold" text-anchor="middle" x="452.734375" y="331.640625">Bathroom 2</text></g><g id="room_bathroom"><polygon fill="rgb(173,216,230)" fill-opacity="0.7" points="298.75,363.28125 298.75,409.6875 362.03125,409.6875 362.03125,363.28125" stroke="black" stroke-width="1.5" /><text dominant-baseline="middle" fill="black" font-family="Arial" font-size="12px" font-weight="bold" text-anchor="middle" x="331.4453125" y="387.5390625">Bathroom</text></g><rect fill="red" fill-opacity="0.9" height="31.640625" id="main_door" stroke="darkred" stroke-width="3" width="6.328125" x="475.9375" y="264.140625" /><text dominant-baseline="middle" fill="white" font-family="Arial" font-size="9px" font-weight="bold" text-anchor="middle" x="479.1015625" y="279.9609375">Main Door</text><text fill="black" font-family="Arial" font-size="18px" font-weight="bold" text-anchor="middle" x="400.0" y="30">Floor Plan - ID: 39099</text></svg>