<?xml version="1.0" encoding="utf-8" ?>
<svg baseProfile="full" height="600px" version="1.1" viewBox="0 0 800 600" width="800px" xmlns="http://www.w3.org/2000/svg" xmlns:ev="http://www.w3.org/2001/xml-events" xmlns:xlink="http://www.w3.org/1999/xlink"><defs /><rect fill="white" height="600" width="800" x="0" y="0" /><polygon fill="none" id="floor_plan_boundary" points="324.0625,99.609375 324.0625,264.140625 332.5,264.140625 334.609375,108.046875 406.328125,108.046875 408.4375,146.015625 437.96875,146.015625 437.96875,120.703125 475.9375,120.703125 475.9375,146.015625 509.6875,148.125 507.578125,449.765625 478.046875,449.765625 475.9375,470.859375 437.96875,470.859375 437.96875,447.65625 408.4375,447.65625 406.328125,491.953125 292.421875,491.953125 290.3125,325.3125 332.5,323.203125 332.5,293.671875 324.0625,293.671875 321.953125,314.765625 281.875,314.765625 281.875,500.390625 416.875,500.390625 418.984375,458.203125 431.640625,460.3125 431.640625,475.078125 482.265625,475.078125 484.375,458.203125 518.125,458.203125 518.125,137.578125 484.375,137.578125 482.265625,116.484375 431.640625,116.484375 431.640625,135.46875 418.984375,137.578125 416.875,99.609375" stroke="black" stroke-linecap="butt" stroke-linejoin="miter" stroke-width="4" /><g id="room_living_room"><polygon fill="rgb(238,232,170)" fill-opacity="0.7" points="334.609375,177.65625 334.609375,323.203125 292.421875,325.3125 292.421875,447.65625 406.328125,447.65625 408.4375,316.875 444.296875,314.765625 444.296875,272.578125 408.4375,270.46875 408.4375,177.65625" stroke="black" stroke-width="1.5" /><text dominant-baseline="middle" fill="black" font-family="Arial" font-size="12px" font-weight="bold" text-anchor="middle" x="369.4140625" y="313.7109375">Living Room</text></g><g id="room_master_bedroom"><polygon fill="rgb(255,165,0)" fill-opacity="0.7" points="416.875,323.203125 416.875,445.546875 440.078125,447.65625 437.96875,468.75 475.9375,468.75 478.046875,447.65625 507.578125,447.65625 507.578125,323.203125" stroke="black" stroke-width="1.5" /><text dominant-baseline="middle" fill="black" font-family="Arial" font-size="12px" font-weight="bold" text-anchor="middle" x="463.28125" y="397.03125">Master Bedroom</text></g><g id="room_common_room"><polygon fill="rgb(255,215,0)" fill-opacity="0.7" points="437.96875,122.8125 440.078125,146.015625 416.875,148.125 416.875,264.140625 444.296875,264.140625 446.40625,253.59375 507.578125,253.59375 507.578125,148.125 475.9375,148.125 475.9375,122.8125" stroke="black" stroke-width="1.5" /><text dominant-baseline="middle" fill="black" font-family="Arial" font-size="12px" font-weight="bold" text-anchor="middle" x="463.28125" y="194.53125">Common Room</text></g><g id="room_kitchen"><polygon fill="rgb(240,128,128)" fill-opacity="0.7" points="334.609375,110.15625 334.609375,169.21875 408.4375,169.21875 406.328125,110.15625" stroke="black" stroke-width="1.5" /><text dominant-baseline="middle" fill="black" font-family="Arial" font-size="12px" font-weight="bold" text-anchor="middle" x="372.578125" y="140.7421875">Kitchen</text></g><g id="room_balcony"><polygon fill="rgb(107,142,35)" fill-opacity="0.7" points="292.421875,460.3125 292.421875,489.84375 406.328125,489.84375 406.328125,460.3125" stroke="black" stroke-width="1.5" /><text dominant-baseline="middle" fill="black" font-family="Arial" font-size="12px" font-weight="bold" text-anchor="middle" x="350.4296875" y="476.1328125">Balcony</text></g><g id="room_bathroom"><polygon fill="rgb(173,216,230)" fill-opacity="0.7" points="452.734375,262.03125 452.734375,314.765625 507.578125,314.765625 507.578125,262.03125" stroke="black" stroke-width="1.5" /><text dominant-baseline="middle" fill="black" font-family="Arial" font-size="12px" font-weight="bold" text-anchor="middle" x="481.2109375" y="289.453125">Bathroom</text></g><rect fill="red" fill-opacity="0.9" height="27.421875" id="main_door" stroke="darkred" stroke-width="3" width="10.546875" x="324.0625" y="266.25" /><text dominant-baseline="middle" fill="white" font-family="Arial" font-size="9px" font-weight="bold" text-anchor="middle" x="329.3359375" y="279.9609375">Main Door</text><text fill="black" font-family="Arial" font-size="18px" font-weight="bold" text-anchor="middle" x="400.0" y="30">Floor Plan - ID: 39103</text></svg>