<?xml version="1.0" encoding="utf-8" ?>
<svg baseProfile="full" height="600px" version="1.1" viewBox="0 0 800 600" width="800px" xmlns="http://www.w3.org/2000/svg" xmlns:ev="http://www.w3.org/2001/xml-events" xmlns:xlink="http://www.w3.org/1999/xlink"><defs /><rect fill="white" height="600" width="800" x="0" y="0" /><polygon fill="none" id="floor_plan_boundary" points="239.6875,124.921875 239.6875,238.828125 296.640625,240.9375 294.53125,441.328125 400.0,441.328125 402.109375,475.078125 524.453125,475.078125 522.34375,240.9375 560.3125,238.828125 560.3125,148.125 482.265625,148.125 482.265625,156.5625 551.875,158.671875 551.875,232.5 518.125,234.609375 516.015625,464.53125 412.65625,466.640625 410.546875,432.890625 302.96875,430.78125 300.859375,234.609375 248.125,232.5 248.125,135.46875 431.640625,131.25 433.75,154.453125 444.296875,154.453125 437.96875,127.03125" stroke="black" stroke-linecap="butt" stroke-linejoin="miter" stroke-width="4" /><g id="room_living_room"><polygon fill="rgb(238,232,170)" fill-opacity="0.7" points="355.703125,133.359375 355.703125,230.390625 410.546875,234.609375 410.546875,287.34375 381.015625,289.453125 381.015625,310.546875 412.65625,312.65625 412.65625,409.6875 513.90625,409.6875 513.90625,289.453125 444.296875,287.34375 444.296875,221.953125 480.15625,219.84375 480.15625,156.5625 433.75,156.5625 431.640625,133.359375" stroke="black" stroke-width="1.5" /><text dominant-baseline="middle" fill="black" font-family="Arial" font-size="12px" font-weight="bold" text-anchor="middle" x="435.859375" y="272.578125">Living Room</text></g><g id="room_master_bedroom"><polygon fill="rgb(255,165,0)" fill-opacity="0.7" points="305.078125,318.984375 305.078125,430.78125 400.0,430.78125 400.0,318.984375" stroke="black" stroke-width="1.5" /><text dominant-baseline="middle" fill="black" font-family="Arial" font-size="12px" font-weight="bold" text-anchor="middle" x="353.59375" y="375.9375">Master Bedroom</text></g><g id="room_master_bedroom_2"><polygon fill="rgb(255,165,0)" fill-opacity="0.7" points="250.234375,135.46875 250.234375,232.5 347.265625,230.390625 347.265625,135.46875" stroke="black" stroke-width="1.5" /><text dominant-baseline="middle" fill="black" font-family="Arial" font-size="12px" font-weight="bold" text-anchor="middle" x="299.8046875" y="185.0390625">Master Bedroom 2</text></g><g id="room_balcony"><polygon fill="rgb(107,142,35)" fill-opacity="0.7" points="412.65625,418.125 412.65625,464.53125 513.90625,464.53125 513.90625,418.125" stroke="black" stroke-width="1.5" /><text dominant-baseline="middle" fill="black" font-family="Arial" font-size="12px" font-weight="bold" text-anchor="middle" x="464.3359375" y="442.3828125">Balcony</text></g><g id="room_balcony_2"><polygon fill="rgb(107,142,35)" fill-opacity="0.7" points="302.96875,243.046875 302.96875,310.546875 372.578125,310.546875 372.578125,243.046875" stroke="black" stroke-width="1.5" /><text dominant-baseline="middle" fill="black" font-family="Arial" font-size="12px" font-weight="bold" text-anchor="middle" x="338.828125" y="277.8515625">Balcony 2</text></g><g id="room_kitchen"><polygon fill="rgb(240,128,128)" fill-opacity="0.7" points="488.59375,158.671875 488.59375,232.5 549.765625,232.5 549.765625,158.671875" stroke="black" stroke-width="1.5" /><text dominant-baseline="middle" fill="black" font-family="Arial" font-size="12px" font-weight="bold" text-anchor="middle" x="520.234375" y="196.640625">Kitchen</text></g><g id="room_bathroom"><polygon fill="rgb(173,216,230)" fill-opacity="0.7" points="452.734375,228.28125 452.734375,281.015625 516.015625,281.015625 516.015625,240.9375 482.265625,240.9375 480.15625,228.28125" stroke="black" stroke-width="1.5" /><text dominant-baseline="middle" fill="black" font-family="Arial" font-size="12px" font-weight="bold" text-anchor="middle" x="485.4296875" y="255.703125">Bathroom</text></g><rect fill="red" fill-opacity="0.9" height="6.328125" id="main_door" stroke="darkred" stroke-width="3" width="35.859375" x="446.40625" y="150.234375" /><text dominant-baseline="middle" fill="white" font-family="Arial" font-size="9px" font-weight="bold" text-anchor="middle" x="464.3359375" y="153.3984375">Main Door</text><text fill="black" font-family="Arial" font-size="18px" font-weight="bold" text-anchor="middle" x="400.0" y="30">Floor Plan - ID: 39162</text></svg>