<?xml version="1.0" encoding="utf-8" ?>
<svg baseProfile="full" height="600px" version="1.1" viewBox="0 0 800 600" width="800px" xmlns="http://www.w3.org/2000/svg" xmlns:ev="http://www.w3.org/2001/xml-events" xmlns:xlink="http://www.w3.org/1999/xlink"><defs /><rect fill="white" height="600" width="800" x="0" y="0" /><polygon fill="none" id="floor_plan_boundary" points="309.296875,89.0625 309.296875,221.953125 267.109375,224.0625 267.109375,390.703125 302.96875,392.8125 302.96875,485.625 359.921875,485.625 362.03125,532.03125 490.703125,532.03125 490.703125,378.046875 482.265625,378.046875 480.15625,523.59375 372.578125,523.59375 370.46875,477.1875 311.40625,475.078125 311.40625,382.265625 275.546875,380.15625 275.546875,234.609375 317.734375,232.5 319.84375,97.5 433.75,97.5 435.859375,76.40625 522.34375,76.40625 524.453125,264.140625 482.265625,266.25 482.265625,335.859375 490.703125,335.859375 490.703125,276.796875 532.890625,274.6875 532.890625,67.96875 425.3125,67.96875 423.203125,89.0625" stroke="black" stroke-linecap="butt" stroke-linejoin="miter" stroke-width="4" /><g id="room_living_room"><polygon fill="rgb(238,232,170)" fill-opacity="0.7" points="395.78125,234.609375 395.78125,342.1875 372.578125,344.296875 372.578125,475.078125 480.15625,475.078125 480.15625,266.25 522.34375,264.140625 522.34375,234.609375" stroke="black" stroke-width="1.5" /><text dominant-baseline="middle" fill="black" font-family="Arial" font-size="12px" font-weight="bold" text-anchor="middle" x="448.515625" y="355.8984375">Living Room</text></g><g id="room_master_bedroom"><polygon fill="rgb(255,165,0)" fill-opacity="0.7" points="319.84375,99.609375 319.84375,221.953125 423.203125,221.953125 423.203125,99.609375" stroke="black" stroke-width="1.5" /><text dominant-baseline="middle" fill="black" font-family="Arial" font-size="12px" font-weight="bold" text-anchor="middle" x="372.578125" y="161.8359375">Master Bedroom</text></g><g id="room_common_room_2"><polygon fill="rgb(255,215,0)" fill-opacity="0.7" points="435.859375,78.515625 435.859375,221.953125 522.34375,221.953125 522.34375,78.515625" stroke="black" stroke-width="1.5" /><text dominant-baseline="middle" fill="black" font-family="Arial" font-size="12px" font-weight="bold" text-anchor="middle" x="480.15625" y="151.2890625">Common Room 2</text></g><g id="room_common_room"><polygon fill="rgb(255,215,0)" fill-opacity="0.7" points="277.65625,234.609375 277.65625,331.640625 383.125,331.640625 383.125,234.609375" stroke="black" stroke-width="1.5" /><text dominant-baseline="middle" fill="black" font-family="Arial" font-size="12px" font-weight="bold" text-anchor="middle" x="331.4453125" y="284.1796875">Common Room</text></g><g id="room_kitchen"><polygon fill="rgb(240,128,128)" fill-opacity="0.7" points="313.515625,392.8125 313.515625,475.078125 359.921875,475.078125 359.921875,392.8125" stroke="black" stroke-width="1.5" /><text dominant-baseline="middle" fill="black" font-family="Arial" font-size="12px" font-weight="bold" text-anchor="middle" x="337.7734375" y="435.0">Kitchen</text></g><g id="room_balcony"><polygon fill="rgb(107,142,35)" fill-opacity="0.7" points="372.578125,487.734375 372.578125,521.484375 480.15625,521.484375 480.15625,487.734375" stroke="black" stroke-width="1.5" /><text dominant-baseline="middle" fill="black" font-family="Arial" font-size="12px" font-weight="bold" text-anchor="middle" x="427.421875" y="505.6640625">Balcony</text></g><g id="room_bathroom_2"><polygon fill="rgb(173,216,230)" fill-opacity="0.7" points="277.65625,344.296875 277.65625,380.15625 321.953125,380.15625 321.953125,344.296875" stroke="black" stroke-width="1.5" /><text dominant-baseline="middle" fill="black" font-family="Arial" font-size="12px" font-weight="bold" text-anchor="middle" x="300.859375" y="363.28125">Bathroom 2</text></g><g id="room_bathroom"><polygon fill="rgb(173,216,230)" fill-opacity="0.7" points="334.609375,344.296875 334.609375,380.15625 359.921875,380.15625 359.921875,344.296875" stroke="black" stroke-width="1.5" /><text dominant-baseline="middle" fill="black" font-family="Arial" font-size="12px" font-weight="bold" text-anchor="middle" x="348.3203125" y="363.28125">Bathroom</text></g><rect fill="red" fill-opacity="0.9" height="40.078125" id="main_door" stroke="darkred" stroke-width="3" width="10.546875" x="482.265625" y="337.96875" /><text dominant-baseline="middle" fill="white" font-family="Arial" font-size="9px" font-weight="bold" text-anchor="middle" x="487.5390625" y="358.0078125">Main Door</text><text fill="black" font-family="Arial" font-size="18px" font-weight="bold" text-anchor="middle" x="400.0" y="30">Floor Plan - ID: 39177</text></svg>