<?xml version="1.0" encoding="utf-8" ?>
<svg baseProfile="full" height="600px" version="1.1" viewBox="0 0 800 600" width="800px" xmlns="http://www.w3.org/2000/svg" xmlns:ev="http://www.w3.org/2001/xml-events" xmlns:xlink="http://www.w3.org/1999/xlink"><defs /><rect fill="white" height="600" width="800" x="0" y="0" /><polygon fill="none" id="floor_plan_boundary" points="218.59375,93.28125 218.59375,215.625 201.71875,217.734375 201.71875,346.40625 218.59375,348.515625 218.59375,477.1875 321.953125,477.1875 324.0625,506.71875 452.734375,506.71875 452.734375,272.578125 520.234375,264.140625 444.296875,262.03125 442.1875,498.28125 334.609375,498.28125 332.5,468.75 229.140625,468.75 227.03125,337.96875 210.15625,335.859375 210.15625,228.28125 227.03125,226.171875 227.03125,103.828125 321.953125,101.71875 324.0625,137.578125 461.171875,137.578125 463.28125,101.71875 587.734375,101.71875 587.734375,129.140625 522.34375,129.140625 522.34375,215.625 511.796875,226.171875 530.78125,226.171875 530.78125,139.6875 598.28125,137.578125 598.28125,93.28125 452.734375,93.28125 450.625,129.140625 334.609375,129.140625 332.5,93.28125" stroke="black" stroke-linecap="butt" stroke-linejoin="miter" stroke-width="4" /><g id="room_living_room"><polygon fill="rgb(238,232,170)" fill-opacity="0.7" points="509.6875,228.28125 452.734375,228.28125 450.625,194.53125 410.546875,194.53125 410.546875,228.28125 294.53125,228.28125 294.53125,262.03125 334.609375,264.140625 334.609375,441.328125 442.1875,441.328125 442.1875,262.03125 509.6875,259.921875" stroke="black" stroke-width="1.5" /><text dominant-baseline="middle" fill="black" font-family="Arial" font-size="12px" font-weight="bold" text-anchor="middle" x="403.1640625" y="318.984375">Living Room</text></g><g id="room_master_bedroom"><polygon fill="rgb(255,165,0)" fill-opacity="0.7" points="321.953125,270.46875 294.53125,270.46875 292.421875,291.5625 212.265625,291.5625 212.265625,335.859375 229.140625,337.96875 229.140625,466.640625 321.953125,466.640625" stroke="black" stroke-width="1.5" /><text dominant-baseline="middle" fill="black" font-family="Arial" font-size="12px" font-weight="bold" text-anchor="middle" x="268.1640625" y="369.609375">Master Bedroom</text></g><g id="room_common_room_2"><polygon fill="rgb(255,215,0)" fill-opacity="0.7" points="229.140625,103.828125 229.140625,215.625 321.953125,215.625 321.953125,103.828125" stroke="black" stroke-width="1.5" /><text dominant-baseline="middle" fill="black" font-family="Arial" font-size="12px" font-weight="bold" text-anchor="middle" x="276.6015625" y="160.78125">Common Room 2</text></g><g id="room_kitchen"><polygon fill="rgb(240,128,128)" fill-opacity="0.7" points="463.28125,215.625 520.234375,215.625 520.234375,129.140625 587.734375,127.03125 587.734375,103.828125 463.28125,103.828125" stroke="black" stroke-width="1.5" /><text dominant-baseline="middle" fill="black" font-family="Arial" font-size="12px" font-weight="bold" text-anchor="middle" x="526.5625" y="160.78125">Kitchen</text></g><g id="room_common_room"><polygon fill="rgb(255,215,0)" fill-opacity="0.7" points="334.609375,139.6875 334.609375,215.625 402.109375,215.625 402.109375,139.6875" stroke="black" stroke-width="1.5" /><text dominant-baseline="middle" fill="black" font-family="Arial" font-size="12px" font-weight="bold" text-anchor="middle" x="369.4140625" y="178.7109375">Common Room</text></g><g id="room_balcony"><polygon fill="rgb(107,142,35)" fill-opacity="0.7" points="334.609375,453.984375 334.609375,496.171875 442.1875,496.171875 442.1875,453.984375" stroke="black" stroke-width="1.5" /><text dominant-baseline="middle" fill="black" font-family="Arial" font-size="12px" font-weight="bold" text-anchor="middle" x="389.453125" y="476.1328125">Balcony</text></g><g id="room_bathroom"><polygon fill="rgb(173,216,230)" fill-opacity="0.7" points="212.265625,228.28125 212.265625,283.125 281.875,283.125 281.875,228.28125" stroke="black" stroke-width="1.5" /><text dominant-baseline="middle" fill="black" font-family="Arial" font-size="12px" font-weight="bold" text-anchor="middle" x="248.125" y="256.7578125">Bathroom</text></g><g id="room_bathroom_2"><polygon fill="rgb(173,216,230)" fill-opacity="0.7" points="410.546875,139.6875 410.546875,186.09375 450.625,186.09375 450.625,139.6875" stroke="black" stroke-width="1.5" /><text dominant-baseline="middle" fill="black" font-family="Arial" font-size="12px" font-weight="bold" text-anchor="middle" x="431.640625" y="163.9453125">Bathroom 2</text></g><rect fill="red" fill-opacity="0.9" height="35.859375" id="main_door" stroke="darkred" stroke-width="3" width="10.546875" x="511.796875" y="228.28125" /><text dominant-baseline="middle" fill="white" font-family="Arial" font-size="9px" font-weight="bold" text-anchor="middle" x="517.0703125" y="246.2109375">Main Door</text><text fill="black" font-family="Arial" font-size="18px" font-weight="bold" text-anchor="middle" x="400.0" y="30">Floor Plan - ID: 39252</text></svg>