<?xml version="1.0" encoding="utf-8" ?>
<svg baseProfile="full" height="600px" version="1.1" viewBox="0 0 800 600" width="800px" xmlns="http://www.w3.org/2000/svg" xmlns:ev="http://www.w3.org/2001/xml-events" xmlns:xlink="http://www.w3.org/1999/xlink"><defs /><rect fill="white" height="600" width="800" x="0" y="0" /><polygon fill="none" id="floor_plan_boundary" points="290.3125,55.3125 290.3125,394.921875 366.25,397.03125 366.25,498.28125 330.390625,500.390625 330.390625,544.6875 349.375,544.6875 349.375,536.25 338.828125,534.140625 340.9375,508.828125 374.6875,508.828125 374.6875,386.484375 298.75,384.375 298.75,65.859375 501.25,65.859375 501.25,534.140625 400.0,536.25 400.0,544.6875 509.6875,544.6875 509.6875,55.3125" stroke="black" stroke-linecap="butt" stroke-linejoin="miter" stroke-width="4" /><g id="room_living_room"><polygon fill="rgb(238,232,170)" fill-opacity="0.7" points="374.6875,306.328125 376.796875,508.828125 340.9375,510.9375 340.9375,534.140625 499.140625,534.140625 499.140625,306.328125" stroke="black" stroke-width="1.5" /><text dominant-baseline="middle" fill="black" font-family="Arial" font-size="12px" font-weight="bold" text-anchor="middle" x="421.09375" y="421.2890625">Living Room</text></g><g id="room_master_bedroom"><polygon fill="rgb(255,165,0)" fill-opacity="0.7" points="300.859375,65.859375 300.859375,200.859375 374.6875,202.96875 374.6875,293.671875 416.875,293.671875 418.984375,236.71875 499.140625,236.71875 499.140625,209.296875 402.109375,207.1875 402.109375,65.859375" stroke="black" stroke-width="1.5" /><text dominant-baseline="middle" fill="black" font-family="Arial" font-size="12px" font-weight="bold" text-anchor="middle" x="401.0546875" y="180.8203125">Master Bedroom</text></g><g id="room_common_room"><polygon fill="rgb(255,215,0)" fill-opacity="0.7" points="410.546875,65.859375 410.546875,200.859375 499.140625,200.859375 499.140625,65.859375" stroke="black" stroke-width="1.5" /><text dominant-baseline="middle" fill="black" font-family="Arial" font-size="12px" font-weight="bold" text-anchor="middle" x="455.8984375" y="134.4140625">Common Room</text></g><g id="room_bathroom"><polygon fill="rgb(173,216,230)" fill-opacity="0.7" points="300.859375,209.296875 300.859375,293.671875 366.25,293.671875 366.25,209.296875" stroke="black" stroke-width="1.5" /><text dominant-baseline="middle" fill="black" font-family="Arial" font-size="12px" font-weight="bold" text-anchor="middle" x="334.609375" y="252.5390625">Bathroom</text></g><g id="room_kitchen"><polygon fill="rgb(240,128,128)" fill-opacity="0.7" points="300.859375,306.328125 300.859375,384.375 366.25,384.375 366.25,306.328125" stroke="black" stroke-width="1.5" /><text dominant-baseline="middle" fill="black" font-family="Arial" font-size="12px" font-weight="bold" text-anchor="middle" x="334.609375" y="346.40625">Kitchen</text></g><g id="room_room_6"><polygon fill="rgb(221,160,221)" fill-opacity="0.7" points="425.3125,245.15625 425.3125,293.671875 499.140625,293.671875 499.140625,245.15625" stroke="black" stroke-width="1.5" /><text dominant-baseline="middle" fill="black" font-family="Arial" font-size="12px" font-weight="bold" text-anchor="middle" x="463.28125" y="270.46875">Room 6</text></g><rect fill="red" fill-opacity="0.9" height="10.546875" id="main_door" stroke="darkred" stroke-width="3" width="48.515625" x="351.484375" y="536.25" /><text dominant-baseline="middle" fill="white" font-family="Arial" font-size="9px" font-weight="bold" text-anchor="middle" x="375.7421875" y="541.5234375">Main Door</text><text fill="black" font-family="Arial" font-size="18px" font-weight="bold" text-anchor="middle" x="400.0" y="30">Floor Plan - ID: 39426</text></svg>