<?xml version="1.0" encoding="utf-8" ?>
<svg baseProfile="full" height="600px" version="1.1" viewBox="0 0 800 600" width="800px" xmlns="http://www.w3.org/2000/svg" xmlns:ev="http://www.w3.org/2001/xml-events" xmlns:xlink="http://www.w3.org/1999/xlink"><defs /><rect fill="white" height="600" width="800" x="0" y="0" /><polygon fill="none" id="floor_plan_boundary" points="617.265625,167.109375 467.5,167.109375 465.390625,207.1875 184.84375,207.1875 184.84375,407.578125 224.921875,407.578125 227.03125,435.0 364.140625,435.0 364.140625,426.5625 237.578125,426.5625 235.46875,399.140625 193.28125,397.03125 195.390625,215.625 471.71875,215.625 473.828125,171.328125 610.9375,171.328125 613.046875,310.546875 568.75,312.65625 566.640625,359.0625 465.390625,359.0625 463.28125,426.5625 393.671875,426.5625 393.671875,435.0 473.828125,435.0 475.9375,367.5 577.1875,367.5 577.1875,318.984375 617.265625,316.875" stroke="black" stroke-linecap="butt" stroke-linejoin="miter" stroke-width="4" /><g id="room_living_room"><polygon fill="rgb(238,232,170)" fill-opacity="0.7" points="370.46875,217.734375 370.46875,316.875 300.859375,318.984375 300.859375,356.953125 368.359375,356.953125 370.46875,424.453125 463.28125,424.453125 463.28125,217.734375" stroke="black" stroke-width="1.5" /><text dominant-baseline="middle" fill="black" font-family="Arial" font-size="12px" font-weight="bold" text-anchor="middle" x="383.125" y="322.1484375">Living Room</text></g><g id="room_master_bedroom"><polygon fill="rgb(255,165,0)" fill-opacity="0.7" points="288.203125,217.734375 195.390625,217.734375 195.390625,397.03125 224.921875,397.03125 227.03125,356.953125 288.203125,356.953125" stroke="black" stroke-width="1.5" /><text dominant-baseline="middle" fill="black" font-family="Arial" font-size="12px" font-weight="bold" text-anchor="middle" x="242.8515625" y="308.4375">Master Bedroom</text></g><g id="room_common_room_2"><polygon fill="rgb(255,215,0)" fill-opacity="0.7" points="473.828125,173.4375 475.9375,283.125 566.640625,283.125 568.75,173.4375" stroke="black" stroke-width="1.5" /><text dominant-baseline="middle" fill="black" font-family="Arial" font-size="12px" font-weight="bold" text-anchor="middle" x="522.34375" y="229.3359375">Common Room 2</text></g><g id="room_common_room"><polygon fill="rgb(255,215,0)" fill-opacity="0.7" points="475.9375,291.5625 475.9375,356.953125 566.640625,356.953125 566.640625,291.5625" stroke="black" stroke-width="1.5" /><text dominant-baseline="middle" fill="black" font-family="Arial" font-size="12px" font-weight="bold" text-anchor="middle" x="522.34375" y="325.3125">Common Room</text></g><g id="room_kitchen"><polygon fill="rgb(240,128,128)" fill-opacity="0.7" points="300.859375,217.734375 300.859375,306.328125 357.8125,306.328125 357.8125,217.734375" stroke="black" stroke-width="1.5" /><text dominant-baseline="middle" fill="black" font-family="Arial" font-size="12px" font-weight="bold" text-anchor="middle" x="330.390625" y="263.0859375">Kitchen</text></g><g id="room_balcony"><polygon fill="rgb(107,142,35)" fill-opacity="0.7" points="577.1875,173.4375 579.296875,310.546875 610.9375,310.546875 610.9375,173.4375" stroke="black" stroke-width="1.5" /><text dominant-baseline="middle" fill="black" font-family="Arial" font-size="12px" font-weight="bold" text-anchor="middle" x="595.1171875" y="243.046875">Balcony</text></g><g id="room_bathroom"><polygon fill="rgb(173,216,230)" fill-opacity="0.7" points="300.859375,365.390625 300.859375,424.453125 357.8125,424.453125 357.8125,365.390625" stroke="black" stroke-width="1.5" /><text dominant-baseline="middle" fill="black" font-family="Arial" font-size="12px" font-weight="bold" text-anchor="middle" x="330.390625" y="395.9765625">Bathroom</text></g><g id="room_bathroom_2"><polygon fill="rgb(173,216,230)" fill-opacity="0.7" points="237.578125,365.390625 237.578125,424.453125 288.203125,424.453125 288.203125,365.390625" stroke="black" stroke-width="1.5" /><text dominant-baseline="middle" fill="black" font-family="Arial" font-size="12px" font-weight="bold" text-anchor="middle" x="263.9453125" y="395.9765625">Bathroom 2</text></g><rect fill="red" fill-opacity="0.9" height="10.546875" id="main_door" stroke="darkred" stroke-width="3" width="27.421875" x="366.25" y="426.5625" /><text dominant-baseline="middle" fill="white" font-family="Arial" font-size="9px" font-weight="bold" text-anchor="middle" x="379.9609375" y="431.8359375">Main Door</text><text fill="black" font-family="Arial" font-size="18px" font-weight="bold" text-anchor="middle" x="400.0" y="30">Floor Plan - ID: 39634</text></svg>