<?xml version="1.0" encoding="utf-8" ?>
<svg baseProfile="full" height="600px" version="1.1" viewBox="0 0 800 600" width="800px" xmlns="http://www.w3.org/2000/svg" xmlns:ev="http://www.w3.org/2001/xml-events" xmlns:xlink="http://www.w3.org/1999/xlink"><defs /><rect fill="white" height="600" width="800" x="0" y="0" /><polygon fill="none" id="floor_plan_boundary" points="283.984375,78.515625 283.984375,521.484375 402.109375,521.484375 404.21875,494.0625 516.015625,494.0625 516.015625,340.078125 465.390625,337.96875 461.171875,217.734375 461.171875,344.296875 511.796875,346.40625 511.796875,487.734375 397.890625,489.84375 395.78125,517.265625 288.203125,515.15625 288.203125,84.84375 433.75,82.734375 435.859375,186.09375 465.390625,188.203125 465.390625,181.875 440.078125,179.765625 440.078125,78.515625" stroke="black" stroke-linecap="butt" stroke-linejoin="miter" stroke-width="4" /><g id="room_living_room"><polygon fill="rgb(238,232,170)" fill-opacity="0.7" points="290.3125,188.203125 290.3125,487.734375 395.78125,487.734375 395.78125,226.171875 459.0625,224.0625 459.0625,188.203125" stroke="black" stroke-width="1.5" /><text dominant-baseline="middle" fill="black" font-family="Arial" font-size="12px" font-weight="bold" text-anchor="middle" x="375.7421875" y="339.0234375">Living Room</text></g><g id="room_common_room"><polygon fill="rgb(255,215,0)" fill-opacity="0.7" points="404.21875,346.40625 404.21875,487.734375 509.6875,487.734375 509.6875,346.40625" stroke="black" stroke-width="1.5" /><text dominant-baseline="middle" fill="black" font-family="Arial" font-size="12px" font-weight="bold" text-anchor="middle" x="458.0078125" y="418.125">Common Room</text></g><g id="room_bathroom"><polygon fill="rgb(173,216,230)" fill-opacity="0.7" points="290.3125,84.84375 290.3125,179.765625 357.8125,179.765625 357.8125,84.84375" stroke="black" stroke-width="1.5" /><text dominant-baseline="middle" fill="black" font-family="Arial" font-size="12px" font-weight="bold" text-anchor="middle" x="325.1171875" y="133.359375">Bathroom</text></g><g id="room_kitchen"><polygon fill="rgb(240,128,128)" fill-opacity="0.7" points="366.25,84.84375 366.25,179.765625 433.75,179.765625 433.75,84.84375" stroke="black" stroke-width="1.5" /><text dominant-baseline="middle" fill="black" font-family="Arial" font-size="12px" font-weight="bold" text-anchor="middle" x="401.0546875" y="133.359375">Kitchen</text></g><g id="room_room_6"><polygon fill="rgb(221,160,221)" fill-opacity="0.7" points="404.21875,232.5 404.21875,337.96875 459.0625,337.96875 459.0625,232.5" stroke="black" stroke-width="1.5" /><text dominant-baseline="middle" fill="black" font-family="Arial" font-size="12px" font-weight="bold" text-anchor="middle" x="432.6953125" y="286.2890625">Room 6</text></g><g id="room_balcony"><polygon fill="rgb(107,142,35)" fill-opacity="0.7" points="290.3125,496.171875 290.3125,515.15625 395.78125,515.15625 395.78125,496.171875" stroke="black" stroke-width="1.5" /><text dominant-baseline="middle" fill="black" font-family="Arial" font-size="12px" font-weight="bold" text-anchor="middle" x="344.1015625" y="506.71875">Balcony</text></g><rect fill="red" fill-opacity="0.9" height="27.421875" id="main_door" stroke="darkred" stroke-width="3" width="6.328125" x="461.171875" y="190.3125" /><text dominant-baseline="middle" fill="white" font-family="Arial" font-size="9px" font-weight="bold" text-anchor="middle" x="464.3359375" y="204.0234375">Main Door</text><text fill="black" font-family="Arial" font-size="18px" font-weight="bold" text-anchor="middle" x="400.0" y="30">Floor Plan - ID: 39698</text></svg>