<?xml version="1.0" encoding="utf-8" ?>
<svg baseProfile="full" height="600px" version="1.1" viewBox="0 0 800 600" width="800px" xmlns="http://www.w3.org/2000/svg" xmlns:ev="http://www.w3.org/2001/xml-events" xmlns:xlink="http://www.w3.org/1999/xlink"><defs /><rect fill="white" height="600" width="800" x="0" y="0" /><polygon fill="none" id="floor_plan_boundary" points="203.828125,122.8125 203.828125,228.28125 184.84375,230.390625 184.84375,361.171875 222.8125,363.28125 222.8125,477.1875 347.265625,477.1875 349.375,430.78125 351.484375,462.421875 423.203125,462.421875 425.3125,430.78125 459.0625,430.78125 461.171875,477.1875 556.09375,477.1875 558.203125,430.78125 615.15625,430.78125 615.15625,323.203125 606.71875,323.203125 606.71875,420.234375 547.65625,422.34375 545.546875,468.75 471.71875,468.75 469.609375,422.34375 414.765625,422.34375 412.65625,453.984375 362.03125,453.984375 359.921875,422.34375 338.828125,422.34375 336.71875,468.75 233.359375,468.75 231.25,352.734375 193.28125,350.625 193.28125,240.9375 212.265625,238.828125 214.375,131.25 317.734375,131.25 319.84375,148.125 410.546875,148.125 412.65625,278.90625 604.609375,278.90625 615.15625,289.453125 615.15625,270.46875 423.203125,270.46875 421.09375,139.6875 330.390625,139.6875 328.28125,122.8125" stroke="black" stroke-linecap="butt" stroke-linejoin="miter" stroke-width="4" /><g id="room_living_room"><polygon fill="rgb(238,232,170)" fill-opacity="0.7" points="288.203125,238.828125 288.203125,310.546875 349.375,312.65625 349.375,420.234375 604.609375,420.234375 604.609375,281.015625 319.84375,281.015625 317.734375,238.828125" stroke="black" stroke-width="1.5" /><text dominant-baseline="middle" fill="black" font-family="Arial" font-size="12px" font-weight="bold" text-anchor="middle" x="447.4609375" y="330.5859375">Living Room</text></g><g id="room_common_room"><polygon fill="rgb(255,215,0)" fill-opacity="0.7" points="336.71875,318.984375 288.203125,318.984375 288.203125,363.28125 233.359375,363.28125 233.359375,466.640625 336.71875,466.640625" stroke="black" stroke-width="1.5" /><text dominant-baseline="middle" fill="black" font-family="Arial" font-size="12px" font-weight="bold" text-anchor="middle" x="286.09375" y="393.8671875">Common Room</text></g><g id="room_common_room_2"><polygon fill="rgb(255,215,0)" fill-opacity="0.7" points="214.375,133.359375 214.375,228.28125 317.734375,230.390625 317.734375,133.359375" stroke="black" stroke-width="1.5" /><text dominant-baseline="middle" fill="black" font-family="Arial" font-size="12px" font-weight="bold" text-anchor="middle" x="267.109375" y="182.9296875">Common Room 2</text></g><g id="room_kitchen"><polygon fill="rgb(240,128,128)" fill-opacity="0.7" points="330.390625,150.234375 330.390625,268.359375 410.546875,268.359375 410.546875,150.234375" stroke="black" stroke-width="1.5" /><text dominant-baseline="middle" fill="black" font-family="Arial" font-size="12px" font-weight="bold" text-anchor="middle" x="371.5234375" y="210.3515625">Kitchen</text></g><g id="room_bathroom"><polygon fill="rgb(173,216,230)" fill-opacity="0.7" points="195.390625,297.890625 195.390625,350.625 279.765625,350.625 279.765625,297.890625" stroke="black" stroke-width="1.5" /><text dominant-baseline="middle" fill="black" font-family="Arial" font-size="12px" font-weight="bold" text-anchor="middle" x="238.6328125" y="325.3125">Bathroom</text></g><g id="room_bathroom_2"><polygon fill="rgb(173,216,230)" fill-opacity="0.7" points="195.390625,240.9375 195.390625,289.453125 279.765625,289.453125 279.765625,240.9375" stroke="black" stroke-width="1.5" /><text dominant-baseline="middle" fill="black" font-family="Arial" font-size="12px" font-weight="bold" text-anchor="middle" x="238.6328125" y="266.25">Bathroom 2</text></g><g id="room_balcony"><polygon fill="rgb(107,142,35)" fill-opacity="0.7" points="471.71875,432.890625 471.71875,466.640625 545.546875,466.640625 545.546875,432.890625" stroke="black" stroke-width="1.5" /><text dominant-baseline="middle" fill="black" font-family="Arial" font-size="12px" font-weight="bold" text-anchor="middle" x="509.6875" y="450.8203125">Balcony</text></g><g id="room_balcony_2"><polygon fill="rgb(107,142,35)" fill-opacity="0.7" points="362.03125,432.890625 362.03125,451.875 412.65625,451.875 412.65625,432.890625" stroke="black" stroke-width="1.5" /><text dominant-baseline="middle" fill="black" font-family="Arial" font-size="12px" font-weight="bold" text-anchor="middle" x="388.3984375" y="443.4375">Balcony 2</text></g><rect fill="red" fill-opacity="0.9" height="31.640625" id="main_door" stroke="darkred" stroke-width="3" width="10.546875" x="606.71875" y="291.5625" /><text dominant-baseline="middle" fill="white" font-family="Arial" font-size="9px" font-weight="bold" text-anchor="middle" x="611.9921875" y="307.3828125">Main Door</text><text fill="black" font-family="Arial" font-size="18px" font-weight="bold" text-anchor="middle" x="400.0" y="30">Floor Plan - ID: 39713</text></svg>