<?xml version="1.0" encoding="utf-8" ?>
<svg baseProfile="full" height="600px" version="1.1" viewBox="0 0 800 600" width="800px" xmlns="http://www.w3.org/2000/svg" xmlns:ev="http://www.w3.org/2001/xml-events" xmlns:xlink="http://www.w3.org/1999/xlink"><defs /><rect fill="white" height="600" width="800" x="0" y="0" /><polygon fill="none" id="floor_plan_boundary" points="387.34375,118.59375 385.234375,177.65625 395.78125,177.65625 397.890625,127.03125 448.515625,127.03125 450.625,150.234375 549.765625,152.34375 549.765625,441.328125 461.171875,443.4375 459.0625,418.125 402.109375,418.125 400.0,472.96875 343.046875,472.96875 340.9375,418.125 250.234375,416.015625 250.234375,293.671875 340.9375,291.5625 340.9375,179.765625 351.484375,177.65625 351.484375,169.21875 332.5,169.21875 332.5,281.015625 241.796875,283.125 241.796875,426.5625 330.390625,426.5625 332.5,481.40625 410.546875,481.40625 412.65625,426.5625 448.515625,426.5625 450.625,451.875 558.203125,451.875 558.203125,141.796875 461.171875,141.796875 459.0625,118.59375" stroke="black" stroke-linecap="butt" stroke-linejoin="miter" stroke-width="4" /><g id="room_living_room"><polygon fill="rgb(238,232,170)" fill-opacity="0.7" points="343.046875,179.765625 343.046875,416.015625 448.515625,416.015625 448.515625,308.4375 492.8125,306.328125 492.8125,259.921875 448.515625,257.8125 448.515625,213.515625 389.453125,213.515625 387.34375,179.765625" stroke="black" stroke-width="1.5" /><text dominant-baseline="middle" fill="black" font-family="Arial" font-size="12px" font-weight="bold" text-anchor="middle" x="418.984375" y="298.9453125">Living Room</text></g><g id="room_master_bedroom"><polygon fill="rgb(255,165,0)" fill-opacity="0.7" points="461.171875,318.984375 461.171875,441.328125 547.65625,441.328125 547.65625,318.984375" stroke="black" stroke-width="1.5" /><text dominant-baseline="middle" fill="black" font-family="Arial" font-size="12px" font-weight="bold" text-anchor="middle" x="505.46875" y="381.2109375">Master Bedroom</text></g><g id="room_common_room"><polygon fill="rgb(255,215,0)" fill-opacity="0.7" points="252.34375,293.671875 252.34375,416.015625 330.390625,416.015625 330.390625,293.671875" stroke="black" stroke-width="1.5" /><text dominant-baseline="middle" fill="black" font-family="Arial" font-size="12px" font-weight="bold" text-anchor="middle" x="292.421875" y="355.8984375">Common Room</text></g><g id="room_common_room_2"><polygon fill="rgb(255,215,0)" fill-opacity="0.7" points="461.171875,152.34375 461.171875,251.484375 492.8125,251.484375 494.921875,240.9375 547.65625,240.9375 547.65625,152.34375" stroke="black" stroke-width="1.5" /><text dominant-baseline="middle" fill="black" font-family="Arial" font-size="12px" font-weight="bold" text-anchor="middle" x="505.46875" y="202.96875">Common Room 2</text></g><g id="room_kitchen"><polygon fill="rgb(240,128,128)" fill-opacity="0.7" points="397.890625,129.140625 395.78125,205.078125 448.515625,205.078125 448.515625,129.140625" stroke="black" stroke-width="1.5" /><text dominant-baseline="middle" fill="black" font-family="Arial" font-size="12px" font-weight="bold" text-anchor="middle" x="423.203125" y="168.1640625">Kitchen</text></g><g id="room_bathroom"><polygon fill="rgb(173,216,230)" fill-opacity="0.7" points="501.25,249.375 501.25,306.328125 547.65625,306.328125 547.65625,249.375" stroke="black" stroke-width="1.5" /><text dominant-baseline="middle" fill="black" font-family="Arial" font-size="12px" font-weight="bold" text-anchor="middle" x="525.5078125" y="278.90625">Bathroom</text></g><g id="room_balcony"><polygon fill="rgb(107,142,35)" fill-opacity="0.7" points="343.046875,428.671875 343.046875,470.859375 400.0,470.859375 400.0,428.671875" stroke="black" stroke-width="1.5" /><text dominant-baseline="middle" fill="black" font-family="Arial" font-size="12px" font-weight="bold" text-anchor="middle" x="372.578125" y="450.8203125">Balcony</text></g><rect fill="red" fill-opacity="0.9" height="10.546875" id="main_door" stroke="darkred" stroke-width="3" width="31.640625" x="353.59375" y="169.21875" /><text dominant-baseline="middle" fill="white" font-family="Arial" font-size="9px" font-weight="bold" text-anchor="middle" x="369.4140625" y="174.4921875">Main Door</text><text fill="black" font-family="Arial" font-size="18px" font-weight="bold" text-anchor="middle" x="400.0" y="30">Floor Plan - ID: 40278</text></svg>