<?xml version="1.0" encoding="utf-8" ?>
<svg baseProfile="full" height="600px" version="1.1" viewBox="0 0 800 600" width="800px" xmlns="http://www.w3.org/2000/svg" xmlns:ev="http://www.w3.org/2001/xml-events" xmlns:xlink="http://www.w3.org/1999/xlink"><defs /><rect fill="white" height="600" width="800" x="0" y="0" /><polygon fill="none" id="floor_plan_boundary" points="273.4375,105.9375 269.21875,274.6875 277.65625,274.6875 279.765625,110.15625 370.46875,110.15625 372.578125,143.90625 522.34375,146.015625 522.34375,274.6875 558.203125,276.796875 558.203125,443.4375 372.578125,445.546875 370.46875,489.84375 243.90625,489.84375 237.578125,270.46875 237.578125,494.0625 376.796875,494.0625 378.90625,449.765625 562.421875,449.765625 562.421875,270.46875 526.5625,268.359375 526.5625,139.6875 378.90625,139.6875 376.796875,105.9375" stroke="black" stroke-linecap="butt" stroke-linejoin="miter" stroke-width="4" /><g id="room_living_room"><polygon fill="rgb(238,232,170)" fill-opacity="0.7" points="279.765625,192.421875 279.765625,274.6875 243.90625,276.796875 243.90625,443.4375 370.46875,443.4375 370.46875,270.46875 478.046875,268.359375 478.046875,228.28125 372.578125,228.28125 370.46875,192.421875" stroke="black" stroke-width="1.5" /><text dominant-baseline="middle" fill="black" font-family="Arial" font-size="12px" font-weight="bold" text-anchor="middle" x="362.03125" y="318.984375">Living Room</text></g><g id="room_master_bedroom"><polygon fill="rgb(255,165,0)" fill-opacity="0.7" points="461.171875,276.796875 461.171875,443.4375 556.09375,443.4375 556.09375,276.796875" stroke="black" stroke-width="1.5" /><text dominant-baseline="middle" fill="black" font-family="Arial" font-size="12px" font-weight="bold" text-anchor="middle" x="509.6875" y="361.171875">Master Bedroom</text></g><g id="room_common_room"><polygon fill="rgb(255,215,0)" fill-opacity="0.7" points="378.90625,276.796875 378.90625,443.4375 452.734375,443.4375 452.734375,276.796875" stroke="black" stroke-width="1.5" /><text dominant-baseline="middle" fill="black" font-family="Arial" font-size="12px" font-weight="bold" text-anchor="middle" x="416.875" y="361.171875">Common Room</text></g><g id="room_kitchen"><polygon fill="rgb(240,128,128)" fill-opacity="0.7" points="279.765625,112.265625 279.765625,183.984375 370.46875,183.984375 370.46875,112.265625" stroke="black" stroke-width="1.5" /><text dominant-baseline="middle" fill="black" font-family="Arial" font-size="12px" font-weight="bold" text-anchor="middle" x="326.171875" y="149.1796875">Kitchen</text></g><g id="room_common_room_2"><polygon fill="rgb(255,215,0)" fill-opacity="0.7" points="437.96875,146.015625 437.96875,219.84375 520.234375,219.84375 520.234375,146.015625" stroke="black" stroke-width="1.5" /><text dominant-baseline="middle" fill="black" font-family="Arial" font-size="12px" font-weight="bold" text-anchor="middle" x="480.15625" y="183.984375">Common Room 2</text></g><g id="room_balcony"><polygon fill="rgb(107,142,35)" fill-opacity="0.7" points="243.90625,451.875 243.90625,487.734375 370.46875,487.734375 370.46875,451.875" stroke="black" stroke-width="1.5" /><text dominant-baseline="middle" fill="black" font-family="Arial" font-size="12px" font-weight="bold" text-anchor="middle" x="308.2421875" y="470.859375">Balcony</text></g><g id="room_bathroom"><polygon fill="rgb(173,216,230)" fill-opacity="0.7" points="378.90625,146.015625 378.90625,219.84375 429.53125,219.84375 429.53125,146.015625" stroke="black" stroke-width="1.5" /><text dominant-baseline="middle" fill="black" font-family="Arial" font-size="12px" font-weight="bold" text-anchor="middle" x="405.2734375" y="183.984375">Bathroom</text></g><g id="room_room_8"><polygon fill="rgb(221,160,221)" fill-opacity="0.7" points="486.484375,228.28125 486.484375,268.359375 520.234375,268.359375 520.234375,228.28125" stroke="black" stroke-width="1.5" /><text dominant-baseline="middle" fill="black" font-family="Arial" font-size="12px" font-weight="bold" text-anchor="middle" x="504.4140625" y="249.375">Room 8</text></g><rect fill="red" fill-opacity="0.9" height="6.328125" id="main_door" stroke="darkred" stroke-width="3" width="27.421875" x="241.796875" y="270.46875" /><text dominant-baseline="middle" fill="white" font-family="Arial" font-size="9px" font-weight="bold" text-anchor="middle" x="255.5078125" y="273.6328125">Main Door</text><text fill="black" font-family="Arial" font-size="18px" font-weight="bold" text-anchor="middle" x="400.0" y="30">Floor Plan - ID: 40815</text></svg>