<?xml version="1.0" encoding="utf-8" ?>
<svg baseProfile="full" height="600px" version="1.1" viewBox="0 0 800 600" width="800px" xmlns="http://www.w3.org/2000/svg" xmlns:ev="http://www.w3.org/2001/xml-events" xmlns:xlink="http://www.w3.org/1999/xlink"><defs /><rect fill="white" height="600" width="800" x="0" y="0" /><polygon fill="none" id="floor_plan_boundary" points="302.96875,97.5 302.96875,171.328125 309.296875,101.71875 383.125,101.71875 385.234375,122.8125 524.453125,124.921875 524.453125,302.109375 486.484375,304.21875 486.484375,445.546875 385.234375,447.65625 383.125,498.28125 275.546875,496.171875 275.546875,310.546875 307.1875,308.4375 302.96875,200.859375 302.96875,302.109375 271.328125,304.21875 271.328125,502.5 389.453125,502.5 391.5625,451.875 490.703125,451.875 490.703125,310.546875 528.671875,308.4375 528.671875,118.59375 391.5625,118.59375 389.453125,97.5" stroke="black" stroke-linecap="butt" stroke-linejoin="miter" stroke-width="4" /><g id="room_living_room"><polygon fill="rgb(238,232,170)" fill-opacity="0.7" points="309.296875,160.78125 309.296875,308.4375 277.65625,310.546875 277.65625,445.546875 383.125,445.546875 381.015625,245.15625 456.953125,240.9375 456.953125,190.3125 435.859375,190.3125 433.75,219.84375 385.234375,219.84375 383.125,160.78125" stroke="black" stroke-width="1.5" /><text dominant-baseline="middle" fill="black" font-family="Arial" font-size="12px" font-weight="bold" text-anchor="middle" x="368.359375" y="304.21875">Living Room</text></g><g id="room_master_bedroom"><polygon fill="rgb(255,165,0)" fill-opacity="0.7" points="391.5625,310.546875 391.5625,445.546875 484.375,445.546875 484.375,310.546875" stroke="black" stroke-width="1.5" /><text dominant-baseline="middle" fill="black" font-family="Arial" font-size="12px" font-weight="bold" text-anchor="middle" x="439.0234375" y="379.1015625">Master Bedroom</text></g><g id="room_common_room_2"><polygon fill="rgb(255,215,0)" fill-opacity="0.7" points="435.859375,124.921875 435.859375,181.875 463.28125,181.875 465.390625,211.40625 522.34375,211.40625 522.34375,124.921875" stroke="black" stroke-width="1.5" /><text dominant-baseline="middle" fill="black" font-family="Arial" font-size="12px" font-weight="bold" text-anchor="middle" x="480.15625" y="169.21875">Common Room 2</text></g><g id="room_common_room"><polygon fill="rgb(255,215,0)" fill-opacity="0.7" points="435.859375,249.375 435.859375,302.109375 522.34375,302.109375 522.34375,219.84375 465.390625,219.84375 465.390625,247.265625" stroke="black" stroke-width="1.5" /><text dominant-baseline="middle" fill="black" font-family="Arial" font-size="12px" font-weight="bold" text-anchor="middle" x="480.15625" y="262.03125">Common Room</text></g><g id="room_balcony"><polygon fill="rgb(107,142,35)" fill-opacity="0.7" points="277.65625,453.984375 277.65625,496.171875 383.125,496.171875 383.125,453.984375" stroke="black" stroke-width="1.5" /><text dominant-baseline="middle" fill="black" font-family="Arial" font-size="12px" font-weight="bold" text-anchor="middle" x="331.4453125" y="476.1328125">Balcony</text></g><g id="room_kitchen"><polygon fill="rgb(240,128,128)" fill-opacity="0.7" points="309.296875,103.828125 309.296875,152.34375 383.125,152.34375 383.125,103.828125" stroke="black" stroke-width="1.5" /><text dominant-baseline="middle" fill="black" font-family="Arial" font-size="12px" font-weight="bold" text-anchor="middle" x="347.265625" y="129.140625">Kitchen</text></g><g id="room_bathroom_2"><polygon fill="rgb(173,216,230)" fill-opacity="0.7" points="391.5625,124.921875 391.5625,211.40625 427.421875,211.40625 427.421875,124.921875" stroke="black" stroke-width="1.5" /><text dominant-baseline="middle" fill="black" font-family="Arial" font-size="12px" font-weight="bold" text-anchor="middle" x="410.546875" y="169.21875">Bathroom 2</text></g><g id="room_bathroom"><polygon fill="rgb(173,216,230)" fill-opacity="0.7" points="391.5625,249.375 391.5625,302.109375 427.421875,302.109375 427.421875,249.375" stroke="black" stroke-width="1.5" /><text dominant-baseline="middle" fill="black" font-family="Arial" font-size="12px" font-weight="bold" text-anchor="middle" x="410.546875" y="276.796875">Bathroom</text></g><rect fill="red" fill-opacity="0.9" height="27.421875" id="main_door" stroke="darkred" stroke-width="3" width="6.328125" x="302.96875" y="173.4375" /><text dominant-baseline="middle" fill="white" font-family="Arial" font-size="9px" font-weight="bold" text-anchor="middle" x="306.1328125" y="187.1484375">Main Door</text><text fill="black" font-family="Arial" font-size="18px" font-weight="bold" text-anchor="middle" x="400.0" y="30">Floor Plan - ID: 40863</text></svg>