<?xml version="1.0" encoding="utf-8" ?>
<svg baseProfile="full" height="600px" version="1.1" viewBox="0 0 800 600" width="800px" xmlns="http://www.w3.org/2000/svg" xmlns:ev="http://www.w3.org/2001/xml-events" xmlns:xlink="http://www.w3.org/1999/xlink"><defs /><rect fill="white" height="600" width="800" x="0" y="0" /><polygon fill="none" id="floor_plan_boundary" points="157.421875,177.65625 157.421875,363.28125 336.71875,363.28125 338.828125,422.34375 492.8125,422.34375 494.921875,392.8125 642.578125,392.8125 642.578125,268.359375 459.0625,268.359375 638.359375,274.6875 636.25,388.59375 488.59375,388.59375 486.484375,418.125 345.15625,418.125 343.046875,359.0625 163.75,359.0625 163.75,181.875 336.71875,181.875 338.828125,245.15625 387.34375,245.15625 389.453125,211.40625 425.3125,211.40625 427.421875,272.578125 431.640625,207.1875 383.125,207.1875 381.015625,240.9375 345.15625,240.9375 343.046875,177.65625" stroke="black" stroke-linecap="butt" stroke-linejoin="miter" stroke-width="4" /><g id="room_living_room"><polygon fill="rgb(238,232,170)" fill-opacity="0.7" points="345.15625,247.265625 345.15625,416.015625 486.484375,416.015625 486.484375,274.6875 383.125,274.6875 381.015625,247.265625" stroke="black" stroke-width="1.5" /><text dominant-baseline="middle" fill="black" font-family="Arial" font-size="12px" font-weight="bold" text-anchor="middle" x="416.875" y="332.6953125">Living Room</text></g><g id="room_master_bedroom"><polygon fill="rgb(255,165,0)" fill-opacity="0.7" points="224.921875,183.984375 224.921875,266.25 336.71875,266.25 336.71875,183.984375" stroke="black" stroke-width="1.5" /><text dominant-baseline="middle" fill="black" font-family="Arial" font-size="12px" font-weight="bold" text-anchor="middle" x="281.875" y="226.171875">Master Bedroom</text></g><g id="room_common_room_2"><polygon fill="rgb(255,215,0)" fill-opacity="0.7" points="224.921875,274.6875 224.921875,356.953125 336.71875,356.953125 336.71875,274.6875" stroke="black" stroke-width="1.5" /><text dominant-baseline="middle" fill="black" font-family="Arial" font-size="12px" font-weight="bold" text-anchor="middle" x="281.875" y="316.875">Common Room 2</text></g><g id="room_balcony"><polygon fill="rgb(107,142,35)" fill-opacity="0.7" points="163.75,183.984375 163.75,356.953125 216.484375,356.953125 216.484375,183.984375" stroke="black" stroke-width="1.5" /><text dominant-baseline="middle" fill="black" font-family="Arial" font-size="12px" font-weight="bold" text-anchor="middle" x="191.171875" y="271.5234375">Balcony</text></g><g id="room_kitchen"><polygon fill="rgb(240,128,128)" fill-opacity="0.7" points="583.515625,274.6875 583.515625,386.484375 636.25,386.484375 636.25,274.6875" stroke="black" stroke-width="1.5" /><text dominant-baseline="middle" fill="black" font-family="Arial" font-size="12px" font-weight="bold" text-anchor="middle" x="610.9375" y="331.640625">Kitchen</text></g><g id="room_common_room"><polygon fill="rgb(255,215,0)" fill-opacity="0.7" points="494.921875,333.75 494.921875,386.484375 575.078125,386.484375 575.078125,333.75" stroke="black" stroke-width="1.5" /><text dominant-baseline="middle" fill="black" font-family="Arial" font-size="12px" font-weight="bold" text-anchor="middle" x="536.0546875" y="361.171875">Common Room</text></g><g id="room_room_8"><polygon fill="rgb(218,112,214)" fill-opacity="0.7" points="494.921875,274.6875 494.921875,325.3125 575.078125,325.3125 575.078125,274.6875" stroke="black" stroke-width="1.5" /><text dominant-baseline="middle" fill="black" font-family="Arial" font-size="12px" font-weight="bold" text-anchor="middle" x="536.0546875" y="301.0546875">Room 8</text></g><g id="room_bathroom"><polygon fill="rgb(173,216,230)" fill-opacity="0.7" points="389.453125,213.515625 389.453125,266.25 425.3125,266.25 425.3125,213.515625" stroke="black" stroke-width="1.5" /><text dominant-baseline="middle" fill="black" font-family="Arial" font-size="12px" font-weight="bold" text-anchor="middle" x="408.4375" y="240.9375">Bathroom</text></g><rect fill="red" fill-opacity="0.9" height="6.328125" id="main_door" stroke="darkred" stroke-width="3" width="27.421875" x="431.640625" y="268.359375" /><text dominant-baseline="middle" fill="white" font-family="Arial" font-size="9px" font-weight="bold" text-anchor="middle" x="445.3515625" y="271.5234375">Main Door</text><text fill="black" font-family="Arial" font-size="18px" font-weight="bold" text-anchor="middle" x="400.0" y="30">Floor Plan - ID: 40897</text></svg>