<?xml version="1.0" encoding="utf-8" ?>
<svg baseProfile="full" height="600px" version="1.1" viewBox="0 0 800 600" width="800px" xmlns="http://www.w3.org/2000/svg" xmlns:ev="http://www.w3.org/2001/xml-events" xmlns:xlink="http://www.w3.org/1999/xlink"><defs /><rect fill="white" height="600" width="800" x="0" y="0" /><polygon fill="none" id="floor_plan_boundary" points="212.265625,207.1875 212.265625,371.71875 220.703125,371.71875 222.8125,215.625 309.296875,215.625 311.40625,158.671875 429.53125,158.671875 431.640625,120.703125 551.875,120.703125 553.984375,281.015625 579.296875,283.125 579.296875,348.515625 553.984375,350.625 551.875,479.296875 429.53125,479.296875 427.421875,394.921875 288.203125,394.921875 286.09375,418.125 222.8125,418.125 220.703125,401.25 212.265625,401.25 212.265625,426.5625 296.640625,426.5625 298.75,403.359375 416.875,403.359375 418.984375,487.734375 562.421875,487.734375 562.421875,361.171875 587.734375,359.0625 587.734375,272.578125 562.421875,270.46875 562.421875,112.265625 421.09375,112.265625 418.984375,150.234375 300.859375,150.234375 298.75,207.1875" stroke="black" stroke-linecap="butt" stroke-linejoin="miter" stroke-width="4" /><g id="room_living_room"><polygon fill="rgb(238,232,170)" fill-opacity="0.7" points="463.28125,217.734375 311.40625,217.734375 309.296875,304.21875 222.8125,304.21875 222.8125,416.015625 286.09375,416.015625 288.203125,392.8125 416.875,392.8125 418.984375,348.515625 463.28125,348.515625" stroke="black" stroke-width="1.5" /><text dominant-baseline="middle" fill="black" font-family="Arial" font-size="12px" font-weight="bold" text-anchor="middle" x="344.1015625" y="317.9296875">Living Room</text></g><g id="room_master_bedroom"><polygon fill="rgb(255,165,0)" fill-opacity="0.7" points="429.53125,361.171875 429.53125,477.1875 551.875,477.1875 551.875,361.171875" stroke="black" stroke-width="1.5" /><text dominant-baseline="middle" fill="black" font-family="Arial" font-size="12px" font-weight="bold" text-anchor="middle" x="491.7578125" y="420.234375">Master Bedroom</text></g><g id="room_common_room_2"><polygon fill="rgb(255,215,0)" fill-opacity="0.7" points="431.640625,122.8125 431.640625,205.078125 551.875,205.078125 551.875,122.8125" stroke="black" stroke-width="1.5" /><text dominant-baseline="middle" fill="black" font-family="Arial" font-size="12px" font-weight="bold" text-anchor="middle" x="492.8125" y="165.0">Common Room 2</text></g><g id="room_common_room"><polygon fill="rgb(255,215,0)" fill-opacity="0.7" points="475.9375,283.125 475.9375,348.515625 577.1875,348.515625 577.1875,283.125" stroke="black" stroke-width="1.5" /><text dominant-baseline="middle" fill="black" font-family="Arial" font-size="12px" font-weight="bold" text-anchor="middle" x="527.6171875" y="316.875">Common Room</text></g><g id="room_kitchen"><polygon fill="rgb(240,128,128)" fill-opacity="0.7" points="222.8125,217.734375 222.8125,291.5625 298.75,291.5625 298.75,217.734375" stroke="black" stroke-width="1.5" /><text dominant-baseline="middle" fill="black" font-family="Arial" font-size="12px" font-weight="bold" text-anchor="middle" x="261.8359375" y="255.703125">Kitchen</text></g><g id="room_balcony"><polygon fill="rgb(107,142,35)" fill-opacity="0.7" points="311.40625,160.78125 311.40625,205.078125 418.984375,205.078125 418.984375,160.78125" stroke="black" stroke-width="1.5" /><text dominant-baseline="middle" fill="black" font-family="Arial" font-size="12px" font-weight="bold" text-anchor="middle" x="366.25" y="183.984375">Balcony</text></g><g id="room_bathroom"><polygon fill="rgb(173,216,230)" fill-opacity="0.7" points="475.9375,217.734375 475.9375,270.46875 551.875,270.46875 551.875,217.734375" stroke="black" stroke-width="1.5" /><text dominant-baseline="middle" fill="black" font-family="Arial" font-size="12px" font-weight="bold" text-anchor="middle" x="514.9609375" y="245.15625">Bathroom</text></g><rect fill="red" fill-opacity="0.9" height="27.421875" id="main_door" stroke="darkred" stroke-width="3" width="10.546875" x="212.265625" y="373.828125" /><text dominant-baseline="middle" fill="white" font-family="Arial" font-size="9px" font-weight="bold" text-anchor="middle" x="217.5390625" y="387.5390625">Main Door</text><text fill="black" font-family="Arial" font-size="18px" font-weight="bold" text-anchor="middle" x="400.0" y="30">Floor Plan - ID: 4090</text></svg>