<?xml version="1.0" encoding="utf-8" ?>
<svg baseProfile="full" height="600px" version="1.1" viewBox="0 0 800 600" width="800px" xmlns="http://www.w3.org/2000/svg" xmlns:ev="http://www.w3.org/2001/xml-events" xmlns:xlink="http://www.w3.org/1999/xlink"><defs /><rect fill="white" height="600" width="800" x="0" y="0" /><polygon fill="none" id="floor_plan_boundary" points="250.234375,114.375 250.234375,424.453125 349.375,424.453125 351.484375,485.625 469.609375,485.625 471.71875,462.421875 549.765625,462.421875 549.765625,316.875 471.71875,316.875 469.609375,306.328125 461.171875,306.328125 461.171875,325.3125 541.328125,327.421875 539.21875,453.984375 461.171875,453.984375 459.0625,477.1875 362.03125,477.1875 359.921875,416.015625 258.671875,413.90625 258.671875,124.921875 459.0625,122.8125 461.171875,276.796875 469.609375,276.796875 469.609375,114.375" stroke="black" stroke-linecap="butt" stroke-linejoin="miter" stroke-width="4" /><g id="room_living_room"><polygon fill="rgb(238,232,170)" fill-opacity="0.7" points="372.578125,181.875 372.578125,247.265625 326.171875,249.375 326.171875,287.34375 362.03125,289.453125 362.03125,475.078125 459.0625,475.078125 459.0625,181.875" stroke="black" stroke-width="1.5" /><text dominant-baseline="middle" fill="black" font-family="Arial" font-size="12px" font-weight="bold" text-anchor="middle" x="393.671875" y="329.53125">Living Room</text></g><g id="room_master_bedroom"><polygon fill="rgb(255,165,0)" fill-opacity="0.7" points="260.78125,300.0 260.78125,413.90625 349.375,413.90625 349.375,300.0" stroke="black" stroke-width="1.5" /><text dominant-baseline="middle" fill="black" font-family="Arial" font-size="12px" font-weight="bold" text-anchor="middle" x="306.1328125" y="358.0078125">Master Bedroom</text></g><g id="room_common_room_2"><polygon fill="rgb(255,215,0)" fill-opacity="0.7" points="260.78125,124.921875 260.78125,213.515625 324.0625,213.515625 326.171875,236.71875 359.921875,236.71875 359.921875,124.921875" stroke="black" stroke-width="1.5" /><text dominant-baseline="middle" fill="black" font-family="Arial" font-size="12px" font-weight="bold" text-anchor="middle" x="311.40625" y="181.875">Common Room 2</text></g><g id="room_common_room"><polygon fill="rgb(255,215,0)" fill-opacity="0.7" points="471.71875,327.421875 471.71875,451.875 539.21875,451.875 539.21875,327.421875" stroke="black" stroke-width="1.5" /><text dominant-baseline="middle" fill="black" font-family="Arial" font-size="12px" font-weight="bold" text-anchor="middle" x="506.5234375" y="390.703125">Common Room</text></g><g id="room_kitchen"><polygon fill="rgb(240,128,128)" fill-opacity="0.7" points="372.578125,124.921875 372.578125,173.4375 459.0625,173.4375 459.0625,124.921875" stroke="black" stroke-width="1.5" /><text dominant-baseline="middle" fill="black" font-family="Arial" font-size="12px" font-weight="bold" text-anchor="middle" x="416.875" y="150.234375">Kitchen</text></g><g id="room_bathroom"><polygon fill="rgb(173,216,230)" fill-opacity="0.7" points="260.78125,226.171875 260.78125,287.34375 313.515625,287.34375 313.515625,226.171875" stroke="black" stroke-width="1.5" /><text dominant-baseline="middle" fill="black" font-family="Arial" font-size="12px" font-weight="bold" text-anchor="middle" x="288.203125" y="257.8125">Bathroom</text></g><rect fill="red" fill-opacity="0.9" height="27.421875" id="main_door" stroke="darkred" stroke-width="3" width="10.546875" x="461.171875" y="278.90625" /><text dominant-baseline="middle" fill="white" font-family="Arial" font-size="9px" font-weight="bold" text-anchor="middle" x="466.4453125" y="292.6171875">Main Door</text><text fill="black" font-family="Arial" font-size="18px" font-weight="bold" text-anchor="middle" x="400.0" y="30">Floor Plan - ID: 40947</text></svg>