<?xml version="1.0" encoding="utf-8" ?>
<svg baseProfile="full" height="600px" version="1.1" viewBox="0 0 800 600" width="800px" xmlns="http://www.w3.org/2000/svg" xmlns:ev="http://www.w3.org/2001/xml-events" xmlns:xlink="http://www.w3.org/1999/xlink"><defs /><rect fill="white" height="600" width="800" x="0" y="0" /><polygon fill="none" id="floor_plan_boundary" points="180.625,228.28125 180.625,416.015625 381.015625,416.015625 381.015625,403.359375 195.390625,403.359375 195.390625,240.9375 383.125,240.9375 385.234375,196.640625 604.609375,196.640625 606.71875,285.234375 583.515625,287.34375 583.515625,401.25 414.765625,403.359375 414.765625,416.015625 594.0625,416.015625 591.953125,302.109375 619.375,300.0 619.375,183.984375 370.46875,183.984375 368.359375,228.28125" stroke="black" stroke-linecap="butt" stroke-linejoin="miter" stroke-width="4" /><g id="room_living_room"><polygon fill="rgb(238,232,170)" fill-opacity="0.7" points="254.453125,333.75 254.453125,401.25 528.671875,401.25 528.671875,302.109375 414.765625,302.109375 412.65625,268.359375 385.234375,268.359375 383.125,333.75" stroke="black" stroke-width="1.5" /><text dominant-baseline="middle" fill="black" font-family="Arial" font-size="12px" font-weight="bold" text-anchor="middle" x="392.6171875" y="335.859375">Living Room</text></g><g id="room_master_bedroom"><polygon fill="rgb(255,165,0)" fill-opacity="0.7" points="429.53125,268.359375 429.53125,285.234375 604.609375,285.234375 604.609375,198.75 490.703125,198.75 490.703125,266.25" stroke="black" stroke-width="1.5" /><text dominant-baseline="middle" fill="black" font-family="Arial" font-size="12px" font-weight="bold" text-anchor="middle" x="518.125" y="243.046875">Master Bedroom</text></g><g id="room_common_room_2"><polygon fill="rgb(255,215,0)" fill-opacity="0.7" points="195.390625,243.046875 195.390625,316.875 292.421875,316.875 292.421875,243.046875" stroke="black" stroke-width="1.5" /><text dominant-baseline="middle" fill="black" font-family="Arial" font-size="12px" font-weight="bold" text-anchor="middle" x="244.9609375" y="281.015625">Common Room 2</text></g><g id="room_common_room"><polygon fill="rgb(255,215,0)" fill-opacity="0.7" points="309.296875,243.046875 309.296875,316.875 368.359375,316.875 368.359375,243.046875" stroke="black" stroke-width="1.5" /><text dominant-baseline="middle" fill="black" font-family="Arial" font-size="12px" font-weight="bold" text-anchor="middle" x="339.8828125" y="281.015625">Common Room</text></g><g id="room_balcony"><polygon fill="rgb(107,142,35)" fill-opacity="0.7" points="545.546875,302.109375 545.546875,401.25 581.40625,401.25 581.40625,302.109375" stroke="black" stroke-width="1.5" /><text dominant-baseline="middle" fill="black" font-family="Arial" font-size="12px" font-weight="bold" text-anchor="middle" x="564.53125" y="352.734375">Balcony</text></g><g id="room_kitchen"><polygon fill="rgb(240,128,128)" fill-opacity="0.7" points="195.390625,333.75 195.390625,401.25 237.578125,401.25 237.578125,333.75" stroke="black" stroke-width="1.5" /><text dominant-baseline="middle" fill="black" font-family="Arial" font-size="12px" font-weight="bold" text-anchor="middle" x="217.5390625" y="368.5546875">Kitchen</text></g><g id="room_bathroom"><polygon fill="rgb(173,216,230)" fill-opacity="0.7" points="429.53125,198.75 429.53125,251.484375 473.828125,251.484375 473.828125,198.75" stroke="black" stroke-width="1.5" /><text dominant-baseline="middle" fill="black" font-family="Arial" font-size="12px" font-weight="bold" text-anchor="middle" x="452.734375" y="226.171875">Bathroom</text></g><g id="room_bathroom_2"><polygon fill="rgb(173,216,230)" fill-opacity="0.7" points="385.234375,198.75 385.234375,251.484375 412.65625,251.484375 412.65625,198.75" stroke="black" stroke-width="1.5" /><text dominant-baseline="middle" fill="black" font-family="Arial" font-size="12px" font-weight="bold" text-anchor="middle" x="400.0" y="226.171875">Bathroom 2</text></g><rect fill="red" fill-opacity="0.9" height="14.765625" id="main_door" stroke="darkred" stroke-width="3" width="31.640625" x="383.125" y="403.359375" /><text dominant-baseline="middle" fill="white" font-family="Arial" font-size="9px" font-weight="bold" text-anchor="middle" x="398.9453125" y="410.7421875">Main Door</text><text fill="black" font-family="Arial" font-size="18px" font-weight="bold" text-anchor="middle" x="400.0" y="30">Floor Plan - ID: 41450</text></svg>