<?xml version="1.0" encoding="utf-8" ?>
<svg baseProfile="full" height="600px" version="1.1" viewBox="0 0 800 600" width="800px" xmlns="http://www.w3.org/2000/svg" xmlns:ev="http://www.w3.org/2001/xml-events" xmlns:xlink="http://www.w3.org/1999/xlink"><defs /><rect fill="white" height="600" width="800" x="0" y="0" /><polygon fill="none" id="floor_plan_boundary" points="201.71875,205.078125 201.71875,306.328125 220.703125,308.4375 220.703125,356.953125 201.71875,359.0625 201.71875,443.4375 216.484375,443.4375 210.15625,432.890625 210.15625,369.609375 229.140625,367.5 229.140625,297.890625 210.15625,295.78125 210.15625,215.625 311.40625,213.515625 313.515625,165.0 444.296875,165.0 446.40625,190.3125 575.078125,190.3125 577.1875,314.765625 589.84375,316.875 589.84375,401.25 321.953125,403.359375 319.84375,435.0 246.015625,435.0 246.015625,443.4375 330.390625,443.4375 332.5,411.796875 598.28125,411.796875 598.28125,306.328125 585.625,304.21875 585.625,181.875 456.953125,181.875 454.84375,156.5625 302.96875,156.5625 300.859375,205.078125" stroke="black" stroke-linecap="butt" stroke-linejoin="miter" stroke-width="4" /><g id="room_living_room"><polygon fill="rgb(238,232,170)" fill-opacity="0.7" points="522.34375,295.78125 427.421875,295.78125 425.3125,249.375 444.296875,247.265625 444.296875,226.171875 400.0,226.171875 400.0,259.921875 332.5,259.921875 332.5,367.5 212.265625,369.609375 212.265625,432.890625 319.84375,432.890625 321.953125,401.25 522.34375,401.25" stroke="black" stroke-width="1.5" /><text dominant-baseline="middle" fill="black" font-family="Arial" font-size="12px" font-weight="bold" text-anchor="middle" x="368.359375" y="330.5859375">Living Room</text></g><g id="room_master_bedroom"><polygon fill="rgb(255,165,0)" fill-opacity="0.7" points="456.953125,192.421875 456.953125,257.8125 437.96875,259.921875 437.96875,283.125 575.078125,283.125 575.078125,192.421875" stroke="black" stroke-width="1.5" /><text dominant-baseline="middle" fill="black" font-family="Arial" font-size="12px" font-weight="bold" text-anchor="middle" x="507.578125" y="238.828125">Master Bedroom</text></g><g id="room_common_room"><polygon fill="rgb(255,215,0)" fill-opacity="0.7" points="212.265625,215.625 212.265625,295.78125 319.84375,295.78125 319.84375,259.921875 300.859375,257.8125 300.859375,215.625" stroke="black" stroke-width="1.5" /><text dominant-baseline="middle" fill="black" font-family="Arial" font-size="12px" font-weight="bold" text-anchor="middle" x="267.109375" y="256.7578125">Common Room</text></g><g id="room_common_room_2"><polygon fill="rgb(255,215,0)" fill-opacity="0.7" points="313.515625,167.109375 313.515625,247.265625 391.5625,247.265625 391.5625,167.109375" stroke="black" stroke-width="1.5" /><text dominant-baseline="middle" fill="black" font-family="Arial" font-size="12px" font-weight="bold" text-anchor="middle" x="353.59375" y="208.2421875">Common Room 2</text></g><g id="room_balcony"><polygon fill="rgb(107,142,35)" fill-opacity="0.7" points="535.0,295.78125 535.0,401.25 587.734375,401.25 587.734375,316.875 575.078125,314.765625 575.078125,295.78125" stroke="black" stroke-width="1.5" /><text dominant-baseline="middle" fill="black" font-family="Arial" font-size="12px" font-weight="bold" text-anchor="middle" x="562.421875" y="349.5703125">Balcony</text></g><g id="room_kitchen"><polygon fill="rgb(240,128,128)" fill-opacity="0.7" points="231.25,308.4375 231.25,356.953125 319.84375,356.953125 319.84375,308.4375" stroke="black" stroke-width="1.5" /><text dominant-baseline="middle" fill="black" font-family="Arial" font-size="12px" font-weight="bold" text-anchor="middle" x="276.6015625" y="333.75">Kitchen</text></g><g id="room_bathroom"><polygon fill="rgb(173,216,230)" fill-opacity="0.7" points="400.0,167.109375 400.0,217.734375 444.296875,217.734375 444.296875,167.109375" stroke="black" stroke-width="1.5" /><text dominant-baseline="middle" fill="black" font-family="Arial" font-size="12px" font-weight="bold" text-anchor="middle" x="423.203125" y="193.4765625">Bathroom</text></g><rect fill="red" fill-opacity="0.9" height="10.546875" id="main_door" stroke="darkred" stroke-width="3" width="27.421875" x="218.59375" y="435.0" /><text dominant-baseline="middle" fill="white" font-family="Arial" font-size="9px" font-weight="bold" text-anchor="middle" x="232.3046875" y="440.2734375">Main Door</text><text fill="black" font-family="Arial" font-size="18px" font-weight="bold" text-anchor="middle" x="400.0" y="30">Floor Plan - ID: 41620</text></svg>