<?xml version="1.0" encoding="utf-8" ?>
<svg baseProfile="full" height="600px" version="1.1" viewBox="0 0 800 600" width="800px" xmlns="http://www.w3.org/2000/svg" xmlns:ev="http://www.w3.org/2001/xml-events" xmlns:xlink="http://www.w3.org/1999/xlink"><defs /><rect fill="white" height="600" width="800" x="0" y="0" /><polygon fill="none" id="floor_plan_boundary" points="267.109375,148.125 267.109375,232.5 273.4375,152.34375 505.46875,152.34375 507.578125,251.484375 528.671875,253.59375 528.671875,409.6875 408.4375,411.796875 406.328125,447.65625 315.625,445.546875 315.625,291.5625 273.4375,291.5625 267.109375,262.03125 267.109375,295.78125 311.40625,297.890625 311.40625,451.875 412.65625,451.875 414.765625,416.015625 532.890625,416.015625 532.890625,247.265625 511.796875,245.15625 511.796875,148.125" stroke="black" stroke-linecap="butt" stroke-linejoin="miter" stroke-width="4" /><g id="room_living_room"><polygon fill="rgb(238,232,170)" fill-opacity="0.7" points="328.28125,154.453125 328.28125,236.71875 273.4375,238.828125 273.4375,289.453125 319.84375,293.671875 317.734375,409.6875 406.328125,409.6875 406.328125,291.5625 482.265625,289.453125 482.265625,253.59375 406.328125,251.484375 406.328125,154.453125" stroke="black" stroke-width="1.5" /><text dominant-baseline="middle" fill="black" font-family="Arial" font-size="12px" font-weight="bold" text-anchor="middle" x="378.90625" y="283.125">Living Room</text></g><g id="room_master_bedroom"><polygon fill="rgb(255,165,0)" fill-opacity="0.7" points="414.765625,297.890625 414.765625,409.6875 526.5625,409.6875 526.5625,297.890625" stroke="black" stroke-width="1.5" /><text dominant-baseline="middle" fill="black" font-family="Arial" font-size="12px" font-weight="bold" text-anchor="middle" x="471.71875" y="354.84375">Master Bedroom</text></g><g id="room_common_room"><polygon fill="rgb(255,215,0)" fill-opacity="0.7" points="414.765625,154.453125 414.765625,245.15625 505.46875,245.15625 505.46875,154.453125" stroke="black" stroke-width="1.5" /><text dominant-baseline="middle" fill="black" font-family="Arial" font-size="12px" font-weight="bold" text-anchor="middle" x="461.171875" y="200.859375">Common Room</text></g><g id="room_kitchen"><polygon fill="rgb(240,128,128)" fill-opacity="0.7" points="273.4375,154.453125 273.4375,230.390625 319.84375,230.390625 319.84375,154.453125" stroke="black" stroke-width="1.5" /><text dominant-baseline="middle" fill="black" font-family="Arial" font-size="12px" font-weight="bold" text-anchor="middle" x="297.6953125" y="193.4765625">Kitchen</text></g><g id="room_balcony"><polygon fill="rgb(107,142,35)" fill-opacity="0.7" points="317.734375,418.125 317.734375,445.546875 406.328125,445.546875 406.328125,418.125" stroke="black" stroke-width="1.5" /><text dominant-baseline="middle" fill="black" font-family="Arial" font-size="12px" font-weight="bold" text-anchor="middle" x="363.0859375" y="432.890625">Balcony</text></g><g id="room_bathroom"><polygon fill="rgb(173,216,230)" fill-opacity="0.7" points="490.703125,253.59375 490.703125,289.453125 526.5625,289.453125 526.5625,253.59375" stroke="black" stroke-width="1.5" /><text dominant-baseline="middle" fill="black" font-family="Arial" font-size="12px" font-weight="bold" text-anchor="middle" x="509.6875" y="272.578125">Bathroom</text></g><rect fill="red" fill-opacity="0.9" height="27.421875" id="main_door" stroke="darkred" stroke-width="3" width="6.328125" x="267.109375" y="234.609375" /><text dominant-baseline="middle" fill="white" font-family="Arial" font-size="9px" font-weight="bold" text-anchor="middle" x="270.2734375" y="248.3203125">Main Door</text><text fill="black" font-family="Arial" font-size="18px" font-weight="bold" text-anchor="middle" x="400.0" y="30">Floor Plan - ID: 41712</text></svg>