<?xml version="1.0" encoding="utf-8" ?>
<svg baseProfile="full" height="600px" version="1.1" viewBox="0 0 800 600" width="800px" xmlns="http://www.w3.org/2000/svg" xmlns:ev="http://www.w3.org/2001/xml-events" xmlns:xlink="http://www.w3.org/1999/xlink"><defs /><rect fill="white" height="600" width="800" x="0" y="0" /><polygon fill="none" id="floor_plan_boundary" points="383.125,55.3125 381.015625,131.25 281.875,131.25 281.875,498.28125 292.421875,500.390625 292.421875,521.484375 362.03125,521.484375 362.03125,500.390625 381.015625,498.28125 383.125,544.6875 516.015625,544.6875 518.125,314.765625 509.6875,325.3125 509.6875,540.46875 389.453125,540.46875 387.34375,489.84375 353.59375,489.84375 351.484375,513.046875 302.96875,513.046875 300.859375,489.84375 290.3125,487.734375 292.421875,139.6875 389.453125,139.6875 387.34375,61.640625 437.96875,61.640625 437.96875,323.203125 467.5,323.203125 467.5,314.765625 446.40625,312.65625 446.40625,55.3125" stroke="black" stroke-linecap="butt" stroke-linejoin="miter" stroke-width="4" /><g id="room_living_room"><polygon fill="rgb(238,232,170)" fill-opacity="0.7" points="389.453125,141.796875 389.453125,257.8125 349.375,259.921875 349.375,337.96875 391.5625,340.078125 389.453125,538.359375 509.6875,538.359375 507.578125,325.3125 435.859375,323.203125 435.859375,141.796875" stroke="black" stroke-width="1.5" /><text dominant-baseline="middle" fill="black" font-family="Arial" font-size="12px" font-weight="bold" text-anchor="middle" x="430.5859375" y="341.1328125">Living Room</text></g><g id="room_master_bedroom"><polygon fill="rgb(255,165,0)" fill-opacity="0.7" points="292.421875,350.625 292.421875,487.734375 302.96875,489.84375 302.96875,510.9375 351.484375,510.9375 353.59375,487.734375 378.90625,487.734375 378.90625,350.625" stroke="black" stroke-width="1.5" /><text dominant-baseline="middle" fill="black" font-family="Arial" font-size="12px" font-weight="bold" text-anchor="middle" x="336.71875" y="431.8359375">Master Bedroom</text></g><g id="room_common_room"><polygon fill="rgb(255,215,0)" fill-opacity="0.7" points="292.421875,141.796875 292.421875,247.265625 381.015625,247.265625 381.015625,141.796875" stroke="black" stroke-width="1.5" /><text dominant-baseline="middle" fill="black" font-family="Arial" font-size="12px" font-weight="bold" text-anchor="middle" x="337.7734375" y="195.5859375">Common Room</text></g><g id="room_bathroom"><polygon fill="rgb(173,216,230)" fill-opacity="0.7" points="292.421875,259.921875 292.421875,337.96875 340.9375,337.96875 340.9375,259.921875" stroke="black" stroke-width="1.5" /><text dominant-baseline="middle" fill="black" font-family="Arial" font-size="12px" font-weight="bold" text-anchor="middle" x="317.734375" y="300.0">Bathroom</text></g><g id="room_balcony"><polygon fill="rgb(107,142,35)" fill-opacity="0.7" points="389.453125,61.640625 389.453125,129.140625 435.859375,129.140625 435.859375,61.640625" stroke="black" stroke-width="1.5" /><text dominant-baseline="middle" fill="black" font-family="Arial" font-size="12px" font-weight="bold" text-anchor="middle" x="413.7109375" y="96.4453125">Balcony</text></g><rect fill="red" fill-opacity="0.9" height="10.546875" id="main_door" stroke="darkred" stroke-width="3" width="44.296875" x="469.609375" y="314.765625" /><text dominant-baseline="middle" fill="white" font-family="Arial" font-size="9px" font-weight="bold" text-anchor="middle" x="491.7578125" y="320.0390625">Main Door</text><text fill="black" font-family="Arial" font-size="18px" font-weight="bold" text-anchor="middle" x="400.0" y="30">Floor Plan - ID: 41887</text></svg>