<?xml version="1.0" encoding="utf-8" ?>
<svg baseProfile="full" height="600px" version="1.1" viewBox="0 0 800 600" width="800px" xmlns="http://www.w3.org/2000/svg" xmlns:ev="http://www.w3.org/2001/xml-events" xmlns:xlink="http://www.w3.org/1999/xlink"><defs /><rect fill="white" height="600" width="800" x="0" y="0" /><polygon fill="none" id="floor_plan_boundary" points="271.328125,91.171875 271.328125,221.953125 275.546875,97.5 315.625,95.390625 317.734375,124.921875 539.21875,124.921875 541.328125,251.484375 482.265625,253.59375 482.265625,466.640625 383.125,468.75 381.015625,504.609375 258.671875,502.5 258.671875,327.421875 275.546875,325.3125 271.328125,251.484375 271.328125,318.984375 254.453125,321.09375 254.453125,508.828125 387.34375,508.828125 389.453125,472.96875 486.484375,472.96875 486.484375,259.921875 545.546875,257.8125 545.546875,120.703125 324.0625,120.703125 321.953125,91.171875" stroke="black" stroke-linecap="butt" stroke-linejoin="miter" stroke-width="4" /><g id="room_living_room"><polygon fill="rgb(238,232,170)" fill-opacity="0.7" points="277.65625,226.171875 277.65625,325.3125 260.78125,327.421875 260.78125,466.640625 381.015625,466.640625 381.015625,327.421875 418.984375,325.3125 418.984375,253.59375 450.625,251.484375 450.625,226.171875" stroke="black" stroke-width="1.5" /><text dominant-baseline="middle" fill="black" font-family="Arial" font-size="12px" font-weight="bold" text-anchor="middle" x="356.7578125" y="347.4609375">Living Room</text></g><g id="room_master_bedroom"><polygon fill="rgb(255,165,0)" fill-opacity="0.7" points="389.453125,333.75 389.453125,466.640625 480.15625,466.640625 480.15625,333.75" stroke="black" stroke-width="1.5" /><text dominant-baseline="middle" fill="black" font-family="Arial" font-size="12px" font-weight="bold" text-anchor="middle" x="435.859375" y="401.25">Master Bedroom</text></g><g id="room_kitchen"><polygon fill="rgb(240,128,128)" fill-opacity="0.7" points="277.65625,97.5 277.65625,217.734375 381.015625,217.734375 381.015625,127.03125 317.734375,127.03125 315.625,97.5" stroke="black" stroke-width="1.5" /><text dominant-baseline="middle" fill="black" font-family="Arial" font-size="12px" font-weight="bold" text-anchor="middle" x="330.390625" y="158.671875">Kitchen</text></g><g id="room_common_room"><polygon fill="rgb(255,215,0)" fill-opacity="0.7" points="459.0625,127.03125 459.0625,251.484375 539.21875,251.484375 539.21875,127.03125" stroke="black" stroke-width="1.5" /><text dominant-baseline="middle" fill="black" font-family="Arial" font-size="12px" font-weight="bold" text-anchor="middle" x="500.1953125" y="190.3125">Common Room</text></g><g id="room_common_room_2"><polygon fill="rgb(255,215,0)" fill-opacity="0.7" points="389.453125,127.03125 389.453125,217.734375 450.625,217.734375 450.625,127.03125" stroke="black" stroke-width="1.5" /><text dominant-baseline="middle" fill="black" font-family="Arial" font-size="12px" font-weight="bold" text-anchor="middle" x="421.09375" y="173.4375">Common Room 2</text></g><g id="room_bathroom"><polygon fill="rgb(173,216,230)" fill-opacity="0.7" points="427.421875,259.921875 427.421875,325.3125 480.15625,325.3125 480.15625,259.921875" stroke="black" stroke-width="1.5" /><text dominant-baseline="middle" fill="black" font-family="Arial" font-size="12px" font-weight="bold" text-anchor="middle" x="454.84375" y="293.671875">Bathroom</text></g><g id="room_balcony"><polygon fill="rgb(107,142,35)" fill-opacity="0.7" points="260.78125,475.078125 260.78125,502.5 381.015625,502.5 381.015625,475.078125" stroke="black" stroke-width="1.5" /><text dominant-baseline="middle" fill="black" font-family="Arial" font-size="12px" font-weight="bold" text-anchor="middle" x="321.953125" y="489.84375">Balcony</text></g><rect fill="red" fill-opacity="0.9" height="27.421875" id="main_door" stroke="darkred" stroke-width="3" width="6.328125" x="271.328125" y="224.0625" /><text dominant-baseline="middle" fill="white" font-family="Arial" font-size="9px" font-weight="bold" text-anchor="middle" x="274.4921875" y="237.7734375">Main Door</text><text fill="black" font-family="Arial" font-size="18px" font-weight="bold" text-anchor="middle" x="400.0" y="30">Floor Plan - ID: 42039</text></svg>