<?xml version="1.0" encoding="utf-8" ?>
<svg baseProfile="full" height="600px" version="1.1" viewBox="0 0 800 600" width="800px" xmlns="http://www.w3.org/2000/svg" xmlns:ev="http://www.w3.org/2001/xml-events" xmlns:xlink="http://www.w3.org/1999/xlink"><defs /><rect fill="white" height="600" width="800" x="0" y="0" /><polygon fill="none" id="floor_plan_boundary" points="467.5,72.1875 406.328125,72.1875 406.328125,215.625 412.65625,76.40625 461.171875,76.40625 463.28125,137.578125 513.90625,139.6875 513.90625,481.40625 406.328125,483.515625 404.21875,523.59375 286.09375,521.484375 286.09375,329.53125 321.953125,327.421875 324.0625,259.921875 410.546875,259.921875 410.546875,253.59375 317.734375,255.703125 317.734375,321.09375 281.875,323.203125 281.875,527.8125 410.546875,527.8125 412.65625,487.734375 518.125,487.734375 518.125,133.359375 467.5,131.25" stroke="black" stroke-linecap="butt" stroke-linejoin="miter" stroke-width="4" /><g id="room_living_room"><polygon fill="rgb(238,232,170)" fill-opacity="0.7" points="444.296875,219.84375 412.65625,219.84375 410.546875,262.03125 324.0625,262.03125 324.0625,327.421875 288.203125,329.53125 288.203125,460.3125 404.21875,460.3125 402.109375,348.515625 444.296875,344.296875" stroke="black" stroke-width="1.5" /><text dominant-baseline="middle" fill="black" font-family="Arial" font-size="12px" font-weight="bold" text-anchor="middle" x="367.3046875" y="341.1328125">Living Room</text></g><g id="room_master_bedroom"><polygon fill="rgb(255,165,0)" fill-opacity="0.7" points="412.65625,352.734375 412.65625,481.40625 511.796875,481.40625 511.796875,352.734375" stroke="black" stroke-width="1.5" /><text dominant-baseline="middle" fill="black" font-family="Arial" font-size="12px" font-weight="bold" text-anchor="middle" x="463.28125" y="418.125">Master Bedroom</text></g><g id="room_kitchen"><polygon fill="rgb(240,128,128)" fill-opacity="0.7" points="412.65625,139.6875 412.65625,211.40625 511.796875,211.40625 511.796875,139.6875" stroke="black" stroke-width="1.5" /><text dominant-baseline="middle" fill="black" font-family="Arial" font-size="12px" font-weight="bold" text-anchor="middle" x="463.28125" y="176.6015625">Kitchen</text></g><g id="room_balcony"><polygon fill="rgb(107,142,35)" fill-opacity="0.7" points="288.203125,468.75 288.203125,521.484375 404.21875,521.484375 404.21875,468.75" stroke="black" stroke-width="1.5" /><text dominant-baseline="middle" fill="black" font-family="Arial" font-size="12px" font-weight="bold" text-anchor="middle" x="347.265625" y="496.171875">Balcony</text></g><g id="room_bathroom"><polygon fill="rgb(173,216,230)" fill-opacity="0.7" points="452.734375,219.84375 452.734375,272.578125 511.796875,272.578125 511.796875,219.84375" stroke="black" stroke-width="1.5" /><text dominant-baseline="middle" fill="black" font-family="Arial" font-size="12px" font-weight="bold" text-anchor="middle" x="483.3203125" y="247.265625">Bathroom</text></g><g id="room_balcony_2"><polygon fill="rgb(107,142,35)" fill-opacity="0.7" points="412.65625,78.515625 412.65625,131.25 461.171875,131.25 461.171875,78.515625" stroke="black" stroke-width="1.5" /><text dominant-baseline="middle" fill="black" font-family="Arial" font-size="12px" font-weight="bold" text-anchor="middle" x="437.96875" y="105.9375">Balcony 2</text></g><rect fill="red" fill-opacity="0.9" height="35.859375" id="main_door" stroke="darkred" stroke-width="3" width="6.328125" x="406.328125" y="217.734375" /><text dominant-baseline="middle" fill="white" font-family="Arial" font-size="9px" font-weight="bold" text-anchor="middle" x="409.4921875" y="235.6640625">Main Door</text><text fill="black" font-family="Arial" font-size="18px" font-weight="bold" text-anchor="middle" x="400.0" y="30">Floor Plan - ID: 42074</text></svg>