<?xml version="1.0" encoding="utf-8" ?>
<svg baseProfile="full" height="600px" version="1.1" viewBox="0 0 800 600" width="800px" xmlns="http://www.w3.org/2000/svg" xmlns:ev="http://www.w3.org/2001/xml-events" xmlns:xlink="http://www.w3.org/1999/xlink"><defs /><rect fill="white" height="600" width="800" x="0" y="0" /><polygon fill="none" id="floor_plan_boundary" points="490.703125,78.515625 427.421875,78.515625 425.3125,112.265625 281.875,112.265625 281.875,209.296875 269.21875,211.40625 269.21875,340.078125 309.296875,342.1875 309.296875,521.484375 418.984375,521.484375 421.09375,508.828125 530.78125,508.828125 530.78125,331.640625 503.359375,329.53125 503.359375,268.359375 482.265625,276.796875 494.921875,278.90625 494.921875,340.078125 522.34375,342.1875 520.234375,500.390625 410.546875,500.390625 408.4375,513.046875 319.84375,513.046875 317.734375,331.640625 277.65625,329.53125 277.65625,221.953125 290.3125,219.84375 290.3125,122.8125 433.75,120.703125 433.75,82.734375 480.15625,82.734375 482.265625,200.859375 456.953125,202.96875 456.953125,240.9375 490.703125,238.828125 490.703125,232.5 465.390625,230.390625 467.5,211.40625 490.703125,211.40625" stroke="black" stroke-linecap="butt" stroke-linejoin="miter" stroke-width="4" /><g id="room_living_room"><polygon fill="rgb(238,232,170)" fill-opacity="0.7" points="279.765625,221.953125 279.765625,329.53125 418.984375,329.53125 421.09375,367.5 450.625,367.5 452.734375,329.53125 492.8125,329.53125 480.15625,243.046875 456.953125,243.046875 454.84375,221.953125 425.3125,219.84375 425.3125,186.09375 381.015625,186.09375 378.90625,219.84375" stroke="black" stroke-width="1.5" /><text dominant-baseline="middle" fill="black" font-family="Arial" font-size="12px" font-weight="bold" text-anchor="middle" x="387.34375" y="277.8515625">Living Room</text></g><g id="room_master_bedroom"><polygon fill="rgb(255,165,0)" fill-opacity="0.7" points="463.28125,342.1875 461.171875,380.15625 421.09375,380.15625 421.09375,498.28125 520.234375,498.28125 520.234375,342.1875" stroke="black" stroke-width="1.5" /><text dominant-baseline="middle" fill="black" font-family="Arial" font-size="12px" font-weight="bold" text-anchor="middle" x="471.71875" y="421.2890625">Master Bedroom</text></g><g id="room_common_room"><polygon fill="rgb(255,215,0)" fill-opacity="0.7" points="319.84375,342.1875 319.84375,456.09375 408.4375,456.09375 408.4375,342.1875" stroke="black" stroke-width="1.5" /><text dominant-baseline="middle" fill="black" font-family="Arial" font-size="12px" font-weight="bold" text-anchor="middle" x="365.1953125" y="400.1953125">Common Room</text></g><g id="room_common_room_2"><polygon fill="rgb(255,215,0)" fill-opacity="0.7" points="292.421875,122.8125 292.421875,211.40625 368.359375,211.40625 368.359375,122.8125" stroke="black" stroke-width="1.5" /><text dominant-baseline="middle" fill="black" font-family="Arial" font-size="12px" font-weight="bold" text-anchor="middle" x="331.4453125" y="168.1640625">Common Room 2</text></g><g id="room_kitchen"><polygon fill="rgb(240,128,128)" fill-opacity="0.7" points="433.75,122.8125 433.75,209.296875 454.84375,209.296875 456.953125,200.859375 480.15625,200.859375 480.15625,122.8125" stroke="black" stroke-width="1.5" /><text dominant-baseline="middle" fill="black" font-family="Arial" font-size="12px" font-weight="bold" text-anchor="middle" x="458.0078125" y="167.109375">Kitchen</text></g><g id="room_balcony"><polygon fill="rgb(107,142,35)" fill-opacity="0.7" points="319.84375,468.75 319.84375,510.9375 408.4375,510.9375 408.4375,468.75" stroke="black" stroke-width="1.5" /><text dominant-baseline="middle" fill="black" font-family="Arial" font-size="12px" font-weight="bold" text-anchor="middle" x="365.1953125" y="490.8984375">Balcony</text></g><g id="room_bathroom"><polygon fill="rgb(173,216,230)" fill-opacity="0.7" points="381.015625,122.8125 381.015625,177.65625 425.3125,177.65625 425.3125,122.8125" stroke="black" stroke-width="1.5" /><text dominant-baseline="middle" fill="black" font-family="Arial" font-size="12px" font-weight="bold" text-anchor="middle" x="404.21875" y="151.2890625">Bathroom</text></g><g id="room_balcony_2"><polygon fill="rgb(107,142,35)" fill-opacity="0.7" points="433.75,84.84375 433.75,110.15625 480.15625,110.15625 480.15625,84.84375" stroke="black" stroke-width="1.5" /><text dominant-baseline="middle" fill="black" font-family="Arial" font-size="12px" font-weight="bold" text-anchor="middle" x="458.0078125" y="98.5546875">Balcony 2</text></g><rect fill="red" fill-opacity="0.9" height="31.640625" id="main_door" stroke="darkred" stroke-width="3" width="10.546875" x="482.265625" y="240.9375" /><text dominant-baseline="middle" fill="white" font-family="Arial" font-size="9px" font-weight="bold" text-anchor="middle" x="487.5390625" y="256.7578125">Main Door</text><text fill="black" font-family="Arial" font-size="18px" font-weight="bold" text-anchor="middle" x="400.0" y="30">Floor Plan - ID: 42151</text></svg>