<?xml version="1.0" encoding="utf-8" ?>
<svg baseProfile="full" height="600px" version="1.1" viewBox="0 0 800 600" width="800px" xmlns="http://www.w3.org/2000/svg" xmlns:ev="http://www.w3.org/2001/xml-events" xmlns:xlink="http://www.w3.org/1999/xlink"><defs /><rect fill="white" height="600" width="800" x="0" y="0" /><polygon fill="none" id="floor_plan_boundary" points="528.671875,133.359375 494.921875,133.359375 492.8125,116.484375 435.859375,116.484375 433.75,133.359375 410.546875,135.46875 239.6875,133.359375 239.6875,213.515625 319.84375,213.515625 321.953125,257.8125 330.390625,257.8125 330.390625,205.078125 248.125,202.96875 250.234375,141.796875 440.078125,141.796875 442.1875,120.703125 486.484375,120.703125 488.59375,141.796875 520.234375,143.90625 520.234375,249.375 551.875,251.484375 551.875,435.0 505.46875,437.109375 505.46875,458.203125 448.515625,458.203125 446.40625,479.296875 332.5,479.296875 330.390625,304.21875 321.953125,304.21875 321.953125,483.515625 452.734375,483.515625 454.84375,462.421875 511.796875,462.421875 513.90625,445.546875 560.3125,445.546875 560.3125,240.9375 528.671875,238.828125" stroke="black" stroke-linecap="butt" stroke-linejoin="miter" stroke-width="4" /><g id="room_living_room"><polygon fill="rgb(238,232,170)" fill-opacity="0.7" points="332.5,175.546875 332.5,435.0 444.296875,435.0 446.40625,302.109375 480.15625,300.0 480.15625,251.484375 456.953125,251.484375 454.84375,276.796875 408.4375,276.796875 406.328125,175.546875" stroke="black" stroke-width="1.5" /><text dominant-baseline="middle" fill="black" font-family="Arial" font-size="12px" font-weight="bold" text-anchor="middle" x="407.3828125" y="306.328125">Living Room</text></g><g id="room_master_bedroom"><polygon fill="rgb(255,165,0)" fill-opacity="0.7" points="454.84375,308.4375 456.953125,456.09375 505.46875,456.09375 505.46875,435.0 549.765625,435.0 549.765625,308.4375" stroke="black" stroke-width="1.5" /><text dominant-baseline="middle" fill="black" font-family="Arial" font-size="12px" font-weight="bold" text-anchor="middle" x="503.359375" y="383.3203125">Master Bedroom</text></g><g id="room_common_room"><polygon fill="rgb(255,215,0)" fill-opacity="0.7" points="486.484375,122.8125 442.1875,122.8125 440.078125,143.90625 418.984375,143.90625 418.984375,264.140625 444.296875,264.140625 446.40625,238.828125 518.125,240.9375 518.125,143.90625 488.59375,143.90625" stroke="black" stroke-width="1.5" /><text dominant-baseline="middle" fill="black" font-family="Arial" font-size="12px" font-weight="bold" text-anchor="middle" x="469.609375" y="194.53125">Common Room</text></g><g id="room_kitchen"><polygon fill="rgb(240,128,128)" fill-opacity="0.7" points="250.234375,143.90625 250.234375,202.96875 319.84375,202.96875 319.84375,143.90625" stroke="black" stroke-width="1.5" /><text dominant-baseline="middle" fill="black" font-family="Arial" font-size="12px" font-weight="bold" text-anchor="middle" x="286.09375" y="174.4921875">Kitchen</text></g><g id="room_balcony"><polygon fill="rgb(107,142,35)" fill-opacity="0.7" points="332.5,447.65625 332.5,477.1875 446.40625,477.1875 444.296875,447.65625" stroke="black" stroke-width="1.5" /><text dominant-baseline="middle" fill="black" font-family="Arial" font-size="12px" font-weight="bold" text-anchor="middle" x="390.5078125" y="463.4765625">Balcony</text></g><g id="room_bathroom"><polygon fill="rgb(173,216,230)" fill-opacity="0.7" points="488.59375,251.484375 488.59375,300.0 549.765625,300.0 549.765625,251.484375" stroke="black" stroke-width="1.5" /><text dominant-baseline="middle" fill="black" font-family="Arial" font-size="12px" font-weight="bold" text-anchor="middle" x="520.234375" y="275.7421875">Bathroom</text></g><g id="room_balcony_2"><polygon fill="rgb(107,142,35)" fill-opacity="0.7" points="332.5,141.796875 332.5,162.890625 406.328125,162.890625 406.328125,141.796875" stroke="black" stroke-width="1.5" /><text dominant-baseline="middle" fill="black" font-family="Arial" font-size="12px" font-weight="bold" text-anchor="middle" x="370.46875" y="153.3984375">Balcony 2</text></g><rect fill="red" fill-opacity="0.9" height="44.296875" id="main_door" stroke="darkred" stroke-width="3" width="10.546875" x="321.953125" y="259.921875" /><text dominant-baseline="middle" fill="white" font-family="Arial" font-size="9px" font-weight="bold" text-anchor="middle" x="327.2265625" y="282.0703125">Main Door</text><text fill="black" font-family="Arial" font-size="18px" font-weight="bold" text-anchor="middle" x="400.0" y="30">Floor Plan - ID: 42367</text></svg>