<?xml version="1.0" encoding="utf-8" ?>
<svg baseProfile="full" height="600px" version="1.1" viewBox="0 0 800 600" width="800px" xmlns="http://www.w3.org/2000/svg" xmlns:ev="http://www.w3.org/2001/xml-events" xmlns:xlink="http://www.w3.org/1999/xlink"><defs /><rect fill="white" height="600" width="800" x="0" y="0" /><polygon fill="none" id="floor_plan_boundary" points="275.546875,84.84375 275.546875,198.75 254.453125,200.859375 254.453125,325.3125 279.765625,327.421875 279.765625,496.171875 404.21875,496.171875 406.328125,515.15625 501.25,515.15625 501.25,327.421875 539.21875,321.09375 497.03125,321.09375 494.921875,510.9375 412.65625,510.9375 410.546875,491.953125 283.984375,489.84375 283.984375,321.09375 258.671875,318.984375 258.671875,207.1875 279.765625,205.078125 281.875,89.0625 484.375,89.0625 486.484375,177.65625 541.328125,179.765625 545.546875,293.671875 545.546875,173.4375 490.703125,171.328125 490.703125,84.84375" stroke="black" stroke-linecap="butt" stroke-linejoin="miter" stroke-width="4" /><g id="room_living_room"><polygon fill="rgb(238,232,170)" fill-opacity="0.7" points="260.78125,207.1875 260.78125,318.984375 539.21875,318.984375 539.21875,293.671875 484.375,291.5625 484.375,179.765625 397.890625,179.765625 393.671875,209.296875" stroke="black" stroke-width="1.5" /><text dominant-baseline="middle" fill="black" font-family="Arial" font-size="12px" font-weight="bold" text-anchor="middle" x="401.0546875" y="250.4296875">Living Room</text></g><g id="room_master_bedroom"><polygon fill="rgb(255,165,0)" fill-opacity="0.7" points="404.21875,327.421875 370.46875,327.421875 368.359375,375.9375 286.09375,375.9375 286.09375,489.84375 404.21875,489.84375" stroke="black" stroke-width="1.5" /><text dominant-baseline="middle" fill="black" font-family="Arial" font-size="12px" font-weight="bold" text-anchor="middle" x="346.2109375" y="409.6875">Master Bedroom</text></g><g id="room_common_room"><polygon fill="rgb(255,215,0)" fill-opacity="0.7" points="412.65625,327.421875 412.65625,475.078125 494.921875,475.078125 494.921875,327.421875" stroke="black" stroke-width="1.5" /><text dominant-baseline="middle" fill="black" font-family="Arial" font-size="12px" font-weight="bold" text-anchor="middle" x="454.84375" y="402.3046875">Common Room</text></g><g id="room_common_room_2"><polygon fill="rgb(255,215,0)" fill-opacity="0.7" points="281.875,91.171875 281.875,198.75 389.453125,198.75 389.453125,91.171875" stroke="black" stroke-width="1.5" /><text dominant-baseline="middle" fill="black" font-family="Arial" font-size="12px" font-weight="bold" text-anchor="middle" x="336.71875" y="146.015625">Common Room 2</text></g><g id="room_kitchen"><polygon fill="rgb(240,128,128)" fill-opacity="0.7" points="397.890625,91.171875 397.890625,171.328125 484.375,171.328125 484.375,91.171875" stroke="black" stroke-width="1.5" /><text dominant-baseline="middle" fill="black" font-family="Arial" font-size="12px" font-weight="bold" text-anchor="middle" x="442.1875" y="132.3046875">Kitchen</text></g><g id="room_bathroom_2"><polygon fill="rgb(173,216,230)" fill-opacity="0.7" points="492.8125,179.765625 492.8125,285.234375 539.21875,285.234375 539.21875,179.765625" stroke="black" stroke-width="1.5" /><text dominant-baseline="middle" fill="black" font-family="Arial" font-size="12px" font-weight="bold" text-anchor="middle" x="517.0703125" y="233.5546875">Bathroom 2</text></g><g id="room_bathroom"><polygon fill="rgb(173,216,230)" fill-opacity="0.7" points="286.09375,327.421875 286.09375,367.5 362.03125,367.5 362.03125,327.421875" stroke="black" stroke-width="1.5" /><text dominant-baseline="middle" fill="black" font-family="Arial" font-size="12px" font-weight="bold" text-anchor="middle" x="325.1171875" y="348.515625">Bathroom</text></g><g id="room_balcony"><polygon fill="rgb(107,142,35)" fill-opacity="0.7" points="412.65625,483.515625 412.65625,508.828125 494.921875,508.828125 494.921875,483.515625" stroke="black" stroke-width="1.5" /><text dominant-baseline="middle" fill="black" font-family="Arial" font-size="12px" font-weight="bold" text-anchor="middle" x="454.84375" y="497.2265625">Balcony</text></g><rect fill="red" fill-opacity="0.9" height="27.421875" id="main_door" stroke="darkred" stroke-width="3" width="6.328125" x="541.328125" y="295.78125" /><text dominant-baseline="middle" fill="white" font-family="Arial" font-size="9px" font-weight="bold" text-anchor="middle" x="544.4921875" y="309.4921875">Main Door</text><text fill="black" font-family="Arial" font-size="18px" font-weight="bold" text-anchor="middle" x="400.0" y="30">Floor Plan - ID: 42597</text></svg>