<?xml version="1.0" encoding="utf-8" ?>
<svg baseProfile="full" height="600px" version="1.1" viewBox="0 0 800 600" width="800px" xmlns="http://www.w3.org/2000/svg" xmlns:ev="http://www.w3.org/2001/xml-events" xmlns:xlink="http://www.w3.org/1999/xlink"><defs /><rect fill="white" height="600" width="800" x="0" y="0" /><polygon fill="none" id="floor_plan_boundary" points="271.328125,169.21875 271.328125,264.140625 290.3125,266.25 290.3125,477.1875 528.671875,477.1875 528.671875,430.78125 516.015625,428.671875 516.015625,167.109375 503.359375,167.109375 507.578125,439.21875 520.234375,441.328125 518.125,468.75 298.75,466.640625 298.75,255.703125 279.765625,253.59375 279.765625,179.765625 397.890625,177.65625 400.0,131.25 467.5,131.25 469.609375,175.546875 478.046875,175.546875 478.046875,122.8125 389.453125,122.8125 387.34375,169.21875" stroke="black" stroke-linecap="butt" stroke-linejoin="miter" stroke-width="4" /><g id="room_living_room"><polygon fill="rgb(238,232,170)" fill-opacity="0.7" points="505.46875,177.65625 412.65625,188.203125 412.65625,262.03125 359.921875,264.140625 359.921875,291.5625 393.671875,293.671875 393.671875,422.34375 505.46875,422.34375" stroke="black" stroke-width="1.5" /><text dominant-baseline="middle" fill="black" font-family="Arial" font-size="12px" font-weight="bold" text-anchor="middle" x="433.75" y="301.0546875">Living Room</text></g><g id="room_common_room"><polygon fill="rgb(255,215,0)" fill-opacity="0.7" points="281.875,179.765625 281.875,253.59375 404.21875,255.703125 402.109375,179.765625" stroke="black" stroke-width="1.5" /><text dominant-baseline="middle" fill="black" font-family="Arial" font-size="12px" font-weight="bold" text-anchor="middle" x="344.1015625" y="218.7890625">Common Room</text></g><g id="room_master_bedroom"><polygon fill="rgb(255,165,0)" fill-opacity="0.7" points="385.234375,300.0 359.921875,300.0 357.8125,318.984375 300.859375,318.984375 300.859375,422.34375 385.234375,422.34375" stroke="black" stroke-width="1.5" /><text dominant-baseline="middle" fill="black" font-family="Arial" font-size="12px" font-weight="bold" text-anchor="middle" x="344.1015625" y="362.2265625">Master Bedroom</text></g><g id="room_balcony"><polygon fill="rgb(107,142,35)" fill-opacity="0.7" points="300.859375,435.0 300.859375,466.640625 518.125,466.640625 518.125,441.328125 505.46875,435.0" stroke="black" stroke-width="1.5" /><text dominant-baseline="middle" fill="black" font-family="Arial" font-size="12px" font-weight="bold" text-anchor="middle" x="410.546875" y="451.875">Balcony</text></g><g id="room_kitchen"><polygon fill="rgb(240,128,128)" fill-opacity="0.7" points="400.0,133.359375 400.0,167.109375 412.65625,167.109375 414.765625,179.765625 469.609375,179.765625 467.5,133.359375" stroke="black" stroke-width="1.5" /><text dominant-baseline="middle" fill="black" font-family="Arial" font-size="12px" font-weight="bold" text-anchor="middle" x="435.859375" y="157.6171875">Kitchen</text></g><g id="room_bathroom"><polygon fill="rgb(173,216,230)" fill-opacity="0.7" points="300.859375,264.140625 300.859375,310.546875 351.484375,310.546875 351.484375,264.140625" stroke="black" stroke-width="1.5" /><text dominant-baseline="middle" fill="black" font-family="Arial" font-size="12px" font-weight="bold" text-anchor="middle" x="327.2265625" y="288.3984375">Bathroom</text></g><rect fill="red" fill-opacity="0.9" height="10.546875" id="main_door" stroke="darkred" stroke-width="3" width="23.203125" x="480.15625" y="167.109375" /><text dominant-baseline="middle" fill="white" font-family="Arial" font-size="9px" font-weight="bold" text-anchor="middle" x="491.7578125" y="172.3828125">Main Door</text><text fill="black" font-family="Arial" font-size="18px" font-weight="bold" text-anchor="middle" x="400.0" y="30">Floor Plan - ID: 42620</text></svg>