<?xml version="1.0" encoding="utf-8" ?>
<svg baseProfile="full" height="600px" version="1.1" viewBox="0 0 800 600" width="800px" xmlns="http://www.w3.org/2000/svg" xmlns:ev="http://www.w3.org/2001/xml-events" xmlns:xlink="http://www.w3.org/1999/xlink"><defs /><rect fill="white" height="600" width="800" x="0" y="0" /><polygon fill="none" id="floor_plan_boundary" points="539.21875,116.484375 535.0,399.140625 471.71875,401.25 469.609375,496.171875 355.703125,494.0625 355.703125,407.578125 309.296875,407.578125 307.1875,327.421875 265.0,325.3125 265.0,198.75 431.640625,196.640625 431.640625,105.9375 469.609375,103.828125 471.71875,120.703125 509.6875,116.484375 478.046875,116.484375 475.9375,99.609375 427.421875,99.609375 425.3125,192.421875 260.78125,192.421875 260.78125,331.640625 302.96875,333.75 302.96875,411.796875 351.484375,413.90625 351.484375,500.390625 475.9375,500.390625 475.9375,407.578125 539.21875,405.46875" stroke="black" stroke-linecap="butt" stroke-linejoin="miter" stroke-width="4" /><g id="room_living_room"><polygon fill="rgb(238,232,170)" fill-opacity="0.7" points="478.046875,122.8125 480.15625,194.53125 433.75,198.75 431.640625,253.59375 374.6875,253.59375 374.6875,297.890625 433.75,300.0 433.75,380.15625 475.9375,380.15625 478.046875,399.140625 532.890625,399.140625 532.890625,122.8125" stroke="black" stroke-width="1.5" /><text dominant-baseline="middle" fill="black" font-family="Arial" font-size="12px" font-weight="bold" text-anchor="middle" x="454.84375" y="262.03125">Living Room</text></g><g id="room_master_bedroom"><polygon fill="rgb(255,165,0)" fill-opacity="0.7" points="357.8125,388.59375 357.8125,494.0625 469.609375,494.0625 469.609375,388.59375" stroke="black" stroke-width="1.5" /><text dominant-baseline="middle" fill="black" font-family="Arial" font-size="12px" font-weight="bold" text-anchor="middle" x="414.765625" y="442.3828125">Master Bedroom</text></g><g id="room_common_room_2"><polygon fill="rgb(255,215,0)" fill-opacity="0.7" points="267.109375,198.75 267.109375,325.3125 300.859375,325.3125 302.96875,297.890625 366.25,297.890625 366.25,198.75" stroke="black" stroke-width="1.5" /><text dominant-baseline="middle" fill="black" font-family="Arial" font-size="12px" font-weight="bold" text-anchor="middle" x="317.734375" y="263.0859375">Common Room 2</text></g><g id="room_common_room"><polygon fill="rgb(255,215,0)" fill-opacity="0.7" points="309.296875,306.328125 309.296875,405.46875 349.375,405.46875 351.484375,380.15625 425.3125,380.15625 425.3125,306.328125" stroke="black" stroke-width="1.5" /><text dominant-baseline="middle" fill="black" font-family="Arial" font-size="12px" font-weight="bold" text-anchor="middle" x="368.359375" y="356.953125">Common Room</text></g><g id="room_kitchen"><polygon fill="rgb(240,128,128)" fill-opacity="0.7" points="433.75,105.9375 433.75,190.3125 469.609375,190.3125 469.609375,105.9375" stroke="black" stroke-width="1.5" /><text dominant-baseline="middle" fill="black" font-family="Arial" font-size="12px" font-weight="bold" text-anchor="middle" x="452.734375" y="149.1796875">Kitchen</text></g><g id="room_bathroom"><polygon fill="rgb(173,216,230)" fill-opacity="0.7" points="374.6875,198.75 374.6875,245.15625 425.3125,245.15625 425.3125,198.75" stroke="black" stroke-width="1.5" /><text dominant-baseline="middle" fill="black" font-family="Arial" font-size="12px" font-weight="bold" text-anchor="middle" x="401.0546875" y="223.0078125">Bathroom</text></g><rect fill="red" fill-opacity="0.9" height="6.328125" id="main_door" stroke="darkred" stroke-width="3" width="27.421875" x="511.796875" y="116.484375" /><text dominant-baseline="middle" fill="white" font-family="Arial" font-size="9px" font-weight="bold" text-anchor="middle" x="525.5078125" y="119.6484375">Main Door</text><text fill="black" font-family="Arial" font-size="18px" font-weight="bold" text-anchor="middle" x="400.0" y="30">Floor Plan - ID: 42624</text></svg>