<?xml version="1.0" encoding="utf-8" ?>
<svg baseProfile="full" height="600px" version="1.1" viewBox="0 0 800 600" width="800px" xmlns="http://www.w3.org/2000/svg" xmlns:ev="http://www.w3.org/2001/xml-events" xmlns:xlink="http://www.w3.org/1999/xlink"><defs /><rect fill="white" height="600" width="800" x="0" y="0" /><polygon fill="none" id="floor_plan_boundary" points="321.953125,122.8125 321.953125,257.8125 330.390625,257.8125 332.5,131.25 402.109375,131.25 404.21875,154.453125 501.25,156.5625 501.25,253.59375 556.09375,255.703125 556.09375,430.78125 450.625,432.890625 448.515625,468.75 332.5,468.75 330.390625,416.015625 246.015625,416.015625 243.90625,318.984375 330.390625,316.875 330.390625,287.34375 321.953125,287.34375 319.84375,308.4375 235.46875,308.4375 235.46875,424.453125 319.84375,424.453125 321.953125,477.1875 459.0625,477.1875 461.171875,441.328125 564.53125,441.328125 564.53125,245.15625 509.6875,243.046875 509.6875,146.015625 414.765625,146.015625 412.65625,122.8125" stroke="black" stroke-linecap="butt" stroke-linejoin="miter" stroke-width="4" /><g id="room_living_room"><polygon fill="rgb(238,232,170)" fill-opacity="0.7" points="332.5,133.359375 332.5,413.90625 448.515625,413.90625 448.515625,308.4375 492.8125,306.328125 492.8125,274.6875 404.21875,274.6875 402.109375,133.359375" stroke="black" stroke-width="1.5" /><text dominant-baseline="middle" fill="black" font-family="Arial" font-size="12px" font-weight="bold" text-anchor="middle" x="413.7109375" y="274.6875">Living Room</text></g><g id="room_common_room"><polygon fill="rgb(255,215,0)" fill-opacity="0.7" points="461.171875,318.984375 461.171875,430.78125 553.984375,430.78125 553.984375,318.984375" stroke="black" stroke-width="1.5" /><text dominant-baseline="middle" fill="black" font-family="Arial" font-size="12px" font-weight="bold" text-anchor="middle" x="508.6328125" y="375.9375">Common Room</text></g><g id="room_common_room_2"><polygon fill="rgb(255,215,0)" fill-opacity="0.7" points="414.765625,156.5625 414.765625,262.03125 492.8125,262.03125 490.703125,245.15625 499.140625,243.046875 499.140625,156.5625" stroke="black" stroke-width="1.5" /><text dominant-baseline="middle" fill="black" font-family="Arial" font-size="12px" font-weight="bold" text-anchor="middle" x="458.0078125" y="210.3515625">Common Room 2</text></g><g id="room_master_bedroom"><polygon fill="rgb(255,165,0)" fill-opacity="0.7" points="246.015625,318.984375 246.015625,413.90625 319.84375,413.90625 319.84375,318.984375" stroke="black" stroke-width="1.5" /><text dominant-baseline="middle" fill="black" font-family="Arial" font-size="12px" font-weight="bold" text-anchor="middle" x="283.984375" y="367.5">Master Bedroom</text></g><g id="room_balcony"><polygon fill="rgb(107,142,35)" fill-opacity="0.7" points="332.5,426.5625 332.5,466.640625 448.515625,466.640625 448.515625,426.5625" stroke="black" stroke-width="1.5" /><text dominant-baseline="middle" fill="black" font-family="Arial" font-size="12px" font-weight="bold" text-anchor="middle" x="391.5625" y="447.65625">Balcony</text></g><g id="room_bathroom"><polygon fill="rgb(173,216,230)" fill-opacity="0.7" points="501.25,255.703125 503.359375,264.140625 501.25,306.328125 553.984375,306.328125 553.984375,255.703125" stroke="black" stroke-width="1.5" /><text dominant-baseline="middle" fill="black" font-family="Arial" font-size="12px" font-weight="bold" text-anchor="middle" x="528.671875" y="282.0703125">Bathroom</text></g><rect fill="red" fill-opacity="0.9" height="27.421875" id="main_door" stroke="darkred" stroke-width="3" width="10.546875" x="321.953125" y="259.921875" /><text dominant-baseline="middle" fill="white" font-family="Arial" font-size="9px" font-weight="bold" text-anchor="middle" x="327.2265625" y="273.6328125">Main Door</text><text fill="black" font-family="Arial" font-size="18px" font-weight="bold" text-anchor="middle" x="400.0" y="30">Floor Plan - ID: 42787</text></svg>