<?xml version="1.0" encoding="utf-8" ?>
<svg baseProfile="full" height="600px" version="1.1" viewBox="0 0 800 600" width="800px" xmlns="http://www.w3.org/2000/svg" xmlns:ev="http://www.w3.org/2001/xml-events" xmlns:xlink="http://www.w3.org/1999/xlink"><defs /><rect fill="white" height="600" width="800" x="0" y="0" /><polygon fill="none" id="floor_plan_boundary" points="248.125,165.0 248.125,211.40625 222.8125,213.515625 222.8125,458.203125 368.359375,458.203125 368.359375,449.765625 231.25,447.65625 231.25,224.0625 252.34375,221.953125 254.453125,169.21875 334.609375,169.21875 336.71875,146.015625 450.625,146.015625 452.734375,171.328125 568.75,173.4375 568.75,394.921875 507.578125,397.03125 507.578125,449.765625 414.765625,449.765625 414.765625,458.203125 516.015625,458.203125 516.015625,405.46875 577.1875,405.46875 577.1875,162.890625 459.0625,162.890625 456.953125,141.796875 326.171875,141.796875 324.0625,165.0" stroke="black" stroke-linecap="butt" stroke-linejoin="miter" stroke-width="4" /><g id="room_living_room"><polygon fill="rgb(238,232,170)" fill-opacity="0.7" points="336.71875,224.0625 336.71875,325.3125 296.640625,327.421875 296.640625,375.9375 321.953125,378.046875 321.953125,447.65625 418.984375,447.65625 418.984375,378.046875 507.578125,375.9375 507.578125,327.421875 448.515625,325.3125 448.515625,224.0625" stroke="black" stroke-width="1.5" /><text dominant-baseline="middle" fill="black" font-family="Arial" font-size="12px" font-weight="bold" text-anchor="middle" x="403.1640625" y="336.9140625">Living Room</text></g><g id="room_master_bedroom"><polygon fill="rgb(255,165,0)" fill-opacity="0.7" points="461.171875,173.4375 461.171875,318.984375 566.640625,318.984375 566.640625,173.4375" stroke="black" stroke-width="1.5" /><text dominant-baseline="middle" fill="black" font-family="Arial" font-size="12px" font-weight="bold" text-anchor="middle" x="514.9609375" y="247.265625">Master Bedroom</text></g><g id="room_balcony"><polygon fill="rgb(107,142,35)" fill-opacity="0.7" points="254.453125,171.328125 254.453125,211.40625 448.515625,211.40625 450.625,148.125 336.71875,148.125 330.390625,173.4375" stroke="black" stroke-width="1.5" /><text dominant-baseline="middle" fill="black" font-family="Arial" font-size="12px" font-weight="bold" text-anchor="middle" x="353.59375" y="180.8203125">Balcony</text></g><g id="room_common_room_3"><polygon fill="rgb(255,215,0)" fill-opacity="0.7" points="233.359375,224.0625 233.359375,318.984375 324.0625,318.984375 324.0625,224.0625" stroke="black" stroke-width="1.5" /><text dominant-baseline="middle" fill="black" font-family="Arial" font-size="12px" font-weight="bold" text-anchor="middle" x="279.765625" y="272.578125">Common Room 3</text></g><g id="room_kitchen"><polygon fill="rgb(240,128,128)" fill-opacity="0.7" points="233.359375,384.375 233.359375,447.65625 313.515625,447.65625 313.515625,384.375" stroke="black" stroke-width="1.5" /><text dominant-baseline="middle" fill="black" font-family="Arial" font-size="12px" font-weight="bold" text-anchor="middle" x="274.4921875" y="417.0703125">Kitchen</text></g><g id="room_common_room"><polygon fill="rgb(255,215,0)" fill-opacity="0.7" points="427.421875,384.375 427.421875,447.65625 507.578125,447.65625 505.46875,384.375" stroke="black" stroke-width="1.5" /><text dominant-baseline="middle" fill="black" font-family="Arial" font-size="12px" font-weight="bold" text-anchor="middle" x="468.5546875" y="417.0703125">Common Room</text></g><g id="room_common_room_2"><polygon fill="rgb(255,215,0)" fill-opacity="0.7" points="516.015625,327.421875 518.125,394.921875 566.640625,394.921875 566.640625,327.421875" stroke="black" stroke-width="1.5" /><text dominant-baseline="middle" fill="black" font-family="Arial" font-size="12px" font-weight="bold" text-anchor="middle" x="542.3828125" y="362.2265625">Common Room 2</text></g><g id="room_bathroom"><polygon fill="rgb(173,216,230)" fill-opacity="0.7" points="233.359375,327.421875 233.359375,375.9375 288.203125,375.9375 288.203125,327.421875" stroke="black" stroke-width="1.5" /><text dominant-baseline="middle" fill="black" font-family="Arial" font-size="12px" font-weight="bold" text-anchor="middle" x="261.8359375" y="352.734375">Bathroom</text></g><rect fill="red" fill-opacity="0.9" height="10.546875" id="main_door" stroke="darkred" stroke-width="3" width="44.296875" x="370.46875" y="449.765625" /><text dominant-baseline="middle" fill="white" font-family="Arial" font-size="9px" font-weight="bold" text-anchor="middle" x="392.6171875" y="455.0390625">Main Door</text><text fill="black" font-family="Arial" font-size="18px" font-weight="bold" text-anchor="middle" x="400.0" y="30">Floor Plan - ID: 42814</text></svg>