<?xml version="1.0" encoding="utf-8" ?>
<svg baseProfile="full" height="600px" version="1.1" viewBox="0 0 800 600" width="800px" xmlns="http://www.w3.org/2000/svg" xmlns:ev="http://www.w3.org/2001/xml-events" xmlns:xlink="http://www.w3.org/1999/xlink"><defs /><rect fill="white" height="600" width="800" x="0" y="0" /><polygon fill="none" id="floor_plan_boundary" points="288.203125,67.96875 288.203125,188.203125 267.109375,190.3125 267.109375,494.0625 389.453125,494.0625 391.5625,532.03125 516.015625,532.03125 516.015625,289.453125 532.890625,287.34375 532.890625,202.96875 528.671875,281.015625 511.796875,283.125 511.796875,525.703125 397.890625,527.8125 395.78125,489.84375 271.328125,487.734375 271.328125,196.640625 292.421875,194.53125 294.53125,72.1875 526.5625,72.1875 532.890625,160.78125 532.890625,67.96875" stroke="black" stroke-linecap="butt" stroke-linejoin="miter" stroke-width="4" /><g id="room_living_room"><polygon fill="rgb(238,232,170)" fill-opacity="0.7" points="362.03125,196.640625 362.03125,352.734375 397.890625,354.84375 397.890625,443.4375 509.6875,443.4375 509.6875,283.125 526.5625,281.015625 526.5625,207.1875 393.671875,209.296875 389.453125,196.640625" stroke="black" stroke-width="1.5" /><text dominant-baseline="middle" fill="black" font-family="Arial" font-size="12px" font-weight="bold" text-anchor="middle" x="445.3515625" y="321.09375">Living Room</text></g><g id="room_master_bedroom"><polygon fill="rgb(255,165,0)" fill-opacity="0.7" points="273.4375,361.171875 273.4375,487.734375 389.453125,487.734375 389.453125,361.171875" stroke="black" stroke-width="1.5" /><text dominant-baseline="middle" fill="black" font-family="Arial" font-size="12px" font-weight="bold" text-anchor="middle" x="332.5" y="425.5078125">Master Bedroom</text></g><g id="room_common_room_2"><polygon fill="rgb(255,215,0)" fill-opacity="0.7" points="294.53125,74.296875 294.53125,188.203125 389.453125,188.203125 389.453125,74.296875" stroke="black" stroke-width="1.5" /><text dominant-baseline="middle" fill="black" font-family="Arial" font-size="12px" font-weight="bold" text-anchor="middle" x="343.046875" y="132.3046875">Common Room 2</text></g><g id="room_room_8"><polygon fill="rgb(218,112,214)" fill-opacity="0.7" points="456.953125,74.296875 456.953125,198.75 526.5625,198.75 526.5625,74.296875" stroke="black" stroke-width="1.5" /><text dominant-baseline="middle" fill="black" font-family="Arial" font-size="12px" font-weight="bold" text-anchor="middle" x="492.8125" y="137.578125">Room 8</text></g><g id="room_balcony"><polygon fill="rgb(107,142,35)" fill-opacity="0.7" points="397.890625,451.875 397.890625,525.703125 509.6875,525.703125 509.6875,451.875" stroke="black" stroke-width="1.5" /><text dominant-baseline="middle" fill="black" font-family="Arial" font-size="12px" font-weight="bold" text-anchor="middle" x="454.84375" y="489.84375">Balcony</text></g><g id="room_common_room"><polygon fill="rgb(255,215,0)" fill-opacity="0.7" points="273.4375,196.640625 273.4375,287.34375 353.59375,287.34375 353.59375,196.640625" stroke="black" stroke-width="1.5" /><text dominant-baseline="middle" fill="black" font-family="Arial" font-size="12px" font-weight="bold" text-anchor="middle" x="314.5703125" y="243.046875">Common Room</text></g><g id="room_kitchen"><polygon fill="rgb(240,128,128)" fill-opacity="0.7" points="397.890625,74.296875 397.890625,198.75 448.515625,198.75 448.515625,74.296875" stroke="black" stroke-width="1.5" /><text dominant-baseline="middle" fill="black" font-family="Arial" font-size="12px" font-weight="bold" text-anchor="middle" x="424.2578125" y="137.578125">Kitchen</text></g><g id="room_bathroom"><polygon fill="rgb(173,216,230)" fill-opacity="0.7" points="273.4375,295.78125 273.4375,352.734375 353.59375,352.734375 353.59375,295.78125" stroke="black" stroke-width="1.5" /><text dominant-baseline="middle" fill="black" font-family="Arial" font-size="12px" font-weight="bold" text-anchor="middle" x="314.5703125" y="325.3125">Bathroom</text></g><rect fill="red" fill-opacity="0.9" height="40.078125" id="main_door" stroke="darkred" stroke-width="3" width="6.328125" x="528.671875" y="162.890625" /><text dominant-baseline="middle" fill="white" font-family="Arial" font-size="9px" font-weight="bold" text-anchor="middle" x="531.8359375" y="182.9296875">Main Door</text><text fill="black" font-family="Arial" font-size="18px" font-weight="bold" text-anchor="middle" x="400.0" y="30">Floor Plan - ID: 43093</text></svg>