<?xml version="1.0" encoding="utf-8" ?>
<svg baseProfile="full" height="600px" version="1.1" viewBox="0 0 800 600" width="800px" xmlns="http://www.w3.org/2000/svg" xmlns:ev="http://www.w3.org/2001/xml-events" xmlns:xlink="http://www.w3.org/1999/xlink"><defs /><rect fill="white" height="600" width="800" x="0" y="0" /><polygon fill="none" id="floor_plan_boundary" points="243.90625,101.71875 243.90625,281.015625 273.4375,281.015625 273.4375,272.578125 252.34375,270.46875 254.453125,110.15625 349.375,110.15625 351.484375,146.015625 547.65625,148.125 547.65625,443.4375 526.5625,445.546875 524.453125,460.3125 469.609375,460.3125 469.609375,445.546875 442.1875,445.546875 440.078125,494.0625 324.0625,494.0625 321.953125,318.984375 265.0,314.765625 265.0,323.203125 313.515625,325.3125 313.515625,498.28125 446.40625,498.28125 448.515625,453.984375 461.171875,453.984375 463.28125,464.53125 530.78125,464.53125 532.890625,453.984375 556.09375,453.984375 556.09375,137.578125 362.03125,137.578125 359.921875,101.71875" stroke="black" stroke-linecap="butt" stroke-linejoin="miter" stroke-width="4" /><g id="room_living_room"><polygon fill="rgb(238,232,170)" fill-opacity="0.7" points="362.03125,202.96875 359.921875,219.84375 321.953125,219.84375 324.0625,281.015625 275.546875,283.125 275.546875,316.875 324.0625,318.984375 324.0625,443.4375 437.96875,443.4375 437.96875,310.546875 478.046875,308.4375 478.046875,255.703125 437.96875,253.59375 437.96875,202.96875" stroke="black" stroke-width="1.5" /><text dominant-baseline="middle" fill="black" font-family="Arial" font-size="12px" font-weight="bold" text-anchor="middle" x="377.8515625" y="324.2578125">Living Room</text></g><g id="room_master_bedroom"><polygon fill="rgb(255,165,0)" fill-opacity="0.7" points="450.625,321.09375 450.625,443.4375 469.609375,443.4375 469.609375,458.203125 524.453125,458.203125 526.5625,443.4375 545.546875,443.4375 545.546875,321.09375" stroke="black" stroke-width="1.5" /><text dominant-baseline="middle" fill="black" font-family="Arial" font-size="12px" font-weight="bold" text-anchor="middle" x="499.140625" y="390.703125">Master Bedroom</text></g><g id="room_common_room"><polygon fill="rgb(255,215,0)" fill-opacity="0.7" points="450.625,148.125 450.625,243.046875 545.546875,243.046875 545.546875,148.125" stroke="black" stroke-width="1.5" /><text dominant-baseline="middle" fill="black" font-family="Arial" font-size="12px" font-weight="bold" text-anchor="middle" x="499.140625" y="196.640625">Common Room</text></g><g id="room_common_room_2"><polygon fill="rgb(255,215,0)" fill-opacity="0.7" points="254.453125,112.265625 254.453125,207.1875 349.375,207.1875 349.375,112.265625" stroke="black" stroke-width="1.5" /><text dominant-baseline="middle" fill="black" font-family="Arial" font-size="12px" font-weight="bold" text-anchor="middle" x="302.96875" y="160.78125">Common Room 2</text></g><g id="room_balcony"><polygon fill="rgb(107,142,35)" fill-opacity="0.7" points="324.0625,456.09375 324.0625,491.953125 440.078125,491.953125 440.078125,456.09375" stroke="black" stroke-width="1.5" /><text dominant-baseline="middle" fill="black" font-family="Arial" font-size="12px" font-weight="bold" text-anchor="middle" x="383.125" y="475.078125">Balcony</text></g><g id="room_kitchen"><polygon fill="rgb(240,128,128)" fill-opacity="0.7" points="362.03125,148.125 362.03125,194.53125 437.96875,194.53125 437.96875,148.125" stroke="black" stroke-width="1.5" /><text dominant-baseline="middle" fill="black" font-family="Arial" font-size="12px" font-weight="bold" text-anchor="middle" x="401.0546875" y="172.3828125">Kitchen</text></g><g id="room_bathroom"><polygon fill="rgb(173,216,230)" fill-opacity="0.7" points="486.484375,255.703125 486.484375,308.4375 545.546875,308.4375 545.546875,255.703125" stroke="black" stroke-width="1.5" /><text dominant-baseline="middle" fill="black" font-family="Arial" font-size="12px" font-weight="bold" text-anchor="middle" x="517.0703125" y="283.125">Bathroom</text></g><g id="room_bathroom_2"><polygon fill="rgb(173,216,230)" fill-opacity="0.7" points="254.453125,219.84375 254.453125,270.46875 313.515625,270.46875 313.515625,219.84375" stroke="black" stroke-width="1.5" /><text dominant-baseline="middle" fill="black" font-family="Arial" font-size="12px" font-weight="bold" text-anchor="middle" x="285.0390625" y="246.2109375">Bathroom 2</text></g><rect fill="red" fill-opacity="0.9" height="31.640625" id="main_door" stroke="darkred" stroke-width="3" width="10.546875" x="265.0" y="283.125" /><text dominant-baseline="middle" fill="white" font-family="Arial" font-size="9px" font-weight="bold" text-anchor="middle" x="270.2734375" y="298.9453125">Main Door</text><text fill="black" font-family="Arial" font-size="18px" font-weight="bold" text-anchor="middle" x="400.0" y="30">Floor Plan - ID: 43120</text></svg>