<?xml version="1.0" encoding="utf-8" ?>
<svg baseProfile="full" height="600px" version="1.1" viewBox="0 0 800 600" width="800px" xmlns="http://www.w3.org/2000/svg" xmlns:ev="http://www.w3.org/2001/xml-events" xmlns:xlink="http://www.w3.org/1999/xlink"><defs /><rect fill="white" height="600" width="800" x="0" y="0" /><polygon fill="none" id="floor_plan_boundary" points="326.171875,116.484375 324.0625,181.875 258.671875,181.875 258.671875,462.421875 374.6875,462.421875 376.796875,483.515625 486.484375,483.515625 486.484375,384.375 541.328125,382.265625 541.328125,308.4375 522.34375,306.328125 522.34375,266.25 456.953125,264.140625 456.953125,116.484375 378.90625,116.484375 378.90625,124.921875 448.515625,127.03125 448.515625,274.6875 511.796875,274.6875 513.90625,316.875 532.890625,318.984375 532.890625,371.71875 478.046875,373.828125 478.046875,472.96875 387.34375,475.078125 385.234375,453.984375 267.109375,451.875 267.109375,192.421875 334.609375,190.3125 334.609375,127.03125 340.9375,116.484375" stroke="black" stroke-linecap="butt" stroke-linejoin="miter" stroke-width="4" /><g id="room_living_room"><polygon fill="rgb(238,232,170)" fill-opacity="0.7" points="374.6875,127.03125 336.71875,127.03125 334.609375,192.421875 269.21875,192.421875 269.21875,409.6875 374.6875,409.6875 374.6875,306.328125 412.65625,304.21875 412.65625,276.796875 374.6875,274.6875" stroke="black" stroke-width="1.5" /><text dominant-baseline="middle" fill="black" font-family="Arial" font-size="12px" font-weight="bold" text-anchor="middle" x="341.9921875" y="269.4140625">Living Room</text></g><g id="room_master_bedroom"><polygon fill="rgb(255,165,0)" fill-opacity="0.7" points="387.34375,312.65625 387.34375,472.96875 475.9375,472.96875 475.9375,365.390625 414.765625,363.28125 412.65625,312.65625" stroke="black" stroke-width="1.5" /><text dominant-baseline="middle" fill="black" font-family="Arial" font-size="12px" font-weight="bold" text-anchor="middle" x="432.6953125" y="393.8671875">Master Bedroom</text></g><g id="room_common_room"><polygon fill="rgb(255,215,0)" fill-opacity="0.7" points="421.09375,276.796875 421.09375,354.84375 486.484375,352.734375 488.59375,371.71875 530.78125,371.71875 530.78125,318.984375 511.796875,316.875 511.796875,276.796875" stroke="black" stroke-width="1.5" /><text dominant-baseline="middle" fill="black" font-family="Arial" font-size="12px" font-weight="bold" text-anchor="middle" x="476.9921875" y="325.3125">Common Room</text></g><g id="room_kitchen"><polygon fill="rgb(240,128,128)" fill-opacity="0.7" points="387.34375,127.03125 387.34375,200.859375 446.40625,200.859375 446.40625,127.03125" stroke="black" stroke-width="1.5" /><text dominant-baseline="middle" fill="black" font-family="Arial" font-size="12px" font-weight="bold" text-anchor="middle" x="417.9296875" y="165.0">Kitchen</text></g><g id="room_balcony"><polygon fill="rgb(107,142,35)" fill-opacity="0.7" points="269.21875,422.34375 269.21875,451.875 374.6875,451.875 374.6875,422.34375" stroke="black" stroke-width="1.5" /><text dominant-baseline="middle" fill="black" font-family="Arial" font-size="12px" font-weight="bold" text-anchor="middle" x="323.0078125" y="438.1640625">Balcony</text></g><g id="room_bathroom"><polygon fill="rgb(173,216,230)" fill-opacity="0.7" points="387.34375,213.515625 387.34375,264.140625 446.40625,264.140625 446.40625,213.515625" stroke="black" stroke-width="1.5" /><text dominant-baseline="middle" fill="black" font-family="Arial" font-size="12px" font-weight="bold" text-anchor="middle" x="417.9296875" y="239.8828125">Bathroom</text></g><rect fill="red" fill-opacity="0.9" height="10.546875" id="main_door" stroke="darkred" stroke-width="3" width="35.859375" x="343.046875" y="116.484375" /><text dominant-baseline="middle" fill="white" font-family="Arial" font-size="9px" font-weight="bold" text-anchor="middle" x="360.9765625" y="121.7578125">Main Door</text><text fill="black" font-family="Arial" font-size="18px" font-weight="bold" text-anchor="middle" x="400.0" y="30">Floor Plan - ID: 43157</text></svg>