<?xml version="1.0" encoding="utf-8" ?>
<svg baseProfile="full" height="600px" version="1.1" viewBox="0 0 800 600" width="800px" xmlns="http://www.w3.org/2000/svg" xmlns:ev="http://www.w3.org/2001/xml-events" xmlns:xlink="http://www.w3.org/1999/xlink"><defs /><rect fill="white" height="600" width="800" x="0" y="0" /><polygon fill="none" id="floor_plan_boundary" points="237.578125,186.09375 237.578125,342.1875 305.078125,344.296875 305.078125,413.90625 535.0,413.90625 535.0,397.03125 528.671875,409.6875 311.40625,409.6875 309.296875,337.96875 241.796875,335.859375 241.796875,192.421875 556.09375,190.3125 558.203125,289.453125 530.78125,291.5625 530.78125,304.21875 535.0,304.21875 537.109375,295.78125 562.421875,295.78125 562.421875,186.09375" stroke="black" stroke-linecap="butt" stroke-linejoin="miter" stroke-width="4" /><g id="room_living_room"><polygon fill="rgb(238,232,170)" fill-opacity="0.7" points="243.90625,297.890625 243.90625,335.859375 311.40625,337.96875 311.40625,407.578125 528.671875,407.578125 528.671875,297.890625 444.296875,297.890625 442.1875,266.25 400.0,266.25 397.890625,297.890625" stroke="black" stroke-width="1.5" /><text dominant-baseline="middle" fill="black" font-family="Arial" font-size="12px" font-weight="bold" text-anchor="middle" x="387.34375" y="337.96875">Living Room</text></g><g id="room_master_bedroom"><polygon fill="rgb(255,165,0)" fill-opacity="0.7" points="450.625,192.421875 450.625,289.453125 556.09375,289.453125 556.09375,192.421875" stroke="black" stroke-width="1.5" /><text dominant-baseline="middle" fill="black" font-family="Arial" font-size="12px" font-weight="bold" text-anchor="middle" x="504.4140625" y="241.9921875">Master Bedroom</text></g><g id="room_common_room"><polygon fill="rgb(255,215,0)" fill-opacity="0.7" points="311.40625,192.421875 311.40625,289.453125 391.5625,289.453125 391.5625,192.421875" stroke="black" stroke-width="1.5" /><text dominant-baseline="middle" fill="black" font-family="Arial" font-size="12px" font-weight="bold" text-anchor="middle" x="352.5390625" y="241.9921875">Common Room</text></g><g id="room_kitchen"><polygon fill="rgb(240,128,128)" fill-opacity="0.7" points="243.90625,228.28125 243.90625,289.453125 302.96875,289.453125 302.96875,228.28125" stroke="black" stroke-width="1.5" /><text dominant-baseline="middle" fill="black" font-family="Arial" font-size="12px" font-weight="bold" text-anchor="middle" x="274.4921875" y="259.921875">Kitchen</text></g><g id="room_bathroom"><polygon fill="rgb(173,216,230)" fill-opacity="0.7" points="400.0,192.421875 400.0,257.8125 442.1875,257.8125 442.1875,192.421875" stroke="black" stroke-width="1.5" /><text dominant-baseline="middle" fill="black" font-family="Arial" font-size="12px" font-weight="bold" text-anchor="middle" x="422.1484375" y="226.171875">Bathroom</text></g><g id="room_balcony"><polygon fill="rgb(107,142,35)" fill-opacity="0.7" points="243.90625,192.421875 243.90625,219.84375 302.96875,219.84375 302.96875,192.421875" stroke="black" stroke-width="1.5" /><text dominant-baseline="middle" fill="black" font-family="Arial" font-size="12px" font-weight="bold" text-anchor="middle" x="274.4921875" y="207.1875">Balcony</text></g><rect fill="red" fill-opacity="0.9" height="90.703125" id="main_door" stroke="darkred" stroke-width="3" width="6.328125" x="530.78125" y="306.328125" /><text dominant-baseline="middle" fill="white" font-family="Arial" font-size="9px" font-weight="bold" text-anchor="middle" x="533.9453125" y="351.6796875">Main Door</text><text fill="black" font-family="Arial" font-size="18px" font-weight="bold" text-anchor="middle" x="400.0" y="30">Floor Plan - ID: 43305</text></svg>