<?xml version="1.0" encoding="utf-8" ?>
<svg baseProfile="full" height="600px" version="1.1" viewBox="0 0 800 600" width="800px" xmlns="http://www.w3.org/2000/svg" xmlns:ev="http://www.w3.org/2001/xml-events" xmlns:xlink="http://www.w3.org/1999/xlink"><defs /><rect fill="white" height="600" width="800" x="0" y="0" /><polygon fill="none" id="floor_plan_boundary" points="501.25,97.5 425.3125,97.5 423.203125,122.8125 336.71875,122.8125 336.71875,243.046875 343.046875,127.03125 429.53125,127.03125 431.640625,101.71875 494.921875,101.71875 497.03125,127.03125 522.34375,129.140625 522.34375,451.875 503.359375,453.984375 501.25,475.078125 431.640625,475.078125 429.53125,453.984375 402.109375,453.984375 400.0,498.28125 279.765625,498.28125 277.65625,274.6875 340.9375,272.578125 273.4375,268.359375 273.4375,502.5 406.328125,502.5 408.4375,458.203125 425.3125,460.3125 425.3125,479.296875 507.578125,479.296875 507.578125,460.3125 526.5625,458.203125 526.5625,122.8125 503.359375,122.8125" stroke="black" stroke-linecap="butt" stroke-linejoin="miter" stroke-width="4" /><g id="room_living_room"><polygon fill="rgb(238,232,170)" fill-opacity="0.7" points="431.640625,103.828125 431.640625,127.03125 408.4375,129.140625 408.4375,234.609375 343.046875,236.71875 343.046875,266.25 364.140625,268.359375 364.140625,329.53125 520.234375,329.53125 520.234375,129.140625 497.03125,129.140625 494.921875,103.828125" stroke="black" stroke-width="1.5" /><text dominant-baseline="middle" fill="black" font-family="Arial" font-size="12px" font-weight="bold" text-anchor="middle" x="432.6953125" y="217.734375">Living Room</text></g><g id="room_common_room"><polygon fill="rgb(255,215,0)" fill-opacity="0.7" points="408.4375,337.96875 408.4375,451.875 429.53125,451.875 431.640625,472.96875 501.25,472.96875 501.25,453.984375 520.234375,451.875 520.234375,337.96875" stroke="black" stroke-width="1.5" /><text dominant-baseline="middle" fill="black" font-family="Arial" font-size="12px" font-weight="bold" text-anchor="middle" x="465.390625" y="406.5234375">Common Room</text></g><g id="room_master_bedroom"><polygon fill="rgb(255,165,0)" fill-opacity="0.7" points="279.765625,337.96875 279.765625,451.875 400.0,451.875 400.0,337.96875" stroke="black" stroke-width="1.5" /><text dominant-baseline="middle" fill="black" font-family="Arial" font-size="12px" font-weight="bold" text-anchor="middle" x="340.9375" y="395.9765625">Master Bedroom</text></g><g id="room_kitchen"><polygon fill="rgb(240,128,128)" fill-opacity="0.7" points="343.046875,129.140625 343.046875,228.28125 400.0,228.28125 400.0,129.140625" stroke="black" stroke-width="1.5" /><text dominant-baseline="middle" fill="black" font-family="Arial" font-size="12px" font-weight="bold" text-anchor="middle" x="372.578125" y="179.765625">Kitchen</text></g><g id="room_balcony"><polygon fill="rgb(107,142,35)" fill-opacity="0.7" points="279.765625,460.3125 279.765625,496.171875 400.0,496.171875 400.0,460.3125" stroke="black" stroke-width="1.5" /><text dominant-baseline="middle" fill="black" font-family="Arial" font-size="12px" font-weight="bold" text-anchor="middle" x="340.9375" y="479.296875">Balcony</text></g><g id="room_bathroom"><polygon fill="rgb(173,216,230)" fill-opacity="0.7" points="279.765625,274.6875 279.765625,329.53125 355.703125,329.53125 355.703125,274.6875" stroke="black" stroke-width="1.5" /><text dominant-baseline="middle" fill="black" font-family="Arial" font-size="12px" font-weight="bold" text-anchor="middle" x="318.7890625" y="303.1640625">Bathroom</text></g><rect fill="red" fill-opacity="0.9" height="27.421875" id="main_door" stroke="darkred" stroke-width="3" width="6.328125" x="336.71875" y="245.15625" /><text dominant-baseline="middle" fill="white" font-family="Arial" font-size="9px" font-weight="bold" text-anchor="middle" x="339.8828125" y="258.8671875">Main Door</text><text fill="black" font-family="Arial" font-size="18px" font-weight="bold" text-anchor="middle" x="400.0" y="30">Floor Plan - ID: 43629</text></svg>