<?xml version="1.0" encoding="utf-8" ?>
<svg baseProfile="full" height="600px" version="1.1" viewBox="0 0 800 600" width="800px" xmlns="http://www.w3.org/2000/svg" xmlns:ev="http://www.w3.org/2001/xml-events" xmlns:xlink="http://www.w3.org/1999/xlink"><defs /><rect fill="white" height="600" width="800" x="0" y="0" /><polygon fill="none" id="floor_plan_boundary" points="553.984375,139.6875 467.5,139.6875 465.390625,95.390625 378.90625,95.390625 376.796875,139.6875 277.65625,139.6875 277.65625,243.046875 246.015625,245.15625 246.015625,371.71875 277.65625,373.828125 277.65625,504.609375 357.8125,504.609375 359.921875,481.40625 456.953125,481.40625 456.953125,445.546875 478.046875,443.4375 482.265625,363.28125 469.609375,363.28125 469.609375,432.890625 448.515625,435.0 446.40625,472.96875 349.375,472.96875 347.265625,496.171875 286.09375,494.0625 286.09375,363.28125 254.453125,361.171875 254.453125,255.703125 286.09375,253.59375 286.09375,150.234375 387.34375,148.125 389.453125,103.828125 454.84375,103.828125 456.953125,148.125 543.4375,148.125 545.546875,356.953125 509.6875,359.0625 518.125,371.71875 553.984375,367.5" stroke="black" stroke-linecap="butt" stroke-linejoin="miter" stroke-width="4" /><g id="room_living_room"><polygon fill="rgb(238,232,170)" fill-opacity="0.7" points="256.5625,255.703125 256.5625,361.171875 543.4375,356.953125 543.4375,327.421875 492.8125,325.3125 492.8125,253.59375 450.625,253.59375 448.515625,221.953125 395.78125,221.953125 393.671875,253.59375" stroke="black" stroke-width="1.5" /><text dominant-baseline="middle" fill="black" font-family="Arial" font-size="12px" font-weight="bold" text-anchor="middle" x="401.0546875" y="293.671875">Living Room</text></g><g id="room_master_bedroom"><polygon fill="rgb(255,165,0)" fill-opacity="0.7" points="288.203125,371.71875 288.203125,494.0625 347.265625,494.0625 349.375,470.859375 414.765625,470.859375 414.765625,371.71875" stroke="black" stroke-width="1.5" /><text dominant-baseline="middle" fill="black" font-family="Arial" font-size="12px" font-weight="bold" text-anchor="middle" x="352.5390625" y="433.9453125">Master Bedroom</text></g><g id="room_common_room_2"><polygon fill="rgb(255,215,0)" fill-opacity="0.7" points="288.203125,150.234375 288.203125,245.15625 387.34375,245.15625 387.34375,150.234375" stroke="black" stroke-width="1.5" /><text dominant-baseline="middle" fill="black" font-family="Arial" font-size="12px" font-weight="bold" text-anchor="middle" x="338.828125" y="198.75">Common Room 2</text></g><g id="room_common_room"><polygon fill="rgb(255,215,0)" fill-opacity="0.7" points="456.953125,150.234375 456.953125,245.15625 543.4375,245.15625 543.4375,150.234375" stroke="black" stroke-width="1.5" /><text dominant-baseline="middle" fill="black" font-family="Arial" font-size="12px" font-weight="bold" text-anchor="middle" x="501.25" y="198.75">Common Room</text></g><g id="room_bathroom"><polygon fill="rgb(173,216,230)" fill-opacity="0.7" points="423.203125,371.71875 423.203125,470.859375 446.40625,470.859375 446.40625,435.0 467.5,432.890625 467.5,371.71875" stroke="black" stroke-width="1.5" /><text dominant-baseline="middle" fill="black" font-family="Arial" font-size="12px" font-weight="bold" text-anchor="middle" x="446.40625" y="422.34375">Bathroom</text></g><g id="room_kitchen"><polygon fill="rgb(240,128,128)" fill-opacity="0.7" points="395.78125,150.234375 395.78125,213.515625 448.515625,213.515625 448.515625,150.234375" stroke="black" stroke-width="1.5" /><text dominant-baseline="middle" fill="black" font-family="Arial" font-size="12px" font-weight="bold" text-anchor="middle" x="423.203125" y="182.9296875">Kitchen</text></g><g id="room_bathroom_2"><polygon fill="rgb(173,216,230)" fill-opacity="0.7" points="501.25,253.59375 501.25,318.984375 543.4375,318.984375 543.4375,253.59375" stroke="black" stroke-width="1.5" /><text dominant-baseline="middle" fill="black" font-family="Arial" font-size="12px" font-weight="bold" text-anchor="middle" x="523.3984375" y="287.34375">Bathroom 2</text></g><g id="room_balcony"><polygon fill="rgb(107,142,35)" fill-opacity="0.7" points="389.453125,105.9375 389.453125,137.578125 454.84375,137.578125 454.84375,105.9375" stroke="black" stroke-width="1.5" /><text dominant-baseline="middle" fill="black" font-family="Arial" font-size="12px" font-weight="bold" text-anchor="middle" x="423.203125" y="122.8125">Balcony</text></g><rect fill="red" fill-opacity="0.9" height="10.546875" id="main_door" stroke="darkred" stroke-width="3" width="27.421875" x="484.375" y="363.28125" /><text dominant-baseline="middle" fill="white" font-family="Arial" font-size="9px" font-weight="bold" text-anchor="middle" x="498.0859375" y="368.5546875">Main Door</text><text fill="black" font-family="Arial" font-size="18px" font-weight="bold" text-anchor="middle" x="400.0" y="30">Floor Plan - ID: 43704</text></svg>