<?xml version="1.0" encoding="utf-8" ?>
<svg baseProfile="full" height="600px" version="1.1" viewBox="0 0 800 600" width="800px" xmlns="http://www.w3.org/2000/svg" xmlns:ev="http://www.w3.org/2001/xml-events" xmlns:xlink="http://www.w3.org/1999/xlink"><defs /><rect fill="white" height="600" width="800" x="0" y="0" /><polygon fill="none" id="floor_plan_boundary" points="254.453125,162.890625 254.453125,175.546875 549.765625,169.21875 549.765625,287.34375 556.09375,289.453125 556.09375,323.203125 568.75,325.3125 568.75,367.5 556.09375,369.609375 553.984375,382.265625 456.953125,382.265625 454.84375,428.671875 359.921875,428.671875 357.8125,380.15625 233.359375,380.15625 231.25,232.5 262.890625,230.390625 262.890625,205.078125 254.453125,205.078125 252.34375,221.953125 222.8125,221.953125 222.8125,388.59375 347.265625,388.59375 349.375,437.109375 465.390625,437.109375 467.5,390.703125 564.53125,390.703125 564.53125,380.15625 577.1875,378.046875 577.1875,314.765625 564.53125,312.65625 564.53125,278.90625 556.09375,276.796875 556.09375,165.0" stroke="black" stroke-linecap="butt" stroke-linejoin="miter" stroke-width="4" /><g id="room_living_room"><polygon fill="rgb(238,232,170)" fill-opacity="0.7" points="265.0,173.4375 265.0,219.84375 309.296875,221.953125 309.296875,276.796875 357.8125,276.796875 359.921875,323.203125 425.3125,323.203125 427.421875,276.796875 490.703125,276.796875 490.703125,173.4375" stroke="black" stroke-width="1.5" /><text dominant-baseline="middle" fill="black" font-family="Arial" font-size="12px" font-weight="bold" text-anchor="middle" x="378.90625" y="249.375">Living Room</text></g><g id="room_master_bedroom"><polygon fill="rgb(255,165,0)" fill-opacity="0.7" points="437.96875,289.453125 437.96875,323.203125 467.5,325.3125 467.5,380.15625 553.984375,380.15625 553.984375,369.609375 566.640625,367.5 566.640625,325.3125 553.984375,323.203125 553.984375,289.453125" stroke="black" stroke-width="1.5" /><text dominant-baseline="middle" fill="black" font-family="Arial" font-size="12px" font-weight="bold" text-anchor="middle" x="503.359375" y="335.859375">Master Bedroom</text></g><g id="room_common_room"><polygon fill="rgb(255,215,0)" fill-opacity="0.7" points="359.921875,331.640625 359.921875,426.5625 454.84375,426.5625 454.84375,331.640625" stroke="black" stroke-width="1.5" /><text dominant-baseline="middle" fill="black" font-family="Arial" font-size="12px" font-weight="bold" text-anchor="middle" x="408.4375" y="380.15625">Common Room</text></g><g id="room_kitchen"><polygon fill="rgb(240,128,128)" fill-opacity="0.7" points="233.359375,232.5 233.359375,318.984375 296.640625,318.984375 296.640625,232.5" stroke="black" stroke-width="1.5" /><text dominant-baseline="middle" fill="black" font-family="Arial" font-size="12px" font-weight="bold" text-anchor="middle" x="266.0546875" y="276.796875">Kitchen</text></g><g id="room_balcony_2"><polygon fill="rgb(107,142,35)" fill-opacity="0.7" points="503.359375,171.328125 503.359375,276.796875 549.765625,276.796875 549.765625,171.328125" stroke="black" stroke-width="1.5" /><text dominant-baseline="middle" fill="black" font-family="Arial" font-size="12px" font-weight="bold" text-anchor="middle" x="527.6171875" y="225.1171875">Balcony 2</text></g><g id="room_balcony"><polygon fill="rgb(107,142,35)" fill-opacity="0.7" points="233.359375,331.640625 233.359375,378.046875 347.265625,378.046875 347.265625,361.171875 298.75,361.171875 296.640625,331.640625" stroke="black" stroke-width="1.5" /><text dominant-baseline="middle" fill="black" font-family="Arial" font-size="12px" font-weight="bold" text-anchor="middle" x="291.3671875" y="355.8984375">Balcony</text></g><g id="room_bathroom"><polygon fill="rgb(173,216,230)" fill-opacity="0.7" points="309.296875,289.453125 309.296875,348.515625 347.265625,348.515625 347.265625,289.453125" stroke="black" stroke-width="1.5" /><text dominant-baseline="middle" fill="black" font-family="Arial" font-size="12px" font-weight="bold" text-anchor="middle" x="329.3359375" y="320.0390625">Bathroom</text></g><rect fill="red" fill-opacity="0.9" height="27.421875" id="main_door" stroke="darkred" stroke-width="3" width="10.546875" x="254.453125" y="177.65625" /><text dominant-baseline="middle" fill="white" font-family="Arial" font-size="9px" font-weight="bold" text-anchor="middle" x="259.7265625" y="191.3671875">Main Door</text><text fill="black" font-family="Arial" font-size="18px" font-weight="bold" text-anchor="middle" x="400.0" y="30">Floor Plan - ID: 43708</text></svg>