<?xml version="1.0" encoding="utf-8" ?>
<svg baseProfile="full" height="600px" version="1.1" viewBox="0 0 800 600" width="800px" xmlns="http://www.w3.org/2000/svg" xmlns:ev="http://www.w3.org/2001/xml-events" xmlns:xlink="http://www.w3.org/1999/xlink"><defs /><rect fill="white" height="600" width="800" x="0" y="0" /><polygon fill="none" id="floor_plan_boundary" points="545.546875,105.9375 423.203125,105.9375 421.09375,124.921875 294.53125,124.921875 294.53125,251.484375 302.96875,251.484375 305.078125,133.359375 431.640625,133.359375 433.75,114.375 537.109375,116.484375 537.109375,441.328125 355.703125,443.4375 353.59375,485.625 265.0,485.625 262.890625,308.4375 302.96875,306.328125 302.96875,281.015625 294.53125,281.015625 292.421875,297.890625 254.453125,297.890625 254.453125,494.0625 364.140625,494.0625 366.25,451.875 545.546875,451.875" stroke="black" stroke-linecap="butt" stroke-linejoin="miter" stroke-width="4" /><g id="room_living_room"><polygon fill="rgb(238,232,170)" fill-opacity="0.7" points="535.0,116.484375 488.59375,116.484375 486.484375,207.1875 421.09375,205.078125 421.09375,135.46875 305.078125,135.46875 305.078125,295.78125 535.0,295.78125" stroke="black" stroke-width="1.5" /><text dominant-baseline="middle" fill="black" font-family="Arial" font-size="12px" font-weight="bold" text-anchor="middle" x="421.09375" y="207.1875">Living Room</text></g><g id="room_master_bedroom"><polygon fill="rgb(255,165,0)" fill-opacity="0.7" points="265.0,308.4375 265.0,441.328125 353.59375,441.328125 353.59375,308.4375" stroke="black" stroke-width="1.5" /><text dominant-baseline="middle" fill="black" font-family="Arial" font-size="12px" font-weight="bold" text-anchor="middle" x="310.3515625" y="375.9375">Master Bedroom</text></g><g id="room_common_room"><polygon fill="rgb(255,215,0)" fill-opacity="0.7" points="456.953125,308.4375 456.953125,441.328125 535.0,441.328125 535.0,308.4375" stroke="black" stroke-width="1.5" /><text dominant-baseline="middle" fill="black" font-family="Arial" font-size="12px" font-weight="bold" text-anchor="middle" x="497.03125" y="375.9375">Common Room</text></g><g id="room_common_room_2"><polygon fill="rgb(255,215,0)" fill-opacity="0.7" points="366.25,308.4375 366.25,441.328125 444.296875,441.328125 444.296875,308.4375" stroke="black" stroke-width="1.5" /><text dominant-baseline="middle" fill="black" font-family="Arial" font-size="12px" font-weight="bold" text-anchor="middle" x="406.328125" y="375.9375">Common Room 2</text></g><g id="room_bathroom"><polygon fill="rgb(173,216,230)" fill-opacity="0.7" points="433.75,116.484375 433.75,198.75 480.15625,198.75 480.15625,116.484375" stroke="black" stroke-width="1.5" /><text dominant-baseline="middle" fill="black" font-family="Arial" font-size="12px" font-weight="bold" text-anchor="middle" x="458.0078125" y="158.671875">Bathroom</text></g><g id="room_balcony"><polygon fill="rgb(107,142,35)" fill-opacity="0.7" points="265.0,453.984375 265.0,483.515625 353.59375,483.515625 353.59375,453.984375" stroke="black" stroke-width="1.5" /><text dominant-baseline="middle" fill="black" font-family="Arial" font-size="12px" font-weight="bold" text-anchor="middle" x="310.3515625" y="469.8046875">Balcony</text></g><rect fill="red" fill-opacity="0.9" height="27.421875" id="main_door" stroke="darkred" stroke-width="3" width="10.546875" x="294.53125" y="253.59375" /><text dominant-baseline="middle" fill="white" font-family="Arial" font-size="9px" font-weight="bold" text-anchor="middle" x="299.8046875" y="267.3046875">Main Door</text><text fill="black" font-family="Arial" font-size="18px" font-weight="bold" text-anchor="middle" x="400.0" y="30">Floor Plan - ID: 43795</text></svg>