<?xml version="1.0" encoding="utf-8" ?>
<svg baseProfile="full" height="600px" version="1.1" viewBox="0 0 800 600" width="800px" xmlns="http://www.w3.org/2000/svg" xmlns:ev="http://www.w3.org/2001/xml-events" xmlns:xlink="http://www.w3.org/1999/xlink"><defs /><rect fill="white" height="600" width="800" x="0" y="0" /><polygon fill="none" id="floor_plan_boundary" points="585.625,156.5625 516.015625,156.5625 513.90625,143.90625 509.6875,160.78125 581.40625,162.890625 579.296875,451.875 353.59375,451.875 351.484375,333.75 218.59375,331.640625 220.703125,177.65625 283.984375,177.65625 286.09375,160.78125 482.265625,160.78125 482.265625,143.90625 475.9375,156.5625 279.765625,156.5625 277.65625,173.4375 214.375,173.4375 214.375,337.96875 345.15625,337.96875 347.265625,456.09375 585.625,456.09375" stroke="black" stroke-linecap="butt" stroke-linejoin="miter" stroke-width="4" /><g id="room_living_room"><polygon fill="rgb(238,232,170)" fill-opacity="0.7" points="507.578125,150.234375 484.375,150.234375 482.265625,253.59375 353.59375,253.59375 353.59375,405.46875 579.296875,405.46875 579.296875,224.0625 507.578125,221.953125" stroke="black" stroke-width="1.5" /><text dominant-baseline="middle" fill="black" font-family="Arial" font-size="12px" font-weight="bold" text-anchor="middle" x="467.5" y="278.90625">Living Room</text></g><g id="room_master_bedroom"><polygon fill="rgb(255,165,0)" fill-opacity="0.7" points="220.703125,236.71875 220.703125,331.640625 345.15625,331.640625 345.15625,236.71875" stroke="black" stroke-width="1.5" /><text dominant-baseline="middle" fill="black" font-family="Arial" font-size="12px" font-weight="bold" text-anchor="middle" x="283.984375" y="285.234375">Master Bedroom</text></g><g id="room_common_room"><polygon fill="rgb(255,215,0)" fill-opacity="0.7" points="286.09375,162.890625 286.09375,228.28125 351.484375,228.28125 353.59375,245.15625 400.0,245.15625 400.0,162.890625" stroke="black" stroke-width="1.5" /><text dominant-baseline="middle" fill="black" font-family="Arial" font-size="12px" font-weight="bold" text-anchor="middle" x="344.1015625" y="205.078125">Common Room</text></g><g id="room_balcony"><polygon fill="rgb(107,142,35)" fill-opacity="0.7" points="353.59375,413.90625 353.59375,449.765625 579.296875,449.765625 579.296875,413.90625" stroke="black" stroke-width="1.5" /><text dominant-baseline="middle" fill="black" font-family="Arial" font-size="12px" font-weight="bold" text-anchor="middle" x="467.5" y="432.890625">Balcony</text></g><g id="room_kitchen"><polygon fill="rgb(240,128,128)" fill-opacity="0.7" points="408.4375,162.890625 408.4375,245.15625 475.9375,245.15625 475.9375,162.890625" stroke="black" stroke-width="1.5" /><text dominant-baseline="middle" fill="black" font-family="Arial" font-size="12px" font-weight="bold" text-anchor="middle" x="443.2421875" y="205.078125">Kitchen</text></g><g id="room_bathroom_2"><polygon fill="rgb(173,216,230)" fill-opacity="0.7" points="516.015625,162.890625 516.015625,215.625 579.296875,215.625 579.296875,162.890625" stroke="black" stroke-width="1.5" /><text dominant-baseline="middle" fill="black" font-family="Arial" font-size="12px" font-weight="bold" text-anchor="middle" x="548.7109375" y="190.3125">Bathroom 2</text></g><g id="room_bathroom"><polygon fill="rgb(173,216,230)" fill-opacity="0.7" points="220.703125,179.765625 220.703125,228.28125 277.65625,228.28125 277.65625,179.765625" stroke="black" stroke-width="1.5" /><text dominant-baseline="middle" fill="black" font-family="Arial" font-size="12px" font-weight="bold" text-anchor="middle" x="250.234375" y="205.078125">Bathroom</text></g><rect fill="red" fill-opacity="0.9" height="6.328125" id="main_door" stroke="darkred" stroke-width="3" width="27.421875" x="484.375" y="143.90625" /><text dominant-baseline="middle" fill="white" font-family="Arial" font-size="9px" font-weight="bold" text-anchor="middle" x="498.0859375" y="147.0703125">Main Door</text><text fill="black" font-family="Arial" font-size="18px" font-weight="bold" text-anchor="middle" x="400.0" y="30">Floor Plan - ID: 43902</text></svg>