<?xml version="1.0" encoding="utf-8" ?>
<svg baseProfile="full" height="600px" version="1.1" viewBox="0 0 800 600" width="800px" xmlns="http://www.w3.org/2000/svg" xmlns:ev="http://www.w3.org/2001/xml-events" xmlns:xlink="http://www.w3.org/1999/xlink"><defs /><rect fill="white" height="600" width="800" x="0" y="0" /><polygon fill="none" id="floor_plan_boundary" points="509.6875,112.265625 383.125,112.265625 381.015625,143.90625 258.671875,143.90625 258.671875,487.734375 454.84375,487.734375 454.84375,356.953125 448.515625,483.515625 262.890625,481.40625 262.890625,150.234375 387.34375,148.125 389.453125,116.484375 503.359375,116.484375 505.46875,268.359375 537.109375,270.46875 537.109375,325.3125 450.625,327.421875 541.328125,331.640625 541.328125,264.140625 509.6875,262.03125" stroke="black" stroke-linecap="butt" stroke-linejoin="miter" stroke-width="4" /><g id="room_living_room"><polygon fill="rgb(238,232,170)" fill-opacity="0.7" points="421.09375,270.46875 389.453125,270.46875 387.34375,310.546875 265.0,310.546875 265.0,481.40625 381.015625,481.40625 381.015625,361.171875 448.515625,359.0625 448.515625,333.75 421.09375,331.640625" stroke="black" stroke-width="1.5" /><text dominant-baseline="middle" fill="black" font-family="Arial" font-size="12px" font-weight="bold" text-anchor="middle" x="357.8125" y="376.9921875">Living Room</text></g><g id="room_master_bedroom"><polygon fill="rgb(255,165,0)" fill-opacity="0.7" points="265.0,150.234375 265.0,302.109375 381.015625,302.109375 381.015625,150.234375" stroke="black" stroke-width="1.5" /><text dominant-baseline="middle" fill="black" font-family="Arial" font-size="12px" font-weight="bold" text-anchor="middle" x="324.0625" y="227.2265625">Master Bedroom</text></g><g id="room_common_room"><polygon fill="rgb(255,215,0)" fill-opacity="0.7" points="389.453125,150.234375 389.453125,262.03125 503.359375,262.03125 503.359375,150.234375" stroke="black" stroke-width="1.5" /><text dominant-baseline="middle" fill="black" font-family="Arial" font-size="12px" font-weight="bold" text-anchor="middle" x="447.4609375" y="207.1875">Common Room</text></g><g id="room_kitchen"><polygon fill="rgb(240,128,128)" fill-opacity="0.7" points="389.453125,367.5 389.453125,481.40625 448.515625,481.40625 448.515625,367.5" stroke="black" stroke-width="1.5" /><text dominant-baseline="middle" fill="black" font-family="Arial" font-size="12px" font-weight="bold" text-anchor="middle" x="420.0390625" y="425.5078125">Kitchen</text></g><g id="room_bathroom"><polygon fill="rgb(173,216,230)" fill-opacity="0.7" points="429.53125,270.46875 429.53125,325.3125 535.0,325.3125 535.0,270.46875" stroke="black" stroke-width="1.5" /><text dominant-baseline="middle" fill="black" font-family="Arial" font-size="12px" font-weight="bold" text-anchor="middle" x="483.3203125" y="298.9453125">Bathroom</text></g><g id="room_balcony"><polygon fill="rgb(107,142,35)" fill-opacity="0.7" points="389.453125,118.59375 389.453125,141.796875 503.359375,141.796875 503.359375,118.59375" stroke="black" stroke-width="1.5" /><text dominant-baseline="middle" fill="black" font-family="Arial" font-size="12px" font-weight="bold" text-anchor="middle" x="447.4609375" y="131.25">Balcony</text></g><rect fill="red" fill-opacity="0.9" height="27.421875" id="main_door" stroke="darkred" stroke-width="3" width="6.328125" x="450.625" y="329.53125" /><text dominant-baseline="middle" fill="white" font-family="Arial" font-size="9px" font-weight="bold" text-anchor="middle" x="453.7890625" y="343.2421875">Main Door</text><text fill="black" font-family="Arial" font-size="18px" font-weight="bold" text-anchor="middle" x="400.0" y="30">Floor Plan - ID: 44125</text></svg>