<?xml version="1.0" encoding="utf-8" ?>
<svg baseProfile="full" height="600px" version="1.1" viewBox="0 0 800 600" width="800px" xmlns="http://www.w3.org/2000/svg" xmlns:ev="http://www.w3.org/2001/xml-events" xmlns:xlink="http://www.w3.org/1999/xlink"><defs /><rect fill="white" height="600" width="800" x="0" y="0" /><polygon fill="none" id="floor_plan_boundary" points="530.78125,114.375 414.765625,114.375 412.65625,158.671875 302.96875,158.671875 307.1875,268.359375 309.296875,162.890625 418.984375,162.890625 421.09375,118.59375 526.5625,120.703125 526.5625,219.84375 497.03125,221.953125 497.03125,278.90625 526.5625,281.015625 526.5625,479.296875 275.546875,481.40625 273.4375,390.703125 307.1875,388.59375 302.96875,302.109375 302.96875,382.265625 269.21875,384.375 269.21875,485.625 530.78125,485.625 530.78125,274.6875 501.25,272.578125 501.25,228.28125 530.78125,226.171875" stroke="black" stroke-linecap="butt" stroke-linejoin="miter" stroke-width="4" /><g id="room_living_room"><polygon fill="rgb(238,232,170)" fill-opacity="0.7" points="309.296875,165.0 309.296875,388.59375 275.546875,390.703125 275.546875,479.296875 412.65625,479.296875 412.65625,165.0" stroke="black" stroke-width="1.5" /><text dominant-baseline="middle" fill="black" font-family="Arial" font-size="12px" font-weight="bold" text-anchor="middle" x="345.15625" y="323.203125">Living Room</text></g><g id="room_master_bedroom"><polygon fill="rgb(255,165,0)" fill-opacity="0.7" points="421.09375,310.546875 421.09375,479.296875 524.453125,479.296875 524.453125,371.71875 461.171875,371.71875 459.0625,310.546875" stroke="black" stroke-width="1.5" /><text dominant-baseline="middle" fill="black" font-family="Arial" font-size="12px" font-weight="bold" text-anchor="middle" x="473.828125" y="395.9765625">Master Bedroom</text></g><g id="room_common_room"><polygon fill="rgb(255,215,0)" fill-opacity="0.7" points="421.09375,120.703125 421.09375,219.84375 524.453125,219.84375 524.453125,120.703125" stroke="black" stroke-width="1.5" /><text dominant-baseline="middle" fill="black" font-family="Arial" font-size="12px" font-weight="bold" text-anchor="middle" x="473.828125" y="171.328125">Common Room</text></g><g id="room_bathroom"><polygon fill="rgb(173,216,230)" fill-opacity="0.7" points="467.5,281.015625 467.5,363.28125 524.453125,363.28125 524.453125,281.015625" stroke="black" stroke-width="1.5" /><text dominant-baseline="middle" fill="black" font-family="Arial" font-size="12px" font-weight="bold" text-anchor="middle" x="497.03125" y="323.203125">Bathroom</text></g><g id="room_kitchen"><polygon fill="rgb(240,128,128)" fill-opacity="0.7" points="421.09375,228.28125 421.09375,302.109375 459.0625,302.109375 456.953125,276.796875 461.171875,272.578125 494.921875,272.578125 494.921875,228.28125" stroke="black" stroke-width="1.5" /><text dominant-baseline="middle" fill="black" font-family="Arial" font-size="12px" font-weight="bold" text-anchor="middle" x="459.0625" y="266.25">Kitchen</text></g><rect fill="red" fill-opacity="0.9" height="31.640625" id="main_door" stroke="darkred" stroke-width="3" width="6.328125" x="302.96875" y="270.46875" /><text dominant-baseline="middle" fill="white" font-family="Arial" font-size="9px" font-weight="bold" text-anchor="middle" x="306.1328125" y="286.2890625">Main Door</text><text fill="black" font-family="Arial" font-size="18px" font-weight="bold" text-anchor="middle" x="400.0" y="30">Floor Plan - ID: 44241</text></svg>