<?xml version="1.0" encoding="utf-8" ?>
<svg baseProfile="full" height="600px" version="1.1" viewBox="0 0 800 600" width="800px" xmlns="http://www.w3.org/2000/svg" xmlns:ev="http://www.w3.org/2001/xml-events" xmlns:xlink="http://www.w3.org/1999/xlink"><defs /><rect fill="white" height="600" width="800" x="0" y="0" /><polygon fill="none" id="floor_plan_boundary" points="248.125,82.734375 248.125,289.453125 288.203125,289.453125 290.3125,300.0 298.75,300.0 298.75,281.015625 256.5625,278.90625 258.671875,91.171875 391.5625,91.171875 393.671875,110.15625 543.4375,112.265625 543.4375,335.859375 505.46875,337.96875 503.359375,460.3125 393.671875,460.3125 391.5625,508.828125 300.859375,508.828125 298.75,329.53125 290.3125,329.53125 290.3125,517.265625 402.109375,517.265625 404.21875,468.75 513.90625,468.75 513.90625,348.515625 551.875,346.40625 551.875,101.71875 404.21875,101.71875 402.109375,82.734375" stroke="black" stroke-linecap="butt" stroke-linejoin="miter" stroke-width="4" /><g id="room_living_room"><polygon fill="rgb(238,232,170)" fill-opacity="0.7" points="258.671875,93.28125 258.671875,278.90625 300.859375,281.015625 300.859375,331.640625 391.5625,331.640625 391.5625,281.015625 440.078125,278.90625 450.625,165.0 391.5625,162.890625 391.5625,93.28125" stroke="black" stroke-width="1.5" /><text dominant-baseline="middle" fill="black" font-family="Arial" font-size="12px" font-weight="bold" text-anchor="middle" x="355.703125" y="213.515625">Living Room</text></g><g id="room_master_bedroom"><polygon fill="rgb(255,165,0)" fill-opacity="0.7" points="404.21875,291.5625 404.21875,458.203125 503.359375,458.203125 503.359375,348.515625 442.1875,348.515625 440.078125,291.5625" stroke="black" stroke-width="1.5" /><text dominant-baseline="middle" fill="black" font-family="Arial" font-size="12px" font-weight="bold" text-anchor="middle" x="454.84375" y="375.9375">Master Bedroom</text></g><g id="room_common_room"><polygon fill="rgb(255,215,0)" fill-opacity="0.7" points="300.859375,344.296875 300.859375,458.203125 391.5625,458.203125 391.5625,344.296875" stroke="black" stroke-width="1.5" /><text dominant-baseline="middle" fill="black" font-family="Arial" font-size="12px" font-weight="bold" text-anchor="middle" x="347.265625" y="402.3046875">Common Room</text></g><g id="room_common_room_2"><polygon fill="rgb(255,215,0)" fill-opacity="0.7" points="452.734375,226.171875 452.734375,335.859375 541.328125,335.859375 541.328125,226.171875" stroke="black" stroke-width="1.5" /><text dominant-baseline="middle" fill="black" font-family="Arial" font-size="12px" font-weight="bold" text-anchor="middle" x="498.0859375" y="282.0703125">Common Room 2</text></g><g id="room_kitchen"><polygon fill="rgb(240,128,128)" fill-opacity="0.7" points="475.9375,112.265625 475.9375,162.890625 459.0625,165.0 459.0625,213.515625 541.328125,213.515625 541.328125,112.265625" stroke="black" stroke-width="1.5" /><text dominant-baseline="middle" fill="black" font-family="Arial" font-size="12px" font-weight="bold" text-anchor="middle" x="501.25" y="163.9453125">Kitchen</text></g><g id="room_balcony"><polygon fill="rgb(107,142,35)" fill-opacity="0.7" points="300.859375,470.859375 300.859375,506.71875 391.5625,506.71875 391.5625,470.859375" stroke="black" stroke-width="1.5" /><text dominant-baseline="middle" fill="black" font-family="Arial" font-size="12px" font-weight="bold" text-anchor="middle" x="347.265625" y="489.84375">Balcony</text></g><g id="room_bathroom"><polygon fill="rgb(173,216,230)" fill-opacity="0.7" points="404.21875,112.265625 404.21875,156.5625 467.5,156.5625 467.5,112.265625" stroke="black" stroke-width="1.5" /><text dominant-baseline="middle" fill="black" font-family="Arial" font-size="12px" font-weight="bold" text-anchor="middle" x="436.9140625" y="135.46875">Bathroom</text></g><rect fill="red" fill-opacity="0.9" height="27.421875" id="main_door" stroke="darkred" stroke-width="3" width="10.546875" x="290.3125" y="302.109375" /><text dominant-baseline="middle" fill="white" font-family="Arial" font-size="9px" font-weight="bold" text-anchor="middle" x="295.5859375" y="315.8203125">Main Door</text><text fill="black" font-family="Arial" font-size="18px" font-weight="bold" text-anchor="middle" x="400.0" y="30">Floor Plan - ID: 4440</text></svg>