<?xml version="1.0" encoding="utf-8" ?>
<svg baseProfile="full" height="600px" version="1.1" viewBox="0 0 800 600" width="800px" xmlns="http://www.w3.org/2000/svg" xmlns:ev="http://www.w3.org/2001/xml-events" xmlns:xlink="http://www.w3.org/1999/xlink"><defs /><rect fill="white" height="600" width="800" x="0" y="0" /><polygon fill="none" id="floor_plan_boundary" points="248.125,91.171875 246.015625,202.96875 317.734375,205.078125 317.734375,270.46875 248.125,272.578125 248.125,281.015625 321.953125,276.796875 321.953125,198.75 250.234375,196.640625 252.34375,95.390625 317.734375,97.5 317.734375,162.890625 568.75,165.0 568.75,449.765625 454.84375,451.875 452.734375,504.609375 336.71875,504.609375 334.609375,451.875 231.25,449.765625 231.25,325.3125 252.34375,323.203125 248.125,310.546875 246.015625,318.984375 227.03125,318.984375 227.03125,456.09375 328.28125,456.09375 330.390625,508.828125 459.0625,508.828125 461.171875,456.09375 572.96875,456.09375 572.96875,158.671875 324.0625,158.671875 321.953125,91.171875" stroke="black" stroke-linecap="butt" stroke-linejoin="miter" stroke-width="4" /><g id="room_living_room"><polygon fill="rgb(238,232,170)" fill-opacity="0.7" points="324.0625,165.0 324.0625,276.796875 254.453125,278.90625 254.453125,316.875 336.71875,318.984375 336.71875,449.765625 452.734375,449.765625 452.734375,318.984375 503.359375,316.875 503.359375,278.90625 467.5,278.90625 465.390625,247.265625 406.328125,245.15625 406.328125,165.0" stroke="black" stroke-width="1.5" /><text dominant-baseline="middle" fill="black" font-family="Arial" font-size="12px" font-weight="bold" text-anchor="middle" x="379.9609375" y="308.4375">Living Room</text></g><g id="room_master_bedroom"><polygon fill="rgb(255,165,0)" fill-opacity="0.7" points="461.171875,325.3125 461.171875,449.765625 566.640625,449.765625 566.640625,304.21875 511.796875,304.21875 509.6875,325.3125" stroke="black" stroke-width="1.5" /><text dominant-baseline="middle" fill="black" font-family="Arial" font-size="12px" font-weight="bold" text-anchor="middle" x="514.9609375" y="378.046875">Master Bedroom</text></g><g id="room_common_room"><polygon fill="rgb(255,215,0)" fill-opacity="0.7" points="233.359375,325.3125 233.359375,449.765625 328.28125,449.765625 328.28125,325.3125" stroke="black" stroke-width="1.5" /><text dominant-baseline="middle" fill="black" font-family="Arial" font-size="12px" font-weight="bold" text-anchor="middle" x="281.875" y="388.59375">Common Room</text></g><g id="room_common_room_2"><polygon fill="rgb(255,215,0)" fill-opacity="0.7" points="473.828125,165.0 473.828125,270.46875 509.6875,270.46875 511.796875,295.78125 566.640625,295.78125 566.640625,165.0" stroke="black" stroke-width="1.5" /><text dominant-baseline="middle" fill="black" font-family="Arial" font-size="12px" font-weight="bold" text-anchor="middle" x="521.2890625" y="231.4453125">Common Room 2</text></g><g id="room_kitchen"><polygon fill="rgb(240,128,128)" fill-opacity="0.7" points="252.34375,97.5 252.34375,196.640625 315.625,196.640625 315.625,97.5" stroke="black" stroke-width="1.5" /><text dominant-baseline="middle" fill="black" font-family="Arial" font-size="12px" font-weight="bold" text-anchor="middle" x="285.0390625" y="148.125">Kitchen</text></g><g id="room_balcony"><polygon fill="rgb(107,142,35)" fill-opacity="0.7" points="336.71875,458.203125 336.71875,502.5 452.734375,502.5 452.734375,458.203125" stroke="black" stroke-width="1.5" /><text dominant-baseline="middle" fill="black" font-family="Arial" font-size="12px" font-weight="bold" text-anchor="middle" x="395.78125" y="481.40625">Balcony</text></g><g id="room_bathroom"><polygon fill="rgb(173,216,230)" fill-opacity="0.7" points="414.765625,165.0 414.765625,238.828125 465.390625,238.828125 465.390625,165.0" stroke="black" stroke-width="1.5" /><text dominant-baseline="middle" fill="black" font-family="Arial" font-size="12px" font-weight="bold" text-anchor="middle" x="441.1328125" y="202.96875">Bathroom</text></g><rect fill="red" fill-opacity="0.9" height="27.421875" id="main_door" stroke="darkred" stroke-width="3" width="6.328125" x="248.125" y="283.125" /><text dominant-baseline="middle" fill="white" font-family="Arial" font-size="9px" font-weight="bold" text-anchor="middle" x="251.2890625" y="296.8359375">Main Door</text><text fill="black" font-family="Arial" font-size="18px" font-weight="bold" text-anchor="middle" x="400.0" y="30">Floor Plan - ID: 44739</text></svg>