<?xml version="1.0" encoding="utf-8" ?>
<svg baseProfile="full" height="600px" version="1.1" viewBox="0 0 800 600" width="800px" xmlns="http://www.w3.org/2000/svg" xmlns:ev="http://www.w3.org/2001/xml-events" xmlns:xlink="http://www.w3.org/1999/xlink"><defs /><rect fill="white" height="600" width="800" x="0" y="0" /><polygon fill="none" id="floor_plan_boundary" points="193.28125,262.03125 193.28125,371.71875 250.234375,373.828125 250.234375,432.890625 311.40625,432.890625 254.453125,426.5625 256.5625,363.28125 197.5,361.171875 197.5,268.359375 254.453125,266.25 254.453125,173.4375 553.984375,171.328125 556.09375,262.03125 602.5,264.140625 602.5,375.9375 452.734375,378.046875 450.625,428.671875 349.375,432.890625 456.953125,432.890625 459.0625,382.265625 606.71875,382.265625 606.71875,257.8125 560.3125,255.703125 560.3125,167.109375 250.234375,167.109375 250.234375,259.921875" stroke="black" stroke-linecap="butt" stroke-linejoin="miter" stroke-width="4" /><g id="room_living_room"><polygon fill="rgb(238,232,170)" fill-opacity="0.7" points="313.515625,268.359375 313.515625,426.5625 351.484375,426.5625 355.703125,373.828125 600.390625,375.9375 600.390625,264.140625 425.3125,264.140625 423.203125,234.609375 366.25,234.609375 364.140625,268.359375" stroke="black" stroke-width="1.5" /><text dominant-baseline="middle" fill="black" font-family="Arial" font-size="12px" font-weight="bold" text-anchor="middle" x="458.0078125" y="331.640625">Living Room</text></g><g id="room_master_bedroom"><polygon fill="rgb(255,165,0)" fill-opacity="0.7" points="431.640625,173.4375 431.640625,255.703125 553.984375,255.703125 553.984375,173.4375" stroke="black" stroke-width="1.5" /><text dominant-baseline="middle" fill="black" font-family="Arial" font-size="12px" font-weight="bold" text-anchor="middle" x="493.8671875" y="215.625">Master Bedroom</text></g><g id="room_common_room"><polygon fill="rgb(255,215,0)" fill-opacity="0.7" points="199.609375,268.359375 199.609375,361.171875 305.078125,361.171875 305.078125,268.359375" stroke="black" stroke-width="1.5" /><text dominant-baseline="middle" fill="black" font-family="Arial" font-size="12px" font-weight="bold" text-anchor="middle" x="253.3984375" y="315.8203125">Common Room</text></g><g id="room_common_room_2"><polygon fill="rgb(255,215,0)" fill-opacity="0.7" points="256.5625,173.4375 256.5625,259.921875 357.8125,259.921875 357.8125,173.4375" stroke="black" stroke-width="1.5" /><text dominant-baseline="middle" fill="black" font-family="Arial" font-size="12px" font-weight="bold" text-anchor="middle" x="308.2421875" y="217.734375">Common Room 2</text></g><g id="room_kitchen"><polygon fill="rgb(240,128,128)" fill-opacity="0.7" points="359.921875,384.375 359.921875,426.5625 450.625,426.5625 450.625,384.375" stroke="black" stroke-width="1.5" /><text dominant-baseline="middle" fill="black" font-family="Arial" font-size="12px" font-weight="bold" text-anchor="middle" x="406.328125" y="406.5234375">Kitchen</text></g><g id="room_bathroom_2"><polygon fill="rgb(173,216,230)" fill-opacity="0.7" points="366.25,173.4375 366.25,226.171875 423.203125,226.171875 423.203125,173.4375" stroke="black" stroke-width="1.5" /><text dominant-baseline="middle" fill="black" font-family="Arial" font-size="12px" font-weight="bold" text-anchor="middle" x="395.78125" y="200.859375">Bathroom 2</text></g><g id="room_bathroom"><polygon fill="rgb(173,216,230)" fill-opacity="0.7" points="256.5625,373.828125 256.5625,426.5625 305.078125,426.5625 305.078125,373.828125" stroke="black" stroke-width="1.5" /><text dominant-baseline="middle" fill="black" font-family="Arial" font-size="12px" font-weight="bold" text-anchor="middle" x="281.875" y="401.25">Bathroom</text></g><rect fill="red" fill-opacity="0.9" height="6.328125" id="main_door" stroke="darkred" stroke-width="3" width="35.859375" x="313.515625" y="428.671875" /><text dominant-baseline="middle" fill="white" font-family="Arial" font-size="9px" font-weight="bold" text-anchor="middle" x="331.4453125" y="431.8359375">Main Door</text><text fill="black" font-family="Arial" font-size="18px" font-weight="bold" text-anchor="middle" x="400.0" y="30">Floor Plan - ID: 44833</text></svg>