<?xml version="1.0" encoding="utf-8" ?>
<svg baseProfile="full" height="600px" version="1.1" viewBox="0 0 800 600" width="800px" xmlns="http://www.w3.org/2000/svg" xmlns:ev="http://www.w3.org/2001/xml-events" xmlns:xlink="http://www.w3.org/1999/xlink"><defs /><rect fill="white" height="600" width="800" x="0" y="0" /><polygon fill="none" id="floor_plan_boundary" points="250.234375,150.234375 250.234375,219.84375 283.984375,221.953125 283.984375,426.5625 302.96875,428.671875 302.96875,449.765625 368.359375,449.765625 370.46875,426.5625 400.0,426.5625 402.109375,447.65625 503.359375,447.65625 503.359375,270.46875 549.765625,268.359375 549.765625,150.234375 389.453125,150.234375 543.4375,154.453125 545.546875,262.03125 499.140625,264.140625 499.140625,441.328125 408.4375,443.4375 406.328125,422.34375 364.140625,422.34375 362.03125,445.546875 309.296875,445.546875 307.1875,422.34375 288.203125,420.234375 288.203125,215.625 254.453125,213.515625 256.5625,154.453125 347.265625,150.234375" stroke="black" stroke-linecap="butt" stroke-linejoin="miter" stroke-width="4" /><g id="room_living_room"><polygon fill="rgb(238,232,170)" fill-opacity="0.7" points="349.375,156.5625 349.375,262.03125 387.34375,264.140625 387.34375,399.140625 497.03125,399.140625 497.03125,270.46875 448.515625,268.359375 448.515625,156.5625" stroke="black" stroke-width="1.5" /><text dominant-baseline="middle" fill="black" font-family="Arial" font-size="12px" font-weight="bold" text-anchor="middle" x="424.2578125" y="278.90625">Living Room</text></g><g id="room_master_bedroom"><polygon fill="rgb(255,165,0)" fill-opacity="0.7" points="290.3125,293.671875 290.3125,420.234375 311.40625,424.453125 309.296875,443.4375 362.03125,443.4375 364.140625,420.234375 406.328125,420.234375 408.4375,441.328125 497.03125,441.328125 497.03125,407.578125 378.90625,405.46875 378.90625,270.46875 349.375,270.46875 347.265625,293.671875" stroke="black" stroke-width="1.5" /><text dominant-baseline="middle" fill="black" font-family="Arial" font-size="12px" font-weight="bold" text-anchor="middle" x="394.7265625" y="358.0078125">Master Bedroom</text></g><g id="room_common_room"><polygon fill="rgb(255,215,0)" fill-opacity="0.7" points="456.953125,156.5625 456.953125,262.03125 543.4375,262.03125 543.4375,156.5625" stroke="black" stroke-width="1.5" /><text dominant-baseline="middle" fill="black" font-family="Arial" font-size="12px" font-weight="bold" text-anchor="middle" x="501.25" y="210.3515625">Common Room</text></g><g id="room_kitchen"><polygon fill="rgb(240,128,128)" fill-opacity="0.7" points="256.5625,156.5625 256.5625,213.515625 340.9375,213.515625 340.9375,156.5625" stroke="black" stroke-width="1.5" /><text dominant-baseline="middle" fill="black" font-family="Arial" font-size="12px" font-weight="bold" text-anchor="middle" x="299.8046875" y="186.09375">Kitchen</text></g><g id="room_bathroom"><polygon fill="rgb(173,216,230)" fill-opacity="0.7" points="290.3125,221.953125 290.3125,285.234375 340.9375,285.234375 340.9375,221.953125" stroke="black" stroke-width="1.5" /><text dominant-baseline="middle" fill="black" font-family="Arial" font-size="12px" font-weight="bold" text-anchor="middle" x="316.6796875" y="254.6484375">Bathroom</text></g><rect fill="red" fill-opacity="0.9" height="6.328125" id="main_door" stroke="darkred" stroke-width="3" width="40.078125" x="349.375" y="150.234375" /><text dominant-baseline="middle" fill="white" font-family="Arial" font-size="9px" font-weight="bold" text-anchor="middle" x="369.4140625" y="153.3984375">Main Door</text><text fill="black" font-family="Arial" font-size="18px" font-weight="bold" text-anchor="middle" x="400.0" y="30">Floor Plan - ID: 44982</text></svg>