<?xml version="1.0" encoding="utf-8" ?>
<svg baseProfile="full" height="600px" version="1.1" viewBox="0 0 800 600" width="800px" xmlns="http://www.w3.org/2000/svg" xmlns:ev="http://www.w3.org/2001/xml-events" xmlns:xlink="http://www.w3.org/1999/xlink"><defs /><rect fill="white" height="600" width="800" x="0" y="0" /><polygon fill="none" id="floor_plan_boundary" points="473.828125,112.265625 378.90625,112.265625 376.796875,152.34375 267.109375,152.34375 267.109375,207.1875 330.390625,209.296875 330.390625,270.46875 269.21875,272.578125 269.21875,285.234375 275.546875,276.796875 334.609375,276.796875 334.609375,202.96875 273.4375,202.96875 273.4375,156.5625 383.125,156.5625 385.234375,116.484375 467.5,116.484375 469.609375,177.65625 516.015625,177.65625 518.125,251.484375 549.765625,253.59375 549.765625,418.125 444.296875,420.234375 442.1875,483.515625 269.21875,483.515625 267.109375,420.234375 250.234375,418.125 250.234375,325.3125 273.4375,323.203125 246.015625,318.984375 246.015625,424.453125 262.890625,426.5625 262.890625,487.734375 448.515625,487.734375 450.625,424.453125 553.984375,424.453125 553.984375,249.375 522.34375,245.15625 522.34375,173.4375 473.828125,171.328125" stroke="black" stroke-linecap="butt" stroke-linejoin="miter" stroke-width="4" /><g id="room_living_room"><polygon fill="rgb(238,232,170)" fill-opacity="0.7" points="336.71875,209.296875 336.71875,276.796875 275.546875,278.90625 275.546875,316.875 336.71875,318.984375 336.71875,437.109375 442.1875,437.109375 442.1875,318.984375 467.5,316.875 467.5,209.296875" stroke="black" stroke-width="1.5" /><text dominant-baseline="middle" fill="black" font-family="Arial" font-size="12px" font-weight="bold" text-anchor="middle" x="372.578125" y="324.2578125">Living Room</text></g><g id="room_master_bedroom"><polygon fill="rgb(255,165,0)" fill-opacity="0.7" points="475.9375,297.890625 475.9375,323.203125 450.625,325.3125 450.625,418.125 547.65625,418.125 547.65625,297.890625" stroke="black" stroke-width="1.5" /><text dominant-baseline="middle" fill="black" font-family="Arial" font-size="12px" font-weight="bold" text-anchor="middle" x="500.1953125" y="359.0625">Master Bedroom</text></g><g id="room_common_room"><polygon fill="rgb(255,215,0)" fill-opacity="0.7" points="252.34375,325.3125 252.34375,418.125 269.21875,420.234375 269.21875,437.109375 328.28125,437.109375 328.28125,325.3125" stroke="black" stroke-width="1.5" /><text dominant-baseline="middle" fill="black" font-family="Arial" font-size="12px" font-weight="bold" text-anchor="middle" x="291.3671875" y="382.265625">Common Room</text></g><g id="room_common_room_2"><polygon fill="rgb(255,215,0)" fill-opacity="0.7" points="385.234375,118.59375 385.234375,200.859375 467.5,200.859375 467.5,118.59375" stroke="black" stroke-width="1.5" /><text dominant-baseline="middle" fill="black" font-family="Arial" font-size="12px" font-weight="bold" text-anchor="middle" x="427.421875" y="160.78125">Common Room 2</text></g><g id="room_balcony"><polygon fill="rgb(107,142,35)" fill-opacity="0.7" points="269.21875,445.546875 269.21875,481.40625 442.1875,481.40625 442.1875,445.546875" stroke="black" stroke-width="1.5" /><text dominant-baseline="middle" fill="black" font-family="Arial" font-size="12px" font-weight="bold" text-anchor="middle" x="356.7578125" y="464.53125">Balcony</text></g><g id="room_kitchen"><polygon fill="rgb(240,128,128)" fill-opacity="0.7" points="273.4375,158.671875 273.4375,200.859375 376.796875,200.859375 376.796875,158.671875" stroke="black" stroke-width="1.5" /><text dominant-baseline="middle" fill="black" font-family="Arial" font-size="12px" font-weight="bold" text-anchor="middle" x="326.171875" y="180.8203125">Kitchen</text></g><g id="room_bathroom_2"><polygon fill="rgb(173,216,230)" fill-opacity="0.7" points="475.9375,179.765625 475.9375,245.15625 516.015625,245.15625 516.015625,179.765625" stroke="black" stroke-width="1.5" /><text dominant-baseline="middle" fill="black" font-family="Arial" font-size="12px" font-weight="bold" text-anchor="middle" x="497.03125" y="213.515625">Bathroom 2</text></g><g id="room_bathroom"><polygon fill="rgb(173,216,230)" fill-opacity="0.7" points="475.9375,253.59375 475.9375,289.453125 547.65625,289.453125 547.65625,253.59375" stroke="black" stroke-width="1.5" /><text dominant-baseline="middle" fill="black" font-family="Arial" font-size="12px" font-weight="bold" text-anchor="middle" x="512.8515625" y="272.578125">Bathroom</text></g><rect fill="red" fill-opacity="0.9" height="35.859375" id="main_door" stroke="darkred" stroke-width="3" width="6.328125" x="269.21875" y="287.34375" /><text dominant-baseline="middle" fill="white" font-family="Arial" font-size="9px" font-weight="bold" text-anchor="middle" x="272.3828125" y="305.2734375">Main Door</text><text fill="black" font-family="Arial" font-size="18px" font-weight="bold" text-anchor="middle" x="400.0" y="30">Floor Plan - ID: 45194</text></svg>