<?xml version="1.0" encoding="utf-8" ?>
<svg baseProfile="full" height="600px" version="1.1" viewBox="0 0 800 600" width="800px" xmlns="http://www.w3.org/2000/svg" xmlns:ev="http://www.w3.org/2001/xml-events" xmlns:xlink="http://www.w3.org/1999/xlink"><defs /><rect fill="white" height="600" width="800" x="0" y="0" /><polygon fill="none" id="floor_plan_boundary" points="492.8125,72.1875 421.09375,72.1875 418.984375,103.828125 362.03125,103.828125 366.25,221.953125 366.25,110.15625 425.3125,108.046875 427.421875,76.40625 488.59375,78.515625 488.59375,521.484375 311.40625,521.484375 311.40625,257.8125 366.25,255.703125 307.1875,251.484375 307.1875,527.8125 492.8125,527.8125" stroke="black" stroke-linecap="butt" stroke-linejoin="miter" stroke-width="4" /><g id="room_living_room"><polygon fill="rgb(238,232,170)" fill-opacity="0.7" points="486.484375,146.015625 427.421875,146.015625 425.3125,207.1875 368.359375,205.078125 368.359375,382.265625 397.890625,382.265625 400.0,342.1875 486.484375,342.1875" stroke="black" stroke-width="1.5" /><text dominant-baseline="middle" fill="black" font-family="Arial" font-size="12px" font-weight="bold" text-anchor="middle" x="428.4765625" y="265.1953125">Living Room</text></g><g id="room_master_bedroom"><polygon fill="rgb(255,165,0)" fill-opacity="0.7" points="313.515625,350.625 313.515625,521.484375 397.890625,521.484375 397.890625,390.703125 359.921875,388.59375 359.921875,350.625" stroke="black" stroke-width="1.5" /><text dominant-baseline="middle" fill="black" font-family="Arial" font-size="12px" font-weight="bold" text-anchor="middle" x="356.7578125" y="437.109375">Master Bedroom</text></g><g id="room_common_room"><polygon fill="rgb(255,215,0)" fill-opacity="0.7" points="406.328125,350.625 406.328125,481.40625 486.484375,481.40625 486.484375,350.625" stroke="black" stroke-width="1.5" /><text dominant-baseline="middle" fill="black" font-family="Arial" font-size="12px" font-weight="bold" text-anchor="middle" x="447.4609375" y="417.0703125">Common Room</text></g><g id="room_bathroom"><polygon fill="rgb(173,216,230)" fill-opacity="0.7" points="368.359375,110.15625 368.359375,196.640625 418.984375,196.640625 418.984375,110.15625" stroke="black" stroke-width="1.5" /><text dominant-baseline="middle" fill="black" font-family="Arial" font-size="12px" font-weight="bold" text-anchor="middle" x="394.7265625" y="154.453125">Bathroom</text></g><g id="room_room_7"><polygon fill="rgb(221,160,221)" fill-opacity="0.7" points="313.515625,257.8125 313.515625,342.1875 359.921875,342.1875 359.921875,257.8125" stroke="black" stroke-width="1.5" /><text dominant-baseline="middle" fill="black" font-family="Arial" font-size="12px" font-weight="bold" text-anchor="middle" x="337.7734375" y="301.0546875">Room 7</text></g><g id="room_kitchen"><polygon fill="rgb(240,128,128)" fill-opacity="0.7" points="427.421875,78.515625 427.421875,137.578125 486.484375,137.578125 486.484375,78.515625" stroke="black" stroke-width="1.5" /><text dominant-baseline="middle" fill="black" font-family="Arial" font-size="12px" font-weight="bold" text-anchor="middle" x="458.0078125" y="109.1015625">Kitchen</text></g><g id="room_balcony"><polygon fill="rgb(107,142,35)" fill-opacity="0.7" points="406.328125,489.84375 406.328125,521.484375 486.484375,521.484375 486.484375,489.84375" stroke="black" stroke-width="1.5" /><text dominant-baseline="middle" fill="black" font-family="Arial" font-size="12px" font-weight="bold" text-anchor="middle" x="447.4609375" y="506.71875">Balcony</text></g><rect fill="red" fill-opacity="0.9" height="31.640625" id="main_door" stroke="darkred" stroke-width="3" width="6.328125" x="362.03125" y="224.0625" /><text dominant-baseline="middle" fill="white" font-family="Arial" font-size="9px" font-weight="bold" text-anchor="middle" x="365.1953125" y="239.8828125">Main Door</text><text fill="black" font-family="Arial" font-size="18px" font-weight="bold" text-anchor="middle" x="400.0" y="30">Floor Plan - ID: 45700</text></svg>