<?xml version="1.0" encoding="utf-8" ?>
<svg baseProfile="full" height="600px" version="1.1" viewBox="0 0 800 600" width="800px" xmlns="http://www.w3.org/2000/svg" xmlns:ev="http://www.w3.org/2001/xml-events" xmlns:xlink="http://www.w3.org/1999/xlink"><defs /><rect fill="white" height="600" width="800" x="0" y="0" /><polygon fill="none" id="floor_plan_boundary" points="507.578125,80.625 400.0,80.625 400.0,186.09375 321.953125,188.203125 321.953125,257.8125 330.390625,268.359375 332.5,196.640625 408.4375,196.640625 410.546875,89.0625 499.140625,91.171875 499.140625,268.359375 526.5625,270.46875 526.5625,494.0625 416.875,496.171875 414.765625,510.9375 309.296875,510.9375 307.1875,304.21875 273.4375,302.109375 288.203125,259.921875 275.546875,259.921875 275.546875,276.796875 265.0,278.90625 265.0,312.65625 298.75,314.765625 298.75,519.375 425.3125,519.375 427.421875,504.609375 535.0,504.609375 535.0,259.921875 507.578125,257.8125" stroke="black" stroke-linecap="butt" stroke-linejoin="miter" stroke-width="4" /><g id="room_living_room"><polygon fill="rgb(238,232,170)" fill-opacity="0.7" points="450.625,217.734375 425.3125,217.734375 425.3125,270.46875 286.09375,270.46875 275.546875,302.109375 309.296875,304.21875 309.296875,453.984375 414.765625,453.984375 414.765625,293.671875 450.625,291.5625" stroke="black" stroke-width="1.5" /><text dominant-baseline="middle" fill="black" font-family="Arial" font-size="12px" font-weight="bold" text-anchor="middle" x="364.140625" y="336.9140625">Living Room</text></g><g id="room_master_bedroom"><polygon fill="rgb(255,165,0)" fill-opacity="0.7" points="427.421875,304.21875 427.421875,494.0625 524.453125,494.0625 524.453125,333.75 454.84375,335.859375 450.625,304.21875" stroke="black" stroke-width="1.5" /><text dominant-baseline="middle" fill="black" font-family="Arial" font-size="12px" font-weight="bold" text-anchor="middle" x="476.9921875" y="400.1953125">Master Bedroom</text></g><g id="room_common_room"><polygon fill="rgb(255,215,0)" fill-opacity="0.7" points="410.546875,91.171875 410.546875,186.09375 427.421875,188.203125 425.3125,209.296875 450.625,209.296875 452.734375,190.3125 497.03125,190.3125 497.03125,91.171875" stroke="black" stroke-width="1.5" /><text dominant-baseline="middle" fill="black" font-family="Arial" font-size="12px" font-weight="bold" text-anchor="middle" x="454.84375" y="151.2890625">Common Room</text></g><g id="room_kitchen"><polygon fill="rgb(240,128,128)" fill-opacity="0.7" points="332.5,198.75 332.5,257.8125 416.875,257.8125 416.875,198.75" stroke="black" stroke-width="1.5" /><text dominant-baseline="middle" fill="black" font-family="Arial" font-size="12px" font-weight="bold" text-anchor="middle" x="375.7421875" y="229.3359375">Kitchen</text></g><g id="room_balcony"><polygon fill="rgb(107,142,35)" fill-opacity="0.7" points="309.296875,466.640625 309.296875,508.828125 414.765625,508.828125 414.765625,466.640625" stroke="black" stroke-width="1.5" /><text dominant-baseline="middle" fill="black" font-family="Arial" font-size="12px" font-weight="bold" text-anchor="middle" x="363.0859375" y="488.7890625">Balcony</text></g><g id="room_bathroom"><polygon fill="rgb(173,216,230)" fill-opacity="0.7" points="459.0625,268.359375 459.0625,325.3125 524.453125,325.3125 524.453125,270.46875" stroke="black" stroke-width="1.5" /><text dominant-baseline="middle" fill="black" font-family="Arial" font-size="12px" font-weight="bold" text-anchor="middle" x="492.8125" y="297.890625">Bathroom</text></g><g id="room_bathroom_2"><polygon fill="rgb(173,216,230)" fill-opacity="0.7" points="459.0625,198.75 459.0625,259.921875 497.03125,259.921875 497.03125,198.75" stroke="black" stroke-width="1.5" /><text dominant-baseline="middle" fill="black" font-family="Arial" font-size="12px" font-weight="bold" text-anchor="middle" x="479.1015625" y="230.390625">Bathroom 2</text></g><rect fill="red" fill-opacity="0.9" height="10.546875" id="main_door" stroke="darkred" stroke-width="3" width="35.859375" x="290.3125" y="259.921875" /><text dominant-baseline="middle" fill="white" font-family="Arial" font-size="9px" font-weight="bold" text-anchor="middle" x="308.2421875" y="265.1953125">Main Door</text><text fill="black" font-family="Arial" font-size="18px" font-weight="bold" text-anchor="middle" x="400.0" y="30">Floor Plan - ID: 4583</text></svg>