<?xml version="1.0" encoding="utf-8" ?>
<svg baseProfile="full" height="600px" version="1.1" viewBox="0 0 800 600" width="800px" xmlns="http://www.w3.org/2000/svg" xmlns:ev="http://www.w3.org/2001/xml-events" xmlns:xlink="http://www.w3.org/1999/xlink"><defs /><rect fill="white" height="600" width="800" x="0" y="0" /><polygon fill="none" id="floor_plan_boundary" points="313.515625,65.859375 313.515625,156.5625 254.453125,158.671875 254.453125,487.734375 383.125,487.734375 385.234375,534.140625 545.546875,534.140625 545.546875,276.796875 475.9375,276.796875 475.9375,285.234375 537.109375,287.34375 535.0,525.703125 395.78125,525.703125 393.671875,479.296875 262.890625,477.1875 262.890625,169.21875 321.953125,167.109375 321.953125,76.40625 437.96875,76.40625 437.96875,236.71875 473.828125,236.71875 475.9375,247.265625 484.375,247.265625 484.375,228.28125 446.40625,226.171875 446.40625,65.859375" stroke="black" stroke-linecap="butt" stroke-linejoin="miter" stroke-width="4" /><g id="room_living_room"><polygon fill="rgb(238,232,170)" fill-opacity="0.7" points="395.78125,169.21875 395.78125,350.625 347.265625,352.734375 347.265625,380.15625 395.78125,382.265625 395.78125,477.1875 535.0,477.1875 535.0,287.34375 475.9375,287.34375 473.828125,238.828125 435.859375,236.71875 435.859375,169.21875" stroke="black" stroke-width="1.5" /><text dominant-baseline="middle" fill="black" font-family="Arial" font-size="12px" font-weight="bold" text-anchor="middle" x="442.1875" y="324.2578125">Living Room</text></g><g id="room_master_bedroom"><polygon fill="rgb(255,165,0)" fill-opacity="0.7" points="265.0,373.828125 265.0,477.1875 383.125,477.1875 383.125,388.59375 343.046875,390.703125 338.828125,373.828125" stroke="black" stroke-width="1.5" /><text dominant-baseline="middle" fill="black" font-family="Arial" font-size="12px" font-weight="bold" text-anchor="middle" x="325.1171875" y="426.5625">Master Bedroom</text></g><g id="room_common_room"><polygon fill="rgb(255,215,0)" fill-opacity="0.7" points="265.0,276.796875 265.0,361.171875 338.828125,361.171875 343.046875,342.1875 383.125,344.296875 383.125,276.796875" stroke="black" stroke-width="1.5" /><text dominant-baseline="middle" fill="black" font-family="Arial" font-size="12px" font-weight="bold" text-anchor="middle" x="325.1171875" y="320.0390625">Common Room</text></g><g id="room_common_room_2"><polygon fill="rgb(255,215,0)" fill-opacity="0.7" points="324.0625,76.40625 324.0625,156.5625 435.859375,156.5625 435.859375,76.40625" stroke="black" stroke-width="1.5" /><text dominant-baseline="middle" fill="black" font-family="Arial" font-size="12px" font-weight="bold" text-anchor="middle" x="381.015625" y="117.5390625">Common Room 2</text></g><g id="room_kitchen"><polygon fill="rgb(240,128,128)" fill-opacity="0.7" points="265.0,215.625 265.0,264.140625 383.125,264.140625 383.125,215.625" stroke="black" stroke-width="1.5" /><text dominant-baseline="middle" fill="black" font-family="Arial" font-size="12px" font-weight="bold" text-anchor="middle" x="325.1171875" y="240.9375">Kitchen</text></g><g id="room_balcony"><polygon fill="rgb(107,142,35)" fill-opacity="0.7" points="395.78125,489.84375 395.78125,523.59375 535.0,523.59375 535.0,489.84375" stroke="black" stroke-width="1.5" /><text dominant-baseline="middle" fill="black" font-family="Arial" font-size="12px" font-weight="bold" text-anchor="middle" x="466.4453125" y="507.7734375">Balcony</text></g><g id="room_bathroom"><polygon fill="rgb(173,216,230)" fill-opacity="0.7" points="265.0,169.21875 265.0,207.1875 383.125,207.1875 383.125,169.21875" stroke="black" stroke-width="1.5" /><text dominant-baseline="middle" fill="black" font-family="Arial" font-size="12px" font-weight="bold" text-anchor="middle" x="325.1171875" y="189.2578125">Bathroom</text></g><rect fill="red" fill-opacity="0.9" height="27.421875" id="main_door" stroke="darkred" stroke-width="3" width="10.546875" x="475.9375" y="249.375" /><text dominant-baseline="middle" fill="white" font-family="Arial" font-size="9px" font-weight="bold" text-anchor="middle" x="481.2109375" y="263.0859375">Main Door</text><text fill="black" font-family="Arial" font-size="18px" font-weight="bold" text-anchor="middle" x="400.0" y="30">Floor Plan - ID: 4587</text></svg>