<?xml version="1.0" encoding="utf-8" ?>
<svg baseProfile="full" height="600px" version="1.1" viewBox="0 0 800 600" width="800px" xmlns="http://www.w3.org/2000/svg" xmlns:ev="http://www.w3.org/2001/xml-events" xmlns:xlink="http://www.w3.org/1999/xlink"><defs /><rect fill="white" height="600" width="800" x="0" y="0" /><polygon fill="none" id="floor_plan_boundary" points="539.21875,110.15625 454.84375,110.15625 452.734375,129.140625 283.984375,129.140625 283.984375,236.71875 246.015625,238.828125 246.015625,426.5625 366.25,426.5625 368.359375,489.84375 459.0625,489.84375 459.0625,293.671875 553.984375,287.34375 454.84375,287.34375 454.84375,483.515625 374.6875,485.625 372.578125,422.34375 250.234375,420.234375 250.234375,245.15625 288.203125,243.046875 290.3125,133.359375 459.0625,133.359375 461.171875,114.375 532.890625,114.375 535.0,243.046875 553.984375,249.375 553.984375,238.828125 539.21875,236.71875" stroke="black" stroke-linecap="butt" stroke-linejoin="miter" stroke-width="4" /><g id="room_living_room"><polygon fill="rgb(238,232,170)" fill-opacity="0.7" points="532.890625,188.203125 461.171875,188.203125 459.0625,245.15625 317.734375,245.15625 317.734375,285.234375 362.03125,287.34375 362.03125,420.234375 452.734375,420.234375 452.734375,287.34375 547.65625,285.234375" stroke="black" stroke-width="1.5" /><text dominant-baseline="middle" fill="black" font-family="Arial" font-size="12px" font-weight="bold" text-anchor="middle" x="433.75" y="305.2734375">Living Room</text></g><g id="room_master_bedroom"><polygon fill="rgb(255,165,0)" fill-opacity="0.7" points="353.59375,293.671875 317.734375,293.671875 315.625,312.65625 252.34375,312.65625 252.34375,420.234375 353.59375,420.234375" stroke="black" stroke-width="1.5" /><text dominant-baseline="middle" fill="black" font-family="Arial" font-size="12px" font-weight="bold" text-anchor="middle" x="304.0234375" y="358.0078125">Master Bedroom</text></g><g id="room_common_room"><polygon fill="rgb(255,215,0)" fill-opacity="0.7" points="362.03125,135.46875 362.03125,236.71875 452.734375,236.71875 452.734375,135.46875" stroke="black" stroke-width="1.5" /><text dominant-baseline="middle" fill="black" font-family="Arial" font-size="12px" font-weight="bold" text-anchor="middle" x="408.4375" y="187.1484375">Common Room</text></g><g id="room_common_room_2"><polygon fill="rgb(255,215,0)" fill-opacity="0.7" points="290.3125,135.46875 290.3125,236.71875 353.59375,236.71875 353.59375,135.46875" stroke="black" stroke-width="1.5" /><text dominant-baseline="middle" fill="black" font-family="Arial" font-size="12px" font-weight="bold" text-anchor="middle" x="323.0078125" y="187.1484375">Common Room 2</text></g><g id="room_kitchen"><polygon fill="rgb(240,128,128)" fill-opacity="0.7" points="461.171875,116.484375 461.171875,179.765625 532.890625,179.765625 532.890625,116.484375" stroke="black" stroke-width="1.5" /><text dominant-baseline="middle" fill="black" font-family="Arial" font-size="12px" font-weight="bold" text-anchor="middle" x="498.0859375" y="149.1796875">Kitchen</text></g><g id="room_balcony"><polygon fill="rgb(107,142,35)" fill-opacity="0.7" points="374.6875,428.671875 374.6875,483.515625 452.734375,483.515625 452.734375,428.671875" stroke="black" stroke-width="1.5" /><text dominant-baseline="middle" fill="black" font-family="Arial" font-size="12px" font-weight="bold" text-anchor="middle" x="414.765625" y="457.1484375">Balcony</text></g><g id="room_bathroom"><polygon fill="rgb(173,216,230)" fill-opacity="0.7" points="252.34375,245.15625 252.34375,304.21875 309.296875,304.21875 309.296875,245.15625" stroke="black" stroke-width="1.5" /><text dominant-baseline="middle" fill="black" font-family="Arial" font-size="12px" font-weight="bold" text-anchor="middle" x="281.875" y="275.7421875">Bathroom</text></g><rect fill="red" fill-opacity="0.9" height="35.859375" id="main_door" stroke="darkred" stroke-width="3" width="6.328125" x="549.765625" y="251.484375" /><text dominant-baseline="middle" fill="white" font-family="Arial" font-size="9px" font-weight="bold" text-anchor="middle" x="552.9296875" y="269.4140625">Main Door</text><text fill="black" font-family="Arial" font-size="18px" font-weight="bold" text-anchor="middle" x="400.0" y="30">Floor Plan - ID: 46068</text></svg>