<?xml version="1.0" encoding="utf-8" ?>
<svg baseProfile="full" height="600px" version="1.1" viewBox="0 0 800 600" width="800px" xmlns="http://www.w3.org/2000/svg" xmlns:ev="http://www.w3.org/2001/xml-events" xmlns:xlink="http://www.w3.org/1999/xlink"><defs /><rect fill="white" height="600" width="800" x="0" y="0" /><polygon fill="none" id="floor_plan_boundary" points="265.0,133.359375 265.0,215.625 252.34375,217.734375 252.34375,272.578125 300.859375,274.6875 300.859375,451.875 317.734375,451.875 319.84375,466.640625 378.90625,466.640625 381.015625,453.984375 516.015625,453.984375 516.015625,397.03125 547.65625,394.921875 547.65625,194.53125 442.1875,194.53125 435.859375,171.328125 435.859375,198.75 543.4375,200.859375 543.4375,388.59375 511.796875,390.703125 511.796875,447.65625 374.6875,449.765625 372.578125,462.421875 326.171875,462.421875 324.0625,447.65625 305.078125,445.546875 305.078125,268.359375 256.5625,266.25 256.5625,224.0625 269.21875,221.953125 269.21875,139.6875 440.078125,133.359375" stroke="black" stroke-linecap="butt" stroke-linejoin="miter" stroke-width="4" /><g id="room_living_room"><polygon fill="rgb(238,232,170)" fill-opacity="0.7" points="362.03125,139.6875 362.03125,283.125 402.109375,285.234375 402.109375,388.59375 509.6875,388.59375 509.6875,259.921875 435.859375,259.921875 433.75,139.6875" stroke="black" stroke-width="1.5" /><text dominant-baseline="middle" fill="black" font-family="Arial" font-size="12px" font-weight="bold" text-anchor="middle" x="436.9140625" y="265.1953125">Living Room</text></g><g id="room_master_bedroom"><polygon fill="rgb(255,165,0)" fill-opacity="0.7" points="393.671875,291.5625 362.03125,291.5625 359.921875,329.53125 307.1875,329.53125 307.1875,445.546875 324.0625,445.546875 326.171875,460.3125 372.578125,460.3125 374.6875,447.65625 393.671875,447.65625" stroke="black" stroke-width="1.5" /><text dominant-baseline="middle" fill="black" font-family="Arial" font-size="12px" font-weight="bold" text-anchor="middle" x="351.484375" y="376.9921875">Master Bedroom</text></g><g id="room_common_room"><polygon fill="rgb(255,215,0)" fill-opacity="0.7" points="271.328125,139.6875 271.328125,221.953125 258.671875,224.0625 258.671875,266.25 298.75,266.25 300.859375,251.484375 353.59375,251.484375 353.59375,139.6875" stroke="black" stroke-width="1.5" /><text dominant-baseline="middle" fill="black" font-family="Arial" font-size="12px" font-weight="bold" text-anchor="middle" x="307.1875" y="204.0234375">Common Room</text></g><g id="room_balcony"><polygon fill="rgb(107,142,35)" fill-opacity="0.7" points="402.109375,397.03125 402.109375,447.65625 509.6875,447.65625 509.6875,397.03125" stroke="black" stroke-width="1.5" /><text dominant-baseline="middle" fill="black" font-family="Arial" font-size="12px" font-weight="bold" text-anchor="middle" x="456.953125" y="423.3984375">Balcony</text></g><g id="room_kitchen"><polygon fill="rgb(240,128,128)" fill-opacity="0.7" points="442.1875,200.859375 442.1875,251.484375 541.328125,251.484375 541.328125,200.859375" stroke="black" stroke-width="1.5" /><text dominant-baseline="middle" fill="black" font-family="Arial" font-size="12px" font-weight="bold" text-anchor="middle" x="492.8125" y="227.2265625">Kitchen</text></g><g id="room_balcony_2"><polygon fill="rgb(107,142,35)" fill-opacity="0.7" points="518.125,259.921875 518.125,388.59375 541.328125,388.59375 541.328125,259.921875" stroke="black" stroke-width="1.5" /><text dominant-baseline="middle" fill="black" font-family="Arial" font-size="12px" font-weight="bold" text-anchor="middle" x="530.78125" y="325.3125">Balcony 2</text></g><g id="room_bathroom"><polygon fill="rgb(173,216,230)" fill-opacity="0.7" points="307.1875,259.921875 307.1875,321.09375 353.59375,321.09375 353.59375,259.921875" stroke="black" stroke-width="1.5" /><text dominant-baseline="middle" fill="black" font-family="Arial" font-size="12px" font-weight="bold" text-anchor="middle" x="331.4453125" y="291.5625">Bathroom</text></g><rect fill="red" fill-opacity="0.9" height="31.640625" id="main_door" stroke="darkred" stroke-width="3" width="6.328125" x="435.859375" y="139.6875" /><text dominant-baseline="middle" fill="white" font-family="Arial" font-size="9px" font-weight="bold" text-anchor="middle" x="439.0234375" y="155.5078125">Main Door</text><text fill="black" font-family="Arial" font-size="18px" font-weight="bold" text-anchor="middle" x="400.0" y="30">Floor Plan - ID: 46399</text></svg>