<?xml version="1.0" encoding="utf-8" ?>
<svg baseProfile="full" height="600px" version="1.1" viewBox="0 0 800 600" width="800px" xmlns="http://www.w3.org/2000/svg" xmlns:ev="http://www.w3.org/2001/xml-events" xmlns:xlink="http://www.w3.org/1999/xlink"><defs /><rect fill="white" height="600" width="800" x="0" y="0" /><polygon fill="none" id="floor_plan_boundary" points="260.78125,95.390625 260.78125,517.265625 509.6875,517.265625 509.6875,359.0625 501.25,359.0625 499.140625,508.828125 269.21875,506.71875 269.21875,105.9375 294.53125,103.828125 294.53125,86.953125 343.046875,86.953125 343.046875,103.828125 400.0,103.828125 402.109375,86.953125 452.734375,86.953125 452.734375,103.828125 528.671875,103.828125 530.78125,266.25 501.25,268.359375 501.25,316.875 509.6875,316.875 509.6875,278.90625 539.21875,276.796875 539.21875,95.390625 461.171875,95.390625 459.0625,82.734375 395.78125,82.734375 393.671875,95.390625 351.484375,95.390625 349.375,82.734375 288.203125,82.734375 286.09375,95.390625" stroke="black" stroke-linecap="butt" stroke-linejoin="miter" stroke-width="4" /><g id="room_living_room"><polygon fill="rgb(238,232,170)" fill-opacity="0.7" points="330.390625,215.625 330.390625,306.328125 372.578125,308.4375 372.578125,506.71875 499.140625,506.71875 499.140625,276.796875 465.390625,272.578125 467.5,215.625" stroke="black" stroke-width="1.5" /><text dominant-baseline="middle" fill="black" font-family="Arial" font-size="12px" font-weight="bold" text-anchor="middle" x="415.8203125" y="362.2265625">Living Room</text></g><g id="room_master_bedroom"><polygon fill="rgb(255,165,0)" fill-opacity="0.7" points="359.921875,314.765625 330.390625,314.765625 330.390625,350.625 271.328125,350.625 271.328125,470.859375 359.921875,470.859375" stroke="black" stroke-width="1.5" /><text dominant-baseline="middle" fill="black" font-family="Arial" font-size="12px" font-weight="bold" text-anchor="middle" x="316.6796875" y="393.8671875">Master Bedroom</text></g><g id="room_common_room"><polygon fill="rgb(255,215,0)" fill-opacity="0.7" points="372.578125,105.9375 372.578125,202.96875 465.390625,202.96875 465.390625,105.9375 450.625,103.828125 452.734375,89.0625 402.109375,89.0625 400.0,105.9375" stroke="black" stroke-width="1.5" /><text dominant-baseline="middle" fill="black" font-family="Arial" font-size="12px" font-weight="bold" text-anchor="middle" x="420.0390625" y="147.0703125">Common Room</text></g><g id="room_common_room_2"><polygon fill="rgb(255,215,0)" fill-opacity="0.7" points="271.328125,105.9375 271.328125,202.96875 359.921875,202.96875 359.921875,105.9375 343.046875,105.9375 343.046875,89.0625 294.53125,89.0625 294.53125,105.9375" stroke="black" stroke-width="1.5" /><text dominant-baseline="middle" fill="black" font-family="Arial" font-size="12px" font-weight="bold" text-anchor="middle" x="316.6796875" y="147.0703125">Common Room 2</text></g><g id="room_kitchen"><polygon fill="rgb(240,128,128)" fill-opacity="0.7" points="478.046875,105.9375 475.9375,268.359375 528.671875,266.25 528.671875,105.9375" stroke="black" stroke-width="1.5" /><text dominant-baseline="middle" fill="black" font-family="Arial" font-size="12px" font-weight="bold" text-anchor="middle" x="503.359375" y="188.203125">Kitchen</text></g><g id="room_bathroom"><polygon fill="rgb(173,216,230)" fill-opacity="0.7" points="271.328125,278.90625 271.328125,337.96875 321.953125,337.96875 321.953125,278.90625" stroke="black" stroke-width="1.5" /><text dominant-baseline="middle" fill="black" font-family="Arial" font-size="12px" font-weight="bold" text-anchor="middle" x="297.6953125" y="309.4921875">Bathroom</text></g><g id="room_bathroom_2"><polygon fill="rgb(173,216,230)" fill-opacity="0.7" points="271.328125,215.625 271.328125,266.25 321.953125,266.25 321.953125,215.625" stroke="black" stroke-width="1.5" /><text dominant-baseline="middle" fill="black" font-family="Arial" font-size="12px" font-weight="bold" text-anchor="middle" x="297.6953125" y="241.9921875">Bathroom 2</text></g><g id="room_balcony"><polygon fill="rgb(107,142,35)" fill-opacity="0.7" points="271.328125,483.515625 271.328125,506.71875 359.921875,506.71875 359.921875,483.515625" stroke="black" stroke-width="1.5" /><text dominant-baseline="middle" fill="black" font-family="Arial" font-size="12px" font-weight="bold" text-anchor="middle" x="316.6796875" y="496.171875">Balcony</text></g><rect fill="red" fill-opacity="0.9" height="40.078125" id="main_door" stroke="darkred" stroke-width="3" width="10.546875" x="501.25" y="318.984375" /><text dominant-baseline="middle" fill="white" font-family="Arial" font-size="9px" font-weight="bold" text-anchor="middle" x="506.5234375" y="339.0234375">Main Door</text><text fill="black" font-family="Arial" font-size="18px" font-weight="bold" text-anchor="middle" x="400.0" y="30">Floor Plan - ID: 4672</text></svg>