<?xml version="1.0" encoding="utf-8" ?>
<svg baseProfile="full" height="600px" version="1.1" viewBox="0 0 800 600" width="800px" xmlns="http://www.w3.org/2000/svg" xmlns:ev="http://www.w3.org/2001/xml-events" xmlns:xlink="http://www.w3.org/1999/xlink"><defs /><rect fill="white" height="600" width="800" x="0" y="0" /><polygon fill="none" id="floor_plan_boundary" points="237.578125,150.234375 237.578125,272.578125 271.328125,274.6875 271.328125,397.03125 283.984375,399.140625 283.984375,418.125 368.359375,418.125 368.359375,399.140625 376.796875,397.03125 378.90625,449.765625 497.03125,449.765625 497.03125,274.6875 562.421875,272.578125 562.421875,150.234375 374.6875,150.234375 374.6875,158.671875 553.984375,160.78125 553.984375,262.03125 488.59375,264.140625 486.484375,441.328125 389.453125,441.328125 387.34375,388.59375 359.921875,388.59375 357.8125,409.6875 292.421875,407.578125 292.421875,388.59375 279.765625,386.484375 279.765625,264.140625 246.015625,262.03125 246.015625,160.78125 328.28125,158.671875 328.28125,150.234375" stroke="black" stroke-linecap="butt" stroke-linejoin="miter" stroke-width="4" /><g id="room_living_room"><polygon fill="rgb(238,232,170)" fill-opacity="0.7" points="332.5,160.78125 332.5,202.96875 345.15625,205.078125 343.046875,264.140625 378.90625,266.25 378.90625,386.484375 486.484375,386.484375 486.484375,274.6875 459.0625,272.578125 459.0625,160.78125" stroke="black" stroke-width="1.5" /><text dominant-baseline="middle" fill="black" font-family="Arial" font-size="12px" font-weight="bold" text-anchor="middle" x="410.546875" y="274.6875">Living Room</text></g><g id="room_master_bedroom"><polygon fill="rgb(255,165,0)" fill-opacity="0.7" points="281.875,272.578125 281.875,386.484375 294.53125,388.59375 294.53125,407.578125 357.8125,407.578125 357.8125,388.59375 366.25,386.484375 366.25,272.578125" stroke="black" stroke-width="1.5" /><text dominant-baseline="middle" fill="black" font-family="Arial" font-size="12px" font-weight="bold" text-anchor="middle" x="325.1171875" y="341.1328125">Master Bedroom</text></g><g id="room_common_room"><polygon fill="rgb(255,215,0)" fill-opacity="0.7" points="471.71875,160.78125 471.71875,262.03125 551.875,262.03125 551.875,160.78125" stroke="black" stroke-width="1.5" /><text dominant-baseline="middle" fill="black" font-family="Arial" font-size="12px" font-weight="bold" text-anchor="middle" x="512.8515625" y="212.4609375">Common Room</text></g><g id="room_balcony"><polygon fill="rgb(107,142,35)" fill-opacity="0.7" points="389.453125,399.140625 389.453125,439.21875 486.484375,439.21875 486.484375,399.140625" stroke="black" stroke-width="1.5" /><text dominant-baseline="middle" fill="black" font-family="Arial" font-size="12px" font-weight="bold" text-anchor="middle" x="439.0234375" y="420.234375">Balcony</text></g><g id="room_kitchen"><polygon fill="rgb(240,128,128)" fill-opacity="0.7" points="248.125,160.78125 248.125,202.96875 324.0625,202.96875 324.0625,160.78125" stroke="black" stroke-width="1.5" /><text dominant-baseline="middle" fill="black" font-family="Arial" font-size="12px" font-weight="bold" text-anchor="middle" x="287.1484375" y="183.984375">Kitchen</text></g><g id="room_bathroom"><polygon fill="rgb(173,216,230)" fill-opacity="0.7" points="281.875,213.515625 281.875,264.140625 334.609375,264.140625 334.609375,215.625" stroke="black" stroke-width="1.5" /><text dominant-baseline="middle" fill="black" font-family="Arial" font-size="12px" font-weight="bold" text-anchor="middle" x="309.296875" y="239.8828125">Bathroom</text></g><g id="room_balcony_2"><polygon fill="rgb(107,142,35)" fill-opacity="0.7" points="248.125,215.625 248.125,262.03125 269.21875,262.03125 269.21875,215.625" stroke="black" stroke-width="1.5" /><text dominant-baseline="middle" fill="black" font-family="Arial" font-size="12px" font-weight="bold" text-anchor="middle" x="259.7265625" y="239.8828125">Balcony 2</text></g><rect fill="red" fill-opacity="0.9" height="10.546875" id="main_door" stroke="darkred" stroke-width="3" width="44.296875" x="330.390625" y="150.234375" /><text dominant-baseline="middle" fill="white" font-family="Arial" font-size="9px" font-weight="bold" text-anchor="middle" x="352.5390625" y="155.5078125">Main Door</text><text fill="black" font-family="Arial" font-size="18px" font-weight="bold" text-anchor="middle" x="400.0" y="30">Floor Plan - ID: 46950</text></svg>