<?xml version="1.0" encoding="utf-8" ?>
<svg baseProfile="full" height="600px" version="1.1" viewBox="0 0 800 600" width="800px" xmlns="http://www.w3.org/2000/svg" xmlns:ev="http://www.w3.org/2001/xml-events" xmlns:xlink="http://www.w3.org/1999/xlink"><defs /><rect fill="white" height="600" width="800" x="0" y="0" /><polygon fill="none" id="floor_plan_boundary" points="256.5625,114.375 256.5625,297.890625 290.3125,297.890625 292.421875,304.21875 300.859375,304.21875 300.859375,289.453125 265.0,287.34375 267.109375,122.8125 311.40625,122.8125 313.515625,146.015625 535.0,148.125 535.0,331.640625 484.375,333.75 484.375,428.671875 351.484375,430.78125 349.375,477.1875 267.109375,477.1875 265.0,344.296875 300.859375,342.1875 300.859375,333.75 256.5625,333.75 256.5625,485.625 359.921875,485.625 362.03125,439.21875 492.8125,439.21875 492.8125,344.296875 543.4375,342.1875 543.4375,137.578125 324.0625,137.578125 321.953125,114.375" stroke="black" stroke-linecap="butt" stroke-linejoin="miter" stroke-width="4" /><g id="room_living_room"><polygon fill="rgb(238,232,170)" fill-opacity="0.7" points="267.109375,207.1875 267.109375,287.34375 302.96875,289.453125 302.96875,331.640625 482.265625,331.640625 482.265625,207.1875 351.484375,207.1875 349.375,148.125 324.0625,148.125 321.953125,207.1875" stroke="black" stroke-width="1.5" /><text dominant-baseline="middle" fill="black" font-family="Arial" font-size="12px" font-weight="bold" text-anchor="middle" x="375.7421875" y="240.9375">Living Room</text></g><g id="room_common_room"><polygon fill="rgb(255,215,0)" fill-opacity="0.7" points="267.109375,344.296875 267.109375,475.078125 349.375,475.078125 349.375,344.296875" stroke="black" stroke-width="1.5" /><text dominant-baseline="middle" fill="black" font-family="Arial" font-size="12px" font-weight="bold" text-anchor="middle" x="309.296875" y="410.7421875">Common Room</text></g><g id="room_master_bedroom"><polygon fill="rgb(255,165,0)" fill-opacity="0.7" points="362.03125,344.296875 362.03125,428.671875 482.265625,428.671875 482.265625,344.296875" stroke="black" stroke-width="1.5" /><text dominant-baseline="middle" fill="black" font-family="Arial" font-size="12px" font-weight="bold" text-anchor="middle" x="423.203125" y="387.5390625">Master Bedroom</text></g><g id="room_kitchen"><polygon fill="rgb(240,128,128)" fill-opacity="0.7" points="362.03125,148.125 362.03125,194.53125 482.265625,194.53125 482.265625,148.125" stroke="black" stroke-width="1.5" /><text dominant-baseline="middle" fill="black" font-family="Arial" font-size="12px" font-weight="bold" text-anchor="middle" x="423.203125" y="172.3828125">Kitchen</text></g><g id="room_balcony"><polygon fill="rgb(107,142,35)" fill-opacity="0.7" points="494.921875,207.1875 494.921875,331.640625 532.890625,331.640625 532.890625,207.1875" stroke="black" stroke-width="1.5" /><text dominant-baseline="middle" fill="black" font-family="Arial" font-size="12px" font-weight="bold" text-anchor="middle" x="514.9609375" y="270.46875">Balcony</text></g><g id="room_bathroom"><polygon fill="rgb(173,216,230)" fill-opacity="0.7" points="267.109375,124.921875 267.109375,194.53125 311.40625,194.53125 311.40625,124.921875" stroke="black" stroke-width="1.5" /><text dominant-baseline="middle" fill="black" font-family="Arial" font-size="12px" font-weight="bold" text-anchor="middle" x="290.3125" y="160.78125">Bathroom</text></g><g id="room_balcony_2"><polygon fill="rgb(107,142,35)" fill-opacity="0.7" points="494.921875,148.125 494.921875,194.53125 532.890625,194.53125 532.890625,148.125" stroke="black" stroke-width="1.5" /><text dominant-baseline="middle" fill="black" font-family="Arial" font-size="12px" font-weight="bold" text-anchor="middle" x="514.9609375" y="172.3828125">Balcony 2</text></g><rect fill="red" fill-opacity="0.9" height="27.421875" id="main_door" stroke="darkred" stroke-width="3" width="10.546875" x="292.421875" y="306.328125" /><text dominant-baseline="middle" fill="white" font-family="Arial" font-size="9px" font-weight="bold" text-anchor="middle" x="297.6953125" y="320.0390625">Main Door</text><text fill="black" font-family="Arial" font-size="18px" font-weight="bold" text-anchor="middle" x="400.0" y="30">Floor Plan - ID: 4698</text></svg>