<?xml version="1.0" encoding="utf-8" ?>
<svg baseProfile="full" height="600px" version="1.1" viewBox="0 0 800 600" width="800px" xmlns="http://www.w3.org/2000/svg" xmlns:ev="http://www.w3.org/2001/xml-events" xmlns:xlink="http://www.w3.org/1999/xlink"><defs /><rect fill="white" height="600" width="800" x="0" y="0" /><polygon fill="none" id="floor_plan_boundary" points="311.40625,112.265625 311.40625,219.84375 319.84375,219.84375 321.953125,120.703125 492.8125,122.8125 492.8125,215.625 520.234375,217.734375 520.234375,477.1875 442.1875,479.296875 437.96875,458.203125 381.015625,458.203125 378.90625,479.296875 279.765625,477.1875 279.765625,318.984375 319.84375,316.875 319.84375,257.8125 311.40625,257.8125 311.40625,306.328125 271.328125,308.4375 271.328125,487.734375 389.453125,487.734375 391.5625,466.640625 429.53125,466.640625 429.53125,487.734375 528.671875,487.734375 528.671875,207.1875 501.25,205.078125 501.25,112.265625" stroke="black" stroke-linecap="butt" stroke-linejoin="miter" stroke-width="4" /><g id="room_living_room"><polygon fill="rgb(238,232,170)" fill-opacity="0.7" points="437.96875,215.625 321.953125,215.625 321.953125,316.875 281.875,318.984375 281.875,477.1875 378.90625,477.1875 381.015625,456.09375 404.21875,456.09375 404.21875,337.96875 437.96875,335.859375" stroke="black" stroke-width="1.5" /><text dominant-baseline="middle" fill="black" font-family="Arial" font-size="12px" font-weight="bold" text-anchor="middle" x="360.9765625" y="347.4609375">Living Room</text></g><g id="room_master_bedroom"><polygon fill="rgb(255,165,0)" fill-opacity="0.7" points="416.875,348.515625 416.875,456.09375 437.96875,456.09375 442.1875,477.1875 518.125,477.1875 518.125,348.515625" stroke="black" stroke-width="1.5" /><text dominant-baseline="middle" fill="black" font-family="Arial" font-size="12px" font-weight="bold" text-anchor="middle" x="468.5546875" y="413.90625">Master Bedroom</text></g><g id="room_common_room_2"><polygon fill="rgb(255,215,0)" fill-opacity="0.7" points="321.953125,122.8125 321.953125,207.1875 404.21875,207.1875 404.21875,122.8125" stroke="black" stroke-width="1.5" /><text dominant-baseline="middle" fill="black" font-family="Arial" font-size="12px" font-weight="bold" text-anchor="middle" x="364.140625" y="166.0546875">Common Room 2</text></g><g id="room_common_room"><polygon fill="rgb(255,215,0)" fill-opacity="0.7" points="416.875,122.8125 416.875,207.1875 490.703125,207.1875 490.703125,122.8125" stroke="black" stroke-width="1.5" /><text dominant-baseline="middle" fill="black" font-family="Arial" font-size="12px" font-weight="bold" text-anchor="middle" x="454.84375" y="166.0546875">Common Room</text></g><g id="room_kitchen"><polygon fill="rgb(240,128,128)" fill-opacity="0.7" points="446.40625,215.625 446.40625,278.90625 518.125,278.90625 518.125,217.734375" stroke="black" stroke-width="1.5" /><text dominant-baseline="middle" fill="black" font-family="Arial" font-size="12px" font-weight="bold" text-anchor="middle" x="483.3203125" y="248.3203125">Kitchen</text></g><g id="room_bathroom"><polygon fill="rgb(173,216,230)" fill-opacity="0.7" points="446.40625,287.34375 446.40625,335.859375 518.125,335.859375 518.125,287.34375" stroke="black" stroke-width="1.5" /><text dominant-baseline="middle" fill="black" font-family="Arial" font-size="12px" font-weight="bold" text-anchor="middle" x="483.3203125" y="312.65625">Bathroom</text></g><rect fill="red" fill-opacity="0.9" height="35.859375" id="main_door" stroke="darkred" stroke-width="3" width="10.546875" x="311.40625" y="221.953125" /><text dominant-baseline="middle" fill="white" font-family="Arial" font-size="9px" font-weight="bold" text-anchor="middle" x="316.6796875" y="239.8828125">Main Door</text><text fill="black" font-family="Arial" font-size="18px" font-weight="bold" text-anchor="middle" x="400.0" y="30">Floor Plan - ID: 47004</text></svg>