<?xml version="1.0" encoding="utf-8" ?>
<svg baseProfile="full" height="600px" version="1.1" viewBox="0 0 800 600" width="800px" xmlns="http://www.w3.org/2000/svg" xmlns:ev="http://www.w3.org/2001/xml-events" xmlns:xlink="http://www.w3.org/1999/xlink"><defs /><rect fill="white" height="600" width="800" x="0" y="0" /><polygon fill="none" id="floor_plan_boundary" points="258.671875,110.15625 258.671875,146.015625 324.0625,148.125 324.0625,274.6875 298.75,281.015625 328.28125,281.015625 328.28125,141.796875 265.0,141.796875 262.890625,116.484375 389.453125,114.375 391.5625,186.09375 509.6875,186.09375 511.796875,281.015625 537.109375,283.125 537.109375,437.109375 524.453125,439.21875 522.34375,449.765625 490.703125,449.765625 488.59375,439.21875 440.078125,439.21875 437.96875,449.765625 376.796875,449.765625 374.6875,485.625 277.65625,485.625 271.328125,276.796875 271.328125,489.84375 381.015625,489.84375 383.125,453.984375 444.296875,453.984375 446.40625,443.4375 482.265625,443.4375 484.375,453.984375 528.671875,453.984375 530.78125,443.4375 541.328125,443.4375 541.328125,276.796875 516.015625,274.6875 516.015625,181.875 397.890625,181.875 395.78125,110.15625" stroke="black" stroke-linecap="butt" stroke-linejoin="miter" stroke-width="4" /><g id="room_living_room"><polygon fill="rgb(238,232,170)" fill-opacity="0.7" points="330.390625,209.296875 330.390625,281.015625 277.65625,283.125 277.65625,447.65625 393.671875,447.65625 393.671875,323.203125 482.265625,321.09375 482.265625,283.125 391.5625,283.125 389.453125,209.296875" stroke="black" stroke-width="1.5" /><text dominant-baseline="middle" fill="black" font-family="Arial" font-size="12px" font-weight="bold" text-anchor="middle" x="381.015625" y="329.53125">Living Room</text></g><g id="room_master_bedroom"><polygon fill="rgb(255,165,0)" fill-opacity="0.7" points="402.109375,329.53125 402.109375,447.65625 437.96875,447.65625 440.078125,437.109375 488.59375,437.109375 490.703125,447.65625 522.34375,447.65625 524.453125,437.109375 535.0,437.109375 535.0,329.53125" stroke="black" stroke-width="1.5" /><text dominant-baseline="middle" fill="black" font-family="Arial" font-size="12px" font-weight="bold" text-anchor="middle" x="469.609375" y="389.6484375">Master Bedroom</text></g><g id="room_kitchen"><polygon fill="rgb(240,128,128)" fill-opacity="0.7" points="265.0,116.484375 265.0,139.6875 330.390625,141.796875 330.390625,200.859375 389.453125,200.859375 389.453125,116.484375" stroke="black" stroke-width="1.5" /><text dominant-baseline="middle" fill="black" font-family="Arial" font-size="12px" font-weight="bold" text-anchor="middle" x="328.28125" y="159.7265625">Kitchen</text></g><g id="room_common_room"><polygon fill="rgb(255,215,0)" fill-opacity="0.7" points="435.859375,188.203125 435.859375,274.6875 509.6875,274.6875 509.6875,188.203125" stroke="black" stroke-width="1.5" /><text dominant-baseline="middle" fill="black" font-family="Arial" font-size="12px" font-weight="bold" text-anchor="middle" x="473.828125" y="232.5">Common Room</text></g><g id="room_balcony"><polygon fill="rgb(107,142,35)" fill-opacity="0.7" points="277.65625,456.09375 277.65625,483.515625 374.6875,483.515625 374.6875,456.09375" stroke="black" stroke-width="1.5" /><text dominant-baseline="middle" fill="black" font-family="Arial" font-size="12px" font-weight="bold" text-anchor="middle" x="327.2265625" y="470.859375">Balcony</text></g><g id="room_bathroom_2"><polygon fill="rgb(173,216,230)" fill-opacity="0.7" points="397.890625,188.203125 397.890625,274.6875 427.421875,274.6875 427.421875,188.203125" stroke="black" stroke-width="1.5" /><text dominant-baseline="middle" fill="black" font-family="Arial" font-size="12px" font-weight="bold" text-anchor="middle" x="413.7109375" y="232.5">Bathroom 2</text></g><g id="room_bathroom"><polygon fill="rgb(173,216,230)" fill-opacity="0.7" points="490.703125,283.125 490.703125,321.09375 535.0,321.09375 535.0,283.125" stroke="black" stroke-width="1.5" /><text dominant-baseline="middle" fill="black" font-family="Arial" font-size="12px" font-weight="bold" text-anchor="middle" x="513.90625" y="303.1640625">Bathroom</text></g><text fill="black" font-family="Arial" font-size="18px" font-weight="bold" text-anchor="middle" x="400.0" y="30">Floor Plan - ID: 47421</text></svg>