<?xml version="1.0" encoding="utf-8" ?>
<svg baseProfile="full" height="600px" version="1.1" viewBox="0 0 800 600" width="800px" xmlns="http://www.w3.org/2000/svg" xmlns:ev="http://www.w3.org/2001/xml-events" xmlns:xlink="http://www.w3.org/1999/xlink"><defs /><rect fill="white" height="600" width="800" x="0" y="0" /><polygon fill="none" id="floor_plan_boundary" points="210.15625,213.515625 210.15625,380.15625 218.59375,380.15625 218.59375,219.84375 288.203125,217.734375 290.3125,175.546875 389.453125,175.546875 391.5625,219.84375 581.40625,221.953125 579.296875,420.234375 210.15625,422.34375 210.15625,428.671875 589.84375,428.671875 589.84375,211.40625 402.109375,211.40625 400.0,171.328125 279.765625,171.328125 277.65625,213.515625" stroke="black" stroke-linecap="butt" stroke-linejoin="miter" stroke-width="4" /><g id="room_living_room"><polygon fill="rgb(238,232,170)" fill-opacity="0.7" points="220.703125,418.125 389.453125,418.125 391.5625,369.609375 473.828125,369.609375 473.828125,308.4375 389.453125,306.328125 389.453125,221.953125 290.3125,221.953125 288.203125,375.9375 220.703125,378.046875" stroke="black" stroke-width="1.5" /><text dominant-baseline="middle" fill="black" font-family="Arial" font-size="12px" font-weight="bold" text-anchor="middle" x="348.3203125" y="321.09375">Living Room</text></g><g id="room_master_bedroom"><polygon fill="rgb(255,165,0)" fill-opacity="0.7" points="482.265625,221.953125 482.265625,331.640625 579.296875,331.640625 579.296875,221.953125" stroke="black" stroke-width="1.5" /><text dominant-baseline="middle" fill="black" font-family="Arial" font-size="12px" font-weight="bold" text-anchor="middle" x="531.8359375" y="277.8515625">Master Bedroom</text></g><g id="room_common_room"><polygon fill="rgb(255,215,0)" fill-opacity="0.7" points="482.265625,340.078125 482.265625,418.125 579.296875,418.125 579.296875,340.078125" stroke="black" stroke-width="1.5" /><text dominant-baseline="middle" fill="black" font-family="Arial" font-size="12px" font-weight="bold" text-anchor="middle" x="531.8359375" y="380.15625">Common Room</text></g><g id="room_common_room_2"><polygon fill="rgb(255,215,0)" fill-opacity="0.7" points="402.109375,221.953125 402.109375,300.0 473.828125,300.0 473.828125,221.953125" stroke="black" stroke-width="1.5" /><text dominant-baseline="middle" fill="black" font-family="Arial" font-size="12px" font-weight="bold" text-anchor="middle" x="439.0234375" y="262.03125">Common Room 2</text></g><g id="room_kitchen"><polygon fill="rgb(240,128,128)" fill-opacity="0.7" points="220.703125,278.90625 220.703125,369.609375 279.765625,369.609375 277.65625,278.90625" stroke="black" stroke-width="1.5" /><text dominant-baseline="middle" fill="black" font-family="Arial" font-size="12px" font-weight="bold" text-anchor="middle" x="251.2890625" y="325.3125">Kitchen</text></g><g id="room_balcony_2"><polygon fill="rgb(107,142,35)" fill-opacity="0.7" points="290.3125,177.65625 290.3125,209.296875 389.453125,209.296875 389.453125,177.65625" stroke="black" stroke-width="1.5" /><text dominant-baseline="middle" fill="black" font-family="Arial" font-size="12px" font-weight="bold" text-anchor="middle" x="340.9375" y="194.53125">Balcony 2</text></g><g id="room_bathroom"><polygon fill="rgb(173,216,230)" fill-opacity="0.7" points="402.109375,378.046875 402.109375,418.125 473.828125,418.125 473.828125,378.046875" stroke="black" stroke-width="1.5" /><text dominant-baseline="middle" fill="black" font-family="Arial" font-size="12px" font-weight="bold" text-anchor="middle" x="439.0234375" y="399.140625">Bathroom</text></g><g id="room_balcony"><polygon fill="rgb(107,142,35)" fill-opacity="0.7" points="220.703125,219.84375 220.703125,266.25 277.65625,266.25 277.65625,219.84375" stroke="black" stroke-width="1.5" /><text dominant-baseline="middle" fill="black" font-family="Arial" font-size="12px" font-weight="bold" text-anchor="middle" x="250.234375" y="244.1015625">Balcony</text></g><rect fill="red" fill-opacity="0.9" height="40.078125" id="main_door" stroke="darkred" stroke-width="3" width="10.546875" x="210.15625" y="382.265625" /><text dominant-baseline="middle" fill="white" font-family="Arial" font-size="9px" font-weight="bold" text-anchor="middle" x="215.4296875" y="402.3046875">Main Door</text><text fill="black" font-family="Arial" font-size="18px" font-weight="bold" text-anchor="middle" x="400.0" y="30">Floor Plan - ID: 47588</text></svg>