<?xml version="1.0" encoding="utf-8" ?>
<svg baseProfile="full" height="600px" version="1.1" viewBox="0 0 800 600" width="800px" xmlns="http://www.w3.org/2000/svg" xmlns:ev="http://www.w3.org/2001/xml-events" xmlns:xlink="http://www.w3.org/1999/xlink"><defs /><rect fill="white" height="600" width="800" x="0" y="0" /><polygon fill="none" id="floor_plan_boundary" points="520.234375,91.171875 404.21875,91.171875 402.109375,124.921875 328.28125,124.921875 326.171875,93.28125 252.34375,93.28125 252.34375,207.1875 288.203125,215.625 288.203125,198.75 260.78125,196.640625 262.890625,101.71875 315.625,101.71875 317.734375,133.359375 412.65625,133.359375 414.765625,99.609375 509.6875,99.609375 511.796875,207.1875 539.21875,209.296875 539.21875,316.875 486.484375,318.984375 486.484375,453.984375 378.90625,456.09375 376.796875,500.390625 262.890625,498.28125 262.890625,270.46875 288.203125,268.359375 288.203125,245.15625 279.765625,245.15625 277.65625,259.921875 254.453125,259.921875 254.453125,508.828125 387.34375,508.828125 389.453125,464.53125 494.921875,464.53125 494.921875,329.53125 547.65625,327.421875 547.65625,198.75 520.234375,196.640625" stroke="black" stroke-linecap="butt" stroke-linejoin="miter" stroke-width="4" /><g id="room_living_room"><polygon fill="rgb(238,232,170)" fill-opacity="0.7" points="290.3125,209.296875 290.3125,268.359375 265.0,270.46875 265.0,453.984375 376.796875,453.984375 376.796875,253.59375 435.859375,251.484375 435.859375,209.296875" stroke="black" stroke-width="1.5" /><text dominant-baseline="middle" fill="black" font-family="Arial" font-size="12px" font-weight="bold" text-anchor="middle" x="351.484375" y="332.6953125">Living Room</text></g><g id="room_master_bedroom"><polygon fill="rgb(255,165,0)" fill-opacity="0.7" points="389.453125,259.921875 389.453125,453.984375 484.375,453.984375 484.375,329.53125 437.96875,329.53125 435.859375,259.921875" stroke="black" stroke-width="1.5" /><text dominant-baseline="middle" fill="black" font-family="Arial" font-size="12px" font-weight="bold" text-anchor="middle" x="437.96875" y="358.0078125">Master Bedroom</text></g><g id="room_common_room_2"><polygon fill="rgb(255,215,0)" fill-opacity="0.7" points="414.765625,101.71875 414.765625,196.640625 509.6875,196.640625 509.6875,101.71875" stroke="black" stroke-width="1.5" /><text dominant-baseline="middle" fill="black" font-family="Arial" font-size="12px" font-weight="bold" text-anchor="middle" x="463.28125" y="150.234375">Common Room 2</text></g><g id="room_kitchen"><polygon fill="rgb(240,128,128)" fill-opacity="0.7" points="262.890625,103.828125 262.890625,196.640625 315.625,196.640625 315.625,152.34375 332.5,150.234375 332.5,135.46875 315.625,133.359375 315.625,103.828125" stroke="black" stroke-width="1.5" /><text dominant-baseline="middle" fill="black" font-family="Arial" font-size="12px" font-weight="bold" text-anchor="middle" x="298.75" y="151.2890625">Kitchen</text></g><g id="room_bathroom"><polygon fill="rgb(173,216,230)" fill-opacity="0.7" points="448.515625,259.921875 448.515625,316.875 537.109375,316.875 537.109375,259.921875" stroke="black" stroke-width="1.5" /><text dominant-baseline="middle" fill="black" font-family="Arial" font-size="12px" font-weight="bold" text-anchor="middle" x="493.8671875" y="289.453125">Bathroom</text></g><g id="room_common_room"><polygon fill="rgb(255,215,0)" fill-opacity="0.7" points="345.15625,135.46875 345.15625,160.78125 328.28125,162.890625 328.28125,196.640625 402.109375,196.640625 402.109375,135.46875" stroke="black" stroke-width="1.5" /><text dominant-baseline="middle" fill="black" font-family="Arial" font-size="12px" font-weight="bold" text-anchor="middle" x="366.25" y="167.109375">Common Room</text></g><g id="room_bathroom_2"><polygon fill="rgb(173,216,230)" fill-opacity="0.7" points="448.515625,209.296875 448.515625,251.484375 537.109375,251.484375 537.109375,209.296875" stroke="black" stroke-width="1.5" /><text dominant-baseline="middle" fill="black" font-family="Arial" font-size="12px" font-weight="bold" text-anchor="middle" x="493.8671875" y="231.4453125">Bathroom 2</text></g><g id="room_balcony"><polygon fill="rgb(107,142,35)" fill-opacity="0.7" points="265.0,466.640625 265.0,498.28125 376.796875,498.28125 376.796875,466.640625" stroke="black" stroke-width="1.5" /><text dominant-baseline="middle" fill="black" font-family="Arial" font-size="12px" font-weight="bold" text-anchor="middle" x="321.953125" y="483.515625">Balcony</text></g><rect fill="red" fill-opacity="0.9" height="27.421875" id="main_door" stroke="darkred" stroke-width="3" width="10.546875" x="279.765625" y="217.734375" /><text dominant-baseline="middle" fill="white" font-family="Arial" font-size="9px" font-weight="bold" text-anchor="middle" x="285.0390625" y="231.4453125">Main Door</text><text fill="black" font-family="Arial" font-size="18px" font-weight="bold" text-anchor="middle" x="400.0" y="30">Floor Plan - ID: 47673</text></svg>