<?xml version="1.0" encoding="utf-8" ?>
<svg baseProfile="full" height="600px" version="1.1" viewBox="0 0 800 600" width="800px" xmlns="http://www.w3.org/2000/svg" xmlns:ev="http://www.w3.org/2001/xml-events" xmlns:xlink="http://www.w3.org/1999/xlink"><defs /><rect fill="white" height="600" width="800" x="0" y="0" /><polygon fill="none" id="floor_plan_boundary" points="283.984375,129.140625 283.984375,462.421875 381.015625,462.421875 383.125,515.15625 518.125,515.15625 518.125,304.21875 461.171875,304.21875 459.0625,249.375 452.734375,312.65625 511.796875,314.765625 511.796875,504.609375 393.671875,506.71875 391.5625,453.984375 292.421875,451.875 292.421875,139.6875 391.5625,137.578125 393.671875,93.28125 467.5,93.28125 471.71875,200.859375 454.84375,202.96875 459.0625,215.625 461.171875,207.1875 475.9375,207.1875 478.046875,84.84375 383.125,84.84375 381.015625,129.140625" stroke="black" stroke-linecap="butt" stroke-linejoin="miter" stroke-width="4" /><g id="room_living_room"><polygon fill="rgb(238,232,170)" fill-opacity="0.7" points="391.5625,139.6875 391.5625,270.46875 355.703125,272.578125 355.703125,304.21875 391.5625,306.328125 391.5625,451.875 509.6875,451.875 509.6875,314.765625 450.625,312.65625 452.734375,202.96875 469.609375,200.859375 469.609375,139.6875" stroke="black" stroke-width="1.5" /><text dominant-baseline="middle" fill="black" font-family="Arial" font-size="12px" font-weight="bold" text-anchor="middle" x="433.75" y="296.8359375">Living Room</text></g><g id="room_master_bedroom"><polygon fill="rgb(255,165,0)" fill-opacity="0.7" points="294.53125,139.6875 294.53125,264.140625 383.125,264.140625 383.125,139.6875" stroke="black" stroke-width="1.5" /><text dominant-baseline="middle" fill="black" font-family="Arial" font-size="12px" font-weight="bold" text-anchor="middle" x="339.8828125" y="202.96875">Master Bedroom</text></g><g id="room_common_room"><polygon fill="rgb(255,215,0)" fill-opacity="0.7" points="383.125,312.65625 355.703125,312.65625 355.703125,337.96875 294.53125,337.96875 294.53125,451.875 383.125,451.875" stroke="black" stroke-width="1.5" /><text dominant-baseline="middle" fill="black" font-family="Arial" font-size="12px" font-weight="bold" text-anchor="middle" x="339.8828125" y="383.3203125">Common Room</text></g><g id="room_balcony"><polygon fill="rgb(107,142,35)" fill-opacity="0.7" points="393.671875,464.53125 393.671875,504.609375 509.6875,504.609375 509.6875,464.53125" stroke="black" stroke-width="1.5" /><text dominant-baseline="middle" fill="black" font-family="Arial" font-size="12px" font-weight="bold" text-anchor="middle" x="452.734375" y="485.625">Balcony</text></g><g id="room_bathroom"><polygon fill="rgb(173,216,230)" fill-opacity="0.7" points="294.53125,272.578125 294.53125,325.3125 347.265625,325.3125 347.265625,272.578125" stroke="black" stroke-width="1.5" /><text dominant-baseline="middle" fill="black" font-family="Arial" font-size="12px" font-weight="bold" text-anchor="middle" x="321.953125" y="300.0">Bathroom</text></g><g id="room_balcony_2"><polygon fill="rgb(107,142,35)" fill-opacity="0.7" points="393.671875,95.390625 393.671875,127.03125 467.5,127.03125 467.5,95.390625" stroke="black" stroke-width="1.5" /><text dominant-baseline="middle" fill="black" font-family="Arial" font-size="12px" font-weight="bold" text-anchor="middle" x="431.640625" y="112.265625">Balcony 2</text></g><rect fill="red" fill-opacity="0.9" height="31.640625" id="main_door" stroke="darkred" stroke-width="3" width="6.328125" x="454.84375" y="217.734375" /><text dominant-baseline="middle" fill="white" font-family="Arial" font-size="9px" font-weight="bold" text-anchor="middle" x="458.0078125" y="233.5546875">Main Door</text><text fill="black" font-family="Arial" font-size="18px" font-weight="bold" text-anchor="middle" x="400.0" y="30">Floor Plan - ID: 47834</text></svg>