<?xml version="1.0" encoding="utf-8" ?>
<svg baseProfile="full" height="600px" version="1.1" viewBox="0 0 800 600" width="800px" xmlns="http://www.w3.org/2000/svg" xmlns:ev="http://www.w3.org/2001/xml-events" xmlns:xlink="http://www.w3.org/1999/xlink"><defs /><rect fill="white" height="600" width="800" x="0" y="0" /><polygon fill="none" id="floor_plan_boundary" points="340.9375,63.75 340.9375,188.203125 294.53125,190.3125 294.53125,519.375 416.875,519.375 418.984375,536.25 482.265625,536.25 484.375,519.375 505.46875,519.375 505.46875,337.96875 486.484375,335.859375 486.484375,259.921875 456.953125,268.359375 478.046875,270.46875 478.046875,346.40625 497.03125,348.515625 497.03125,508.828125 473.828125,510.9375 471.71875,527.8125 429.53125,527.8125 427.421875,510.9375 302.96875,508.828125 302.96875,200.859375 349.375,198.75 349.375,74.296875 494.921875,72.1875 497.03125,183.984375 456.953125,186.09375 456.953125,221.953125 465.390625,221.953125 467.5,194.53125 505.46875,194.53125 505.46875,63.75" stroke="black" stroke-linecap="butt" stroke-linejoin="miter" stroke-width="4" /><g id="room_living_room"><polygon fill="rgb(238,232,170)" fill-opacity="0.7" points="351.484375,137.578125 351.484375,198.75 305.078125,200.859375 305.078125,335.859375 402.109375,335.859375 404.21875,394.921875 440.078125,394.921875 440.078125,337.96875 475.9375,335.859375 475.9375,270.46875 454.84375,268.359375 454.84375,196.640625 421.09375,194.53125 421.09375,137.578125" stroke="black" stroke-width="1.5" /><text dominant-baseline="middle" fill="black" font-family="Arial" font-size="12px" font-weight="bold" text-anchor="middle" x="391.5625" y="267.3046875">Living Room</text></g><g id="room_master_bedroom"><polygon fill="rgb(255,165,0)" fill-opacity="0.7" points="305.078125,348.515625 305.078125,468.75 391.5625,468.75 391.5625,348.515625" stroke="black" stroke-width="1.5" /><text dominant-baseline="middle" fill="black" font-family="Arial" font-size="12px" font-weight="bold" text-anchor="middle" x="349.375" y="409.6875">Master Bedroom</text></g><g id="room_common_room"><polygon fill="rgb(255,215,0)" fill-opacity="0.7" points="404.21875,407.578125 404.21875,508.828125 427.421875,508.828125 429.53125,525.703125 471.71875,525.703125 473.828125,508.828125 494.921875,508.828125 494.921875,407.578125" stroke="black" stroke-width="1.5" /><text dominant-baseline="middle" fill="black" font-family="Arial" font-size="12px" font-weight="bold" text-anchor="middle" x="450.625" y="467.6953125">Common Room</text></g><g id="room_common_room_2"><polygon fill="rgb(255,215,0)" fill-opacity="0.7" points="433.75,74.296875 433.75,183.984375 494.921875,183.984375 494.921875,74.296875" stroke="black" stroke-width="1.5" /><text dominant-baseline="middle" fill="black" font-family="Arial" font-size="12px" font-weight="bold" text-anchor="middle" x="465.390625" y="130.1953125">Common Room 2</text></g><g id="room_kitchen"><polygon fill="rgb(240,128,128)" fill-opacity="0.7" points="351.484375,74.296875 351.484375,124.921875 421.09375,124.921875 421.09375,74.296875" stroke="black" stroke-width="1.5" /><text dominant-baseline="middle" fill="black" font-family="Arial" font-size="12px" font-weight="bold" text-anchor="middle" x="387.34375" y="100.6640625">Kitchen</text></g><g id="room_balcony"><polygon fill="rgb(107,142,35)" fill-opacity="0.7" points="305.078125,481.40625 305.078125,508.828125 391.5625,508.828125 391.5625,481.40625" stroke="black" stroke-width="1.5" /><text dominant-baseline="middle" fill="black" font-family="Arial" font-size="12px" font-weight="bold" text-anchor="middle" x="349.375" y="496.171875">Balcony</text></g><g id="room_bathroom"><polygon fill="rgb(173,216,230)" fill-opacity="0.7" points="452.734375,348.515625 452.734375,394.921875 494.921875,394.921875 494.921875,348.515625" stroke="black" stroke-width="1.5" /><text dominant-baseline="middle" fill="black" font-family="Arial" font-size="12px" font-weight="bold" text-anchor="middle" x="474.8828125" y="372.7734375">Bathroom</text></g><rect fill="red" fill-opacity="0.9" height="40.078125" id="main_door" stroke="darkred" stroke-width="3" width="10.546875" x="456.953125" y="224.0625" /><text dominant-baseline="middle" fill="white" font-family="Arial" font-size="9px" font-weight="bold" text-anchor="middle" x="462.2265625" y="244.1015625">Main Door</text><text fill="black" font-family="Arial" font-size="18px" font-weight="bold" text-anchor="middle" x="400.0" y="30">Floor Plan - ID: 47857</text></svg>