<?xml version="1.0" encoding="utf-8" ?>
<svg baseProfile="full" height="600px" version="1.1" viewBox="0 0 800 600" width="800px" xmlns="http://www.w3.org/2000/svg" xmlns:ev="http://www.w3.org/2001/xml-events" xmlns:xlink="http://www.w3.org/1999/xlink"><defs /><rect fill="white" height="600" width="800" x="0" y="0" /><polygon fill="none" id="floor_plan_boundary" points="317.734375,57.421875 317.734375,228.28125 300.859375,230.390625 300.859375,494.0625 321.953125,494.0625 324.0625,510.9375 389.453125,510.9375 395.78125,494.0625 397.890625,542.578125 499.140625,542.578125 499.140625,272.578125 490.703125,272.578125 490.703125,532.03125 408.4375,534.140625 406.328125,485.625 381.015625,485.625 378.90625,502.5 334.609375,502.5 332.5,485.625 309.296875,483.515625 309.296875,240.9375 326.171875,238.828125 326.171875,67.96875 488.59375,65.859375 490.703125,238.828125 499.140625,238.828125 499.140625,57.421875" stroke="black" stroke-linecap="butt" stroke-linejoin="miter" stroke-width="4" /><g id="room_living_room"><polygon fill="rgb(238,232,170)" fill-opacity="0.7" points="488.59375,150.234375 414.765625,150.234375 412.65625,240.9375 311.40625,240.9375 311.40625,359.0625 488.59375,359.0625" stroke="black" stroke-width="1.5" /><text dominant-baseline="middle" fill="black" font-family="Arial" font-size="12px" font-weight="bold" text-anchor="middle" x="401.0546875" y="255.703125">Living Room</text></g><g id="room_master_bedroom"><polygon fill="rgb(255,165,0)" fill-opacity="0.7" points="311.40625,371.71875 311.40625,483.515625 332.5,483.515625 334.609375,500.390625 378.90625,500.390625 378.90625,485.625 395.78125,483.515625 395.78125,371.71875" stroke="black" stroke-width="1.5" /><text dominant-baseline="middle" fill="black" font-family="Arial" font-size="12px" font-weight="bold" text-anchor="middle" x="354.6484375" y="437.109375">Master Bedroom</text></g><g id="room_common_room"><polygon fill="rgb(255,215,0)" fill-opacity="0.7" points="408.4375,371.71875 408.4375,483.515625 488.59375,483.515625 488.59375,371.71875" stroke="black" stroke-width="1.5" /><text dominant-baseline="middle" fill="black" font-family="Arial" font-size="12px" font-weight="bold" text-anchor="middle" x="449.5703125" y="428.671875">Common Room</text></g><g id="room_common_room_2"><polygon fill="rgb(255,215,0)" fill-opacity="0.7" points="328.28125,67.96875 328.28125,173.4375 402.109375,173.4375 402.109375,67.96875" stroke="black" stroke-width="1.5" /><text dominant-baseline="middle" fill="black" font-family="Arial" font-size="12px" font-weight="bold" text-anchor="middle" x="366.25" y="121.7578125">Common Room 2</text></g><g id="room_kitchen"><polygon fill="rgb(240,128,128)" fill-opacity="0.7" points="414.765625,67.96875 414.765625,137.578125 488.59375,137.578125 488.59375,67.96875" stroke="black" stroke-width="1.5" /><text dominant-baseline="middle" fill="black" font-family="Arial" font-size="12px" font-weight="bold" text-anchor="middle" x="452.734375" y="103.828125">Kitchen</text></g><g id="room_bathroom"><polygon fill="rgb(173,216,230)" fill-opacity="0.7" points="328.28125,186.09375 328.28125,228.28125 402.109375,228.28125 402.109375,186.09375" stroke="black" stroke-width="1.5" /><text dominant-baseline="middle" fill="black" font-family="Arial" font-size="12px" font-weight="bold" text-anchor="middle" x="366.25" y="208.2421875">Bathroom</text></g><g id="room_balcony"><polygon fill="rgb(107,142,35)" fill-opacity="0.7" points="408.4375,496.171875 408.4375,532.03125 488.59375,532.03125 488.59375,496.171875" stroke="black" stroke-width="1.5" /><text dominant-baseline="middle" fill="black" font-family="Arial" font-size="12px" font-weight="bold" text-anchor="middle" x="449.5703125" y="515.15625">Balcony</text></g><rect fill="red" fill-opacity="0.9" height="31.640625" id="main_door" stroke="darkred" stroke-width="3" width="10.546875" x="490.703125" y="240.9375" /><text dominant-baseline="middle" fill="white" font-family="Arial" font-size="9px" font-weight="bold" text-anchor="middle" x="495.9765625" y="256.7578125">Main Door</text><text fill="black" font-family="Arial" font-size="18px" font-weight="bold" text-anchor="middle" x="400.0" y="30">Floor Plan - ID: 47866</text></svg>