<?xml version="1.0" encoding="utf-8" ?>
<svg baseProfile="full" height="600px" version="1.1" viewBox="0 0 800 600" width="800px" xmlns="http://www.w3.org/2000/svg" xmlns:ev="http://www.w3.org/2001/xml-events" xmlns:xlink="http://www.w3.org/1999/xlink"><defs /><rect fill="white" height="600" width="800" x="0" y="0" /><polygon fill="none" id="floor_plan_boundary" points="199.609375,205.078125 199.609375,295.78125 233.359375,297.890625 233.359375,348.515625 332.5,348.515625 334.609375,411.796875 366.25,411.796875 338.828125,405.46875 338.828125,344.296875 237.578125,342.1875 237.578125,291.5625 203.828125,289.453125 203.828125,211.40625 366.25,209.296875 368.359375,192.421875 547.65625,192.421875 549.765625,295.78125 596.171875,297.890625 596.171875,405.46875 408.4375,411.796875 600.390625,411.796875 600.390625,291.5625 553.984375,289.453125 553.984375,188.203125 362.03125,188.203125 359.921875,205.078125" stroke="black" stroke-linecap="butt" stroke-linejoin="miter" stroke-width="4" /><g id="room_living_room"><polygon fill="rgb(238,232,170)" fill-opacity="0.7" points="340.9375,297.890625 340.9375,405.46875 547.65625,405.46875 547.65625,297.890625 427.421875,297.890625 425.3125,270.46875 368.359375,270.46875 368.359375,295.78125" stroke="black" stroke-width="1.5" /><text dominant-baseline="middle" fill="black" font-family="Arial" font-size="12px" font-weight="bold" text-anchor="middle" x="445.3515625" y="339.0234375">Living Room</text></g><g id="room_master_bedroom"><polygon fill="rgb(255,165,0)" fill-opacity="0.7" points="433.75,194.53125 433.75,289.453125 547.65625,289.453125 547.65625,194.53125" stroke="black" stroke-width="1.5" /><text dominant-baseline="middle" fill="black" font-family="Arial" font-size="12px" font-weight="bold" text-anchor="middle" x="491.7578125" y="243.046875">Master Bedroom</text></g><g id="room_common_room"><polygon fill="rgb(255,215,0)" fill-opacity="0.7" points="243.90625,211.40625 243.90625,289.453125 359.921875,289.453125 359.921875,211.40625" stroke="black" stroke-width="1.5" /><text dominant-baseline="middle" fill="black" font-family="Arial" font-size="12px" font-weight="bold" text-anchor="middle" x="302.96875" y="251.484375">Common Room</text></g><g id="room_kitchen"><polygon fill="rgb(240,128,128)" fill-opacity="0.7" points="239.6875,297.890625 239.6875,342.1875 332.5,342.1875 332.5,297.890625" stroke="black" stroke-width="1.5" /><text dominant-baseline="middle" fill="black" font-family="Arial" font-size="12px" font-weight="bold" text-anchor="middle" x="287.1484375" y="321.09375">Kitchen</text></g><g id="room_balcony"><polygon fill="rgb(107,142,35)" fill-opacity="0.7" points="556.09375,297.890625 556.09375,405.46875 594.0625,405.46875 594.0625,297.890625" stroke="black" stroke-width="1.5" /><text dominant-baseline="middle" fill="black" font-family="Arial" font-size="12px" font-weight="bold" text-anchor="middle" x="576.1328125" y="352.734375">Balcony</text></g><g id="room_bathroom"><polygon fill="rgb(173,216,230)" fill-opacity="0.7" points="368.359375,194.53125 368.359375,262.03125 425.3125,262.03125 425.3125,194.53125" stroke="black" stroke-width="1.5" /><text dominant-baseline="middle" fill="black" font-family="Arial" font-size="12px" font-weight="bold" text-anchor="middle" x="397.890625" y="229.3359375">Bathroom</text></g><g id="room_balcony_2"><polygon fill="rgb(107,142,35)" fill-opacity="0.7" points="205.9375,211.40625 205.9375,289.453125 235.46875,289.453125 235.46875,211.40625" stroke="black" stroke-width="1.5" /><text dominant-baseline="middle" fill="black" font-family="Arial" font-size="12px" font-weight="bold" text-anchor="middle" x="221.7578125" y="251.484375">Balcony 2</text></g><rect fill="red" fill-opacity="0.9" height="6.328125" id="main_door" stroke="darkred" stroke-width="3" width="40.078125" x="368.359375" y="407.578125" /><text dominant-baseline="middle" fill="white" font-family="Arial" font-size="9px" font-weight="bold" text-anchor="middle" x="388.3984375" y="410.7421875">Main Door</text><text fill="black" font-family="Arial" font-size="18px" font-weight="bold" text-anchor="middle" x="400.0" y="30">Floor Plan - ID: 480</text></svg>