<?xml version="1.0" encoding="utf-8" ?>
<svg baseProfile="full" height="600px" version="1.1" viewBox="0 0 800 600" width="800px" xmlns="http://www.w3.org/2000/svg" xmlns:ev="http://www.w3.org/2001/xml-events" xmlns:xlink="http://www.w3.org/1999/xlink"><defs /><rect fill="white" height="600" width="800" x="0" y="0" /><polygon fill="none" id="floor_plan_boundary" points="265.0,108.046875 265.0,133.359375 243.90625,135.46875 243.90625,354.84375 290.3125,356.953125 290.3125,491.953125 393.671875,491.953125 393.671875,329.53125 537.109375,327.421875 537.109375,283.125 528.671875,283.125 526.5625,318.984375 385.234375,318.984375 385.234375,481.40625 300.859375,483.515625 298.75,346.40625 252.34375,344.296875 252.34375,146.015625 273.4375,143.90625 275.546875,116.484375 317.734375,116.484375 319.84375,143.90625 410.546875,143.90625 412.65625,116.484375 469.609375,116.484375 471.71875,143.90625 547.65625,146.015625 547.65625,238.828125 528.671875,240.9375 528.671875,249.375 556.09375,249.375 556.09375,135.46875 482.265625,135.46875 480.15625,108.046875 402.109375,108.046875 400.0,135.46875 330.390625,135.46875 328.28125,108.046875" stroke="black" stroke-linecap="butt" stroke-linejoin="miter" stroke-width="4" /><g id="room_living_room"><polygon fill="rgb(238,232,170)" fill-opacity="0.7" points="412.65625,118.59375 412.65625,143.90625 400.0,146.015625 400.0,202.96875 353.59375,205.078125 353.59375,316.875 526.5625,316.875 526.5625,251.484375 494.921875,249.375 494.921875,146.015625 469.609375,143.90625 469.609375,118.59375" stroke="black" stroke-width="1.5" /><text dominant-baseline="middle" fill="black" font-family="Arial" font-size="12px" font-weight="bold" text-anchor="middle" x="441.1328125" y="218.7890625">Living Room</text></g><g id="room_master_bedroom"><polygon fill="rgb(255,165,0)" fill-opacity="0.7" points="300.859375,329.53125 300.859375,447.65625 383.125,447.65625 383.125,329.53125" stroke="black" stroke-width="1.5" /><text dominant-baseline="middle" fill="black" font-family="Arial" font-size="12px" font-weight="bold" text-anchor="middle" x="343.046875" y="389.6484375">Master Bedroom</text></g><g id="room_common_room_2"><polygon fill="rgb(255,215,0)" fill-opacity="0.7" points="275.546875,118.59375 275.546875,143.90625 254.453125,146.015625 254.453125,228.28125 340.9375,228.28125 340.9375,146.015625 317.734375,143.90625 317.734375,118.59375" stroke="black" stroke-width="1.5" /><text dominant-baseline="middle" fill="black" font-family="Arial" font-size="12px" font-weight="bold" text-anchor="middle" x="298.75" y="174.4921875">Common Room 2</text></g><g id="room_common_room"><polygon fill="rgb(255,215,0)" fill-opacity="0.7" points="254.453125,240.9375 254.453125,344.296875 288.203125,344.296875 290.3125,316.875 340.9375,316.875 340.9375,240.9375" stroke="black" stroke-width="1.5" /><text dominant-baseline="middle" fill="black" font-family="Arial" font-size="12px" font-weight="bold" text-anchor="middle" x="298.75" y="293.671875">Common Room</text></g><g id="room_kitchen"><polygon fill="rgb(240,128,128)" fill-opacity="0.7" points="507.578125,146.015625 507.578125,238.828125 545.546875,238.828125 545.546875,146.015625" stroke="black" stroke-width="1.5" /><text dominant-baseline="middle" fill="black" font-family="Arial" font-size="12px" font-weight="bold" text-anchor="middle" x="527.6171875" y="193.4765625">Kitchen</text></g><g id="room_balcony"><polygon fill="rgb(107,142,35)" fill-opacity="0.7" points="300.859375,460.3125 300.859375,481.40625 383.125,481.40625 383.125,460.3125" stroke="black" stroke-width="1.5" /><text dominant-baseline="middle" fill="black" font-family="Arial" font-size="12px" font-weight="bold" text-anchor="middle" x="343.046875" y="471.9140625">Balcony</text></g><g id="room_bathroom"><polygon fill="rgb(173,216,230)" fill-opacity="0.7" points="353.59375,146.015625 353.59375,196.640625 387.34375,196.640625 387.34375,146.015625" stroke="black" stroke-width="1.5" /><text dominant-baseline="middle" fill="black" font-family="Arial" font-size="12px" font-weight="bold" text-anchor="middle" x="371.5234375" y="172.3828125">Bathroom</text></g><rect fill="red" fill-opacity="0.9" height="31.640625" id="main_door" stroke="darkred" stroke-width="3" width="10.546875" x="528.671875" y="251.484375" /><text dominant-baseline="middle" fill="white" font-family="Arial" font-size="9px" font-weight="bold" text-anchor="middle" x="533.9453125" y="267.3046875">Main Door</text><text fill="black" font-family="Arial" font-size="18px" font-weight="bold" text-anchor="middle" x="400.0" y="30">Floor Plan - ID: 48061</text></svg>