<?xml version="1.0" encoding="utf-8" ?>
<svg baseProfile="full" height="600px" version="1.1" viewBox="0 0 800 600" width="800px" xmlns="http://www.w3.org/2000/svg" xmlns:ev="http://www.w3.org/2001/xml-events" xmlns:xlink="http://www.w3.org/1999/xlink"><defs /><rect fill="white" height="600" width="800" x="0" y="0" /><polygon fill="none" id="floor_plan_boundary" points="326.171875,70.078125 326.171875,238.828125 334.609375,238.828125 336.71875,78.515625 452.734375,78.515625 454.84375,154.453125 505.46875,156.5625 503.359375,458.203125 406.328125,458.203125 404.21875,521.484375 296.640625,521.484375 294.53125,346.40625 334.609375,344.296875 334.609375,272.578125 326.171875,272.578125 326.171875,333.75 286.09375,335.859375 286.09375,529.921875 414.765625,529.921875 416.875,466.640625 513.90625,466.640625 513.90625,146.015625 463.28125,143.90625 463.28125,70.078125" stroke="black" stroke-linecap="butt" stroke-linejoin="miter" stroke-width="4" /><g id="room_living_room"><polygon fill="rgb(238,232,170)" fill-opacity="0.7" points="336.71875,156.5625 336.71875,344.296875 296.640625,346.40625 296.640625,519.375 404.21875,519.375 404.21875,335.859375 452.734375,333.75 452.734375,272.578125 404.21875,270.46875 404.21875,156.5625" stroke="black" stroke-width="1.5" /><text dominant-baseline="middle" fill="black" font-family="Arial" font-size="12px" font-weight="bold" text-anchor="middle" x="375.7421875" y="339.0234375">Living Room</text></g><g id="room_master_bedroom"><polygon fill="rgb(255,165,0)" fill-opacity="0.7" points="416.875,346.40625 416.875,456.09375 503.359375,456.09375 503.359375,346.40625" stroke="black" stroke-width="1.5" /><text dominant-baseline="middle" fill="black" font-family="Arial" font-size="12px" font-weight="bold" text-anchor="middle" x="461.171875" y="402.3046875">Master Bedroom</text></g><g id="room_common_room"><polygon fill="rgb(255,215,0)" fill-opacity="0.7" points="416.875,156.5625 416.875,259.921875 503.359375,259.921875 503.359375,156.5625" stroke="black" stroke-width="1.5" /><text dominant-baseline="middle" fill="black" font-family="Arial" font-size="12px" font-weight="bold" text-anchor="middle" x="461.171875" y="209.296875">Common Room</text></g><g id="room_common_room_2"><polygon fill="rgb(255,215,0)" fill-opacity="0.7" points="393.671875,80.625 393.671875,143.90625 452.734375,143.90625 452.734375,80.625" stroke="black" stroke-width="1.5" /><text dominant-baseline="middle" fill="black" font-family="Arial" font-size="12px" font-weight="bold" text-anchor="middle" x="424.2578125" y="113.3203125">Common Room 2</text></g><g id="room_kitchen"><polygon fill="rgb(240,128,128)" fill-opacity="0.7" points="336.71875,80.625 336.71875,143.90625 381.015625,143.90625 381.015625,80.625" stroke="black" stroke-width="1.5" /><text dominant-baseline="middle" fill="black" font-family="Arial" font-size="12px" font-weight="bold" text-anchor="middle" x="359.921875" y="113.3203125">Kitchen</text></g><g id="room_bathroom"><polygon fill="rgb(173,216,230)" fill-opacity="0.7" points="465.390625,272.578125 465.390625,333.75 503.359375,333.75 503.359375,272.578125" stroke="black" stroke-width="1.5" /><text dominant-baseline="middle" fill="black" font-family="Arial" font-size="12px" font-weight="bold" text-anchor="middle" x="485.4296875" y="304.21875">Bathroom</text></g><rect fill="red" fill-opacity="0.9" height="31.640625" id="main_door" stroke="darkred" stroke-width="3" width="10.546875" x="326.171875" y="240.9375" /><text dominant-baseline="middle" fill="white" font-family="Arial" font-size="9px" font-weight="bold" text-anchor="middle" x="331.4453125" y="256.7578125">Main Door</text><text fill="black" font-family="Arial" font-size="18px" font-weight="bold" text-anchor="middle" x="400.0" y="30">Floor Plan - ID: 48090</text></svg>