<?xml version="1.0" encoding="utf-8" ?>
<svg baseProfile="full" height="600px" version="1.1" viewBox="0 0 800 600" width="800px" xmlns="http://www.w3.org/2000/svg" xmlns:ev="http://www.w3.org/2001/xml-events" xmlns:xlink="http://www.w3.org/1999/xlink"><defs /><rect fill="white" height="600" width="800" x="0" y="0" /><polygon fill="none" id="floor_plan_boundary" points="233.359375,122.8125 233.359375,460.3125 340.9375,460.3125 340.9375,477.1875 475.9375,477.1875 478.046875,432.890625 566.640625,432.890625 566.640625,318.984375 513.90625,318.984375 511.796875,293.671875 503.359375,293.671875 503.359375,327.421875 558.203125,329.53125 556.09375,424.453125 467.5,424.453125 465.390625,468.75 349.375,468.75 347.265625,451.875 243.90625,451.875 241.796875,133.359375 351.484375,131.25 353.59375,167.109375 452.734375,167.109375 454.84375,141.796875 501.25,141.796875 503.359375,264.140625 511.796875,264.140625 511.796875,133.359375 444.296875,133.359375 442.1875,158.671875 364.140625,158.671875 362.03125,122.8125" stroke="black" stroke-linecap="butt" stroke-linejoin="miter" stroke-width="4" /><g id="room_living_room"><polygon fill="rgb(238,232,170)" fill-opacity="0.7" points="364.140625,169.21875 362.03125,217.734375 313.515625,217.734375 313.515625,295.78125 351.484375,297.890625 351.484375,422.34375 465.390625,422.34375 465.390625,295.78125 501.25,293.671875 501.25,243.046875 442.1875,240.9375 442.1875,169.21875" stroke="black" stroke-width="1.5" /><text dominant-baseline="middle" fill="black" font-family="Arial" font-size="12px" font-weight="bold" text-anchor="middle" x="408.4375" y="296.8359375">Living Room</text></g><g id="room_master_bedroom"><polygon fill="rgb(255,165,0)" fill-opacity="0.7" points="338.828125,304.21875 313.515625,304.21875 311.40625,333.75 243.90625,333.75 243.90625,449.765625 338.828125,449.765625" stroke="black" stroke-width="1.5" /><text dominant-baseline="middle" fill="black" font-family="Arial" font-size="12px" font-weight="bold" text-anchor="middle" x="292.421875" y="378.046875">Master Bedroom</text></g><g id="room_common_room_2"><polygon fill="rgb(255,215,0)" fill-opacity="0.7" points="243.90625,133.359375 243.90625,209.296875 351.484375,209.296875 351.484375,133.359375" stroke="black" stroke-width="1.5" /><text dominant-baseline="middle" fill="black" font-family="Arial" font-size="12px" font-weight="bold" text-anchor="middle" x="298.75" y="172.3828125">Common Room 2</text></g><g id="room_common_room"><polygon fill="rgb(255,215,0)" fill-opacity="0.7" points="478.046875,306.328125 478.046875,422.34375 556.09375,422.34375 556.09375,329.53125 503.359375,329.53125 501.25,306.328125" stroke="black" stroke-width="1.5" /><text dominant-baseline="middle" fill="black" font-family="Arial" font-size="12px" font-weight="bold" text-anchor="middle" x="518.125" y="365.390625">Common Room</text></g><g id="room_kitchen"><polygon fill="rgb(240,128,128)" fill-opacity="0.7" points="454.84375,143.90625 454.84375,234.609375 501.25,234.609375 501.25,143.90625" stroke="black" stroke-width="1.5" /><text dominant-baseline="middle" fill="black" font-family="Arial" font-size="12px" font-weight="bold" text-anchor="middle" x="479.1015625" y="190.3125">Kitchen</text></g><g id="room_balcony"><polygon fill="rgb(107,142,35)" fill-opacity="0.7" points="351.484375,435.0 349.375,466.640625 465.390625,466.640625 465.390625,435.0" stroke="black" stroke-width="1.5" /><text dominant-baseline="middle" fill="black" font-family="Arial" font-size="12px" font-weight="bold" text-anchor="middle" x="408.4375" y="451.875">Balcony</text></g><g id="room_bathroom_2"><polygon fill="rgb(173,216,230)" fill-opacity="0.7" points="243.90625,217.734375 243.90625,266.25 305.078125,266.25 305.078125,217.734375" stroke="black" stroke-width="1.5" /><text dominant-baseline="middle" fill="black" font-family="Arial" font-size="12px" font-weight="bold" text-anchor="middle" x="275.546875" y="243.046875">Bathroom 2</text></g><g id="room_bathroom"><polygon fill="rgb(173,216,230)" fill-opacity="0.7" points="243.90625,278.90625 243.90625,325.3125 305.078125,325.3125 305.078125,278.90625" stroke="black" stroke-width="1.5" /><text dominant-baseline="middle" fill="black" font-family="Arial" font-size="12px" font-weight="bold" text-anchor="middle" x="275.546875" y="303.1640625">Bathroom</text></g><rect fill="red" fill-opacity="0.9" height="27.421875" id="main_door" stroke="darkred" stroke-width="3" width="10.546875" x="503.359375" y="266.25" /><text dominant-baseline="middle" fill="white" font-family="Arial" font-size="9px" font-weight="bold" text-anchor="middle" x="508.6328125" y="279.9609375">Main Door</text><text fill="black" font-family="Arial" font-size="18px" font-weight="bold" text-anchor="middle" x="400.0" y="30">Floor Plan - ID: 48144</text></svg>