<?xml version="1.0" encoding="utf-8" ?>
<svg baseProfile="full" height="600px" version="1.1" viewBox="0 0 800 600" width="800px" xmlns="http://www.w3.org/2000/svg" xmlns:ev="http://www.w3.org/2001/xml-events" xmlns:xlink="http://www.w3.org/1999/xlink"><defs /><rect fill="white" height="600" width="800" x="0" y="0" /><polygon fill="none" id="floor_plan_boundary" points="227.03125,173.4375 227.03125,426.5625 324.0625,426.5625 324.0625,418.125 235.46875,416.015625 237.578125,181.875 307.1875,181.875 309.296875,221.953125 562.421875,221.953125 562.421875,418.125 353.59375,418.125 353.59375,426.5625 572.96875,426.5625 572.96875,213.515625 319.84375,213.515625 317.734375,173.4375" stroke="black" stroke-linecap="butt" stroke-linejoin="miter" stroke-width="4" /><g id="room_living_room"><polygon fill="rgb(238,232,170)" fill-opacity="0.7" points="317.734375,272.578125 317.734375,416.015625 562.421875,416.015625 562.421875,312.65625 408.4375,312.65625 406.328125,272.578125" stroke="black" stroke-width="1.5" /><text dominant-baseline="middle" fill="black" font-family="Arial" font-size="12px" font-weight="bold" text-anchor="middle" x="441.1328125" y="345.3515625">Living Room</text></g><g id="room_master_bedroom"><polygon fill="rgb(255,165,0)" fill-opacity="0.7" points="414.765625,224.0625 414.765625,304.21875 562.421875,304.21875 562.421875,224.0625" stroke="black" stroke-width="1.5" /><text dominant-baseline="middle" fill="black" font-family="Arial" font-size="12px" font-weight="bold" text-anchor="middle" x="489.6484375" y="265.1953125">Master Bedroom</text></g><g id="room_kitchen"><polygon fill="rgb(240,128,128)" fill-opacity="0.7" points="237.578125,183.984375 237.578125,304.21875 309.296875,304.21875 307.1875,183.984375" stroke="black" stroke-width="1.5" /><text dominant-baseline="middle" fill="black" font-family="Arial" font-size="12px" font-weight="bold" text-anchor="middle" x="274.4921875" y="245.15625">Kitchen</text></g><g id="room_room_5"><polygon fill="rgb(221,160,221)" fill-opacity="0.7" points="237.578125,312.65625 237.578125,416.015625 309.296875,416.015625 309.296875,312.65625" stroke="black" stroke-width="1.5" /><text dominant-baseline="middle" fill="black" font-family="Arial" font-size="12px" font-weight="bold" text-anchor="middle" x="274.4921875" y="365.390625">Room 5</text></g><g id="room_bathroom"><polygon fill="rgb(173,216,230)" fill-opacity="0.7" points="317.734375,224.0625 317.734375,264.140625 406.328125,264.140625 406.328125,224.0625" stroke="black" stroke-width="1.5" /><text dominant-baseline="middle" fill="black" font-family="Arial" font-size="12px" font-weight="bold" text-anchor="middle" x="363.0859375" y="245.15625">Bathroom</text></g><rect fill="red" fill-opacity="0.9" height="10.546875" id="main_door" stroke="darkred" stroke-width="3" width="27.421875" x="326.171875" y="418.125" /><text dominant-baseline="middle" fill="white" font-family="Arial" font-size="9px" font-weight="bold" text-anchor="middle" x="339.8828125" y="423.3984375">Main Door</text><text fill="black" font-family="Arial" font-size="18px" font-weight="bold" text-anchor="middle" x="400.0" y="30">Floor Plan - ID: 48309</text></svg>