<?xml version="1.0" encoding="utf-8" ?>
<svg baseProfile="full" height="600px" version="1.1" viewBox="0 0 800 600" width="800px" xmlns="http://www.w3.org/2000/svg" xmlns:ev="http://www.w3.org/2001/xml-events" xmlns:xlink="http://www.w3.org/1999/xlink"><defs /><rect fill="white" height="600" width="800" x="0" y="0" /><polygon fill="none" id="floor_plan_boundary" points="239.6875,131.25 239.6875,458.203125 338.828125,458.203125 340.9375,500.390625 469.609375,500.390625 471.71875,458.203125 560.3125,458.203125 560.3125,312.65625 427.421875,314.765625 427.421875,321.09375 551.875,323.203125 551.875,447.65625 461.171875,449.765625 459.0625,491.953125 351.484375,491.953125 349.375,449.765625 248.125,447.65625 248.125,141.796875 349.375,139.6875 351.484375,108.046875 425.3125,108.046875 427.421875,276.796875 435.859375,276.796875 435.859375,99.609375 340.9375,99.609375 338.828125,131.25" stroke="black" stroke-linecap="butt" stroke-linejoin="miter" stroke-width="4" /><g id="room_living_room"><polygon fill="rgb(238,232,170)" fill-opacity="0.7" points="351.484375,160.78125 351.484375,257.8125 313.515625,259.921875 313.515625,310.546875 351.484375,312.65625 351.484375,447.65625 459.0625,447.65625 459.0625,323.203125 425.3125,321.09375 425.3125,160.78125" stroke="black" stroke-width="1.5" /><text dominant-baseline="middle" fill="black" font-family="Arial" font-size="12px" font-weight="bold" text-anchor="middle" x="387.34375" y="305.2734375">Living Room</text></g><g id="room_master_bedroom"><polygon fill="rgb(255,165,0)" fill-opacity="0.7" points="250.234375,323.203125 250.234375,447.65625 338.828125,447.65625 338.828125,323.203125" stroke="black" stroke-width="1.5" /><text dominant-baseline="middle" fill="black" font-family="Arial" font-size="12px" font-weight="bold" text-anchor="middle" x="295.5859375" y="386.484375">Master Bedroom</text></g><g id="room_common_room"><polygon fill="rgb(255,215,0)" fill-opacity="0.7" points="471.71875,323.203125 471.71875,447.65625 549.765625,447.65625 549.765625,323.203125" stroke="black" stroke-width="1.5" /><text dominant-baseline="middle" fill="black" font-family="Arial" font-size="12px" font-weight="bold" text-anchor="middle" x="511.796875" y="386.484375">Common Room</text></g><g id="room_common_room_2"><polygon fill="rgb(255,215,0)" fill-opacity="0.7" points="250.234375,141.796875 250.234375,247.265625 338.828125,247.265625 338.828125,141.796875" stroke="black" stroke-width="1.5" /><text dominant-baseline="middle" fill="black" font-family="Arial" font-size="12px" font-weight="bold" text-anchor="middle" x="295.5859375" y="195.5859375">Common Room 2</text></g><g id="room_balcony"><polygon fill="rgb(107,142,35)" fill-opacity="0.7" points="351.484375,460.3125 351.484375,489.84375 459.0625,489.84375 459.0625,460.3125" stroke="black" stroke-width="1.5" /><text dominant-baseline="middle" fill="black" font-family="Arial" font-size="12px" font-weight="bold" text-anchor="middle" x="406.328125" y="476.1328125">Balcony</text></g><g id="room_balcony_2"><polygon fill="rgb(107,142,35)" fill-opacity="0.7" points="351.484375,110.15625 351.484375,148.125 425.3125,148.125 425.3125,110.15625" stroke="black" stroke-width="1.5" /><text dominant-baseline="middle" fill="black" font-family="Arial" font-size="12px" font-weight="bold" text-anchor="middle" x="389.453125" y="130.1953125">Balcony 2</text></g><g id="room_bathroom"><polygon fill="rgb(173,216,230)" fill-opacity="0.7" points="250.234375,259.921875 250.234375,310.546875 305.078125,310.546875 305.078125,259.921875" stroke="black" stroke-width="1.5" /><text dominant-baseline="middle" fill="black" font-family="Arial" font-size="12px" font-weight="bold" text-anchor="middle" x="278.7109375" y="286.2890625">Bathroom</text></g><rect fill="red" fill-opacity="0.9" height="35.859375" id="main_door" stroke="darkred" stroke-width="3" width="10.546875" x="427.421875" y="278.90625" /><text dominant-baseline="middle" fill="white" font-family="Arial" font-size="9px" font-weight="bold" text-anchor="middle" x="432.6953125" y="296.8359375">Main Door</text><text fill="black" font-family="Arial" font-size="18px" font-weight="bold" text-anchor="middle" x="400.0" y="30">Floor Plan - ID: 48483</text></svg>