<?xml version="1.0" encoding="utf-8" ?>
<svg baseProfile="full" height="600px" version="1.1" viewBox="0 0 800 600" width="800px" xmlns="http://www.w3.org/2000/svg" xmlns:ev="http://www.w3.org/2001/xml-events" xmlns:xlink="http://www.w3.org/1999/xlink"><defs /><rect fill="white" height="600" width="800" x="0" y="0" /><polygon fill="none" id="floor_plan_boundary" points="229.140625,169.21875 229.140625,384.375 237.578125,384.375 239.6875,177.65625 283.984375,177.65625 286.09375,219.84375 435.859375,219.84375 437.96875,255.703125 543.4375,255.703125 545.546875,352.734375 566.640625,354.84375 564.53125,422.34375 229.140625,418.125 229.140625,430.78125 572.96875,430.78125 570.859375,344.296875 553.984375,342.1875 553.984375,247.265625 448.515625,247.265625 446.40625,211.40625 296.640625,211.40625 294.53125,169.21875" stroke="black" stroke-linecap="butt" stroke-linejoin="miter" stroke-width="4" /><g id="room_living_room"><polygon fill="rgb(238,232,170)" fill-opacity="0.7" points="239.6875,274.6875 239.6875,420.234375 509.6875,420.234375 507.578125,352.734375 437.96875,352.734375 435.859375,316.875 332.5,316.875 330.390625,274.6875" stroke="black" stroke-width="1.5" /><text dominant-baseline="middle" fill="black" font-family="Arial" font-size="12px" font-weight="bold" text-anchor="middle" x="375.7421875" y="348.515625">Living Room</text></g><g id="room_common_room"><polygon fill="rgb(255,215,0)" fill-opacity="0.7" points="338.828125,221.953125 338.828125,308.4375 435.859375,308.4375 435.859375,221.953125" stroke="black" stroke-width="1.5" /><text dominant-baseline="middle" fill="black" font-family="Arial" font-size="12px" font-weight="bold" text-anchor="middle" x="388.3984375" y="266.25">Common Room</text></g><g id="room_master_bedroom"><polygon fill="rgb(255,165,0)" fill-opacity="0.7" points="448.515625,257.8125 448.515625,344.296875 543.4375,342.1875 543.4375,257.8125" stroke="black" stroke-width="1.5" /><text dominant-baseline="middle" fill="black" font-family="Arial" font-size="12px" font-weight="bold" text-anchor="middle" x="497.03125" y="302.109375">Master Bedroom</text></g><g id="room_kitchen"><polygon fill="rgb(240,128,128)" fill-opacity="0.7" points="239.6875,179.765625 239.6875,266.25 286.09375,266.25 283.984375,179.765625" stroke="black" stroke-width="1.5" /><text dominant-baseline="middle" fill="black" font-family="Arial" font-size="12px" font-weight="bold" text-anchor="middle" x="263.9453125" y="224.0625">Kitchen</text></g><g id="room_balcony"><polygon fill="rgb(107,142,35)" fill-opacity="0.7" points="518.125,354.84375 518.125,420.234375 564.53125,420.234375 564.53125,354.84375" stroke="black" stroke-width="1.5" /><text dominant-baseline="middle" fill="black" font-family="Arial" font-size="12px" font-weight="bold" text-anchor="middle" x="542.3828125" y="388.59375">Balcony</text></g><g id="room_bathroom"><polygon fill="rgb(173,216,230)" fill-opacity="0.7" points="294.53125,221.953125 294.53125,266.25 330.390625,266.25 330.390625,221.953125" stroke="black" stroke-width="1.5" /><text dominant-baseline="middle" fill="black" font-family="Arial" font-size="12px" font-weight="bold" text-anchor="middle" x="313.515625" y="245.15625">Bathroom</text></g><rect fill="red" fill-opacity="0.9" height="31.640625" id="main_door" stroke="darkred" stroke-width="3" width="10.546875" x="229.140625" y="386.484375" /><text dominant-baseline="middle" fill="white" font-family="Arial" font-size="9px" font-weight="bold" text-anchor="middle" x="234.4140625" y="402.3046875">Main Door</text><text fill="black" font-family="Arial" font-size="18px" font-weight="bold" text-anchor="middle" x="400.0" y="30">Floor Plan - ID: 49075</text></svg>