<?xml version="1.0" encoding="utf-8" ?>
<svg baseProfile="full" height="600px" version="1.1" viewBox="0 0 800 600" width="800px" xmlns="http://www.w3.org/2000/svg" xmlns:ev="http://www.w3.org/2001/xml-events" xmlns:xlink="http://www.w3.org/1999/xlink"><defs /><rect fill="white" height="600" width="800" x="0" y="0" /><polygon fill="none" id="floor_plan_boundary" points="307.1875,93.28125 307.1875,240.9375 315.625,240.9375 317.734375,101.71875 404.21875,101.71875 406.328125,122.8125 499.140625,124.921875 499.140625,230.390625 524.453125,232.5 524.453125,496.171875 275.546875,496.171875 275.546875,297.890625 315.625,295.78125 315.625,270.46875 307.1875,270.46875 305.078125,287.34375 267.109375,287.34375 267.109375,506.71875 532.890625,506.71875 532.890625,221.953125 507.578125,219.84375 507.578125,114.375 416.875,114.375 414.765625,93.28125" stroke="black" stroke-linecap="butt" stroke-linejoin="miter" stroke-width="4" /><g id="room_living_room"><polygon fill="rgb(238,232,170)" fill-opacity="0.7" points="404.21875,165.0 317.734375,165.0 317.734375,295.78125 277.65625,297.890625 277.65625,496.171875 351.484375,496.171875 351.484375,443.4375 406.328125,441.328125 406.328125,287.34375 448.515625,285.234375 448.515625,232.5 404.21875,230.390625" stroke="black" stroke-width="1.5" /><text dominant-baseline="middle" fill="black" font-family="Arial" font-size="12px" font-weight="bold" text-anchor="middle" x="364.140625" y="331.640625">Living Room</text></g><g id="room_master_bedroom"><polygon fill="rgb(255,165,0)" fill-opacity="0.7" points="418.984375,297.890625 418.984375,441.328125 522.34375,441.328125 522.34375,297.890625" stroke="black" stroke-width="1.5" /><text dominant-baseline="middle" fill="black" font-family="Arial" font-size="12px" font-weight="bold" text-anchor="middle" x="471.71875" y="370.6640625">Master Bedroom</text></g><g id="room_common_room"><polygon fill="rgb(255,215,0)" fill-opacity="0.7" points="416.875,124.921875 416.875,219.84375 497.03125,219.84375 497.03125,124.921875" stroke="black" stroke-width="1.5" /><text dominant-baseline="middle" fill="black" font-family="Arial" font-size="12px" font-weight="bold" text-anchor="middle" x="458.0078125" y="173.4375">Common Room</text></g><g id="room_balcony"><polygon fill="rgb(107,142,35)" fill-opacity="0.7" points="364.140625,453.984375 364.140625,496.171875 522.34375,496.171875 522.34375,453.984375" stroke="black" stroke-width="1.5" /><text dominant-baseline="middle" fill="black" font-family="Arial" font-size="12px" font-weight="bold" text-anchor="middle" x="444.296875" y="476.1328125">Balcony</text></g><g id="room_kitchen"><polygon fill="rgb(240,128,128)" fill-opacity="0.7" points="317.734375,103.828125 317.734375,152.34375 404.21875,152.34375 404.21875,103.828125" stroke="black" stroke-width="1.5" /><text dominant-baseline="middle" fill="black" font-family="Arial" font-size="12px" font-weight="bold" text-anchor="middle" x="362.03125" y="129.140625">Kitchen</text></g><g id="room_bathroom"><polygon fill="rgb(173,216,230)" fill-opacity="0.7" points="461.171875,232.5 461.171875,285.234375 522.34375,285.234375 522.34375,232.5" stroke="black" stroke-width="1.5" /><text dominant-baseline="middle" fill="black" font-family="Arial" font-size="12px" font-weight="bold" text-anchor="middle" x="492.8125" y="259.921875">Bathroom</text></g><rect fill="red" fill-opacity="0.9" height="27.421875" id="main_door" stroke="darkred" stroke-width="3" width="10.546875" x="307.1875" y="243.046875" /><text dominant-baseline="middle" fill="white" font-family="Arial" font-size="9px" font-weight="bold" text-anchor="middle" x="312.4609375" y="256.7578125">Main Door</text><text fill="black" font-family="Arial" font-size="18px" font-weight="bold" text-anchor="middle" x="400.0" y="30">Floor Plan - ID: 49114</text></svg>