<?xml version="1.0" encoding="utf-8" ?>
<svg baseProfile="full" height="600px" version="1.1" viewBox="0 0 800 600" width="800px" xmlns="http://www.w3.org/2000/svg" xmlns:ev="http://www.w3.org/2001/xml-events" xmlns:xlink="http://www.w3.org/1999/xlink"><defs /><rect fill="white" height="600" width="800" x="0" y="0" /><polygon fill="none" id="floor_plan_boundary" points="321.953125,89.0625 321.953125,276.796875 330.390625,276.796875 330.390625,99.609375 378.90625,97.5 381.015625,152.34375 465.390625,154.453125 465.390625,259.921875 509.6875,262.03125 509.6875,365.390625 465.390625,367.5 463.28125,502.5 400.0,502.5 397.890625,487.734375 351.484375,487.734375 349.375,502.5 292.421875,502.5 290.3125,318.984375 330.390625,316.875 330.390625,306.328125 281.875,308.4375 281.875,510.9375 359.921875,510.9375 362.03125,496.171875 387.34375,496.171875 389.453125,510.9375 473.828125,510.9375 473.828125,378.046875 518.125,375.9375 518.125,251.484375 473.828125,249.375 473.828125,143.90625 391.5625,143.90625 389.453125,89.0625" stroke="black" stroke-linecap="butt" stroke-linejoin="miter" stroke-width="4" /><g id="room_living_room"><polygon fill="rgb(238,232,170)" fill-opacity="0.7" points="332.5,154.453125 338.828125,382.265625 370.46875,382.265625 372.578125,365.390625 507.578125,365.390625 507.578125,262.03125 381.015625,262.03125 378.90625,154.453125" stroke="black" stroke-width="1.5" /><text dominant-baseline="middle" fill="black" font-family="Arial" font-size="12px" font-weight="bold" text-anchor="middle" x="421.09375" y="269.4140625">Living Room</text></g><g id="room_master_bedroom"><polygon fill="rgb(255,165,0)" fill-opacity="0.7" points="383.125,378.046875 383.125,485.625 397.890625,485.625 400.0,500.390625 463.28125,500.390625 463.28125,378.046875" stroke="black" stroke-width="1.5" /><text dominant-baseline="middle" fill="black" font-family="Arial" font-size="12px" font-weight="bold" text-anchor="middle" x="424.2578125" y="440.2734375">Master Bedroom</text></g><g id="room_common_room"><polygon fill="rgb(255,215,0)" fill-opacity="0.7" points="292.421875,394.921875 292.421875,500.390625 349.375,500.390625 351.484375,485.625 370.46875,485.625 370.46875,394.921875" stroke="black" stroke-width="1.5" /><text dominant-baseline="middle" fill="black" font-family="Arial" font-size="12px" font-weight="bold" text-anchor="middle" x="332.5" y="448.7109375">Common Room</text></g><g id="room_common_room_2"><polygon fill="rgb(255,215,0)" fill-opacity="0.7" points="391.5625,154.453125 391.5625,249.375 463.28125,249.375 463.28125,154.453125" stroke="black" stroke-width="1.5" /><text dominant-baseline="middle" fill="black" font-family="Arial" font-size="12px" font-weight="bold" text-anchor="middle" x="428.4765625" y="202.96875">Common Room 2</text></g><g id="room_bathroom"><polygon fill="rgb(173,216,230)" fill-opacity="0.7" points="292.421875,318.984375 292.421875,382.265625 330.390625,382.265625 330.390625,318.984375" stroke="black" stroke-width="1.5" /><text dominant-baseline="middle" fill="black" font-family="Arial" font-size="12px" font-weight="bold" text-anchor="middle" x="312.4609375" y="351.6796875">Bathroom</text></g><g id="room_balcony"><polygon fill="rgb(107,142,35)" fill-opacity="0.7" points="332.5,99.609375 332.5,141.796875 378.90625,141.796875 378.90625,99.609375" stroke="black" stroke-width="1.5" /><text dominant-baseline="middle" fill="black" font-family="Arial" font-size="12px" font-weight="bold" text-anchor="middle" x="356.7578125" y="121.7578125">Balcony</text></g><rect fill="red" fill-opacity="0.9" height="27.421875" id="main_door" stroke="darkred" stroke-width="3" width="10.546875" x="321.953125" y="278.90625" /><text dominant-baseline="middle" fill="white" font-family="Arial" font-size="9px" font-weight="bold" text-anchor="middle" x="327.2265625" y="292.6171875">Main Door</text><text fill="black" font-family="Arial" font-size="18px" font-weight="bold" text-anchor="middle" x="400.0" y="30">Floor Plan - ID: 49135</text></svg>