<?xml version="1.0" encoding="utf-8" ?>
<svg baseProfile="full" height="600px" version="1.1" viewBox="0 0 800 600" width="800px" xmlns="http://www.w3.org/2000/svg" xmlns:ev="http://www.w3.org/2001/xml-events" xmlns:xlink="http://www.w3.org/1999/xlink"><defs /><rect fill="white" height="600" width="800" x="0" y="0" /><polygon fill="none" id="floor_plan_boundary" points="269.21875,162.890625 269.21875,378.046875 218.59375,380.15625 218.59375,397.03125 227.03125,397.03125 229.140625,388.59375 277.65625,388.59375 277.65625,173.4375 313.515625,171.328125 315.625,158.671875 435.859375,158.671875 437.96875,175.546875 467.5,175.546875 469.609375,192.421875 520.234375,192.421875 522.34375,177.65625 570.859375,177.65625 572.96875,378.046875 511.796875,380.15625 509.6875,441.328125 387.34375,441.328125 385.234375,426.5625 218.59375,426.5625 218.59375,435.0 374.6875,435.0 376.796875,449.765625 520.234375,449.765625 520.234375,390.703125 581.40625,388.59375 581.40625,169.21875 511.796875,169.21875 509.6875,183.984375 480.15625,183.984375 478.046875,167.109375 448.515625,167.109375 446.40625,150.234375 305.078125,150.234375 302.96875,162.890625" stroke="black" stroke-linecap="butt" stroke-linejoin="miter" stroke-width="4" /><g id="room_living_room"><polygon fill="rgb(238,232,170)" fill-opacity="0.7" points="279.765625,173.4375 279.765625,388.59375 229.140625,390.703125 229.140625,424.453125 385.234375,424.453125 387.34375,439.21875 414.765625,439.21875 414.765625,388.59375 378.90625,384.375 378.90625,331.640625 429.53125,327.421875 429.53125,262.03125 378.90625,257.8125 378.90625,160.78125" stroke="black" stroke-width="1.5" /><text dominant-baseline="middle" fill="black" font-family="Arial" font-size="12px" font-weight="bold" text-anchor="middle" x="330.390625" y="301.0546875">Living Room</text></g><g id="room_master_bedroom"><polygon fill="rgb(255,165,0)" fill-opacity="0.7" points="570.859375,179.765625 522.34375,179.765625 520.234375,194.53125 478.046875,194.53125 480.15625,257.8125 437.96875,262.03125 437.96875,291.5625 570.859375,291.5625" stroke="black" stroke-width="1.5" /><text dominant-baseline="middle" fill="black" font-family="Arial" font-size="12px" font-weight="bold" text-anchor="middle" x="505.46875" y="236.71875">Master Bedroom</text></g><g id="room_common_room"><polygon fill="rgb(255,215,0)" fill-opacity="0.7" points="437.96875,300.0 437.96875,327.421875 459.0625,329.53125 459.0625,380.15625 570.859375,378.046875 570.859375,300.0" stroke="black" stroke-width="1.5" /><text dominant-baseline="middle" fill="black" font-family="Arial" font-size="12px" font-weight="bold" text-anchor="middle" x="505.46875" y="341.1328125">Common Room</text></g><g id="room_common_room_2"><polygon fill="rgb(255,215,0)" fill-opacity="0.7" points="391.5625,160.78125 389.453125,253.59375 469.609375,253.59375 467.5,177.65625 437.96875,177.65625 435.859375,160.78125" stroke="black" stroke-width="1.5" /><text dominant-baseline="middle" fill="black" font-family="Arial" font-size="12px" font-weight="bold" text-anchor="middle" x="430.5859375" y="208.2421875">Common Room 2</text></g><g id="room_kitchen"><polygon fill="rgb(240,128,128)" fill-opacity="0.7" points="423.203125,388.59375 423.203125,439.21875 509.6875,439.21875 509.6875,388.59375" stroke="black" stroke-width="1.5" /><text dominant-baseline="middle" fill="black" font-family="Arial" font-size="12px" font-weight="bold" text-anchor="middle" x="467.5" y="414.9609375">Kitchen</text></g><g id="room_bathroom"><polygon fill="rgb(173,216,230)" fill-opacity="0.7" points="389.453125,335.859375 389.453125,380.15625 450.625,380.15625 450.625,335.859375" stroke="black" stroke-width="1.5" /><text dominant-baseline="middle" fill="black" font-family="Arial" font-size="12px" font-weight="bold" text-anchor="middle" x="421.09375" y="359.0625">Bathroom</text></g><rect fill="red" fill-opacity="0.9" height="27.421875" id="main_door" stroke="darkred" stroke-width="3" width="10.546875" x="218.59375" y="399.140625" /><text dominant-baseline="middle" fill="white" font-family="Arial" font-size="9px" font-weight="bold" text-anchor="middle" x="223.8671875" y="412.8515625">Main Door</text><text fill="black" font-family="Arial" font-size="18px" font-weight="bold" text-anchor="middle" x="400.0" y="30">Floor Plan - ID: 49173</text></svg>