<?xml version="1.0" encoding="utf-8" ?>
<svg baseProfile="full" height="600px" version="1.1" viewBox="0 0 800 600" width="800px" xmlns="http://www.w3.org/2000/svg" xmlns:ev="http://www.w3.org/2001/xml-events" xmlns:xlink="http://www.w3.org/1999/xlink"><defs /><rect fill="white" height="600" width="800" x="0" y="0" /><polygon fill="none" id="floor_plan_boundary" points="311.40625,91.171875 311.40625,232.5 319.84375,232.5 321.953125,99.609375 408.4375,99.609375 410.546875,129.140625 437.96875,129.140625 440.078125,116.484375 478.046875,116.484375 480.15625,129.140625 497.03125,131.25 497.03125,226.171875 520.234375,228.28125 520.234375,350.625 492.8125,352.734375 492.8125,456.09375 473.828125,458.203125 471.71875,472.96875 412.65625,472.96875 410.546875,458.203125 376.796875,458.203125 374.6875,500.390625 281.875,500.390625 279.765625,276.796875 319.84375,274.6875 319.84375,262.03125 271.328125,266.25 271.328125,508.828125 385.234375,508.828125 387.34375,466.640625 400.0,466.640625 402.109375,481.40625 482.265625,481.40625 484.375,466.640625 501.25,466.640625 501.25,363.28125 528.671875,361.171875 528.671875,217.734375 505.46875,215.625 505.46875,120.703125 490.703125,120.703125 488.59375,108.046875 429.53125,108.046875 429.53125,118.59375 421.09375,120.703125 418.984375,91.171875" stroke="black" stroke-linecap="butt" stroke-linejoin="miter" stroke-width="4" /><g id="room_living_room"><polygon fill="rgb(238,232,170)" fill-opacity="0.7" points="321.953125,148.125 321.953125,266.25 353.59375,268.359375 353.59375,352.734375 518.125,350.625 518.125,228.28125 410.546875,228.28125 408.4375,148.125" stroke="black" stroke-width="1.5" /><text dominant-baseline="middle" fill="black" font-family="Arial" font-size="12px" font-weight="bold" text-anchor="middle" x="421.09375" y="251.484375">Living Room</text></g><g id="room_master_bedroom"><polygon fill="rgb(255,165,0)" fill-opacity="0.7" points="281.875,361.171875 281.875,498.28125 374.6875,498.28125 374.6875,361.171875" stroke="black" stroke-width="1.5" /><text dominant-baseline="middle" fill="black" font-family="Arial" font-size="12px" font-weight="bold" text-anchor="middle" x="329.3359375" y="430.78125">Master Bedroom</text></g><g id="room_common_room"><polygon fill="rgb(255,215,0)" fill-opacity="0.7" points="387.34375,361.171875 387.34375,456.09375 410.546875,456.09375 412.65625,470.859375 471.71875,470.859375 473.828125,456.09375 490.703125,456.09375 490.703125,363.28125" stroke="black" stroke-width="1.5" /><text dominant-baseline="middle" fill="black" font-family="Arial" font-size="12px" font-weight="bold" text-anchor="middle" x="440.078125" y="417.0703125">Common Room</text></g><g id="room_common_room_2"><polygon fill="rgb(255,215,0)" fill-opacity="0.7" points="421.09375,131.25 421.09375,215.625 494.921875,215.625 494.921875,131.25 480.15625,131.25 478.046875,118.59375 440.078125,118.59375 437.96875,131.25" stroke="black" stroke-width="1.5" /><text dominant-baseline="middle" fill="black" font-family="Arial" font-size="12px" font-weight="bold" text-anchor="middle" x="459.0625" y="168.1640625">Common Room 2</text></g><g id="room_bathroom"><polygon fill="rgb(173,216,230)" fill-opacity="0.7" points="345.15625,274.6875 281.875,276.796875 281.875,352.734375 345.15625,352.734375" stroke="black" stroke-width="1.5" /><text dominant-baseline="middle" fill="black" font-family="Arial" font-size="12px" font-weight="bold" text-anchor="middle" x="314.5703125" y="314.765625">Bathroom</text></g><g id="room_kitchen"><polygon fill="rgb(240,128,128)" fill-opacity="0.7" points="321.953125,101.71875 321.953125,139.6875 408.4375,139.6875 408.4375,101.71875" stroke="black" stroke-width="1.5" /><text dominant-baseline="middle" fill="black" font-family="Arial" font-size="12px" font-weight="bold" text-anchor="middle" x="366.25" y="121.7578125">Kitchen</text></g><rect fill="red" fill-opacity="0.9" height="27.421875" id="main_door" stroke="darkred" stroke-width="3" width="10.546875" x="311.40625" y="234.609375" /><text dominant-baseline="middle" fill="white" font-family="Arial" font-size="9px" font-weight="bold" text-anchor="middle" x="316.6796875" y="248.3203125">Main Door</text><text fill="black" font-family="Arial" font-size="18px" font-weight="bold" text-anchor="middle" x="400.0" y="30">Floor Plan - ID: 49316</text></svg>