<?xml version="1.0" encoding="utf-8" ?>
<svg baseProfile="full" height="600px" version="1.1" viewBox="0 0 800 600" width="800px" xmlns="http://www.w3.org/2000/svg" xmlns:ev="http://www.w3.org/2001/xml-events" xmlns:xlink="http://www.w3.org/1999/xlink"><defs /><rect fill="white" height="600" width="800" x="0" y="0" /><polygon fill="none" id="floor_plan_boundary" points="252.34375,131.25 252.34375,430.78125 427.421875,430.78125 429.53125,468.75 547.65625,468.75 547.65625,302.109375 516.015625,302.109375 513.90625,295.78125 505.46875,295.78125 505.46875,310.546875 539.21875,312.65625 537.109375,460.3125 440.078125,460.3125 437.96875,422.34375 260.78125,420.234375 260.78125,141.796875 503.359375,139.6875 505.46875,257.8125 513.90625,257.8125 513.90625,131.25" stroke="black" stroke-linecap="butt" stroke-linejoin="miter" stroke-width="4" /><g id="room_living_room"><polygon fill="rgb(238,232,170)" fill-opacity="0.7" points="319.84375,257.8125 319.84375,283.125 440.078125,285.234375 440.078125,420.234375 537.109375,420.234375 537.109375,312.65625 503.359375,310.546875 503.359375,202.96875 412.65625,202.96875 410.546875,219.84375 357.8125,219.84375 355.703125,257.8125" stroke="black" stroke-width="1.5" /><text dominant-baseline="middle" fill="black" font-family="Arial" font-size="12px" font-weight="bold" text-anchor="middle" x="429.53125" y="312.65625">Living Room</text></g><g id="room_common_room"><polygon fill="rgb(255,215,0)" fill-opacity="0.7" points="357.8125,295.78125 357.8125,420.234375 427.421875,420.234375 427.421875,295.78125" stroke="black" stroke-width="1.5" /><text dominant-baseline="middle" fill="black" font-family="Arial" font-size="12px" font-weight="bold" text-anchor="middle" x="393.671875" y="359.0625">Common Room</text></g><g id="room_master_bedroom"><polygon fill="rgb(255,165,0)" fill-opacity="0.7" points="345.15625,295.78125 319.84375,295.78125 317.734375,325.3125 262.890625,325.3125 262.890625,420.234375 345.15625,420.234375" stroke="black" stroke-width="1.5" /><text dominant-baseline="middle" fill="black" font-family="Arial" font-size="12px" font-weight="bold" text-anchor="middle" x="305.078125" y="359.0625">Master Bedroom</text></g><g id="room_common_room_2"><polygon fill="rgb(255,215,0)" fill-opacity="0.7" points="262.890625,141.796875 262.890625,245.15625 345.15625,245.15625 345.15625,141.796875" stroke="black" stroke-width="1.5" /><text dominant-baseline="middle" fill="black" font-family="Arial" font-size="12px" font-weight="bold" text-anchor="middle" x="305.078125" y="194.53125">Common Room 2</text></g><g id="room_kitchen"><polygon fill="rgb(240,128,128)" fill-opacity="0.7" points="412.65625,141.796875 412.65625,190.3125 503.359375,190.3125 503.359375,141.796875" stroke="black" stroke-width="1.5" /><text dominant-baseline="middle" fill="black" font-family="Arial" font-size="12px" font-weight="bold" text-anchor="middle" x="459.0625" y="167.109375">Kitchen</text></g><g id="room_bathroom_2"><polygon fill="rgb(173,216,230)" fill-opacity="0.7" points="357.8125,141.796875 357.8125,211.40625 400.0,211.40625 400.0,141.796875" stroke="black" stroke-width="1.5" /><text dominant-baseline="middle" fill="black" font-family="Arial" font-size="12px" font-weight="bold" text-anchor="middle" x="379.9609375" y="177.65625">Bathroom 2</text></g><g id="room_balcony"><polygon fill="rgb(107,142,35)" fill-opacity="0.7" points="440.078125,432.890625 440.078125,458.203125 537.109375,458.203125 537.109375,432.890625" stroke="black" stroke-width="1.5" /><text dominant-baseline="middle" fill="black" font-family="Arial" font-size="12px" font-weight="bold" text-anchor="middle" x="489.6484375" y="446.6015625">Balcony</text></g><g id="room_bathroom"><polygon fill="rgb(173,216,230)" fill-opacity="0.7" points="262.890625,257.8125 262.890625,312.65625 307.1875,312.65625 307.1875,257.8125" stroke="black" stroke-width="1.5" /><text dominant-baseline="middle" fill="black" font-family="Arial" font-size="12px" font-weight="bold" text-anchor="middle" x="286.09375" y="286.2890625">Bathroom</text></g><rect fill="red" fill-opacity="0.9" height="35.859375" id="main_door" stroke="darkred" stroke-width="3" width="10.546875" x="505.46875" y="259.921875" /><text dominant-baseline="middle" fill="white" font-family="Arial" font-size="9px" font-weight="bold" text-anchor="middle" x="510.7421875" y="277.8515625">Main Door</text><text fill="black" font-family="Arial" font-size="18px" font-weight="bold" text-anchor="middle" x="400.0" y="30">Floor Plan - ID: 49327</text></svg>