<?xml version="1.0" encoding="utf-8" ?>
<svg baseProfile="full" height="600px" version="1.1" viewBox="0 0 800 600" width="800px" xmlns="http://www.w3.org/2000/svg" xmlns:ev="http://www.w3.org/2001/xml-events" xmlns:xlink="http://www.w3.org/1999/xlink"><defs /><rect fill="white" height="600" width="800" x="0" y="0" /><polygon fill="none" id="floor_plan_boundary" points="315.625,95.390625 317.734375,257.8125 324.0625,257.8125 326.171875,103.828125 395.78125,103.828125 397.890625,143.90625 486.484375,146.015625 486.484375,257.8125 513.90625,259.921875 513.90625,464.53125 442.1875,466.640625 442.1875,447.65625 397.890625,447.65625 395.78125,502.5 288.203125,502.5 288.203125,249.375 277.65625,249.375 277.65625,506.71875 406.328125,506.71875 408.4375,456.09375 433.75,456.09375 435.859375,470.859375 522.34375,470.859375 522.34375,249.375 494.921875,247.265625 494.921875,135.46875 408.4375,135.46875 406.328125,95.390625" stroke="black" stroke-linecap="butt" stroke-linejoin="miter" stroke-width="4" /><g id="room_living_room"><polygon fill="rgb(238,232,170)" fill-opacity="0.7" points="326.171875,186.09375 326.171875,257.8125 288.203125,259.921875 288.203125,445.546875 395.78125,445.546875 395.78125,321.09375 433.75,318.984375 433.75,285.234375 395.78125,283.125 395.78125,186.09375" stroke="black" stroke-width="1.5" /><text dominant-baseline="middle" fill="black" font-family="Arial" font-size="12px" font-weight="bold" text-anchor="middle" x="362.03125" y="316.875">Living Room</text></g><g id="room_master_bedroom"><polygon fill="rgb(255,165,0)" fill-opacity="0.7" points="408.4375,331.640625 408.4375,445.546875 511.796875,445.546875 511.796875,331.640625" stroke="black" stroke-width="1.5" /><text dominant-baseline="middle" fill="black" font-family="Arial" font-size="12px" font-weight="bold" text-anchor="middle" x="461.171875" y="389.6484375">Master Bedroom</text></g><g id="room_common_room"><polygon fill="rgb(255,215,0)" fill-opacity="0.7" points="484.375,146.015625 408.4375,146.015625 408.4375,276.796875 433.75,276.796875 437.96875,247.265625 484.375,247.265625" stroke="black" stroke-width="1.5" /><text dominant-baseline="middle" fill="black" font-family="Arial" font-size="12px" font-weight="bold" text-anchor="middle" x="447.4609375" y="212.4609375">Common Room</text></g><g id="room_kitchen"><polygon fill="rgb(240,128,128)" fill-opacity="0.7" points="326.171875,105.9375 326.171875,177.65625 395.78125,177.65625 395.78125,105.9375" stroke="black" stroke-width="1.5" /><text dominant-baseline="middle" fill="black" font-family="Arial" font-size="12px" font-weight="bold" text-anchor="middle" x="362.03125" y="142.8515625">Kitchen</text></g><g id="room_balcony"><polygon fill="rgb(107,142,35)" fill-opacity="0.7" points="288.203125,458.203125 288.203125,500.390625 395.78125,500.390625 395.78125,458.203125" stroke="black" stroke-width="1.5" /><text dominant-baseline="middle" fill="black" font-family="Arial" font-size="12px" font-weight="bold" text-anchor="middle" x="343.046875" y="480.3515625">Balcony</text></g><g id="room_bathroom"><polygon fill="rgb(173,216,230)" fill-opacity="0.7" points="442.1875,257.8125 442.1875,318.984375 511.796875,318.984375 511.796875,259.921875" stroke="black" stroke-width="1.5" /><text dominant-baseline="middle" fill="black" font-family="Arial" font-size="12px" font-weight="bold" text-anchor="middle" x="478.046875" y="289.453125">Bathroom</text></g><rect fill="red" fill-opacity="0.9" height="10.546875" id="main_door" stroke="darkred" stroke-width="3" width="27.421875" x="290.3125" y="249.375" /><text dominant-baseline="middle" fill="white" font-family="Arial" font-size="9px" font-weight="bold" text-anchor="middle" x="304.0234375" y="254.6484375">Main Door</text><text fill="black" font-family="Arial" font-size="18px" font-weight="bold" text-anchor="middle" x="400.0" y="30">Floor Plan - ID: 49467</text></svg>