<?xml version="1.0" encoding="utf-8" ?>
<svg baseProfile="full" height="600px" version="1.1" viewBox="0 0 800 600" width="800px" xmlns="http://www.w3.org/2000/svg" xmlns:ev="http://www.w3.org/2001/xml-events" xmlns:xlink="http://www.w3.org/1999/xlink"><defs /><rect fill="white" height="600" width="800" x="0" y="0" /><polygon fill="none" id="floor_plan_boundary" points="248.125,122.8125 248.125,221.953125 279.765625,224.0625 279.765625,285.234375 288.203125,287.34375 288.203125,308.4375 296.640625,308.4375 296.640625,276.796875 288.203125,274.6875 288.203125,213.515625 256.5625,211.40625 258.671875,131.25 296.640625,131.25 298.75,158.671875 516.015625,158.671875 518.125,262.03125 543.4375,264.140625 543.4375,331.640625 520.234375,333.75 518.125,451.875 391.5625,451.875 389.453125,468.75 298.75,468.75 296.640625,337.96875 288.203125,337.96875 288.203125,477.1875 400.0,477.1875 402.109375,460.3125 528.671875,460.3125 528.671875,344.296875 551.875,342.1875 551.875,253.59375 526.5625,251.484375 526.5625,150.234375 309.296875,150.234375 307.1875,122.8125" stroke="black" stroke-linecap="butt" stroke-linejoin="miter" stroke-width="4" /><g id="room_living_room"><polygon fill="rgb(238,232,170)" fill-opacity="0.7" points="309.296875,188.203125 309.296875,221.953125 290.3125,224.0625 298.75,466.640625 389.453125,466.640625 391.5625,449.765625 414.765625,449.765625 414.765625,314.765625 450.625,312.65625 450.625,293.671875 368.359375,291.5625 366.25,188.203125" stroke="black" stroke-width="1.5" /><text dominant-baseline="middle" fill="black" font-family="Arial" font-size="12px" font-weight="bold" text-anchor="middle" x="371.5234375" y="328.4765625">Living Room</text></g><g id="room_master_bedroom"><polygon fill="rgb(255,165,0)" fill-opacity="0.7" points="427.421875,325.3125 427.421875,449.765625 518.125,449.765625 518.125,344.296875 452.734375,344.296875 450.625,325.3125" stroke="black" stroke-width="1.5" /><text dominant-baseline="middle" fill="black" font-family="Arial" font-size="12px" font-weight="bold" text-anchor="middle" x="473.828125" y="388.59375">Master Bedroom</text></g><g id="room_common_room_2"><polygon fill="rgb(255,215,0)" fill-opacity="0.7" points="427.421875,160.78125 427.421875,281.015625 450.625,281.015625 452.734375,251.484375 516.015625,251.484375 516.015625,160.78125" stroke="black" stroke-width="1.5" /><text dominant-baseline="middle" fill="black" font-family="Arial" font-size="12px" font-weight="bold" text-anchor="middle" x="472.7734375" y="221.953125">Common Room 2</text></g><g id="room_common_room"><polygon fill="rgb(255,215,0)" fill-opacity="0.7" points="463.28125,264.140625 463.28125,331.640625 541.328125,331.640625 541.328125,264.140625" stroke="black" stroke-width="1.5" /><text dominant-baseline="middle" fill="black" font-family="Arial" font-size="12px" font-weight="bold" text-anchor="middle" x="503.359375" y="298.9453125">Common Room</text></g><g id="room_bathroom"><polygon fill="rgb(173,216,230)" fill-opacity="0.7" points="376.796875,160.78125 374.6875,283.125 414.765625,283.125 414.765625,160.78125" stroke="black" stroke-width="1.5" /><text dominant-baseline="middle" fill="black" font-family="Arial" font-size="12px" font-weight="bold" text-anchor="middle" x="395.78125" y="223.0078125">Bathroom</text></g><g id="room_kitchen"><polygon fill="rgb(240,128,128)" fill-opacity="0.7" points="258.671875,133.359375 258.671875,211.40625 296.640625,211.40625 296.640625,133.359375" stroke="black" stroke-width="1.5" /><text dominant-baseline="middle" fill="black" font-family="Arial" font-size="12px" font-weight="bold" text-anchor="middle" x="278.7109375" y="173.4375">Kitchen</text></g><rect fill="red" fill-opacity="0.9" height="27.421875" id="main_door" stroke="darkred" stroke-width="3" width="10.546875" x="288.203125" y="310.546875" /><text dominant-baseline="middle" fill="white" font-family="Arial" font-size="9px" font-weight="bold" text-anchor="middle" x="293.4765625" y="324.2578125">Main Door</text><text fill="black" font-family="Arial" font-size="18px" font-weight="bold" text-anchor="middle" x="400.0" y="30">Floor Plan - ID: 49602</text></svg>