<?xml version="1.0" encoding="utf-8" ?>
<svg baseProfile="full" height="600px" version="1.1" viewBox="0 0 800 600" width="800px" xmlns="http://www.w3.org/2000/svg" xmlns:ev="http://www.w3.org/2001/xml-events" xmlns:xlink="http://www.w3.org/1999/xlink"><defs /><rect fill="white" height="600" width="800" x="0" y="0" /><polygon fill="none" id="floor_plan_boundary" points="218.59375,152.34375 218.59375,243.046875 260.78125,243.046875 260.78125,234.609375 227.03125,232.5 229.140625,160.78125 381.015625,160.78125 383.125,137.578125 465.390625,137.578125 467.5,160.78125 570.859375,160.78125 572.96875,418.125 467.5,420.234375 467.5,466.640625 368.359375,464.53125 370.46875,420.234375 349.375,418.125 349.375,281.015625 262.890625,281.015625 252.34375,289.453125 340.9375,291.5625 340.9375,428.671875 364.140625,430.78125 364.140625,470.859375 473.828125,470.859375 475.9375,428.671875 581.40625,428.671875 581.40625,152.34375 478.046875,152.34375 475.9375,129.140625 372.578125,129.140625 370.46875,152.34375" stroke="black" stroke-linecap="butt" stroke-linejoin="miter" stroke-width="4" /><g id="room_living_room"><polygon fill="rgb(238,232,170)" fill-opacity="0.7" points="383.125,139.6875 383.125,243.046875 262.890625,245.15625 262.890625,278.90625 351.484375,281.015625 351.484375,418.125 465.390625,418.125 467.5,302.109375 507.578125,300.0 507.578125,257.8125 465.390625,257.8125 465.390625,139.6875" stroke="black" stroke-width="1.5" /><text dominant-baseline="middle" fill="black" font-family="Arial" font-size="12px" font-weight="bold" text-anchor="middle" x="386.2890625" y="279.9609375">Living Room</text></g><g id="room_master_bedroom"><polygon fill="rgb(255,165,0)" fill-opacity="0.7" points="475.9375,308.4375 478.046875,418.125 570.859375,418.125 570.859375,308.4375" stroke="black" stroke-width="1.5" /><text dominant-baseline="middle" fill="black" font-family="Arial" font-size="12px" font-weight="bold" text-anchor="middle" x="524.453125" y="364.3359375">Master Bedroom</text></g><g id="room_common_room"><polygon fill="rgb(255,215,0)" fill-opacity="0.7" points="478.046875,162.890625 478.046875,247.265625 570.859375,249.375 570.859375,162.890625" stroke="black" stroke-width="1.5" /><text dominant-baseline="middle" fill="black" font-family="Arial" font-size="12px" font-weight="bold" text-anchor="middle" x="525.5078125" y="207.1875">Common Room</text></g><g id="room_common_room_2"><polygon fill="rgb(255,215,0)" fill-opacity="0.7" points="229.140625,162.890625 229.140625,232.5 319.84375,232.5 319.84375,162.890625" stroke="black" stroke-width="1.5" /><text dominant-baseline="middle" fill="black" font-family="Arial" font-size="12px" font-weight="bold" text-anchor="middle" x="275.546875" y="198.75">Common Room 2</text></g><g id="room_balcony"><polygon fill="rgb(107,142,35)" fill-opacity="0.7" points="370.46875,430.78125 370.46875,464.53125 467.5,464.53125 467.5,430.78125" stroke="black" stroke-width="1.5" /><text dominant-baseline="middle" fill="black" font-family="Arial" font-size="12px" font-weight="bold" text-anchor="middle" x="420.0390625" y="448.7109375">Balcony</text></g><g id="room_bathroom_2"><polygon fill="rgb(173,216,230)" fill-opacity="0.7" points="328.28125,162.890625 328.28125,232.5 370.46875,232.5 370.46875,162.890625" stroke="black" stroke-width="1.5" /><text dominant-baseline="middle" fill="black" font-family="Arial" font-size="12px" font-weight="bold" text-anchor="middle" x="350.4296875" y="199.8046875">Bathroom 2</text></g><g id="room_bathroom"><polygon fill="rgb(173,216,230)" fill-opacity="0.7" points="516.015625,257.8125 516.015625,300.0 570.859375,300.0 570.859375,257.8125" stroke="black" stroke-width="1.5" /><text dominant-baseline="middle" fill="black" font-family="Arial" font-size="12px" font-weight="bold" text-anchor="middle" x="544.4921875" y="279.9609375">Bathroom</text></g><rect fill="red" fill-opacity="0.9" height="40.078125" id="main_door" stroke="darkred" stroke-width="3" width="10.546875" x="252.34375" y="245.15625" /><text dominant-baseline="middle" fill="white" font-family="Arial" font-size="9px" font-weight="bold" text-anchor="middle" x="257.6171875" y="265.1953125">Main Door</text><text fill="black" font-family="Arial" font-size="18px" font-weight="bold" text-anchor="middle" x="400.0" y="30">Floor Plan - ID: 49995</text></svg>