<?xml version="1.0" encoding="utf-8" ?>
<svg baseProfile="full" height="600px" version="1.1" viewBox="0 0 800 600" width="800px" xmlns="http://www.w3.org/2000/svg" xmlns:ev="http://www.w3.org/2001/xml-events" xmlns:xlink="http://www.w3.org/1999/xlink"><defs /><rect fill="white" height="600" width="800" x="0" y="0" /><polygon fill="none" id="floor_plan_boundary" points="265.0,129.140625 265.0,443.4375 383.125,443.4375 385.234375,504.609375 501.25,504.609375 501.25,354.84375 535.0,352.734375 535.0,259.921875 501.25,257.8125 501.25,181.875 467.5,179.765625 467.5,95.390625 385.234375,95.390625 385.234375,137.578125 393.671875,137.578125 395.78125,103.828125 456.953125,103.828125 459.0625,190.3125 492.8125,192.421875 492.8125,268.359375 526.5625,270.46875 526.5625,342.1875 492.8125,344.296875 490.703125,496.171875 395.78125,496.171875 393.671875,435.0 273.4375,432.890625 273.4375,139.6875 351.484375,137.578125 351.484375,129.140625" stroke="black" stroke-linecap="butt" stroke-linejoin="miter" stroke-width="4" /><g id="room_living_room"><polygon fill="rgb(238,232,170)" fill-opacity="0.7" points="383.125,139.6875 347.265625,139.6875 345.15625,221.953125 275.546875,221.953125 275.546875,432.890625 383.125,432.890625 383.125,306.328125 418.984375,304.21875 418.984375,270.46875 383.125,268.359375" stroke="black" stroke-width="1.5" /><text dominant-baseline="middle" fill="black" font-family="Arial" font-size="12px" font-weight="bold" text-anchor="middle" x="348.3203125" y="287.34375">Living Room</text></g><g id="room_master_bedroom"><polygon fill="rgb(255,165,0)" fill-opacity="0.7" points="395.78125,316.875 395.78125,449.765625 490.703125,449.765625 490.703125,354.84375 421.09375,354.84375 418.984375,316.875" stroke="black" stroke-width="1.5" /><text dominant-baseline="middle" fill="black" font-family="Arial" font-size="12px" font-weight="bold" text-anchor="middle" x="444.296875" y="384.375">Master Bedroom</text></g><g id="room_common_room"><polygon fill="rgb(255,215,0)" fill-opacity="0.7" points="427.421875,270.46875 427.421875,342.1875 524.453125,342.1875 524.453125,270.46875" stroke="black" stroke-width="1.5" /><text dominant-baseline="middle" fill="black" font-family="Arial" font-size="12px" font-weight="bold" text-anchor="middle" x="476.9921875" y="307.3828125">Common Room</text></g><g id="room_common_room_2"><polygon fill="rgb(255,215,0)" fill-opacity="0.7" points="395.78125,192.421875 395.78125,257.8125 490.703125,257.8125 490.703125,192.421875" stroke="black" stroke-width="1.5" /><text dominant-baseline="middle" fill="black" font-family="Arial" font-size="12px" font-weight="bold" text-anchor="middle" x="444.296875" y="226.171875">Common Room 2</text></g><g id="room_kitchen"><polygon fill="rgb(240,128,128)" fill-opacity="0.7" points="395.78125,105.9375 395.78125,179.765625 456.953125,179.765625 456.953125,105.9375" stroke="black" stroke-width="1.5" /><text dominant-baseline="middle" fill="black" font-family="Arial" font-size="12px" font-weight="bold" text-anchor="middle" x="427.421875" y="143.90625">Kitchen</text></g><g id="room_bathroom"><polygon fill="rgb(173,216,230)" fill-opacity="0.7" points="275.546875,139.6875 275.546875,209.296875 334.609375,209.296875 334.609375,139.6875" stroke="black" stroke-width="1.5" /><text dominant-baseline="middle" fill="black" font-family="Arial" font-size="12px" font-weight="bold" text-anchor="middle" x="306.1328125" y="175.546875">Bathroom</text></g><g id="room_balcony"><polygon fill="rgb(107,142,35)" fill-opacity="0.7" points="395.78125,462.421875 395.78125,494.0625 490.703125,494.0625 490.703125,462.421875" stroke="black" stroke-width="1.5" /><text dominant-baseline="middle" fill="black" font-family="Arial" font-size="12px" font-weight="bold" text-anchor="middle" x="444.296875" y="479.296875">Balcony</text></g><rect fill="red" fill-opacity="0.9" height="10.546875" id="main_door" stroke="darkred" stroke-width="3" width="31.640625" x="353.59375" y="129.140625" /><text dominant-baseline="middle" fill="white" font-family="Arial" font-size="9px" font-weight="bold" text-anchor="middle" x="369.4140625" y="134.4140625">Main Door</text><text fill="black" font-family="Arial" font-size="18px" font-weight="bold" text-anchor="middle" x="400.0" y="30">Floor Plan - ID: 50095</text></svg>