<?xml version="1.0" encoding="utf-8" ?>
<svg baseProfile="full" height="600px" version="1.1" viewBox="0 0 800 600" width="800px" xmlns="http://www.w3.org/2000/svg" xmlns:ev="http://www.w3.org/2001/xml-events" xmlns:xlink="http://www.w3.org/1999/xlink"><defs /><rect fill="white" height="600" width="800" x="0" y="0" /><polygon fill="none" id="floor_plan_boundary" points="345.15625,133.359375 345.15625,192.421875 269.21875,194.53125 269.21875,272.578125 252.34375,274.6875 252.34375,321.09375 313.515625,323.203125 313.515625,426.5625 389.453125,426.5625 391.5625,409.6875 421.09375,409.6875 423.203125,466.640625 547.65625,466.640625 547.65625,194.53125 537.109375,194.53125 537.109375,458.203125 433.75,458.203125 431.640625,401.25 383.125,401.25 383.125,422.34375 324.0625,422.34375 321.953125,316.875 256.5625,314.765625 256.5625,281.015625 277.65625,278.90625 277.65625,205.078125 351.484375,202.96875 351.484375,141.796875 494.921875,141.796875 497.03125,202.96875 505.46875,192.421875 505.46875,133.359375" stroke="black" stroke-linecap="butt" stroke-linejoin="miter" stroke-width="4" /><g id="room_living_room"><polygon fill="rgb(238,232,170)" fill-opacity="0.7" points="433.75,205.078125 433.75,264.140625 378.90625,266.25 378.90625,293.671875 433.75,295.78125 433.75,399.140625 537.109375,399.140625 537.109375,205.078125" stroke="black" stroke-width="1.5" /><text dominant-baseline="middle" fill="black" font-family="Arial" font-size="12px" font-weight="bold" text-anchor="middle" x="459.0625" y="303.1640625">Living Room</text></g><g id="room_master_bedroom"><polygon fill="rgb(255,165,0)" fill-opacity="0.7" points="324.0625,306.328125 324.0625,420.234375 383.125,420.234375 383.125,399.140625 421.09375,399.140625 421.09375,306.328125" stroke="black" stroke-width="1.5" /><text dominant-baseline="middle" fill="black" font-family="Arial" font-size="12px" font-weight="bold" text-anchor="middle" x="373.6328125" y="364.3359375">Master Bedroom</text></g><g id="room_common_room"><polygon fill="rgb(255,215,0)" fill-opacity="0.7" points="279.765625,205.078125 279.765625,278.90625 258.671875,281.015625 258.671875,314.765625 311.40625,314.765625 313.515625,293.671875 366.25,293.671875 366.25,205.078125" stroke="black" stroke-width="1.5" /><text dominant-baseline="middle" fill="black" font-family="Arial" font-size="12px" font-weight="bold" text-anchor="middle" x="313.515625" y="260.9765625">Common Room</text></g><g id="room_balcony"><polygon fill="rgb(107,142,35)" fill-opacity="0.7" points="433.75,411.796875 433.75,456.09375 537.109375,456.09375 537.109375,411.796875" stroke="black" stroke-width="1.5" /><text dominant-baseline="middle" fill="black" font-family="Arial" font-size="12px" font-weight="bold" text-anchor="middle" x="486.484375" y="435.0">Balcony</text></g><g id="room_kitchen"><polygon fill="rgb(240,128,128)" fill-opacity="0.7" points="402.109375,143.90625 402.109375,192.421875 494.921875,192.421875 494.921875,143.90625" stroke="black" stroke-width="1.5" /><text dominant-baseline="middle" fill="black" font-family="Arial" font-size="12px" font-weight="bold" text-anchor="middle" x="449.5703125" y="169.21875">Kitchen</text></g><g id="room_bathroom"><polygon fill="rgb(173,216,230)" fill-opacity="0.7" points="378.90625,205.078125 378.90625,257.8125 421.09375,257.8125 421.09375,205.078125" stroke="black" stroke-width="1.5" /><text dominant-baseline="middle" fill="black" font-family="Arial" font-size="12px" font-weight="bold" text-anchor="middle" x="401.0546875" y="232.5">Bathroom</text></g><g id="room_balcony_2"><polygon fill="rgb(107,142,35)" fill-opacity="0.7" points="351.484375,143.90625 351.484375,192.421875 389.453125,192.421875 389.453125,143.90625" stroke="black" stroke-width="1.5" /><text dominant-baseline="middle" fill="black" font-family="Arial" font-size="12px" font-weight="bold" text-anchor="middle" x="371.5234375" y="169.21875">Balcony 2</text></g><rect fill="red" fill-opacity="0.9" height="10.546875" id="main_door" stroke="darkred" stroke-width="3" width="35.859375" x="501.25" y="194.53125" /><text dominant-baseline="middle" fill="white" font-family="Arial" font-size="9px" font-weight="bold" text-anchor="middle" x="519.1796875" y="199.8046875">Main Door</text><text fill="black" font-family="Arial" font-size="18px" font-weight="bold" text-anchor="middle" x="400.0" y="30">Floor Plan - ID: 50181</text></svg>