<?xml version="1.0" encoding="utf-8" ?>
<svg baseProfile="full" height="600px" version="1.1" viewBox="0 0 800 600" width="800px" xmlns="http://www.w3.org/2000/svg" xmlns:ev="http://www.w3.org/2001/xml-events" xmlns:xlink="http://www.w3.org/1999/xlink"><defs /><rect fill="white" height="600" width="800" x="0" y="0" /><polygon fill="none" id="floor_plan_boundary" points="503.359375,101.71875 315.625,101.71875 315.625,247.265625 324.0625,247.265625 326.171875,110.15625 497.03125,112.265625 494.921875,219.84375 526.5625,221.953125 526.5625,323.203125 488.59375,325.3125 488.59375,449.765625 376.796875,451.875 374.6875,494.0625 275.546875,494.0625 273.4375,289.453125 324.0625,287.34375 324.0625,276.796875 265.0,278.90625 265.0,498.28125 381.015625,498.28125 383.125,460.3125 497.03125,460.3125 497.03125,335.859375 535.0,333.75 535.0,211.40625 505.46875,209.296875" stroke="black" stroke-linecap="butt" stroke-linejoin="miter" stroke-width="4" /><g id="room_living_room"><polygon fill="rgb(238,232,170)" fill-opacity="0.7" points="326.171875,177.65625 326.171875,276.796875 355.703125,278.90625 355.703125,352.734375 383.125,352.734375 385.234375,323.203125 524.453125,323.203125 524.453125,221.953125 404.21875,221.953125 402.109375,177.65625" stroke="black" stroke-width="1.5" /><text dominant-baseline="middle" fill="black" font-family="Arial" font-size="12px" font-weight="bold" text-anchor="middle" x="426.3671875" y="266.25">Living Room</text></g><g id="room_master_bedroom"><polygon fill="rgb(255,165,0)" fill-opacity="0.7" points="395.78125,335.859375 395.78125,449.765625 486.484375,449.765625 486.484375,335.859375" stroke="black" stroke-width="1.5" /><text dominant-baseline="middle" fill="black" font-family="Arial" font-size="12px" font-weight="bold" text-anchor="middle" x="442.1875" y="393.8671875">Master Bedroom</text></g><g id="room_common_room"><polygon fill="rgb(255,215,0)" fill-opacity="0.7" points="275.546875,365.390625 275.546875,449.765625 383.125,449.765625 383.125,365.390625" stroke="black" stroke-width="1.5" /><text dominant-baseline="middle" fill="black" font-family="Arial" font-size="12px" font-weight="bold" text-anchor="middle" x="330.390625" y="408.6328125">Common Room</text></g><g id="room_common_room_2"><polygon fill="rgb(255,215,0)" fill-opacity="0.7" points="414.765625,112.265625 414.765625,209.296875 494.921875,209.296875 494.921875,112.265625" stroke="black" stroke-width="1.5" /><text dominant-baseline="middle" fill="black" font-family="Arial" font-size="12px" font-weight="bold" text-anchor="middle" x="455.8984375" y="161.8359375">Common Room 2</text></g><g id="room_kitchen"><polygon fill="rgb(240,128,128)" fill-opacity="0.7" points="326.171875,112.265625 326.171875,169.21875 402.109375,169.21875 402.109375,112.265625" stroke="black" stroke-width="1.5" /><text dominant-baseline="middle" fill="black" font-family="Arial" font-size="12px" font-weight="bold" text-anchor="middle" x="365.1953125" y="141.796875">Kitchen</text></g><g id="room_bathroom"><polygon fill="rgb(173,216,230)" fill-opacity="0.7" points="275.546875,289.453125 275.546875,352.734375 343.046875,352.734375 343.046875,289.453125" stroke="black" stroke-width="1.5" /><text dominant-baseline="middle" fill="black" font-family="Arial" font-size="12px" font-weight="bold" text-anchor="middle" x="310.3515625" y="322.1484375">Bathroom</text></g><g id="room_balcony"><polygon fill="rgb(107,142,35)" fill-opacity="0.7" points="275.546875,462.421875 275.546875,491.953125 374.6875,491.953125 374.6875,462.421875" stroke="black" stroke-width="1.5" /><text dominant-baseline="middle" fill="black" font-family="Arial" font-size="12px" font-weight="bold" text-anchor="middle" x="326.171875" y="478.2421875">Balcony</text></g><rect fill="red" fill-opacity="0.9" height="27.421875" id="main_door" stroke="darkred" stroke-width="3" width="10.546875" x="315.625" y="249.375" /><text dominant-baseline="middle" fill="white" font-family="Arial" font-size="9px" font-weight="bold" text-anchor="middle" x="320.8984375" y="263.0859375">Main Door</text><text fill="black" font-family="Arial" font-size="18px" font-weight="bold" text-anchor="middle" x="400.0" y="30">Floor Plan - ID: 50260</text></svg>