<?xml version="1.0" encoding="utf-8" ?>
<svg baseProfile="full" height="600px" version="1.1" viewBox="0 0 800 600" width="800px" xmlns="http://www.w3.org/2000/svg" xmlns:ev="http://www.w3.org/2001/xml-events" xmlns:xlink="http://www.w3.org/1999/xlink"><defs /><rect fill="white" height="600" width="800" x="0" y="0" /><polygon fill="none" id="floor_plan_boundary" points="243.90625,141.796875 243.90625,399.140625 431.640625,399.140625 433.75,458.203125 556.09375,458.203125 556.09375,160.78125 480.15625,160.78125 480.15625,169.21875 547.65625,171.328125 547.65625,447.65625 444.296875,449.765625 442.1875,390.703125 252.34375,388.59375 252.34375,152.34375 435.859375,150.234375 437.96875,169.21875 450.625,169.21875 446.40625,141.796875" stroke="black" stroke-linecap="butt" stroke-linejoin="miter" stroke-width="4" /><g id="room_living_room"><polygon fill="rgb(238,232,170)" fill-opacity="0.7" points="311.40625,243.046875 311.40625,276.796875 444.296875,278.90625 444.296875,388.59375 545.546875,388.59375 545.546875,171.328125 448.515625,171.328125 446.40625,245.15625 385.234375,245.15625 383.125,205.078125 340.9375,205.078125 340.9375,240.9375" stroke="black" stroke-width="1.5" /><text dominant-baseline="middle" fill="black" font-family="Arial" font-size="12px" font-weight="bold" text-anchor="middle" x="429.53125" y="281.015625">Living Room</text></g><g id="room_master_bedroom"><polygon fill="rgb(255,165,0)" fill-opacity="0.7" points="254.453125,264.140625 254.453125,388.59375 340.9375,388.59375 340.9375,285.234375 300.859375,285.234375 298.75,264.140625" stroke="black" stroke-width="1.5" /><text dominant-baseline="middle" fill="black" font-family="Arial" font-size="12px" font-weight="bold" text-anchor="middle" x="298.75" y="327.421875">Master Bedroom</text></g><g id="room_common_room"><polygon fill="rgb(255,215,0)" fill-opacity="0.7" points="353.59375,285.234375 353.59375,388.59375 431.640625,388.59375 431.640625,285.234375" stroke="black" stroke-width="1.5" /><text dominant-baseline="middle" fill="black" font-family="Arial" font-size="12px" font-weight="bold" text-anchor="middle" x="393.671875" y="337.96875">Common Room</text></g><g id="room_common_room_2"><polygon fill="rgb(255,215,0)" fill-opacity="0.7" points="254.453125,152.34375 254.453125,255.703125 298.75,255.703125 300.859375,234.609375 332.5,234.609375 332.5,152.34375" stroke="black" stroke-width="1.5" /><text dominant-baseline="middle" fill="black" font-family="Arial" font-size="12px" font-weight="bold" text-anchor="middle" x="294.53125" y="205.078125">Common Room 2</text></g><g id="room_balcony"><polygon fill="rgb(107,142,35)" fill-opacity="0.7" points="444.296875,401.25 444.296875,447.65625 545.546875,447.65625 545.546875,401.25" stroke="black" stroke-width="1.5" /><text dominant-baseline="middle" fill="black" font-family="Arial" font-size="12px" font-weight="bold" text-anchor="middle" x="495.9765625" y="425.5078125">Balcony</text></g><g id="room_kitchen"><polygon fill="rgb(240,128,128)" fill-opacity="0.7" points="391.5625,152.34375 391.5625,232.5 435.859375,232.5 435.859375,152.34375" stroke="black" stroke-width="1.5" /><text dominant-baseline="middle" fill="black" font-family="Arial" font-size="12px" font-weight="bold" text-anchor="middle" x="414.765625" y="193.4765625">Kitchen</text></g><g id="room_bathroom"><polygon fill="rgb(173,216,230)" fill-opacity="0.7" points="340.9375,152.34375 340.9375,196.640625 383.125,196.640625 383.125,152.34375" stroke="black" stroke-width="1.5" /><text dominant-baseline="middle" fill="black" font-family="Arial" font-size="12px" font-weight="bold" text-anchor="middle" x="363.0859375" y="175.546875">Bathroom</text></g><rect fill="red" fill-opacity="0.9" height="10.546875" id="main_door" stroke="darkred" stroke-width="3" width="27.421875" x="452.734375" y="160.78125" /><text dominant-baseline="middle" fill="white" font-family="Arial" font-size="9px" font-weight="bold" text-anchor="middle" x="466.4453125" y="166.0546875">Main Door</text><text fill="black" font-family="Arial" font-size="18px" font-weight="bold" text-anchor="middle" x="400.0" y="30">Floor Plan - ID: 50658</text></svg>