<?xml version="1.0" encoding="utf-8" ?>
<svg baseProfile="full" height="600px" version="1.1" viewBox="0 0 800 600" width="800px" xmlns="http://www.w3.org/2000/svg" xmlns:ev="http://www.w3.org/2001/xml-events" xmlns:xlink="http://www.w3.org/1999/xlink"><defs /><rect fill="white" height="600" width="800" x="0" y="0" /><polygon fill="none" id="floor_plan_boundary" points="340.9375,61.640625 340.9375,224.0625 292.421875,226.171875 292.421875,369.609375 340.9375,371.71875 340.9375,538.359375 507.578125,538.359375 507.578125,333.75 484.375,331.640625 484.375,268.359375 469.609375,268.359375 467.5,257.8125 459.0625,257.8125 459.0625,276.796875 475.9375,278.90625 475.9375,342.1875 499.140625,344.296875 499.140625,527.8125 349.375,527.8125 349.375,361.171875 300.859375,359.0625 300.859375,236.71875 349.375,234.609375 351.484375,70.078125 459.0625,72.1875 459.0625,228.28125 467.5,228.28125 467.5,61.640625" stroke="black" stroke-linecap="butt" stroke-linejoin="miter" stroke-width="4" /><g id="room_living_room"><polygon fill="rgb(238,232,170)" fill-opacity="0.7" points="302.96875,236.71875 302.96875,359.0625 425.3125,361.171875 427.421875,422.34375 497.03125,422.34375 497.03125,344.296875 473.828125,342.1875 473.828125,278.90625 456.953125,276.796875 456.953125,169.21875 425.3125,169.21875 421.09375,236.71875" stroke="black" stroke-width="1.5" /><text dominant-baseline="middle" fill="black" font-family="Arial" font-size="12px" font-weight="bold" text-anchor="middle" x="401.0546875" y="296.8359375">Living Room</text></g><g id="room_master_bedroom"><polygon fill="rgb(255,165,0)" fill-opacity="0.7" points="351.484375,430.78125 351.484375,527.8125 497.03125,527.8125 497.03125,430.78125" stroke="black" stroke-width="1.5" /><text dominant-baseline="middle" fill="black" font-family="Arial" font-size="12px" font-weight="bold" text-anchor="middle" x="425.3125" y="480.3515625">Master Bedroom</text></g><g id="room_common_room"><polygon fill="rgb(255,215,0)" fill-opacity="0.7" points="351.484375,72.1875 351.484375,160.78125 456.953125,160.78125 456.953125,72.1875" stroke="black" stroke-width="1.5" /><text dominant-baseline="middle" fill="black" font-family="Arial" font-size="12px" font-weight="bold" text-anchor="middle" x="405.2734375" y="117.5390625">Common Room</text></g><g id="room_kitchen"><polygon fill="rgb(240,128,128)" fill-opacity="0.7" points="351.484375,169.21875 351.484375,226.171875 416.875,226.171875 416.875,169.21875" stroke="black" stroke-width="1.5" /><text dominant-baseline="middle" fill="black" font-family="Arial" font-size="12px" font-weight="bold" text-anchor="middle" x="385.234375" y="198.75">Kitchen</text></g><g id="room_bathroom"><polygon fill="rgb(173,216,230)" fill-opacity="0.7" points="351.484375,369.609375 351.484375,422.34375 418.984375,422.34375 418.984375,369.609375" stroke="black" stroke-width="1.5" /><text dominant-baseline="middle" fill="black" font-family="Arial" font-size="12px" font-weight="bold" text-anchor="middle" x="386.2890625" y="397.03125">Bathroom</text></g><rect fill="red" fill-opacity="0.9" height="27.421875" id="main_door" stroke="darkred" stroke-width="3" width="10.546875" x="459.0625" y="230.390625" /><text dominant-baseline="middle" fill="white" font-family="Arial" font-size="9px" font-weight="bold" text-anchor="middle" x="464.3359375" y="244.1015625">Main Door</text><text fill="black" font-family="Arial" font-size="18px" font-weight="bold" text-anchor="middle" x="400.0" y="30">Floor Plan - ID: 50789</text></svg>