<?xml version="1.0" encoding="utf-8" ?>
<svg baseProfile="full" height="600px" version="1.1" viewBox="0 0 800 600" width="800px" xmlns="http://www.w3.org/2000/svg" xmlns:ev="http://www.w3.org/2001/xml-events" xmlns:xlink="http://www.w3.org/1999/xlink"><defs /><rect fill="white" height="600" width="800" x="0" y="0" /><polygon fill="none" id="floor_plan_boundary" points="286.09375,103.828125 286.09375,251.484375 239.6875,253.59375 239.6875,496.171875 532.890625,496.171875 532.890625,291.5625 560.3125,289.453125 560.3125,148.125 364.140625,148.125 362.03125,103.828125 353.59375,114.375 353.59375,156.5625 551.875,158.671875 551.875,278.90625 524.453125,281.015625 524.453125,485.625 248.125,485.625 248.125,264.140625 294.53125,262.03125 294.53125,114.375 321.953125,112.265625 321.953125,103.828125" stroke="black" stroke-linecap="butt" stroke-linejoin="miter" stroke-width="4" /><g id="room_living_room"><polygon fill="rgb(238,232,170)" fill-opacity="0.7" points="296.640625,114.375 296.640625,251.484375 364.140625,253.59375 364.140625,333.75 317.734375,335.859375 317.734375,378.046875 362.03125,378.046875 364.140625,413.90625 395.78125,413.90625 395.78125,281.015625 503.359375,278.90625 503.359375,158.671875 353.59375,158.671875 351.484375,114.375" stroke="black" stroke-width="1.5" /><text dominant-baseline="middle" fill="black" font-family="Arial" font-size="12px" font-weight="bold" text-anchor="middle" x="401.0546875" y="265.1953125">Living Room</text></g><g id="room_master_bedroom"><polygon fill="rgb(255,165,0)" fill-opacity="0.7" points="408.4375,390.703125 408.4375,485.625 522.34375,485.625 522.34375,390.703125" stroke="black" stroke-width="1.5" /><text dominant-baseline="middle" fill="black" font-family="Arial" font-size="12px" font-weight="bold" text-anchor="middle" x="466.4453125" y="439.21875">Master Bedroom</text></g><g id="room_common_room_2"><polygon fill="rgb(255,215,0)" fill-opacity="0.7" points="408.4375,291.5625 408.4375,378.046875 522.34375,378.046875 522.34375,291.5625" stroke="black" stroke-width="1.5" /><text dominant-baseline="middle" fill="black" font-family="Arial" font-size="12px" font-weight="bold" text-anchor="middle" x="466.4453125" y="335.859375">Common Room 2</text></g><g id="room_common_room"><polygon fill="rgb(255,215,0)" fill-opacity="0.7" points="250.234375,390.703125 250.234375,485.625 345.15625,485.625 343.046875,413.90625 351.484375,411.796875 351.484375,390.703125" stroke="black" stroke-width="1.5" /><text dominant-baseline="middle" fill="black" font-family="Arial" font-size="12px" font-weight="bold" text-anchor="middle" x="301.9140625" y="439.21875">Common Room</text></g><g id="room_kitchen"><polygon fill="rgb(240,128,128)" fill-opacity="0.7" points="250.234375,264.140625 250.234375,323.203125 351.484375,323.203125 351.484375,264.140625" stroke="black" stroke-width="1.5" /><text dominant-baseline="middle" fill="black" font-family="Arial" font-size="12px" font-weight="bold" text-anchor="middle" x="301.9140625" y="294.7265625">Kitchen</text></g><g id="room_balcony"><polygon fill="rgb(107,142,35)" fill-opacity="0.7" points="516.015625,158.671875 516.015625,278.90625 549.765625,278.90625 549.765625,158.671875" stroke="black" stroke-width="1.5" /><text dominant-baseline="middle" fill="black" font-family="Arial" font-size="12px" font-weight="bold" text-anchor="middle" x="533.9453125" y="219.84375">Balcony</text></g><g id="room_bathroom"><polygon fill="rgb(173,216,230)" fill-opacity="0.7" points="353.59375,424.453125 353.59375,485.625 395.78125,485.625 395.78125,422.34375" stroke="black" stroke-width="1.5" /><text dominant-baseline="middle" fill="black" font-family="Arial" font-size="12px" font-weight="bold" text-anchor="middle" x="375.7421875" y="455.0390625">Bathroom</text></g><g id="room_bathroom_2"><polygon fill="rgb(173,216,230)" fill-opacity="0.7" points="250.234375,335.859375 250.234375,378.046875 309.296875,378.046875 309.296875,335.859375" stroke="black" stroke-width="1.5" /><text dominant-baseline="middle" fill="black" font-family="Arial" font-size="12px" font-weight="bold" text-anchor="middle" x="280.8203125" y="358.0078125">Bathroom 2</text></g><rect fill="red" fill-opacity="0.9" height="10.546875" id="main_door" stroke="darkred" stroke-width="3" width="31.640625" x="324.0625" y="103.828125" /><text dominant-baseline="middle" fill="white" font-family="Arial" font-size="9px" font-weight="bold" text-anchor="middle" x="339.8828125" y="109.1015625">Main Door</text><text fill="black" font-family="Arial" font-size="18px" font-weight="bold" text-anchor="middle" x="400.0" y="30">Floor Plan - ID: 50830</text></svg>