<?xml version="1.0" encoding="utf-8" ?>
<svg baseProfile="full" height="600px" version="1.1" viewBox="0 0 800 600" width="800px" xmlns="http://www.w3.org/2000/svg" xmlns:ev="http://www.w3.org/2001/xml-events" xmlns:xlink="http://www.w3.org/1999/xlink"><defs /><rect fill="white" height="600" width="800" x="0" y="0" /><polygon fill="none" id="floor_plan_boundary" points="250.234375,129.140625 250.234375,135.46875 541.328125,139.6875 539.21875,462.421875 315.625,462.421875 313.515625,283.125 258.671875,281.015625 258.671875,177.65625 250.234375,177.65625 250.234375,291.5625 305.078125,293.671875 305.078125,470.859375 549.765625,470.859375 549.765625,129.140625" stroke="black" stroke-linecap="butt" stroke-linejoin="miter" stroke-width="4" /><g id="room_living_room"><polygon fill="rgb(238,232,170)" fill-opacity="0.7" points="260.78125,139.6875 260.78125,171.328125 315.625,173.4375 315.625,253.59375 374.6875,255.703125 374.6875,297.890625 397.890625,300.0 397.890625,352.734375 425.3125,352.734375 427.421875,253.59375 539.21875,253.59375 539.21875,139.6875" stroke="black" stroke-width="1.5" /><text dominant-baseline="middle" fill="black" font-family="Arial" font-size="12px" font-weight="bold" text-anchor="middle" x="401.0546875" y="247.265625">Living Room</text></g><g id="room_master_bedroom"><polygon fill="rgb(255,165,0)" fill-opacity="0.7" points="397.890625,365.390625 397.890625,388.59375 446.40625,390.703125 446.40625,460.3125 539.21875,460.3125 539.21875,365.390625" stroke="black" stroke-width="1.5" /><text dominant-baseline="middle" fill="black" font-family="Arial" font-size="12px" font-weight="bold" text-anchor="middle" x="469.609375" y="413.90625">Master Bedroom</text></g><g id="room_common_room_2"><polygon fill="rgb(255,215,0)" fill-opacity="0.7" points="437.96875,266.25 437.96875,352.734375 539.21875,352.734375 539.21875,266.25" stroke="black" stroke-width="1.5" /><text dominant-baseline="middle" fill="black" font-family="Arial" font-size="12px" font-weight="bold" text-anchor="middle" x="489.6484375" y="310.546875">Common Room 2</text></g><g id="room_common_room"><polygon fill="rgb(255,215,0)" fill-opacity="0.7" points="315.625,310.546875 315.625,388.59375 385.234375,388.59375 385.234375,310.546875" stroke="black" stroke-width="1.5" /><text dominant-baseline="middle" fill="black" font-family="Arial" font-size="12px" font-weight="bold" text-anchor="middle" x="351.484375" y="350.625">Common Room</text></g><g id="room_kitchen"><polygon fill="rgb(240,128,128)" fill-opacity="0.7" points="260.78125,183.984375 260.78125,281.015625 302.96875,281.015625 302.96875,183.984375" stroke="black" stroke-width="1.5" /><text dominant-baseline="middle" fill="black" font-family="Arial" font-size="12px" font-weight="bold" text-anchor="middle" x="282.9296875" y="233.5546875">Kitchen</text></g><g id="room_balcony"><polygon fill="rgb(107,142,35)" fill-opacity="0.7" points="315.625,401.25 315.625,460.3125 370.46875,460.3125 370.46875,401.25" stroke="black" stroke-width="1.5" /><text dominant-baseline="middle" fill="black" font-family="Arial" font-size="12px" font-weight="bold" text-anchor="middle" x="344.1015625" y="431.8359375">Balcony</text></g><g id="room_bathroom"><polygon fill="rgb(173,216,230)" fill-opacity="0.7" points="383.125,401.25 383.125,460.3125 433.75,460.3125 433.75,401.25" stroke="black" stroke-width="1.5" /><text dominant-baseline="middle" fill="black" font-family="Arial" font-size="12px" font-weight="bold" text-anchor="middle" x="409.4921875" y="431.8359375">Bathroom</text></g><g id="room_bathroom_2"><polygon fill="rgb(173,216,230)" fill-opacity="0.7" points="315.625,266.25 315.625,297.890625 362.03125,297.890625 362.03125,266.25" stroke="black" stroke-width="1.5" /><text dominant-baseline="middle" fill="black" font-family="Arial" font-size="12px" font-weight="bold" text-anchor="middle" x="339.8828125" y="283.125">Bathroom 2</text></g><rect fill="red" fill-opacity="0.9" height="40.078125" id="main_door" stroke="darkred" stroke-width="3" width="10.546875" x="250.234375" y="137.578125" /><text dominant-baseline="middle" fill="white" font-family="Arial" font-size="9px" font-weight="bold" text-anchor="middle" x="255.5078125" y="157.6171875">Main Door</text><text fill="black" font-family="Arial" font-size="18px" font-weight="bold" text-anchor="middle" x="400.0" y="30">Floor Plan - ID: 50939</text></svg>