<?xml version="1.0" encoding="utf-8" ?>
<svg baseProfile="full" height="600px" version="1.1" viewBox="0 0 800 600" width="800px" xmlns="http://www.w3.org/2000/svg" xmlns:ev="http://www.w3.org/2001/xml-events" xmlns:xlink="http://www.w3.org/1999/xlink"><defs /><rect fill="white" height="600" width="800" x="0" y="0" /><polygon fill="none" id="floor_plan_boundary" points="239.6875,141.796875 239.6875,274.6875 288.203125,276.796875 288.203125,401.25 328.28125,403.359375 328.28125,445.546875 340.9375,445.546875 343.046875,458.203125 452.734375,458.203125 454.84375,445.546875 469.609375,445.546875 471.71875,401.25 513.90625,401.25 513.90625,278.90625 560.3125,276.796875 560.3125,141.796875 505.46875,141.796875 503.359375,162.890625 427.421875,162.890625 425.3125,141.796875 416.875,152.34375 416.875,171.328125 513.90625,171.328125 516.015625,150.234375 551.875,152.34375 551.875,266.25 505.46875,268.359375 505.46875,390.703125 465.390625,392.8125 465.390625,439.21875 448.515625,441.328125 446.40625,453.984375 349.375,453.984375 347.265625,441.328125 334.609375,441.328125 334.609375,392.8125 296.640625,390.703125 296.640625,270.46875 248.125,268.359375 248.125,152.34375 370.46875,150.234375 370.46875,141.796875" stroke="black" stroke-linecap="butt" stroke-linejoin="miter" stroke-width="4" /><g id="room_living_room"><polygon fill="rgb(238,232,170)" fill-opacity="0.7" points="362.03125,152.34375 362.03125,268.359375 402.109375,270.46875 402.109375,390.703125 503.359375,390.703125 503.359375,278.90625 461.171875,276.796875 461.171875,173.4375 416.875,173.4375 414.765625,152.34375" stroke="black" stroke-width="1.5" /><text dominant-baseline="middle" fill="black" font-family="Arial" font-size="12px" font-weight="bold" text-anchor="middle" x="433.75" y="272.578125">Living Room</text></g><g id="room_master_bedroom"><polygon fill="rgb(255,165,0)" fill-opacity="0.7" points="298.75,276.796875 298.75,390.703125 389.453125,390.703125 389.453125,276.796875" stroke="black" stroke-width="1.5" /><text dominant-baseline="middle" fill="black" font-family="Arial" font-size="12px" font-weight="bold" text-anchor="middle" x="345.15625" y="334.8046875">Master Bedroom</text></g><g id="room_common_room"><polygon fill="rgb(255,215,0)" fill-opacity="0.7" points="549.765625,152.34375 516.015625,152.34375 513.90625,173.4375 473.828125,173.4375 473.828125,266.25 549.765625,266.25" stroke="black" stroke-width="1.5" /><text dominant-baseline="middle" fill="black" font-family="Arial" font-size="12px" font-weight="bold" text-anchor="middle" x="512.8515625" y="210.3515625">Common Room</text></g><g id="room_balcony"><polygon fill="rgb(107,142,35)" fill-opacity="0.7" points="334.609375,403.359375 334.609375,439.21875 347.265625,439.21875 349.375,451.875 446.40625,451.875 448.515625,439.21875 463.28125,439.21875 463.28125,403.359375" stroke="black" stroke-width="1.5" /><text dominant-baseline="middle" fill="black" font-family="Arial" font-size="12px" font-weight="bold" text-anchor="middle" x="400.0" y="428.671875">Balcony</text></g><g id="room_kitchen"><polygon fill="rgb(240,128,128)" fill-opacity="0.7" points="250.234375,152.34375 250.234375,202.96875 353.59375,205.078125 353.59375,152.34375" stroke="black" stroke-width="1.5" /><text dominant-baseline="middle" fill="black" font-family="Arial" font-size="12px" font-weight="bold" text-anchor="middle" x="302.96875" y="179.765625">Kitchen</text></g><g id="room_bathroom"><polygon fill="rgb(173,216,230)" fill-opacity="0.7" points="298.75,213.515625 298.75,268.359375 353.59375,268.359375 353.59375,213.515625" stroke="black" stroke-width="1.5" /><text dominant-baseline="middle" fill="black" font-family="Arial" font-size="12px" font-weight="bold" text-anchor="middle" x="327.2265625" y="241.9921875">Bathroom</text></g><g id="room_balcony_2"><polygon fill="rgb(107,142,35)" fill-opacity="0.7" points="250.234375,215.625 250.234375,268.359375 286.09375,268.359375 286.09375,215.625" stroke="black" stroke-width="1.5" /><text dominant-baseline="middle" fill="black" font-family="Arial" font-size="12px" font-weight="bold" text-anchor="middle" x="269.21875" y="243.046875">Balcony 2</text></g><rect fill="red" fill-opacity="0.9" height="10.546875" id="main_door" stroke="darkred" stroke-width="3" width="48.515625" x="372.578125" y="141.796875" /><text dominant-baseline="middle" fill="white" font-family="Arial" font-size="9px" font-weight="bold" text-anchor="middle" x="396.8359375" y="147.0703125">Main Door</text><text fill="black" font-family="Arial" font-size="18px" font-weight="bold" text-anchor="middle" x="400.0" y="30">Floor Plan - ID: 51119</text></svg>