<?xml version="1.0" encoding="utf-8" ?>
<svg baseProfile="full" height="600px" version="1.1" viewBox="0 0 800 600" width="800px" xmlns="http://www.w3.org/2000/svg" xmlns:ev="http://www.w3.org/2001/xml-events" xmlns:xlink="http://www.w3.org/1999/xlink"><defs /><rect fill="white" height="600" width="800" x="0" y="0" /><polygon fill="none" id="floor_plan_boundary" points="317.734375,105.9375 317.734375,202.96875 277.65625,205.078125 277.65625,323.203125 317.734375,325.3125 317.734375,439.21875 402.109375,439.21875 404.21875,494.0625 522.34375,494.0625 522.34375,283.125 478.046875,281.015625 478.046875,287.34375 513.90625,289.453125 511.796875,485.625 414.765625,485.625 412.65625,430.78125 328.28125,430.78125 326.171875,314.765625 286.09375,312.65625 286.09375,215.625 326.171875,213.515625 326.171875,116.484375 475.9375,114.375 478.046875,255.703125 486.484375,255.703125 486.484375,105.9375" stroke="black" stroke-linecap="butt" stroke-linejoin="miter" stroke-width="4" /><g id="room_living_room"><polygon fill="rgb(238,232,170)" fill-opacity="0.7" points="475.9375,116.484375 414.765625,116.484375 412.65625,213.515625 288.203125,215.625 288.203125,312.65625 412.65625,314.765625 414.765625,344.296875 448.515625,344.296875 448.515625,283.125 475.9375,281.015625" stroke="black" stroke-width="1.5" /><text dominant-baseline="middle" fill="black" font-family="Arial" font-size="12px" font-weight="bold" text-anchor="middle" x="383.125" y="231.4453125">Living Room</text></g><g id="room_master_bedroom"><polygon fill="rgb(255,165,0)" fill-opacity="0.7" points="414.765625,352.734375 414.765625,441.328125 511.796875,441.328125 511.796875,352.734375" stroke="black" stroke-width="1.5" /><text dominant-baseline="middle" fill="black" font-family="Arial" font-size="12px" font-weight="bold" text-anchor="middle" x="464.3359375" y="398.0859375">Master Bedroom</text></g><g id="room_common_room"><polygon fill="rgb(255,215,0)" fill-opacity="0.7" points="328.28125,323.203125 328.28125,428.671875 402.109375,428.671875 402.109375,323.203125" stroke="black" stroke-width="1.5" /><text dominant-baseline="middle" fill="black" font-family="Arial" font-size="12px" font-weight="bold" text-anchor="middle" x="366.25" y="376.9921875">Common Room</text></g><g id="room_common_room_2"><polygon fill="rgb(255,215,0)" fill-opacity="0.7" points="328.28125,116.484375 328.28125,205.078125 402.109375,205.078125 402.109375,116.484375" stroke="black" stroke-width="1.5" /><text dominant-baseline="middle" fill="black" font-family="Arial" font-size="12px" font-weight="bold" text-anchor="middle" x="366.25" y="161.8359375">Common Room 2</text></g><g id="room_balcony"><polygon fill="rgb(107,142,35)" fill-opacity="0.7" points="414.765625,449.765625 414.765625,483.515625 511.796875,483.515625 511.796875,449.765625" stroke="black" stroke-width="1.5" /><text dominant-baseline="middle" fill="black" font-family="Arial" font-size="12px" font-weight="bold" text-anchor="middle" x="464.3359375" y="467.6953125">Balcony</text></g><g id="room_bathroom"><polygon fill="rgb(173,216,230)" fill-opacity="0.7" points="461.171875,289.453125 461.171875,344.296875 511.796875,344.296875 511.796875,289.453125" stroke="black" stroke-width="1.5" /><text dominant-baseline="middle" fill="black" font-family="Arial" font-size="12px" font-weight="bold" text-anchor="middle" x="487.5390625" y="317.9296875">Bathroom</text></g><rect fill="red" fill-opacity="0.9" height="23.203125" id="main_door" stroke="darkred" stroke-width="3" width="10.546875" x="478.046875" y="257.8125" /><text dominant-baseline="middle" fill="white" font-family="Arial" font-size="9px" font-weight="bold" text-anchor="middle" x="483.3203125" y="269.4140625">Main Door</text><text fill="black" font-family="Arial" font-size="18px" font-weight="bold" text-anchor="middle" x="400.0" y="30">Floor Plan - ID: 51130</text></svg>