<?xml version="1.0" encoding="utf-8" ?>
<svg baseProfile="full" height="600px" version="1.1" viewBox="0 0 800 600" width="800px" xmlns="http://www.w3.org/2000/svg" xmlns:ev="http://www.w3.org/2001/xml-events" xmlns:xlink="http://www.w3.org/1999/xlink"><defs /><rect fill="white" height="600" width="800" x="0" y="0" /><polygon fill="none" id="floor_plan_boundary" points="224.921875,141.796875 224.921875,323.203125 254.453125,325.3125 254.453125,458.203125 368.359375,458.203125 370.46875,443.4375 513.90625,443.4375 513.90625,310.546875 575.078125,308.4375 575.078125,300.0 505.46875,304.21875 503.359375,435.0 359.921875,435.0 357.8125,449.765625 262.890625,447.65625 262.890625,314.765625 233.359375,312.65625 233.359375,152.34375 387.34375,150.234375 389.453125,167.109375 497.03125,167.109375 499.140625,150.234375 564.53125,150.234375 566.640625,266.25 575.078125,266.25 575.078125,141.796875 488.59375,141.796875 486.484375,158.671875 400.0,158.671875 397.890625,141.796875" stroke="black" stroke-linecap="butt" stroke-linejoin="miter" stroke-width="4" /><g id="room_living_room"><polygon fill="rgb(238,232,170)" fill-opacity="0.7" points="400.0,169.21875 397.890625,230.390625 336.71875,230.390625 336.71875,262.03125 370.46875,264.140625 370.46875,432.890625 503.359375,432.890625 503.359375,304.21875 564.53125,302.109375 564.53125,240.9375 488.59375,240.9375 486.484375,169.21875" stroke="black" stroke-width="1.5" /><text dominant-baseline="middle" fill="black" font-family="Arial" font-size="12px" font-weight="bold" text-anchor="middle" x="451.6796875" y="302.109375">Living Room</text></g><g id="room_master_bedroom"><polygon fill="rgb(255,165,0)" fill-opacity="0.7" points="357.8125,274.6875 336.71875,274.6875 334.609375,325.3125 265.0,325.3125 265.0,447.65625 357.8125,447.65625" stroke="black" stroke-width="1.5" /><text dominant-baseline="middle" fill="black" font-family="Arial" font-size="12px" font-weight="bold" text-anchor="middle" x="312.4609375" y="362.2265625">Master Bedroom</text></g><g id="room_common_room"><polygon fill="rgb(255,215,0)" fill-opacity="0.7" points="235.46875,152.34375 235.46875,251.484375 296.640625,251.484375 300.859375,262.03125 324.0625,262.03125 324.0625,152.34375" stroke="black" stroke-width="1.5" /><text dominant-baseline="middle" fill="black" font-family="Arial" font-size="12px" font-weight="bold" text-anchor="middle" x="280.8203125" y="208.2421875">Common Room</text></g><g id="room_kitchen"><polygon fill="rgb(240,128,128)" fill-opacity="0.7" points="499.140625,152.34375 499.140625,228.28125 564.53125,228.28125 564.53125,152.34375" stroke="black" stroke-width="1.5" /><text dominant-baseline="middle" fill="black" font-family="Arial" font-size="12px" font-weight="bold" text-anchor="middle" x="532.890625" y="191.3671875">Kitchen</text></g><g id="room_bathroom"><polygon fill="rgb(173,216,230)" fill-opacity="0.7" points="235.46875,264.140625 235.46875,312.65625 324.0625,312.65625 324.0625,274.6875 290.3125,274.6875 288.203125,264.140625" stroke="black" stroke-width="1.5" /><text dominant-baseline="middle" fill="black" font-family="Arial" font-size="12px" font-weight="bold" text-anchor="middle" x="280.8203125" y="289.453125">Bathroom</text></g><g id="room_bathroom_2"><polygon fill="rgb(173,216,230)" fill-opacity="0.7" points="336.71875,152.34375 336.71875,217.734375 387.34375,217.734375 387.34375,152.34375" stroke="black" stroke-width="1.5" /><text dominant-baseline="middle" fill="black" font-family="Arial" font-size="12px" font-weight="bold" text-anchor="middle" x="363.0859375" y="186.09375">Bathroom 2</text></g><rect fill="red" fill-opacity="0.9" height="31.640625" id="main_door" stroke="darkred" stroke-width="3" width="10.546875" x="566.640625" y="268.359375" /><text dominant-baseline="middle" fill="white" font-family="Arial" font-size="9px" font-weight="bold" text-anchor="middle" x="571.9140625" y="284.1796875">Main Door</text><text fill="black" font-family="Arial" font-size="18px" font-weight="bold" text-anchor="middle" x="400.0" y="30">Floor Plan - ID: 51394</text></svg>