<?xml version="1.0" encoding="utf-8" ?>
<svg baseProfile="full" height="600px" version="1.1" viewBox="0 0 800 600" width="800px" xmlns="http://www.w3.org/2000/svg" xmlns:ev="http://www.w3.org/2001/xml-events" xmlns:xlink="http://www.w3.org/1999/xlink"><defs /><rect fill="white" height="600" width="800" x="0" y="0" /><polygon fill="none" id="floor_plan_boundary" points="319.84375,152.34375 319.84375,232.5 265.0,234.609375 265.0,447.65625 497.03125,447.65625 497.03125,439.21875 273.4375,437.109375 273.4375,245.15625 328.28125,243.046875 330.390625,160.78125 526.5625,162.890625 526.5625,447.65625 535.0,447.65625 535.0,152.34375" stroke="black" stroke-linecap="butt" stroke-linejoin="miter" stroke-width="4" /><g id="room_living_room"><polygon fill="rgb(238,232,170)" fill-opacity="0.7" points="524.453125,401.25 452.734375,399.140625 452.734375,335.859375 427.421875,333.75 427.421875,243.046875 406.328125,243.046875 404.21875,337.96875 275.546875,337.96875 275.546875,437.109375 524.453125,437.109375" stroke="black" stroke-width="1.5" /><text dominant-baseline="middle" fill="black" font-family="Arial" font-size="12px" font-weight="bold" text-anchor="middle" x="401.0546875" y="341.1328125">Living Room</text></g><g id="room_master_bedroom"><polygon fill="rgb(255,165,0)" fill-opacity="0.7" points="393.671875,162.890625 393.671875,234.609375 433.75,234.609375 435.859375,266.25 524.453125,266.25 524.453125,162.890625" stroke="black" stroke-width="1.5" /><text dominant-baseline="middle" fill="black" font-family="Arial" font-size="12px" font-weight="bold" text-anchor="middle" x="460.1171875" y="215.625">Master Bedroom</text></g><g id="room_common_room"><polygon fill="rgb(255,215,0)" fill-opacity="0.7" points="397.890625,243.046875 275.546875,245.15625 275.546875,325.3125 397.890625,325.3125" stroke="black" stroke-width="1.5" /><text dominant-baseline="middle" fill="black" font-family="Arial" font-size="12px" font-weight="bold" text-anchor="middle" x="337.7734375" y="285.234375">Common Room</text></g><g id="room_balcony_2"><polygon fill="rgb(107,142,35)" fill-opacity="0.7" points="330.390625,162.890625 330.390625,232.5 381.015625,232.5 381.015625,162.890625" stroke="black" stroke-width="1.5" /><text dominant-baseline="middle" fill="black" font-family="Arial" font-size="12px" font-weight="bold" text-anchor="middle" x="356.7578125" y="198.75">Balcony 2</text></g><g id="room_kitchen"><polygon fill="rgb(240,128,128)" fill-opacity="0.7" points="461.171875,335.859375 461.171875,392.8125 524.453125,392.8125 524.453125,337.96875" stroke="black" stroke-width="1.5" /><text dominant-baseline="middle" fill="black" font-family="Arial" font-size="12px" font-weight="bold" text-anchor="middle" x="493.8671875" y="365.390625">Kitchen</text></g><g id="room_balcony"><polygon fill="rgb(107,142,35)" fill-opacity="0.7" points="482.265625,274.6875 482.265625,325.3125 524.453125,325.3125 524.453125,274.6875" stroke="black" stroke-width="1.5" /><text dominant-baseline="middle" fill="black" font-family="Arial" font-size="12px" font-weight="bold" text-anchor="middle" x="504.4140625" y="301.0546875">Balcony</text></g><g id="room_bathroom"><polygon fill="rgb(173,216,230)" fill-opacity="0.7" points="435.859375,274.6875 435.859375,327.421875 471.71875,327.421875 473.828125,325.3125 473.828125,274.6875" stroke="black" stroke-width="1.5" /><text dominant-baseline="middle" fill="black" font-family="Arial" font-size="12px" font-weight="bold" text-anchor="middle" x="455.8984375" y="302.109375">Bathroom</text></g><rect fill="red" fill-opacity="0.9" height="10.546875" id="main_door" stroke="darkred" stroke-width="3" width="27.421875" x="499.140625" y="439.21875" /><text dominant-baseline="middle" fill="white" font-family="Arial" font-size="9px" font-weight="bold" text-anchor="middle" x="512.8515625" y="444.4921875">Main Door</text><text fill="black" font-family="Arial" font-size="18px" font-weight="bold" text-anchor="middle" x="400.0" y="30">Floor Plan - ID: 51393</text></svg>