<?xml version="1.0" encoding="utf-8" ?>
<svg baseProfile="full" height="600px" version="1.1" viewBox="0 0 800 600" width="800px" xmlns="http://www.w3.org/2000/svg" xmlns:ev="http://www.w3.org/2001/xml-events" xmlns:xlink="http://www.w3.org/1999/xlink"><defs /><rect fill="white" height="600" width="800" x="0" y="0" /><polygon fill="none" id="floor_plan_boundary" points="243.90625,194.53125 243.90625,281.015625 252.34375,281.015625 252.34375,205.078125 300.859375,202.96875 302.96875,171.328125 560.3125,171.328125 562.421875,283.125 539.21875,285.234375 537.109375,382.265625 334.609375,382.265625 332.5,428.671875 237.578125,426.5625 237.578125,333.75 252.34375,331.640625 252.34375,310.546875 243.90625,310.546875 241.796875,323.203125 229.140625,323.203125 229.140625,437.109375 343.046875,437.109375 345.15625,390.703125 547.65625,390.703125 547.65625,291.5625 570.859375,289.453125 570.859375,162.890625 292.421875,162.890625 290.3125,194.53125" stroke="black" stroke-linecap="butt" stroke-linejoin="miter" stroke-width="4" /><g id="room_living_room"><polygon fill="rgb(238,232,170)" fill-opacity="0.7" points="254.453125,205.078125 254.453125,321.09375 290.3125,321.09375 292.421875,281.015625 372.578125,281.015625 374.6875,321.09375 397.890625,321.09375 397.890625,281.015625 505.46875,281.015625 505.46875,173.4375 302.96875,173.4375 300.859375,205.078125" stroke="black" stroke-width="1.5" /><text dominant-baseline="middle" fill="black" font-family="Arial" font-size="12px" font-weight="bold" text-anchor="middle" x="381.015625" y="248.3203125">Living Room</text></g><g id="room_master_bedroom"><polygon fill="rgb(255,165,0)" fill-opacity="0.7" points="406.328125,293.671875 406.328125,321.09375 444.296875,323.203125 444.296875,380.15625 537.109375,380.15625 537.109375,293.671875" stroke="black" stroke-width="1.5" /><text dominant-baseline="middle" fill="black" font-family="Arial" font-size="12px" font-weight="bold" text-anchor="middle" x="472.7734375" y="337.96875">Master Bedroom</text></g><g id="room_common_room"><polygon fill="rgb(255,215,0)" fill-opacity="0.7" points="302.96875,293.671875 302.96875,380.15625 362.03125,380.15625 362.03125,293.671875" stroke="black" stroke-width="1.5" /><text dominant-baseline="middle" fill="black" font-family="Arial" font-size="12px" font-weight="bold" text-anchor="middle" x="333.5546875" y="337.96875">Common Room</text></g><g id="room_kitchen"><polygon fill="rgb(240,128,128)" fill-opacity="0.7" points="239.6875,333.75 239.6875,426.5625 290.3125,426.5625 290.3125,333.75" stroke="black" stroke-width="1.5" /><text dominant-baseline="middle" fill="black" font-family="Arial" font-size="12px" font-weight="bold" text-anchor="middle" x="266.0546875" y="381.2109375">Kitchen</text></g><g id="room_balcony_2"><polygon fill="rgb(107,142,35)" fill-opacity="0.7" points="518.125,173.4375 518.125,281.015625 560.3125,283.125 560.3125,173.4375" stroke="black" stroke-width="1.5" /><text dominant-baseline="middle" fill="black" font-family="Arial" font-size="12px" font-weight="bold" text-anchor="middle" x="540.2734375" y="229.3359375">Balcony 2</text></g><g id="room_bathroom"><polygon fill="rgb(173,216,230)" fill-opacity="0.7" points="374.6875,333.75 374.6875,380.15625 431.640625,380.15625 431.640625,333.75" stroke="black" stroke-width="1.5" /><text dominant-baseline="middle" fill="black" font-family="Arial" font-size="12px" font-weight="bold" text-anchor="middle" x="404.21875" y="358.0078125">Bathroom</text></g><g id="room_balcony"><polygon fill="rgb(107,142,35)" fill-opacity="0.7" points="302.96875,392.8125 302.96875,426.5625 332.5,426.5625 332.5,392.8125" stroke="black" stroke-width="1.5" /><text dominant-baseline="middle" fill="black" font-family="Arial" font-size="12px" font-weight="bold" text-anchor="middle" x="318.7890625" y="410.7421875">Balcony</text></g><rect fill="red" fill-opacity="0.9" height="27.421875" id="main_door" stroke="darkred" stroke-width="3" width="10.546875" x="243.90625" y="283.125" /><text dominant-baseline="middle" fill="white" font-family="Arial" font-size="9px" font-weight="bold" text-anchor="middle" x="249.1796875" y="296.8359375">Main Door</text><text fill="black" font-family="Arial" font-size="18px" font-weight="bold" text-anchor="middle" x="400.0" y="30">Floor Plan - ID: 51426</text></svg>