<?xml version="1.0" encoding="utf-8" ?>
<svg baseProfile="full" height="600px" version="1.1" viewBox="0 0 800 600" width="800px" xmlns="http://www.w3.org/2000/svg" xmlns:ev="http://www.w3.org/2001/xml-events" xmlns:xlink="http://www.w3.org/1999/xlink"><defs /><rect fill="white" height="600" width="800" x="0" y="0" /><polygon fill="none" id="floor_plan_boundary" points="503.359375,99.609375 431.640625,99.609375 429.53125,120.703125 393.671875,120.703125 391.5625,158.671875 275.546875,158.671875 275.546875,466.640625 290.3125,466.640625 283.984375,456.09375 283.984375,169.21875 402.109375,167.109375 402.109375,131.25 437.96875,129.140625 437.96875,103.828125 499.140625,105.9375 497.03125,230.390625 516.015625,232.5 518.125,297.890625 497.03125,300.0 497.03125,342.1875 518.125,344.296875 516.015625,413.90625 429.53125,416.015625 429.53125,491.953125 336.71875,491.953125 334.609375,458.203125 319.84375,458.203125 326.171875,500.390625 437.96875,500.390625 437.96875,424.453125 524.453125,424.453125 522.34375,337.96875 505.46875,335.859375 505.46875,306.328125 522.34375,304.21875 524.453125,221.953125 505.46875,219.84375" stroke="black" stroke-linecap="butt" stroke-linejoin="miter" stroke-width="4" /><g id="room_living_room"><polygon fill="rgb(238,232,170)" fill-opacity="0.7" points="391.5625,169.21875 286.09375,169.21875 286.09375,456.09375 326.171875,456.09375 328.28125,416.015625 374.6875,416.015625 376.796875,348.515625 427.421875,348.515625 427.421875,291.5625 391.5625,289.453125" stroke="black" stroke-width="1.5" /><text dominant-baseline="middle" fill="black" font-family="Arial" font-size="12px" font-weight="bold" text-anchor="middle" x="357.8125" y="313.7109375">Living Room</text></g><g id="room_master_bedroom"><polygon fill="rgb(255,165,0)" fill-opacity="0.7" points="497.03125,105.9375 437.96875,105.9375 437.96875,131.25 404.21875,131.25 404.21875,278.90625 427.421875,278.90625 429.53125,219.84375 494.921875,219.84375" stroke="black" stroke-width="1.5" /><text dominant-baseline="middle" fill="black" font-family="Arial" font-size="12px" font-weight="bold" text-anchor="middle" x="451.6796875" y="193.4765625">Master Bedroom</text></g><g id="room_common_room"><polygon fill="rgb(255,215,0)" fill-opacity="0.7" points="440.078125,325.3125 440.078125,413.90625 513.90625,413.90625 516.015625,344.296875 497.03125,344.296875 494.921875,325.3125" stroke="black" stroke-width="1.5" /><text dominant-baseline="middle" fill="black" font-family="Arial" font-size="12px" font-weight="bold" text-anchor="middle" x="479.1015625" y="370.6640625">Common Room</text></g><g id="room_common_room_2"><polygon fill="rgb(255,215,0)" fill-opacity="0.7" points="440.078125,232.5 440.078125,312.65625 494.921875,312.65625 497.03125,297.890625 516.015625,297.890625 513.90625,232.5" stroke="black" stroke-width="1.5" /><text dominant-baseline="middle" fill="black" font-family="Arial" font-size="12px" font-weight="bold" text-anchor="middle" x="479.1015625" y="273.6328125">Common Room 2</text></g><g id="room_kitchen"><polygon fill="rgb(240,128,128)" fill-opacity="0.7" points="334.609375,424.453125 336.71875,489.84375 389.453125,489.84375 389.453125,426.5625" stroke="black" stroke-width="1.5" /><text dominant-baseline="middle" fill="black" font-family="Arial" font-size="12px" font-weight="bold" text-anchor="middle" x="363.0859375" y="458.203125">Kitchen</text></g><g id="room_bathroom"><polygon fill="rgb(173,216,230)" fill-opacity="0.7" points="387.34375,361.171875 387.34375,413.90625 427.421875,413.90625 427.421875,361.171875" stroke="black" stroke-width="1.5" /><text dominant-baseline="middle" fill="black" font-family="Arial" font-size="12px" font-weight="bold" text-anchor="middle" x="408.4375" y="388.59375">Bathroom</text></g><g id="room_balcony"><polygon fill="rgb(107,142,35)" fill-opacity="0.7" points="402.109375,426.5625 402.109375,489.84375 429.53125,489.84375 429.53125,426.5625" stroke="black" stroke-width="1.5" /><text dominant-baseline="middle" fill="black" font-family="Arial" font-size="12px" font-weight="bold" text-anchor="middle" x="416.875" y="459.2578125">Balcony</text></g><rect fill="red" fill-opacity="0.9" height="10.546875" id="main_door" stroke="darkred" stroke-width="3" width="27.421875" x="292.421875" y="458.203125" /><text dominant-baseline="middle" fill="white" font-family="Arial" font-size="9px" font-weight="bold" text-anchor="middle" x="306.1328125" y="463.4765625">Main Door</text><text fill="black" font-family="Arial" font-size="18px" font-weight="bold" text-anchor="middle" x="400.0" y="30">Floor Plan - ID: 51447</text></svg>