<?xml version="1.0" encoding="utf-8" ?>
<svg baseProfile="full" height="600px" version="1.1" viewBox="0 0 800 600" width="800px" xmlns="http://www.w3.org/2000/svg" xmlns:ev="http://www.w3.org/2001/xml-events" xmlns:xlink="http://www.w3.org/1999/xlink"><defs /><rect fill="white" height="600" width="800" x="0" y="0" /><polygon fill="none" id="floor_plan_boundary" points="355.703125,99.609375 353.59375,160.78125 262.890625,160.78125 262.890625,262.03125 235.46875,264.140625 235.46875,453.984375 345.15625,453.984375 347.265625,500.390625 478.046875,500.390625 480.15625,453.984375 564.53125,453.984375 564.53125,325.3125 459.0625,325.3125 456.953125,259.921875 440.078125,253.59375 440.078125,268.359375 448.515625,270.46875 448.515625,333.75 556.09375,335.859375 553.984375,445.546875 469.609375,445.546875 467.5,491.953125 357.8125,491.953125 355.703125,445.546875 243.90625,443.4375 243.90625,274.6875 271.328125,272.578125 271.328125,171.328125 364.140625,169.21875 366.25,108.046875 437.96875,108.046875 440.078125,224.0625 448.515625,224.0625 448.515625,99.609375" stroke="black" stroke-linecap="butt" stroke-linejoin="miter" stroke-width="4" /><g id="room_living_room"><polygon fill="rgb(238,232,170)" fill-opacity="0.7" points="366.25,169.21875 366.25,272.578125 315.625,274.6875 315.625,323.203125 357.8125,325.3125 357.8125,443.4375 467.5,443.4375 467.5,335.859375 446.40625,333.75 437.96875,169.21875" stroke="black" stroke-width="1.5" /><text dominant-baseline="middle" fill="black" font-family="Arial" font-size="12px" font-weight="bold" text-anchor="middle" x="392.6171875" y="307.3828125">Living Room</text></g><g id="room_master_bedroom"><polygon fill="rgb(255,165,0)" fill-opacity="0.7" points="246.015625,335.859375 246.015625,443.4375 345.15625,443.4375 345.15625,335.859375" stroke="black" stroke-width="1.5" /><text dominant-baseline="middle" fill="black" font-family="Arial" font-size="12px" font-weight="bold" text-anchor="middle" x="296.640625" y="390.703125">Master Bedroom</text></g><g id="room_common_room"><polygon fill="rgb(255,215,0)" fill-opacity="0.7" points="480.15625,335.859375 480.15625,443.4375 553.984375,443.4375 553.984375,335.859375" stroke="black" stroke-width="1.5" /><text dominant-baseline="middle" fill="black" font-family="Arial" font-size="12px" font-weight="bold" text-anchor="middle" x="518.125" y="390.703125">Common Room</text></g><g id="room_common_room_2"><polygon fill="rgb(255,215,0)" fill-opacity="0.7" points="273.4375,171.328125 273.4375,262.03125 353.59375,262.03125 353.59375,171.328125" stroke="black" stroke-width="1.5" /><text dominant-baseline="middle" fill="black" font-family="Arial" font-size="12px" font-weight="bold" text-anchor="middle" x="314.5703125" y="217.734375">Common Room 2</text></g><g id="room_balcony"><polygon fill="rgb(107,142,35)" fill-opacity="0.7" points="357.8125,456.09375 357.8125,489.84375 467.5,489.84375 467.5,456.09375" stroke="black" stroke-width="1.5" /><text dominant-baseline="middle" fill="black" font-family="Arial" font-size="12px" font-weight="bold" text-anchor="middle" x="413.7109375" y="474.0234375">Balcony</text></g><g id="room_kitchen"><polygon fill="rgb(240,128,128)" fill-opacity="0.7" points="366.25,110.15625 366.25,160.78125 437.96875,160.78125 437.96875,110.15625" stroke="black" stroke-width="1.5" /><text dominant-baseline="middle" fill="black" font-family="Arial" font-size="12px" font-weight="bold" text-anchor="middle" x="403.1640625" y="136.5234375">Kitchen</text></g><g id="room_bathroom"><polygon fill="rgb(173,216,230)" fill-opacity="0.7" points="246.015625,274.6875 246.015625,323.203125 307.1875,323.203125 307.1875,274.6875" stroke="black" stroke-width="1.5" /><text dominant-baseline="middle" fill="black" font-family="Arial" font-size="12px" font-weight="bold" text-anchor="middle" x="277.65625" y="300.0">Bathroom</text></g><rect fill="red" fill-opacity="0.9" height="27.421875" id="main_door" stroke="darkred" stroke-width="3" width="10.546875" x="440.078125" y="226.171875" /><text dominant-baseline="middle" fill="white" font-family="Arial" font-size="9px" font-weight="bold" text-anchor="middle" x="445.3515625" y="239.8828125">Main Door</text><text fill="black" font-family="Arial" font-size="18px" font-weight="bold" text-anchor="middle" x="400.0" y="30">Floor Plan - ID: 51454</text></svg>