<?xml version="1.0" encoding="utf-8" ?>
<svg baseProfile="full" height="600px" version="1.1" viewBox="0 0 800 600" width="800px" xmlns="http://www.w3.org/2000/svg" xmlns:ev="http://www.w3.org/2001/xml-events" xmlns:xlink="http://www.w3.org/1999/xlink"><defs /><rect fill="white" height="600" width="800" x="0" y="0" /><polygon fill="none" id="floor_plan_boundary" points="370.46875,82.734375 372.578125,255.703125 378.90625,255.703125 381.015625,91.171875 446.40625,91.171875 448.515625,131.25 530.78125,133.359375 530.78125,466.640625 448.515625,468.75 446.40625,508.828125 345.15625,508.828125 343.046875,468.75 269.21875,466.640625 269.21875,325.3125 343.046875,323.203125 343.046875,247.265625 334.609375,247.265625 332.5,314.765625 260.78125,314.765625 260.78125,477.1875 332.5,477.1875 334.609375,517.265625 456.953125,517.265625 459.0625,477.1875 539.21875,477.1875 539.21875,122.8125 459.0625,122.8125 456.953125,82.734375" stroke="black" stroke-linecap="butt" stroke-linejoin="miter" stroke-width="4" /><g id="room_living_room"><polygon fill="rgb(238,232,170)" fill-opacity="0.7" points="381.015625,158.671875 381.015625,255.703125 345.15625,257.8125 345.15625,506.71875 446.40625,506.71875 446.40625,342.1875 528.671875,337.96875 528.671875,297.890625 478.046875,297.890625 475.9375,251.484375 448.515625,249.375 448.515625,158.671875" stroke="black" stroke-width="1.5" /><text dominant-baseline="middle" fill="black" font-family="Arial" font-size="12px" font-weight="bold" text-anchor="middle" x="437.96875" y="333.75">Living Room</text></g><g id="room_common_room"><polygon fill="rgb(255,215,0)" fill-opacity="0.7" points="271.328125,325.3125 271.328125,466.640625 332.5,466.640625 332.5,325.3125" stroke="black" stroke-width="1.5" /><text dominant-baseline="middle" fill="black" font-family="Arial" font-size="12px" font-weight="bold" text-anchor="middle" x="302.96875" y="397.03125">Common Room</text></g><g id="room_master_bedroom"><polygon fill="rgb(255,165,0)" fill-opacity="0.7" points="456.953125,346.40625 456.953125,466.640625 528.671875,466.640625 528.671875,346.40625" stroke="black" stroke-width="1.5" /><text dominant-baseline="middle" fill="black" font-family="Arial" font-size="12px" font-weight="bold" text-anchor="middle" x="493.8671875" y="407.578125">Master Bedroom</text></g><g id="room_common_room_2"><polygon fill="rgb(255,215,0)" fill-opacity="0.7" points="456.953125,133.359375 456.953125,238.828125 528.671875,240.9375 528.671875,133.359375" stroke="black" stroke-width="1.5" /><text dominant-baseline="middle" fill="black" font-family="Arial" font-size="12px" font-weight="bold" text-anchor="middle" x="493.8671875" y="188.203125">Common Room 2</text></g><g id="room_kitchen"><polygon fill="rgb(240,128,128)" fill-opacity="0.7" points="381.015625,93.28125 381.015625,146.015625 448.515625,146.015625 446.40625,93.28125" stroke="black" stroke-width="1.5" /><text dominant-baseline="middle" fill="black" font-family="Arial" font-size="12px" font-weight="bold" text-anchor="middle" x="415.8203125" y="120.703125">Kitchen</text></g><g id="room_bathroom"><polygon fill="rgb(173,216,230)" fill-opacity="0.7" points="484.375,249.375 484.375,285.234375 528.671875,285.234375 528.671875,249.375" stroke="black" stroke-width="1.5" /><text dominant-baseline="middle" fill="black" font-family="Arial" font-size="12px" font-weight="bold" text-anchor="middle" x="507.578125" y="268.359375">Bathroom</text></g><rect fill="red" fill-opacity="0.9" height="10.546875" id="main_door" stroke="darkred" stroke-width="3" width="27.421875" x="345.15625" y="247.265625" /><text dominant-baseline="middle" fill="white" font-family="Arial" font-size="9px" font-weight="bold" text-anchor="middle" x="358.8671875" y="252.5390625">Main Door</text><text fill="black" font-family="Arial" font-size="18px" font-weight="bold" text-anchor="middle" x="400.0" y="30">Floor Plan - ID: 51667</text></svg>