<?xml version="1.0" encoding="utf-8" ?>
<svg baseProfile="full" height="600px" version="1.1" viewBox="0 0 800 600" width="800px" xmlns="http://www.w3.org/2000/svg" xmlns:ev="http://www.w3.org/2001/xml-events" xmlns:xlink="http://www.w3.org/1999/xlink"><defs /><rect fill="white" height="600" width="800" x="0" y="0" /><polygon fill="none" id="floor_plan_boundary" points="298.75,95.390625 302.96875,146.015625 309.296875,103.828125 370.46875,105.9375 370.46875,186.09375 511.796875,188.203125 511.796875,228.28125 528.671875,230.390625 528.671875,272.578125 511.796875,274.6875 511.796875,481.40625 494.921875,483.515625 492.8125,500.390625 446.40625,500.390625 446.40625,483.515625 273.4375,483.515625 273.4375,137.578125 265.0,137.578125 265.0,489.84375 437.96875,491.953125 440.078125,504.609375 499.140625,504.609375 501.25,491.953125 520.234375,491.953125 520.234375,281.015625 535.0,278.90625 535.0,224.0625 520.234375,221.953125 520.234375,177.65625 381.015625,177.65625 378.90625,95.390625" stroke="black" stroke-linecap="butt" stroke-linejoin="miter" stroke-width="4" /><g id="room_living_room"><polygon fill="rgb(238,232,170)" fill-opacity="0.7" points="275.546875,148.125 275.546875,432.890625 402.109375,432.890625 402.109375,329.53125 442.1875,327.421875 442.1875,295.78125 370.46875,295.78125 368.359375,188.203125 298.75,188.203125 296.640625,148.125" stroke="black" stroke-width="1.5" /><text dominant-baseline="middle" fill="black" font-family="Arial" font-size="12px" font-weight="bold" text-anchor="middle" x="359.921875" y="291.5625">Living Room</text></g><g id="room_common_room"><polygon fill="rgb(255,215,0)" fill-opacity="0.7" points="381.015625,188.203125 381.015625,283.125 509.6875,283.125 511.796875,272.578125 526.5625,272.578125 526.5625,230.390625 509.6875,228.28125 509.6875,188.203125" stroke="black" stroke-width="1.5" /><text dominant-baseline="middle" fill="black" font-family="Arial" font-size="12px" font-weight="bold" text-anchor="middle" x="454.84375" y="236.71875">Common Room</text></g><g id="room_master_bedroom"><polygon fill="rgb(255,165,0)" fill-opacity="0.7" points="414.765625,340.078125 414.765625,481.40625 446.40625,481.40625 446.40625,498.28125 492.8125,498.28125 492.8125,483.515625 509.6875,481.40625 509.6875,367.5 444.296875,367.5 442.1875,340.078125" stroke="black" stroke-width="1.5" /><text dominant-baseline="middle" fill="black" font-family="Arial" font-size="12px" font-weight="bold" text-anchor="middle" x="463.28125" y="420.234375">Master Bedroom</text></g><g id="room_balcony"><polygon fill="rgb(107,142,35)" fill-opacity="0.7" points="275.546875,445.546875 275.546875,483.515625 402.109375,483.515625 402.109375,445.546875" stroke="black" stroke-width="1.5" /><text dominant-baseline="middle" fill="black" font-family="Arial" font-size="12px" font-weight="bold" text-anchor="middle" x="339.8828125" y="465.5859375">Balcony</text></g><g id="room_kitchen"><polygon fill="rgb(240,128,128)" fill-opacity="0.7" points="309.296875,105.9375 309.296875,175.546875 368.359375,175.546875 368.359375,105.9375" stroke="black" stroke-width="1.5" /><text dominant-baseline="middle" fill="black" font-family="Arial" font-size="12px" font-weight="bold" text-anchor="middle" x="339.8828125" y="141.796875">Kitchen</text></g><g id="room_bathroom"><polygon fill="rgb(173,216,230)" fill-opacity="0.7" points="454.84375,295.78125 454.84375,354.84375 509.6875,354.84375 509.6875,295.78125" stroke="black" stroke-width="1.5" /><text dominant-baseline="middle" fill="black" font-family="Arial" font-size="12px" font-weight="bold" text-anchor="middle" x="483.3203125" y="326.3671875">Bathroom</text></g><rect fill="red" fill-opacity="0.9" height="10.546875" id="main_door" stroke="darkred" stroke-width="3" width="27.421875" x="275.546875" y="137.578125" /><text dominant-baseline="middle" fill="white" font-family="Arial" font-size="9px" font-weight="bold" text-anchor="middle" x="289.2578125" y="142.8515625">Main Door</text><text fill="black" font-family="Arial" font-size="18px" font-weight="bold" text-anchor="middle" x="400.0" y="30">Floor Plan - ID: 51677</text></svg>