<?xml version="1.0" encoding="utf-8" ?>
<svg baseProfile="full" height="600px" version="1.1" viewBox="0 0 800 600" width="800px" xmlns="http://www.w3.org/2000/svg" xmlns:ev="http://www.w3.org/2001/xml-events" xmlns:xlink="http://www.w3.org/1999/xlink"><defs /><rect fill="white" height="600" width="800" x="0" y="0" /><polygon fill="none" id="floor_plan_boundary" points="246.015625,127.03125 246.015625,232.5 229.140625,234.609375 229.140625,321.09375 246.015625,323.203125 246.015625,441.328125 355.703125,441.328125 357.8125,405.46875 442.1875,405.46875 444.296875,472.96875 551.875,472.96875 553.984375,456.09375 570.859375,456.09375 570.859375,297.890625 537.109375,297.890625 535.0,278.90625 526.5625,278.90625 526.5625,306.328125 562.421875,308.4375 562.421875,445.546875 543.4375,447.65625 541.328125,464.53125 454.84375,464.53125 452.734375,397.03125 347.265625,397.03125 345.15625,432.890625 254.453125,430.78125 254.453125,312.65625 237.578125,310.546875 237.578125,245.15625 254.453125,243.046875 254.453125,137.578125 332.5,135.46875 334.609375,152.34375 395.78125,152.34375 397.890625,135.46875 524.453125,135.46875 526.5625,249.375 535.0,249.375 535.0,127.03125 387.34375,127.03125 385.234375,143.90625 345.15625,143.90625 343.046875,127.03125" stroke="black" stroke-linecap="butt" stroke-linejoin="miter" stroke-width="4" /><g id="room_living_room"><polygon fill="rgb(238,232,170)" fill-opacity="0.7" points="311.40625,245.15625 311.40625,276.796875 454.84375,278.90625 454.84375,411.796875 560.3125,411.796875 560.3125,308.4375 524.453125,306.328125 524.453125,137.578125 454.84375,137.578125 452.734375,245.15625" stroke="black" stroke-width="1.5" /><text dominant-baseline="middle" fill="black" font-family="Arial" font-size="12px" font-weight="bold" text-anchor="middle" x="436.9140625" y="275.7421875">Living Room</text></g><g id="room_master_bedroom"><polygon fill="rgb(255,165,0)" fill-opacity="0.7" points="345.15625,289.453125 311.40625,289.453125 309.296875,321.09375 256.5625,321.09375 256.5625,430.78125 345.15625,430.78125" stroke="black" stroke-width="1.5" /><text dominant-baseline="middle" fill="black" font-family="Arial" font-size="12px" font-weight="bold" text-anchor="middle" x="301.9140625" y="361.171875">Master Bedroom</text></g><g id="room_common_room"><polygon fill="rgb(255,215,0)" fill-opacity="0.7" points="357.8125,289.453125 357.8125,394.921875 442.1875,394.921875 442.1875,289.453125" stroke="black" stroke-width="1.5" /><text dominant-baseline="middle" fill="black" font-family="Arial" font-size="12px" font-weight="bold" text-anchor="middle" x="401.0546875" y="343.2421875">Common Room</text></g><g id="room_common_room_2"><polygon fill="rgb(255,215,0)" fill-opacity="0.7" points="256.5625,137.578125 256.5625,232.5 332.5,232.5 332.5,137.578125" stroke="black" stroke-width="1.5" /><text dominant-baseline="middle" fill="black" font-family="Arial" font-size="12px" font-weight="bold" text-anchor="middle" x="295.5859375" y="186.09375">Common Room 2</text></g><g id="room_bathroom"><polygon fill="rgb(173,216,230)" fill-opacity="0.7" points="239.6875,245.15625 239.6875,310.546875 302.96875,312.65625 302.96875,245.15625" stroke="black" stroke-width="1.5" /><text dominant-baseline="middle" fill="black" font-family="Arial" font-size="12px" font-weight="bold" text-anchor="middle" x="272.3828125" y="279.9609375">Bathroom</text></g><g id="room_kitchen"><polygon fill="rgb(240,128,128)" fill-opacity="0.7" points="397.890625,137.578125 397.890625,232.5 442.1875,232.5 442.1875,137.578125" stroke="black" stroke-width="1.5" /><text dominant-baseline="middle" fill="black" font-family="Arial" font-size="12px" font-weight="bold" text-anchor="middle" x="421.09375" y="186.09375">Kitchen</text></g><g id="room_balcony"><polygon fill="rgb(107,142,35)" fill-opacity="0.7" points="454.84375,424.453125 454.84375,462.421875 541.328125,462.421875 543.4375,445.546875 560.3125,445.546875 560.3125,424.453125" stroke="black" stroke-width="1.5" /><text dominant-baseline="middle" fill="black" font-family="Arial" font-size="12px" font-weight="bold" text-anchor="middle" x="508.6328125" y="444.4921875">Balcony</text></g><g id="room_bathroom_2"><polygon fill="rgb(173,216,230)" fill-opacity="0.7" points="345.15625,154.453125 345.15625,232.5 385.234375,232.5 385.234375,154.453125" stroke="black" stroke-width="1.5" /><text dominant-baseline="middle" fill="black" font-family="Arial" font-size="12px" font-weight="bold" text-anchor="middle" x="366.25" y="194.53125">Bathroom 2</text></g><rect fill="red" fill-opacity="0.9" height="27.421875" id="main_door" stroke="darkred" stroke-width="3" width="10.546875" x="526.5625" y="251.484375" /><text dominant-baseline="middle" fill="white" font-family="Arial" font-size="9px" font-weight="bold" text-anchor="middle" x="531.8359375" y="265.1953125">Main Door</text><text fill="black" font-family="Arial" font-size="18px" font-weight="bold" text-anchor="middle" x="400.0" y="30">Floor Plan - ID: 51756</text></svg>