<?xml version="1.0" encoding="utf-8" ?>
<svg baseProfile="full" height="600px" version="1.1" viewBox="0 0 800 600" width="800px" xmlns="http://www.w3.org/2000/svg" xmlns:ev="http://www.w3.org/2001/xml-events" xmlns:xlink="http://www.w3.org/1999/xlink"><defs /><rect fill="white" height="600" width="800" x="0" y="0" /><polygon fill="none" id="floor_plan_boundary" points="237.578125,479.296875 353.59375,479.296875 355.703125,300.0 511.796875,300.0 511.796875,291.5625 345.15625,291.5625 345.15625,468.75 248.125,470.859375 246.015625,291.5625 220.703125,289.453125 222.8125,129.140625 307.1875,129.140625 309.296875,146.015625 353.59375,146.015625 355.703125,129.140625 501.25,129.140625 503.359375,146.015625 577.1875,146.015625 579.296875,226.171875 503.359375,228.28125 503.359375,262.03125 511.796875,262.03125 513.90625,236.71875 587.734375,236.71875 587.734375,137.578125 513.90625,137.578125 511.796875,120.703125 345.15625,120.703125 343.046875,137.578125 319.84375,137.578125 317.734375,120.703125 212.265625,120.703125 212.265625,300.0 237.578125,302.109375" stroke="black" stroke-linecap="butt" stroke-linejoin="miter" stroke-width="4" /><g id="room_living_room"><polygon fill="rgb(238,232,170)" fill-opacity="0.7" points="319.84375,148.125 319.84375,245.15625 283.984375,247.265625 283.984375,289.453125 501.25,289.453125 501.25,177.65625 425.3125,177.65625 423.203125,131.25 355.703125,131.25 353.59375,148.125" stroke="black" stroke-width="1.5" /><text dominant-baseline="middle" fill="black" font-family="Arial" font-size="12px" font-weight="bold" text-anchor="middle" x="393.671875" y="211.40625">Living Room</text></g><g id="room_master_bedroom"><polygon fill="rgb(255,165,0)" fill-opacity="0.7" points="248.125,302.109375 248.125,418.125 343.046875,418.125 343.046875,302.109375" stroke="black" stroke-width="1.5" /><text dominant-baseline="middle" fill="black" font-family="Arial" font-size="12px" font-weight="bold" text-anchor="middle" x="296.640625" y="361.171875">Master Bedroom</text></g><g id="room_common_room"><polygon fill="rgb(255,215,0)" fill-opacity="0.7" points="222.8125,131.25 222.8125,234.609375 307.1875,234.609375 307.1875,131.25" stroke="black" stroke-width="1.5" /><text dominant-baseline="middle" fill="black" font-family="Arial" font-size="12px" font-weight="bold" text-anchor="middle" x="266.0546875" y="183.984375">Common Room</text></g><g id="room_kitchen"><polygon fill="rgb(240,128,128)" fill-opacity="0.7" points="513.90625,148.125 513.90625,226.171875 577.1875,226.171875 577.1875,148.125" stroke="black" stroke-width="1.5" /><text dominant-baseline="middle" fill="black" font-family="Arial" font-size="12px" font-weight="bold" text-anchor="middle" x="546.6015625" y="188.203125">Kitchen</text></g><g id="room_balcony"><polygon fill="rgb(107,142,35)" fill-opacity="0.7" points="248.125,426.5625 248.125,468.75 343.046875,468.75 343.046875,426.5625" stroke="black" stroke-width="1.5" /><text dominant-baseline="middle" fill="black" font-family="Arial" font-size="12px" font-weight="bold" text-anchor="middle" x="296.640625" y="448.7109375">Balcony</text></g><g id="room_balcony_2"><polygon fill="rgb(107,142,35)" fill-opacity="0.7" points="435.859375,131.25 435.859375,169.21875 501.25,169.21875 501.25,131.25" stroke="black" stroke-width="1.5" /><text dominant-baseline="middle" fill="black" font-family="Arial" font-size="12px" font-weight="bold" text-anchor="middle" x="469.609375" y="151.2890625">Balcony 2</text></g><g id="room_bathroom"><polygon fill="rgb(173,216,230)" fill-opacity="0.7" points="222.8125,247.265625 222.8125,289.453125 275.546875,289.453125 275.546875,247.265625" stroke="black" stroke-width="1.5" /><text dominant-baseline="middle" fill="black" font-family="Arial" font-size="12px" font-weight="bold" text-anchor="middle" x="250.234375" y="269.4140625">Bathroom</text></g><rect fill="red" fill-opacity="0.9" height="27.421875" id="main_door" stroke="darkred" stroke-width="3" width="10.546875" x="503.359375" y="264.140625" /><text dominant-baseline="middle" fill="white" font-family="Arial" font-size="9px" font-weight="bold" text-anchor="middle" x="508.6328125" y="277.8515625">Main Door</text><text fill="black" font-family="Arial" font-size="18px" font-weight="bold" text-anchor="middle" x="400.0" y="30">Floor Plan - ID: 51898</text></svg>