<?xml version="1.0" encoding="utf-8" ?>
<svg baseProfile="full" height="600px" version="1.1" viewBox="0 0 800 600" width="800px" xmlns="http://www.w3.org/2000/svg" xmlns:ev="http://www.w3.org/2001/xml-events" xmlns:xlink="http://www.w3.org/1999/xlink"><defs /><rect fill="white" height="600" width="800" x="0" y="0" /><polygon fill="none" id="floor_plan_boundary" points="572.96875,105.9375 505.46875,105.9375 503.359375,150.234375 227.03125,150.234375 227.03125,458.203125 332.5,458.203125 334.609375,494.0625 463.28125,494.0625 463.28125,316.875 513.90625,314.765625 513.90625,295.78125 505.46875,295.78125 503.359375,306.328125 454.84375,306.328125 452.734375,485.625 345.15625,485.625 343.046875,449.765625 237.578125,449.765625 235.46875,160.78125 513.90625,158.671875 516.015625,114.375 562.421875,114.375 564.53125,245.15625 505.46875,247.265625 505.46875,266.25 513.90625,266.25 516.015625,255.703125 572.96875,255.703125" stroke="black" stroke-linecap="butt" stroke-linejoin="miter" stroke-width="4" /><g id="room_living_room"><polygon fill="rgb(238,232,170)" fill-opacity="0.7" points="503.359375,160.78125 423.203125,160.78125 421.09375,268.359375 300.859375,268.359375 300.859375,329.53125 345.15625,331.640625 345.15625,447.65625 452.734375,447.65625 452.734375,306.328125 503.359375,304.21875" stroke="black" stroke-width="1.5" /><text dominant-baseline="middle" fill="black" font-family="Arial" font-size="12px" font-weight="bold" text-anchor="middle" x="403.1640625" y="305.2734375">Living Room</text></g><g id="room_master_bedroom"><polygon fill="rgb(255,165,0)" fill-opacity="0.7" points="237.578125,342.1875 237.578125,447.65625 332.5,447.65625 332.5,342.1875" stroke="black" stroke-width="1.5" /><text dominant-baseline="middle" fill="black" font-family="Arial" font-size="12px" font-weight="bold" text-anchor="middle" x="286.09375" y="395.9765625">Master Bedroom</text></g><g id="room_common_room_2"><polygon fill="rgb(255,215,0)" fill-opacity="0.7" points="237.578125,160.78125 237.578125,259.921875 324.0625,259.921875 324.0625,160.78125" stroke="black" stroke-width="1.5" /><text dominant-baseline="middle" fill="black" font-family="Arial" font-size="12px" font-weight="bold" text-anchor="middle" x="281.875" y="211.40625">Common Room 2</text></g><g id="room_common_room"><polygon fill="rgb(255,215,0)" fill-opacity="0.7" points="336.71875,160.78125 336.71875,259.921875 414.765625,259.921875 414.765625,160.78125" stroke="black" stroke-width="1.5" /><text dominant-baseline="middle" fill="black" font-family="Arial" font-size="12px" font-weight="bold" text-anchor="middle" x="376.796875" y="211.40625">Common Room</text></g><g id="room_kitchen"><polygon fill="rgb(240,128,128)" fill-opacity="0.7" points="516.015625,160.78125 516.015625,245.15625 562.421875,245.15625 562.421875,160.78125" stroke="black" stroke-width="1.5" /><text dominant-baseline="middle" fill="black" font-family="Arial" font-size="12px" font-weight="bold" text-anchor="middle" x="540.2734375" y="204.0234375">Kitchen</text></g><g id="room_bathroom"><polygon fill="rgb(173,216,230)" fill-opacity="0.7" points="237.578125,268.359375 237.578125,329.53125 292.421875,329.53125 292.421875,268.359375" stroke="black" stroke-width="1.5" /><text dominant-baseline="middle" fill="black" font-family="Arial" font-size="12px" font-weight="bold" text-anchor="middle" x="266.0546875" y="300.0">Bathroom</text></g><g id="room_balcony"><polygon fill="rgb(107,142,35)" fill-opacity="0.7" points="345.15625,460.3125 345.15625,483.515625 452.734375,483.515625 452.734375,460.3125" stroke="black" stroke-width="1.5" /><text dominant-baseline="middle" fill="black" font-family="Arial" font-size="12px" font-weight="bold" text-anchor="middle" x="400.0" y="472.96875">Balcony</text></g><g id="room_balcony_2"><polygon fill="rgb(107,142,35)" fill-opacity="0.7" points="516.015625,116.484375 516.015625,148.125 562.421875,148.125 562.421875,116.484375" stroke="black" stroke-width="1.5" /><text dominant-baseline="middle" fill="black" font-family="Arial" font-size="12px" font-weight="bold" text-anchor="middle" x="540.2734375" y="133.359375">Balcony 2</text></g><rect fill="red" fill-opacity="0.9" height="27.421875" id="main_door" stroke="darkred" stroke-width="3" width="10.546875" x="505.46875" y="268.359375" /><text dominant-baseline="middle" fill="white" font-family="Arial" font-size="9px" font-weight="bold" text-anchor="middle" x="510.7421875" y="282.0703125">Main Door</text><text fill="black" font-family="Arial" font-size="18px" font-weight="bold" text-anchor="middle" x="400.0" y="30">Floor Plan - ID: 52092</text></svg>