<?xml version="1.0" encoding="utf-8" ?>
<svg baseProfile="full" height="600px" version="1.1" viewBox="0 0 800 600" width="800px" xmlns="http://www.w3.org/2000/svg" xmlns:ev="http://www.w3.org/2001/xml-events" xmlns:xlink="http://www.w3.org/1999/xlink"><defs /><rect fill="white" height="600" width="800" x="0" y="0" /><polygon fill="none" id="floor_plan_boundary" points="381.015625,74.296875 378.90625,93.28125 332.5,93.28125 338.828125,291.5625 347.265625,291.5625 340.9375,103.828125 389.453125,101.71875 391.5625,82.734375 465.390625,84.84375 465.390625,190.3125 501.25,192.421875 501.25,519.375 414.765625,521.484375 412.65625,487.734375 387.34375,487.734375 387.34375,508.828125 319.84375,508.828125 319.84375,487.734375 298.75,485.625 298.75,359.0625 347.265625,356.953125 347.265625,329.53125 338.828125,329.53125 336.71875,348.515625 290.3125,348.515625 290.3125,496.171875 311.40625,496.171875 313.515625,513.046875 393.671875,513.046875 393.671875,498.28125 402.109375,496.171875 404.21875,525.703125 509.6875,525.703125 509.6875,181.875 473.828125,179.765625 473.828125,74.296875" stroke="black" stroke-linecap="butt" stroke-linejoin="miter" stroke-width="4" /><g id="room_living_room"><polygon fill="rgb(238,232,170)" fill-opacity="0.7" points="349.375,192.421875 349.375,356.953125 300.859375,359.0625 300.859375,485.625 321.953125,487.734375 319.84375,506.71875 387.34375,506.71875 385.234375,487.734375 402.109375,485.625 402.109375,348.515625 440.078125,346.40625 440.078125,291.5625 416.875,289.453125 416.875,192.421875" stroke="black" stroke-width="1.5" /><text dominant-baseline="middle" fill="black" font-family="Arial" font-size="12px" font-weight="bold" text-anchor="middle" x="371.5234375" y="350.625">Living Room</text></g><g id="room_master_bedroom"><polygon fill="rgb(255,165,0)" fill-opacity="0.7" points="414.765625,359.0625 414.765625,462.421875 499.140625,462.421875 499.140625,359.0625" stroke="black" stroke-width="1.5" /><text dominant-baseline="middle" fill="black" font-family="Arial" font-size="12px" font-weight="bold" text-anchor="middle" x="458.0078125" y="411.796875">Master Bedroom</text></g><g id="room_common_room_2"><polygon fill="rgb(255,215,0)" fill-opacity="0.7" points="391.5625,84.84375 389.453125,179.765625 463.28125,179.765625 463.28125,84.84375" stroke="black" stroke-width="1.5" /><text dominant-baseline="middle" fill="black" font-family="Arial" font-size="12px" font-weight="bold" text-anchor="middle" x="427.421875" y="133.359375">Common Room 2</text></g><g id="room_common_room"><polygon fill="rgb(255,215,0)" fill-opacity="0.7" points="429.53125,192.421875 429.53125,278.90625 499.140625,278.90625 499.140625,192.421875" stroke="black" stroke-width="1.5" /><text dominant-baseline="middle" fill="black" font-family="Arial" font-size="12px" font-weight="bold" text-anchor="middle" x="465.390625" y="236.71875">Common Room</text></g><g id="room_balcony"><polygon fill="rgb(107,142,35)" fill-opacity="0.7" points="414.765625,475.078125 414.765625,519.375 499.140625,519.375 499.140625,475.078125" stroke="black" stroke-width="1.5" /><text dominant-baseline="middle" fill="black" font-family="Arial" font-size="12px" font-weight="bold" text-anchor="middle" x="458.0078125" y="498.28125">Balcony</text></g><g id="room_kitchen"><polygon fill="rgb(240,128,128)" fill-opacity="0.7" points="343.046875,103.828125 343.046875,179.765625 381.015625,179.765625 381.015625,103.828125" stroke="black" stroke-width="1.5" /><text dominant-baseline="middle" fill="black" font-family="Arial" font-size="12px" font-weight="bold" text-anchor="middle" x="363.0859375" y="142.8515625">Kitchen</text></g><g id="room_bathroom"><polygon fill="rgb(173,216,230)" fill-opacity="0.7" points="448.515625,291.5625 448.515625,346.40625 499.140625,346.40625 499.140625,291.5625" stroke="black" stroke-width="1.5" /><text dominant-baseline="middle" fill="black" font-family="Arial" font-size="12px" font-weight="bold" text-anchor="middle" x="474.8828125" y="320.0390625">Bathroom</text></g><rect fill="red" fill-opacity="0.9" height="35.859375" id="main_door" stroke="darkred" stroke-width="3" width="10.546875" x="338.828125" y="293.671875" /><text dominant-baseline="middle" fill="white" font-family="Arial" font-size="9px" font-weight="bold" text-anchor="middle" x="344.1015625" y="311.6015625">Main Door</text><text fill="black" font-family="Arial" font-size="18px" font-weight="bold" text-anchor="middle" x="400.0" y="30">Floor Plan - ID: 52238</text></svg>