<?xml version="1.0" encoding="utf-8" ?>
<svg baseProfile="full" height="600px" version="1.1" viewBox="0 0 800 600" width="800px" xmlns="http://www.w3.org/2000/svg" xmlns:ev="http://www.w3.org/2001/xml-events" xmlns:xlink="http://www.w3.org/1999/xlink"><defs /><rect fill="white" height="600" width="800" x="0" y="0" /><polygon fill="none" id="floor_plan_boundary" points="214.375,156.5625 212.265625,310.546875 220.703125,310.546875 220.703125,160.78125 336.71875,160.78125 336.71875,207.1875 577.1875,207.1875 579.296875,306.328125 526.5625,308.4375 524.453125,407.578125 374.6875,407.578125 372.578125,439.21875 302.96875,439.21875 300.859375,401.25 222.8125,401.25 220.703125,356.953125 212.265625,356.953125 212.265625,409.6875 290.3125,409.6875 292.421875,443.4375 378.90625,443.4375 381.015625,416.015625 535.0,416.015625 535.0,318.984375 587.734375,316.875 587.734375,198.75 345.15625,198.75 343.046875,156.5625" stroke="black" stroke-linecap="butt" stroke-linejoin="miter" stroke-width="4" /><g id="room_living_room"><polygon fill="rgb(238,232,170)" fill-opacity="0.7" points="222.8125,209.296875 222.8125,399.140625 370.46875,405.46875 370.46875,344.296875 416.875,342.1875 416.875,281.015625 336.71875,281.015625 334.609375,209.296875" stroke="black" stroke-width="1.5" /><text dominant-baseline="middle" fill="black" font-family="Arial" font-size="12px" font-weight="bold" text-anchor="middle" x="320.8984375" y="308.4375">Living Room</text></g><g id="room_master_bedroom"><polygon fill="rgb(255,165,0)" fill-opacity="0.7" points="429.53125,281.015625 429.53125,306.328125 577.1875,306.328125 577.1875,209.296875 482.265625,209.296875 482.265625,278.90625" stroke="black" stroke-width="1.5" /><text dominant-baseline="middle" fill="black" font-family="Arial" font-size="12px" font-weight="bold" text-anchor="middle" x="504.4140625" y="258.8671875">Master Bedroom</text></g><g id="room_common_room"><polygon fill="rgb(255,215,0)" fill-opacity="0.7" points="429.53125,318.984375 429.53125,342.1875 446.40625,344.296875 446.40625,405.46875 524.453125,405.46875 524.453125,318.984375" stroke="black" stroke-width="1.5" /><text dominant-baseline="middle" fill="black" font-family="Arial" font-size="12px" font-weight="bold" text-anchor="middle" x="478.046875" y="363.28125">Common Room</text></g><g id="room_common_room_2"><polygon fill="rgb(255,215,0)" fill-opacity="0.7" points="347.265625,209.296875 347.265625,272.578125 416.875,272.578125 416.875,209.296875" stroke="black" stroke-width="1.5" /><text dominant-baseline="middle" fill="black" font-family="Arial" font-size="12px" font-weight="bold" text-anchor="middle" x="383.125" y="241.9921875">Common Room 2</text></g><g id="room_balcony_2"><polygon fill="rgb(107,142,35)" fill-opacity="0.7" points="220.703125,162.890625 220.703125,196.640625 336.71875,196.640625 336.71875,162.890625" stroke="black" stroke-width="1.5" /><text dominant-baseline="middle" fill="black" font-family="Arial" font-size="12px" font-weight="bold" text-anchor="middle" x="279.765625" y="180.8203125">Balcony 2</text></g><g id="room_bathroom"><polygon fill="rgb(173,216,230)" fill-opacity="0.7" points="383.125,354.84375 383.125,405.46875 433.75,405.46875 433.75,354.84375" stroke="black" stroke-width="1.5" /><text dominant-baseline="middle" fill="black" font-family="Arial" font-size="12px" font-weight="bold" text-anchor="middle" x="409.4921875" y="381.2109375">Bathroom</text></g><g id="room_bathroom_2"><polygon fill="rgb(173,216,230)" fill-opacity="0.7" points="429.53125,209.296875 429.53125,272.578125 469.609375,272.578125 469.609375,209.296875" stroke="black" stroke-width="1.5" /><text dominant-baseline="middle" fill="black" font-family="Arial" font-size="12px" font-weight="bold" text-anchor="middle" x="450.625" y="241.9921875">Bathroom 2</text></g><g id="room_balcony"><polygon fill="rgb(107,142,35)" fill-opacity="0.7" points="302.96875,418.125 302.96875,437.109375 372.578125,437.109375 372.578125,418.125" stroke="black" stroke-width="1.5" /><text dominant-baseline="middle" fill="black" font-family="Arial" font-size="12px" font-weight="bold" text-anchor="middle" x="338.828125" y="428.671875">Balcony</text></g><rect fill="red" fill-opacity="0.9" height="44.296875" id="main_door" stroke="darkred" stroke-width="3" width="10.546875" x="212.265625" y="312.65625" /><text dominant-baseline="middle" fill="white" font-family="Arial" font-size="9px" font-weight="bold" text-anchor="middle" x="217.5390625" y="334.8046875">Main Door</text><text fill="black" font-family="Arial" font-size="18px" font-weight="bold" text-anchor="middle" x="400.0" y="30">Floor Plan - ID: 52310</text></svg>