<?xml version="1.0" encoding="utf-8" ?>
<svg baseProfile="full" height="600px" version="1.1" viewBox="0 0 800 600" width="800px" xmlns="http://www.w3.org/2000/svg" xmlns:ev="http://www.w3.org/2001/xml-events" xmlns:xlink="http://www.w3.org/1999/xlink"><defs /><rect fill="white" height="600" width="800" x="0" y="0" /><polygon fill="none" id="floor_plan_boundary" points="566.640625,105.9375 558.203125,116.484375 558.203125,464.53125 537.109375,466.640625 535.0,485.625 351.484375,485.625 349.375,466.640625 241.796875,464.53125 241.796875,270.46875 305.078125,268.359375 305.078125,179.765625 431.640625,177.65625 433.75,114.375 518.125,114.375 518.125,105.9375 423.203125,105.9375 421.09375,169.21875 296.640625,169.21875 296.640625,257.8125 233.359375,259.921875 233.359375,475.078125 338.828125,475.078125 340.9375,494.0625 543.4375,494.0625 541.328125,472.96875 566.640625,470.859375" stroke="black" stroke-linecap="butt" stroke-linejoin="miter" stroke-width="4" /><g id="room_living_room"><polygon fill="rgb(238,232,170)" fill-opacity="0.7" points="556.09375,116.484375 522.34375,116.484375 520.234375,179.765625 463.28125,179.765625 461.171875,238.828125 412.65625,238.828125 410.546875,270.46875 351.484375,270.46875 351.484375,300.0 448.515625,302.109375 448.515625,428.671875 556.09375,428.671875" stroke="black" stroke-width="1.5" /><text dominant-baseline="middle" fill="black" font-family="Arial" font-size="12px" font-weight="bold" text-anchor="middle" x="454.84375" y="273.6328125">Living Room</text></g><g id="room_master_bedroom"><polygon fill="rgb(255,165,0)" fill-opacity="0.7" points="338.828125,270.46875 307.1875,270.46875 305.078125,342.1875 243.90625,342.1875 243.90625,464.53125 338.828125,464.53125" stroke="black" stroke-width="1.5" /><text dominant-baseline="middle" fill="black" font-family="Arial" font-size="12px" font-weight="bold" text-anchor="middle" x="292.421875" y="368.5546875">Master Bedroom</text></g><g id="room_balcony"><polygon fill="rgb(107,142,35)" fill-opacity="0.7" points="351.484375,422.34375 351.484375,483.515625 535.0,483.515625 537.109375,464.53125 556.09375,464.53125 556.09375,441.328125 437.96875,441.328125 435.859375,422.34375" stroke="black" stroke-width="1.5" /><text dominant-baseline="middle" fill="black" font-family="Arial" font-size="12px" font-weight="bold" text-anchor="middle" x="454.84375" y="453.984375">Balcony</text></g><g id="room_common_room"><polygon fill="rgb(255,215,0)" fill-opacity="0.7" points="351.484375,312.65625 351.484375,409.6875 435.859375,409.6875 435.859375,312.65625" stroke="black" stroke-width="1.5" /><text dominant-baseline="middle" fill="black" font-family="Arial" font-size="12px" font-weight="bold" text-anchor="middle" x="394.7265625" y="362.2265625">Common Room</text></g><g id="room_common_room_2"><polygon fill="rgb(255,215,0)" fill-opacity="0.7" points="307.1875,179.765625 307.1875,257.8125 400.0,257.8125 400.0,179.765625" stroke="black" stroke-width="1.5" /><text dominant-baseline="middle" fill="black" font-family="Arial" font-size="12px" font-weight="bold" text-anchor="middle" x="354.6484375" y="219.84375">Common Room 2</text></g><g id="room_kitchen"><polygon fill="rgb(240,128,128)" fill-opacity="0.7" points="433.75,116.484375 433.75,167.109375 509.6875,167.109375 509.6875,116.484375" stroke="black" stroke-width="1.5" /><text dominant-baseline="middle" fill="black" font-family="Arial" font-size="12px" font-weight="bold" text-anchor="middle" x="472.7734375" y="142.8515625">Kitchen</text></g><g id="room_bathroom"><polygon fill="rgb(173,216,230)" fill-opacity="0.7" points="243.90625,270.46875 243.90625,329.53125 294.53125,329.53125 294.53125,270.46875" stroke="black" stroke-width="1.5" /><text dominant-baseline="middle" fill="black" font-family="Arial" font-size="12px" font-weight="bold" text-anchor="middle" x="270.2734375" y="301.0546875">Bathroom</text></g><g id="room_bathroom_2"><polygon fill="rgb(173,216,230)" fill-opacity="0.7" points="412.65625,179.765625 412.65625,230.390625 450.625,230.390625 450.625,179.765625" stroke="black" stroke-width="1.5" /><text dominant-baseline="middle" fill="black" font-family="Arial" font-size="12px" font-weight="bold" text-anchor="middle" x="432.6953125" y="206.1328125">Bathroom 2</text></g><rect fill="red" fill-opacity="0.9" height="10.546875" id="main_door" stroke="darkred" stroke-width="3" width="40.078125" x="520.234375" y="105.9375" /><text dominant-baseline="middle" fill="white" font-family="Arial" font-size="9px" font-weight="bold" text-anchor="middle" x="540.2734375" y="111.2109375">Main Door</text><text fill="black" font-family="Arial" font-size="18px" font-weight="bold" text-anchor="middle" x="400.0" y="30">Floor Plan - ID: 52345</text></svg>