<?xml version="1.0" encoding="utf-8" ?>
<svg baseProfile="full" height="600px" version="1.1" viewBox="0 0 800 600" width="800px" xmlns="http://www.w3.org/2000/svg" xmlns:ev="http://www.w3.org/2001/xml-events" xmlns:xlink="http://www.w3.org/1999/xlink"><defs /><rect fill="white" height="600" width="800" x="0" y="0" /><polygon fill="none" id="floor_plan_boundary" points="290.3125,103.828125 290.3125,213.515625 271.328125,215.625 271.328125,333.75 290.3125,335.859375 290.3125,403.359375 243.90625,405.46875 243.90625,496.171875 366.25,496.171875 368.359375,451.875 513.90625,451.875 513.90625,283.125 556.09375,281.015625 556.09375,255.703125 547.65625,255.703125 545.546875,272.578125 505.46875,272.578125 503.359375,443.4375 357.8125,443.4375 355.703125,487.734375 252.34375,485.625 252.34375,416.015625 298.75,413.90625 298.75,325.3125 279.765625,323.203125 279.765625,226.171875 298.75,224.0625 300.859375,112.265625 545.546875,112.265625 547.65625,221.953125 556.09375,221.953125 556.09375,103.828125" stroke="black" stroke-linecap="butt" stroke-linejoin="miter" stroke-width="4" /><g id="room_living_room"><polygon fill="rgb(238,232,170)" fill-opacity="0.7" points="366.25,240.9375 366.25,289.453125 402.109375,291.5625 402.109375,388.59375 503.359375,388.59375 503.359375,272.578125 545.546875,270.46875 545.546875,226.171875 402.109375,226.171875 400.0,240.9375" stroke="black" stroke-width="1.5" /><text dominant-baseline="middle" fill="black" font-family="Arial" font-size="12px" font-weight="bold" text-anchor="middle" x="456.953125" y="308.4375">Living Room</text></g><g id="room_master_bedroom"><polygon fill="rgb(255,165,0)" fill-opacity="0.7" points="389.453125,302.109375 366.25,302.109375 366.25,335.859375 300.859375,335.859375 300.859375,413.90625 254.453125,416.015625 254.453125,485.625 355.703125,485.625 355.703125,443.4375 389.453125,441.328125" stroke="black" stroke-width="1.5" /><text dominant-baseline="middle" fill="black" font-family="Arial" font-size="12px" font-weight="bold" text-anchor="middle" x="323.0078125" y="394.921875">Master Bedroom</text></g><g id="room_common_room_2"><polygon fill="rgb(255,215,0)" fill-opacity="0.7" points="300.859375,114.375 300.859375,213.515625 366.25,213.515625 366.25,228.28125 389.453125,228.28125 389.453125,114.375" stroke="black" stroke-width="1.5" /><text dominant-baseline="middle" fill="black" font-family="Arial" font-size="12px" font-weight="bold" text-anchor="middle" x="346.2109375" y="172.3828125">Common Room 2</text></g><g id="room_common_room"><polygon fill="rgb(255,215,0)" fill-opacity="0.7" points="402.109375,114.375 402.109375,213.515625 492.8125,213.515625 492.8125,114.375" stroke="black" stroke-width="1.5" /><text dominant-baseline="middle" fill="black" font-family="Arial" font-size="12px" font-weight="bold" text-anchor="middle" x="448.515625" y="165.0">Common Room</text></g><g id="room_balcony"><polygon fill="rgb(107,142,35)" fill-opacity="0.7" points="402.109375,401.25 402.109375,441.328125 503.359375,441.328125 503.359375,401.25" stroke="black" stroke-width="1.5" /><text dominant-baseline="middle" fill="black" font-family="Arial" font-size="12px" font-weight="bold" text-anchor="middle" x="453.7890625" y="422.34375">Balcony</text></g><g id="room_kitchen"><polygon fill="rgb(240,128,128)" fill-opacity="0.7" points="505.46875,114.375 505.46875,213.515625 545.546875,213.515625 545.546875,114.375" stroke="black" stroke-width="1.5" /><text dominant-baseline="middle" fill="black" font-family="Arial" font-size="12px" font-weight="bold" text-anchor="middle" x="526.5625" y="165.0">Kitchen</text></g><g id="room_bathroom_2"><polygon fill="rgb(173,216,230)" fill-opacity="0.7" points="281.875,226.171875 281.875,270.46875 357.8125,270.46875 357.8125,226.171875" stroke="black" stroke-width="1.5" /><text dominant-baseline="middle" fill="black" font-family="Arial" font-size="12px" font-weight="bold" text-anchor="middle" x="320.8984375" y="249.375">Bathroom 2</text></g><g id="room_bathroom"><polygon fill="rgb(173,216,230)" fill-opacity="0.7" points="281.875,278.90625 281.875,323.203125 357.8125,323.203125 357.8125,278.90625" stroke="black" stroke-width="1.5" /><text dominant-baseline="middle" fill="black" font-family="Arial" font-size="12px" font-weight="bold" text-anchor="middle" x="320.8984375" y="302.109375">Bathroom</text></g><rect fill="red" fill-opacity="0.9" height="31.640625" id="main_door" stroke="darkred" stroke-width="3" width="10.546875" x="547.65625" y="224.0625" /><text dominant-baseline="middle" fill="white" font-family="Arial" font-size="9px" font-weight="bold" text-anchor="middle" x="552.9296875" y="239.8828125">Main Door</text><text fill="black" font-family="Arial" font-size="18px" font-weight="bold" text-anchor="middle" x="400.0" y="30">Floor Plan - ID: 52340</text></svg>