<?xml version="1.0" encoding="utf-8" ?>
<svg baseProfile="full" height="600px" version="1.1" viewBox="0 0 800 600" width="800px" xmlns="http://www.w3.org/2000/svg" xmlns:ev="http://www.w3.org/2001/xml-events" xmlns:xlink="http://www.w3.org/1999/xlink"><defs /><rect fill="white" height="600" width="800" x="0" y="0" /><polygon fill="none" id="floor_plan_boundary" points="250.234375,135.46875 250.234375,451.875 444.296875,451.875 446.40625,506.71875 549.765625,506.71875 549.765625,314.765625 503.359375,316.875 503.359375,323.203125 541.328125,325.3125 539.21875,498.28125 456.953125,498.28125 454.84375,443.4375 258.671875,441.328125 258.671875,146.015625 353.59375,143.90625 355.703125,101.71875 444.296875,101.71875 446.40625,143.90625 503.359375,146.015625 503.359375,287.34375 511.796875,287.34375 511.796875,135.46875 456.953125,135.46875 454.84375,93.28125 345.15625,93.28125 343.046875,135.46875" stroke="black" stroke-linecap="butt" stroke-linejoin="miter" stroke-width="4" /><g id="room_living_room"><polygon fill="rgb(238,232,170)" fill-opacity="0.7" points="355.703125,165.0 355.703125,283.125 311.40625,285.234375 311.40625,312.65625 355.703125,314.765625 355.703125,441.328125 461.171875,441.328125 461.171875,314.765625 501.25,312.65625 501.25,224.0625 444.296875,221.953125 444.296875,165.0" stroke="black" stroke-width="1.5" /><text dominant-baseline="middle" fill="black" font-family="Arial" font-size="12px" font-weight="bold" text-anchor="middle" x="407.3828125" y="304.21875">Living Room</text></g><g id="room_common_room_2"><polygon fill="rgb(255,215,0)" fill-opacity="0.7" points="260.78125,146.015625 260.78125,291.5625 298.75,291.5625 300.859375,272.578125 343.046875,272.578125 343.046875,146.015625" stroke="black" stroke-width="1.5" /><text dominant-baseline="middle" fill="black" font-family="Arial" font-size="12px" font-weight="bold" text-anchor="middle" x="302.96875" y="219.84375">Common Room 2</text></g><g id="room_master_bedroom"><polygon fill="rgb(255,165,0)" fill-opacity="0.7" points="260.78125,304.21875 260.78125,441.328125 343.046875,441.328125 343.046875,325.3125 300.859375,325.3125 298.75,304.21875" stroke="black" stroke-width="1.5" /><text dominant-baseline="middle" fill="black" font-family="Arial" font-size="12px" font-weight="bold" text-anchor="middle" x="302.96875" y="373.828125">Master Bedroom</text></g><g id="room_common_room"><polygon fill="rgb(255,215,0)" fill-opacity="0.7" points="473.828125,325.3125 473.828125,441.328125 539.21875,441.328125 539.21875,325.3125" stroke="black" stroke-width="1.5" /><text dominant-baseline="middle" fill="black" font-family="Arial" font-size="12px" font-weight="bold" text-anchor="middle" x="507.578125" y="384.375">Common Room</text></g><g id="room_kitchen"><polygon fill="rgb(240,128,128)" fill-opacity="0.7" points="355.703125,103.828125 355.703125,152.34375 444.296875,152.34375 444.296875,103.828125" stroke="black" stroke-width="1.5" /><text dominant-baseline="middle" fill="black" font-family="Arial" font-size="12px" font-weight="bold" text-anchor="middle" x="401.0546875" y="129.140625">Kitchen</text></g><g id="room_balcony"><polygon fill="rgb(107,142,35)" fill-opacity="0.7" points="456.953125,453.984375 456.953125,496.171875 539.21875,496.171875 539.21875,453.984375" stroke="black" stroke-width="1.5" /><text dominant-baseline="middle" fill="black" font-family="Arial" font-size="12px" font-weight="bold" text-anchor="middle" x="499.140625" y="476.1328125">Balcony</text></g><g id="room_bathroom"><polygon fill="rgb(173,216,230)" fill-opacity="0.7" points="456.953125,146.015625 456.953125,215.625 501.25,215.625 501.25,146.015625" stroke="black" stroke-width="1.5" /><text dominant-baseline="middle" fill="black" font-family="Arial" font-size="12px" font-weight="bold" text-anchor="middle" x="480.15625" y="181.875">Bathroom</text></g><rect fill="red" fill-opacity="0.9" height="27.421875" id="main_door" stroke="darkred" stroke-width="3" width="10.546875" x="503.359375" y="289.453125" /><text dominant-baseline="middle" fill="white" font-family="Arial" font-size="9px" font-weight="bold" text-anchor="middle" x="508.6328125" y="303.1640625">Main Door</text><text fill="black" font-family="Arial" font-size="18px" font-weight="bold" text-anchor="middle" x="400.0" y="30">Floor Plan - ID: 52642</text></svg>