<?xml version="1.0" encoding="utf-8" ?>
<svg baseProfile="full" height="600px" version="1.1" viewBox="0 0 800 600" width="800px" xmlns="http://www.w3.org/2000/svg" xmlns:ev="http://www.w3.org/2001/xml-events" xmlns:xlink="http://www.w3.org/1999/xlink"><defs /><rect fill="white" height="600" width="800" x="0" y="0" /><polygon fill="none" id="floor_plan_boundary" points="326.171875,112.265625 326.171875,243.046875 334.609375,243.046875 336.71875,120.703125 393.671875,120.703125 395.78125,143.90625 551.875,146.015625 551.875,460.3125 319.84375,462.421875 317.734375,479.296875 250.234375,479.296875 248.125,354.84375 328.28125,352.734375 328.28125,283.125 334.609375,276.796875 319.84375,272.578125 317.734375,344.296875 239.6875,344.296875 239.6875,487.734375 328.28125,487.734375 330.390625,470.859375 560.3125,470.859375 560.3125,135.46875 406.328125,135.46875 404.21875,112.265625" stroke="black" stroke-linecap="butt" stroke-linejoin="miter" stroke-width="4" /><g id="room_living_room"><polygon fill="rgb(238,232,170)" fill-opacity="0.7" points="336.71875,209.296875 330.390625,460.3125 444.296875,460.3125 444.296875,335.859375 490.703125,333.75 490.703125,289.453125 446.40625,287.34375 446.40625,209.296875" stroke="black" stroke-width="1.5" /><text dominant-baseline="middle" fill="black" font-family="Arial" font-size="12px" font-weight="bold" text-anchor="middle" x="411.6015625" y="335.859375">Living Room</text></g><g id="room_master_bedroom"><polygon fill="rgb(255,165,0)" fill-opacity="0.7" points="456.953125,346.40625 456.953125,460.3125 549.765625,460.3125 549.765625,346.40625" stroke="black" stroke-width="1.5" /><text dominant-baseline="middle" fill="black" font-family="Arial" font-size="12px" font-weight="bold" text-anchor="middle" x="504.4140625" y="404.4140625">Master Bedroom</text></g><g id="room_common_room_2"><polygon fill="rgb(255,215,0)" fill-opacity="0.7" points="459.0625,146.015625 459.0625,276.796875 488.59375,276.796875 490.703125,255.703125 549.765625,255.703125 549.765625,146.015625" stroke="black" stroke-width="1.5" /><text dominant-baseline="middle" fill="black" font-family="Arial" font-size="12px" font-weight="bold" text-anchor="middle" x="505.46875" y="212.4609375">Common Room 2</text></g><g id="room_common_room"><polygon fill="rgb(255,215,0)" fill-opacity="0.7" points="250.234375,354.84375 250.234375,477.1875 317.734375,477.1875 317.734375,354.84375" stroke="black" stroke-width="1.5" /><text dominant-baseline="middle" fill="black" font-family="Arial" font-size="12px" font-weight="bold" text-anchor="middle" x="285.0390625" y="417.0703125">Common Room</text></g><g id="room_kitchen"><polygon fill="rgb(240,128,128)" fill-opacity="0.7" points="336.71875,122.8125 336.71875,200.859375 395.78125,200.859375 393.671875,122.8125" stroke="black" stroke-width="1.5" /><text dominant-baseline="middle" fill="black" font-family="Arial" font-size="12px" font-weight="bold" text-anchor="middle" x="367.3046875" y="162.890625">Kitchen</text></g><g id="room_bathroom"><polygon fill="rgb(173,216,230)" fill-opacity="0.7" points="501.25,264.140625 499.140625,333.75 549.765625,333.75 549.765625,264.140625" stroke="black" stroke-width="1.5" /><text dominant-baseline="middle" fill="black" font-family="Arial" font-size="12px" font-weight="bold" text-anchor="middle" x="525.5078125" y="300.0">Bathroom</text></g><g id="room_balcony"><polygon fill="rgb(107,142,35)" fill-opacity="0.7" points="404.21875,146.015625 404.21875,200.859375 446.40625,200.859375 446.40625,146.015625" stroke="black" stroke-width="1.5" /><text dominant-baseline="middle" fill="black" font-family="Arial" font-size="12px" font-weight="bold" text-anchor="middle" x="426.3671875" y="174.4921875">Balcony</text></g><rect fill="red" fill-opacity="0.9" height="31.640625" id="main_door" stroke="darkred" stroke-width="3" width="10.546875" x="326.171875" y="245.15625" /><text dominant-baseline="middle" fill="white" font-family="Arial" font-size="9px" font-weight="bold" text-anchor="middle" x="331.4453125" y="260.9765625">Main Door</text><text fill="black" font-family="Arial" font-size="18px" font-weight="bold" text-anchor="middle" x="400.0" y="30">Floor Plan - ID: 52721</text></svg>