<?xml version="1.0" encoding="utf-8" ?>
<svg baseProfile="full" height="600px" version="1.1" viewBox="0 0 800 600" width="800px" xmlns="http://www.w3.org/2000/svg" xmlns:ev="http://www.w3.org/2001/xml-events" xmlns:xlink="http://www.w3.org/1999/xlink"><defs /><rect fill="white" height="600" width="800" x="0" y="0" /><polygon fill="none" id="floor_plan_boundary" points="562.421875,108.046875 444.296875,108.046875 442.1875,129.140625 254.453125,129.140625 254.453125,253.59375 237.578125,255.703125 237.578125,335.859375 254.453125,337.96875 254.453125,441.328125 237.578125,443.4375 237.578125,491.953125 321.953125,491.953125 324.0625,462.421875 351.484375,462.421875 353.59375,491.953125 437.96875,491.953125 440.078125,462.421875 488.59375,462.421875 490.703125,388.59375 551.875,388.59375 551.875,321.09375 562.421875,318.984375 562.421875,312.65625 543.4375,310.546875 541.328125,380.15625 480.15625,380.15625 480.15625,451.875 429.53125,453.984375 427.421875,483.515625 364.140625,483.515625 362.03125,453.984375 313.515625,453.984375 311.40625,483.515625 248.125,483.515625 246.015625,453.984375 262.890625,451.875 262.890625,327.421875 246.015625,325.3125 246.015625,266.25 262.890625,264.140625 262.890625,139.6875 452.734375,137.578125 454.84375,116.484375 551.875,116.484375 553.984375,262.03125 562.421875,262.03125" stroke="black" stroke-linecap="butt" stroke-linejoin="miter" stroke-width="4" /><g id="room_living_room"><polygon fill="rgb(238,232,170)" fill-opacity="0.7" points="551.875,192.421875 454.84375,192.421875 452.734375,266.25 328.28125,266.25 328.28125,297.890625 364.140625,300.0 364.140625,481.40625 427.421875,481.40625 429.53125,451.875 478.046875,451.875 478.046875,310.546875 551.875,308.4375" stroke="black" stroke-width="1.5" /><text dominant-baseline="middle" fill="black" font-family="Arial" font-size="12px" font-weight="bold" text-anchor="middle" x="441.1328125" y="337.96875">Living Room</text></g><g id="room_master_bedroom"><polygon fill="rgb(255,165,0)" fill-opacity="0.7" points="351.484375,310.546875 328.28125,310.546875 328.28125,337.96875 265.0,337.96875 265.0,451.875 248.125,453.984375 248.125,481.40625 311.40625,481.40625 313.515625,451.875 351.484375,451.875" stroke="black" stroke-width="1.5" /><text dominant-baseline="middle" fill="black" font-family="Arial" font-size="12px" font-weight="bold" text-anchor="middle" x="300.859375" y="397.03125">Master Bedroom</text></g><g id="room_common_room_2"><polygon fill="rgb(255,215,0)" fill-opacity="0.7" points="265.0,139.6875 265.0,255.703125 351.484375,253.59375 351.484375,139.6875" stroke="black" stroke-width="1.5" /><text dominant-baseline="middle" fill="black" font-family="Arial" font-size="12px" font-weight="bold" text-anchor="middle" x="309.296875" y="198.75">Common Room 2</text></g><g id="room_common_room"><polygon fill="rgb(255,215,0)" fill-opacity="0.7" points="364.140625,139.6875 364.140625,253.59375 442.1875,253.59375 442.1875,139.6875" stroke="black" stroke-width="1.5" /><text dominant-baseline="middle" fill="black" font-family="Arial" font-size="12px" font-weight="bold" text-anchor="middle" x="404.21875" y="197.6953125">Common Room</text></g><g id="room_kitchen"><polygon fill="rgb(240,128,128)" fill-opacity="0.7" points="454.84375,118.59375 454.84375,183.984375 551.875,183.984375 551.875,118.59375" stroke="black" stroke-width="1.5" /><text dominant-baseline="middle" fill="black" font-family="Arial" font-size="12px" font-weight="bold" text-anchor="middle" x="504.4140625" y="152.34375">Kitchen</text></g><g id="room_bathroom_2"><polygon fill="rgb(173,216,230)" fill-opacity="0.7" points="248.125,266.25 248.125,325.3125 319.84375,325.3125 317.734375,264.140625" stroke="black" stroke-width="1.5" /><text dominant-baseline="middle" fill="black" font-family="Arial" font-size="12px" font-weight="bold" text-anchor="middle" x="285.0390625" y="295.78125">Bathroom 2</text></g><g id="room_bathroom"><polygon fill="rgb(173,216,230)" fill-opacity="0.7" points="490.703125,321.09375 490.703125,378.046875 541.328125,378.046875 541.328125,321.09375" stroke="black" stroke-width="1.5" /><text dominant-baseline="middle" fill="black" font-family="Arial" font-size="12px" font-weight="bold" text-anchor="middle" x="517.0703125" y="350.625">Bathroom</text></g><rect fill="red" fill-opacity="0.9" height="48.515625" id="main_door" stroke="darkred" stroke-width="3" width="10.546875" x="553.984375" y="264.140625" /><text dominant-baseline="middle" fill="white" font-family="Arial" font-size="9px" font-weight="bold" text-anchor="middle" x="559.2578125" y="288.3984375">Main Door</text><text fill="black" font-family="Arial" font-size="18px" font-weight="bold" text-anchor="middle" x="400.0" y="30">Floor Plan - ID: 52740</text></svg>