<?xml version="1.0" encoding="utf-8" ?>
<svg baseProfile="full" height="600px" version="1.1" viewBox="0 0 800 600" width="800px" xmlns="http://www.w3.org/2000/svg" xmlns:ev="http://www.w3.org/2001/xml-events" xmlns:xlink="http://www.w3.org/1999/xlink"><defs /><rect fill="white" height="600" width="800" x="0" y="0" /><polygon fill="none" id="floor_plan_boundary" points="570.859375,213.515625 541.328125,213.515625 541.328125,192.421875 461.171875,192.421875 461.171875,213.515625 425.3125,213.515625 423.203125,112.265625 378.90625,112.265625 376.796875,152.34375 271.328125,152.34375 271.328125,160.78125 387.34375,160.78125 387.34375,122.8125 412.65625,120.703125 414.765625,221.953125 469.609375,221.953125 469.609375,200.859375 532.890625,200.859375 532.890625,221.953125 562.421875,224.0625 562.421875,325.3125 507.578125,327.421875 507.578125,432.890625 425.3125,435.0 423.203125,479.296875 269.21875,479.296875 267.109375,435.0 237.578125,432.890625 237.578125,152.34375 229.140625,152.34375 229.140625,443.4375 258.671875,445.546875 258.671875,487.734375 433.75,487.734375 435.859375,443.4375 516.015625,443.4375 516.015625,337.96875 570.859375,335.859375" stroke="black" stroke-linecap="butt" stroke-linejoin="miter" stroke-width="4" /><g id="room_living_room"><polygon fill="rgb(238,232,170)" fill-opacity="0.7" points="239.6875,162.890625 239.6875,432.890625 347.265625,432.890625 347.265625,327.421875 461.171875,327.421875 461.171875,297.890625 334.609375,300.0 332.5,221.953125 271.328125,221.953125 269.21875,162.890625" stroke="black" stroke-width="1.5" /><text dominant-baseline="middle" fill="black" font-family="Arial" font-size="12px" font-weight="bold" text-anchor="middle" x="351.484375" y="298.9453125">Living Room</text></g><g id="room_balcony"><polygon fill="rgb(107,142,35)" fill-opacity="0.7" points="423.203125,337.96875 359.921875,337.96875 359.921875,443.4375 269.21875,445.546875 269.21875,477.1875 423.203125,477.1875" stroke="black" stroke-width="1.5" /><text dominant-baseline="middle" fill="black" font-family="Arial" font-size="12px" font-weight="bold" text-anchor="middle" x="347.265625" y="408.6328125">Balcony</text></g><g id="room_master_bedroom"><polygon fill="rgb(255,165,0)" fill-opacity="0.7" points="469.609375,202.96875 469.609375,327.421875 560.3125,325.3125 560.3125,224.0625 532.890625,224.0625 532.890625,202.96875" stroke="black" stroke-width="1.5" /><text dominant-baseline="middle" fill="black" font-family="Arial" font-size="12px" font-weight="bold" text-anchor="middle" x="516.015625" y="266.25">Master Bedroom</text></g><g id="room_common_room"><polygon fill="rgb(255,215,0)" fill-opacity="0.7" points="435.859375,335.859375 435.859375,432.890625 505.46875,432.890625 505.46875,335.859375" stroke="black" stroke-width="1.5" /><text dominant-baseline="middle" fill="black" font-family="Arial" font-size="12px" font-weight="bold" text-anchor="middle" x="471.71875" y="385.4296875">Common Room</text></g><g id="room_common_room_2"><polygon fill="rgb(255,215,0)" fill-opacity="0.7" points="393.671875,224.0625 393.671875,289.453125 461.171875,289.453125 461.171875,224.0625" stroke="black" stroke-width="1.5" /><text dominant-baseline="middle" fill="black" font-family="Arial" font-size="12px" font-weight="bold" text-anchor="middle" x="428.4765625" y="257.8125">Common Room 2</text></g><g id="room_kitchen"><polygon fill="rgb(240,128,128)" fill-opacity="0.7" points="277.65625,162.890625 277.65625,213.515625 347.265625,211.40625 347.265625,162.890625" stroke="black" stroke-width="1.5" /><text dominant-baseline="middle" fill="black" font-family="Arial" font-size="12px" font-weight="bold" text-anchor="middle" x="313.515625" y="189.2578125">Kitchen</text></g><g id="room_balcony_2"><polygon fill="rgb(107,142,35)" fill-opacity="0.7" points="412.65625,122.8125 389.453125,122.8125 387.34375,162.890625 359.921875,162.890625 359.921875,211.40625 412.65625,211.40625" stroke="black" stroke-width="1.5" /><text dominant-baseline="middle" fill="black" font-family="Arial" font-size="12px" font-weight="bold" text-anchor="middle" x="387.34375" y="168.1640625">Balcony 2</text></g><g id="room_bathroom"><polygon fill="rgb(173,216,230)" fill-opacity="0.7" points="345.15625,224.0625 345.15625,287.34375 385.234375,289.453125 385.234375,224.0625" stroke="black" stroke-width="1.5" /><text dominant-baseline="middle" fill="black" font-family="Arial" font-size="12px" font-weight="bold" text-anchor="middle" x="366.25" y="257.8125">Bathroom</text></g><rect fill="red" fill-opacity="0.9" height="10.546875" id="main_door" stroke="darkred" stroke-width="3" width="31.640625" x="239.6875" y="152.34375" /><text dominant-baseline="middle" fill="white" font-family="Arial" font-size="9px" font-weight="bold" text-anchor="middle" x="255.5078125" y="157.6171875">Main Door</text><text fill="black" font-family="Arial" font-size="18px" font-weight="bold" text-anchor="middle" x="400.0" y="30">Floor Plan - ID: 52758</text></svg>