<?xml version="1.0" encoding="utf-8" ?>
<svg baseProfile="full" height="600px" version="1.1" viewBox="0 0 800 600" width="800px" xmlns="http://www.w3.org/2000/svg" xmlns:ev="http://www.w3.org/2001/xml-events" xmlns:xlink="http://www.w3.org/1999/xlink"><defs /><rect fill="white" height="600" width="800" x="0" y="0" /><polygon fill="none" id="floor_plan_boundary" points="619.375,135.46875 501.25,135.46875 505.46875,160.78125 511.796875,143.90625 610.9375,146.015625 610.9375,291.5625 583.515625,293.671875 581.40625,456.09375 189.0625,453.984375 189.0625,268.359375 250.234375,266.25 252.34375,302.109375 387.34375,302.109375 387.34375,196.640625 461.171875,194.53125 461.171875,162.890625 452.734375,152.34375 450.625,186.09375 378.90625,186.09375 376.796875,293.671875 262.890625,293.671875 260.78125,257.8125 180.625,257.8125 180.625,464.53125 591.953125,464.53125 591.953125,304.21875 619.375,302.109375" stroke="black" stroke-linecap="butt" stroke-linejoin="miter" stroke-width="4" /><g id="room_living_room"><polygon fill="rgb(238,232,170)" fill-opacity="0.7" points="499.140625,162.890625 463.28125,162.890625 461.171875,196.640625 389.453125,196.640625 389.453125,302.109375 340.9375,304.21875 340.9375,327.421875 385.234375,329.53125 385.234375,453.984375 499.140625,453.984375 499.140625,293.671875 530.78125,291.5625 530.78125,236.71875 499.140625,234.609375" stroke="black" stroke-width="1.5" /><text dominant-baseline="middle" fill="black" font-family="Arial" font-size="12px" font-weight="bold" text-anchor="middle" x="436.9140625" y="309.4921875">Living Room</text></g><g id="room_master_bedroom"><polygon fill="rgb(255,165,0)" fill-opacity="0.7" points="328.28125,304.21875 262.890625,304.21875 260.78125,340.078125 191.171875,340.078125 191.171875,453.984375 283.984375,453.984375 283.984375,329.53125 328.28125,327.421875" stroke="black" stroke-width="1.5" /><text dominant-baseline="middle" fill="black" font-family="Arial" font-size="12px" font-weight="bold" text-anchor="middle" x="260.78125" y="380.15625">Master Bedroom</text></g><g id="room_common_room_2"><polygon fill="rgb(255,215,0)" fill-opacity="0.7" points="511.796875,304.21875 511.796875,453.984375 581.40625,453.984375 581.40625,304.21875" stroke="black" stroke-width="1.5" /><text dominant-baseline="middle" fill="black" font-family="Arial" font-size="12px" font-weight="bold" text-anchor="middle" x="547.65625" y="380.15625">Common Room 2</text></g><g id="room_common_room"><polygon fill="rgb(255,215,0)" fill-opacity="0.7" points="296.640625,340.078125 296.640625,453.984375 372.578125,453.984375 372.578125,340.078125" stroke="black" stroke-width="1.5" /><text dominant-baseline="middle" fill="black" font-family="Arial" font-size="12px" font-weight="bold" text-anchor="middle" x="335.6640625" y="398.0859375">Common Room</text></g><g id="room_kitchen"><polygon fill="rgb(240,128,128)" fill-opacity="0.7" points="511.796875,146.015625 511.796875,224.0625 608.828125,224.0625 608.828125,146.015625" stroke="black" stroke-width="1.5" /><text dominant-baseline="middle" fill="black" font-family="Arial" font-size="12px" font-weight="bold" text-anchor="middle" x="561.3671875" y="186.09375">Kitchen</text></g><g id="room_bathroom"><polygon fill="rgb(173,216,230)" fill-opacity="0.7" points="191.171875,268.359375 191.171875,327.421875 250.234375,327.421875 250.234375,268.359375" stroke="black" stroke-width="1.5" /><text dominant-baseline="middle" fill="black" font-family="Arial" font-size="12px" font-weight="bold" text-anchor="middle" x="221.7578125" y="298.9453125">Bathroom</text></g><g id="room_bathroom_2"><polygon fill="rgb(173,216,230)" fill-opacity="0.7" points="539.21875,236.71875 539.21875,291.5625 581.40625,291.5625 581.40625,236.71875" stroke="black" stroke-width="1.5" /><text dominant-baseline="middle" fill="black" font-family="Arial" font-size="12px" font-weight="bold" text-anchor="middle" x="561.3671875" y="265.1953125">Bathroom 2</text></g><rect fill="red" fill-opacity="0.9" height="10.546875" id="main_door" stroke="darkred" stroke-width="3" width="44.296875" x="461.171875" y="152.34375" /><text dominant-baseline="middle" fill="white" font-family="Arial" font-size="9px" font-weight="bold" text-anchor="middle" x="483.3203125" y="157.6171875">Main Door</text><text fill="black" font-family="Arial" font-size="18px" font-weight="bold" text-anchor="middle" x="400.0" y="30">Floor Plan - ID: 52808</text></svg>