<?xml version="1.0" encoding="utf-8" ?>
<svg baseProfile="full" height="600px" version="1.1" viewBox="0 0 800 600" width="800px" xmlns="http://www.w3.org/2000/svg" xmlns:ev="http://www.w3.org/2001/xml-events" xmlns:xlink="http://www.w3.org/1999/xlink"><defs /><rect fill="white" height="600" width="800" x="0" y="0" /><polygon fill="none" id="floor_plan_boundary" points="239.6875,183.984375 239.6875,418.125 345.15625,418.125 347.265625,399.140625 370.46875,399.140625 372.578125,420.234375 427.421875,422.34375 427.421875,462.421875 560.3125,462.421875 560.3125,152.34375 551.875,162.890625 549.765625,453.984375 437.96875,453.984375 435.859375,411.796875 383.125,411.796875 381.015625,390.703125 336.71875,390.703125 334.609375,409.6875 248.125,407.578125 248.125,194.53125 381.015625,192.421875 383.125,146.015625 503.359375,146.015625 505.46875,160.78125 528.671875,160.78125 528.671875,152.34375 513.90625,150.234375 513.90625,137.578125 372.578125,137.578125 370.46875,183.984375" stroke="black" stroke-linecap="butt" stroke-linejoin="miter" stroke-width="4" /><g id="room_living_room"><polygon fill="rgb(238,232,170)" fill-opacity="0.7" points="437.96875,148.125 437.96875,181.875 452.734375,183.984375 452.734375,274.6875 359.921875,274.6875 359.921875,297.890625 448.515625,297.890625 450.625,388.59375 549.765625,388.59375 549.765625,162.890625" stroke="black" stroke-width="1.5" /><text dominant-baseline="middle" fill="black" font-family="Arial" font-size="12px" font-weight="bold" text-anchor="middle" x="455.8984375" y="269.4140625">Living Room</text></g><g id="room_master_bedroom"><polygon fill="rgb(255,165,0)" fill-opacity="0.7" points="250.234375,274.6875 250.234375,407.578125 334.609375,407.578125 334.609375,390.703125 351.484375,388.59375 351.484375,274.6875" stroke="black" stroke-width="1.5" /><text dominant-baseline="middle" fill="black" font-family="Arial" font-size="12px" font-weight="bold" text-anchor="middle" x="301.9140625" y="342.1875">Master Bedroom</text></g><g id="room_common_room"><polygon fill="rgb(255,215,0)" fill-opacity="0.7" points="359.921875,306.328125 359.921875,388.59375 381.015625,388.59375 383.125,409.6875 425.3125,409.6875 425.3125,390.703125 442.1875,388.59375 442.1875,306.328125" stroke="black" stroke-width="1.5" /><text dominant-baseline="middle" fill="black" font-family="Arial" font-size="12px" font-weight="bold" text-anchor="middle" x="402.109375" y="359.0625">Common Room</text></g><g id="room_common_room_2"><polygon fill="rgb(255,215,0)" fill-opacity="0.7" points="296.640625,194.53125 296.640625,266.25 389.453125,266.25 389.453125,194.53125" stroke="black" stroke-width="1.5" /><text dominant-baseline="middle" fill="black" font-family="Arial" font-size="12px" font-weight="bold" text-anchor="middle" x="344.1015625" y="231.4453125">Common Room 2</text></g><g id="room_balcony"><polygon fill="rgb(107,142,35)" fill-opacity="0.7" points="437.96875,401.25 437.96875,451.875 549.765625,451.875 549.765625,401.25" stroke="black" stroke-width="1.5" /><text dominant-baseline="middle" fill="black" font-family="Arial" font-size="12px" font-weight="bold" text-anchor="middle" x="494.921875" y="427.6171875">Balcony</text></g><g id="room_bathroom"><polygon fill="rgb(173,216,230)" fill-opacity="0.7" points="397.890625,194.53125 397.890625,266.25 440.078125,266.25 440.078125,194.53125" stroke="black" stroke-width="1.5" /><text dominant-baseline="middle" fill="black" font-family="Arial" font-size="12px" font-weight="bold" text-anchor="middle" x="420.0390625" y="231.4453125">Bathroom</text></g><g id="room_bathroom_2"><polygon fill="rgb(173,216,230)" fill-opacity="0.7" points="250.234375,194.53125 250.234375,266.25 288.203125,266.25 288.203125,194.53125" stroke="black" stroke-width="1.5" /><text dominant-baseline="middle" fill="black" font-family="Arial" font-size="12px" font-weight="bold" text-anchor="middle" x="270.2734375" y="231.4453125">Bathroom 2</text></g><g id="room_balcony_2"><polygon fill="rgb(107,142,35)" fill-opacity="0.7" points="383.125,148.125 383.125,181.875 425.3125,181.875 425.3125,148.125" stroke="black" stroke-width="1.5" /><text dominant-baseline="middle" fill="black" font-family="Arial" font-size="12px" font-weight="bold" text-anchor="middle" x="405.2734375" y="166.0546875">Balcony 2</text></g><rect fill="red" fill-opacity="0.9" height="10.546875" id="main_door" stroke="darkred" stroke-width="3" width="23.203125" x="530.78125" y="152.34375" /><text dominant-baseline="middle" fill="white" font-family="Arial" font-size="9px" font-weight="bold" text-anchor="middle" x="542.3828125" y="157.6171875">Main Door</text><text fill="black" font-family="Arial" font-size="18px" font-weight="bold" text-anchor="middle" x="400.0" y="30">Floor Plan - ID: 53032</text></svg>