<?xml version="1.0" encoding="utf-8" ?>
<svg baseProfile="full" height="600px" version="1.1" viewBox="0 0 800 600" width="800px" xmlns="http://www.w3.org/2000/svg" xmlns:ev="http://www.w3.org/2001/xml-events" xmlns:xlink="http://www.w3.org/1999/xlink"><defs /><rect fill="white" height="600" width="800" x="0" y="0" /><polygon fill="none" id="floor_plan_boundary" points="269.21875,129.140625 269.21875,243.046875 248.125,245.15625 248.125,451.875 368.359375,451.875 370.46875,494.0625 518.125,494.0625 518.125,394.921875 551.875,392.8125 551.875,361.171875 543.4375,361.171875 541.328125,384.375 509.6875,384.375 507.578125,485.625 381.015625,485.625 378.90625,443.4375 258.671875,443.4375 256.5625,255.703125 277.65625,253.59375 279.765625,137.578125 378.90625,137.578125 381.015625,114.375 541.328125,114.375 543.4375,331.640625 551.875,331.640625 551.875,105.9375 370.46875,105.9375 368.359375,129.140625" stroke="black" stroke-linecap="butt" stroke-linejoin="miter" stroke-width="4" /><g id="room_living_room"><polygon fill="rgb(238,232,170)" fill-opacity="0.7" points="334.609375,255.703125 334.609375,318.984375 381.015625,321.09375 381.015625,483.515625 507.578125,483.515625 507.578125,384.375 541.328125,382.265625 541.328125,255.703125" stroke="black" stroke-width="1.5" /><text dominant-baseline="middle" fill="black" font-family="Arial" font-size="12px" font-weight="bold" text-anchor="middle" x="439.0234375" y="370.6640625">Living Room</text></g><g id="room_master_bedroom"><polygon fill="rgb(255,165,0)" fill-opacity="0.7" points="258.671875,331.640625 258.671875,441.328125 368.359375,441.328125 368.359375,331.640625" stroke="black" stroke-width="1.5" /><text dominant-baseline="middle" fill="black" font-family="Arial" font-size="12px" font-weight="bold" text-anchor="middle" x="314.5703125" y="387.5390625">Master Bedroom</text></g><g id="room_common_room_2"><polygon fill="rgb(255,215,0)" fill-opacity="0.7" points="381.015625,116.484375 381.015625,243.046875 475.9375,243.046875 475.9375,116.484375" stroke="black" stroke-width="1.5" /><text dominant-baseline="middle" fill="black" font-family="Arial" font-size="12px" font-weight="bold" text-anchor="middle" x="429.53125" y="180.8203125">Common Room 2</text></g><g id="room_common_room"><polygon fill="rgb(255,215,0)" fill-opacity="0.7" points="279.765625,139.6875 279.765625,243.046875 368.359375,243.046875 368.359375,139.6875" stroke="black" stroke-width="1.5" /><text dominant-baseline="middle" fill="black" font-family="Arial" font-size="12px" font-weight="bold" text-anchor="middle" x="325.1171875" y="192.421875">Common Room</text></g><g id="room_kitchen"><polygon fill="rgb(240,128,128)" fill-opacity="0.7" points="488.59375,160.78125 488.59375,243.046875 541.328125,243.046875 541.328125,160.78125" stroke="black" stroke-width="1.5" /><text dominant-baseline="middle" fill="black" font-family="Arial" font-size="12px" font-weight="bold" text-anchor="middle" x="516.015625" y="202.96875">Kitchen</text></g><g id="room_bathroom"><polygon fill="rgb(173,216,230)" fill-opacity="0.7" points="258.671875,255.703125 258.671875,318.984375 321.953125,318.984375 321.953125,255.703125" stroke="black" stroke-width="1.5" /><text dominant-baseline="middle" fill="black" font-family="Arial" font-size="12px" font-weight="bold" text-anchor="middle" x="291.3671875" y="288.3984375">Bathroom</text></g><g id="room_balcony"><polygon fill="rgb(107,142,35)" fill-opacity="0.7" points="488.59375,116.484375 488.59375,148.125 541.328125,148.125 541.328125,116.484375" stroke="black" stroke-width="1.5" /><text dominant-baseline="middle" fill="black" font-family="Arial" font-size="12px" font-weight="bold" text-anchor="middle" x="516.015625" y="133.359375">Balcony</text></g><rect fill="red" fill-opacity="0.9" height="27.421875" id="main_door" stroke="darkred" stroke-width="3" width="10.546875" x="543.4375" y="333.75" /><text dominant-baseline="middle" fill="white" font-family="Arial" font-size="9px" font-weight="bold" text-anchor="middle" x="548.7109375" y="347.4609375">Main Door</text><text fill="black" font-family="Arial" font-size="18px" font-weight="bold" text-anchor="middle" x="400.0" y="30">Floor Plan - ID: 5315</text></svg>