<?xml version="1.0" encoding="utf-8" ?>
<svg baseProfile="full" height="600px" version="1.1" viewBox="0 0 800 600" width="800px" xmlns="http://www.w3.org/2000/svg" xmlns:ev="http://www.w3.org/2001/xml-events" xmlns:xlink="http://www.w3.org/1999/xlink"><defs /><rect fill="white" height="600" width="800" x="0" y="0" /><polygon fill="none" id="floor_plan_boundary" points="224.921875,131.25 224.921875,234.609375 267.109375,234.609375 269.21875,262.03125 277.65625,262.03125 277.65625,226.171875 233.359375,224.0625 235.46875,139.6875 532.890625,139.6875 535.0,255.703125 566.640625,257.8125 564.53125,460.3125 336.71875,453.984375 334.609375,318.984375 279.765625,318.984375 277.65625,291.5625 269.21875,291.5625 269.21875,327.421875 326.171875,329.53125 326.171875,462.421875 575.078125,468.75 575.078125,247.265625 543.4375,245.15625 543.4375,131.25" stroke="black" stroke-linecap="butt" stroke-linejoin="miter" stroke-width="4" /><g id="room_living_room"><polygon fill="rgb(238,232,170)" fill-opacity="0.7" points="336.71875,200.859375 336.71875,255.703125 279.765625,257.8125 279.765625,316.875 336.71875,318.984375 336.71875,416.015625 448.515625,416.015625 448.515625,318.984375 511.796875,316.875 511.796875,257.8125 446.40625,257.8125 444.296875,200.859375" stroke="black" stroke-width="1.5" /><text dominant-baseline="middle" fill="black" font-family="Arial" font-size="12px" font-weight="bold" text-anchor="middle" x="396.8359375" y="309.4921875">Living Room</text></g><g id="room_master_bedroom"><polygon fill="rgb(255,165,0)" fill-opacity="0.7" points="461.171875,329.53125 461.171875,458.203125 564.53125,458.203125 564.53125,329.53125" stroke="black" stroke-width="1.5" /><text dominant-baseline="middle" fill="black" font-family="Arial" font-size="12px" font-weight="bold" text-anchor="middle" x="513.90625" y="394.921875">Master Bedroom</text></g><g id="room_common_room_2"><polygon fill="rgb(255,215,0)" fill-opacity="0.7" points="235.46875,141.796875 235.46875,224.0625 277.65625,224.0625 279.765625,245.15625 324.0625,245.15625 324.0625,141.796875" stroke="black" stroke-width="1.5" /><text dominant-baseline="middle" fill="black" font-family="Arial" font-size="12px" font-weight="bold" text-anchor="middle" x="280.8203125" y="194.53125">Common Room 2</text></g><g id="room_common_room"><polygon fill="rgb(255,215,0)" fill-opacity="0.7" points="456.953125,141.796875 456.953125,245.15625 532.890625,245.15625 532.890625,141.796875" stroke="black" stroke-width="1.5" /><text dominant-baseline="middle" fill="black" font-family="Arial" font-size="12px" font-weight="bold" text-anchor="middle" x="495.9765625" y="194.53125">Common Room</text></g><g id="room_kitchen"><polygon fill="rgb(240,128,128)" fill-opacity="0.7" points="336.71875,141.796875 336.71875,188.203125 444.296875,188.203125 444.296875,141.796875" stroke="black" stroke-width="1.5" /><text dominant-baseline="middle" fill="black" font-family="Arial" font-size="12px" font-weight="bold" text-anchor="middle" x="391.5625" y="166.0546875">Kitchen</text></g><g id="room_balcony"><polygon fill="rgb(107,142,35)" fill-opacity="0.7" points="336.71875,428.671875 336.71875,451.875 448.515625,451.875 448.515625,428.671875" stroke="black" stroke-width="1.5" /><text dominant-baseline="middle" fill="black" font-family="Arial" font-size="12px" font-weight="bold" text-anchor="middle" x="393.671875" y="441.328125">Balcony</text></g><g id="room_bathroom"><polygon fill="rgb(173,216,230)" fill-opacity="0.7" points="524.453125,257.8125 524.453125,316.875 564.53125,316.875 564.53125,257.8125" stroke="black" stroke-width="1.5" /><text dominant-baseline="middle" fill="black" font-family="Arial" font-size="12px" font-weight="bold" text-anchor="middle" x="545.546875" y="288.3984375">Bathroom</text></g><rect fill="red" fill-opacity="0.9" height="27.421875" id="main_door" stroke="darkred" stroke-width="3" width="10.546875" x="269.21875" y="264.140625" /><text dominant-baseline="middle" fill="white" font-family="Arial" font-size="9px" font-weight="bold" text-anchor="middle" x="274.4921875" y="277.8515625">Main Door</text><text fill="black" font-family="Arial" font-size="18px" font-weight="bold" text-anchor="middle" x="400.0" y="30">Floor Plan - ID: 53227</text></svg>