<?xml version="1.0" encoding="utf-8" ?>
<svg baseProfile="full" height="600px" version="1.1" viewBox="0 0 800 600" width="800px" xmlns="http://www.w3.org/2000/svg" xmlns:ev="http://www.w3.org/2001/xml-events" xmlns:xlink="http://www.w3.org/1999/xlink"><defs /><rect fill="white" height="600" width="800" x="0" y="0" /><polygon fill="none" id="floor_plan_boundary" points="319.84375,84.84375 319.84375,112.265625 309.296875,114.375 309.296875,211.40625 317.734375,211.40625 317.734375,124.921875 328.28125,122.8125 330.390625,93.28125 456.953125,93.28125 459.0625,131.25 553.984375,133.359375 553.984375,464.53125 459.0625,466.640625 456.953125,506.71875 330.390625,506.71875 328.28125,466.640625 248.125,466.640625 246.015625,314.765625 317.734375,312.65625 317.734375,240.9375 309.296875,240.9375 307.1875,304.21875 237.578125,304.21875 237.578125,475.078125 317.734375,475.078125 319.84375,515.15625 467.5,515.15625 469.609375,475.078125 562.421875,475.078125 562.421875,122.8125 469.609375,122.8125 467.5,84.84375" stroke="black" stroke-linecap="butt" stroke-linejoin="miter" stroke-width="4" /><g id="room_living_room"><polygon fill="rgb(238,232,170)" fill-opacity="0.7" points="319.84375,190.3125 330.390625,504.609375 456.953125,504.609375 456.953125,304.21875 490.703125,302.109375 490.703125,264.140625 456.953125,262.03125 456.953125,190.3125" stroke="black" stroke-width="1.5" /><text dominant-baseline="middle" fill="black" font-family="Arial" font-size="12px" font-weight="bold" text-anchor="middle" x="406.328125" y="348.515625">Living Room</text></g><g id="room_master_bedroom"><polygon fill="rgb(255,165,0)" fill-opacity="0.7" points="469.609375,314.765625 469.609375,464.53125 551.875,464.53125 551.875,342.1875 492.8125,342.1875 490.703125,314.765625" stroke="black" stroke-width="1.5" /><text dominant-baseline="middle" fill="black" font-family="Arial" font-size="12px" font-weight="bold" text-anchor="middle" x="511.796875" y="390.703125">Master Bedroom</text></g><g id="room_common_room"><polygon fill="rgb(255,215,0)" fill-opacity="0.7" points="248.125,314.765625 248.125,464.53125 317.734375,464.53125 317.734375,314.765625" stroke="black" stroke-width="1.5" /><text dominant-baseline="middle" fill="black" font-family="Arial" font-size="12px" font-weight="bold" text-anchor="middle" x="283.984375" y="390.703125">Common Room</text></g><g id="room_common_room_2"><polygon fill="rgb(255,215,0)" fill-opacity="0.7" points="469.609375,133.359375 469.609375,251.484375 551.875,251.484375 551.875,133.359375" stroke="black" stroke-width="1.5" /><text dominant-baseline="middle" fill="black" font-family="Arial" font-size="12px" font-weight="bold" text-anchor="middle" x="511.796875" y="193.4765625">Common Room 2</text></g><g id="room_kitchen"><polygon fill="rgb(240,128,128)" fill-opacity="0.7" points="330.390625,95.390625 330.390625,122.8125 319.84375,124.921875 319.84375,177.65625 393.671875,177.65625 393.671875,95.390625" stroke="black" stroke-width="1.5" /><text dominant-baseline="middle" fill="black" font-family="Arial" font-size="12px" font-weight="bold" text-anchor="middle" x="357.8125" y="137.578125">Kitchen</text></g><g id="room_bathroom_2"><polygon fill="rgb(173,216,230)" fill-opacity="0.7" points="406.328125,95.390625 406.328125,177.65625 456.953125,177.65625 456.953125,95.390625" stroke="black" stroke-width="1.5" /><text dominant-baseline="middle" fill="black" font-family="Arial" font-size="12px" font-weight="bold" text-anchor="middle" x="432.6953125" y="137.578125">Bathroom 2</text></g><g id="room_bathroom"><polygon fill="rgb(173,216,230)" fill-opacity="0.7" points="503.359375,264.140625 503.359375,329.53125 551.875,329.53125 551.875,264.140625" stroke="black" stroke-width="1.5" /><text dominant-baseline="middle" fill="black" font-family="Arial" font-size="12px" font-weight="bold" text-anchor="middle" x="528.671875" y="297.890625">Bathroom</text></g><rect fill="red" fill-opacity="0.9" height="27.421875" id="main_door" stroke="darkred" stroke-width="3" width="10.546875" x="309.296875" y="213.515625" /><text dominant-baseline="middle" fill="white" font-family="Arial" font-size="9px" font-weight="bold" text-anchor="middle" x="314.5703125" y="227.2265625">Main Door</text><text fill="black" font-family="Arial" font-size="18px" font-weight="bold" text-anchor="middle" x="400.0" y="30">Floor Plan - ID: 53312</text></svg>