<?xml version="1.0" encoding="utf-8" ?>
<svg baseProfile="full" height="600px" version="1.1" viewBox="0 0 800 600" width="800px" xmlns="http://www.w3.org/2000/svg" xmlns:ev="http://www.w3.org/2001/xml-events" xmlns:xlink="http://www.w3.org/1999/xlink"><defs /><rect fill="white" height="600" width="800" x="0" y="0" /><polygon fill="none" id="floor_plan_boundary" points="254.453125,120.703125 254.453125,230.390625 222.8125,232.5 222.8125,354.84375 265.0,356.953125 265.0,479.296875 494.921875,479.296875 494.921875,439.21875 516.015625,437.109375 516.015625,310.546875 577.1875,308.4375 577.1875,295.78125 507.578125,300.0 507.578125,426.5625 486.484375,428.671875 484.375,470.859375 275.546875,470.859375 273.4375,346.40625 231.25,344.296875 231.25,243.046875 262.890625,240.9375 265.0,129.140625 362.03125,129.140625 364.140625,169.21875 503.359375,169.21875 505.46875,190.3125 566.640625,190.3125 568.75,266.25 577.1875,266.25 577.1875,181.875 516.015625,181.875 513.90625,160.78125 374.6875,160.78125 372.578125,120.703125" stroke="black" stroke-linecap="butt" stroke-linejoin="miter" stroke-width="4" /><g id="room_living_room"><polygon fill="rgb(238,232,170)" fill-opacity="0.7" points="433.75,171.328125 433.75,238.828125 332.5,240.9375 332.5,300.0 389.453125,302.109375 389.453125,426.5625 505.46875,426.5625 505.46875,300.0 566.640625,297.890625 566.640625,268.359375 505.46875,266.25 503.359375,171.328125" stroke="black" stroke-width="1.5" /><text dominant-baseline="middle" fill="black" font-family="Arial" font-size="12px" font-weight="bold" text-anchor="middle" x="450.625" y="300.0">Living Room</text></g><g id="room_master_bedroom"><polygon fill="rgb(255,165,0)" fill-opacity="0.7" points="376.796875,308.4375 332.5,308.4375 332.5,356.953125 275.546875,356.953125 275.546875,468.75 376.796875,468.75" stroke="black" stroke-width="1.5" /><text dominant-baseline="middle" fill="black" font-family="Arial" font-size="12px" font-weight="bold" text-anchor="middle" x="327.2265625" y="389.6484375">Master Bedroom</text></g><g id="room_common_room_2"><polygon fill="rgb(255,215,0)" fill-opacity="0.7" points="265.0,131.25 265.0,232.5 364.140625,232.5 362.03125,131.25" stroke="black" stroke-width="1.5" /><text dominant-baseline="middle" fill="black" font-family="Arial" font-size="12px" font-weight="bold" text-anchor="middle" x="315.625" y="182.9296875">Common Room 2</text></g><g id="room_common_room"><polygon fill="rgb(255,215,0)" fill-opacity="0.7" points="233.359375,243.046875 233.359375,344.296875 324.0625,344.296875 324.0625,240.9375" stroke="black" stroke-width="1.5" /><text dominant-baseline="middle" fill="black" font-family="Arial" font-size="12px" font-weight="bold" text-anchor="middle" x="279.765625" y="293.671875">Common Room</text></g><g id="room_kitchen"><polygon fill="rgb(240,128,128)" fill-opacity="0.7" points="513.90625,192.421875 513.90625,259.921875 566.640625,259.921875 566.640625,192.421875" stroke="black" stroke-width="1.5" /><text dominant-baseline="middle" fill="black" font-family="Arial" font-size="12px" font-weight="bold" text-anchor="middle" x="541.328125" y="227.2265625">Kitchen</text></g><g id="room_bathroom"><polygon fill="rgb(173,216,230)" fill-opacity="0.7" points="372.578125,171.328125 372.578125,232.5 425.3125,232.5 425.3125,171.328125" stroke="black" stroke-width="1.5" /><text dominant-baseline="middle" fill="black" font-family="Arial" font-size="12px" font-weight="bold" text-anchor="middle" x="400.0" y="202.96875">Bathroom</text></g><g id="room_balcony"><polygon fill="rgb(107,142,35)" fill-opacity="0.7" points="389.453125,439.21875 389.453125,468.75 484.375,468.75 484.375,439.21875" stroke="black" stroke-width="1.5" /><text dominant-baseline="middle" fill="black" font-family="Arial" font-size="12px" font-weight="bold" text-anchor="middle" x="437.96875" y="455.0390625">Balcony</text></g><rect fill="red" fill-opacity="0.9" height="27.421875" id="main_door" stroke="darkred" stroke-width="3" width="10.546875" x="568.75" y="268.359375" /><text dominant-baseline="middle" fill="white" font-family="Arial" font-size="9px" font-weight="bold" text-anchor="middle" x="574.0234375" y="282.0703125">Main Door</text><text fill="black" font-family="Arial" font-size="18px" font-weight="bold" text-anchor="middle" x="400.0" y="30">Floor Plan - ID: 53427</text></svg>