<?xml version="1.0" encoding="utf-8" ?>
<svg baseProfile="full" height="600px" version="1.1" viewBox="0 0 800 600" width="800px" xmlns="http://www.w3.org/2000/svg" xmlns:ev="http://www.w3.org/2001/xml-events" xmlns:xlink="http://www.w3.org/1999/xlink"><defs /><rect fill="white" height="600" width="800" x="0" y="0" /><polygon fill="none" id="floor_plan_boundary" points="267.109375,156.5625 267.109375,451.875 364.140625,451.875 366.25,487.734375 475.9375,487.734375 478.046875,472.96875 532.890625,472.96875 532.890625,308.4375 486.484375,306.328125 486.484375,316.875 524.453125,318.984375 522.34375,468.75 467.5,468.75 465.390625,479.296875 376.796875,479.296875 374.6875,443.4375 275.546875,441.328125 275.546875,167.109375 372.578125,165.0 374.6875,116.484375 484.375,116.484375 486.484375,276.796875 494.921875,276.796875 494.921875,112.265625 368.359375,112.265625 366.25,156.5625" stroke="black" stroke-linecap="butt" stroke-linejoin="miter" stroke-width="4" /><g id="room_living_room"><polygon fill="rgb(238,232,170)" fill-opacity="0.7" points="376.796875,167.109375 376.796875,270.46875 334.609375,272.578125 334.609375,327.421875 376.796875,329.53125 376.796875,405.46875 465.390625,405.46875 465.390625,308.4375 484.375,306.328125 484.375,167.109375" stroke="black" stroke-width="1.5" /><text dominant-baseline="middle" fill="black" font-family="Arial" font-size="12px" font-weight="bold" text-anchor="middle" x="410.546875" y="287.34375">Living Room</text></g><g id="room_master_bedroom"><polygon fill="rgb(255,165,0)" fill-opacity="0.7" points="277.65625,167.109375 277.65625,308.4375 326.171875,308.4375 324.0625,268.359375 364.140625,264.140625 364.140625,167.109375" stroke="black" stroke-width="1.5" /><text dominant-baseline="middle" fill="black" font-family="Arial" font-size="12px" font-weight="bold" text-anchor="middle" x="321.953125" y="238.828125">Master Bedroom</text></g><g id="room_common_room"><polygon fill="rgb(255,215,0)" fill-opacity="0.7" points="277.65625,316.875 277.65625,441.328125 364.140625,441.328125 364.140625,335.859375 328.28125,335.859375 326.171875,316.875" stroke="black" stroke-width="1.5" /><text dominant-baseline="middle" fill="black" font-family="Arial" font-size="12px" font-weight="bold" text-anchor="middle" x="321.953125" y="380.15625">Common Room</text></g><g id="room_kitchen"><polygon fill="rgb(240,128,128)" fill-opacity="0.7" points="376.796875,418.125 376.796875,477.1875 465.390625,477.1875 465.390625,418.125" stroke="black" stroke-width="1.5" /><text dominant-baseline="middle" fill="black" font-family="Arial" font-size="12px" font-weight="bold" text-anchor="middle" x="422.1484375" y="448.7109375">Kitchen</text></g><g id="room_balcony_2"><polygon fill="rgb(107,142,35)" fill-opacity="0.7" points="374.6875,118.59375 374.6875,154.453125 484.375,154.453125 484.375,118.59375" stroke="black" stroke-width="1.5" /><text dominant-baseline="middle" fill="black" font-family="Arial" font-size="12px" font-weight="bold" text-anchor="middle" x="430.5859375" y="137.578125">Balcony 2</text></g><g id="room_bathroom"><polygon fill="rgb(173,216,230)" fill-opacity="0.7" points="478.046875,318.984375 478.046875,405.46875 522.34375,405.46875 522.34375,318.984375" stroke="black" stroke-width="1.5" /><text dominant-baseline="middle" fill="black" font-family="Arial" font-size="12px" font-weight="bold" text-anchor="middle" x="501.25" y="363.28125">Bathroom</text></g><g id="room_balcony"><polygon fill="rgb(107,142,35)" fill-opacity="0.7" points="478.046875,418.125 478.046875,466.640625 522.34375,466.640625 522.34375,418.125" stroke="black" stroke-width="1.5" /><text dominant-baseline="middle" fill="black" font-family="Arial" font-size="12px" font-weight="bold" text-anchor="middle" x="501.25" y="443.4375">Balcony</text></g><rect fill="red" fill-opacity="0.9" height="27.421875" id="main_door" stroke="darkred" stroke-width="3" width="10.546875" x="486.484375" y="278.90625" /><text dominant-baseline="middle" fill="white" font-family="Arial" font-size="9px" font-weight="bold" text-anchor="middle" x="491.7578125" y="292.6171875">Main Door</text><text fill="black" font-family="Arial" font-size="18px" font-weight="bold" text-anchor="middle" x="400.0" y="30">Floor Plan - ID: 53512</text></svg>