<?xml version="1.0" encoding="utf-8" ?>
<svg baseProfile="full" height="600px" version="1.1" viewBox="0 0 800 600" width="800px" xmlns="http://www.w3.org/2000/svg" xmlns:ev="http://www.w3.org/2001/xml-events" xmlns:xlink="http://www.w3.org/1999/xlink"><defs /><rect fill="white" height="600" width="800" x="0" y="0" /><polygon fill="none" id="floor_plan_boundary" points="220.703125,177.65625 220.703125,348.515625 326.171875,348.515625 328.28125,422.34375 471.71875,422.34375 473.828125,401.25 579.296875,401.25 579.296875,177.65625 410.546875,177.65625 410.546875,186.09375 570.859375,188.203125 570.859375,390.703125 463.28125,392.8125 461.171875,413.90625 338.828125,413.90625 336.71875,340.078125 229.140625,337.96875 229.140625,188.203125 381.015625,186.09375 381.015625,177.65625" stroke="black" stroke-linecap="butt" stroke-linejoin="miter" stroke-width="4" /><g id="room_living_room"><polygon fill="rgb(238,232,170)" fill-opacity="0.7" points="370.46875,188.203125 372.578125,236.71875 336.71875,240.9375 338.828125,365.390625 463.28125,365.390625 463.28125,287.34375 501.25,285.234375 501.25,240.9375 463.28125,238.828125 463.28125,188.203125" stroke="black" stroke-width="1.5" /><text dominant-baseline="middle" fill="black" font-family="Arial" font-size="12px" font-weight="bold" text-anchor="middle" x="420.0390625" y="277.8515625">Living Room</text></g><g id="room_master_bedroom"><polygon fill="rgb(255,165,0)" fill-opacity="0.7" points="362.03125,188.203125 302.96875,188.203125 300.859375,240.9375 231.25,240.9375 231.25,337.96875 328.28125,337.96875 326.171875,236.71875 362.03125,232.5" stroke="black" stroke-width="1.5" /><text dominant-baseline="middle" fill="black" font-family="Arial" font-size="12px" font-weight="bold" text-anchor="middle" x="297.6953125" y="264.140625">Master Bedroom</text></g><g id="room_common_room"><polygon fill="rgb(255,215,0)" fill-opacity="0.7" points="471.71875,293.671875 473.828125,390.703125 568.75,390.703125 568.75,293.671875" stroke="black" stroke-width="1.5" /><text dominant-baseline="middle" fill="black" font-family="Arial" font-size="12px" font-weight="bold" text-anchor="middle" x="521.2890625" y="343.2421875">Common Room</text></g><g id="room_kitchen"><polygon fill="rgb(240,128,128)" fill-opacity="0.7" points="471.71875,188.203125 471.71875,232.5 568.75,232.5 568.75,188.203125" stroke="black" stroke-width="1.5" /><text dominant-baseline="middle" fill="black" font-family="Arial" font-size="12px" font-weight="bold" text-anchor="middle" x="521.2890625" y="211.40625">Kitchen</text></g><g id="room_balcony"><polygon fill="rgb(107,142,35)" fill-opacity="0.7" points="338.828125,378.046875 338.828125,411.796875 461.171875,411.796875 461.171875,378.046875" stroke="black" stroke-width="1.5" /><text dominant-baseline="middle" fill="black" font-family="Arial" font-size="12px" font-weight="bold" text-anchor="middle" x="401.0546875" y="395.9765625">Balcony</text></g><g id="room_bathroom_2"><polygon fill="rgb(173,216,230)" fill-opacity="0.7" points="231.25,188.203125 231.25,232.5 294.53125,232.5 294.53125,188.203125" stroke="black" stroke-width="1.5" /><text dominant-baseline="middle" fill="black" font-family="Arial" font-size="12px" font-weight="bold" text-anchor="middle" x="263.9453125" y="211.40625">Bathroom 2</text></g><g id="room_bathroom"><polygon fill="rgb(173,216,230)" fill-opacity="0.7" points="509.6875,240.9375 509.6875,285.234375 568.75,285.234375 568.75,240.9375" stroke="black" stroke-width="1.5" /><text dominant-baseline="middle" fill="black" font-family="Arial" font-size="12px" font-weight="bold" text-anchor="middle" x="540.2734375" y="264.140625">Bathroom</text></g><rect fill="red" fill-opacity="0.9" height="10.546875" id="main_door" stroke="darkred" stroke-width="3" width="27.421875" x="383.125" y="177.65625" /><text dominant-baseline="middle" fill="white" font-family="Arial" font-size="9px" font-weight="bold" text-anchor="middle" x="396.8359375" y="182.9296875">Main Door</text><text fill="black" font-family="Arial" font-size="18px" font-weight="bold" text-anchor="middle" x="400.0" y="30">Floor Plan - ID: 5376</text></svg>