<?xml version="1.0" encoding="utf-8" ?>
<svg baseProfile="full" height="600px" version="1.1" viewBox="0 0 800 600" width="800px" xmlns="http://www.w3.org/2000/svg" xmlns:ev="http://www.w3.org/2001/xml-events" xmlns:xlink="http://www.w3.org/1999/xlink"><defs /><rect fill="white" height="600" width="800" x="0" y="0" /><polygon fill="none" id="floor_plan_boundary" points="613.046875,82.734375 385.234375,82.734375 383.125,120.703125 186.953125,120.703125 186.953125,466.640625 294.53125,466.640625 296.640625,517.265625 418.984375,517.265625 418.984375,283.125 480.15625,281.015625 469.609375,272.578125 410.546875,272.578125 408.4375,508.828125 307.1875,508.828125 305.078125,458.203125 197.5,458.203125 197.5,129.140625 393.671875,129.140625 395.78125,91.171875 602.5,91.171875 604.609375,139.6875 587.734375,141.796875 585.625,167.109375 471.71875,167.109375 471.71875,247.265625 480.15625,247.265625 482.265625,175.546875 596.171875,175.546875 596.171875,152.34375 613.046875,150.234375" stroke="black" stroke-linecap="butt" stroke-linejoin="miter" stroke-width="4" /><g id="room_living_room"><polygon fill="rgb(238,232,170)" fill-opacity="0.7" points="469.609375,131.25 395.78125,131.25 393.671875,245.15625 262.890625,245.15625 262.890625,304.21875 307.1875,306.328125 307.1875,462.421875 408.4375,462.421875 408.4375,272.578125 469.609375,270.46875" stroke="black" stroke-width="1.5" /><text dominant-baseline="middle" fill="black" font-family="Arial" font-size="12px" font-weight="bold" text-anchor="middle" x="367.3046875" y="297.890625">Living Room</text></g><g id="room_master_bedroom"><polygon fill="rgb(255,165,0)" fill-opacity="0.7" points="294.53125,316.875 262.890625,316.875 260.78125,331.640625 197.5,331.640625 197.5,456.09375 294.53125,456.09375" stroke="black" stroke-width="1.5" /><text dominant-baseline="middle" fill="black" font-family="Arial" font-size="12px" font-weight="bold" text-anchor="middle" x="247.0703125" y="387.5390625">Master Bedroom</text></g><g id="room_common_room_2"><polygon fill="rgb(255,215,0)" fill-opacity="0.7" points="197.5,131.25 197.5,232.5 294.53125,232.5 294.53125,131.25" stroke="black" stroke-width="1.5" /><text dominant-baseline="middle" fill="black" font-family="Arial" font-size="12px" font-weight="bold" text-anchor="middle" x="247.0703125" y="182.9296875">Common Room 2</text></g><g id="room_kitchen"><polygon fill="rgb(240,128,128)" fill-opacity="0.7" points="482.265625,93.28125 482.265625,165.0 585.625,165.0 585.625,141.796875 602.5,139.6875 602.5,93.28125" stroke="black" stroke-width="1.5" /><text dominant-baseline="middle" fill="black" font-family="Arial" font-size="12px" font-weight="bold" text-anchor="middle" x="543.4375" y="130.1953125">Kitchen</text></g><g id="room_common_room"><polygon fill="rgb(255,215,0)" fill-opacity="0.7" points="307.1875,131.25 307.1875,232.5 383.125,232.5 383.125,131.25" stroke="black" stroke-width="1.5" /><text dominant-baseline="middle" fill="black" font-family="Arial" font-size="12px" font-weight="bold" text-anchor="middle" x="346.2109375" y="182.9296875">Common Room</text></g><g id="room_bathroom"><polygon fill="rgb(173,216,230)" fill-opacity="0.7" points="197.5,245.15625 197.5,318.984375 250.234375,318.984375 250.234375,245.15625" stroke="black" stroke-width="1.5" /><text dominant-baseline="middle" fill="black" font-family="Arial" font-size="12px" font-weight="bold" text-anchor="middle" x="224.921875" y="283.125">Bathroom</text></g><g id="room_balcony"><polygon fill="rgb(107,142,35)" fill-opacity="0.7" points="307.1875,475.078125 307.1875,506.71875 408.4375,506.71875 408.4375,475.078125" stroke="black" stroke-width="1.5" /><text dominant-baseline="middle" fill="black" font-family="Arial" font-size="12px" font-weight="bold" text-anchor="middle" x="358.8671875" y="491.953125">Balcony</text></g><g id="room_balcony_2"><polygon fill="rgb(107,142,35)" fill-opacity="0.7" points="395.78125,93.28125 395.78125,118.59375 469.609375,118.59375 469.609375,93.28125" stroke="black" stroke-width="1.5" /><text dominant-baseline="middle" fill="black" font-family="Arial" font-size="12px" font-weight="bold" text-anchor="middle" x="433.75" y="106.9921875">Balcony 2</text></g><rect fill="red" fill-opacity="0.9" height="27.421875" id="main_door" stroke="darkred" stroke-width="3" width="10.546875" x="471.71875" y="249.375" /><text dominant-baseline="middle" fill="white" font-family="Arial" font-size="9px" font-weight="bold" text-anchor="middle" x="476.9921875" y="263.0859375">Main Door</text><text fill="black" font-family="Arial" font-size="18px" font-weight="bold" text-anchor="middle" x="400.0" y="30">Floor Plan - ID: 53855</text></svg>