<?xml version="1.0" encoding="utf-8" ?>
<svg baseProfile="full" height="600px" version="1.1" viewBox="0 0 800 600" width="800px" xmlns="http://www.w3.org/2000/svg" xmlns:ev="http://www.w3.org/2001/xml-events" xmlns:xlink="http://www.w3.org/1999/xlink"><defs /><rect fill="white" height="600" width="800" x="0" y="0" /><polygon fill="none" id="floor_plan_boundary" points="279.765625,114.375 279.765625,209.296875 290.3125,209.296875 290.3125,122.8125 400.0,129.140625 402.109375,105.9375 452.734375,108.046875 452.734375,129.140625 469.609375,131.25 469.609375,285.234375 549.765625,287.34375 549.765625,470.859375 509.6875,472.96875 507.578125,494.0625 357.8125,494.0625 355.703125,435.0 321.953125,435.0 319.84375,460.3125 267.109375,460.3125 265.0,435.0 250.234375,432.890625 250.234375,323.203125 281.875,321.09375 281.875,257.8125 290.3125,251.484375 273.4375,247.265625 273.4375,310.546875 241.796875,312.65625 241.796875,443.4375 256.5625,445.546875 256.5625,468.75 330.390625,468.75 330.390625,445.546875 345.15625,443.4375 347.265625,502.5 518.125,502.5 520.234375,481.40625 558.203125,481.40625 558.203125,276.796875 478.046875,274.6875 478.046875,120.703125 461.171875,118.59375 461.171875,97.5 391.5625,97.5 389.453125,120.703125" stroke="black" stroke-linecap="butt" stroke-linejoin="miter" stroke-width="4" /><g id="room_living_room"><polygon fill="rgb(238,232,170)" fill-opacity="0.7" points="450.625,108.046875 402.109375,108.046875 400.0,131.25 357.8125,131.25 357.8125,213.515625 292.421875,215.625 283.984375,310.546875 355.703125,310.546875 357.8125,348.515625 431.640625,348.515625 431.640625,314.765625 389.453125,312.65625 389.453125,247.265625 467.5,245.15625 467.5,131.25 450.625,129.140625" stroke="black" stroke-width="1.5" /><text dominant-baseline="middle" fill="black" font-family="Arial" font-size="12px" font-weight="bold" text-anchor="middle" x="376.796875" y="229.3359375">Living Room</text></g><g id="room_master_bedroom"><polygon fill="rgb(255,165,0)" fill-opacity="0.7" points="444.296875,314.765625 450.625,491.953125 507.578125,491.953125 509.6875,470.859375 547.65625,470.859375 547.65625,340.078125 469.609375,340.078125 467.5,314.765625" stroke="black" stroke-width="1.5" /><text dominant-baseline="middle" fill="black" font-family="Arial" font-size="12px" font-weight="bold" text-anchor="middle" x="497.03125" y="404.4140625">Master Bedroom</text></g><g id="room_common_room_2"><polygon fill="rgb(255,215,0)" fill-opacity="0.7" points="252.34375,323.203125 252.34375,432.890625 267.109375,435.0 267.109375,458.203125 319.84375,458.203125 319.84375,435.0 345.15625,432.890625 345.15625,323.203125" stroke="black" stroke-width="1.5" /><text dominant-baseline="middle" fill="black" font-family="Arial" font-size="12px" font-weight="bold" text-anchor="middle" x="299.8046875" y="391.7578125">Common Room 2</text></g><g id="room_common_room"><polygon fill="rgb(255,215,0)" fill-opacity="0.7" points="357.8125,361.171875 357.8125,437.109375 437.96875,437.109375 437.96875,361.171875" stroke="black" stroke-width="1.5" /><text dominant-baseline="middle" fill="black" font-family="Arial" font-size="12px" font-weight="bold" text-anchor="middle" x="398.9453125" y="400.1953125">Common Room</text></g><g id="room_kitchen"><polygon fill="rgb(240,128,128)" fill-opacity="0.7" points="290.3125,124.921875 290.3125,202.96875 345.15625,202.96875 345.15625,124.921875" stroke="black" stroke-width="1.5" /><text dominant-baseline="middle" fill="black" font-family="Arial" font-size="12px" font-weight="bold" text-anchor="middle" x="318.7890625" y="165.0">Kitchen</text></g><g id="room_balcony"><polygon fill="rgb(107,142,35)" fill-opacity="0.7" points="357.8125,449.765625 357.8125,491.953125 437.96875,491.953125 437.96875,449.765625" stroke="black" stroke-width="1.5" /><text dominant-baseline="middle" fill="black" font-family="Arial" font-size="12px" font-weight="bold" text-anchor="middle" x="398.9453125" y="471.9140625">Balcony</text></g><g id="room_bathroom_2"><polygon fill="rgb(173,216,230)" fill-opacity="0.7" points="402.109375,257.8125 402.109375,302.109375 467.5,302.109375 467.5,257.8125" stroke="black" stroke-width="1.5" /><text dominant-baseline="middle" fill="black" font-family="Arial" font-size="12px" font-weight="bold" text-anchor="middle" x="435.859375" y="281.015625">Bathroom 2</text></g><g id="room_bathroom"><polygon fill="rgb(173,216,230)" fill-opacity="0.7" points="480.15625,287.34375 480.15625,327.421875 547.65625,327.421875 547.65625,287.34375" stroke="black" stroke-width="1.5" /><text dominant-baseline="middle" fill="black" font-family="Arial" font-size="12px" font-weight="bold" text-anchor="middle" x="514.9609375" y="308.4375">Bathroom</text></g><rect fill="red" fill-opacity="0.9" height="40.078125" id="main_door" stroke="darkred" stroke-width="3" width="10.546875" x="281.875" y="211.40625" /><text dominant-baseline="middle" fill="white" font-family="Arial" font-size="9px" font-weight="bold" text-anchor="middle" x="287.1484375" y="231.4453125">Main Door</text><text fill="black" font-family="Arial" font-size="18px" font-weight="bold" text-anchor="middle" x="400.0" y="30">Floor Plan - ID: 54247</text></svg>