<?xml version="1.0" encoding="utf-8" ?>
<svg baseProfile="full" height="600px" version="1.1" viewBox="0 0 800 600" width="800px" xmlns="http://www.w3.org/2000/svg" xmlns:ev="http://www.w3.org/2001/xml-events" xmlns:xlink="http://www.w3.org/1999/xlink"><defs /><rect fill="white" height="600" width="800" x="0" y="0" /><polygon fill="none" id="floor_plan_boundary" points="258.671875,122.8125 258.671875,224.0625 220.703125,226.171875 220.703125,447.65625 454.84375,447.65625 456.953125,532.03125 579.296875,532.03125 579.296875,304.21875 467.5,304.21875 465.390625,283.125 456.953125,283.125 456.953125,312.65625 570.859375,314.765625 568.75,523.59375 467.5,523.59375 465.390625,439.21875 229.140625,437.109375 229.140625,236.71875 267.109375,234.609375 267.109375,133.359375 465.390625,131.25 467.5,76.40625 530.78125,76.40625 532.890625,160.78125 456.953125,162.890625 456.953125,253.59375 465.390625,253.59375 465.390625,173.4375 541.328125,171.328125 541.328125,67.96875 456.953125,67.96875 454.84375,122.8125" stroke="black" stroke-linecap="butt" stroke-linejoin="miter" stroke-width="4" /><g id="room_living_room"><polygon fill="rgb(238,232,170)" fill-opacity="0.7" points="376.796875,133.359375 376.796875,232.5 292.421875,234.609375 292.421875,262.03125 330.390625,264.140625 332.5,437.109375 454.84375,437.109375 454.84375,133.359375" stroke="black" stroke-width="1.5" /><text dominant-baseline="middle" fill="black" font-family="Arial" font-size="12px" font-weight="bold" text-anchor="middle" x="374.6875" y="286.2890625">Living Room</text></g><g id="room_master_bedroom"><polygon fill="rgb(255,165,0)" fill-opacity="0.7" points="467.5,314.765625 467.5,479.296875 568.75,479.296875 568.75,369.609375 503.359375,369.609375 501.25,314.765625" stroke="black" stroke-width="1.5" /><text dominant-baseline="middle" fill="black" font-family="Arial" font-size="12px" font-weight="bold" text-anchor="middle" x="519.1796875" y="398.0859375">Master Bedroom</text></g><g id="room_master_bedroom_2"><polygon fill="rgb(255,165,0)" fill-opacity="0.7" points="321.953125,270.46875 292.421875,270.46875 294.53125,306.328125 288.203125,312.65625 231.25,310.546875 231.25,437.109375 319.84375,437.109375" stroke="black" stroke-width="1.5" /><text dominant-baseline="middle" fill="black" font-family="Arial" font-size="12px" font-weight="bold" text-anchor="middle" x="277.65625" y="354.84375">Master Bedroom 2</text></g><g id="room_common_room"><polygon fill="rgb(255,215,0)" fill-opacity="0.7" points="269.21875,133.359375 269.21875,226.171875 368.359375,226.171875 368.359375,133.359375" stroke="black" stroke-width="1.5" /><text dominant-baseline="middle" fill="black" font-family="Arial" font-size="12px" font-weight="bold" text-anchor="middle" x="319.84375" y="180.8203125">Common Room</text></g><g id="room_kitchen"><polygon fill="rgb(240,128,128)" fill-opacity="0.7" points="467.5,78.515625 467.5,160.78125 530.78125,160.78125 530.78125,78.515625" stroke="black" stroke-width="1.5" /><text dominant-baseline="middle" fill="black" font-family="Arial" font-size="12px" font-weight="bold" text-anchor="middle" x="500.1953125" y="120.703125">Kitchen</text></g><g id="room_bathroom_2"><polygon fill="rgb(173,216,230)" fill-opacity="0.7" points="283.984375,234.609375 231.25,236.71875 231.25,302.109375 283.984375,302.109375" stroke="black" stroke-width="1.5" /><text dominant-baseline="middle" fill="black" font-family="Arial" font-size="12px" font-weight="bold" text-anchor="middle" x="258.671875" y="269.4140625">Bathroom 2</text></g><g id="room_balcony"><polygon fill="rgb(107,142,35)" fill-opacity="0.7" points="467.5,491.953125 467.5,521.484375 568.75,521.484375 568.75,491.953125" stroke="black" stroke-width="1.5" /><text dominant-baseline="middle" fill="black" font-family="Arial" font-size="12px" font-weight="bold" text-anchor="middle" x="519.1796875" y="507.7734375">Balcony</text></g><g id="room_bathroom"><polygon fill="rgb(173,216,230)" fill-opacity="0.7" points="509.6875,314.765625 509.6875,361.171875 568.75,361.171875 568.75,314.765625" stroke="black" stroke-width="1.5" /><text dominant-baseline="middle" fill="black" font-family="Arial" font-size="12px" font-weight="bold" text-anchor="middle" x="540.2734375" y="339.0234375">Bathroom</text></g><rect fill="red" fill-opacity="0.9" height="27.421875" id="main_door" stroke="darkred" stroke-width="3" width="10.546875" x="456.953125" y="255.703125" /><text dominant-baseline="middle" fill="white" font-family="Arial" font-size="9px" font-weight="bold" text-anchor="middle" x="462.2265625" y="269.4140625">Main Door</text><text fill="black" font-family="Arial" font-size="18px" font-weight="bold" text-anchor="middle" x="400.0" y="30">Floor Plan - ID: 54243</text></svg>