<?xml version="1.0" encoding="utf-8" ?>
<svg baseProfile="full" height="600px" version="1.1" viewBox="0 0 800 600" width="800px" xmlns="http://www.w3.org/2000/svg" xmlns:ev="http://www.w3.org/2001/xml-events" xmlns:xlink="http://www.w3.org/1999/xlink"><defs /><rect fill="white" height="600" width="800" x="0" y="0" /><polygon fill="none" id="floor_plan_boundary" points="252.34375,108.046875 252.34375,257.8125 233.359375,259.921875 233.359375,462.421875 343.046875,462.421875 345.15625,491.953125 473.828125,491.953125 475.9375,443.4375 566.640625,443.4375 566.640625,327.421875 513.90625,327.421875 511.796875,302.109375 503.359375,302.109375 503.359375,335.859375 558.203125,337.96875 556.09375,435.0 465.390625,435.0 463.28125,483.515625 355.703125,483.515625 353.59375,453.984375 241.796875,451.875 241.796875,270.46875 260.78125,268.359375 262.890625,116.484375 343.046875,116.484375 345.15625,133.359375 446.40625,133.359375 448.515625,268.359375 511.796875,272.578125 511.796875,259.921875 456.953125,257.8125 456.953125,124.921875 355.703125,124.921875 353.59375,108.046875" stroke="black" stroke-linecap="butt" stroke-linejoin="miter" stroke-width="4" /><g id="room_living_room"><polygon fill="rgb(238,232,170)" fill-opacity="0.7" points="355.703125,200.859375 355.703125,268.359375 311.40625,270.46875 311.40625,323.203125 355.703125,325.3125 355.703125,432.890625 463.28125,432.890625 463.28125,308.4375 501.25,306.328125 501.25,270.46875 446.40625,268.359375 446.40625,200.859375" stroke="black" stroke-width="1.5" /><text dominant-baseline="middle" fill="black" font-family="Arial" font-size="12px" font-weight="bold" text-anchor="middle" x="407.3828125" y="317.9296875">Living Room</text></g><g id="room_master_bedroom"><polygon fill="rgb(255,165,0)" fill-opacity="0.7" points="243.90625,335.859375 243.90625,451.875 343.046875,451.875 343.046875,335.859375" stroke="black" stroke-width="1.5" /><text dominant-baseline="middle" fill="black" font-family="Arial" font-size="12px" font-weight="bold" text-anchor="middle" x="294.53125" y="394.921875">Master Bedroom</text></g><g id="room_common_room"><polygon fill="rgb(255,215,0)" fill-opacity="0.7" points="475.9375,318.984375 475.9375,432.890625 556.09375,432.890625 556.09375,337.96875 503.359375,337.96875 501.25,318.984375" stroke="black" stroke-width="1.5" /><text dominant-baseline="middle" fill="black" font-family="Arial" font-size="12px" font-weight="bold" text-anchor="middle" x="517.0703125" y="376.9921875">Common Room</text></g><g id="room_common_room_2"><polygon fill="rgb(255,215,0)" fill-opacity="0.7" points="262.890625,165.0 262.890625,257.8125 343.046875,257.8125 343.046875,165.0" stroke="black" stroke-width="1.5" /><text dominant-baseline="middle" fill="black" font-family="Arial" font-size="12px" font-weight="bold" text-anchor="middle" x="304.0234375" y="212.4609375">Common Room 2</text></g><g id="room_kitchen"><polygon fill="rgb(240,128,128)" fill-opacity="0.7" points="355.703125,135.46875 355.703125,192.421875 446.40625,192.421875 446.40625,135.46875" stroke="black" stroke-width="1.5" /><text dominant-baseline="middle" fill="black" font-family="Arial" font-size="12px" font-weight="bold" text-anchor="middle" x="402.109375" y="165.0">Kitchen</text></g><g id="room_balcony"><polygon fill="rgb(107,142,35)" fill-opacity="0.7" points="355.703125,445.546875 355.703125,481.40625 463.28125,481.40625 463.28125,445.546875" stroke="black" stroke-width="1.5" /><text dominant-baseline="middle" fill="black" font-family="Arial" font-size="12px" font-weight="bold" text-anchor="middle" x="410.546875" y="464.53125">Balcony</text></g><g id="room_bathroom"><polygon fill="rgb(173,216,230)" fill-opacity="0.7" points="243.90625,270.46875 243.90625,323.203125 302.96875,323.203125 302.96875,270.46875" stroke="black" stroke-width="1.5" /><text dominant-baseline="middle" fill="black" font-family="Arial" font-size="12px" font-weight="bold" text-anchor="middle" x="274.4921875" y="297.890625">Bathroom</text></g><g id="room_balcony_2"><polygon fill="rgb(107,142,35)" fill-opacity="0.7" points="262.890625,118.59375 262.890625,152.34375 343.046875,152.34375 343.046875,118.59375" stroke="black" stroke-width="1.5" /><text dominant-baseline="middle" fill="black" font-family="Arial" font-size="12px" font-weight="bold" text-anchor="middle" x="304.0234375" y="136.5234375">Balcony 2</text></g><rect fill="red" fill-opacity="0.9" height="27.421875" id="main_door" stroke="darkred" stroke-width="3" width="10.546875" x="503.359375" y="274.6875" /><text dominant-baseline="middle" fill="white" font-family="Arial" font-size="9px" font-weight="bold" text-anchor="middle" x="508.6328125" y="288.3984375">Main Door</text><text fill="black" font-family="Arial" font-size="18px" font-weight="bold" text-anchor="middle" x="400.0" y="30">Floor Plan - ID: 54293</text></svg>