<?xml version="1.0" encoding="utf-8" ?>
<svg baseProfile="full" height="600px" version="1.1" viewBox="0 0 800 600" width="800px" xmlns="http://www.w3.org/2000/svg" xmlns:ev="http://www.w3.org/2001/xml-events" xmlns:xlink="http://www.w3.org/1999/xlink"><defs /><rect fill="white" height="600" width="800" x="0" y="0" /><polygon fill="none" id="floor_plan_boundary" points="210.15625,158.671875 210.15625,253.59375 250.234375,255.703125 250.234375,245.15625 218.59375,243.046875 220.703125,167.109375 366.25,167.109375 368.359375,137.578125 524.453125,137.578125 526.5625,181.875 581.40625,183.984375 579.296875,416.015625 465.390625,416.015625 463.28125,462.421875 376.796875,462.421875 374.6875,289.453125 241.796875,285.234375 241.796875,297.890625 366.25,300.0 366.25,470.859375 473.828125,470.859375 475.9375,424.453125 589.84375,424.453125 589.84375,173.4375 537.109375,173.4375 535.0,129.140625 357.8125,129.140625 355.703125,158.671875" stroke="black" stroke-linecap="butt" stroke-linejoin="miter" stroke-width="4" /><g id="room_living_room"><polygon fill="rgb(238,232,170)" fill-opacity="0.7" points="283.984375,169.21875 283.984375,253.59375 252.34375,255.703125 252.34375,287.34375 374.6875,287.34375 376.796875,413.90625 482.265625,413.90625 482.265625,289.453125 524.453125,287.34375 524.453125,255.703125 357.8125,255.703125 355.703125,169.21875" stroke="black" stroke-width="1.5" /><text dominant-baseline="middle" fill="black" font-family="Arial" font-size="12px" font-weight="bold" text-anchor="middle" x="389.453125" y="292.6171875">Living Room</text></g><g id="room_master_bedroom"><polygon fill="rgb(255,165,0)" fill-opacity="0.7" points="494.921875,300.0 494.921875,413.90625 579.296875,413.90625 579.296875,300.0" stroke="black" stroke-width="1.5" /><text dominant-baseline="middle" fill="black" font-family="Arial" font-size="12px" font-weight="bold" text-anchor="middle" x="538.1640625" y="358.0078125">Master Bedroom</text></g><g id="room_common_room"><polygon fill="rgb(255,215,0)" fill-opacity="0.7" points="448.515625,139.6875 448.515625,243.046875 524.453125,243.046875 524.453125,139.6875" stroke="black" stroke-width="1.5" /><text dominant-baseline="middle" fill="black" font-family="Arial" font-size="12px" font-weight="bold" text-anchor="middle" x="487.5390625" y="192.421875">Common Room</text></g><g id="room_common_room_2"><polygon fill="rgb(255,215,0)" fill-opacity="0.7" points="368.359375,139.6875 368.359375,243.046875 435.859375,243.046875 435.859375,139.6875" stroke="black" stroke-width="1.5" /><text dominant-baseline="middle" fill="black" font-family="Arial" font-size="12px" font-weight="bold" text-anchor="middle" x="403.1640625" y="192.421875">Common Room 2</text></g><g id="room_kitchen"><polygon fill="rgb(240,128,128)" fill-opacity="0.7" points="220.703125,169.21875 220.703125,243.046875 271.328125,243.046875 271.328125,169.21875" stroke="black" stroke-width="1.5" /><text dominant-baseline="middle" fill="black" font-family="Arial" font-size="12px" font-weight="bold" text-anchor="middle" x="247.0703125" y="207.1875">Kitchen</text></g><g id="room_balcony"><polygon fill="rgb(107,142,35)" fill-opacity="0.7" points="376.796875,426.5625 376.796875,460.3125 463.28125,460.3125 463.28125,426.5625" stroke="black" stroke-width="1.5" /><text dominant-baseline="middle" fill="black" font-family="Arial" font-size="12px" font-weight="bold" text-anchor="middle" x="421.09375" y="444.4921875">Balcony</text></g><g id="room_bathroom_2"><polygon fill="rgb(173,216,230)" fill-opacity="0.7" points="537.109375,183.984375 537.109375,243.046875 579.296875,243.046875 579.296875,183.984375" stroke="black" stroke-width="1.5" /><text dominant-baseline="middle" fill="black" font-family="Arial" font-size="12px" font-weight="bold" text-anchor="middle" x="559.2578125" y="214.5703125">Bathroom 2</text></g><g id="room_bathroom"><polygon fill="rgb(173,216,230)" fill-opacity="0.7" points="537.109375,255.703125 537.109375,287.34375 579.296875,287.34375 579.296875,255.703125" stroke="black" stroke-width="1.5" /><text dominant-baseline="middle" fill="black" font-family="Arial" font-size="12px" font-weight="bold" text-anchor="middle" x="559.2578125" y="272.578125">Bathroom</text></g><rect fill="red" fill-opacity="0.9" height="27.421875" id="main_door" stroke="darkred" stroke-width="3" width="10.546875" x="241.796875" y="257.8125" /><text dominant-baseline="middle" fill="white" font-family="Arial" font-size="9px" font-weight="bold" text-anchor="middle" x="247.0703125" y="271.5234375">Main Door</text><text fill="black" font-family="Arial" font-size="18px" font-weight="bold" text-anchor="middle" x="400.0" y="30">Floor Plan - ID: 54692</text></svg>