<?xml version="1.0" encoding="utf-8" ?>
<svg baseProfile="full" height="600px" version="1.1" viewBox="0 0 800 600" width="800px" xmlns="http://www.w3.org/2000/svg" xmlns:ev="http://www.w3.org/2001/xml-events" xmlns:xlink="http://www.w3.org/1999/xlink"><defs /><rect fill="white" height="600" width="800" x="0" y="0" /><polygon fill="none" id="floor_plan_boundary" points="286.09375,97.5 286.09375,458.203125 383.125,458.203125 385.234375,502.5 513.90625,502.5 513.90625,306.328125 473.828125,306.328125 471.71875,285.234375 463.28125,285.234375 463.28125,314.765625 505.46875,316.875 503.359375,494.0625 395.78125,494.0625 393.671875,449.765625 294.53125,447.65625 294.53125,108.046875 484.375,105.9375 486.484375,175.546875 463.28125,177.65625 463.28125,251.484375 471.71875,251.484375 471.71875,188.203125 494.921875,186.09375 494.921875,97.5" stroke="black" stroke-linecap="butt" stroke-linejoin="miter" stroke-width="4" /><g id="room_living_room"><polygon fill="rgb(238,232,170)" fill-opacity="0.7" points="395.78125,188.203125 395.78125,257.8125 347.265625,259.921875 347.265625,304.21875 395.78125,306.328125 395.78125,447.65625 503.359375,447.65625 503.359375,316.875 461.171875,314.765625 461.171875,188.203125" stroke="black" stroke-width="1.5" /><text dominant-baseline="middle" fill="black" font-family="Arial" font-size="12px" font-weight="bold" text-anchor="middle" x="426.3671875" y="318.984375">Living Room</text></g><g id="room_common_room"><polygon fill="rgb(255,215,0)" fill-opacity="0.7" points="296.640625,316.875 296.640625,447.65625 383.125,447.65625 383.125,316.875" stroke="black" stroke-width="1.5" /><text dominant-baseline="middle" fill="black" font-family="Arial" font-size="12px" font-weight="bold" text-anchor="middle" x="340.9375" y="383.3203125">Common Room</text></g><g id="room_master_bedroom"><polygon fill="rgb(255,165,0)" fill-opacity="0.7" points="296.640625,108.046875 296.640625,228.28125 347.265625,228.28125 347.265625,251.484375 383.125,251.484375 383.125,108.046875" stroke="black" stroke-width="1.5" /><text dominant-baseline="middle" fill="black" font-family="Arial" font-size="12px" font-weight="bold" text-anchor="middle" x="340.9375" y="180.8203125">Master Bedroom</text></g><g id="room_kitchen"><polygon fill="rgb(240,128,128)" fill-opacity="0.7" points="395.78125,108.046875 395.78125,175.546875 484.375,175.546875 484.375,108.046875" stroke="black" stroke-width="1.5" /><text dominant-baseline="middle" fill="black" font-family="Arial" font-size="12px" font-weight="bold" text-anchor="middle" x="441.1328125" y="142.8515625">Kitchen</text></g><g id="room_balcony"><polygon fill="rgb(107,142,35)" fill-opacity="0.7" points="395.78125,460.3125 395.78125,491.953125 503.359375,491.953125 503.359375,460.3125" stroke="black" stroke-width="1.5" /><text dominant-baseline="middle" fill="black" font-family="Arial" font-size="12px" font-weight="bold" text-anchor="middle" x="450.625" y="477.1875">Balcony</text></g><g id="room_bathroom"><polygon fill="rgb(173,216,230)" fill-opacity="0.7" points="296.640625,240.9375 296.640625,304.21875 338.828125,304.21875 338.828125,240.9375" stroke="black" stroke-width="1.5" /><text dominant-baseline="middle" fill="black" font-family="Arial" font-size="12px" font-weight="bold" text-anchor="middle" x="318.7890625" y="273.6328125">Bathroom</text></g><rect fill="red" fill-opacity="0.9" height="31.640625" id="main_door" stroke="darkred" stroke-width="3" width="10.546875" x="463.28125" y="253.59375" /><text dominant-baseline="middle" fill="white" font-family="Arial" font-size="9px" font-weight="bold" text-anchor="middle" x="468.5546875" y="269.4140625">Main Door</text><text fill="black" font-family="Arial" font-size="18px" font-weight="bold" text-anchor="middle" x="400.0" y="30">Floor Plan - ID: 54792</text></svg>