<?xml version="1.0" encoding="utf-8" ?>
<svg baseProfile="full" height="600px" version="1.1" viewBox="0 0 800 600" width="800px" xmlns="http://www.w3.org/2000/svg" xmlns:ev="http://www.w3.org/2001/xml-events" xmlns:xlink="http://www.w3.org/1999/xlink"><defs /><rect fill="white" height="600" width="800" x="0" y="0" /><polygon fill="none" id="floor_plan_boundary" points="258.671875,196.640625 258.671875,337.96875 307.1875,340.078125 307.1875,464.53125 400.0,464.53125 402.109375,494.0625 541.328125,494.0625 541.328125,105.9375 467.5,105.9375 469.609375,139.6875 473.828125,110.15625 537.109375,112.265625 535.0,489.84375 408.4375,489.84375 406.328125,460.3125 313.515625,460.3125 311.40625,333.75 262.890625,331.640625 262.890625,202.96875 429.53125,200.859375 427.421875,135.46875 423.203125,196.640625" stroke="black" stroke-linecap="butt" stroke-linejoin="miter" stroke-width="4" /><g id="room_living_room"><polygon fill="rgb(238,232,170)" fill-opacity="0.7" points="431.640625,141.796875 431.640625,274.6875 366.25,276.796875 366.25,310.546875 431.640625,312.65625 431.640625,437.109375 535.0,437.109375 535.0,202.96875 467.5,202.96875 465.390625,141.796875" stroke="black" stroke-width="1.5" /><text dominant-baseline="middle" fill="black" font-family="Arial" font-size="12px" font-weight="bold" text-anchor="middle" x="451.6796875" y="290.5078125">Living Room</text></g><g id="room_master_bedroom"><polygon fill="rgb(255,165,0)" fill-opacity="0.7" points="313.515625,318.984375 313.515625,458.203125 423.203125,458.203125 423.203125,318.984375" stroke="black" stroke-width="1.5" /><text dominant-baseline="middle" fill="black" font-family="Arial" font-size="12px" font-weight="bold" text-anchor="middle" x="369.4140625" y="389.6484375">Master Bedroom</text></g><g id="room_common_room"><polygon fill="rgb(255,215,0)" fill-opacity="0.7" points="265.0,202.96875 265.0,331.640625 305.078125,331.640625 307.1875,310.546875 357.8125,310.546875 357.8125,202.96875" stroke="black" stroke-width="1.5" /><text dominant-baseline="middle" fill="black" font-family="Arial" font-size="12px" font-weight="bold" text-anchor="middle" x="312.4609375" y="268.359375">Common Room</text></g><g id="room_kitchen"><polygon fill="rgb(240,128,128)" fill-opacity="0.7" points="473.828125,112.265625 473.828125,194.53125 535.0,194.53125 535.0,112.265625" stroke="black" stroke-width="1.5" /><text dominant-baseline="middle" fill="black" font-family="Arial" font-size="12px" font-weight="bold" text-anchor="middle" x="505.46875" y="154.453125">Kitchen</text></g><g id="room_balcony"><polygon fill="rgb(107,142,35)" fill-opacity="0.7" points="408.4375,466.640625 408.4375,487.734375 535.0,487.734375 535.0,445.546875 431.640625,445.546875 433.75,462.421875 429.53125,466.640625" stroke="black" stroke-width="1.5" /><text dominant-baseline="middle" fill="black" font-family="Arial" font-size="12px" font-weight="bold" text-anchor="middle" x="472.7734375" y="467.6953125">Balcony</text></g><g id="room_bathroom"><polygon fill="rgb(173,216,230)" fill-opacity="0.7" points="366.25,202.96875 366.25,268.359375 423.203125,268.359375 423.203125,202.96875" stroke="black" stroke-width="1.5" /><text dominant-baseline="middle" fill="black" font-family="Arial" font-size="12px" font-weight="bold" text-anchor="middle" x="395.78125" y="236.71875">Bathroom</text></g><rect fill="red" fill-opacity="0.9" height="6.328125" id="main_door" stroke="darkred" stroke-width="3" width="40.078125" x="429.53125" y="135.46875" /><text dominant-baseline="middle" fill="white" font-family="Arial" font-size="9px" font-weight="bold" text-anchor="middle" x="449.5703125" y="138.6328125">Main Door</text><text fill="black" font-family="Arial" font-size="18px" font-weight="bold" text-anchor="middle" x="400.0" y="30">Floor Plan - ID: 54923</text></svg>