<?xml version="1.0" encoding="utf-8" ?>
<svg baseProfile="full" height="600px" version="1.1" viewBox="0 0 800 600" width="800px" xmlns="http://www.w3.org/2000/svg" xmlns:ev="http://www.w3.org/2001/xml-events" xmlns:xlink="http://www.w3.org/1999/xlink"><defs /><rect fill="white" height="600" width="800" x="0" y="0" /><polygon fill="none" id="floor_plan_boundary" points="248.125,236.71875 248.125,435.0 551.875,435.0 551.875,251.484375 484.375,251.484375 482.265625,188.203125 456.953125,188.203125 478.046875,194.53125 478.046875,255.703125 547.65625,257.8125 545.546875,430.78125 254.453125,430.78125 252.34375,243.046875 353.59375,240.9375 355.703125,169.21875 408.4375,169.21875 410.546875,192.421875 418.984375,188.203125 414.765625,165.0 349.375,165.0 347.265625,236.71875" stroke="black" stroke-linecap="butt" stroke-linejoin="miter" stroke-width="4" /><g id="room_living_room"><polygon fill="rgb(238,232,170)" fill-opacity="0.7" points="315.625,243.046875 315.625,302.109375 446.40625,306.328125 444.296875,382.265625 545.546875,382.265625 545.546875,257.8125 478.046875,257.8125 475.9375,194.53125 416.875,194.53125 414.765625,272.578125 349.375,272.578125 347.265625,243.046875" stroke="black" stroke-width="1.5" /><text dominant-baseline="middle" fill="black" font-family="Arial" font-size="12px" font-weight="bold" text-anchor="middle" x="431.640625" y="289.453125">Living Room</text></g><g id="room_master_bedroom"><polygon fill="rgb(255,165,0)" fill-opacity="0.7" points="347.265625,310.546875 315.625,310.546875 313.515625,318.984375 254.453125,318.984375 254.453125,428.671875 347.265625,428.671875" stroke="black" stroke-width="1.5" /><text dominant-baseline="middle" fill="black" font-family="Arial" font-size="12px" font-weight="bold" text-anchor="middle" x="301.9140625" y="370.6640625">Master Bedroom</text></g><g id="room_common_room"><polygon fill="rgb(255,215,0)" fill-opacity="0.7" points="355.703125,310.546875 355.703125,428.671875 435.859375,428.671875 435.859375,310.546875" stroke="black" stroke-width="1.5" /><text dominant-baseline="middle" fill="black" font-family="Arial" font-size="12px" font-weight="bold" text-anchor="middle" x="396.8359375" y="370.6640625">Common Room</text></g><g id="room_kitchen"><polygon fill="rgb(240,128,128)" fill-opacity="0.7" points="355.703125,171.328125 355.703125,264.140625 408.4375,264.140625 408.4375,171.328125" stroke="black" stroke-width="1.5" /><text dominant-baseline="middle" fill="black" font-family="Arial" font-size="12px" font-weight="bold" text-anchor="middle" x="383.125" y="218.7890625">Kitchen</text></g><g id="room_balcony"><polygon fill="rgb(107,142,35)" fill-opacity="0.7" points="444.296875,390.703125 444.296875,428.671875 545.546875,428.671875 545.546875,390.703125" stroke="black" stroke-width="1.5" /><text dominant-baseline="middle" fill="black" font-family="Arial" font-size="12px" font-weight="bold" text-anchor="middle" x="495.9765625" y="410.7421875">Balcony</text></g><g id="room_bathroom"><polygon fill="rgb(173,216,230)" fill-opacity="0.7" points="254.453125,243.046875 254.453125,310.546875 307.1875,310.546875 307.1875,243.046875" stroke="black" stroke-width="1.5" /><text dominant-baseline="middle" fill="black" font-family="Arial" font-size="12px" font-weight="bold" text-anchor="middle" x="281.875" y="277.8515625">Bathroom</text></g><rect fill="red" fill-opacity="0.9" height="6.328125" id="main_door" stroke="darkred" stroke-width="3" width="35.859375" x="421.09375" y="188.203125" /><text dominant-baseline="middle" fill="white" font-family="Arial" font-size="9px" font-weight="bold" text-anchor="middle" x="439.0234375" y="191.3671875">Main Door</text><text fill="black" font-family="Arial" font-size="18px" font-weight="bold" text-anchor="middle" x="400.0" y="30">Floor Plan - ID: 55020</text></svg>