<?xml version="1.0" encoding="utf-8" ?>
<svg baseProfile="full" height="600px" version="1.1" viewBox="0 0 800 600" width="800px" xmlns="http://www.w3.org/2000/svg" xmlns:ev="http://www.w3.org/2001/xml-events" xmlns:xlink="http://www.w3.org/1999/xlink"><defs /><rect fill="white" height="600" width="800" x="0" y="0" /><polygon fill="none" id="floor_plan_boundary" points="220.703125,194.53125 220.703125,304.21875 271.328125,306.328125 271.328125,422.34375 393.671875,422.34375 395.78125,481.40625 492.8125,481.40625 492.8125,424.453125 518.125,422.34375 518.125,306.328125 579.296875,304.21875 579.296875,181.875 513.90625,181.875 511.796875,139.6875 490.703125,139.6875 490.703125,148.125 503.359375,150.234375 503.359375,190.3125 570.859375,192.421875 570.859375,293.671875 509.6875,295.78125 509.6875,411.796875 484.375,413.90625 482.265625,472.96875 406.328125,472.96875 404.21875,413.90625 281.875,413.90625 279.765625,295.78125 229.140625,293.671875 231.25,202.96875 328.28125,202.96875 330.390625,179.765625 366.25,179.765625 368.359375,127.03125 444.296875,127.03125 446.40625,148.125 461.171875,148.125 454.84375,118.59375 357.8125,118.59375 357.8125,169.21875 319.84375,171.328125 317.734375,194.53125" stroke="black" stroke-linecap="butt" stroke-linejoin="miter" stroke-width="4" /><g id="room_living_room"><polygon fill="rgb(238,232,170)" fill-opacity="0.7" points="501.25,150.234375 454.84375,150.234375 454.84375,209.296875 395.78125,211.40625 393.671875,259.921875 338.828125,259.921875 338.828125,293.671875 395.78125,295.78125 395.78125,411.796875 507.578125,411.796875 507.578125,306.328125 488.59375,304.21875 488.59375,181.875 501.25,179.765625" stroke="black" stroke-width="1.5" /><text dominant-baseline="middle" fill="black" font-family="Arial" font-size="12px" font-weight="bold" text-anchor="middle" x="424.2578125" y="282.0703125">Living Room</text></g><g id="room_master_bedroom"><polygon fill="rgb(255,165,0)" fill-opacity="0.7" points="281.875,306.328125 281.875,411.796875 383.125,411.796875 383.125,306.328125" stroke="black" stroke-width="1.5" /><text dominant-baseline="middle" fill="black" font-family="Arial" font-size="12px" font-weight="bold" text-anchor="middle" x="333.5546875" y="360.1171875">Master Bedroom</text></g><g id="room_common_room"><polygon fill="rgb(255,215,0)" fill-opacity="0.7" points="231.25,205.078125 231.25,293.671875 330.390625,293.671875 330.390625,259.921875 317.734375,255.703125 319.84375,205.078125" stroke="black" stroke-width="1.5" /><text dominant-baseline="middle" fill="black" font-family="Arial" font-size="12px" font-weight="bold" text-anchor="middle" x="281.875" y="250.4296875">Common Room</text></g><g id="room_kitchen"><polygon fill="rgb(240,128,128)" fill-opacity="0.7" points="368.359375,129.140625 368.359375,169.21875 395.78125,171.328125 395.78125,202.96875 446.40625,202.96875 444.296875,129.140625" stroke="black" stroke-width="1.5" /><text dominant-baseline="middle" fill="black" font-family="Arial" font-size="12px" font-weight="bold" text-anchor="middle" x="408.4375" y="167.109375">Kitchen</text></g><g id="room_balcony_2"><polygon fill="rgb(107,142,35)" fill-opacity="0.7" points="501.25,234.609375 501.25,293.671875 568.75,293.671875 568.75,234.609375" stroke="black" stroke-width="1.5" /><text dominant-baseline="middle" fill="black" font-family="Arial" font-size="12px" font-weight="bold" text-anchor="middle" x="536.0546875" y="265.1953125">Balcony 2</text></g><g id="room_bathroom"><polygon fill="rgb(173,216,230)" fill-opacity="0.7" points="330.390625,181.875 328.28125,251.484375 383.125,251.484375 383.125,181.875" stroke="black" stroke-width="1.5" /><text dominant-baseline="middle" fill="black" font-family="Arial" font-size="12px" font-weight="bold" text-anchor="middle" x="356.7578125" y="217.734375">Bathroom</text></g><g id="room_balcony"><polygon fill="rgb(107,142,35)" fill-opacity="0.7" points="406.328125,424.453125 406.328125,470.859375 482.265625,470.859375 482.265625,424.453125" stroke="black" stroke-width="1.5" /><text dominant-baseline="middle" fill="black" font-family="Arial" font-size="12px" font-weight="bold" text-anchor="middle" x="445.3515625" y="448.7109375">Balcony</text></g><g id="room_room_8"><polygon fill="rgb(221,160,221)" fill-opacity="0.7" points="501.25,192.421875 501.25,221.953125 568.75,221.953125 568.75,192.421875" stroke="black" stroke-width="1.5" /><text dominant-baseline="middle" fill="black" font-family="Arial" font-size="12px" font-weight="bold" text-anchor="middle" x="536.0546875" y="208.2421875">Room 8</text></g><rect fill="red" fill-opacity="0.9" height="10.546875" id="main_door" stroke="darkred" stroke-width="3" width="27.421875" x="463.28125" y="139.6875" /><text dominant-baseline="middle" fill="white" font-family="Arial" font-size="9px" font-weight="bold" text-anchor="middle" x="476.9921875" y="144.9609375">Main Door</text><text fill="black" font-family="Arial" font-size="18px" font-weight="bold" text-anchor="middle" x="400.0" y="30">Floor Plan - ID: 55061</text></svg>