<?xml version="1.0" encoding="utf-8" ?>
<svg baseProfile="full" height="600px" version="1.1" viewBox="0 0 800 600" width="800px" xmlns="http://www.w3.org/2000/svg" xmlns:ev="http://www.w3.org/2001/xml-events" xmlns:xlink="http://www.w3.org/1999/xlink"><defs /><rect fill="white" height="600" width="800" x="0" y="0" /><polygon fill="none" id="floor_plan_boundary" points="210.15625,200.859375 210.15625,300.0 271.328125,302.109375 271.328125,426.5625 290.3125,428.671875 290.3125,447.65625 383.125,447.65625 385.234375,401.25 467.5,401.25 469.609375,426.5625 589.84375,426.5625 589.84375,152.34375 511.796875,152.34375 511.796875,160.78125 581.40625,162.890625 579.296875,418.125 480.15625,418.125 478.046875,392.8125 374.6875,392.8125 372.578125,439.21875 300.859375,439.21875 298.75,418.125 279.765625,416.015625 279.765625,291.5625 218.59375,289.453125 220.703125,209.296875 418.984375,209.296875 418.984375,162.890625 473.828125,160.78125 473.828125,152.34375 410.546875,152.34375 408.4375,200.859375" stroke="black" stroke-linecap="butt" stroke-linejoin="miter" stroke-width="4" /><g id="room_living_room"><polygon fill="rgb(238,232,170)" fill-opacity="0.7" points="340.9375,262.03125 340.9375,289.453125 478.046875,289.453125 480.15625,363.28125 579.296875,363.28125 579.296875,162.890625 480.15625,162.890625 478.046875,262.03125" stroke="black" stroke-width="1.5" /><text dominant-baseline="middle" fill="black" font-family="Arial" font-size="12px" font-weight="bold" text-anchor="middle" x="461.171875" y="264.140625">Living Room</text></g><g id="room_master_bedroom"><polygon fill="rgb(255,165,0)" fill-opacity="0.7" points="281.875,302.109375 281.875,416.015625 300.859375,418.125 300.859375,437.109375 372.578125,437.109375 372.578125,302.109375" stroke="black" stroke-width="1.5" /><text dominant-baseline="middle" fill="black" font-family="Arial" font-size="12px" font-weight="bold" text-anchor="middle" x="328.28125" y="370.6640625">Master Bedroom</text></g><g id="room_common_room_2"><polygon fill="rgb(255,215,0)" fill-opacity="0.7" points="220.703125,211.40625 220.703125,289.453125 332.5,289.453125 332.5,211.40625" stroke="black" stroke-width="1.5" /><text dominant-baseline="middle" fill="black" font-family="Arial" font-size="12px" font-weight="bold" text-anchor="middle" x="277.65625" y="251.484375">Common Room 2</text></g><g id="room_common_room"><polygon fill="rgb(255,215,0)" fill-opacity="0.7" points="385.234375,302.109375 385.234375,390.703125 467.5,390.703125 467.5,302.109375" stroke="black" stroke-width="1.5" /><text dominant-baseline="middle" fill="black" font-family="Arial" font-size="12px" font-weight="bold" text-anchor="middle" x="427.421875" y="347.4609375">Common Room</text></g><g id="room_kitchen"><polygon fill="rgb(240,128,128)" fill-opacity="0.7" points="421.09375,162.890625 421.09375,253.59375 467.5,253.59375 467.5,162.890625" stroke="black" stroke-width="1.5" /><text dominant-baseline="middle" fill="black" font-family="Arial" font-size="12px" font-weight="bold" text-anchor="middle" x="445.3515625" y="209.296875">Kitchen</text></g><g id="room_balcony"><polygon fill="rgb(107,142,35)" fill-opacity="0.7" points="480.15625,375.9375 480.15625,416.015625 579.296875,416.015625 579.296875,375.9375" stroke="black" stroke-width="1.5" /><text dominant-baseline="middle" fill="black" font-family="Arial" font-size="12px" font-weight="bold" text-anchor="middle" x="530.78125" y="397.03125">Balcony</text></g><g id="room_bathroom"><polygon fill="rgb(173,216,230)" fill-opacity="0.7" points="340.9375,211.40625 340.9375,253.59375 408.4375,253.59375 408.4375,211.40625" stroke="black" stroke-width="1.5" /><text dominant-baseline="middle" fill="black" font-family="Arial" font-size="12px" font-weight="bold" text-anchor="middle" x="375.7421875" y="233.5546875">Bathroom</text></g><rect fill="red" fill-opacity="0.9" height="10.546875" id="main_door" stroke="darkred" stroke-width="3" width="35.859375" x="475.9375" y="152.34375" /><text dominant-baseline="middle" fill="white" font-family="Arial" font-size="9px" font-weight="bold" text-anchor="middle" x="493.8671875" y="157.6171875">Main Door</text><text fill="black" font-family="Arial" font-size="18px" font-weight="bold" text-anchor="middle" x="400.0" y="30">Floor Plan - ID: 55139</text></svg>