<?xml version="1.0" encoding="utf-8" ?>
<svg baseProfile="full" height="600px" version="1.1" viewBox="0 0 800 600" width="800px" xmlns="http://www.w3.org/2000/svg" xmlns:ev="http://www.w3.org/2001/xml-events" xmlns:xlink="http://www.w3.org/1999/xlink"><defs /><rect fill="white" height="600" width="800" x="0" y="0" /><polygon fill="none" id="floor_plan_boundary" points="288.203125,118.59375 288.203125,487.734375 385.234375,487.734375 387.34375,515.15625 511.796875,515.15625 511.796875,340.078125 463.28125,340.078125 461.171875,321.09375 452.734375,321.09375 452.734375,344.296875 503.359375,346.40625 501.25,506.71875 397.890625,506.71875 395.78125,479.296875 296.640625,477.1875 296.640625,129.140625 383.125,127.03125 385.234375,93.28125 456.953125,93.28125 452.734375,283.125 461.171875,283.125 467.5,84.84375 374.6875,84.84375 372.578125,118.59375" stroke="black" stroke-linecap="butt" stroke-linejoin="miter" stroke-width="4" /><g id="room_living_room"><polygon fill="rgb(238,232,170)" fill-opacity="0.7" points="385.234375,209.296875 385.234375,262.03125 349.375,264.140625 349.375,323.203125 397.890625,325.3125 397.890625,504.609375 501.25,504.609375 501.25,346.40625 450.625,344.296875 450.625,209.296875" stroke="black" stroke-width="1.5" /><text dominant-baseline="middle" fill="black" font-family="Arial" font-size="12px" font-weight="bold" text-anchor="middle" x="426.3671875" y="358.0078125">Living Room</text></g><g id="room_master_bedroom"><polygon fill="rgb(255,165,0)" fill-opacity="0.7" points="298.75,335.859375 298.75,477.1875 385.234375,477.1875 385.234375,335.859375" stroke="black" stroke-width="1.5" /><text dominant-baseline="middle" fill="black" font-family="Arial" font-size="12px" font-weight="bold" text-anchor="middle" x="343.046875" y="407.578125">Master Bedroom</text></g><g id="room_common_room"><polygon fill="rgb(255,215,0)" fill-opacity="0.7" points="298.75,129.140625 298.75,251.484375 372.578125,251.484375 372.578125,129.140625" stroke="black" stroke-width="1.5" /><text dominant-baseline="middle" fill="black" font-family="Arial" font-size="12px" font-weight="bold" text-anchor="middle" x="336.71875" y="191.3671875">Common Room</text></g><g id="room_kitchen"><polygon fill="rgb(240,128,128)" fill-opacity="0.7" points="385.234375,129.140625 385.234375,200.859375 450.625,200.859375 450.625,129.140625" stroke="black" stroke-width="1.5" /><text dominant-baseline="middle" fill="black" font-family="Arial" font-size="12px" font-weight="bold" text-anchor="middle" x="418.984375" y="166.0546875">Kitchen</text></g><g id="room_bathroom"><polygon fill="rgb(173,216,230)" fill-opacity="0.7" points="298.75,264.140625 298.75,323.203125 340.9375,323.203125 340.9375,264.140625" stroke="black" stroke-width="1.5" /><text dominant-baseline="middle" fill="black" font-family="Arial" font-size="12px" font-weight="bold" text-anchor="middle" x="320.8984375" y="294.7265625">Bathroom</text></g><g id="room_balcony"><polygon fill="rgb(107,142,35)" fill-opacity="0.7" points="385.234375,95.390625 385.234375,116.484375 456.953125,116.484375 456.953125,95.390625" stroke="black" stroke-width="1.5" /><text dominant-baseline="middle" fill="black" font-family="Arial" font-size="12px" font-weight="bold" text-anchor="middle" x="422.1484375" y="106.9921875">Balcony</text></g><rect fill="red" fill-opacity="0.9" height="35.859375" id="main_door" stroke="darkred" stroke-width="3" width="10.546875" x="452.734375" y="285.234375" /><text dominant-baseline="middle" fill="white" font-family="Arial" font-size="9px" font-weight="bold" text-anchor="middle" x="458.0078125" y="303.1640625">Main Door</text><text fill="black" font-family="Arial" font-size="18px" font-weight="bold" text-anchor="middle" x="400.0" y="30">Floor Plan - ID: 55189</text></svg>