<?xml version="1.0" encoding="utf-8" ?>
<svg baseProfile="full" height="600px" version="1.1" viewBox="0 0 800 600" width="800px" xmlns="http://www.w3.org/2000/svg" xmlns:ev="http://www.w3.org/2001/xml-events" xmlns:xlink="http://www.w3.org/1999/xlink"><defs /><rect fill="white" height="600" width="800" x="0" y="0" /><polygon fill="none" id="floor_plan_boundary" points="528.671875,95.390625 459.0625,95.390625 456.953125,122.8125 271.328125,122.8125 271.328125,468.75 385.234375,468.75 387.34375,504.609375 528.671875,504.609375 528.671875,325.3125 469.609375,325.3125 467.5,308.4375 459.0625,308.4375 459.0625,333.75 520.234375,335.859375 518.125,496.171875 397.890625,496.171875 395.78125,460.3125 279.765625,458.203125 279.765625,133.359375 467.5,131.25 469.609375,103.828125 518.125,103.828125 520.234375,179.765625 459.0625,181.875 459.0625,266.25 467.5,266.25 467.5,192.421875 528.671875,190.3125" stroke="black" stroke-linecap="butt" stroke-linejoin="miter" stroke-width="4" /><g id="room_living_room"><polygon fill="rgb(238,232,170)" fill-opacity="0.7" points="385.234375,160.78125 385.234375,266.25 340.9375,268.359375 340.9375,316.875 397.890625,318.984375 397.890625,494.0625 518.125,494.0625 518.125,335.859375 456.953125,333.75 456.953125,160.78125" stroke="black" stroke-width="1.5" /><text dominant-baseline="middle" fill="black" font-family="Arial" font-size="12px" font-weight="bold" text-anchor="middle" x="430.5859375" y="328.4765625">Living Room</text></g><g id="room_master_bedroom"><polygon fill="rgb(255,165,0)" fill-opacity="0.7" points="385.234375,329.53125 281.875,337.96875 281.875,458.203125 385.234375,458.203125" stroke="black" stroke-width="1.5" /><text dominant-baseline="middle" fill="black" font-family="Arial" font-size="12px" font-weight="bold" text-anchor="middle" x="334.609375" y="394.921875">Master Bedroom</text></g><g id="room_common_room"><polygon fill="rgb(255,215,0)" fill-opacity="0.7" points="281.875,133.359375 281.875,255.703125 372.578125,255.703125 372.578125,133.359375" stroke="black" stroke-width="1.5" /><text dominant-baseline="middle" fill="black" font-family="Arial" font-size="12px" font-weight="bold" text-anchor="middle" x="328.28125" y="195.5859375">Common Room</text></g><g id="room_kitchen"><polygon fill="rgb(240,128,128)" fill-opacity="0.7" points="469.609375,105.9375 469.609375,179.765625 518.125,179.765625 518.125,105.9375" stroke="black" stroke-width="1.5" /><text dominant-baseline="middle" fill="black" font-family="Arial" font-size="12px" font-weight="bold" text-anchor="middle" x="494.921875" y="143.90625">Kitchen</text></g><g id="room_bathroom"><polygon fill="rgb(173,216,230)" fill-opacity="0.7" points="281.875,268.359375 281.875,329.53125 332.5,329.53125 332.5,268.359375" stroke="black" stroke-width="1.5" /><text dominant-baseline="middle" fill="black" font-family="Arial" font-size="12px" font-weight="bold" text-anchor="middle" x="308.2421875" y="300.0">Bathroom</text></g><g id="room_balcony"><polygon fill="rgb(107,142,35)" fill-opacity="0.7" points="385.234375,133.359375 385.234375,148.125 456.953125,148.125 456.953125,133.359375" stroke="black" stroke-width="1.5" /><text dominant-baseline="middle" fill="black" font-family="Arial" font-size="12px" font-weight="bold" text-anchor="middle" x="422.1484375" y="141.796875">Balcony</text></g><rect fill="red" fill-opacity="0.9" height="40.078125" id="main_door" stroke="darkred" stroke-width="3" width="10.546875" x="459.0625" y="268.359375" /><text dominant-baseline="middle" fill="white" font-family="Arial" font-size="9px" font-weight="bold" text-anchor="middle" x="464.3359375" y="288.3984375">Main Door</text><text fill="black" font-family="Arial" font-size="18px" font-weight="bold" text-anchor="middle" x="400.0" y="30">Floor Plan - ID: 55194</text></svg>