<?xml version="1.0" encoding="utf-8" ?>
<svg baseProfile="full" height="600px" version="1.1" viewBox="0 0 800 600" width="800px" xmlns="http://www.w3.org/2000/svg" xmlns:ev="http://www.w3.org/2001/xml-events" xmlns:xlink="http://www.w3.org/1999/xlink"><defs /><rect fill="white" height="600" width="800" x="0" y="0" /><polygon fill="none" id="floor_plan_boundary" points="362.03125,91.171875 362.03125,160.78125 336.71875,162.890625 336.71875,213.515625 267.109375,215.625 267.109375,386.484375 311.40625,388.59375 311.40625,485.625 433.75,483.515625 433.75,508.828125 532.890625,508.828125 532.890625,215.625 497.03125,213.515625 497.03125,224.0625 524.453125,226.171875 522.34375,500.390625 442.1875,500.390625 440.078125,479.296875 321.953125,477.1875 319.84375,378.046875 275.546875,375.9375 275.546875,226.171875 345.15625,224.0625 345.15625,173.4375 370.46875,171.328125 372.578125,99.609375 494.921875,99.609375 497.03125,183.984375 505.46875,183.984375 505.46875,91.171875" stroke="black" stroke-linecap="butt" stroke-linejoin="miter" stroke-width="4" /><g id="room_living_room"><polygon fill="rgb(238,232,170)" fill-opacity="0.7" points="410.546875,173.4375 400.0,276.796875 381.015625,278.90625 381.015625,314.765625 364.140625,316.875 364.140625,340.078125 421.09375,342.1875 421.09375,416.015625 522.34375,416.015625 522.34375,226.171875 494.921875,224.0625 494.921875,173.4375" stroke="black" stroke-width="1.5" /><text dominant-baseline="middle" fill="black" font-family="Arial" font-size="12px" font-weight="bold" text-anchor="middle" x="444.296875" y="295.78125">Living Room</text></g><g id="room_master_bedroom"><polygon fill="rgb(255,165,0)" fill-opacity="0.7" points="364.140625,352.734375 362.03125,388.59375 321.953125,388.59375 321.953125,475.078125 408.4375,475.078125 408.4375,352.734375" stroke="black" stroke-width="1.5" /><text dominant-baseline="middle" fill="black" font-family="Arial" font-size="12px" font-weight="bold" text-anchor="middle" x="366.25" y="414.9609375">Master Bedroom</text></g><g id="room_common_room_2"><polygon fill="rgb(255,215,0)" fill-opacity="0.7" points="277.65625,226.171875 277.65625,304.21875 368.359375,304.21875 368.359375,268.359375 387.34375,266.25 387.34375,226.171875" stroke="black" stroke-width="1.5" /><text dominant-baseline="middle" fill="black" font-family="Arial" font-size="12px" font-weight="bold" text-anchor="middle" x="333.5546875" y="266.25">Common Room 2</text></g><g id="room_balcony"><polygon fill="rgb(107,142,35)" fill-opacity="0.7" points="421.09375,428.671875 421.09375,477.1875 440.078125,477.1875 444.296875,481.40625 442.1875,498.28125 522.34375,498.28125 522.34375,428.671875" stroke="black" stroke-width="1.5" /><text dominant-baseline="middle" fill="black" font-family="Arial" font-size="12px" font-weight="bold" text-anchor="middle" x="472.7734375" y="464.53125">Balcony</text></g><g id="room_kitchen"><polygon fill="rgb(240,128,128)" fill-opacity="0.7" points="412.65625,101.71875 412.65625,160.78125 494.921875,160.78125 494.921875,101.71875" stroke="black" stroke-width="1.5" /><text dominant-baseline="middle" fill="black" font-family="Arial" font-size="12px" font-weight="bold" text-anchor="middle" x="454.84375" y="132.3046875">Kitchen</text></g><g id="room_common_room"><polygon fill="rgb(255,215,0)" fill-opacity="0.7" points="277.65625,316.875 277.65625,375.9375 351.484375,375.9375 351.484375,316.875" stroke="black" stroke-width="1.5" /><text dominant-baseline="middle" fill="black" font-family="Arial" font-size="12px" font-weight="bold" text-anchor="middle" x="315.625" y="347.4609375">Common Room</text></g><g id="room_bathroom"><polygon fill="rgb(173,216,230)" fill-opacity="0.7" points="347.265625,173.4375 347.265625,213.515625 402.109375,213.515625 402.109375,173.4375" stroke="black" stroke-width="1.5" /><text dominant-baseline="middle" fill="black" font-family="Arial" font-size="12px" font-weight="bold" text-anchor="middle" x="375.7421875" y="194.53125">Bathroom</text></g><g id="room_balcony_2"><polygon fill="rgb(107,142,35)" fill-opacity="0.7" points="372.578125,101.71875 372.578125,160.78125 400.0,160.78125 400.0,101.71875" stroke="black" stroke-width="1.5" /><text dominant-baseline="middle" fill="black" font-family="Arial" font-size="12px" font-weight="bold" text-anchor="middle" x="387.34375" y="132.3046875">Balcony 2</text></g><rect fill="red" fill-opacity="0.9" height="27.421875" id="main_door" stroke="darkred" stroke-width="3" width="10.546875" x="497.03125" y="186.09375" /><text dominant-baseline="middle" fill="white" font-family="Arial" font-size="9px" font-weight="bold" text-anchor="middle" x="502.3046875" y="199.8046875">Main Door</text><text fill="black" font-family="Arial" font-size="18px" font-weight="bold" text-anchor="middle" x="400.0" y="30">Floor Plan - ID: 55298</text></svg>