<?xml version="1.0" encoding="utf-8" ?>
<svg baseProfile="full" height="600px" version="1.1" viewBox="0 0 800 600" width="800px" xmlns="http://www.w3.org/2000/svg" xmlns:ev="http://www.w3.org/2001/xml-events" xmlns:xlink="http://www.w3.org/1999/xlink"><defs /><rect fill="white" height="600" width="800" x="0" y="0" /><polygon fill="none" id="floor_plan_boundary" points="292.421875,116.484375 292.421875,475.078125 381.015625,475.078125 383.125,502.5 507.578125,502.5 507.578125,346.40625 469.609375,344.296875 469.609375,272.578125 461.171875,272.578125 461.171875,354.84375 499.140625,356.953125 499.140625,491.953125 393.671875,494.0625 391.5625,466.640625 300.859375,464.53125 300.859375,127.03125 391.5625,124.921875 393.671875,105.9375 459.0625,105.9375 461.171875,243.046875 469.609375,243.046875 469.609375,97.5 383.125,97.5 381.015625,116.484375" stroke="black" stroke-linecap="butt" stroke-linejoin="miter" stroke-width="4" /><g id="room_living_room"><polygon fill="rgb(238,232,170)" fill-opacity="0.7" points="393.671875,183.984375 393.671875,259.921875 357.8125,262.03125 357.8125,321.09375 393.671875,323.203125 393.671875,491.953125 497.03125,491.953125 497.03125,356.953125 459.0625,354.84375 459.0625,183.984375" stroke="black" stroke-width="1.5" /><text dominant-baseline="middle" fill="black" font-family="Arial" font-size="12px" font-weight="bold" text-anchor="middle" x="428.4765625" y="339.0234375">Living Room</text></g><g id="room_master_bedroom"><polygon fill="rgb(255,165,0)" fill-opacity="0.7" points="302.96875,333.75 302.96875,464.53125 381.015625,464.53125 381.015625,333.75" stroke="black" stroke-width="1.5" /><text dominant-baseline="middle" fill="black" font-family="Arial" font-size="12px" font-weight="bold" text-anchor="middle" x="343.046875" y="400.1953125">Master Bedroom</text></g><g id="room_common_room"><polygon fill="rgb(255,215,0)" fill-opacity="0.7" points="302.96875,127.03125 302.96875,249.375 381.015625,249.375 381.015625,127.03125" stroke="black" stroke-width="1.5" /><text dominant-baseline="middle" fill="black" font-family="Arial" font-size="12px" font-weight="bold" text-anchor="middle" x="343.046875" y="189.2578125">Common Room</text></g><g id="room_kitchen"><polygon fill="rgb(240,128,128)" fill-opacity="0.7" points="393.671875,108.046875 393.671875,175.546875 459.0625,175.546875 459.0625,108.046875" stroke="black" stroke-width="1.5" /><text dominant-baseline="middle" fill="black" font-family="Arial" font-size="12px" font-weight="bold" text-anchor="middle" x="427.421875" y="142.8515625">Kitchen</text></g><g id="room_bathroom"><polygon fill="rgb(173,216,230)" fill-opacity="0.7" points="302.96875,262.03125 302.96875,321.09375 349.375,321.09375 349.375,262.03125" stroke="black" stroke-width="1.5" /><text dominant-baseline="middle" fill="black" font-family="Arial" font-size="12px" font-weight="bold" text-anchor="middle" x="327.2265625" y="292.6171875">Bathroom</text></g><rect fill="red" fill-opacity="0.9" height="27.421875" id="main_door" stroke="darkred" stroke-width="3" width="10.546875" x="461.171875" y="245.15625" /><text dominant-baseline="middle" fill="white" font-family="Arial" font-size="9px" font-weight="bold" text-anchor="middle" x="466.4453125" y="258.8671875">Main Door</text><text fill="black" font-family="Arial" font-size="18px" font-weight="bold" text-anchor="middle" x="400.0" y="30">Floor Plan - ID: 55606</text></svg>