<?xml version="1.0" encoding="utf-8" ?>
<svg baseProfile="full" height="600px" version="1.1" viewBox="0 0 800 600" width="800px" xmlns="http://www.w3.org/2000/svg" xmlns:ev="http://www.w3.org/2001/xml-events" xmlns:xlink="http://www.w3.org/1999/xlink"><defs /><rect fill="white" height="600" width="800" x="0" y="0" /><polygon fill="none" id="floor_plan_boundary" points="332.5,120.703125 332.5,209.296875 252.34375,211.40625 250.234375,325.3125 269.21875,327.421875 269.21875,451.875 378.90625,451.875 381.015625,420.234375 421.09375,420.234375 423.203125,479.296875 551.875,479.296875 551.875,186.09375 484.375,186.09375 482.265625,137.578125 467.5,137.578125 473.828125,194.53125 543.4375,196.640625 543.4375,472.96875 433.75,475.078125 429.53125,411.796875 374.6875,411.796875 372.578125,447.65625 277.65625,445.546875 277.65625,316.875 256.5625,314.765625 256.5625,221.953125 340.9375,219.84375 343.046875,129.140625 423.203125,129.140625 423.203125,146.015625 437.96875,146.015625 429.53125,120.703125" stroke="black" stroke-linecap="butt" stroke-linejoin="miter" stroke-width="4" /><g id="room_living_room"><polygon fill="rgb(238,232,170)" fill-opacity="0.7" points="431.640625,148.125 431.640625,287.34375 340.9375,289.453125 340.9375,316.875 378.90625,316.875 381.015625,356.953125 431.640625,356.953125 433.75,409.6875 541.328125,409.6875 541.328125,196.640625 473.828125,196.640625 471.71875,148.125" stroke="black" stroke-width="1.5" /><text dominant-baseline="middle" fill="black" font-family="Arial" font-size="12px" font-weight="bold" text-anchor="middle" x="442.1875" y="279.9609375">Living Room</text></g><g id="room_master_bedroom"><polygon fill="rgb(255,165,0)" fill-opacity="0.7" points="279.765625,325.3125 279.765625,445.546875 372.578125,445.546875 372.578125,325.3125" stroke="black" stroke-width="1.5" /><text dominant-baseline="middle" fill="black" font-family="Arial" font-size="12px" font-weight="bold" text-anchor="middle" x="327.2265625" y="386.484375">Master Bedroom</text></g><g id="room_common_room"><polygon fill="rgb(255,215,0)" fill-opacity="0.7" points="343.046875,183.984375 340.9375,281.015625 423.203125,281.015625 421.09375,186.09375" stroke="black" stroke-width="1.5" /><text dominant-baseline="middle" fill="black" font-family="Arial" font-size="12px" font-weight="bold" text-anchor="middle" x="383.125" y="233.5546875">Common Room</text></g><g id="room_balcony_2"><polygon fill="rgb(107,142,35)" fill-opacity="0.7" points="258.671875,221.953125 258.671875,314.765625 332.5,316.875 332.5,221.953125" stroke="black" stroke-width="1.5" /><text dominant-baseline="middle" fill="black" font-family="Arial" font-size="12px" font-weight="bold" text-anchor="middle" x="296.640625" y="270.46875">Balcony 2</text></g><g id="room_balcony"><polygon fill="rgb(107,142,35)" fill-opacity="0.7" points="433.75,422.34375 433.75,472.96875 541.328125,472.96875 541.328125,422.34375" stroke="black" stroke-width="1.5" /><text dominant-baseline="middle" fill="black" font-family="Arial" font-size="12px" font-weight="bold" text-anchor="middle" x="488.59375" y="448.7109375">Balcony</text></g><g id="room_kitchen"><polygon fill="rgb(240,128,128)" fill-opacity="0.7" points="343.046875,131.25 343.046875,175.546875 423.203125,173.4375 423.203125,131.25" stroke="black" stroke-width="1.5" /><text dominant-baseline="middle" fill="black" font-family="Arial" font-size="12px" font-weight="bold" text-anchor="middle" x="384.1796875" y="154.453125">Kitchen</text></g><g id="room_bathroom"><polygon fill="rgb(173,216,230)" fill-opacity="0.7" points="381.015625,365.390625 381.015625,409.6875 421.09375,409.6875 421.09375,365.390625" stroke="black" stroke-width="1.5" /><text dominant-baseline="middle" fill="black" font-family="Arial" font-size="12px" font-weight="bold" text-anchor="middle" x="402.109375" y="388.59375">Bathroom</text></g><rect fill="red" fill-opacity="0.9" height="10.546875" id="main_door" stroke="darkred" stroke-width="3" width="27.421875" x="440.078125" y="137.578125" /><text dominant-baseline="middle" fill="white" font-family="Arial" font-size="9px" font-weight="bold" text-anchor="middle" x="453.7890625" y="142.8515625">Main Door</text><text fill="black" font-family="Arial" font-size="18px" font-weight="bold" text-anchor="middle" x="400.0" y="30">Floor Plan - ID: 55719</text></svg>