<?xml version="1.0" encoding="utf-8" ?>
<svg baseProfile="full" height="600px" version="1.1" viewBox="0 0 800 600" width="800px" xmlns="http://www.w3.org/2000/svg" xmlns:ev="http://www.w3.org/2001/xml-events" xmlns:xlink="http://www.w3.org/1999/xlink"><defs /><rect fill="white" height="600" width="800" x="0" y="0" /><polygon fill="none" id="floor_plan_boundary" points="286.09375,116.484375 286.09375,226.171875 254.453125,228.28125 254.453125,420.234375 368.359375,420.234375 370.46875,483.515625 503.359375,483.515625 503.359375,270.46875 473.828125,268.359375 473.828125,278.90625 494.921875,281.015625 494.921875,472.96875 381.015625,475.078125 378.90625,411.796875 262.890625,409.6875 262.890625,238.828125 294.53125,236.71875 296.640625,124.921875 516.015625,124.921875 518.125,160.78125 537.109375,162.890625 537.109375,228.28125 473.828125,230.390625 473.828125,238.828125 545.546875,234.609375 545.546875,152.34375 526.5625,150.234375 526.5625,116.484375" stroke="black" stroke-linecap="butt" stroke-linejoin="miter" stroke-width="4" /><g id="room_living_room"><polygon fill="rgb(238,232,170)" fill-opacity="0.7" points="338.828125,238.828125 338.828125,274.6875 381.015625,276.796875 381.015625,430.78125 492.8125,430.78125 492.8125,281.015625 471.71875,278.90625 473.828125,207.1875 410.546875,207.1875 408.4375,238.828125" stroke="black" stroke-width="1.5" /><text dominant-baseline="middle" fill="black" font-family="Arial" font-size="12px" font-weight="bold" text-anchor="middle" x="416.875" y="320.0390625">Living Room</text></g><g id="room_master_bedroom"><polygon fill="rgb(255,165,0)" fill-opacity="0.7" points="368.359375,287.34375 338.828125,287.34375 336.71875,314.765625 265.0,314.765625 265.0,409.6875 368.359375,409.6875" stroke="black" stroke-width="1.5" /><text dominant-baseline="middle" fill="black" font-family="Arial" font-size="12px" font-weight="bold" text-anchor="middle" x="317.734375" y="349.5703125">Master Bedroom</text></g><g id="room_common_room"><polygon fill="rgb(255,215,0)" fill-opacity="0.7" points="296.640625,127.03125 296.640625,226.171875 397.890625,226.171875 397.890625,127.03125" stroke="black" stroke-width="1.5" /><text dominant-baseline="middle" fill="black" font-family="Arial" font-size="12px" font-weight="bold" text-anchor="middle" x="348.3203125" y="177.65625">Common Room</text></g><g id="room_bathroom_2"><polygon fill="rgb(173,216,230)" fill-opacity="0.7" points="482.265625,127.03125 482.265625,228.28125 535.0,228.28125 535.0,162.890625 516.015625,160.78125 516.015625,127.03125" stroke="black" stroke-width="1.5" /><text dominant-baseline="middle" fill="black" font-family="Arial" font-size="12px" font-weight="bold" text-anchor="middle" x="509.6875" y="178.7109375">Bathroom 2</text></g><g id="room_kitchen"><polygon fill="rgb(240,128,128)" fill-opacity="0.7" points="410.546875,127.03125 410.546875,198.75 473.828125,198.75 473.828125,127.03125" stroke="black" stroke-width="1.5" /><text dominant-baseline="middle" fill="black" font-family="Arial" font-size="12px" font-weight="bold" text-anchor="middle" x="443.2421875" y="163.9453125">Kitchen</text></g><g id="room_bathroom"><polygon fill="rgb(173,216,230)" fill-opacity="0.7" points="265.0,238.828125 265.0,306.328125 330.390625,306.328125 330.390625,238.828125" stroke="black" stroke-width="1.5" /><text dominant-baseline="middle" fill="black" font-family="Arial" font-size="12px" font-weight="bold" text-anchor="middle" x="298.75" y="273.6328125">Bathroom</text></g><g id="room_balcony"><polygon fill="rgb(107,142,35)" fill-opacity="0.7" points="381.015625,443.4375 381.015625,472.96875 492.8125,472.96875 492.8125,443.4375" stroke="black" stroke-width="1.5" /><text dominant-baseline="middle" fill="black" font-family="Arial" font-size="12px" font-weight="bold" text-anchor="middle" x="437.96875" y="459.2578125">Balcony</text></g><rect fill="red" fill-opacity="0.9" height="27.421875" id="main_door" stroke="darkred" stroke-width="3" width="10.546875" x="473.828125" y="240.9375" /><text dominant-baseline="middle" fill="white" font-family="Arial" font-size="9px" font-weight="bold" text-anchor="middle" x="479.1015625" y="254.6484375">Main Door</text><text fill="black" font-family="Arial" font-size="18px" font-weight="bold" text-anchor="middle" x="400.0" y="30">Floor Plan - ID: 55746</text></svg>