<?xml version="1.0" encoding="utf-8" ?>
<svg baseProfile="full" height="600px" version="1.1" viewBox="0 0 800 600" width="800px" xmlns="http://www.w3.org/2000/svg" xmlns:ev="http://www.w3.org/2001/xml-events" xmlns:xlink="http://www.w3.org/1999/xlink"><defs /><rect fill="white" height="600" width="800" x="0" y="0" /><polygon fill="none" id="floor_plan_boundary" points="572.96875,93.28125 328.28125,95.390625 326.171875,141.796875 227.03125,141.796875 229.140625,506.71875 332.5,506.71875 336.71875,297.890625 507.578125,297.890625 507.578125,289.453125 326.171875,289.453125 328.28125,500.390625 235.46875,502.5 235.46875,152.34375 334.609375,150.234375 334.609375,99.609375 562.421875,101.71875 564.53125,162.890625 499.140625,165.0 499.140625,251.484375 507.578125,251.484375 507.578125,175.546875 572.96875,173.4375" stroke="black" stroke-linecap="butt" stroke-linejoin="miter" stroke-width="4" /><g id="room_living_room"><polygon fill="rgb(238,232,170)" fill-opacity="0.7" points="336.71875,152.34375 336.71875,257.8125 300.859375,259.921875 300.859375,308.4375 324.0625,308.4375 326.171875,287.34375 497.03125,287.34375 497.03125,152.34375" stroke="black" stroke-width="1.5" /><text dominant-baseline="middle" fill="black" font-family="Arial" font-size="12px" font-weight="bold" text-anchor="middle" x="400.0" y="231.4453125">Living Room</text></g><g id="room_master_bedroom"><polygon fill="rgb(255,165,0)" fill-opacity="0.7" points="237.578125,321.09375 237.578125,449.765625 324.0625,449.765625 324.0625,321.09375" stroke="black" stroke-width="1.5" /><text dominant-baseline="middle" fill="black" font-family="Arial" font-size="12px" font-weight="bold" text-anchor="middle" x="281.875" y="386.484375">Master Bedroom</text></g><g id="room_common_room"><polygon fill="rgb(255,215,0)" fill-opacity="0.7" points="237.578125,152.34375 237.578125,247.265625 324.0625,247.265625 324.0625,152.34375" stroke="black" stroke-width="1.5" /><text dominant-baseline="middle" fill="black" font-family="Arial" font-size="12px" font-weight="bold" text-anchor="middle" x="281.875" y="200.859375">Common Room</text></g><g id="room_balcony_2"><polygon fill="rgb(107,142,35)" fill-opacity="0.7" points="334.609375,101.71875 334.609375,139.6875 497.03125,139.6875 497.03125,101.71875" stroke="black" stroke-width="1.5" /><text dominant-baseline="middle" fill="black" font-family="Arial" font-size="12px" font-weight="bold" text-anchor="middle" x="416.875" y="121.7578125">Balcony 2</text></g><g id="room_balcony"><polygon fill="rgb(107,142,35)" fill-opacity="0.7" points="235.46875,462.421875 235.46875,500.390625 326.171875,500.390625 326.171875,462.421875" stroke="black" stroke-width="1.5" /><text dominant-baseline="middle" fill="black" font-family="Arial" font-size="12px" font-weight="bold" text-anchor="middle" x="281.875" y="482.4609375">Balcony</text></g><g id="room_kitchen"><polygon fill="rgb(240,128,128)" fill-opacity="0.7" points="509.6875,103.828125 509.6875,162.890625 562.421875,162.890625 562.421875,103.828125" stroke="black" stroke-width="1.5" /><text dominant-baseline="middle" fill="black" font-family="Arial" font-size="12px" font-weight="bold" text-anchor="middle" x="537.109375" y="134.4140625">Kitchen</text></g><g id="room_bathroom"><polygon fill="rgb(173,216,230)" fill-opacity="0.7" points="237.578125,259.921875 237.578125,308.4375 288.203125,308.4375 288.203125,259.921875" stroke="black" stroke-width="1.5" /><text dominant-baseline="middle" fill="black" font-family="Arial" font-size="12px" font-weight="bold" text-anchor="middle" x="263.9453125" y="285.234375">Bathroom</text></g><rect fill="red" fill-opacity="0.9" height="35.859375" id="main_door" stroke="darkred" stroke-width="3" width="10.546875" x="499.140625" y="253.59375" /><text dominant-baseline="middle" fill="white" font-family="Arial" font-size="9px" font-weight="bold" text-anchor="middle" x="504.4140625" y="271.5234375">Main Door</text><text fill="black" font-family="Arial" font-size="18px" font-weight="bold" text-anchor="middle" x="400.0" y="30">Floor Plan - ID: 55791</text></svg>