<?xml version="1.0" encoding="utf-8" ?>
<svg baseProfile="full" height="600px" version="1.1" viewBox="0 0 800 600" width="800px" xmlns="http://www.w3.org/2000/svg" xmlns:ev="http://www.w3.org/2001/xml-events" xmlns:xlink="http://www.w3.org/1999/xlink"><defs /><rect fill="white" height="600" width="800" x="0" y="0" /><polygon fill="none" id="floor_plan_boundary" points="220.703125,171.328125 220.703125,306.328125 256.5625,308.4375 256.5625,384.375 345.15625,384.375 347.265625,428.671875 471.71875,428.671875 473.828125,384.375 579.296875,384.375 579.296875,171.328125 501.25,171.328125 499.140625,190.3125 463.28125,190.3125 461.171875,198.75 357.8125,198.75 355.703125,171.328125 349.375,171.328125 347.265625,207.1875 471.71875,207.1875 473.828125,198.75 509.6875,198.75 511.796875,179.765625 570.859375,181.875 570.859375,373.828125 463.28125,375.9375 461.171875,420.234375 357.8125,420.234375 355.703125,375.9375 265.0,373.828125 265.0,297.890625 229.140625,295.78125 229.140625,181.875 311.40625,179.765625 311.40625,171.328125" stroke="black" stroke-linecap="butt" stroke-linejoin="miter" stroke-width="4" /><g id="room_living_room"><polygon fill="rgb(238,232,170)" fill-opacity="0.7" points="300.859375,181.875 300.859375,255.703125 357.8125,257.8125 357.8125,418.125 461.171875,418.125 461.171875,257.8125 499.140625,255.703125 499.140625,200.859375 347.265625,209.296875 345.15625,181.875" stroke="black" stroke-width="1.5" /><text dominant-baseline="middle" fill="black" font-family="Arial" font-size="12px" font-weight="bold" text-anchor="middle" x="401.0546875" y="301.0546875">Living Room</text></g><g id="room_master_bedroom"><polygon fill="rgb(255,165,0)" fill-opacity="0.7" points="473.828125,268.359375 473.828125,373.828125 568.75,373.828125 568.75,245.15625 511.796875,245.15625 509.6875,268.359375" stroke="black" stroke-width="1.5" /><text dominant-baseline="middle" fill="black" font-family="Arial" font-size="12px" font-weight="bold" text-anchor="middle" x="522.34375" y="310.546875">Master Bedroom</text></g><g id="room_common_room"><polygon fill="rgb(255,215,0)" fill-opacity="0.7" points="267.109375,268.359375 267.109375,373.828125 345.15625,373.828125 345.15625,268.359375" stroke="black" stroke-width="1.5" /><text dominant-baseline="middle" fill="black" font-family="Arial" font-size="12px" font-weight="bold" text-anchor="middle" x="307.1875" y="322.1484375">Common Room</text></g><g id="room_kitchen"><polygon fill="rgb(240,128,128)" fill-opacity="0.7" points="288.203125,181.875 231.25,181.875 231.25,295.78125 254.453125,295.78125 256.5625,255.703125 288.203125,255.703125" stroke="black" stroke-width="1.5" /><text dominant-baseline="middle" fill="black" font-family="Arial" font-size="12px" font-weight="bold" text-anchor="middle" x="260.78125" y="239.8828125">Kitchen</text></g><g id="room_bathroom"><polygon fill="rgb(173,216,230)" fill-opacity="0.7" points="511.796875,181.875 511.796875,236.71875 568.75,236.71875 568.75,181.875" stroke="black" stroke-width="1.5" /><text dominant-baseline="middle" fill="black" font-family="Arial" font-size="12px" font-weight="bold" text-anchor="middle" x="541.328125" y="210.3515625">Bathroom</text></g><rect fill="red" fill-opacity="0.9" height="10.546875" id="main_door" stroke="darkred" stroke-width="3" width="35.859375" x="313.515625" y="171.328125" /><text dominant-baseline="middle" fill="white" font-family="Arial" font-size="9px" font-weight="bold" text-anchor="middle" x="331.4453125" y="176.6015625">Main Door</text><text fill="black" font-family="Arial" font-size="18px" font-weight="bold" text-anchor="middle" x="400.0" y="30">Floor Plan - ID: 55846</text></svg>