<?xml version="1.0" encoding="utf-8" ?>
<svg baseProfile="full" height="600px" version="1.1" viewBox="0 0 800 600" width="800px" xmlns="http://www.w3.org/2000/svg" xmlns:ev="http://www.w3.org/2001/xml-events" xmlns:xlink="http://www.w3.org/1999/xlink"><defs /><rect fill="white" height="600" width="800" x="0" y="0" /><polygon fill="none" id="floor_plan_boundary" points="267.109375,141.796875 262.890625,302.109375 309.296875,304.21875 309.296875,460.3125 418.984375,460.3125 421.09375,426.5625 537.109375,426.5625 537.109375,141.796875 467.5,141.796875 467.5,150.234375 528.671875,152.34375 528.671875,416.015625 410.546875,418.125 408.4375,451.875 317.734375,449.765625 317.734375,293.671875 271.328125,291.5625 275.546875,152.34375 437.96875,150.234375 437.96875,141.796875" stroke="black" stroke-linecap="butt" stroke-linejoin="miter" stroke-width="4" /><g id="room_living_room"><polygon fill="rgb(238,232,170)" fill-opacity="0.7" points="340.9375,198.75 340.9375,230.390625 423.203125,232.5 423.203125,373.828125 526.5625,373.828125 526.5625,152.34375 423.203125,152.34375 421.09375,198.75" stroke="black" stroke-width="1.5" /><text dominant-baseline="middle" fill="black" font-family="Arial" font-size="12px" font-weight="bold" text-anchor="middle" x="434.8046875" y="264.140625">Living Room</text></g><g id="room_master_bedroom"><polygon fill="rgb(255,165,0)" fill-opacity="0.7" points="319.84375,348.515625 319.84375,449.765625 408.4375,449.765625 410.546875,348.515625" stroke="black" stroke-width="1.5" /><text dominant-baseline="middle" fill="black" font-family="Arial" font-size="12px" font-weight="bold" text-anchor="middle" x="366.25" y="400.1953125">Master Bedroom</text></g><g id="room_common_room"><polygon fill="rgb(255,215,0)" fill-opacity="0.7" points="319.84375,243.046875 319.84375,335.859375 410.546875,335.859375 410.546875,243.046875" stroke="black" stroke-width="1.5" /><text dominant-baseline="middle" fill="black" font-family="Arial" font-size="12px" font-weight="bold" text-anchor="middle" x="366.25" y="290.5078125">Common Room</text></g><g id="room_kitchen"><polygon fill="rgb(240,128,128)" fill-opacity="0.7" points="277.65625,152.34375 277.65625,230.390625 332.5,230.390625 332.5,152.34375" stroke="black" stroke-width="1.5" /><text dominant-baseline="middle" fill="black" font-family="Arial" font-size="12px" font-weight="bold" text-anchor="middle" x="306.1328125" y="192.421875">Kitchen</text></g><g id="room_balcony"><polygon fill="rgb(107,142,35)" fill-opacity="0.7" points="421.09375,386.484375 421.09375,416.015625 526.5625,416.015625 526.5625,386.484375" stroke="black" stroke-width="1.5" /><text dominant-baseline="middle" fill="black" font-family="Arial" font-size="12px" font-weight="bold" text-anchor="middle" x="474.8828125" y="402.3046875">Balcony</text></g><g id="room_bathroom"><polygon fill="rgb(173,216,230)" fill-opacity="0.7" points="340.9375,152.34375 340.9375,190.3125 410.546875,190.3125 410.546875,152.34375" stroke="black" stroke-width="1.5" /><text dominant-baseline="middle" fill="black" font-family="Arial" font-size="12px" font-weight="bold" text-anchor="middle" x="376.796875" y="172.3828125">Bathroom</text></g><g id="room_balcony_2"><polygon fill="rgb(107,142,35)" fill-opacity="0.7" points="273.4375,243.046875 273.4375,291.5625 307.1875,291.5625 307.1875,243.046875" stroke="black" stroke-width="1.5" /><text dominant-baseline="middle" fill="black" font-family="Arial" font-size="12px" font-weight="bold" text-anchor="middle" x="291.3671875" y="268.359375">Balcony 2</text></g><rect fill="red" fill-opacity="0.9" height="10.546875" id="main_door" stroke="darkred" stroke-width="3" width="27.421875" x="440.078125" y="141.796875" /><text dominant-baseline="middle" fill="white" font-family="Arial" font-size="9px" font-weight="bold" text-anchor="middle" x="453.7890625" y="147.0703125">Main Door</text><text fill="black" font-family="Arial" font-size="18px" font-weight="bold" text-anchor="middle" x="400.0" y="30">Floor Plan - ID: 56078</text></svg>