<?xml version="1.0" encoding="utf-8" ?>
<svg baseProfile="full" height="600px" version="1.1" viewBox="0 0 800 600" width="800px" xmlns="http://www.w3.org/2000/svg" xmlns:ev="http://www.w3.org/2001/xml-events" xmlns:xlink="http://www.w3.org/1999/xlink"><defs /><rect fill="white" height="600" width="800" x="0" y="0" /><polygon fill="none" id="floor_plan_boundary" points="227.03125,131.25 227.03125,156.5625 214.375,158.671875 214.375,468.75 357.8125,468.75 359.921875,451.875 391.5625,451.875 393.671875,468.75 492.8125,468.75 492.8125,236.71875 585.625,234.609375 585.625,177.65625 484.375,173.4375 484.375,186.09375 575.078125,186.09375 577.1875,224.0625 484.375,226.171875 482.265625,460.3125 404.21875,460.3125 402.109375,443.4375 349.375,443.4375 347.265625,460.3125 224.921875,460.3125 222.8125,169.21875 235.46875,167.109375 235.46875,141.796875 492.8125,143.90625 492.8125,131.25" stroke="black" stroke-linecap="butt" stroke-linejoin="miter" stroke-width="4" /><g id="room_living_room"><polygon fill="rgb(238,232,170)" fill-opacity="0.7" points="433.75,141.796875 433.75,234.609375 343.046875,236.71875 343.046875,335.859375 374.6875,337.96875 374.6875,441.328125 402.109375,441.328125 404.21875,458.203125 482.265625,458.203125 482.265625,236.71875 465.390625,234.609375 465.390625,177.65625 482.265625,175.546875 482.265625,141.796875" stroke="black" stroke-width="1.5" /><text dominant-baseline="middle" fill="black" font-family="Arial" font-size="12px" font-weight="bold" text-anchor="middle" x="413.7109375" y="301.0546875">Living Room</text></g><g id="room_common_room"><polygon fill="rgb(255,215,0)" fill-opacity="0.7" points="366.25,344.296875 343.046875,344.296875 338.828125,371.71875 224.921875,369.609375 224.921875,458.203125 347.265625,458.203125 349.375,441.328125 366.25,441.328125" stroke="black" stroke-width="1.5" /><text dominant-baseline="middle" fill="black" font-family="Arial" font-size="12px" font-weight="bold" text-anchor="middle" x="296.640625" y="402.3046875">Common Room</text></g><g id="room_master_bedroom"><polygon fill="rgb(255,165,0)" fill-opacity="0.7" points="275.546875,141.796875 275.546875,224.0625 425.3125,224.0625 425.3125,141.796875" stroke="black" stroke-width="1.5" /><text dominant-baseline="middle" fill="black" font-family="Arial" font-size="12px" font-weight="bold" text-anchor="middle" x="351.484375" y="183.984375">Master Bedroom</text></g><g id="room_common_room_2"><polygon fill="rgb(255,215,0)" fill-opacity="0.7" points="224.921875,281.015625 224.921875,361.171875 334.609375,361.171875 334.609375,281.015625" stroke="black" stroke-width="1.5" /><text dominant-baseline="middle" fill="black" font-family="Arial" font-size="12px" font-weight="bold" text-anchor="middle" x="280.8203125" y="322.1484375">Common Room 2</text></g><g id="room_bathroom"><polygon fill="rgb(173,216,230)" fill-opacity="0.7" points="478.046875,188.203125 478.046875,224.0625 575.078125,224.0625 575.078125,188.203125" stroke="black" stroke-width="1.5" /><text dominant-baseline="middle" fill="black" font-family="Arial" font-size="12px" font-weight="bold" text-anchor="middle" x="527.6171875" y="207.1875">Bathroom</text></g><g id="room_balcony"><polygon fill="rgb(107,142,35)" fill-opacity="0.7" points="237.578125,141.796875 237.578125,167.109375 224.921875,169.21875 224.921875,224.0625 267.109375,224.0625 267.109375,141.796875" stroke="black" stroke-width="1.5" /><text dominant-baseline="middle" fill="black" font-family="Arial" font-size="12px" font-weight="bold" text-anchor="middle" x="247.0703125" y="183.984375">Balcony</text></g><g id="room_kitchen"><polygon fill="rgb(240,128,128)" fill-opacity="0.7" points="254.453125,236.71875 254.453125,272.578125 334.609375,272.578125 334.609375,236.71875" stroke="black" stroke-width="1.5" /><text dominant-baseline="middle" fill="black" font-family="Arial" font-size="12px" font-weight="bold" text-anchor="middle" x="295.5859375" y="255.703125">Kitchen</text></g><rect fill="red" fill-opacity="0.9" height="27.421875" id="main_door" stroke="darkred" stroke-width="3" width="10.546875" x="484.375" y="146.015625" /><text dominant-baseline="middle" fill="white" font-family="Arial" font-size="9px" font-weight="bold" text-anchor="middle" x="489.6484375" y="159.7265625">Main Door</text><text fill="black" font-family="Arial" font-size="18px" font-weight="bold" text-anchor="middle" x="400.0" y="30">Floor Plan - ID: 56096</text></svg>