<?xml version="1.0" encoding="utf-8" ?>
<svg baseProfile="full" height="600px" version="1.1" viewBox="0 0 800 600" width="800px" xmlns="http://www.w3.org/2000/svg" xmlns:ev="http://www.w3.org/2001/xml-events" xmlns:xlink="http://www.w3.org/1999/xlink"><defs /><rect fill="white" height="600" width="800" x="0" y="0" /><polygon fill="none" id="floor_plan_boundary" points="222.8125,156.5625 222.8125,289.453125 265.0,291.5625 265.0,443.4375 359.921875,443.4375 362.03125,430.78125 393.671875,430.78125 395.78125,443.4375 547.65625,443.4375 549.765625,430.78125 577.1875,430.78125 577.1875,318.984375 513.90625,316.875 513.90625,281.015625 478.046875,278.90625 478.046875,217.734375 389.453125,217.734375 387.34375,156.5625 374.6875,156.5625 378.90625,226.171875 467.5,226.171875 469.609375,289.453125 505.46875,291.5625 505.46875,327.421875 568.75,329.53125 568.75,420.234375 539.21875,422.34375 537.109375,435.0 406.328125,435.0 404.21875,422.34375 351.484375,422.34375 349.375,435.0 275.546875,435.0 273.4375,281.015625 231.25,278.90625 231.25,167.109375 345.15625,165.0 345.15625,156.5625" stroke="black" stroke-linecap="butt" stroke-linejoin="miter" stroke-width="4" /><g id="room_living_room"><polygon fill="rgb(238,232,170)" fill-opacity="0.7" points="376.796875,167.109375 343.046875,167.109375 343.046875,289.453125 275.546875,291.5625 275.546875,432.890625 376.796875,420.234375 378.90625,316.875 503.359375,316.875 503.359375,291.5625 467.5,289.453125 467.5,228.28125 376.796875,226.171875" stroke="black" stroke-width="1.5" /><text dominant-baseline="middle" fill="black" font-family="Arial" font-size="12px" font-weight="bold" text-anchor="middle" x="390.5078125" y="301.0546875">Living Room</text></g><g id="room_master_bedroom"><polygon fill="rgb(255,165,0)" fill-opacity="0.7" points="480.15625,329.53125 480.15625,432.890625 537.109375,432.890625 539.21875,420.234375 566.640625,420.234375 566.640625,329.53125" stroke="black" stroke-width="1.5" /><text dominant-baseline="middle" fill="black" font-family="Arial" font-size="12px" font-weight="bold" text-anchor="middle" x="524.453125" y="382.265625">Master Bedroom</text></g><g id="room_common_room"><polygon fill="rgb(255,215,0)" fill-opacity="0.7" points="389.453125,329.53125 389.453125,420.234375 404.21875,420.234375 406.328125,432.890625 467.5,432.890625 467.5,329.53125" stroke="black" stroke-width="1.5" /><text dominant-baseline="middle" fill="black" font-family="Arial" font-size="12px" font-weight="bold" text-anchor="middle" x="429.53125" y="382.265625">Common Room</text></g><g id="room_kitchen"><polygon fill="rgb(240,128,128)" fill-opacity="0.7" points="233.359375,167.109375 233.359375,215.625 330.390625,215.625 330.390625,167.109375" stroke="black" stroke-width="1.5" /><text dominant-baseline="middle" fill="black" font-family="Arial" font-size="12px" font-weight="bold" text-anchor="middle" x="282.9296875" y="192.421875">Kitchen</text></g><g id="room_bathroom"><polygon fill="rgb(173,216,230)" fill-opacity="0.7" points="275.546875,228.28125 275.546875,278.90625 330.390625,278.90625 330.390625,228.28125" stroke="black" stroke-width="1.5" /><text dominant-baseline="middle" fill="black" font-family="Arial" font-size="12px" font-weight="bold" text-anchor="middle" x="304.0234375" y="254.6484375">Bathroom</text></g><g id="room_balcony"><polygon fill="rgb(107,142,35)" fill-opacity="0.7" points="233.359375,228.28125 233.359375,278.90625 262.890625,278.90625 262.890625,228.28125" stroke="black" stroke-width="1.5" /><text dominant-baseline="middle" fill="black" font-family="Arial" font-size="12px" font-weight="bold" text-anchor="middle" x="249.1796875" y="254.6484375">Balcony</text></g><rect fill="red" fill-opacity="0.9" height="10.546875" id="main_door" stroke="darkred" stroke-width="3" width="27.421875" x="347.265625" y="156.5625" /><text dominant-baseline="middle" fill="white" font-family="Arial" font-size="9px" font-weight="bold" text-anchor="middle" x="360.9765625" y="161.8359375">Main Door</text><text fill="black" font-family="Arial" font-size="18px" font-weight="bold" text-anchor="middle" x="400.0" y="30">Floor Plan - ID: 56162</text></svg>