<?xml version="1.0" encoding="utf-8" ?>
<svg baseProfile="full" height="600px" version="1.1" viewBox="0 0 800 600" width="800px" xmlns="http://www.w3.org/2000/svg" xmlns:ev="http://www.w3.org/2001/xml-events" xmlns:xlink="http://www.w3.org/1999/xlink"><defs /><rect fill="white" height="600" width="800" x="0" y="0" /><polygon fill="none" id="floor_plan_boundary" points="256.5625,122.8125 256.5625,472.96875 364.140625,472.96875 366.25,494.0625 469.609375,494.0625 469.609375,283.125 543.4375,276.796875 461.171875,272.578125 459.0625,485.625 376.796875,485.625 374.6875,464.53125 267.109375,464.53125 265.0,133.359375 364.140625,131.25 366.25,114.375 442.1875,114.375 444.296875,131.25 532.890625,131.25 535.0,234.609375 543.4375,234.609375 543.4375,122.8125 454.84375,122.8125 452.734375,105.9375 355.703125,105.9375 353.59375,122.8125" stroke="black" stroke-linecap="butt" stroke-linejoin="miter" stroke-width="4" /><g id="room_living_room"><polygon fill="rgb(238,232,170)" fill-opacity="0.7" points="366.25,177.65625 366.25,243.046875 328.28125,245.15625 328.28125,281.015625 366.25,283.125 366.25,437.109375 459.0625,437.109375 459.0625,272.578125 532.890625,270.46875 532.890625,224.0625 444.296875,236.71875 442.1875,177.65625" stroke="black" stroke-width="1.5" /><text dominant-baseline="middle" fill="black" font-family="Arial" font-size="12px" font-weight="bold" text-anchor="middle" x="431.640625" y="308.4375">Living Room</text></g><g id="room_master_bedroom"><polygon fill="rgb(255,165,0)" fill-opacity="0.7" points="353.59375,293.671875 328.28125,293.671875 324.0625,359.0625 267.109375,356.953125 267.109375,462.421875 353.59375,462.421875" stroke="black" stroke-width="1.5" /><text dominant-baseline="middle" fill="black" font-family="Arial" font-size="12px" font-weight="bold" text-anchor="middle" x="311.40625" y="379.1015625">Master Bedroom</text></g><g id="room_common_room_2"><polygon fill="rgb(255,215,0)" fill-opacity="0.7" points="267.109375,133.359375 267.109375,226.171875 326.171875,226.171875 328.28125,236.71875 353.59375,236.71875 353.59375,133.359375" stroke="black" stroke-width="1.5" /><text dominant-baseline="middle" fill="black" font-family="Arial" font-size="12px" font-weight="bold" text-anchor="middle" x="311.40625" y="186.09375">Common Room 2</text></g><g id="room_common_room"><polygon fill="rgb(255,215,0)" fill-opacity="0.7" points="454.84375,133.359375 454.84375,224.0625 486.484375,224.0625 488.59375,215.625 532.890625,215.625 532.890625,133.359375" stroke="black" stroke-width="1.5" /><text dominant-baseline="middle" fill="black" font-family="Arial" font-size="12px" font-weight="bold" text-anchor="middle" x="494.921875" y="179.765625">Common Room</text></g><g id="room_kitchen"><polygon fill="rgb(240,128,128)" fill-opacity="0.7" points="366.25,116.484375 366.25,169.21875 442.1875,169.21875 442.1875,116.484375" stroke="black" stroke-width="1.5" /><text dominant-baseline="middle" fill="black" font-family="Arial" font-size="12px" font-weight="bold" text-anchor="middle" x="405.2734375" y="143.90625">Kitchen</text></g><g id="room_balcony"><polygon fill="rgb(107,142,35)" fill-opacity="0.7" points="366.25,449.765625 366.25,462.421875 376.796875,464.53125 376.796875,483.515625 459.0625,483.515625 459.0625,449.765625" stroke="black" stroke-width="1.5" /><text dominant-baseline="middle" fill="black" font-family="Arial" font-size="12px" font-weight="bold" text-anchor="middle" x="413.7109375" y="467.6953125">Balcony</text></g><g id="room_bathroom"><polygon fill="rgb(173,216,230)" fill-opacity="0.7" points="267.109375,293.671875 267.109375,348.515625 319.84375,348.515625 319.84375,293.671875" stroke="black" stroke-width="1.5" /><text dominant-baseline="middle" fill="black" font-family="Arial" font-size="12px" font-weight="bold" text-anchor="middle" x="294.53125" y="322.1484375">Bathroom</text></g><g id="room_bathroom_2"><polygon fill="rgb(173,216,230)" fill-opacity="0.7" points="267.109375,234.609375 267.109375,281.015625 319.84375,281.015625 319.84375,234.609375" stroke="black" stroke-width="1.5" /><text dominant-baseline="middle" fill="black" font-family="Arial" font-size="12px" font-weight="bold" text-anchor="middle" x="294.53125" y="258.8671875">Bathroom 2</text></g><rect fill="red" fill-opacity="0.9" height="40.078125" id="main_door" stroke="darkred" stroke-width="3" width="10.546875" x="535.0" y="236.71875" /><text dominant-baseline="middle" fill="white" font-family="Arial" font-size="9px" font-weight="bold" text-anchor="middle" x="540.2734375" y="256.7578125">Main Door</text><text fill="black" font-family="Arial" font-size="18px" font-weight="bold" text-anchor="middle" x="400.0" y="30">Floor Plan - ID: 56286</text></svg>