<?xml version="1.0" encoding="utf-8" ?>
<svg baseProfile="full" height="600px" version="1.1" viewBox="0 0 800 600" width="800px" xmlns="http://www.w3.org/2000/svg" xmlns:ev="http://www.w3.org/2001/xml-events" xmlns:xlink="http://www.w3.org/1999/xlink"><defs /><rect fill="white" height="600" width="800" x="0" y="0" /><polygon fill="none" id="floor_plan_boundary" points="269.21875,118.59375 269.21875,179.765625 313.515625,181.875 313.515625,249.375 347.265625,249.375 349.375,281.015625 357.8125,281.015625 357.8125,240.9375 321.953125,238.828125 321.953125,171.328125 277.65625,169.21875 279.765625,127.03125 435.859375,127.03125 437.96875,175.546875 522.34375,177.65625 522.34375,447.65625 511.796875,449.765625 509.6875,466.640625 465.390625,466.640625 463.28125,449.765625 437.96875,449.765625 435.859375,472.96875 324.0625,472.96875 321.953125,335.859375 357.8125,333.75 357.8125,310.546875 349.375,310.546875 347.265625,325.3125 313.515625,325.3125 313.515625,481.40625 446.40625,481.40625 448.515625,458.203125 454.84375,460.3125 454.84375,475.078125 520.234375,475.078125 520.234375,460.3125 530.78125,458.203125 530.78125,167.109375 448.515625,167.109375 446.40625,118.59375" stroke="black" stroke-linecap="butt" stroke-linejoin="miter" stroke-width="4" /><g id="room_living_room"><polygon fill="rgb(238,232,170)" fill-opacity="0.7" points="324.0625,207.1875 324.0625,238.828125 359.921875,240.9375 359.921875,333.75 324.0625,335.859375 324.0625,470.859375 435.859375,470.859375 435.859375,207.1875" stroke="black" stroke-width="1.5" /><text dominant-baseline="middle" fill="black" font-family="Arial" font-size="12px" font-weight="bold" text-anchor="middle" x="381.015625" y="340.078125">Living Room</text></g><g id="room_master_bedroom"><polygon fill="rgb(255,165,0)" fill-opacity="0.7" points="448.515625,346.40625 448.515625,447.65625 463.28125,447.65625 465.390625,464.53125 509.6875,464.53125 509.6875,449.765625 520.234375,447.65625 520.234375,346.40625" stroke="black" stroke-width="1.5" /><text dominant-baseline="middle" fill="black" font-family="Arial" font-size="12px" font-weight="bold" text-anchor="middle" x="485.4296875" y="406.5234375">Master Bedroom</text></g><g id="room_common_room"><polygon fill="rgb(255,215,0)" fill-opacity="0.7" points="448.515625,177.65625 448.515625,272.578125 520.234375,272.578125 520.234375,177.65625" stroke="black" stroke-width="1.5" /><text dominant-baseline="middle" fill="black" font-family="Arial" font-size="12px" font-weight="bold" text-anchor="middle" x="485.4296875" y="226.171875">Common Room</text></g><g id="room_common_room_2"><polygon fill="rgb(255,215,0)" fill-opacity="0.7" points="368.359375,129.140625 368.359375,198.75 435.859375,198.75 435.859375,129.140625" stroke="black" stroke-width="1.5" /><text dominant-baseline="middle" fill="black" font-family="Arial" font-size="12px" font-weight="bold" text-anchor="middle" x="403.1640625" y="165.0">Common Room 2</text></g><g id="room_kitchen"><polygon fill="rgb(240,128,128)" fill-opacity="0.7" points="279.765625,129.140625 279.765625,169.21875 321.953125,169.21875 324.0625,198.75 359.921875,198.75 359.921875,129.140625" stroke="black" stroke-width="1.5" /><text dominant-baseline="middle" fill="black" font-family="Arial" font-size="12px" font-weight="bold" text-anchor="middle" x="320.8984375" y="165.0">Kitchen</text></g><g id="room_bathroom"><polygon fill="rgb(173,216,230)" fill-opacity="0.7" points="448.515625,285.234375 448.515625,337.96875 520.234375,337.96875 520.234375,285.234375" stroke="black" stroke-width="1.5" /><text dominant-baseline="middle" fill="black" font-family="Arial" font-size="12px" font-weight="bold" text-anchor="middle" x="485.4296875" y="312.65625">Bathroom</text></g><rect fill="red" fill-opacity="0.9" height="27.421875" id="main_door" stroke="darkred" stroke-width="3" width="10.546875" x="349.375" y="283.125" /><text dominant-baseline="middle" fill="white" font-family="Arial" font-size="9px" font-weight="bold" text-anchor="middle" x="354.6484375" y="296.8359375">Main Door</text><text fill="black" font-family="Arial" font-size="18px" font-weight="bold" text-anchor="middle" x="400.0" y="30">Floor Plan - ID: 56358</text></svg>