<?xml version="1.0" encoding="utf-8" ?>
<svg baseProfile="full" height="600px" version="1.1" viewBox="0 0 800 600" width="800px" xmlns="http://www.w3.org/2000/svg" xmlns:ev="http://www.w3.org/2001/xml-events" xmlns:xlink="http://www.w3.org/1999/xlink"><defs /><rect fill="white" height="600" width="800" x="0" y="0" /><polygon fill="none" id="floor_plan_boundary" points="307.1875,95.390625 307.1875,236.71875 279.765625,238.828125 279.765625,378.046875 307.1875,380.15625 307.1875,487.734375 410.546875,487.734375 412.65625,504.609375 520.234375,504.609375 520.234375,369.609375 473.828125,367.5 473.828125,302.109375 456.953125,297.890625 456.953125,310.546875 465.390625,312.65625 465.390625,378.046875 511.796875,380.15625 511.796875,494.0625 423.203125,496.171875 421.09375,479.296875 315.625,477.1875 315.625,369.609375 288.203125,367.5 288.203125,249.375 315.625,247.265625 315.625,105.9375 465.390625,105.9375 465.390625,236.71875 456.953125,238.828125 456.953125,268.359375 465.390625,268.359375 465.390625,249.375 473.828125,247.265625 473.828125,95.390625" stroke="black" stroke-linecap="butt" stroke-linejoin="miter" stroke-width="4" /><g id="room_living_room"><polygon fill="rgb(238,232,170)" fill-opacity="0.7" points="463.28125,160.78125 397.890625,160.78125 395.78125,249.375 290.3125,249.375 290.3125,367.5 463.28125,367.5 463.28125,312.65625 454.84375,310.546875" stroke="black" stroke-width="1.5" /><text dominant-baseline="middle" fill="black" font-family="Arial" font-size="12px" font-weight="bold" text-anchor="middle" x="377.8515625" y="265.1953125">Living Room</text></g><g id="room_master_bedroom"><polygon fill="rgb(255,165,0)" fill-opacity="0.7" points="423.203125,380.15625 423.203125,494.0625 509.6875,494.0625 509.6875,380.15625" stroke="black" stroke-width="1.5" /><text dominant-baseline="middle" fill="black" font-family="Arial" font-size="12px" font-weight="bold" text-anchor="middle" x="467.5" y="438.1640625">Master Bedroom</text></g><g id="room_common_room"><polygon fill="rgb(255,215,0)" fill-opacity="0.7" points="317.734375,380.15625 317.734375,477.1875 410.546875,477.1875 410.546875,380.15625" stroke="black" stroke-width="1.5" /><text dominant-baseline="middle" fill="black" font-family="Arial" font-size="12px" font-weight="bold" text-anchor="middle" x="365.1953125" y="429.7265625">Common Room</text></g><g id="room_common_room_2"><polygon fill="rgb(255,215,0)" fill-opacity="0.7" points="317.734375,105.9375 317.734375,186.09375 385.234375,186.09375 385.234375,105.9375" stroke="black" stroke-width="1.5" /><text dominant-baseline="middle" fill="black" font-family="Arial" font-size="12px" font-weight="bold" text-anchor="middle" x="352.5390625" y="147.0703125">Common Room 2</text></g><g id="room_bathroom"><polygon fill="rgb(173,216,230)" fill-opacity="0.7" points="317.734375,194.53125 317.734375,236.71875 385.234375,236.71875 385.234375,194.53125" stroke="black" stroke-width="1.5" /><text dominant-baseline="middle" fill="black" font-family="Arial" font-size="12px" font-weight="bold" text-anchor="middle" x="352.5390625" y="216.6796875">Bathroom</text></g><g id="room_kitchen"><polygon fill="rgb(240,128,128)" fill-opacity="0.7" points="397.890625,105.9375 397.890625,148.125 463.28125,148.125 463.28125,105.9375" stroke="black" stroke-width="1.5" /><text dominant-baseline="middle" fill="black" font-family="Arial" font-size="12px" font-weight="bold" text-anchor="middle" x="431.640625" y="128.0859375">Kitchen</text></g><rect fill="red" fill-opacity="0.9" height="27.421875" id="main_door" stroke="darkred" stroke-width="3" width="10.546875" x="456.953125" y="270.46875" /><text dominant-baseline="middle" fill="white" font-family="Arial" font-size="9px" font-weight="bold" text-anchor="middle" x="462.2265625" y="284.1796875">Main Door</text><text fill="black" font-family="Arial" font-size="18px" font-weight="bold" text-anchor="middle" x="400.0" y="30">Floor Plan - ID: 56355</text></svg>