<?xml version="1.0" encoding="utf-8" ?>
<svg baseProfile="full" height="600px" version="1.1" viewBox="0 0 800 600" width="800px" xmlns="http://www.w3.org/2000/svg" xmlns:ev="http://www.w3.org/2001/xml-events" xmlns:xlink="http://www.w3.org/1999/xlink"><defs /><rect fill="white" height="600" width="800" x="0" y="0" /><polygon fill="none" id="floor_plan_boundary" points="258.671875,146.015625 258.671875,399.140625 410.546875,399.140625 412.65625,447.65625 478.046875,447.65625 480.15625,483.515625 490.703125,483.515625 488.59375,439.21875 421.09375,437.109375 421.09375,390.703125 267.109375,388.59375 267.109375,156.5625 437.96875,154.453125 450.625,124.921875 501.25,124.921875 503.359375,141.796875 532.890625,143.90625 532.890625,472.96875 520.234375,475.078125 520.234375,483.515625 541.328125,483.515625 541.328125,133.359375 513.90625,133.359375 511.796875,116.484375 440.078125,116.484375 440.078125,131.25 429.53125,133.359375 427.421875,146.015625" stroke="black" stroke-linecap="butt" stroke-linejoin="miter" stroke-width="4" /><g id="room_living_room"><polygon fill="rgb(238,232,170)" fill-opacity="0.7" points="450.625,127.03125 440.078125,245.15625 368.359375,247.265625 368.359375,388.59375 427.421875,388.59375 429.53125,363.28125 488.59375,363.28125 490.703125,472.96875 530.78125,472.96875 530.78125,143.90625" stroke="black" stroke-width="1.5" /><text dominant-baseline="middle" fill="black" font-family="Arial" font-size="12px" font-weight="bold" text-anchor="middle" x="450.625" y="301.0546875">Living Room</text></g><g id="room_common_room_2"><polygon fill="rgb(255,215,0)" fill-opacity="0.7" points="269.21875,156.5625 269.21875,276.796875 355.703125,276.796875 355.703125,156.5625" stroke="black" stroke-width="1.5" /><text dominant-baseline="middle" fill="black" font-family="Arial" font-size="12px" font-weight="bold" text-anchor="middle" x="313.515625" y="217.734375">Common Room 2</text></g><g id="room_common_room"><polygon fill="rgb(255,215,0)" fill-opacity="0.7" points="269.21875,289.453125 269.21875,388.59375 355.703125,388.59375 355.703125,289.453125" stroke="black" stroke-width="1.5" /><text dominant-baseline="middle" fill="black" font-family="Arial" font-size="12px" font-weight="bold" text-anchor="middle" x="313.515625" y="340.078125">Common Room</text></g><g id="room_kitchen"><polygon fill="rgb(240,128,128)" fill-opacity="0.7" points="368.359375,156.5625 368.359375,234.609375 427.421875,234.609375 427.421875,156.5625" stroke="black" stroke-width="1.5" /><text dominant-baseline="middle" fill="black" font-family="Arial" font-size="12px" font-weight="bold" text-anchor="middle" x="398.9453125" y="196.640625">Kitchen</text></g><g id="room_bathroom"><polygon fill="rgb(173,216,230)" fill-opacity="0.7" points="440.078125,375.9375 440.078125,399.140625 423.203125,401.25 423.203125,437.109375 478.046875,437.109375 478.046875,375.9375" stroke="black" stroke-width="1.5" /><text dominant-baseline="middle" fill="black" font-family="Arial" font-size="12px" font-weight="bold" text-anchor="middle" x="451.6796875" y="407.578125">Bathroom</text></g><rect fill="red" fill-opacity="0.9" height="10.546875" id="main_door" stroke="darkred" stroke-width="3" width="27.421875" x="492.8125" y="475.078125" /><text dominant-baseline="middle" fill="white" font-family="Arial" font-size="9px" font-weight="bold" text-anchor="middle" x="506.5234375" y="480.3515625">Main Door</text><text fill="black" font-family="Arial" font-size="18px" font-weight="bold" text-anchor="middle" x="400.0" y="30">Floor Plan - ID: 56563</text></svg>