<?xml version="1.0" encoding="utf-8" ?>
<svg baseProfile="full" height="600px" version="1.1" viewBox="0 0 800 600" width="800px" xmlns="http://www.w3.org/2000/svg" xmlns:ev="http://www.w3.org/2001/xml-events" xmlns:xlink="http://www.w3.org/1999/xlink"><defs /><rect fill="white" height="600" width="800" x="0" y="0" /><polygon fill="none" id="floor_plan_boundary" points="252.34375,139.6875 252.34375,274.6875 283.984375,276.796875 283.984375,407.578125 307.1875,407.578125 309.296875,426.5625 370.46875,426.5625 368.359375,409.6875 385.234375,407.578125 387.34375,460.3125 503.359375,460.3125 503.359375,278.90625 547.65625,276.796875 547.65625,167.109375 520.234375,167.109375 518.125,139.6875 338.828125,139.6875 338.828125,148.125 507.578125,148.125 509.6875,175.546875 539.21875,177.65625 539.21875,266.25 494.921875,268.359375 494.921875,449.765625 397.890625,451.875 395.78125,399.140625 364.140625,399.140625 362.03125,418.125 315.625,418.125 313.515625,399.140625 292.421875,397.03125 292.421875,270.46875 260.78125,268.359375 260.78125,150.234375 305.078125,148.125 305.078125,139.6875" stroke="black" stroke-linecap="butt" stroke-linejoin="miter" stroke-width="4" /><g id="room_living_room"><polygon fill="rgb(238,232,170)" fill-opacity="0.7" points="309.296875,150.234375 309.296875,215.625 357.8125,213.515625 362.03125,268.359375 395.78125,270.46875 395.78125,397.03125 492.8125,397.03125 492.8125,276.796875 440.078125,274.6875 440.078125,150.234375" stroke="black" stroke-width="1.5" /><text dominant-baseline="middle" fill="black" font-family="Arial" font-size="12px" font-weight="bold" text-anchor="middle" x="402.109375" y="274.6875">Living Room</text></g><g id="room_master_bedroom"><polygon fill="rgb(255,165,0)" fill-opacity="0.7" points="294.53125,276.796875 294.53125,397.03125 313.515625,397.03125 315.625,416.015625 362.03125,416.015625 364.140625,397.03125 387.34375,397.03125 387.34375,276.796875" stroke="black" stroke-width="1.5" /><text dominant-baseline="middle" fill="black" font-family="Arial" font-size="12px" font-weight="bold" text-anchor="middle" x="341.9921875" y="347.4609375">Master Bedroom</text></g><g id="room_common_room"><polygon fill="rgb(255,215,0)" fill-opacity="0.7" points="448.515625,150.234375 448.515625,268.359375 537.109375,266.25 537.109375,177.65625 509.6875,177.65625 507.578125,150.234375" stroke="black" stroke-width="1.5" /><text dominant-baseline="middle" fill="black" font-family="Arial" font-size="12px" font-weight="bold" text-anchor="middle" x="493.8671875" y="210.3515625">Common Room</text></g><g id="room_balcony"><polygon fill="rgb(107,142,35)" fill-opacity="0.7" points="397.890625,409.6875 397.890625,449.765625 492.8125,449.765625 492.8125,409.6875" stroke="black" stroke-width="1.5" /><text dominant-baseline="middle" fill="black" font-family="Arial" font-size="12px" font-weight="bold" text-anchor="middle" x="446.40625" y="430.78125">Balcony</text></g><g id="room_bathroom"><polygon fill="rgb(173,216,230)" fill-opacity="0.7" points="294.53125,224.0625 294.53125,268.359375 353.59375,268.359375 353.59375,224.0625" stroke="black" stroke-width="1.5" /><text dominant-baseline="middle" fill="black" font-family="Arial" font-size="12px" font-weight="bold" text-anchor="middle" x="325.1171875" y="247.265625">Bathroom</text></g><g id="room_kitchen"><polygon fill="rgb(240,128,128)" fill-opacity="0.7" points="262.890625,150.234375 262.890625,213.515625 300.859375,215.625 300.859375,150.234375" stroke="black" stroke-width="1.5" /><text dominant-baseline="middle" fill="black" font-family="Arial" font-size="12px" font-weight="bold" text-anchor="middle" x="282.9296875" y="183.984375">Kitchen</text></g><rect fill="red" fill-opacity="0.9" height="10.546875" id="main_door" stroke="darkred" stroke-width="3" width="31.640625" x="307.1875" y="139.6875" /><text dominant-baseline="middle" fill="white" font-family="Arial" font-size="9px" font-weight="bold" text-anchor="middle" x="323.0078125" y="144.9609375">Main Door</text><text fill="black" font-family="Arial" font-size="18px" font-weight="bold" text-anchor="middle" x="400.0" y="30">Floor Plan - ID: 56650</text></svg>