<?xml version="1.0" encoding="utf-8" ?>
<svg baseProfile="full" height="600px" version="1.1" viewBox="0 0 800 600" width="800px" xmlns="http://www.w3.org/2000/svg" xmlns:ev="http://www.w3.org/2001/xml-events" xmlns:xlink="http://www.w3.org/1999/xlink"><defs /><rect fill="white" height="600" width="800" x="0" y="0" /><polygon fill="none" id="floor_plan_boundary" points="307.1875,131.25 307.1875,240.9375 275.546875,243.046875 275.546875,468.75 389.453125,468.75 391.5625,430.78125 524.453125,430.78125 524.453125,243.046875 518.125,243.046875 513.90625,422.34375 381.015625,422.34375 378.90625,460.3125 283.984375,458.203125 283.984375,253.59375 315.625,251.484375 315.625,141.796875 478.046875,139.6875 480.15625,251.484375 488.59375,251.484375 488.59375,131.25" stroke="black" stroke-linecap="butt" stroke-linejoin="miter" stroke-width="4" /><g id="room_living_room"><polygon fill="rgb(238,232,170)" fill-opacity="0.7" points="389.453125,253.59375 389.453125,420.234375 513.90625,420.234375 513.90625,253.59375" stroke="black" stroke-width="1.5" /><text dominant-baseline="middle" fill="black" font-family="Arial" font-size="12px" font-weight="bold" text-anchor="middle" x="452.734375" y="337.96875">Living Room</text></g><g id="room_master_bedroom"><polygon fill="rgb(255,165,0)" fill-opacity="0.7" points="286.09375,291.5625 286.09375,420.234375 381.015625,420.234375 381.015625,291.5625" stroke="black" stroke-width="1.5" /><text dominant-baseline="middle" fill="black" font-family="Arial" font-size="12px" font-weight="bold" text-anchor="middle" x="334.609375" y="356.953125">Master Bedroom</text></g><g id="room_common_room"><polygon fill="rgb(255,215,0)" fill-opacity="0.7" points="317.734375,141.796875 317.734375,224.0625 385.234375,221.953125 389.453125,240.9375 416.875,240.9375 416.875,141.796875" stroke="black" stroke-width="1.5" /><text dominant-baseline="middle" fill="black" font-family="Arial" font-size="12px" font-weight="bold" text-anchor="middle" x="368.359375" y="192.421875">Common Room</text></g><g id="room_kitchen"><polygon fill="rgb(240,128,128)" fill-opacity="0.7" points="425.3125,141.796875 425.3125,240.9375 478.046875,240.9375 478.046875,141.796875" stroke="black" stroke-width="1.5" /><text dominant-baseline="middle" fill="black" font-family="Arial" font-size="12px" font-weight="bold" text-anchor="middle" x="452.734375" y="192.421875">Kitchen</text></g><g id="room_bathroom"><polygon fill="rgb(173,216,230)" fill-opacity="0.7" points="286.09375,253.59375 286.09375,283.125 381.015625,283.125 381.015625,232.5 317.734375,232.5 315.625,253.59375" stroke="black" stroke-width="1.5" /><text dominant-baseline="middle" fill="black" font-family="Arial" font-size="12px" font-weight="bold" text-anchor="middle" x="334.609375" y="258.8671875">Bathroom</text></g><g id="room_balcony"><polygon fill="rgb(107,142,35)" fill-opacity="0.7" points="286.09375,432.890625 286.09375,458.203125 378.90625,458.203125 378.90625,432.890625" stroke="black" stroke-width="1.5" /><text dominant-baseline="middle" fill="black" font-family="Arial" font-size="12px" font-weight="bold" text-anchor="middle" x="333.5546875" y="446.6015625">Balcony</text></g><rect fill="red" fill-opacity="0.9" height="10.546875" id="main_door" stroke="darkred" stroke-width="3" width="27.421875" x="490.703125" y="243.046875" /><text dominant-baseline="middle" fill="white" font-family="Arial" font-size="9px" font-weight="bold" text-anchor="middle" x="504.4140625" y="248.3203125">Main Door</text><text fill="black" font-family="Arial" font-size="18px" font-weight="bold" text-anchor="middle" x="400.0" y="30">Floor Plan - ID: 56692</text></svg>