<?xml version="1.0" encoding="utf-8" ?>
<svg baseProfile="full" height="600px" version="1.1" viewBox="0 0 800 600" width="800px" xmlns="http://www.w3.org/2000/svg" xmlns:ev="http://www.w3.org/2001/xml-events" xmlns:xlink="http://www.w3.org/1999/xlink"><defs /><rect fill="white" height="600" width="800" x="0" y="0" /><polygon fill="none" id="floor_plan_boundary" points="271.328125,91.171875 271.328125,255.703125 302.96875,255.703125 302.96875,247.265625 279.765625,245.15625 281.875,99.609375 387.34375,99.609375 389.453125,139.6875 484.375,141.796875 484.375,213.515625 532.890625,215.625 532.890625,453.984375 353.59375,456.09375 351.484375,500.390625 281.875,500.390625 279.765625,491.953125 269.21875,491.953125 267.109375,329.53125 279.765625,327.421875 279.765625,293.671875 300.859375,291.5625 296.640625,281.015625 294.53125,287.34375 271.328125,287.34375 271.328125,316.875 258.671875,318.984375 258.671875,500.390625 269.21875,500.390625 271.328125,508.828125 362.03125,508.828125 364.140625,464.53125 541.328125,464.53125 541.328125,205.078125 492.8125,202.96875 492.8125,131.25 400.0,131.25 397.890625,91.171875" stroke="black" stroke-linecap="butt" stroke-linejoin="miter" stroke-width="4" /><g id="room_living_room"><polygon fill="rgb(238,232,170)" fill-opacity="0.7" points="281.875,165.0 281.875,245.15625 305.078125,255.703125 302.96875,291.5625 281.875,293.671875 281.875,327.421875 269.21875,329.53125 269.21875,453.984375 351.484375,453.984375 351.484375,293.671875 442.1875,291.5625 444.296875,316.875 475.9375,316.875 475.9375,255.703125 387.34375,253.59375 387.34375,165.0" stroke="black" stroke-width="1.5" /><text dominant-baseline="middle" fill="black" font-family="Arial" font-size="12px" font-weight="bold" text-anchor="middle" x="373.6328125" y="310.546875">Living Room</text></g><g id="room_master_bedroom"><polygon fill="rgb(255,165,0)" fill-opacity="0.7" points="444.296875,329.53125 444.296875,453.984375 530.78125,453.984375 530.78125,329.53125" stroke="black" stroke-width="1.5" /><text dominant-baseline="middle" fill="black" font-family="Arial" font-size="12px" font-weight="bold" text-anchor="middle" x="488.59375" y="392.8125">Master Bedroom</text></g><g id="room_common_room"><polygon fill="rgb(255,215,0)" fill-opacity="0.7" points="364.140625,304.21875 364.140625,453.984375 431.640625,453.984375 431.640625,304.21875" stroke="black" stroke-width="1.5" /><text dominant-baseline="middle" fill="black" font-family="Arial" font-size="12px" font-weight="bold" text-anchor="middle" x="398.9453125" y="380.15625">Common Room</text></g><g id="room_common_room_2"><polygon fill="rgb(255,215,0)" fill-opacity="0.7" points="400.0,141.796875 400.0,243.046875 482.265625,243.046875 482.265625,141.796875" stroke="black" stroke-width="1.5" /><text dominant-baseline="middle" fill="black" font-family="Arial" font-size="12px" font-weight="bold" text-anchor="middle" x="442.1875" y="193.4765625">Common Room 2</text></g><g id="room_kitchen"><polygon fill="rgb(240,128,128)" fill-opacity="0.7" points="281.875,101.71875 281.875,152.34375 387.34375,152.34375 387.34375,101.71875" stroke="black" stroke-width="1.5" /><text dominant-baseline="middle" fill="black" font-family="Arial" font-size="12px" font-weight="bold" text-anchor="middle" x="335.6640625" y="128.0859375">Kitchen</text></g><g id="room_bathroom"><polygon fill="rgb(173,216,230)" fill-opacity="0.7" points="494.921875,215.625 494.921875,253.59375 484.375,255.703125 484.375,316.875 530.78125,316.875 530.78125,215.625" stroke="black" stroke-width="1.5" /><text dominant-baseline="middle" fill="black" font-family="Arial" font-size="12px" font-weight="bold" text-anchor="middle" x="508.6328125" y="267.3046875">Bathroom</text></g><g id="room_balcony"><polygon fill="rgb(107,142,35)" fill-opacity="0.7" points="269.21875,466.640625 269.21875,489.84375 279.765625,489.84375 281.875,498.28125 351.484375,498.28125 351.484375,466.640625" stroke="black" stroke-width="1.5" /><text dominant-baseline="middle" fill="black" font-family="Arial" font-size="12px" font-weight="bold" text-anchor="middle" x="311.40625" y="483.515625">Balcony</text></g><rect fill="red" fill-opacity="0.9" height="27.421875" id="main_door" stroke="darkred" stroke-width="3" width="6.328125" x="296.640625" y="253.59375" /><text dominant-baseline="middle" fill="white" font-family="Arial" font-size="9px" font-weight="bold" text-anchor="middle" x="299.8046875" y="267.3046875">Main Door</text><text fill="black" font-family="Arial" font-size="18px" font-weight="bold" text-anchor="middle" x="400.0" y="30">Floor Plan - ID: 56747</text></svg>