<?xml version="1.0" encoding="utf-8" ?>
<svg baseProfile="full" height="600px" version="1.1" viewBox="0 0 800 600" width="800px" xmlns="http://www.w3.org/2000/svg" xmlns:ev="http://www.w3.org/2001/xml-events" xmlns:xlink="http://www.w3.org/1999/xlink"><defs /><rect fill="white" height="600" width="800" x="0" y="0" /><polygon fill="none" id="floor_plan_boundary" points="539.21875,137.578125 387.34375,137.578125 387.34375,171.328125 374.6875,173.4375 374.6875,181.875 395.78125,181.875 397.890625,146.015625 528.671875,146.015625 530.78125,253.59375 486.484375,255.703125 486.484375,424.453125 387.34375,426.5625 385.234375,453.984375 269.21875,451.875 269.21875,183.984375 336.71875,181.875 336.71875,173.4375 260.78125,173.4375 260.78125,462.421875 395.78125,462.421875 397.890625,435.0 494.921875,435.0 494.921875,266.25 539.21875,264.140625" stroke="black" stroke-linecap="butt" stroke-linejoin="miter" stroke-width="4" /><g id="room_living_room"><polygon fill="rgb(238,232,170)" fill-opacity="0.7" points="385.234375,183.984375 338.828125,183.984375 336.71875,266.25 271.328125,266.25 271.328125,451.875 385.234375,451.875" stroke="black" stroke-width="1.5" /><text dominant-baseline="middle" fill="black" font-family="Arial" font-size="12px" font-weight="bold" text-anchor="middle" x="329.3359375" y="318.984375">Living Room</text></g><g id="room_master_bedroom"><polygon fill="rgb(255,165,0)" fill-opacity="0.7" points="397.890625,148.125 397.890625,253.59375 528.671875,253.59375 528.671875,148.125" stroke="black" stroke-width="1.5" /><text dominant-baseline="middle" fill="black" font-family="Arial" font-size="12px" font-weight="bold" text-anchor="middle" x="464.3359375" y="201.9140625">Master Bedroom</text></g><g id="room_common_room"><polygon fill="rgb(255,215,0)" fill-opacity="0.7" points="397.890625,318.984375 397.890625,424.453125 484.375,424.453125 484.375,318.984375" stroke="black" stroke-width="1.5" /><text dominant-baseline="middle" fill="black" font-family="Arial" font-size="12px" font-weight="bold" text-anchor="middle" x="442.1875" y="372.7734375">Common Room</text></g><g id="room_bathroom"><polygon fill="rgb(173,216,230)" fill-opacity="0.7" points="271.328125,183.984375 271.328125,253.59375 326.171875,253.59375 326.171875,183.984375" stroke="black" stroke-width="1.5" /><text dominant-baseline="middle" fill="black" font-family="Arial" font-size="12px" font-weight="bold" text-anchor="middle" x="299.8046875" y="219.84375">Bathroom</text></g><g id="room_kitchen"><polygon fill="rgb(240,128,128)" fill-opacity="0.7" points="397.890625,266.25 397.890625,306.328125 484.375,306.328125 484.375,266.25" stroke="black" stroke-width="1.5" /><text dominant-baseline="middle" fill="black" font-family="Arial" font-size="12px" font-weight="bold" text-anchor="middle" x="442.1875" y="287.34375">Kitchen</text></g><rect fill="red" fill-opacity="0.9" height="10.546875" id="main_door" stroke="darkred" stroke-width="3" width="35.859375" x="338.828125" y="173.4375" /><text dominant-baseline="middle" fill="white" font-family="Arial" font-size="9px" font-weight="bold" text-anchor="middle" x="356.7578125" y="178.7109375">Main Door</text><text fill="black" font-family="Arial" font-size="18px" font-weight="bold" text-anchor="middle" x="400.0" y="30">Floor Plan - ID: 56866</text></svg>