<?xml version="1.0" encoding="utf-8" ?>
<svg baseProfile="full" height="600px" version="1.1" viewBox="0 0 800 600" width="800px" xmlns="http://www.w3.org/2000/svg" xmlns:ev="http://www.w3.org/2001/xml-events" xmlns:xlink="http://www.w3.org/1999/xlink"><defs /><rect fill="white" height="600" width="800" x="0" y="0" /><polygon fill="none" id="floor_plan_boundary" points="492.8125,112.265625 368.359375,112.265625 368.359375,131.25 376.796875,131.25 378.90625,120.703125 482.265625,120.703125 484.375,177.65625 547.65625,179.765625 539.21875,424.453125 423.203125,426.5625 421.09375,479.296875 305.078125,477.1875 305.078125,283.125 252.34375,281.015625 254.453125,177.65625 376.796875,177.65625 376.796875,165.0 243.90625,169.21875 243.90625,291.5625 296.640625,293.671875 296.640625,487.734375 431.640625,487.734375 433.75,435.0 547.65625,435.0 556.09375,169.21875 494.921875,169.21875" stroke="black" stroke-linecap="butt" stroke-linejoin="miter" stroke-width="4" /><g id="room_living_room"><polygon fill="rgb(238,232,170)" fill-opacity="0.7" points="421.09375,122.8125 378.90625,122.8125 378.90625,291.5625 307.1875,293.671875 307.1875,424.453125 421.09375,424.453125 421.09375,283.125 482.265625,281.015625 482.265625,196.640625 421.09375,194.53125" stroke="black" stroke-width="1.5" /><text dominant-baseline="middle" fill="black" font-family="Arial" font-size="12px" font-weight="bold" text-anchor="middle" x="395.78125" y="274.6875">Living Room</text></g><g id="room_master_bedroom"><polygon fill="rgb(255,165,0)" fill-opacity="0.7" points="433.75,293.671875 433.75,424.453125 537.109375,424.453125 537.109375,293.671875" stroke="black" stroke-width="1.5" /><text dominant-baseline="middle" fill="black" font-family="Arial" font-size="12px" font-weight="bold" text-anchor="middle" x="486.484375" y="360.1171875">Master Bedroom</text></g><g id="room_common_room"><polygon fill="rgb(255,215,0)" fill-opacity="0.7" points="254.453125,179.765625 254.453125,281.015625 366.25,281.015625 366.25,179.765625" stroke="black" stroke-width="1.5" /><text dominant-baseline="middle" fill="black" font-family="Arial" font-size="12px" font-weight="bold" text-anchor="middle" x="311.40625" y="231.4453125">Common Room</text></g><g id="room_kitchen"><polygon fill="rgb(240,128,128)" fill-opacity="0.7" points="494.921875,179.765625 494.921875,281.015625 545.546875,281.015625 545.546875,179.765625" stroke="black" stroke-width="1.5" /><text dominant-baseline="middle" fill="black" font-family="Arial" font-size="12px" font-weight="bold" text-anchor="middle" x="521.2890625" y="231.4453125">Kitchen</text></g><g id="room_balcony"><polygon fill="rgb(107,142,35)" fill-opacity="0.7" points="307.1875,437.109375 307.1875,477.1875 421.09375,477.1875 421.09375,437.109375" stroke="black" stroke-width="1.5" /><text dominant-baseline="middle" fill="black" font-family="Arial" font-size="12px" font-weight="bold" text-anchor="middle" x="365.1953125" y="458.203125">Balcony</text></g><g id="room_bathroom"><polygon fill="rgb(173,216,230)" fill-opacity="0.7" points="433.75,122.8125 433.75,188.203125 482.265625,188.203125 482.265625,122.8125" stroke="black" stroke-width="1.5" /><text dominant-baseline="middle" fill="black" font-family="Arial" font-size="12px" font-weight="bold" text-anchor="middle" x="459.0625" y="156.5625">Bathroom</text></g><rect fill="red" fill-opacity="0.9" height="31.640625" id="main_door" stroke="darkred" stroke-width="3" width="10.546875" x="368.359375" y="133.359375" /><text dominant-baseline="middle" fill="white" font-family="Arial" font-size="9px" font-weight="bold" text-anchor="middle" x="373.6328125" y="149.1796875">Main Door</text><text fill="black" font-family="Arial" font-size="18px" font-weight="bold" text-anchor="middle" x="400.0" y="30">Floor Plan - ID: 56913</text></svg>