<?xml version="1.0" encoding="utf-8" ?>
<svg baseProfile="full" height="600px" version="1.1" viewBox="0 0 800 600" width="800px" xmlns="http://www.w3.org/2000/svg" xmlns:ev="http://www.w3.org/2001/xml-events" xmlns:xlink="http://www.w3.org/1999/xlink"><defs /><rect fill="white" height="600" width="800" x="0" y="0" /><polygon fill="none" id="floor_plan_boundary" points="288.203125,108.046875 288.203125,464.53125 391.5625,464.53125 393.671875,513.046875 511.796875,513.046875 511.796875,327.421875 478.046875,325.3125 478.046875,264.140625 463.28125,259.921875 463.28125,272.578125 469.609375,274.6875 469.609375,335.859375 503.359375,337.96875 503.359375,502.5 404.21875,504.609375 402.109375,456.09375 296.640625,453.984375 296.640625,118.59375 355.703125,116.484375 357.8125,95.390625 461.171875,95.390625 463.28125,226.171875 471.71875,226.171875 471.71875,86.953125 347.265625,86.953125 345.15625,108.046875" stroke="black" stroke-linecap="butt" stroke-linejoin="miter" stroke-width="4" /><g id="room_living_room"><polygon fill="rgb(238,232,170)" fill-opacity="0.7" points="357.8125,97.5 357.8125,325.3125 467.5,325.3125 461.171875,97.5" stroke="black" stroke-width="1.5" /><text dominant-baseline="middle" fill="black" font-family="Arial" font-size="12px" font-weight="bold" text-anchor="middle" x="413.7109375" y="212.4609375">Living Room</text></g><g id="room_master_bedroom"><polygon fill="rgb(255,165,0)" fill-opacity="0.7" points="404.21875,337.96875 404.21875,453.984375 501.25,453.984375 501.25,337.96875" stroke="black" stroke-width="1.5" /><text dominant-baseline="middle" fill="black" font-family="Arial" font-size="12px" font-weight="bold" text-anchor="middle" x="453.7890625" y="397.03125">Master Bedroom</text></g><g id="room_common_room"><polygon fill="rgb(255,215,0)" fill-opacity="0.7" points="298.75,337.96875 298.75,453.984375 391.5625,453.984375 391.5625,337.96875" stroke="black" stroke-width="1.5" /><text dominant-baseline="middle" fill="black" font-family="Arial" font-size="12px" font-weight="bold" text-anchor="middle" x="346.2109375" y="397.03125">Common Room</text></g><g id="room_kitchen"><polygon fill="rgb(240,128,128)" fill-opacity="0.7" points="298.75,118.59375 298.75,226.171875 345.15625,226.171875 345.15625,118.59375" stroke="black" stroke-width="1.5" /><text dominant-baseline="middle" fill="black" font-family="Arial" font-size="12px" font-weight="bold" text-anchor="middle" x="323.0078125" y="173.4375">Kitchen</text></g><g id="room_bathroom"><polygon fill="rgb(173,216,230)" fill-opacity="0.7" points="298.75,234.609375 298.75,325.3125 345.15625,325.3125 345.15625,234.609375" stroke="black" stroke-width="1.5" /><text dominant-baseline="middle" fill="black" font-family="Arial" font-size="12px" font-weight="bold" text-anchor="middle" x="323.0078125" y="281.015625">Bathroom</text></g><g id="room_balcony"><polygon fill="rgb(107,142,35)" fill-opacity="0.7" points="404.21875,466.640625 404.21875,502.5 501.25,502.5 501.25,466.640625" stroke="black" stroke-width="1.5" /><text dominant-baseline="middle" fill="black" font-family="Arial" font-size="12px" font-weight="bold" text-anchor="middle" x="453.7890625" y="485.625">Balcony</text></g><rect fill="red" fill-opacity="0.9" height="31.640625" id="main_door" stroke="darkred" stroke-width="3" width="10.546875" x="463.28125" y="228.28125" /><text dominant-baseline="middle" fill="white" font-family="Arial" font-size="9px" font-weight="bold" text-anchor="middle" x="468.5546875" y="244.1015625">Main Door</text><text fill="black" font-family="Arial" font-size="18px" font-weight="bold" text-anchor="middle" x="400.0" y="30">Floor Plan - ID: 56934</text></svg>