<?xml version="1.0" encoding="utf-8" ?>
<svg baseProfile="full" height="600px" version="1.1" viewBox="0 0 800 600" width="800px" xmlns="http://www.w3.org/2000/svg" xmlns:ev="http://www.w3.org/2001/xml-events" xmlns:xlink="http://www.w3.org/1999/xlink"><defs /><rect fill="white" height="600" width="800" x="0" y="0" /><polygon fill="none" id="floor_plan_boundary" points="237.578125,74.296875 237.578125,297.890625 281.875,300.0 281.875,289.453125 246.015625,287.34375 248.125,82.734375 305.078125,84.84375 305.078125,188.203125 553.984375,190.3125 551.875,500.390625 427.421875,500.390625 425.3125,517.265625 340.9375,517.265625 338.828125,500.390625 328.28125,498.28125 328.28125,390.703125 252.34375,390.703125 250.234375,344.296875 281.875,342.1875 281.875,329.53125 241.796875,333.75 241.796875,399.140625 319.84375,401.25 319.84375,508.828125 330.390625,510.9375 330.390625,525.703125 435.859375,525.703125 437.96875,508.828125 562.421875,508.828125 562.421875,179.765625 315.625,179.765625 313.515625,74.296875" stroke="black" stroke-linecap="butt" stroke-linejoin="miter" stroke-width="4" /><g id="room_living_room"><polygon fill="rgb(238,232,170)" fill-opacity="0.7" points="248.125,190.3125 248.125,287.34375 283.984375,289.453125 283.984375,331.640625 330.390625,333.75 330.390625,498.28125 340.9375,515.15625 425.3125,515.15625 442.1875,498.28125 442.1875,333.75 484.375,331.640625 484.375,300.0 357.8125,300.0 355.703125,190.3125" stroke="black" stroke-width="1.5" /><text dominant-baseline="middle" fill="black" font-family="Arial" font-size="12px" font-weight="bold" text-anchor="middle" x="367.3046875" y="353.7890625">Living Room</text></g><g id="room_master_bedroom"><polygon fill="rgb(255,165,0)" fill-opacity="0.7" points="454.84375,344.296875 454.84375,498.28125 551.875,498.28125 551.875,356.953125 488.59375,359.0625 484.375,344.296875" stroke="black" stroke-width="1.5" /><text dominant-baseline="middle" fill="black" font-family="Arial" font-size="12px" font-weight="bold" text-anchor="middle" x="504.4140625" y="422.34375">Master Bedroom</text></g><g id="room_common_room"><polygon fill="rgb(255,215,0)" fill-opacity="0.7" points="454.84375,190.3125 454.84375,287.34375 551.875,287.34375 551.875,190.3125" stroke="black" stroke-width="1.5" /><text dominant-baseline="middle" fill="black" font-family="Arial" font-size="12px" font-weight="bold" text-anchor="middle" x="504.4140625" y="239.8828125">Common Room</text></g><g id="room_common_room_2"><polygon fill="rgb(255,215,0)" fill-opacity="0.7" points="364.140625,190.3125 364.140625,287.34375 442.1875,287.34375 442.1875,190.3125" stroke="black" stroke-width="1.5" /><text dominant-baseline="middle" fill="black" font-family="Arial" font-size="12px" font-weight="bold" text-anchor="middle" x="404.21875" y="239.8828125">Common Room 2</text></g><g id="room_kitchen"><polygon fill="rgb(240,128,128)" fill-opacity="0.7" points="248.125,110.15625 248.125,177.65625 302.96875,177.65625 302.96875,110.15625" stroke="black" stroke-width="1.5" /><text dominant-baseline="middle" fill="black" font-family="Arial" font-size="12px" font-weight="bold" text-anchor="middle" x="276.6015625" y="144.9609375">Kitchen</text></g><g id="room_bathroom"><polygon fill="rgb(173,216,230)" fill-opacity="0.7" points="252.34375,344.296875 252.34375,388.59375 317.734375,388.59375 317.734375,344.296875" stroke="black" stroke-width="1.5" /><text dominant-baseline="middle" fill="black" font-family="Arial" font-size="12px" font-weight="bold" text-anchor="middle" x="286.09375" y="367.5">Bathroom</text></g><g id="room_bathroom_2"><polygon fill="rgb(173,216,230)" fill-opacity="0.7" points="492.8125,300.0 492.8125,348.515625 551.875,348.515625 551.875,300.0" stroke="black" stroke-width="1.5" /><text dominant-baseline="middle" fill="black" font-family="Arial" font-size="12px" font-weight="bold" text-anchor="middle" x="523.3984375" y="325.3125">Bathroom 2</text></g><g id="room_balcony"><polygon fill="rgb(107,142,35)" fill-opacity="0.7" points="248.125,84.84375 248.125,101.71875 302.96875,101.71875 302.96875,84.84375" stroke="black" stroke-width="1.5" /><text dominant-baseline="middle" fill="black" font-family="Arial" font-size="12px" font-weight="bold" text-anchor="middle" x="276.6015625" y="94.3359375">Balcony</text></g><rect fill="red" fill-opacity="0.9" height="27.421875" id="main_door" stroke="darkred" stroke-width="3" width="10.546875" x="273.4375" y="302.109375" /><text dominant-baseline="middle" fill="white" font-family="Arial" font-size="9px" font-weight="bold" text-anchor="middle" x="278.7109375" y="315.8203125">Main Door</text><text fill="black" font-family="Arial" font-size="18px" font-weight="bold" text-anchor="middle" x="400.0" y="30">Floor Plan - ID: 56951</text></svg>