<?xml version="1.0" encoding="utf-8" ?>
<svg baseProfile="full" height="600px" version="1.1" viewBox="0 0 800 600" width="800px" xmlns="http://www.w3.org/2000/svg" xmlns:ev="http://www.w3.org/2001/xml-events" xmlns:xlink="http://www.w3.org/1999/xlink"><defs /><rect fill="white" height="600" width="800" x="0" y="0" /><polygon fill="none" id="floor_plan_boundary" points="186.953125,120.703125 186.953125,247.265625 416.875,249.375 416.875,350.625 459.0625,350.625 459.0625,449.765625 478.046875,449.765625 467.5,439.21875 467.5,342.1875 425.3125,337.96875 425.3125,238.828125 197.5,238.828125 195.390625,131.25 551.875,129.140625 553.984375,112.265625 600.390625,112.265625 602.5,202.96875 543.4375,205.078125 543.4375,283.125 604.609375,285.234375 604.609375,390.703125 589.84375,392.8125 589.84375,485.625 522.34375,487.734375 520.234375,441.328125 507.578125,441.328125 511.796875,496.171875 598.28125,496.171875 598.28125,403.359375 613.046875,401.25 613.046875,274.6875 553.984375,274.6875 551.875,215.625 610.9375,213.515625 610.9375,103.828125 543.4375,103.828125 541.328125,120.703125" stroke="black" stroke-linecap="butt" stroke-linejoin="miter" stroke-width="4" /><g id="room_living_room"><polygon fill="rgb(238,232,170)" fill-opacity="0.7" points="408.4375,131.25 408.4375,236.71875 427.421875,238.828125 427.421875,337.96875 469.609375,342.1875 469.609375,439.21875 509.6875,439.21875 499.140625,274.6875 541.328125,272.578125 541.328125,215.625 505.46875,213.515625 505.46875,131.25" stroke="black" stroke-width="1.5" /><text dominant-baseline="middle" fill="black" font-family="Arial" font-size="12px" font-weight="bold" text-anchor="middle" x="475.9375" y="286.2890625">Living Room</text></g><g id="room_master_bedroom"><polygon fill="rgb(255,165,0)" fill-opacity="0.7" points="197.5,131.25 197.5,236.71875 395.78125,236.71875 395.78125,205.078125 307.1875,202.96875 307.1875,131.25" stroke="black" stroke-width="1.5" /><text dominant-baseline="middle" fill="black" font-family="Arial" font-size="12px" font-weight="bold" text-anchor="middle" x="297.6953125" y="185.0390625">Master Bedroom</text></g><g id="room_common_room"><polygon fill="rgb(255,215,0)" fill-opacity="0.7" points="518.125,131.25 518.125,202.96875 600.390625,202.96875 600.390625,114.375 553.984375,114.375 551.875,131.25" stroke="black" stroke-width="1.5" /><text dominant-baseline="middle" fill="black" font-family="Arial" font-size="12px" font-weight="bold" text-anchor="middle" x="560.3125" y="159.7265625">Common Room</text></g><g id="room_balcony"><polygon fill="rgb(107,142,35)" fill-opacity="0.7" points="522.34375,403.359375 522.34375,485.625 587.734375,485.625 587.734375,403.359375" stroke="black" stroke-width="1.5" /><text dominant-baseline="middle" fill="black" font-family="Arial" font-size="12px" font-weight="bold" text-anchor="middle" x="556.09375" y="445.546875">Balcony</text></g><g id="room_balcony_3"><polygon fill="rgb(107,142,35)" fill-opacity="0.7" points="319.84375,131.25 319.84375,192.421875 395.78125,192.421875 395.78125,131.25" stroke="black" stroke-width="1.5" /><text dominant-baseline="middle" fill="black" font-family="Arial" font-size="12px" font-weight="bold" text-anchor="middle" x="358.8671875" y="162.890625">Balcony 3</text></g><g id="room_kitchen"><polygon fill="rgb(240,128,128)" fill-opacity="0.7" points="511.796875,350.625 511.796875,390.703125 602.5,390.703125 602.5,350.625" stroke="black" stroke-width="1.5" /><text dominant-baseline="middle" fill="black" font-family="Arial" font-size="12px" font-weight="bold" text-anchor="middle" x="558.203125" y="371.71875">Kitchen</text></g><g id="room_bathroom"><polygon fill="rgb(173,216,230)" fill-opacity="0.7" points="511.796875,285.234375 511.796875,337.96875 556.09375,337.96875 556.09375,285.234375" stroke="black" stroke-width="1.5" /><text dominant-baseline="middle" fill="black" font-family="Arial" font-size="12px" font-weight="bold" text-anchor="middle" x="535.0" y="312.65625">Bathroom</text></g><g id="room_balcony_2"><polygon fill="rgb(107,142,35)" fill-opacity="0.7" points="568.75,285.234375 568.75,337.96875 602.5,337.96875 602.5,285.234375" stroke="black" stroke-width="1.5" /><text dominant-baseline="middle" fill="black" font-family="Arial" font-size="12px" font-weight="bold" text-anchor="middle" x="586.6796875" y="312.65625">Balcony 2</text></g><rect fill="red" fill-opacity="0.9" height="10.546875" id="main_door" stroke="darkred" stroke-width="3" width="27.421875" x="480.15625" y="441.328125" /><text dominant-baseline="middle" fill="white" font-family="Arial" font-size="9px" font-weight="bold" text-anchor="middle" x="493.8671875" y="446.6015625">Main Door</text><text fill="black" font-family="Arial" font-size="18px" font-weight="bold" text-anchor="middle" x="400.0" y="30">Floor Plan - ID: 56991</text></svg>