<?xml version="1.0" encoding="utf-8" ?>
<svg baseProfile="full" height="600px" version="1.1" viewBox="0 0 800 600" width="800px" xmlns="http://www.w3.org/2000/svg" xmlns:ev="http://www.w3.org/2001/xml-events" xmlns:xlink="http://www.w3.org/1999/xlink"><defs /><rect fill="white" height="600" width="800" x="0" y="0" /><polygon fill="none" id="floor_plan_boundary" points="273.4375,67.96875 273.4375,228.28125 281.875,228.28125 283.984375,76.40625 330.390625,78.515625 330.390625,192.421875 518.125,194.53125 518.125,508.828125 406.328125,508.828125 404.21875,523.59375 283.984375,523.59375 281.875,274.6875 273.4375,274.6875 273.4375,532.03125 414.765625,532.03125 416.875,519.375 524.453125,519.375 526.5625,183.984375 340.9375,183.984375 338.828125,67.96875" stroke="black" stroke-linecap="butt" stroke-linejoin="miter" stroke-width="4" /><g id="room_living_room"><polygon fill="rgb(238,232,170)" fill-opacity="0.7" points="283.984375,211.40625 283.984375,521.484375 404.21875,521.484375 404.21875,346.40625 454.84375,344.296875 454.84375,312.65625 416.875,312.65625 414.765625,285.234375 332.5,285.234375 330.390625,211.40625" stroke="black" stroke-width="1.5" /><text dominant-baseline="middle" fill="black" font-family="Arial" font-size="12px" font-weight="bold" text-anchor="middle" x="370.46875" y="367.5">Living Room</text></g><g id="room_master_bedroom"><polygon fill="rgb(255,165,0)" fill-opacity="0.7" points="416.875,356.953125 416.875,508.828125 516.015625,508.828125 516.015625,386.484375 456.953125,386.484375 454.84375,356.953125" stroke="black" stroke-width="1.5" /><text dominant-baseline="middle" fill="black" font-family="Arial" font-size="12px" font-weight="bold" text-anchor="middle" x="467.5" y="433.9453125">Master Bedroom</text></g><g id="room_common_room"><polygon fill="rgb(255,215,0)" fill-opacity="0.7" points="427.421875,194.53125 427.421875,304.21875 454.84375,304.21875 456.953125,291.5625 516.015625,291.5625 516.015625,194.53125" stroke="black" stroke-width="1.5" /><text dominant-baseline="middle" fill="black" font-family="Arial" font-size="12px" font-weight="bold" text-anchor="middle" x="472.7734375" y="250.4296875">Common Room</text></g><g id="room_common_room_2"><polygon fill="rgb(255,215,0)" fill-opacity="0.7" points="340.9375,194.53125 338.828125,276.796875 414.765625,276.796875 414.765625,194.53125" stroke="black" stroke-width="1.5" /><text dominant-baseline="middle" fill="black" font-family="Arial" font-size="12px" font-weight="bold" text-anchor="middle" x="377.8515625" y="236.71875">Common Room 2</text></g><g id="room_kitchen"><polygon fill="rgb(240,128,128)" fill-opacity="0.7" points="283.984375,78.515625 283.984375,198.75 328.28125,198.75 328.28125,78.515625" stroke="black" stroke-width="1.5" /><text dominant-baseline="middle" fill="black" font-family="Arial" font-size="12px" font-weight="bold" text-anchor="middle" x="307.1875" y="139.6875">Kitchen</text></g><g id="room_bathroom"><polygon fill="rgb(173,216,230)" fill-opacity="0.7" points="463.28125,300.0 463.28125,373.828125 516.015625,373.828125 516.015625,300.0" stroke="black" stroke-width="1.5" /><text dominant-baseline="middle" fill="black" font-family="Arial" font-size="12px" font-weight="bold" text-anchor="middle" x="490.703125" y="337.96875">Bathroom</text></g><rect fill="red" fill-opacity="0.9" height="44.296875" id="main_door" stroke="darkred" stroke-width="3" width="10.546875" x="273.4375" y="230.390625" /><text dominant-baseline="middle" fill="white" font-family="Arial" font-size="9px" font-weight="bold" text-anchor="middle" x="278.7109375" y="252.5390625">Main Door</text><text fill="black" font-family="Arial" font-size="18px" font-weight="bold" text-anchor="middle" x="400.0" y="30">Floor Plan - ID: 57066</text></svg>