<?xml version="1.0" encoding="utf-8" ?>
<svg baseProfile="full" height="600px" version="1.1" viewBox="0 0 800 600" width="800px" xmlns="http://www.w3.org/2000/svg" xmlns:ev="http://www.w3.org/2001/xml-events" xmlns:xlink="http://www.w3.org/1999/xlink"><defs /><rect fill="white" height="600" width="800" x="0" y="0" /><polygon fill="none" id="floor_plan_boundary" points="535.0,95.390625 317.734375,95.390625 317.734375,196.640625 324.0625,99.609375 530.78125,101.71875 530.78125,257.8125 545.546875,259.921875 545.546875,356.953125 494.921875,359.0625 492.8125,462.421875 389.453125,462.421875 387.34375,500.390625 256.5625,500.390625 254.453125,306.328125 321.953125,304.21875 317.734375,226.171875 317.734375,297.890625 250.234375,300.0 250.234375,504.609375 393.671875,504.609375 395.78125,466.640625 499.140625,466.640625 499.140625,365.390625 549.765625,363.28125 549.765625,253.59375 535.0,251.484375" stroke="black" stroke-linecap="butt" stroke-linejoin="miter" stroke-width="4" /><g id="room_living_room"><polygon fill="rgb(238,232,170)" fill-opacity="0.7" points="528.671875,101.71875 404.21875,101.71875 404.21875,194.53125 324.0625,196.640625 324.0625,297.890625 395.78125,300.0 395.78125,388.59375 423.203125,388.59375 423.203125,253.59375 528.671875,251.484375" stroke="black" stroke-width="1.5" /><text dominant-baseline="middle" fill="black" font-family="Arial" font-size="12px" font-weight="bold" text-anchor="middle" x="427.421875" y="246.2109375">Living Room</text></g><g id="room_master_bedroom"><polygon fill="rgb(255,165,0)" fill-opacity="0.7" points="256.5625,365.390625 256.5625,460.3125 387.34375,460.3125 387.34375,365.390625" stroke="black" stroke-width="1.5" /><text dominant-baseline="middle" fill="black" font-family="Arial" font-size="12px" font-weight="bold" text-anchor="middle" x="323.0078125" y="413.90625">Master Bedroom</text></g><g id="room_common_room_2"><polygon fill="rgb(255,215,0)" fill-opacity="0.7" points="431.640625,259.921875 431.640625,356.953125 543.4375,356.953125 543.4375,259.921875" stroke="black" stroke-width="1.5" /><text dominant-baseline="middle" fill="black" font-family="Arial" font-size="12px" font-weight="bold" text-anchor="middle" x="488.59375" y="309.4921875">Common Room 2</text></g><g id="room_common_room"><polygon fill="rgb(255,215,0)" fill-opacity="0.7" points="395.78125,397.03125 395.78125,460.3125 492.8125,460.3125 492.8125,365.390625 431.640625,365.390625 429.53125,397.03125" stroke="black" stroke-width="1.5" /><text dominant-baseline="middle" fill="black" font-family="Arial" font-size="12px" font-weight="bold" text-anchor="middle" x="445.3515625" y="413.90625">Common Room</text></g><g id="room_bathroom"><polygon fill="rgb(173,216,230)" fill-opacity="0.7" points="256.5625,306.328125 256.5625,356.953125 387.34375,356.953125 387.34375,306.328125" stroke="black" stroke-width="1.5" /><text dominant-baseline="middle" fill="black" font-family="Arial" font-size="12px" font-weight="bold" text-anchor="middle" x="323.0078125" y="332.6953125">Bathroom</text></g><g id="room_kitchen"><polygon fill="rgb(240,128,128)" fill-opacity="0.7" points="324.0625,101.71875 324.0625,188.203125 395.78125,188.203125 395.78125,101.71875" stroke="black" stroke-width="1.5" /><text dominant-baseline="middle" fill="black" font-family="Arial" font-size="12px" font-weight="bold" text-anchor="middle" x="360.9765625" y="146.015625">Kitchen</text></g><g id="room_balcony"><polygon fill="rgb(107,142,35)" fill-opacity="0.7" points="256.5625,468.75 256.5625,498.28125 387.34375,498.28125 387.34375,468.75" stroke="black" stroke-width="1.5" /><text dominant-baseline="middle" fill="black" font-family="Arial" font-size="12px" font-weight="bold" text-anchor="middle" x="323.0078125" y="484.5703125">Balcony</text></g><rect fill="red" fill-opacity="0.9" height="27.421875" id="main_door" stroke="darkred" stroke-width="3" width="6.328125" x="317.734375" y="198.75" /><text dominant-baseline="middle" fill="white" font-family="Arial" font-size="9px" font-weight="bold" text-anchor="middle" x="320.8984375" y="212.4609375">Main Door</text><text fill="black" font-family="Arial" font-size="18px" font-weight="bold" text-anchor="middle" x="400.0" y="30">Floor Plan - ID: 57224</text></svg>