<?xml version="1.0" encoding="utf-8" ?>
<svg baseProfile="full" height="600px" version="1.1" viewBox="0 0 800 600" width="800px" xmlns="http://www.w3.org/2000/svg" xmlns:ev="http://www.w3.org/2001/xml-events" xmlns:xlink="http://www.w3.org/1999/xlink"><defs /><rect fill="white" height="600" width="800" x="0" y="0" /><polygon fill="none" id="floor_plan_boundary" points="176.40625,169.21875 176.40625,259.921875 212.265625,262.03125 214.375,367.5 334.609375,367.5 336.71875,430.78125 589.84375,430.78125 589.84375,335.859375 623.59375,333.75 623.59375,207.1875 459.0625,207.1875 619.375,213.515625 619.375,327.421875 585.625,329.53125 583.515625,426.5625 343.046875,426.5625 340.9375,361.171875 216.484375,361.171875 216.484375,255.703125 180.625,253.59375 180.625,175.546875 334.609375,173.4375 336.71875,211.40625 425.3125,207.1875 343.046875,207.1875 340.9375,169.21875" stroke="black" stroke-linecap="butt" stroke-linejoin="miter" stroke-width="4" /><g id="room_living_room"><polygon fill="rgb(238,232,170)" fill-opacity="0.7" points="513.90625,213.515625 412.65625,213.515625 410.546875,262.03125 317.734375,262.03125 317.734375,287.34375 343.046875,289.453125 343.046875,424.453125 459.0625,424.453125 459.0625,329.53125 513.90625,327.421875" stroke="black" stroke-width="1.5" /><text dominant-baseline="middle" fill="black" font-family="Arial" font-size="12px" font-weight="bold" text-anchor="middle" x="416.875" y="320.0390625">Living Room</text></g><g id="room_master_bedroom"><polygon fill="rgb(255,165,0)" fill-opacity="0.7" points="182.734375,175.546875 182.734375,253.59375 404.21875,253.59375 404.21875,213.515625 336.71875,213.515625 334.609375,175.546875" stroke="black" stroke-width="1.5" /><text dominant-baseline="middle" fill="black" font-family="Arial" font-size="12px" font-weight="bold" text-anchor="middle" x="294.53125" y="215.625">Master Bedroom</text></g><g id="room_common_room_2"><polygon fill="rgb(255,215,0)" fill-opacity="0.7" points="218.59375,262.03125 218.59375,361.171875 334.609375,361.171875 334.609375,295.78125 309.296875,293.671875 309.296875,262.03125" stroke="black" stroke-width="1.5" /><text dominant-baseline="middle" fill="black" font-family="Arial" font-size="12px" font-weight="bold" text-anchor="middle" x="277.65625" y="312.65625">Common Room 2</text></g><g id="room_common_room"><polygon fill="rgb(255,215,0)" fill-opacity="0.7" points="467.5,335.859375 467.5,424.453125 583.515625,424.453125 583.515625,335.859375" stroke="black" stroke-width="1.5" /><text dominant-baseline="middle" fill="black" font-family="Arial" font-size="12px" font-weight="bold" text-anchor="middle" x="526.5625" y="381.2109375">Common Room</text></g><g id="room_kitchen"><polygon fill="rgb(240,128,128)" fill-opacity="0.7" points="522.34375,213.515625 522.34375,274.6875 617.265625,274.6875 617.265625,213.515625" stroke="black" stroke-width="1.5" /><text dominant-baseline="middle" fill="black" font-family="Arial" font-size="12px" font-weight="bold" text-anchor="middle" x="570.859375" y="245.15625">Kitchen</text></g><g id="room_bathroom"><polygon fill="rgb(173,216,230)" fill-opacity="0.7" points="522.34375,283.125 522.34375,327.421875 617.265625,327.421875 617.265625,283.125" stroke="black" stroke-width="1.5" /><text dominant-baseline="middle" fill="black" font-family="Arial" font-size="12px" font-weight="bold" text-anchor="middle" x="570.859375" y="306.328125">Bathroom</text></g><rect fill="red" fill-opacity="0.9" height="6.328125" id="main_door" stroke="darkred" stroke-width="3" width="31.640625" x="427.421875" y="207.1875" /><text dominant-baseline="middle" fill="white" font-family="Arial" font-size="9px" font-weight="bold" text-anchor="middle" x="443.2421875" y="210.3515625">Main Door</text><text fill="black" font-family="Arial" font-size="18px" font-weight="bold" text-anchor="middle" x="400.0" y="30">Floor Plan - ID: 57220</text></svg>