<?xml version="1.0" encoding="utf-8" ?>
<svg baseProfile="full" height="600px" version="1.1" viewBox="0 0 800 600" width="800px" xmlns="http://www.w3.org/2000/svg" xmlns:ev="http://www.w3.org/2001/xml-events" xmlns:xlink="http://www.w3.org/1999/xlink"><defs /><rect fill="white" height="600" width="800" x="0" y="0" /><polygon fill="none" id="floor_plan_boundary" points="265.0,120.703125 265.0,247.265625 292.421875,249.375 292.421875,302.109375 265.0,304.21875 265.0,504.609375 535.0,504.609375 535.0,304.21875 528.671875,500.390625 269.21875,498.28125 269.21875,310.546875 296.640625,308.4375 296.640625,243.046875 269.21875,240.9375 271.328125,124.921875 385.234375,124.921875 387.34375,99.609375 492.8125,99.609375 494.921875,202.96875 475.9375,205.078125 473.828125,249.375 416.875,249.375 416.875,308.4375 503.359375,304.21875 421.09375,302.109375 421.09375,255.703125 480.15625,253.59375 480.15625,211.40625 499.140625,209.296875 499.140625,95.390625 381.015625,95.390625 378.90625,120.703125" stroke="black" stroke-linecap="butt" stroke-linejoin="miter" stroke-width="4" /><g id="room_living_room"><polygon fill="rgb(238,232,170)" fill-opacity="0.7" points="387.34375,211.40625 387.34375,464.53125 528.671875,464.53125 528.671875,310.546875 416.875,310.546875 414.765625,211.40625" stroke="black" stroke-width="1.5" /><text dominant-baseline="middle" fill="black" font-family="Arial" font-size="12px" font-weight="bold" text-anchor="middle" x="459.0625" y="339.0234375">Living Room</text></g><g id="room_master_bedroom"><polygon fill="rgb(255,165,0)" fill-opacity="0.7" points="271.328125,375.9375 271.328125,498.28125 378.90625,498.28125 378.90625,375.9375" stroke="black" stroke-width="1.5" /><text dominant-baseline="middle" fill="black" font-family="Arial" font-size="12px" font-weight="bold" text-anchor="middle" x="326.171875" y="438.1640625">Master Bedroom</text></g><g id="room_common_room"><polygon fill="rgb(255,215,0)" fill-opacity="0.7" points="271.328125,127.03125 271.328125,240.9375 378.90625,240.9375 378.90625,127.03125" stroke="black" stroke-width="1.5" /><text dominant-baseline="middle" fill="black" font-family="Arial" font-size="12px" font-weight="bold" text-anchor="middle" x="326.171875" y="185.0390625">Common Room</text></g><g id="room_common_room_2"><polygon fill="rgb(255,215,0)" fill-opacity="0.7" points="387.34375,101.71875 387.34375,202.96875 492.8125,202.96875 492.8125,101.71875" stroke="black" stroke-width="1.5" /><text dominant-baseline="middle" fill="black" font-family="Arial" font-size="12px" font-weight="bold" text-anchor="middle" x="441.1328125" y="153.3984375">Common Room 2</text></g><g id="room_kitchen"><polygon fill="rgb(240,128,128)" fill-opacity="0.7" points="271.328125,310.546875 271.328125,367.5 378.90625,367.5 378.90625,310.546875" stroke="black" stroke-width="1.5" /><text dominant-baseline="middle" fill="black" font-family="Arial" font-size="12px" font-weight="bold" text-anchor="middle" x="326.171875" y="340.078125">Kitchen</text></g><g id="room_bathroom"><polygon fill="rgb(173,216,230)" fill-opacity="0.7" points="298.75,249.375 298.75,302.109375 378.90625,302.109375 378.90625,249.375" stroke="black" stroke-width="1.5" /><text dominant-baseline="middle" fill="black" font-family="Arial" font-size="12px" font-weight="bold" text-anchor="middle" x="339.8828125" y="276.796875">Bathroom</text></g><g id="room_balcony"><polygon fill="rgb(107,142,35)" fill-opacity="0.7" points="387.34375,472.96875 387.34375,498.28125 528.671875,498.28125 528.671875,472.96875" stroke="black" stroke-width="1.5" /><text dominant-baseline="middle" fill="black" font-family="Arial" font-size="12px" font-weight="bold" text-anchor="middle" x="459.0625" y="486.6796875">Balcony</text></g><g id="room_room_8"><polygon fill="rgb(221,160,221)" fill-opacity="0.7" points="423.203125,211.40625 423.203125,247.265625 473.828125,247.265625 473.828125,211.40625" stroke="black" stroke-width="1.5" /><text dominant-baseline="middle" fill="black" font-family="Arial" font-size="12px" font-weight="bold" text-anchor="middle" x="449.5703125" y="230.390625">Room 8</text></g><rect fill="red" fill-opacity="0.9" height="6.328125" id="main_door" stroke="darkred" stroke-width="3" width="27.421875" x="505.46875" y="304.21875" /><text dominant-baseline="middle" fill="white" font-family="Arial" font-size="9px" font-weight="bold" text-anchor="middle" x="519.1796875" y="307.3828125">Main Door</text><text fill="black" font-family="Arial" font-size="18px" font-weight="bold" text-anchor="middle" x="400.0" y="30">Floor Plan - ID: 57272</text></svg>