<?xml version="1.0" encoding="utf-8" ?>
<svg baseProfile="full" height="600px" version="1.1" viewBox="0 0 800 600" width="800px" xmlns="http://www.w3.org/2000/svg" xmlns:ev="http://www.w3.org/2001/xml-events" xmlns:xlink="http://www.w3.org/1999/xlink"><defs /><rect fill="white" height="600" width="800" x="0" y="0" /><polygon fill="none" id="floor_plan_boundary" points="395.78125,61.640625 395.78125,211.40625 400.0,67.96875 494.921875,67.96875 494.921875,211.40625 532.890625,213.515625 532.890625,532.03125 402.109375,534.140625 400.0,489.84375 267.109375,487.734375 267.109375,337.96875 298.75,335.859375 298.75,245.15625 393.671875,238.828125 294.53125,238.828125 294.53125,329.53125 262.890625,331.640625 262.890625,494.0625 393.671875,494.0625 395.78125,538.359375 537.109375,538.359375 537.109375,207.1875 499.140625,205.078125 499.140625,61.640625" stroke="black" stroke-linecap="butt" stroke-linejoin="miter" stroke-width="4" /><g id="room_living_room"><polygon fill="rgb(238,232,170)" fill-opacity="0.7" points="402.109375,150.234375 402.109375,243.046875 370.46875,245.15625 370.46875,329.53125 530.78125,329.53125 530.78125,213.515625 492.8125,211.40625 492.8125,150.234375" stroke="black" stroke-width="1.5" /><text dominant-baseline="middle" fill="black" font-family="Arial" font-size="12px" font-weight="bold" text-anchor="middle" x="451.6796875" y="240.9375">Living Room</text></g><g id="room_master_bedroom"><polygon fill="rgb(255,165,0)" fill-opacity="0.7" points="402.109375,337.96875 402.109375,487.734375 530.78125,487.734375 530.78125,337.96875" stroke="black" stroke-width="1.5" /><text dominant-baseline="middle" fill="black" font-family="Arial" font-size="12px" font-weight="bold" text-anchor="middle" x="467.5" y="413.90625">Master Bedroom</text></g><g id="room_common_room"><polygon fill="rgb(255,215,0)" fill-opacity="0.7" points="269.21875,337.96875 269.21875,487.734375 393.671875,487.734375 393.671875,337.96875" stroke="black" stroke-width="1.5" /><text dominant-baseline="middle" fill="black" font-family="Arial" font-size="12px" font-weight="bold" text-anchor="middle" x="332.5" y="413.90625">Common Room</text></g><g id="room_kitchen"><polygon fill="rgb(240,128,128)" fill-opacity="0.7" points="402.109375,67.96875 402.109375,141.796875 492.8125,141.796875 492.8125,67.96875" stroke="black" stroke-width="1.5" /><text dominant-baseline="middle" fill="black" font-family="Arial" font-size="12px" font-weight="bold" text-anchor="middle" x="448.515625" y="105.9375">Kitchen</text></g><g id="room_bathroom"><polygon fill="rgb(173,216,230)" fill-opacity="0.7" points="300.859375,245.15625 300.859375,329.53125 362.03125,329.53125 362.03125,245.15625" stroke="black" stroke-width="1.5" /><text dominant-baseline="middle" fill="black" font-family="Arial" font-size="12px" font-weight="bold" text-anchor="middle" x="332.5" y="288.3984375">Bathroom</text></g><g id="room_balcony"><polygon fill="rgb(107,142,35)" fill-opacity="0.7" points="402.109375,496.171875 402.109375,532.03125 530.78125,532.03125 530.78125,496.171875" stroke="black" stroke-width="1.5" /><text dominant-baseline="middle" fill="black" font-family="Arial" font-size="12px" font-weight="bold" text-anchor="middle" x="467.5" y="515.15625">Balcony</text></g><rect fill="red" fill-opacity="0.9" height="27.421875" id="main_door" stroke="darkred" stroke-width="3" width="6.328125" x="395.78125" y="213.515625" /><text dominant-baseline="middle" fill="white" font-family="Arial" font-size="9px" font-weight="bold" text-anchor="middle" x="398.9453125" y="227.2265625">Main Door</text><text fill="black" font-family="Arial" font-size="18px" font-weight="bold" text-anchor="middle" x="400.0" y="30">Floor Plan - ID: 57295</text></svg>