<?xml version="1.0" encoding="utf-8" ?>
<svg baseProfile="full" height="600px" version="1.1" viewBox="0 0 800 600" width="800px" xmlns="http://www.w3.org/2000/svg" xmlns:ev="http://www.w3.org/2001/xml-events" xmlns:xlink="http://www.w3.org/1999/xlink"><defs /><rect fill="white" height="600" width="800" x="0" y="0" /><polygon fill="none" id="floor_plan_boundary" points="210.15625,135.46875 210.15625,247.265625 218.59375,247.265625 220.703125,143.90625 362.03125,143.90625 364.140625,173.4375 427.421875,173.4375 429.53125,143.90625 513.90625,143.90625 516.015625,253.59375 581.40625,255.703125 579.296875,456.09375 250.234375,456.09375 248.125,285.234375 210.15625,281.015625 210.15625,293.671875 239.6875,295.78125 239.6875,464.53125 589.84375,464.53125 589.84375,245.15625 524.453125,243.046875 524.453125,135.46875 418.984375,135.46875 416.875,165.0 374.6875,165.0 372.578125,135.46875" stroke="black" stroke-linecap="butt" stroke-linejoin="miter" stroke-width="4" /><g id="room_living_room"><polygon fill="rgb(238,232,170)" fill-opacity="0.7" points="290.3125,146.015625 290.3125,234.609375 220.703125,236.71875 220.703125,283.125 250.234375,285.234375 250.234375,388.59375 368.359375,388.59375 370.46875,283.125 503.359375,283.125 503.359375,255.703125 364.140625,255.703125 362.03125,146.015625" stroke="black" stroke-width="1.5" /><text dominant-baseline="middle" fill="black" font-family="Arial" font-size="12px" font-weight="bold" text-anchor="middle" x="363.0859375" y="268.359375">Living Room</text></g><g id="room_master_bedroom"><polygon fill="rgb(255,165,0)" fill-opacity="0.7" points="471.71875,295.78125 471.71875,453.984375 579.296875,453.984375 579.296875,325.3125 505.46875,325.3125 503.359375,295.78125" stroke="black" stroke-width="1.5" /><text dominant-baseline="middle" fill="black" font-family="Arial" font-size="12px" font-weight="bold" text-anchor="middle" x="526.5625" y="375.9375">Master Bedroom</text></g><g id="room_common_room"><polygon fill="rgb(255,215,0)" fill-opacity="0.7" points="381.015625,295.78125 381.015625,453.984375 459.0625,453.984375 459.0625,295.78125" stroke="black" stroke-width="1.5" /><text dominant-baseline="middle" fill="black" font-family="Arial" font-size="12px" font-weight="bold" text-anchor="middle" x="421.09375" y="375.9375">Common Room</text></g><g id="room_common_room_2"><polygon fill="rgb(255,215,0)" fill-opacity="0.7" points="429.53125,146.015625 429.53125,243.046875 513.90625,243.046875 513.90625,146.015625" stroke="black" stroke-width="1.5" /><text dominant-baseline="middle" fill="black" font-family="Arial" font-size="12px" font-weight="bold" text-anchor="middle" x="472.7734375" y="195.5859375">Common Room 2</text></g><g id="room_balcony"><polygon fill="rgb(107,142,35)" fill-opacity="0.7" points="250.234375,401.25 250.234375,453.984375 368.359375,453.984375 368.359375,401.25" stroke="black" stroke-width="1.5" /><text dominant-baseline="middle" fill="black" font-family="Arial" font-size="12px" font-weight="bold" text-anchor="middle" x="310.3515625" y="428.671875">Balcony</text></g><g id="room_kitchen"><polygon fill="rgb(240,128,128)" fill-opacity="0.7" points="220.703125,146.015625 220.703125,228.28125 277.65625,228.28125 277.65625,146.015625" stroke="black" stroke-width="1.5" /><text dominant-baseline="middle" fill="black" font-family="Arial" font-size="12px" font-weight="bold" text-anchor="middle" x="250.234375" y="188.203125">Kitchen</text></g><g id="room_bathroom"><polygon fill="rgb(173,216,230)" fill-opacity="0.7" points="511.796875,255.703125 511.796875,316.875 579.296875,316.875 579.296875,255.703125" stroke="black" stroke-width="1.5" /><text dominant-baseline="middle" fill="black" font-family="Arial" font-size="12px" font-weight="bold" text-anchor="middle" x="546.6015625" y="287.34375">Bathroom</text></g><g id="room_bathroom_2"><polygon fill="rgb(173,216,230)" fill-opacity="0.7" points="374.6875,175.546875 374.6875,243.046875 416.875,243.046875 416.875,175.546875" stroke="black" stroke-width="1.5" /><text dominant-baseline="middle" fill="black" font-family="Arial" font-size="12px" font-weight="bold" text-anchor="middle" x="396.8359375" y="210.3515625">Bathroom 2</text></g><rect fill="red" fill-opacity="0.9" height="31.640625" id="main_door" stroke="darkred" stroke-width="3" width="10.546875" x="210.15625" y="249.375" /><text dominant-baseline="middle" fill="white" font-family="Arial" font-size="9px" font-weight="bold" text-anchor="middle" x="215.4296875" y="265.1953125">Main Door</text><text fill="black" font-family="Arial" font-size="18px" font-weight="bold" text-anchor="middle" x="400.0" y="30">Floor Plan - ID: 57374</text></svg>