<?xml version="1.0" encoding="utf-8" ?>
<svg baseProfile="full" height="600px" version="1.1" viewBox="0 0 800 600" width="800px" xmlns="http://www.w3.org/2000/svg" xmlns:ev="http://www.w3.org/2001/xml-events" xmlns:xlink="http://www.w3.org/1999/xlink"><defs /><rect fill="white" height="600" width="800" x="0" y="0" /><polygon fill="none" id="floor_plan_boundary" points="302.96875,139.6875 302.96875,310.546875 246.015625,312.65625 246.015625,439.21875 317.734375,439.21875 319.84375,458.203125 330.390625,460.3125 328.28125,430.78125 254.453125,428.671875 254.453125,323.203125 311.40625,321.09375 313.515625,148.125 509.6875,148.125 511.796875,259.921875 545.546875,262.03125 545.546875,392.8125 429.53125,394.921875 429.53125,449.765625 364.140625,451.875 364.140625,460.3125 437.96875,458.203125 440.078125,403.359375 553.984375,403.359375 553.984375,251.484375 520.234375,249.375 520.234375,139.6875" stroke="black" stroke-linecap="butt" stroke-linejoin="miter" stroke-width="4" /><g id="room_living_room"><polygon fill="rgb(238,232,170)" fill-opacity="0.7" points="427.421875,276.796875 404.21875,276.796875 402.109375,323.203125 256.5625,323.203125 256.5625,428.671875 328.28125,428.671875 330.390625,449.765625 427.421875,449.765625" stroke="black" stroke-width="1.5" /><text dominant-baseline="middle" fill="black" font-family="Arial" font-size="12px" font-weight="bold" text-anchor="middle" x="343.046875" y="364.3359375">Living Room</text></g><g id="room_master_bedroom_2"><polygon fill="rgb(255,165,0)" fill-opacity="0.7" points="404.21875,150.234375 404.21875,264.140625 509.6875,264.140625 509.6875,150.234375" stroke="black" stroke-width="1.5" /><text dominant-baseline="middle" fill="black" font-family="Arial" font-size="12px" font-weight="bold" text-anchor="middle" x="458.0078125" y="208.2421875">Master Bedroom 2</text></g><g id="room_master_bedroom"><polygon fill="rgb(255,165,0)" fill-opacity="0.7" points="313.515625,196.640625 313.515625,310.546875 391.5625,310.546875 391.5625,196.640625" stroke="black" stroke-width="1.5" /><text dominant-baseline="middle" fill="black" font-family="Arial" font-size="12px" font-weight="bold" text-anchor="middle" x="353.59375" y="254.6484375">Master Bedroom</text></g><g id="room_kitchen"><polygon fill="rgb(240,128,128)" fill-opacity="0.7" points="543.4375,262.03125 522.34375,262.03125 522.34375,342.1875 440.078125,344.296875 440.078125,392.8125 543.4375,392.8125" stroke="black" stroke-width="1.5" /><text dominant-baseline="middle" fill="black" font-family="Arial" font-size="12px" font-weight="bold" text-anchor="middle" x="492.8125" y="328.4765625">Kitchen</text></g><g id="room_bathroom"><polygon fill="rgb(173,216,230)" fill-opacity="0.7" points="440.078125,276.796875 440.078125,331.640625 509.6875,331.640625 509.6875,276.796875" stroke="black" stroke-width="1.5" /><text dominant-baseline="middle" fill="black" font-family="Arial" font-size="12px" font-weight="bold" text-anchor="middle" x="475.9375" y="305.2734375">Bathroom</text></g><g id="room_balcony"><polygon fill="rgb(107,142,35)" fill-opacity="0.7" points="313.515625,150.234375 313.515625,183.984375 391.5625,183.984375 391.5625,150.234375" stroke="black" stroke-width="1.5" /><text dominant-baseline="middle" fill="black" font-family="Arial" font-size="12px" font-weight="bold" text-anchor="middle" x="353.59375" y="168.1640625">Balcony</text></g><rect fill="red" fill-opacity="0.9" height="10.546875" id="main_door" stroke="darkred" stroke-width="3" width="31.640625" x="332.5" y="451.875" /><text dominant-baseline="middle" fill="white" font-family="Arial" font-size="9px" font-weight="bold" text-anchor="middle" x="348.3203125" y="457.1484375">Main Door</text><text fill="black" font-family="Arial" font-size="18px" font-weight="bold" text-anchor="middle" x="400.0" y="30">Floor Plan - ID: 57533</text></svg>