<?xml version="1.0" encoding="utf-8" ?>
<svg baseProfile="full" height="600px" version="1.1" viewBox="0 0 800 600" width="800px" xmlns="http://www.w3.org/2000/svg" xmlns:ev="http://www.w3.org/2001/xml-events" xmlns:xlink="http://www.w3.org/1999/xlink"><defs /><rect fill="white" height="600" width="800" x="0" y="0" /><polygon fill="none" id="floor_plan_boundary" points="252.34375,116.484375 252.34375,228.28125 227.03125,230.390625 227.03125,428.671875 353.59375,428.671875 355.703125,394.921875 444.296875,394.921875 446.40625,483.515625 572.96875,483.515625 572.96875,278.90625 560.3125,278.90625 568.75,285.234375 566.640625,479.296875 452.734375,479.296875 450.625,390.703125 349.375,390.703125 347.265625,424.453125 231.25,422.34375 231.25,236.71875 256.5625,234.609375 258.671875,120.703125 526.5625,120.703125 532.890625,276.796875 532.890625,116.484375" stroke="black" stroke-linecap="butt" stroke-linejoin="miter" stroke-width="4" /><g id="room_living_room"><polygon fill="rgb(238,232,170)" fill-opacity="0.7" points="440.078125,122.8125 440.078125,234.609375 302.96875,236.71875 302.96875,300.0 347.265625,300.0 349.375,276.796875 450.625,276.796875 452.734375,422.34375 566.640625,422.34375 566.640625,285.234375 526.5625,283.125 526.5625,122.8125" stroke="black" stroke-width="1.5" /><text dominant-baseline="middle" fill="black" font-family="Arial" font-size="12px" font-weight="bold" text-anchor="middle" x="435.859375" y="273.6328125">Living Room</text></g><g id="room_master_bedroom"><polygon fill="rgb(255,165,0)" fill-opacity="0.7" points="233.359375,308.4375 233.359375,422.34375 347.265625,422.34375 347.265625,308.4375" stroke="black" stroke-width="1.5" /><text dominant-baseline="middle" fill="black" font-family="Arial" font-size="12px" font-weight="bold" text-anchor="middle" x="291.3671875" y="366.4453125">Master Bedroom</text></g><g id="room_common_room_2"><polygon fill="rgb(255,215,0)" fill-opacity="0.7" points="258.671875,122.8125 258.671875,228.28125 372.578125,228.28125 372.578125,122.8125" stroke="black" stroke-width="1.5" /><text dominant-baseline="middle" fill="black" font-family="Arial" font-size="12px" font-weight="bold" text-anchor="middle" x="316.6796875" y="176.6015625">Common Room 2</text></g><g id="room_common_room"><polygon fill="rgb(255,215,0)" fill-opacity="0.7" points="355.703125,285.234375 355.703125,388.59375 444.296875,388.59375 444.296875,285.234375" stroke="black" stroke-width="1.5" /><text dominant-baseline="middle" fill="black" font-family="Arial" font-size="12px" font-weight="bold" text-anchor="middle" x="401.0546875" y="337.96875">Common Room</text></g><g id="room_kitchen"><polygon fill="rgb(240,128,128)" fill-opacity="0.7" points="381.015625,122.8125 381.015625,228.28125 431.640625,228.28125 431.640625,122.8125" stroke="black" stroke-width="1.5" /><text dominant-baseline="middle" fill="black" font-family="Arial" font-size="12px" font-weight="bold" text-anchor="middle" x="407.3828125" y="176.6015625">Kitchen</text></g><g id="room_balcony"><polygon fill="rgb(107,142,35)" fill-opacity="0.7" points="452.734375,430.78125 452.734375,477.1875 566.640625,477.1875 566.640625,430.78125" stroke="black" stroke-width="1.5" /><text dominant-baseline="middle" fill="black" font-family="Arial" font-size="12px" font-weight="bold" text-anchor="middle" x="510.7421875" y="455.0390625">Balcony</text></g><g id="room_bathroom"><polygon fill="rgb(173,216,230)" fill-opacity="0.7" points="233.359375,236.71875 233.359375,300.0 294.53125,300.0 294.53125,236.71875" stroke="black" stroke-width="1.5" /><text dominant-baseline="middle" fill="black" font-family="Arial" font-size="12px" font-weight="bold" text-anchor="middle" x="265.0" y="269.4140625">Bathroom</text></g><rect fill="red" fill-opacity="0.9" height="6.328125" id="main_door" stroke="darkred" stroke-width="3" width="27.421875" x="532.890625" y="278.90625" /><text dominant-baseline="middle" fill="white" font-family="Arial" font-size="9px" font-weight="bold" text-anchor="middle" x="546.6015625" y="282.0703125">Main Door</text><text fill="black" font-family="Arial" font-size="18px" font-weight="bold" text-anchor="middle" x="400.0" y="30">Floor Plan - ID: 57671</text></svg>