<?xml version="1.0" encoding="utf-8" ?>
<svg baseProfile="full" height="600px" version="1.1" viewBox="0 0 800 600" width="800px" xmlns="http://www.w3.org/2000/svg" xmlns:ev="http://www.w3.org/2001/xml-events" xmlns:xlink="http://www.w3.org/1999/xlink"><defs /><rect fill="white" height="600" width="800" x="0" y="0" /><polygon fill="none" id="floor_plan_boundary" points="600.390625,171.328125 513.90625,171.328125 511.796875,156.5625 471.71875,156.5625 469.609375,171.328125 199.609375,171.328125 199.609375,443.4375 315.625,443.4375 317.734375,432.890625 400.0,432.890625 402.109375,371.71875 545.546875,371.71875 545.546875,363.28125 391.5625,363.28125 389.453125,424.453125 307.1875,424.453125 305.078125,435.0 210.15625,435.0 210.15625,179.765625 475.9375,179.765625 478.046875,160.78125 505.46875,160.78125 505.46875,179.765625 589.84375,179.765625 591.953125,361.171875 579.296875,363.28125 579.296875,371.71875 600.390625,371.71875" stroke="black" stroke-linecap="butt" stroke-linejoin="miter" stroke-width="4" /><g id="room_living_room"><polygon fill="rgb(238,232,170)" fill-opacity="0.7" points="315.625,310.546875 315.625,363.28125 589.84375,361.171875 589.84375,240.9375 452.734375,240.9375 450.625,181.875 397.890625,181.875 397.890625,308.4375" stroke="black" stroke-width="1.5" /><text dominant-baseline="middle" fill="black" font-family="Arial" font-size="12px" font-weight="bold" text-anchor="middle" x="453.7890625" y="273.6328125">Living Room</text></g><g id="room_master_bedroom"><polygon fill="rgb(255,165,0)" fill-opacity="0.7" points="210.15625,181.875 210.15625,302.109375 389.453125,302.109375 389.453125,181.875" stroke="black" stroke-width="1.5" /><text dominant-baseline="middle" fill="black" font-family="Arial" font-size="12px" font-weight="bold" text-anchor="middle" x="300.859375" y="243.046875">Master Bedroom</text></g><g id="room_common_room_2"><polygon fill="rgb(255,215,0)" fill-opacity="0.7" points="210.15625,310.546875 210.15625,432.890625 305.078125,432.890625 307.1875,310.546875" stroke="black" stroke-width="1.5" /><text dominant-baseline="middle" fill="black" font-family="Arial" font-size="12px" font-weight="bold" text-anchor="middle" x="259.7265625" y="372.7734375">Common Room 2</text></g><g id="room_common_room"><polygon fill="rgb(255,215,0)" fill-opacity="0.7" points="315.625,371.71875 315.625,422.34375 389.453125,422.34375 389.453125,371.71875" stroke="black" stroke-width="1.5" /><text dominant-baseline="middle" fill="black" font-family="Arial" font-size="12px" font-weight="bold" text-anchor="middle" x="353.59375" y="398.0859375">Common Room</text></g><g id="room_kitchen"><polygon fill="rgb(240,128,128)" fill-opacity="0.7" points="478.046875,162.890625 478.046875,179.765625 459.0625,181.875 459.0625,232.5 522.34375,232.5 522.34375,181.875 503.359375,179.765625 505.46875,162.890625" stroke="black" stroke-width="1.5" /><text dominant-baseline="middle" fill="black" font-family="Arial" font-size="12px" font-weight="bold" text-anchor="middle" x="491.7578125" y="198.75">Kitchen</text></g><g id="room_bathroom"><polygon fill="rgb(173,216,230)" fill-opacity="0.7" points="530.78125,181.875 530.78125,232.5 589.84375,232.5 589.84375,181.875" stroke="black" stroke-width="1.5" /><text dominant-baseline="middle" fill="black" font-family="Arial" font-size="12px" font-weight="bold" text-anchor="middle" x="561.3671875" y="208.2421875">Bathroom</text></g><rect fill="red" fill-opacity="0.9" height="10.546875" id="main_door" stroke="darkred" stroke-width="3" width="31.640625" x="547.65625" y="363.28125" /><text dominant-baseline="middle" fill="white" font-family="Arial" font-size="9px" font-weight="bold" text-anchor="middle" x="563.4765625" y="368.5546875">Main Door</text><text fill="black" font-family="Arial" font-size="18px" font-weight="bold" text-anchor="middle" x="400.0" y="30">Floor Plan - ID: 57951</text></svg>