<?xml version="1.0" encoding="utf-8" ?>
<svg baseProfile="full" height="600px" version="1.1" viewBox="0 0 800 600" width="800px" xmlns="http://www.w3.org/2000/svg" xmlns:ev="http://www.w3.org/2001/xml-events" xmlns:xlink="http://www.w3.org/1999/xlink"><defs /><rect fill="white" height="600" width="800" x="0" y="0" /><polygon fill="none" id="floor_plan_boundary" points="277.65625,118.59375 277.65625,318.984375 235.46875,321.09375 235.46875,432.890625 513.90625,432.890625 516.015625,481.40625 520.234375,428.671875 241.796875,428.671875 239.6875,327.421875 281.875,325.3125 283.984375,122.8125 528.671875,122.8125 530.78125,274.6875 560.3125,276.796875 560.3125,475.078125 545.546875,481.40625 564.53125,481.40625 564.53125,270.46875 535.0,268.359375 535.0,118.59375" stroke="black" stroke-linecap="butt" stroke-linejoin="miter" stroke-width="4" /><g id="room_living_room"><polygon fill="rgb(238,232,170)" fill-opacity="0.7" points="402.109375,196.640625 402.109375,325.3125 283.984375,327.421875 283.984375,426.5625 520.234375,426.5625 522.34375,475.078125 558.203125,475.078125 558.203125,327.421875 435.859375,327.421875 433.75,196.640625" stroke="black" stroke-width="1.5" /><text dominant-baseline="middle" fill="black" font-family="Arial" font-size="12px" font-weight="bold" text-anchor="middle" x="422.1484375" y="336.9140625">Living Room</text></g><g id="room_common_room"><polygon fill="rgb(255,215,0)" fill-opacity="0.7" points="283.984375,226.171875 283.984375,318.984375 393.671875,318.984375 393.671875,226.171875" stroke="black" stroke-width="1.5" /><text dominant-baseline="middle" fill="black" font-family="Arial" font-size="12px" font-weight="bold" text-anchor="middle" x="339.8828125" y="273.6328125">Common Room</text></g><g id="room_master_bedroom"><polygon fill="rgb(255,165,0)" fill-opacity="0.7" points="283.984375,124.921875 283.984375,217.734375 393.671875,217.734375 393.671875,196.640625 383.125,194.53125 383.125,124.921875" stroke="black" stroke-width="1.5" /><text dominant-baseline="middle" fill="black" font-family="Arial" font-size="12px" font-weight="bold" text-anchor="middle" x="339.8828125" y="172.3828125">Master Bedroom</text></g><g id="room_common_room_2"><polygon fill="rgb(255,215,0)" fill-opacity="0.7" points="442.1875,124.921875 442.1875,217.734375 528.671875,217.734375 528.671875,124.921875" stroke="black" stroke-width="1.5" /><text dominant-baseline="middle" fill="black" font-family="Arial" font-size="12px" font-weight="bold" text-anchor="middle" x="486.484375" y="172.3828125">Common Room 2</text></g><g id="room_kitchen"><polygon fill="rgb(240,128,128)" fill-opacity="0.7" points="442.1875,276.796875 442.1875,318.984375 558.203125,318.984375 558.203125,276.796875" stroke="black" stroke-width="1.5" /><text dominant-baseline="middle" fill="black" font-family="Arial" font-size="12px" font-weight="bold" text-anchor="middle" x="501.25" y="298.9453125">Kitchen</text></g><g id="room_bathroom"><polygon fill="rgb(173,216,230)" fill-opacity="0.7" points="442.1875,226.171875 442.1875,268.359375 528.671875,268.359375 528.671875,226.171875" stroke="black" stroke-width="1.5" /><text dominant-baseline="middle" fill="black" font-family="Arial" font-size="12px" font-weight="bold" text-anchor="middle" x="486.484375" y="248.3203125">Bathroom</text></g><g id="room_balcony"><polygon fill="rgb(107,142,35)" fill-opacity="0.7" points="241.796875,327.421875 241.796875,426.5625 275.546875,426.5625 275.546875,327.421875" stroke="black" stroke-width="1.5" /><text dominant-baseline="middle" fill="black" font-family="Arial" font-size="12px" font-weight="bold" text-anchor="middle" x="259.7265625" y="378.046875">Balcony</text></g><g id="room_bathroom_2"><polygon fill="rgb(173,216,230)" fill-opacity="0.7" points="391.5625,124.921875 391.5625,188.203125 433.75,188.203125 433.75,124.921875" stroke="black" stroke-width="1.5" /><text dominant-baseline="middle" fill="black" font-family="Arial" font-size="12px" font-weight="bold" text-anchor="middle" x="413.7109375" y="157.6171875">Bathroom 2</text></g><rect fill="red" fill-opacity="0.9" height="6.328125" id="main_door" stroke="darkred" stroke-width="3" width="27.421875" x="518.125" y="477.1875" /><text dominant-baseline="middle" fill="white" font-family="Arial" font-size="9px" font-weight="bold" text-anchor="middle" x="531.8359375" y="480.3515625">Main Door</text><text fill="black" font-family="Arial" font-size="18px" font-weight="bold" text-anchor="middle" x="400.0" y="30">Floor Plan - ID: 57972</text></svg>