<?xml version="1.0" encoding="utf-8" ?>
<svg baseProfile="full" height="600px" version="1.1" viewBox="0 0 800 600" width="800px" xmlns="http://www.w3.org/2000/svg" xmlns:ev="http://www.w3.org/2001/xml-events" xmlns:xlink="http://www.w3.org/1999/xlink"><defs /><rect fill="white" height="600" width="800" x="0" y="0" /><polygon fill="none" id="floor_plan_boundary" points="564.53125,133.359375 461.171875,133.359375 560.3125,139.6875 560.3125,460.3125 239.6875,460.3125 239.6875,259.921875 433.75,257.8125 429.53125,133.359375 427.421875,253.59375 235.46875,253.59375 235.46875,466.640625 564.53125,466.640625" stroke="black" stroke-linecap="butt" stroke-linejoin="miter" stroke-width="4" /><g id="room_living_room"><polygon fill="rgb(238,232,170)" fill-opacity="0.7" points="463.28125,139.6875 435.859375,139.6875 433.75,259.921875 277.65625,259.921875 277.65625,380.15625 404.21875,380.15625 406.328125,405.46875 463.28125,405.46875 465.390625,371.71875 524.453125,371.71875 524.453125,295.78125 463.28125,293.671875" stroke="black" stroke-width="1.5" /><text dominant-baseline="middle" fill="black" font-family="Arial" font-size="12px" font-weight="bold" text-anchor="middle" x="402.109375" y="273.6328125">Living Room</text></g><g id="room_balcony_2"><polygon fill="rgb(107,142,35)" fill-opacity="0.7" points="241.796875,259.921875 241.796875,460.3125 397.890625,460.3125 397.890625,388.59375 269.21875,386.484375 269.21875,259.921875" stroke="black" stroke-width="1.5" /><text dominant-baseline="middle" fill="black" font-family="Arial" font-size="12px" font-weight="bold" text-anchor="middle" x="320.8984375" y="361.171875">Balcony 2</text></g><g id="room_balcony"><polygon fill="rgb(107,142,35)" fill-opacity="0.7" points="558.203125,295.78125 532.890625,295.78125 530.78125,380.15625 471.71875,380.15625 471.71875,460.3125 558.203125,460.3125" stroke="black" stroke-width="1.5" /><text dominant-baseline="middle" fill="black" font-family="Arial" font-size="12px" font-weight="bold" text-anchor="middle" x="516.015625" y="379.1015625">Balcony</text></g><g id="room_master_bedroom"><polygon fill="rgb(255,165,0)" fill-opacity="0.7" points="471.71875,139.6875 471.71875,221.953125 558.203125,221.953125 558.203125,139.6875" stroke="black" stroke-width="1.5" /><text dominant-baseline="middle" fill="black" font-family="Arial" font-size="12px" font-weight="bold" text-anchor="middle" x="516.015625" y="181.875">Master Bedroom</text></g><g id="room_kitchen"><polygon fill="rgb(240,128,128)" fill-opacity="0.7" points="471.71875,230.390625 471.71875,287.34375 558.203125,287.34375 558.203125,230.390625" stroke="black" stroke-width="1.5" /><text dominant-baseline="middle" fill="black" font-family="Arial" font-size="12px" font-weight="bold" text-anchor="middle" x="516.015625" y="259.921875">Kitchen</text></g><g id="room_bathroom"><polygon fill="rgb(173,216,230)" fill-opacity="0.7" points="406.328125,413.90625 406.328125,460.3125 463.28125,460.3125 463.28125,413.90625" stroke="black" stroke-width="1.5" /><text dominant-baseline="middle" fill="black" font-family="Arial" font-size="12px" font-weight="bold" text-anchor="middle" x="435.859375" y="438.1640625">Bathroom</text></g><rect fill="red" fill-opacity="0.9" height="6.328125" id="main_door" stroke="darkred" stroke-width="3" width="27.421875" x="433.75" y="133.359375" /><text dominant-baseline="middle" fill="white" font-family="Arial" font-size="9px" font-weight="bold" text-anchor="middle" x="447.4609375" y="136.5234375">Main Door</text><text fill="black" font-family="Arial" font-size="18px" font-weight="bold" text-anchor="middle" x="400.0" y="30">Floor Plan - ID: 58108</text></svg>