<?xml version="1.0" encoding="utf-8" ?>
<svg baseProfile="full" height="600px" version="1.1" viewBox="0 0 800 600" width="800px" xmlns="http://www.w3.org/2000/svg" xmlns:ev="http://www.w3.org/2001/xml-events" xmlns:xlink="http://www.w3.org/1999/xlink"><defs /><rect fill="white" height="600" width="800" x="0" y="0" /><polygon fill="none" id="floor_plan_boundary" points="218.59375,165.0 218.59375,304.21875 277.65625,304.21875 279.765625,316.875 317.734375,318.984375 315.625,327.421875 296.640625,327.421875 296.640625,422.34375 315.625,422.34375 317.734375,435.0 539.21875,435.0 539.21875,418.125 530.78125,418.125 528.671875,426.5625 328.28125,426.5625 326.171875,413.90625 307.1875,413.90625 305.078125,337.96875 326.171875,335.859375 326.171875,308.4375 290.3125,308.4375 288.203125,295.78125 227.03125,293.671875 229.140625,173.4375 433.75,173.4375 435.859375,192.421875 475.9375,192.421875 478.046875,281.015625 528.671875,281.015625 530.78125,253.59375 572.96875,255.703125 572.96875,378.046875 530.78125,380.15625 530.78125,388.59375 581.40625,388.59375 581.40625,245.15625 520.234375,245.15625 518.125,272.578125 488.59375,272.578125 486.484375,183.984375 446.40625,183.984375 444.296875,165.0" stroke="black" stroke-linecap="butt" stroke-linejoin="miter" stroke-width="4" /><g id="room_living_room"><polygon fill="rgb(238,232,170)" fill-opacity="0.7" points="307.1875,337.96875 307.1875,411.796875 326.171875,411.796875 328.28125,424.453125 528.671875,424.453125 528.671875,390.703125 501.25,388.59375 501.25,337.96875 440.078125,335.859375 440.078125,281.015625 397.890625,281.015625 395.78125,318.984375 328.28125,318.984375 326.171875,337.96875" stroke="black" stroke-width="1.5" /><text dominant-baseline="middle" fill="black" font-family="Arial" font-size="12px" font-weight="bold" text-anchor="middle" x="418.984375" y="353.7890625">Living Room</text></g><g id="room_balcony_2"><polygon fill="rgb(107,142,35)" fill-opacity="0.7" points="351.484375,175.546875 229.140625,175.546875 229.140625,293.671875 277.65625,293.671875 277.65625,213.515625 351.484375,211.40625" stroke="black" stroke-width="1.5" /><text dominant-baseline="middle" fill="black" font-family="Arial" font-size="12px" font-weight="bold" text-anchor="middle" x="291.3671875" y="235.6640625">Balcony 2</text></g><g id="room_common_room"><polygon fill="rgb(255,215,0)" fill-opacity="0.7" points="359.921875,175.546875 359.921875,211.40625 397.890625,213.515625 397.890625,272.578125 475.9375,270.46875 475.9375,194.53125 435.859375,194.53125 433.75,175.546875" stroke="black" stroke-width="1.5" /><text dominant-baseline="middle" fill="black" font-family="Arial" font-size="12px" font-weight="bold" text-anchor="middle" x="418.984375" y="225.1171875">Common Room</text></g><g id="room_master_bedroom"><polygon fill="rgb(255,165,0)" fill-opacity="0.7" points="290.3125,224.0625 290.3125,306.328125 385.234375,306.328125 385.234375,224.0625" stroke="black" stroke-width="1.5" /><text dominant-baseline="middle" fill="black" font-family="Arial" font-size="12px" font-weight="bold" text-anchor="middle" x="338.828125" y="266.25">Master Bedroom</text></g><g id="room_kitchen"><polygon fill="rgb(240,128,128)" fill-opacity="0.7" points="513.90625,321.09375 513.90625,378.046875 570.859375,378.046875 570.859375,321.09375" stroke="black" stroke-width="1.5" /><text dominant-baseline="middle" fill="black" font-family="Arial" font-size="12px" font-weight="bold" text-anchor="middle" x="543.4375" y="350.625">Kitchen</text></g><g id="room_bathroom"><polygon fill="rgb(173,216,230)" fill-opacity="0.7" points="452.734375,283.125 452.734375,325.3125 501.25,325.3125 501.25,310.546875 518.125,308.4375 518.125,283.125" stroke="black" stroke-width="1.5" /><text dominant-baseline="middle" fill="black" font-family="Arial" font-size="12px" font-weight="bold" text-anchor="middle" x="486.484375" y="305.2734375">Bathroom</text></g><g id="room_balcony"><polygon fill="rgb(107,142,35)" fill-opacity="0.7" points="530.78125,255.703125 530.78125,308.4375 570.859375,308.4375 570.859375,255.703125" stroke="black" stroke-width="1.5" /><text dominant-baseline="middle" fill="black" font-family="Arial" font-size="12px" font-weight="bold" text-anchor="middle" x="551.875" y="283.125">Balcony</text></g><rect fill="red" fill-opacity="0.9" height="27.421875" id="main_door" stroke="darkred" stroke-width="3" width="10.546875" x="530.78125" y="390.703125" /><text dominant-baseline="middle" fill="white" font-family="Arial" font-size="9px" font-weight="bold" text-anchor="middle" x="536.0546875" y="404.4140625">Main Door</text><text fill="black" font-family="Arial" font-size="18px" font-weight="bold" text-anchor="middle" x="400.0" y="30">Floor Plan - ID: 58297</text></svg>