<?xml version="1.0" encoding="utf-8" ?>
<svg baseProfile="full" height="600px" version="1.1" viewBox="0 0 800 600" width="800px" xmlns="http://www.w3.org/2000/svg" xmlns:ev="http://www.w3.org/2001/xml-events" xmlns:xlink="http://www.w3.org/1999/xlink"><defs /><rect fill="white" height="600" width="800" x="0" y="0" /><polygon fill="none" id="floor_plan_boundary" points="302.96875,141.796875 307.1875,297.890625 309.296875,146.015625 505.46875,148.125 505.46875,230.390625 537.109375,232.5 537.109375,413.90625 406.328125,416.015625 404.21875,453.984375 265.0,453.984375 262.890625,300.0 277.65625,293.671875 258.671875,293.671875 258.671875,458.203125 410.546875,458.203125 412.65625,420.234375 541.328125,420.234375 541.328125,226.171875 509.6875,224.0625 509.6875,141.796875" stroke="black" stroke-linecap="butt" stroke-linejoin="miter" stroke-width="4" /><g id="room_living_room"><polygon fill="rgb(238,232,170)" fill-opacity="0.7" points="309.296875,205.078125 309.296875,297.890625 265.0,300.0 265.0,413.90625 404.21875,413.90625 404.21875,293.671875 442.1875,291.5625 442.1875,232.5 406.328125,232.5 404.21875,205.078125" stroke="black" stroke-width="1.5" /><text dominant-baseline="middle" fill="black" font-family="Arial" font-size="12px" font-weight="bold" text-anchor="middle" x="354.6484375" y="310.546875">Living Room</text></g><g id="room_master_bedroom"><polygon fill="rgb(255,165,0)" fill-opacity="0.7" points="412.65625,300.0 412.65625,413.90625 535.0,413.90625 535.0,300.0" stroke="black" stroke-width="1.5" /><text dominant-baseline="middle" fill="black" font-family="Arial" font-size="12px" font-weight="bold" text-anchor="middle" x="474.8828125" y="358.0078125">Master Bedroom</text></g><g id="room_balcony_2"><polygon fill="rgb(107,142,35)" fill-opacity="0.7" points="412.65625,148.125 412.65625,224.0625 503.359375,224.0625 503.359375,148.125" stroke="black" stroke-width="1.5" /><text dominant-baseline="middle" fill="black" font-family="Arial" font-size="12px" font-weight="bold" text-anchor="middle" x="459.0625" y="187.1484375">Balcony 2</text></g><g id="room_bathroom"><polygon fill="rgb(173,216,230)" fill-opacity="0.7" points="450.625,232.5 450.625,291.5625 535.0,291.5625 535.0,232.5" stroke="black" stroke-width="1.5" /><text dominant-baseline="middle" fill="black" font-family="Arial" font-size="12px" font-weight="bold" text-anchor="middle" x="493.8671875" y="263.0859375">Bathroom</text></g><g id="room_kitchen"><polygon fill="rgb(240,128,128)" fill-opacity="0.7" points="309.296875,148.125 309.296875,196.640625 404.21875,196.640625 404.21875,148.125" stroke="black" stroke-width="1.5" /><text dominant-baseline="middle" fill="black" font-family="Arial" font-size="12px" font-weight="bold" text-anchor="middle" x="357.8125" y="173.4375">Kitchen</text></g><g id="room_balcony"><polygon fill="rgb(107,142,35)" fill-opacity="0.7" points="265.0,422.34375 265.0,451.875 404.21875,451.875 404.21875,422.34375" stroke="black" stroke-width="1.5" /><text dominant-baseline="middle" fill="black" font-family="Arial" font-size="12px" font-weight="bold" text-anchor="middle" x="335.6640625" y="438.1640625">Balcony</text></g><rect fill="red" fill-opacity="0.9" height="6.328125" id="main_door" stroke="darkred" stroke-width="3" width="27.421875" x="279.765625" y="293.671875" /><text dominant-baseline="middle" fill="white" font-family="Arial" font-size="9px" font-weight="bold" text-anchor="middle" x="293.4765625" y="296.8359375">Main Door</text><text fill="black" font-family="Arial" font-size="18px" font-weight="bold" text-anchor="middle" x="400.0" y="30">Floor Plan - ID: 58386</text></svg>