<?xml version="1.0" encoding="utf-8" ?>
<svg baseProfile="full" height="600px" version="1.1" viewBox="0 0 800 600" width="800px" xmlns="http://www.w3.org/2000/svg" xmlns:ev="http://www.w3.org/2001/xml-events" xmlns:xlink="http://www.w3.org/1999/xlink"><defs /><rect fill="white" height="600" width="800" x="0" y="0" /><polygon fill="none" id="floor_plan_boundary" points="362.03125,105.9375 359.921875,150.234375 262.890625,150.234375 262.890625,458.203125 376.796875,458.203125 378.90625,494.0625 471.71875,494.0625 471.71875,460.3125 486.484375,458.203125 486.484375,310.546875 537.109375,308.4375 537.109375,302.109375 478.046875,300.0 478.046875,447.65625 463.28125,449.765625 461.171875,485.625 389.453125,485.625 387.34375,449.765625 271.328125,447.65625 273.4375,158.671875 370.46875,158.671875 372.578125,114.375 452.734375,114.375 454.84375,158.671875 528.671875,160.78125 528.671875,268.359375 537.109375,268.359375 537.109375,150.234375 465.390625,150.234375 463.28125,105.9375" stroke="black" stroke-linecap="butt" stroke-linejoin="miter" stroke-width="4" /><g id="room_living_room"><polygon fill="rgb(238,232,170)" fill-opacity="0.7" points="372.578125,175.546875 372.578125,266.25 334.609375,268.359375 334.609375,327.421875 372.578125,329.53125 372.578125,447.65625 389.453125,449.765625 389.453125,483.515625 461.171875,483.515625 461.171875,449.765625 475.9375,447.65625 475.9375,300.0 526.5625,297.890625 526.5625,268.359375 452.734375,266.25 452.734375,175.546875" stroke="black" stroke-width="1.5" /><text dominant-baseline="middle" fill="black" font-family="Arial" font-size="12px" font-weight="bold" text-anchor="middle" x="431.640625" y="330.5859375">Living Room</text></g><g id="room_master_bedroom"><polygon fill="rgb(255,165,0)" fill-opacity="0.7" points="273.4375,340.078125 273.4375,447.65625 359.921875,447.65625 359.921875,340.078125" stroke="black" stroke-width="1.5" /><text dominant-baseline="middle" fill="black" font-family="Arial" font-size="12px" font-weight="bold" text-anchor="middle" x="317.734375" y="394.921875">Master Bedroom</text></g><g id="room_common_room_2"><polygon fill="rgb(255,215,0)" fill-opacity="0.7" points="273.4375,160.78125 273.4375,255.703125 359.921875,255.703125 359.921875,160.78125" stroke="black" stroke-width="1.5" /><text dominant-baseline="middle" fill="black" font-family="Arial" font-size="12px" font-weight="bold" text-anchor="middle" x="317.734375" y="209.296875">Common Room 2</text></g><g id="room_common_room"><polygon fill="rgb(255,215,0)" fill-opacity="0.7" points="465.390625,160.78125 465.390625,255.703125 526.5625,255.703125 526.5625,160.78125" stroke="black" stroke-width="1.5" /><text dominant-baseline="middle" fill="black" font-family="Arial" font-size="12px" font-weight="bold" text-anchor="middle" x="497.03125" y="209.296875">Common Room</text></g><g id="room_kitchen"><polygon fill="rgb(240,128,128)" fill-opacity="0.7" points="372.578125,116.484375 372.578125,167.109375 452.734375,167.109375 452.734375,116.484375" stroke="black" stroke-width="1.5" /><text dominant-baseline="middle" fill="black" font-family="Arial" font-size="12px" font-weight="bold" text-anchor="middle" x="413.7109375" y="142.8515625">Kitchen</text></g><g id="room_bathroom"><polygon fill="rgb(173,216,230)" fill-opacity="0.7" points="273.4375,268.359375 273.4375,327.421875 326.171875,327.421875 326.171875,268.359375" stroke="black" stroke-width="1.5" /><text dominant-baseline="middle" fill="black" font-family="Arial" font-size="12px" font-weight="bold" text-anchor="middle" x="300.859375" y="298.9453125">Bathroom</text></g><rect fill="red" fill-opacity="0.9" height="31.640625" id="main_door" stroke="darkred" stroke-width="3" width="10.546875" x="528.671875" y="270.46875" /><text dominant-baseline="middle" fill="white" font-family="Arial" font-size="9px" font-weight="bold" text-anchor="middle" x="533.9453125" y="286.2890625">Main Door</text><text fill="black" font-family="Arial" font-size="18px" font-weight="bold" text-anchor="middle" x="400.0" y="30">Floor Plan - ID: 58676</text></svg>