<?xml version="1.0" encoding="utf-8" ?>
<svg baseProfile="full" height="600px" version="1.1" viewBox="0 0 800 600" width="800px" xmlns="http://www.w3.org/2000/svg" xmlns:ev="http://www.w3.org/2001/xml-events" xmlns:xlink="http://www.w3.org/1999/xlink"><defs /><rect fill="white" height="600" width="800" x="0" y="0" /><polygon fill="none" id="floor_plan_boundary" points="501.25,99.609375 444.296875,99.609375 442.1875,120.703125 300.859375,120.703125 300.859375,211.40625 260.78125,213.515625 260.78125,335.859375 300.859375,337.96875 300.859375,500.390625 427.421875,500.390625 429.53125,466.640625 539.21875,466.640625 539.21875,331.640625 486.484375,331.640625 535.0,337.96875 532.890625,462.421875 423.203125,462.421875 421.09375,496.171875 307.1875,496.171875 305.078125,331.640625 265.0,329.53125 265.0,219.84375 305.078125,217.734375 305.078125,127.03125 448.515625,124.921875 450.625,103.828125 497.03125,105.9375 497.03125,173.4375 480.15625,175.546875 484.375,308.4375 484.375,181.875 501.25,179.765625" stroke="black" stroke-linecap="butt" stroke-linejoin="miter" stroke-width="4" /><g id="room_living_room"><polygon fill="rgb(238,232,170)" fill-opacity="0.7" points="307.1875,219.84375 307.1875,329.53125 478.046875,329.53125 478.046875,181.875 391.5625,181.875 389.453125,219.84375" stroke="black" stroke-width="1.5" /><text dominant-baseline="middle" fill="black" font-family="Arial" font-size="12px" font-weight="bold" text-anchor="middle" x="393.671875" y="256.7578125">Living Room</text></g><g id="room_master_bedroom"><polygon fill="rgb(255,165,0)" fill-opacity="0.7" points="307.1875,337.96875 307.1875,460.3125 421.09375,460.3125 421.09375,337.96875" stroke="black" stroke-width="1.5" /><text dominant-baseline="middle" fill="black" font-family="Arial" font-size="12px" font-weight="bold" text-anchor="middle" x="365.1953125" y="400.1953125">Master Bedroom</text></g><g id="room_common_room"><polygon fill="rgb(255,215,0)" fill-opacity="0.7" points="429.53125,337.96875 429.53125,460.3125 532.890625,460.3125 532.890625,337.96875" stroke="black" stroke-width="1.5" /><text dominant-baseline="middle" fill="black" font-family="Arial" font-size="12px" font-weight="bold" text-anchor="middle" x="482.265625" y="400.1953125">Common Room</text></g><g id="room_common_room_2"><polygon fill="rgb(255,215,0)" fill-opacity="0.7" points="307.1875,127.03125 307.1875,211.40625 383.125,211.40625 383.125,127.03125" stroke="black" stroke-width="1.5" /><text dominant-baseline="middle" fill="black" font-family="Arial" font-size="12px" font-weight="bold" text-anchor="middle" x="346.2109375" y="170.2734375">Common Room 2</text></g><g id="room_balcony_2"><polygon fill="rgb(107,142,35)" fill-opacity="0.7" points="267.109375,219.84375 267.109375,329.53125 298.75,329.53125 298.75,219.84375" stroke="black" stroke-width="1.5" /><text dominant-baseline="middle" fill="black" font-family="Arial" font-size="12px" font-weight="bold" text-anchor="middle" x="283.984375" y="275.7421875">Balcony 2</text></g><g id="room_bathroom"><polygon fill="rgb(173,216,230)" fill-opacity="0.7" points="450.625,105.9375 450.625,173.4375 494.921875,173.4375 494.921875,105.9375" stroke="black" stroke-width="1.5" /><text dominant-baseline="middle" fill="black" font-family="Arial" font-size="12px" font-weight="bold" text-anchor="middle" x="473.828125" y="140.7421875">Bathroom</text></g><g id="room_balcony"><polygon fill="rgb(107,142,35)" fill-opacity="0.7" points="307.1875,468.75 307.1875,494.0625 421.09375,494.0625 421.09375,468.75" stroke="black" stroke-width="1.5" /><text dominant-baseline="middle" fill="black" font-family="Arial" font-size="12px" font-weight="bold" text-anchor="middle" x="365.1953125" y="482.4609375">Balcony</text></g><g id="room_kitchen"><polygon fill="rgb(240,128,128)" fill-opacity="0.7" points="391.5625,127.03125 391.5625,173.4375 442.1875,173.4375 442.1875,127.03125" stroke="black" stroke-width="1.5" /><text dominant-baseline="middle" fill="black" font-family="Arial" font-size="12px" font-weight="bold" text-anchor="middle" x="417.9296875" y="151.2890625">Kitchen</text></g><text fill="black" font-family="Arial" font-size="18px" font-weight="bold" text-anchor="middle" x="400.0" y="30">Floor Plan - ID: 59056</text></svg>