<?xml version="1.0" encoding="utf-8" ?>
<svg baseProfile="full" height="600px" version="1.1" viewBox="0 0 800 600" width="800px" xmlns="http://www.w3.org/2000/svg" xmlns:ev="http://www.w3.org/2001/xml-events" xmlns:xlink="http://www.w3.org/1999/xlink"><defs /><rect fill="white" height="600" width="800" x="0" y="0" /><polygon fill="none" id="floor_plan_boundary" points="167.96875,150.234375 167.96875,253.59375 220.703125,255.703125 220.703125,369.609375 317.734375,369.609375 319.84375,449.765625 456.953125,449.765625 459.0625,430.78125 572.96875,430.78125 572.96875,289.453125 632.03125,287.34375 632.03125,150.234375 446.40625,150.234375 446.40625,158.671875 623.59375,160.78125 623.59375,276.796875 564.53125,278.90625 564.53125,420.234375 448.515625,422.34375 446.40625,441.328125 330.390625,441.328125 328.28125,361.171875 231.25,361.171875 229.140625,245.15625 176.40625,243.046875 178.515625,158.671875 404.21875,158.671875 404.21875,150.234375" stroke="black" stroke-linecap="butt" stroke-linejoin="miter" stroke-width="4" /><g id="room_living_room"><polygon fill="rgb(238,232,170)" fill-opacity="0.7" points="281.875,160.78125 281.875,243.046875 330.390625,245.15625 330.390625,380.15625 446.40625,380.15625 446.40625,257.8125 486.484375,255.703125 486.484375,160.78125" stroke="black" stroke-width="1.5" /><text dominant-baseline="middle" fill="black" font-family="Arial" font-size="12px" font-weight="bold" text-anchor="middle" x="385.234375" y="271.5234375">Living Room</text></g><g id="room_master_bedroom"><polygon fill="rgb(255,165,0)" fill-opacity="0.7" points="459.0625,268.359375 459.0625,420.234375 562.421875,420.234375 562.421875,308.4375 490.703125,308.4375 486.484375,268.359375" stroke="black" stroke-width="1.5" /><text dominant-baseline="middle" fill="black" font-family="Arial" font-size="12px" font-weight="bold" text-anchor="middle" x="511.796875" y="345.3515625">Master Bedroom</text></g><g id="room_common_room"><polygon fill="rgb(255,215,0)" fill-opacity="0.7" points="231.25,255.703125 231.25,359.0625 317.734375,359.0625 317.734375,255.703125" stroke="black" stroke-width="1.5" /><text dominant-baseline="middle" fill="black" font-family="Arial" font-size="12px" font-weight="bold" text-anchor="middle" x="275.546875" y="308.4375">Common Room</text></g><g id="room_common_room_2"><polygon fill="rgb(255,215,0)" fill-opacity="0.7" points="178.515625,160.78125 178.515625,243.046875 269.21875,243.046875 269.21875,160.78125" stroke="black" stroke-width="1.5" /><text dominant-baseline="middle" fill="black" font-family="Arial" font-size="12px" font-weight="bold" text-anchor="middle" x="224.921875" y="202.96875">Common Room 2</text></g><g id="room_kitchen"><polygon fill="rgb(240,128,128)" fill-opacity="0.7" points="499.140625,160.78125 499.140625,213.515625 621.484375,213.515625 621.484375,160.78125" stroke="black" stroke-width="1.5" /><text dominant-baseline="middle" fill="black" font-family="Arial" font-size="12px" font-weight="bold" text-anchor="middle" x="561.3671875" y="188.203125">Kitchen</text></g><g id="room_balcony"><polygon fill="rgb(107,142,35)" fill-opacity="0.7" points="330.390625,392.8125 330.390625,439.21875 446.40625,439.21875 446.40625,392.8125" stroke="black" stroke-width="1.5" /><text dominant-baseline="middle" fill="black" font-family="Arial" font-size="12px" font-weight="bold" text-anchor="middle" x="389.453125" y="417.0703125">Balcony</text></g><g id="room_bathroom"><polygon fill="rgb(173,216,230)" fill-opacity="0.7" points="499.140625,226.171875 499.140625,295.78125 562.421875,295.78125 562.421875,226.171875" stroke="black" stroke-width="1.5" /><text dominant-baseline="middle" fill="black" font-family="Arial" font-size="12px" font-weight="bold" text-anchor="middle" x="531.8359375" y="262.03125">Bathroom</text></g><g id="room_balcony_2"><polygon fill="rgb(107,142,35)" fill-opacity="0.7" points="575.078125,226.171875 575.078125,276.796875 621.484375,276.796875 621.484375,226.171875" stroke="black" stroke-width="1.5" /><text dominant-baseline="middle" fill="black" font-family="Arial" font-size="12px" font-weight="bold" text-anchor="middle" x="599.3359375" y="252.5390625">Balcony 2</text></g><rect fill="red" fill-opacity="0.9" height="10.546875" id="main_door" stroke="darkred" stroke-width="3" width="40.078125" x="406.328125" y="150.234375" /><text dominant-baseline="middle" fill="white" font-family="Arial" font-size="9px" font-weight="bold" text-anchor="middle" x="426.3671875" y="155.5078125">Main Door</text><text fill="black" font-family="Arial" font-size="18px" font-weight="bold" text-anchor="middle" x="400.0" y="30">Floor Plan - ID: 5907</text></svg>