<?xml version="1.0" encoding="utf-8" ?>
<svg baseProfile="full" height="600px" version="1.1" viewBox="0 0 800 600" width="800px" xmlns="http://www.w3.org/2000/svg" xmlns:ev="http://www.w3.org/2001/xml-events" xmlns:xlink="http://www.w3.org/1999/xlink"><defs /><rect fill="white" height="600" width="800" x="0" y="0" /><polygon fill="none" id="floor_plan_boundary" points="275.546875,70.078125 275.546875,188.203125 254.453125,190.3125 254.453125,340.078125 336.71875,342.1875 336.71875,496.171875 442.1875,496.171875 442.1875,529.921875 524.453125,527.8125 526.5625,508.828125 545.546875,508.828125 545.546875,293.671875 513.90625,293.671875 511.796875,270.46875 503.359375,270.46875 503.359375,302.109375 537.109375,304.21875 537.109375,498.28125 516.015625,500.390625 513.90625,523.59375 452.734375,521.484375 448.515625,487.734375 347.265625,487.734375 345.15625,331.640625 262.890625,329.53125 262.890625,200.859375 283.984375,198.75 286.09375,78.515625 343.046875,78.515625 345.15625,99.609375 440.078125,99.609375 442.1875,240.9375 511.796875,245.15625 511.796875,232.5 450.625,230.390625 450.625,91.171875 355.703125,91.171875 353.59375,70.078125" stroke="black" stroke-linecap="butt" stroke-linejoin="miter" stroke-width="4" /><g id="room_living_room"><polygon fill="rgb(238,232,170)" fill-opacity="0.7" points="265.0,200.859375 265.0,329.53125 334.609375,329.53125 336.71875,308.4375 416.875,308.4375 418.984375,352.734375 475.9375,352.734375 473.828125,293.671875 501.25,291.5625 501.25,243.046875 440.078125,240.9375 440.078125,150.234375 370.46875,150.234375 368.359375,200.859375" stroke="black" stroke-width="1.5" /><text dominant-baseline="middle" fill="black" font-family="Arial" font-size="12px" font-weight="bold" text-anchor="middle" x="384.1796875" y="252.5390625">Living Room</text></g><g id="room_master_bedroom"><polygon fill="rgb(255,165,0)" fill-opacity="0.7" points="440.078125,361.171875 418.984375,361.171875 414.765625,373.828125 347.265625,371.71875 347.265625,485.625 440.078125,485.625" stroke="black" stroke-width="1.5" /><text dominant-baseline="middle" fill="black" font-family="Arial" font-size="12px" font-weight="bold" text-anchor="middle" x="394.7265625" y="424.453125">Master Bedroom</text></g><g id="room_common_room"><polygon fill="rgb(255,215,0)" fill-opacity="0.7" points="452.734375,361.171875 452.734375,468.75 535.0,468.75 535.0,361.171875" stroke="black" stroke-width="1.5" /><text dominant-baseline="middle" fill="black" font-family="Arial" font-size="12px" font-weight="bold" text-anchor="middle" x="494.921875" y="416.015625">Common Room</text></g><g id="room_common_room_2"><polygon fill="rgb(255,215,0)" fill-opacity="0.7" points="286.09375,80.625 286.09375,188.203125 357.8125,188.203125 357.8125,101.71875 343.046875,99.609375 343.046875,80.625" stroke="black" stroke-width="1.5" /><text dominant-baseline="middle" fill="black" font-family="Arial" font-size="12px" font-weight="bold" text-anchor="middle" x="323.0078125" y="135.46875">Common Room 2</text></g><g id="room_balcony"><polygon fill="rgb(107,142,35)" fill-opacity="0.7" points="452.734375,519.375 513.90625,521.484375 513.90625,500.390625 535.0,498.28125 535.0,481.40625 452.734375,481.40625" stroke="black" stroke-width="1.5" /><text dominant-baseline="middle" fill="black" font-family="Arial" font-size="12px" font-weight="bold" text-anchor="middle" x="493.8671875" y="502.5">Balcony</text></g><g id="room_kitchen"><polygon fill="rgb(240,128,128)" fill-opacity="0.7" points="370.46875,101.71875 370.46875,141.796875 440.078125,141.796875 440.078125,101.71875" stroke="black" stroke-width="1.5" /><text dominant-baseline="middle" fill="black" font-family="Arial" font-size="12px" font-weight="bold" text-anchor="middle" x="406.328125" y="122.8125">Kitchen</text></g><g id="room_bathroom"><polygon fill="rgb(173,216,230)" fill-opacity="0.7" points="347.265625,321.09375 347.265625,363.28125 410.546875,363.28125 410.546875,321.09375" stroke="black" stroke-width="1.5" /><text dominant-baseline="middle" fill="black" font-family="Arial" font-size="12px" font-weight="bold" text-anchor="middle" x="379.9609375" y="343.2421875">Bathroom</text></g><g id="room_bathroom_2"><polygon fill="rgb(173,216,230)" fill-opacity="0.7" points="484.375,304.21875 484.375,352.734375 535.0,352.734375 535.0,304.21875" stroke="black" stroke-width="1.5" /><text dominant-baseline="middle" fill="black" font-family="Arial" font-size="12px" font-weight="bold" text-anchor="middle" x="510.7421875" y="329.53125">Bathroom 2</text></g><rect fill="red" fill-opacity="0.9" height="23.203125" id="main_door" stroke="darkred" stroke-width="3" width="10.546875" x="503.359375" y="247.265625" /><text dominant-baseline="middle" fill="white" font-family="Arial" font-size="9px" font-weight="bold" text-anchor="middle" x="508.6328125" y="258.8671875">Main Door</text><text fill="black" font-family="Arial" font-size="18px" font-weight="bold" text-anchor="middle" x="400.0" y="30">Floor Plan - ID: 5929</text></svg>