<?xml version="1.0" encoding="utf-8" ?>
<svg baseProfile="full" height="600px" version="1.1" viewBox="0 0 800 600" width="800px" xmlns="http://www.w3.org/2000/svg" xmlns:ev="http://www.w3.org/2001/xml-events" xmlns:xlink="http://www.w3.org/1999/xlink"><defs /><rect fill="white" height="600" width="800" x="0" y="0" /><polygon fill="none" id="floor_plan_boundary" points="258.671875,146.015625 258.671875,238.828125 231.25,240.9375 231.25,458.203125 338.828125,458.203125 340.9375,477.1875 440.078125,477.1875 442.1875,458.203125 568.75,458.203125 568.75,308.4375 535.0,306.328125 535.0,240.9375 518.125,236.71875 518.125,249.375 526.5625,251.484375 526.5625,316.875 560.3125,318.984375 558.203125,449.765625 431.640625,449.765625 429.53125,468.75 351.484375,468.75 349.375,449.765625 239.6875,447.65625 239.6875,251.484375 267.109375,249.375 269.21875,154.453125 355.703125,154.453125 357.8125,131.25 516.015625,131.25 518.125,207.1875 526.5625,207.1875 526.5625,122.8125 347.265625,122.8125 345.15625,146.015625" stroke="black" stroke-linecap="butt" stroke-linejoin="miter" stroke-width="4" /><g id="room_living_room"><polygon fill="rgb(238,232,170)" fill-opacity="0.7" points="442.1875,133.359375 442.1875,249.375 309.296875,251.484375 309.296875,278.90625 440.078125,278.90625 442.1875,447.65625 558.203125,447.65625 558.203125,318.984375 524.453125,316.875 516.015625,133.359375" stroke="black" stroke-width="1.5" /><text dominant-baseline="middle" fill="black" font-family="Arial" font-size="12px" font-weight="bold" text-anchor="middle" x="434.8046875" y="291.5625">Living Room</text></g><g id="room_common_room"><polygon fill="rgb(255,215,0)" fill-opacity="0.7" points="351.484375,291.5625 351.484375,466.640625 429.53125,466.640625 429.53125,291.5625" stroke="black" stroke-width="1.5" /><text dominant-baseline="middle" fill="black" font-family="Arial" font-size="12px" font-weight="bold" text-anchor="middle" x="391.5625" y="380.15625">Common Room</text></g><g id="room_master_bedroom"><polygon fill="rgb(255,165,0)" fill-opacity="0.7" points="338.828125,291.5625 309.296875,291.5625 309.296875,325.3125 241.796875,325.3125 241.796875,447.65625 338.828125,447.65625" stroke="black" stroke-width="1.5" /><text dominant-baseline="middle" fill="black" font-family="Arial" font-size="12px" font-weight="bold" text-anchor="middle" x="291.3671875" y="370.6640625">Master Bedroom</text></g><g id="room_common_room_2"><polygon fill="rgb(255,215,0)" fill-opacity="0.7" points="269.21875,156.5625 269.21875,238.828125 345.15625,238.828125 345.15625,156.5625" stroke="black" stroke-width="1.5" /><text dominant-baseline="middle" fill="black" font-family="Arial" font-size="12px" font-weight="bold" text-anchor="middle" x="308.2421875" y="198.75">Common Room 2</text></g><g id="room_kitchen"><polygon fill="rgb(240,128,128)" fill-opacity="0.7" points="357.8125,133.359375 357.8125,186.09375 429.53125,186.09375 429.53125,133.359375" stroke="black" stroke-width="1.5" /><text dominant-baseline="middle" fill="black" font-family="Arial" font-size="12px" font-weight="bold" text-anchor="middle" x="394.7265625" y="160.78125">Kitchen</text></g><g id="room_bathroom"><polygon fill="rgb(173,216,230)" fill-opacity="0.7" points="241.796875,251.484375 241.796875,312.65625 300.859375,312.65625 300.859375,251.484375" stroke="black" stroke-width="1.5" /><text dominant-baseline="middle" fill="black" font-family="Arial" font-size="12px" font-weight="bold" text-anchor="middle" x="272.3828125" y="283.125">Bathroom</text></g><g id="room_bathroom_2"><polygon fill="rgb(173,216,230)" fill-opacity="0.7" points="357.8125,198.75 357.8125,238.828125 429.53125,238.828125 429.53125,198.75" stroke="black" stroke-width="1.5" /><text dominant-baseline="middle" fill="black" font-family="Arial" font-size="12px" font-weight="bold" text-anchor="middle" x="394.7265625" y="219.84375">Bathroom 2</text></g><rect fill="red" fill-opacity="0.9" height="27.421875" id="main_door" stroke="darkred" stroke-width="3" width="10.546875" x="518.125" y="209.296875" /><text dominant-baseline="middle" fill="white" font-family="Arial" font-size="9px" font-weight="bold" text-anchor="middle" x="523.3984375" y="223.0078125">Main Door</text><text fill="black" font-family="Arial" font-size="18px" font-weight="bold" text-anchor="middle" x="400.0" y="30">Floor Plan - ID: 59431</text></svg>