<?xml version="1.0" encoding="utf-8" ?>
<svg baseProfile="full" height="600px" version="1.1" viewBox="0 0 800 600" width="800px" xmlns="http://www.w3.org/2000/svg" xmlns:ev="http://www.w3.org/2001/xml-events" xmlns:xlink="http://www.w3.org/1999/xlink"><defs /><rect fill="white" height="600" width="800" x="0" y="0" /><polygon fill="none" id="floor_plan_boundary" points="235.46875,188.203125 235.46875,453.984375 364.140625,453.984375 239.6875,447.65625 239.6875,194.53125 330.390625,192.421875 332.5,150.234375 448.515625,150.234375 450.625,192.421875 560.3125,194.53125 560.3125,447.65625 393.671875,453.984375 564.53125,453.984375 564.53125,188.203125 456.953125,188.203125 454.84375,146.015625 326.171875,146.015625 324.0625,188.203125" stroke="black" stroke-linecap="butt" stroke-linejoin="miter" stroke-width="4" /><g id="room_living_room"><polygon fill="rgb(238,232,170)" fill-opacity="0.7" points="332.5,194.53125 332.5,293.671875 292.421875,295.78125 292.421875,323.203125 332.5,325.3125 332.5,447.65625 433.75,447.65625 433.75,342.1875 448.515625,340.078125 448.515625,194.53125" stroke="black" stroke-width="1.5" /><text dominant-baseline="middle" fill="black" font-family="Arial" font-size="12px" font-weight="bold" text-anchor="middle" x="371.5234375" y="322.1484375">Living Room</text></g><g id="room_kitchen"><polygon fill="rgb(240,128,128)" fill-opacity="0.7" points="442.1875,348.515625 442.1875,447.65625 558.203125,447.65625 558.203125,348.515625" stroke="black" stroke-width="1.5" /><text dominant-baseline="middle" fill="black" font-family="Arial" font-size="12px" font-weight="bold" text-anchor="middle" x="501.25" y="399.140625">Kitchen</text></g><g id="room_master_bedroom"><polygon fill="rgb(255,165,0)" fill-opacity="0.7" points="558.203125,194.53125 456.953125,194.53125 456.953125,340.078125 492.8125,340.078125 494.921875,276.796875 558.203125,276.796875" stroke="black" stroke-width="1.5" /><text dominant-baseline="middle" fill="black" font-family="Arial" font-size="12px" font-weight="bold" text-anchor="middle" x="508.6328125" y="268.359375">Master Bedroom</text></g><g id="room_common_room"><polygon fill="rgb(255,215,0)" fill-opacity="0.7" points="324.0625,331.640625 292.421875,331.640625 290.3125,348.515625 241.796875,348.515625 241.796875,447.65625 324.0625,447.65625" stroke="black" stroke-width="1.5" /><text dominant-baseline="middle" fill="black" font-family="Arial" font-size="12px" font-weight="bold" text-anchor="middle" x="283.984375" y="390.703125">Common Room</text></g><g id="room_common_room_2"><polygon fill="rgb(255,215,0)" fill-opacity="0.7" points="241.796875,194.53125 241.796875,268.359375 290.3125,268.359375 292.421875,287.34375 324.0625,287.34375 324.0625,194.53125" stroke="black" stroke-width="1.5" /><text dominant-baseline="middle" fill="black" font-family="Arial" font-size="12px" font-weight="bold" text-anchor="middle" x="283.984375" y="241.9921875">Common Room 2</text></g><g id="room_balcony"><polygon fill="rgb(107,142,35)" fill-opacity="0.7" points="332.5,152.34375 332.5,186.09375 448.515625,186.09375 448.515625,152.34375" stroke="black" stroke-width="1.5" /><text dominant-baseline="middle" fill="black" font-family="Arial" font-size="12px" font-weight="bold" text-anchor="middle" x="391.5625" y="170.2734375">Balcony</text></g><g id="room_bathroom"><polygon fill="rgb(173,216,230)" fill-opacity="0.7" points="501.25,285.234375 501.25,340.078125 558.203125,340.078125 558.203125,285.234375" stroke="black" stroke-width="1.5" /><text dominant-baseline="middle" fill="black" font-family="Arial" font-size="12px" font-weight="bold" text-anchor="middle" x="530.78125" y="313.7109375">Bathroom</text></g><g id="room_bathroom_2"><polygon fill="rgb(173,216,230)" fill-opacity="0.7" points="241.796875,276.796875 241.796875,340.078125 283.984375,340.078125 283.984375,276.796875" stroke="black" stroke-width="1.5" /><text dominant-baseline="middle" fill="black" font-family="Arial" font-size="12px" font-weight="bold" text-anchor="middle" x="263.9453125" y="309.4921875">Bathroom 2</text></g><rect fill="red" fill-opacity="0.9" height="6.328125" id="main_door" stroke="darkred" stroke-width="3" width="27.421875" x="366.25" y="449.765625" /><text dominant-baseline="middle" fill="white" font-family="Arial" font-size="9px" font-weight="bold" text-anchor="middle" x="379.9609375" y="452.9296875">Main Door</text><text fill="black" font-family="Arial" font-size="18px" font-weight="bold" text-anchor="middle" x="400.0" y="30">Floor Plan - ID: 59605</text></svg>