<?xml version="1.0" encoding="utf-8" ?>
<svg baseProfile="full" height="600px" version="1.1" viewBox="0 0 800 600" width="800px" xmlns="http://www.w3.org/2000/svg" xmlns:ev="http://www.w3.org/2001/xml-events" xmlns:xlink="http://www.w3.org/1999/xlink"><defs /><rect fill="white" height="600" width="800" x="0" y="0" /><polygon fill="none" id="floor_plan_boundary" points="370.46875,80.625 370.46875,160.78125 317.734375,162.890625 315.625,175.546875 279.765625,175.546875 279.765625,291.5625 246.015625,293.671875 246.015625,472.96875 288.203125,472.96875 290.3125,487.734375 336.71875,487.734375 338.828125,519.375 452.734375,519.375 454.84375,472.96875 553.984375,472.96875 553.984375,356.953125 520.234375,356.953125 518.125,333.75 482.265625,342.1875 507.578125,342.1875 509.6875,365.390625 545.546875,367.5 545.546875,462.421875 448.515625,464.53125 446.40625,515.15625 349.375,515.15625 347.265625,483.515625 300.859375,483.515625 298.75,464.53125 254.453125,462.421875 254.453125,304.21875 288.203125,302.109375 288.203125,186.09375 326.171875,183.984375 328.28125,167.109375 378.90625,167.109375 381.015625,84.84375 509.6875,86.953125 509.6875,224.0625 444.296875,226.171875 444.296875,302.109375 490.703125,300.0 452.734375,291.5625 454.84375,234.609375 518.125,234.609375 518.125,80.625" stroke="black" stroke-linecap="butt" stroke-linejoin="miter" stroke-width="4" /><g id="room_living_room"><polygon fill="rgb(238,232,170)" fill-opacity="0.7" points="381.015625,186.09375 381.015625,302.109375 313.515625,304.21875 313.515625,331.640625 349.375,333.75 349.375,462.421875 442.1875,462.421875 442.1875,333.75 480.15625,331.640625 480.15625,304.21875 442.1875,302.109375 442.1875,186.09375" stroke="black" stroke-width="1.5" /><text dominant-baseline="middle" fill="black" font-family="Arial" font-size="12px" font-weight="bold" text-anchor="middle" x="397.890625" y="325.3125">Living Room</text></g><g id="room_common_room"><polygon fill="rgb(255,215,0)" fill-opacity="0.7" points="454.84375,344.296875 454.84375,462.421875 543.4375,462.421875 543.4375,367.5 509.6875,367.5 507.578125,344.296875" stroke="black" stroke-width="1.5" /><text dominant-baseline="middle" fill="black" font-family="Arial" font-size="12px" font-weight="bold" text-anchor="middle" x="500.1953125" y="404.4140625">Common Room</text></g><g id="room_master_bedroom"><polygon fill="rgb(255,165,0)" fill-opacity="0.7" points="256.5625,365.390625 256.5625,462.421875 298.75,462.421875 300.859375,481.40625 336.71875,481.40625 336.71875,344.296875 313.515625,344.296875 311.40625,365.390625" stroke="black" stroke-width="1.5" /><text dominant-baseline="middle" fill="black" font-family="Arial" font-size="12px" font-weight="bold" text-anchor="middle" x="297.6953125" y="413.90625">Master Bedroom</text></g><g id="room_common_room_2"><polygon fill="rgb(255,215,0)" fill-opacity="0.7" points="290.3125,186.09375 290.3125,291.5625 368.359375,291.5625 368.359375,169.21875 328.28125,169.21875 326.171875,186.09375" stroke="black" stroke-width="1.5" /><text dominant-baseline="middle" fill="black" font-family="Arial" font-size="12px" font-weight="bold" text-anchor="middle" x="330.390625" y="231.4453125">Common Room 2</text></g><g id="room_balcony_2"><polygon fill="rgb(107,142,35)" fill-opacity="0.7" points="381.015625,86.953125 381.015625,173.4375 442.1875,173.4375 444.296875,133.359375 507.578125,133.359375 507.578125,86.953125" stroke="black" stroke-width="1.5" /><text dominant-baseline="middle" fill="black" font-family="Arial" font-size="12px" font-weight="bold" text-anchor="middle" x="445.3515625" y="131.25">Balcony 2</text></g><g id="room_kitchen"><polygon fill="rgb(240,128,128)" fill-opacity="0.7" points="454.84375,146.015625 454.84375,224.0625 507.578125,224.0625 507.578125,146.015625" stroke="black" stroke-width="1.5" /><text dominant-baseline="middle" fill="black" font-family="Arial" font-size="12px" font-weight="bold" text-anchor="middle" x="482.265625" y="186.09375">Kitchen</text></g><g id="room_balcony"><polygon fill="rgb(107,142,35)" fill-opacity="0.7" points="349.375,475.078125 349.375,513.046875 446.40625,513.046875 446.40625,475.078125" stroke="black" stroke-width="1.5" /><text dominant-baseline="middle" fill="black" font-family="Arial" font-size="12px" font-weight="bold" text-anchor="middle" x="398.9453125" y="495.1171875">Balcony</text></g><g id="room_bathroom"><polygon fill="rgb(173,216,230)" fill-opacity="0.7" points="256.5625,304.21875 256.5625,356.953125 305.078125,356.953125 302.96875,342.1875 305.078125,304.21875" stroke="black" stroke-width="1.5" /><text dominant-baseline="middle" fill="black" font-family="Arial" font-size="12px" font-weight="bold" text-anchor="middle" x="281.875" y="331.640625">Bathroom</text></g><rect fill="red" fill-opacity="0.9" height="35.859375" id="main_door" stroke="darkred" stroke-width="3" width="10.546875" x="482.265625" y="302.109375" /><text dominant-baseline="middle" fill="white" font-family="Arial" font-size="9px" font-weight="bold" text-anchor="middle" x="487.5390625" y="320.0390625">Main Door</text><text fill="black" font-family="Arial" font-size="18px" font-weight="bold" text-anchor="middle" x="400.0" y="30">Floor Plan - ID: 59676</text></svg>