<?xml version="1.0" encoding="utf-8" ?>
<svg baseProfile="full" height="600px" version="1.1" viewBox="0 0 800 600" width="800px" xmlns="http://www.w3.org/2000/svg" xmlns:ev="http://www.w3.org/2001/xml-events" xmlns:xlink="http://www.w3.org/1999/xlink"><defs /><rect fill="white" height="600" width="800" x="0" y="0" /><polygon fill="none" id="floor_plan_boundary" points="275.546875,101.71875 275.546875,297.890625 239.6875,300.0 239.6875,432.890625 345.15625,432.890625 347.265625,498.28125 418.984375,498.28125 421.09375,485.625 467.5,485.625 463.28125,470.859375 461.171875,481.40625 414.765625,481.40625 412.65625,494.0625 353.59375,494.0625 351.484375,428.671875 243.90625,426.5625 243.90625,306.328125 279.765625,304.21875 281.875,105.9375 556.09375,108.046875 556.09375,207.1875 463.28125,209.296875 463.28125,304.21875 556.09375,306.328125 556.09375,426.5625 463.28125,428.671875 463.28125,449.765625 469.609375,432.890625 560.3125,432.890625 560.3125,300.0 467.5,297.890625 469.609375,213.515625 560.3125,213.515625 560.3125,101.71875" stroke="black" stroke-linecap="butt" stroke-linejoin="miter" stroke-width="4" /><g id="room_living_room"><polygon fill="rgb(238,232,170)" fill-opacity="0.7" points="406.328125,173.4375 406.328125,304.21875 281.875,306.328125 281.875,426.5625 418.984375,426.5625 421.09375,479.296875 461.171875,479.296875 463.28125,426.5625 553.984375,426.5625 553.984375,306.328125 463.28125,306.328125 461.171875,173.4375" stroke="black" stroke-width="1.5" /><text dominant-baseline="middle" fill="black" font-family="Arial" font-size="12px" font-weight="bold" text-anchor="middle" x="418.984375" y="327.421875">Living Room</text></g><g id="room_master_bedroom"><polygon fill="rgb(255,165,0)" fill-opacity="0.7" points="281.875,108.046875 281.875,207.1875 397.890625,207.1875 397.890625,173.4375 372.578125,171.328125 372.578125,108.046875" stroke="black" stroke-width="1.5" /><text dominant-baseline="middle" fill="black" font-family="Arial" font-size="12px" font-weight="bold" text-anchor="middle" x="340.9375" y="158.671875">Master Bedroom</text></g><g id="room_common_room"><polygon fill="rgb(255,215,0)" fill-opacity="0.7" points="281.875,215.625 281.875,297.890625 397.890625,297.890625 397.890625,215.625" stroke="black" stroke-width="1.5" /><text dominant-baseline="middle" fill="black" font-family="Arial" font-size="12px" font-weight="bold" text-anchor="middle" x="340.9375" y="257.8125">Common Room</text></g><g id="room_common_room_2"><polygon fill="rgb(255,215,0)" fill-opacity="0.7" points="469.609375,108.046875 469.609375,207.1875 553.984375,207.1875 553.984375,108.046875" stroke="black" stroke-width="1.5" /><text dominant-baseline="middle" fill="black" font-family="Arial" font-size="12px" font-weight="bold" text-anchor="middle" x="512.8515625" y="158.671875">Common Room 2</text></g><g id="room_kitchen"><polygon fill="rgb(240,128,128)" fill-opacity="0.7" points="353.59375,435.0 353.59375,491.953125 412.65625,491.953125 412.65625,435.0" stroke="black" stroke-width="1.5" /><text dominant-baseline="middle" fill="black" font-family="Arial" font-size="12px" font-weight="bold" text-anchor="middle" x="384.1796875" y="464.53125">Kitchen</text></g><g id="room_balcony"><polygon fill="rgb(107,142,35)" fill-opacity="0.7" points="246.015625,306.328125 246.015625,426.5625 273.4375,426.5625 273.4375,306.328125" stroke="black" stroke-width="1.5" /><text dominant-baseline="middle" fill="black" font-family="Arial" font-size="12px" font-weight="bold" text-anchor="middle" x="260.78125" y="367.5">Balcony</text></g><g id="room_bathroom"><polygon fill="rgb(173,216,230)" fill-opacity="0.7" points="423.203125,108.046875 423.203125,165.0 461.171875,165.0 461.171875,108.046875" stroke="black" stroke-width="1.5" /><text dominant-baseline="middle" fill="black" font-family="Arial" font-size="12px" font-weight="bold" text-anchor="middle" x="443.2421875" y="137.578125">Bathroom</text></g><g id="room_bathroom_2"><polygon fill="rgb(173,216,230)" fill-opacity="0.7" points="381.015625,108.046875 381.015625,165.0 414.765625,165.0 414.765625,108.046875" stroke="black" stroke-width="1.5" /><text dominant-baseline="middle" fill="black" font-family="Arial" font-size="12px" font-weight="bold" text-anchor="middle" x="398.9453125" y="137.578125">Bathroom 2</text></g><text fill="black" font-family="Arial" font-size="18px" font-weight="bold" text-anchor="middle" x="400.0" y="30">Floor Plan - ID: 59727</text></svg>