<?xml version="1.0" encoding="utf-8" ?>
<svg baseProfile="full" height="600px" version="1.1" viewBox="0 0 800 600" width="800px" xmlns="http://www.w3.org/2000/svg" xmlns:ev="http://www.w3.org/2001/xml-events" xmlns:xlink="http://www.w3.org/1999/xlink"><defs /><rect fill="white" height="600" width="800" x="0" y="0" /><polygon fill="none" id="floor_plan_boundary" points="509.6875,91.171875 400.0,91.171875 397.890625,124.921875 290.3125,124.921875 290.3125,278.90625 307.1875,281.015625 307.1875,354.84375 338.828125,350.625 311.40625,348.515625 311.40625,274.6875 294.53125,272.578125 294.53125,131.25 404.21875,129.140625 406.328125,95.390625 505.46875,97.5 505.46875,460.3125 400.0,462.421875 397.890625,504.609375 340.9375,504.609375 334.609375,378.046875 334.609375,508.828125 404.21875,508.828125 406.328125,466.640625 509.6875,466.640625" stroke="black" stroke-linecap="butt" stroke-linejoin="miter" stroke-width="4" /><g id="room_living_room"><polygon fill="rgb(238,232,170)" fill-opacity="0.7" points="383.125,281.015625 383.125,354.84375 340.9375,356.953125 340.9375,388.59375 406.328125,390.703125 406.328125,460.3125 503.359375,460.3125 503.359375,281.015625" stroke="black" stroke-width="1.5" /><text dominant-baseline="middle" fill="black" font-family="Arial" font-size="12px" font-weight="bold" text-anchor="middle" x="423.203125" y="371.71875">Living Room</text></g><g id="room_common_room"><polygon fill="rgb(255,215,0)" fill-opacity="0.7" points="296.640625,131.25 296.640625,272.578125 397.890625,272.578125 397.890625,131.25" stroke="black" stroke-width="1.5" /><text dominant-baseline="middle" fill="black" font-family="Arial" font-size="12px" font-weight="bold" text-anchor="middle" x="348.3203125" y="202.96875">Common Room</text></g><g id="room_master_bedroom"><polygon fill="rgb(255,165,0)" fill-opacity="0.7" points="406.328125,131.25 406.328125,272.578125 503.359375,272.578125 503.359375,131.25" stroke="black" stroke-width="1.5" /><text dominant-baseline="middle" fill="black" font-family="Arial" font-size="12px" font-weight="bold" text-anchor="middle" x="455.8984375" y="202.96875">Master Bedroom</text></g><g id="room_kitchen"><polygon fill="rgb(240,128,128)" fill-opacity="0.7" points="340.9375,397.03125 340.9375,502.5 397.890625,502.5 397.890625,397.03125" stroke="black" stroke-width="1.5" /><text dominant-baseline="middle" fill="black" font-family="Arial" font-size="12px" font-weight="bold" text-anchor="middle" x="370.46875" y="450.8203125">Kitchen</text></g><g id="room_bathroom"><polygon fill="rgb(173,216,230)" fill-opacity="0.7" points="313.515625,281.015625 313.515625,348.515625 374.6875,348.515625 374.6875,281.015625" stroke="black" stroke-width="1.5" /><text dominant-baseline="middle" fill="black" font-family="Arial" font-size="12px" font-weight="bold" text-anchor="middle" x="345.15625" y="315.8203125">Bathroom</text></g><g id="room_balcony"><polygon fill="rgb(107,142,35)" fill-opacity="0.7" points="406.328125,97.5 406.328125,122.8125 503.359375,122.8125 503.359375,97.5" stroke="black" stroke-width="1.5" /><text dominant-baseline="middle" fill="black" font-family="Arial" font-size="12px" font-weight="bold" text-anchor="middle" x="455.8984375" y="111.2109375">Balcony</text></g><text fill="black" font-family="Arial" font-size="18px" font-weight="bold" text-anchor="middle" x="400.0" y="30">Floor Plan - ID: 59794</text></svg>