<?xml version="1.0" encoding="utf-8" ?>
<svg baseProfile="full" height="600px" version="1.1" viewBox="0 0 800 600" width="800px" xmlns="http://www.w3.org/2000/svg" xmlns:ev="http://www.w3.org/2001/xml-events" xmlns:xlink="http://www.w3.org/1999/xlink"><defs /><rect fill="white" height="600" width="800" x="0" y="0" /><polygon fill="none" id="floor_plan_boundary" points="260.78125,80.625 260.78125,329.53125 305.078125,331.640625 305.078125,475.078125 404.21875,475.078125 406.328125,519.375 537.109375,519.375 539.21875,323.203125 492.8125,321.09375 492.8125,331.640625 530.78125,333.75 530.78125,515.15625 412.65625,515.15625 412.65625,466.640625 315.625,466.640625 313.515625,325.3125 269.21875,323.203125 269.21875,91.171875 490.703125,89.0625 492.8125,270.46875 501.25,270.46875 501.25,80.625" stroke="black" stroke-linecap="butt" stroke-linejoin="miter" stroke-width="4" /><g id="room_living_room"><polygon fill="rgb(238,232,170)" fill-opacity="0.7" points="368.359375,169.21875 370.46875,323.203125 414.765625,327.421875 412.65625,464.53125 528.671875,464.53125 528.671875,333.75 490.703125,331.640625 490.703125,169.21875" stroke="black" stroke-width="1.5" /><text dominant-baseline="middle" fill="black" font-family="Arial" font-size="12px" font-weight="bold" text-anchor="middle" x="449.5703125" y="317.9296875">Living Room</text></g><g id="room_master_bedroom"><polygon fill="rgb(255,165,0)" fill-opacity="0.7" points="404.21875,331.640625 315.625,333.75 315.625,464.53125 404.21875,464.53125" stroke="black" stroke-width="1.5" /><text dominant-baseline="middle" fill="black" font-family="Arial" font-size="12px" font-weight="bold" text-anchor="middle" x="360.9765625" y="399.140625">Master Bedroom</text></g><g id="room_common_room"><polygon fill="rgb(255,215,0)" fill-opacity="0.7" points="271.328125,207.1875 271.328125,323.203125 357.8125,321.09375 357.8125,207.1875" stroke="black" stroke-width="1.5" /><text dominant-baseline="middle" fill="black" font-family="Arial" font-size="12px" font-weight="bold" text-anchor="middle" x="315.625" y="266.25">Common Room</text></g><g id="room_common_room_2"><polygon fill="rgb(255,215,0)" fill-opacity="0.7" points="271.328125,91.171875 271.328125,194.53125 359.921875,194.53125 357.8125,91.171875" stroke="black" stroke-width="1.5" /><text dominant-baseline="middle" fill="black" font-family="Arial" font-size="12px" font-weight="bold" text-anchor="middle" x="316.6796875" y="143.90625">Common Room 2</text></g><g id="room_balcony"><polygon fill="rgb(107,142,35)" fill-opacity="0.7" points="412.65625,477.1875 412.65625,513.046875 530.78125,513.046875 530.78125,477.1875" stroke="black" stroke-width="1.5" /><text dominant-baseline="middle" fill="black" font-family="Arial" font-size="12px" font-weight="bold" text-anchor="middle" x="472.7734375" y="496.171875">Balcony</text></g><g id="room_kitchen"><polygon fill="rgb(240,128,128)" fill-opacity="0.7" points="370.46875,91.171875 370.46875,160.78125 429.53125,160.78125 429.53125,91.171875" stroke="black" stroke-width="1.5" /><text dominant-baseline="middle" fill="black" font-family="Arial" font-size="12px" font-weight="bold" text-anchor="middle" x="401.0546875" y="127.03125">Kitchen</text></g><g id="room_bathroom"><polygon fill="rgb(173,216,230)" fill-opacity="0.7" points="437.96875,91.171875 437.96875,160.78125 490.703125,160.78125 490.703125,91.171875" stroke="black" stroke-width="1.5" /><text dominant-baseline="middle" fill="black" font-family="Arial" font-size="12px" font-weight="bold" text-anchor="middle" x="465.390625" y="127.03125">Bathroom</text></g><rect fill="red" fill-opacity="0.9" height="48.515625" id="main_door" stroke="darkred" stroke-width="3" width="10.546875" x="492.8125" y="272.578125" /><text dominant-baseline="middle" fill="white" font-family="Arial" font-size="9px" font-weight="bold" text-anchor="middle" x="498.0859375" y="296.8359375">Main Door</text><text fill="black" font-family="Arial" font-size="18px" font-weight="bold" text-anchor="middle" x="400.0" y="30">Floor Plan - ID: 60077</text></svg>