<?xml version="1.0" encoding="utf-8" ?>
<svg baseProfile="full" height="600px" version="1.1" viewBox="0 0 800 600" width="800px" xmlns="http://www.w3.org/2000/svg" xmlns:ev="http://www.w3.org/2001/xml-events" xmlns:xlink="http://www.w3.org/1999/xlink"><defs /><rect fill="white" height="600" width="800" x="0" y="0" /><polygon fill="none" id="floor_plan_boundary" points="235.46875,158.671875 235.46875,257.8125 203.828125,259.921875 203.828125,333.75 235.46875,335.859375 235.46875,441.328125 357.8125,441.328125 359.921875,420.234375 513.90625,420.234375 516.015625,369.609375 596.171875,369.609375 591.953125,312.65625 591.953125,363.28125 509.6875,365.390625 507.578125,416.015625 353.59375,416.015625 351.484375,437.109375 241.796875,437.109375 239.6875,329.53125 208.046875,327.421875 208.046875,266.25 239.6875,264.140625 241.796875,162.890625 507.578125,162.890625 509.6875,190.3125 591.953125,192.421875 591.953125,270.46875 596.171875,186.09375 516.015625,186.09375 513.90625,158.671875" stroke="black" stroke-linecap="butt" stroke-linejoin="miter" stroke-width="4" /><g id="room_living_room"><polygon fill="rgb(238,232,170)" fill-opacity="0.7" points="319.84375,281.015625 319.84375,308.4375 589.84375,308.4375 589.84375,192.421875 509.6875,192.421875 507.578125,165.0 393.671875,165.0 393.671875,243.046875 353.59375,245.15625 353.59375,278.90625" stroke="black" stroke-width="1.5" /><text dominant-baseline="middle" fill="black" font-family="Arial" font-size="12px" font-weight="bold" text-anchor="middle" x="455.8984375" y="237.7734375">Living Room</text></g><g id="room_master_bedroom"><polygon fill="rgb(255,165,0)" fill-opacity="0.7" points="271.328125,266.25 271.328125,333.75 241.796875,335.859375 241.796875,435.0 351.484375,435.0 351.484375,316.875 313.515625,316.875 311.40625,281.015625 296.640625,281.015625 294.53125,266.25" stroke="black" stroke-width="1.5" /><text dominant-baseline="middle" fill="black" font-family="Arial" font-size="12px" font-weight="bold" text-anchor="middle" x="297.6953125" y="351.6796875">Master Bedroom</text></g><g id="room_common_room_2"><polygon fill="rgb(255,215,0)" fill-opacity="0.7" points="241.796875,165.0 241.796875,257.8125 298.75,255.703125 302.96875,272.578125 345.15625,272.578125 345.15625,245.15625 336.71875,243.046875 336.71875,165.0" stroke="black" stroke-width="1.5" /><text dominant-baseline="middle" fill="black" font-family="Arial" font-size="12px" font-weight="bold" text-anchor="middle" x="294.53125" y="219.84375">Common Room 2</text></g><g id="room_common_room"><polygon fill="rgb(255,215,0)" fill-opacity="0.7" points="359.921875,316.875 359.921875,413.90625 440.078125,413.90625 440.078125,316.875" stroke="black" stroke-width="1.5" /><text dominant-baseline="middle" fill="black" font-family="Arial" font-size="12px" font-weight="bold" text-anchor="middle" x="401.0546875" y="366.4453125">Common Room</text></g><g id="room_kitchen"><polygon fill="rgb(240,128,128)" fill-opacity="0.7" points="448.515625,316.875 448.515625,363.28125 589.84375,363.28125 589.84375,316.875" stroke="black" stroke-width="1.5" /><text dominant-baseline="middle" fill="black" font-family="Arial" font-size="12px" font-weight="bold" text-anchor="middle" x="520.234375" y="341.1328125">Kitchen</text></g><g id="room_bathroom"><polygon fill="rgb(173,216,230)" fill-opacity="0.7" points="210.15625,266.25 210.15625,327.421875 262.890625,327.421875 262.890625,266.25" stroke="black" stroke-width="1.5" /><text dominant-baseline="middle" fill="black" font-family="Arial" font-size="12px" font-weight="bold" text-anchor="middle" x="237.578125" y="297.890625">Bathroom</text></g><g id="room_bathroom_2"><polygon fill="rgb(173,216,230)" fill-opacity="0.7" points="345.15625,165.0 345.15625,236.71875 385.234375,236.71875 385.234375,165.0" stroke="black" stroke-width="1.5" /><text dominant-baseline="middle" fill="black" font-family="Arial" font-size="12px" font-weight="bold" text-anchor="middle" x="366.25" y="201.9140625">Bathroom 2</text></g><g id="room_balcony"><polygon fill="rgb(107,142,35)" fill-opacity="0.7" points="448.515625,371.71875 448.515625,413.90625 507.578125,413.90625 507.578125,371.71875" stroke="black" stroke-width="1.5" /><text dominant-baseline="middle" fill="black" font-family="Arial" font-size="12px" font-weight="bold" text-anchor="middle" x="479.1015625" y="393.8671875">Balcony</text></g><rect fill="red" fill-opacity="0.9" height="40.078125" id="main_door" stroke="darkred" stroke-width="3" width="6.328125" x="591.953125" y="272.578125" /><text dominant-baseline="middle" fill="white" font-family="Arial" font-size="9px" font-weight="bold" text-anchor="middle" x="595.1171875" y="292.6171875">Main Door</text><text fill="black" font-family="Arial" font-size="18px" font-weight="bold" text-anchor="middle" x="400.0" y="30">Floor Plan - ID: 6027</text></svg>