<?xml version="1.0" encoding="utf-8" ?>
<svg baseProfile="full" height="600px" version="1.1" viewBox="0 0 800 600" width="800px" xmlns="http://www.w3.org/2000/svg" xmlns:ev="http://www.w3.org/2001/xml-events" xmlns:xlink="http://www.w3.org/1999/xlink"><defs /><rect fill="white" height="600" width="800" x="0" y="0" /><polygon fill="none" id="floor_plan_boundary" points="252.34375,183.984375 252.34375,365.390625 288.203125,367.5 288.203125,432.890625 385.234375,432.890625 387.34375,466.640625 547.65625,466.640625 547.65625,183.984375 530.78125,183.984375 543.4375,190.3125 541.328125,462.421875 393.671875,462.421875 391.5625,428.671875 294.53125,428.671875 292.421875,361.171875 256.5625,359.0625 258.671875,188.203125 338.828125,188.203125 340.9375,137.578125 414.765625,137.578125 416.875,188.203125 501.25,183.984375 423.203125,183.984375 421.09375,133.359375 334.609375,133.359375 332.5,183.984375" stroke="black" stroke-linecap="butt" stroke-linejoin="miter" stroke-width="4" /><g id="room_living_room"><polygon fill="rgb(238,232,170)" fill-opacity="0.7" points="340.9375,190.3125 340.9375,300.0 541.328125,300.0 541.328125,190.3125" stroke="black" stroke-width="1.5" /><text dominant-baseline="middle" fill="black" font-family="Arial" font-size="12px" font-weight="bold" text-anchor="middle" x="442.1875" y="246.2109375">Living Room</text></g><g id="room_master_bedroom"><polygon fill="rgb(255,165,0)" fill-opacity="0.7" points="294.53125,308.4375 294.53125,426.5625 385.234375,426.5625 385.234375,308.4375" stroke="black" stroke-width="1.5" /><text dominant-baseline="middle" fill="black" font-family="Arial" font-size="12px" font-weight="bold" text-anchor="middle" x="340.9375" y="368.5546875">Master Bedroom</text></g><g id="room_common_room_2"><polygon fill="rgb(255,215,0)" fill-opacity="0.7" points="393.671875,308.4375 393.671875,426.5625 467.5,426.5625 467.5,308.4375" stroke="black" stroke-width="1.5" /><text dominant-baseline="middle" fill="black" font-family="Arial" font-size="12px" font-weight="bold" text-anchor="middle" x="431.640625" y="368.5546875">Common Room 2</text></g><g id="room_common_room"><polygon fill="rgb(255,215,0)" fill-opacity="0.7" points="475.9375,308.4375 475.9375,426.5625 541.328125,426.5625 541.328125,308.4375" stroke="black" stroke-width="1.5" /><text dominant-baseline="middle" fill="black" font-family="Arial" font-size="12px" font-weight="bold" text-anchor="middle" x="509.6875" y="368.5546875">Common Room</text></g><g id="room_kitchen"><polygon fill="rgb(240,128,128)" fill-opacity="0.7" points="332.5,251.484375 258.671875,251.484375 258.671875,359.0625 286.09375,359.0625 288.203125,300.0 332.5,300.0" stroke="black" stroke-width="1.5" /><text dominant-baseline="middle" fill="black" font-family="Arial" font-size="12px" font-weight="bold" text-anchor="middle" x="296.640625" y="306.328125">Kitchen</text></g><g id="room_bathroom"><polygon fill="rgb(173,216,230)" fill-opacity="0.7" points="258.671875,190.3125 258.671875,243.046875 332.5,243.046875 332.5,190.3125" stroke="black" stroke-width="1.5" /><text dominant-baseline="middle" fill="black" font-family="Arial" font-size="12px" font-weight="bold" text-anchor="middle" x="296.640625" y="217.734375">Bathroom</text></g><g id="room_balcony"><polygon fill="rgb(107,142,35)" fill-opacity="0.7" points="393.671875,435.0 393.671875,460.3125 541.328125,460.3125 541.328125,435.0" stroke="black" stroke-width="1.5" /><text dominant-baseline="middle" fill="black" font-family="Arial" font-size="12px" font-weight="bold" text-anchor="middle" x="468.5546875" y="448.7109375">Balcony</text></g><g id="room_balcony_2"><polygon fill="rgb(107,142,35)" fill-opacity="0.7" points="340.9375,139.6875 340.9375,181.875 414.765625,181.875 414.765625,139.6875" stroke="black" stroke-width="1.5" /><text dominant-baseline="middle" fill="black" font-family="Arial" font-size="12px" font-weight="bold" text-anchor="middle" x="378.90625" y="161.8359375">Balcony 2</text></g><rect fill="red" fill-opacity="0.9" height="6.328125" id="main_door" stroke="darkred" stroke-width="3" width="27.421875" x="503.359375" y="183.984375" /><text dominant-baseline="middle" fill="white" font-family="Arial" font-size="9px" font-weight="bold" text-anchor="middle" x="517.0703125" y="187.1484375">Main Door</text><text fill="black" font-family="Arial" font-size="18px" font-weight="bold" text-anchor="middle" x="400.0" y="30">Floor Plan - ID: 60884</text></svg>