<?xml version="1.0" encoding="utf-8" ?>
<svg baseProfile="full" height="600px" version="1.1" viewBox="0 0 800 600" width="800px" xmlns="http://www.w3.org/2000/svg" xmlns:ev="http://www.w3.org/2001/xml-events" xmlns:xlink="http://www.w3.org/1999/xlink"><defs /><rect fill="white" height="600" width="800" x="0" y="0" /><polygon fill="none" id="floor_plan_boundary" points="159.53125,253.59375 159.53125,422.34375 197.5,422.34375 199.609375,435.0 328.28125,435.0 330.390625,394.921875 393.671875,394.921875 393.671875,386.484375 319.84375,386.484375 317.734375,426.5625 210.15625,426.5625 208.046875,413.90625 167.96875,411.796875 167.96875,264.140625 208.046875,262.03125 208.046875,175.546875 581.40625,173.4375 583.515625,270.46875 632.03125,272.578125 632.03125,384.375 440.078125,386.484375 440.078125,394.921875 640.46875,394.921875 640.46875,262.03125 591.953125,259.921875 591.953125,165.0 199.609375,165.0 199.609375,251.484375" stroke="black" stroke-linecap="butt" stroke-linejoin="miter" stroke-width="4" /><g id="room_living_room"><polygon fill="rgb(238,232,170)" fill-opacity="0.7" points="330.390625,232.5 330.390625,384.375 629.921875,384.375 629.921875,272.578125 404.21875,272.578125 402.109375,232.5" stroke="black" stroke-width="1.5" /><text dominant-baseline="middle" fill="black" font-family="Arial" font-size="12px" font-weight="bold" text-anchor="middle" x="481.2109375" y="309.4921875">Living Room</text></g><g id="room_master_bedroom"><polygon fill="rgb(255,165,0)" fill-opacity="0.7" points="414.765625,232.5 414.765625,259.921875 581.40625,259.921875 581.40625,175.546875 459.0625,175.546875 459.0625,230.390625" stroke="black" stroke-width="1.5" /><text dominant-baseline="middle" fill="black" font-family="Arial" font-size="12px" font-weight="bold" text-anchor="middle" x="499.140625" y="218.7890625">Master Bedroom</text></g><g id="room_common_room"><polygon fill="rgb(255,215,0)" fill-opacity="0.7" points="170.078125,264.140625 170.078125,340.078125 317.734375,340.078125 317.734375,272.578125 199.609375,272.578125 197.5,264.140625" stroke="black" stroke-width="1.5" /><text dominant-baseline="middle" fill="black" font-family="Arial" font-size="12px" font-weight="bold" text-anchor="middle" x="244.9609375" y="303.1640625">Common Room</text></g><g id="room_kitchen"><polygon fill="rgb(240,128,128)" fill-opacity="0.7" points="170.078125,352.734375 170.078125,411.796875 208.046875,411.796875 210.15625,424.453125 317.734375,424.453125 317.734375,352.734375" stroke="black" stroke-width="1.5" /><text dominant-baseline="middle" fill="black" font-family="Arial" font-size="12px" font-weight="bold" text-anchor="middle" x="244.9609375" y="389.6484375">Kitchen</text></g><g id="room_common_room_2"><polygon fill="rgb(255,215,0)" fill-opacity="0.7" points="210.15625,175.546875 210.15625,259.921875 317.734375,259.921875 317.734375,175.546875" stroke="black" stroke-width="1.5" /><text dominant-baseline="middle" fill="black" font-family="Arial" font-size="12px" font-weight="bold" text-anchor="middle" x="265.0" y="218.7890625">Common Room 2</text></g><g id="room_bathroom_2"><polygon fill="rgb(173,216,230)" fill-opacity="0.7" points="330.390625,175.546875 330.390625,219.84375 402.109375,219.84375 402.109375,175.546875" stroke="black" stroke-width="1.5" /><text dominant-baseline="middle" fill="black" font-family="Arial" font-size="12px" font-weight="bold" text-anchor="middle" x="367.3046875" y="198.75">Bathroom 2</text></g><g id="room_bathroom"><polygon fill="rgb(173,216,230)" fill-opacity="0.7" points="414.765625,175.546875 414.765625,219.84375 446.40625,219.84375 446.40625,175.546875" stroke="black" stroke-width="1.5" /><text dominant-baseline="middle" fill="black" font-family="Arial" font-size="12px" font-weight="bold" text-anchor="middle" x="431.640625" y="198.75">Bathroom</text></g><rect fill="red" fill-opacity="0.9" height="10.546875" id="main_door" stroke="darkred" stroke-width="3" width="44.296875" x="395.78125" y="386.484375" /><text dominant-baseline="middle" fill="white" font-family="Arial" font-size="9px" font-weight="bold" text-anchor="middle" x="417.9296875" y="391.7578125">Main Door</text><text fill="black" font-family="Arial" font-size="18px" font-weight="bold" text-anchor="middle" x="400.0" y="30">Floor Plan - ID: 61204</text></svg>