<?xml version="1.0" encoding="utf-8" ?>
<svg baseProfile="full" height="600px" version="1.1" viewBox="0 0 800 600" width="800px" xmlns="http://www.w3.org/2000/svg" xmlns:ev="http://www.w3.org/2001/xml-events" xmlns:xlink="http://www.w3.org/1999/xlink"><defs /><rect fill="white" height="600" width="800" x="0" y="0" /><polygon fill="none" id="floor_plan_boundary" points="370.46875,101.71875 368.359375,162.890625 267.109375,162.890625 267.109375,451.875 368.359375,451.875 370.46875,498.28125 505.46875,498.28125 505.46875,228.28125 532.890625,226.171875 532.890625,162.890625 459.0625,162.890625 456.953125,101.71875 448.515625,101.71875 452.734375,167.109375 528.671875,169.21875 528.671875,219.84375 501.25,221.953125 501.25,491.953125 376.796875,494.0625 374.6875,447.65625 271.328125,445.546875 271.328125,169.21875 374.6875,167.109375 374.6875,108.046875 414.765625,101.71875" stroke="black" stroke-linecap="butt" stroke-linejoin="miter" stroke-width="4" /><g id="room_living_room"><polygon fill="rgb(238,232,170)" fill-opacity="0.7" points="376.796875,108.046875 378.90625,262.03125 345.15625,266.25 345.15625,321.09375 378.90625,325.3125 376.796875,445.546875 499.140625,445.546875 499.140625,228.28125 418.984375,228.28125 416.875,162.890625 450.625,160.78125 450.625,108.046875" stroke="black" stroke-width="1.5" /><text dominant-baseline="middle" fill="black" font-family="Arial" font-size="12px" font-weight="bold" text-anchor="middle" x="423.203125" y="277.8515625">Living Room</text></g><g id="room_master_bedroom"><polygon fill="rgb(255,165,0)" fill-opacity="0.7" points="273.4375,329.53125 273.4375,445.546875 368.359375,445.546875 368.359375,329.53125" stroke="black" stroke-width="1.5" /><text dominant-baseline="middle" fill="black" font-family="Arial" font-size="12px" font-weight="bold" text-anchor="middle" x="321.953125" y="388.59375">Master Bedroom</text></g><g id="room_common_room"><polygon fill="rgb(255,215,0)" fill-opacity="0.7" points="273.4375,169.21875 273.4375,257.8125 368.359375,257.8125 368.359375,169.21875" stroke="black" stroke-width="1.5" /><text dominant-baseline="middle" fill="black" font-family="Arial" font-size="12px" font-weight="bold" text-anchor="middle" x="321.953125" y="214.5703125">Common Room</text></g><g id="room_kitchen"><polygon fill="rgb(240,128,128)" fill-opacity="0.7" points="425.3125,169.21875 425.3125,219.84375 526.5625,219.84375 526.5625,169.21875" stroke="black" stroke-width="1.5" /><text dominant-baseline="middle" fill="black" font-family="Arial" font-size="12px" font-weight="bold" text-anchor="middle" x="476.9921875" y="195.5859375">Kitchen</text></g><g id="room_balcony"><polygon fill="rgb(107,142,35)" fill-opacity="0.7" points="376.796875,453.984375 376.796875,491.953125 499.140625,491.953125 499.140625,453.984375" stroke="black" stroke-width="1.5" /><text dominant-baseline="middle" fill="black" font-family="Arial" font-size="12px" font-weight="bold" text-anchor="middle" x="439.0234375" y="474.0234375">Balcony</text></g><g id="room_bathroom"><polygon fill="rgb(173,216,230)" fill-opacity="0.7" points="273.4375,266.25 273.4375,321.09375 336.71875,321.09375 336.71875,266.25" stroke="black" stroke-width="1.5" /><text dominant-baseline="middle" fill="black" font-family="Arial" font-size="12px" font-weight="bold" text-anchor="middle" x="306.1328125" y="294.7265625">Bathroom</text></g><rect fill="red" fill-opacity="0.9" height="6.328125" id="main_door" stroke="darkred" stroke-width="3" width="31.640625" x="416.875" y="101.71875" /><text dominant-baseline="middle" fill="white" font-family="Arial" font-size="9px" font-weight="bold" text-anchor="middle" x="432.6953125" y="104.8828125">Main Door</text><text fill="black" font-family="Arial" font-size="18px" font-weight="bold" text-anchor="middle" x="400.0" y="30">Floor Plan - ID: 61577</text></svg>