<?xml version="1.0" encoding="utf-8" ?>
<svg baseProfile="full" height="600px" version="1.1" viewBox="0 0 800 600" width="800px" xmlns="http://www.w3.org/2000/svg" xmlns:ev="http://www.w3.org/2001/xml-events" xmlns:xlink="http://www.w3.org/1999/xlink"><defs /><rect fill="white" height="600" width="800" x="0" y="0" /><polygon fill="none" id="floor_plan_boundary" points="237.578125,230.390625 237.578125,325.3125 197.5,327.421875 197.5,441.328125 429.53125,441.328125 201.71875,435.0 201.71875,333.75 241.796875,331.640625 241.796875,236.71875 332.5,234.609375 334.609375,162.890625 524.453125,165.0 524.453125,335.859375 435.859375,337.96875 435.859375,382.265625 596.171875,382.265625 598.28125,435.0 450.625,441.328125 602.5,441.328125 602.5,378.046875 440.078125,375.9375 442.1875,342.1875 528.671875,342.1875 528.671875,158.671875 328.28125,158.671875 326.171875,230.390625" stroke="black" stroke-linecap="butt" stroke-linejoin="miter" stroke-width="4" /><g id="room_living_room"><polygon fill="rgb(238,232,170)" fill-opacity="0.7" points="203.828125,384.375 203.828125,435.0 553.984375,435.0 553.984375,384.375 433.75,382.265625 433.75,236.71875 334.609375,236.71875 332.5,384.375" stroke="black" stroke-width="1.5" /><text dominant-baseline="middle" fill="black" font-family="Arial" font-size="12px" font-weight="bold" text-anchor="middle" x="379.9609375" y="336.9140625">Living Room</text></g><g id="room_common_room_3"><polygon fill="rgb(255,215,0)" fill-opacity="0.7" points="393.671875,165.0 393.671875,228.28125 440.078125,228.28125 442.1875,255.703125 522.34375,255.703125 522.34375,165.0" stroke="black" stroke-width="1.5" /><text dominant-baseline="middle" fill="black" font-family="Arial" font-size="12px" font-weight="bold" text-anchor="middle" x="459.0625" y="211.40625">Common Room 3</text></g><g id="room_common_room_2"><polygon fill="rgb(255,215,0)" fill-opacity="0.7" points="243.90625,236.71875 243.90625,325.3125 326.171875,325.3125 326.171875,236.71875" stroke="black" stroke-width="1.5" /><text dominant-baseline="middle" fill="black" font-family="Arial" font-size="12px" font-weight="bold" text-anchor="middle" x="286.09375" y="282.0703125">Common Room 2</text></g><g id="room_common_room"><polygon fill="rgb(255,215,0)" fill-opacity="0.7" points="442.1875,264.140625 442.1875,335.859375 522.34375,335.859375 522.34375,264.140625" stroke="black" stroke-width="1.5" /><text dominant-baseline="middle" fill="black" font-family="Arial" font-size="12px" font-weight="bold" text-anchor="middle" x="483.3203125" y="301.0546875">Common Room</text></g><g id="room_kitchen"><polygon fill="rgb(240,128,128)" fill-opacity="0.7" points="203.828125,333.75 203.828125,375.9375 326.171875,375.9375 326.171875,333.75" stroke="black" stroke-width="1.5" /><text dominant-baseline="middle" fill="black" font-family="Arial" font-size="12px" font-weight="bold" text-anchor="middle" x="266.0546875" y="355.8984375">Kitchen</text></g><g id="room_bathroom"><polygon fill="rgb(173,216,230)" fill-opacity="0.7" points="334.609375,165.0 334.609375,228.28125 385.234375,228.28125 385.234375,165.0" stroke="black" stroke-width="1.5" /><text dominant-baseline="middle" fill="black" font-family="Arial" font-size="12px" font-weight="bold" text-anchor="middle" x="360.9765625" y="197.6953125">Bathroom</text></g><g id="room_balcony"><polygon fill="rgb(107,142,35)" fill-opacity="0.7" points="562.421875,384.375 562.421875,435.0 596.171875,435.0 596.171875,384.375" stroke="black" stroke-width="1.5" /><text dominant-baseline="middle" fill="black" font-family="Arial" font-size="12px" font-weight="bold" text-anchor="middle" x="580.3515625" y="410.7421875">Balcony</text></g><text fill="black" font-family="Arial" font-size="18px" font-weight="bold" text-anchor="middle" x="400.0" y="30">Floor Plan - ID: 61688</text></svg>