<?xml version="1.0" encoding="utf-8" ?>
<svg baseProfile="full" height="600px" version="1.1" viewBox="0 0 800 600" width="800px" xmlns="http://www.w3.org/2000/svg" xmlns:ev="http://www.w3.org/2001/xml-events" xmlns:xlink="http://www.w3.org/1999/xlink"><defs /><rect fill="white" height="600" width="800" x="0" y="0" /><polygon fill="none" id="floor_plan_boundary" points="585.625,162.890625 482.265625,162.890625 475.9375,190.3125 490.703125,190.3125 492.8125,171.328125 577.1875,173.4375 577.1875,293.671875 545.546875,295.78125 545.546875,405.46875 450.625,407.578125 448.515625,428.671875 345.15625,428.671875 343.046875,407.578125 258.671875,407.578125 256.5625,295.78125 222.8125,293.671875 224.921875,190.3125 446.40625,190.3125 446.40625,181.875 214.375,181.875 214.375,304.21875 248.125,306.328125 248.125,416.015625 332.5,416.015625 334.609375,437.109375 459.0625,437.109375 461.171875,416.015625 553.984375,416.015625 553.984375,306.328125 585.625,304.21875" stroke="black" stroke-linecap="butt" stroke-linejoin="miter" stroke-width="4" /><g id="room_living_room"><polygon fill="rgb(238,232,170)" fill-opacity="0.7" points="330.390625,192.421875 330.390625,238.828125 311.40625,240.9375 311.40625,293.671875 345.15625,295.78125 345.15625,380.15625 448.515625,380.15625 448.515625,262.03125 492.8125,259.921875 492.8125,240.9375 480.15625,238.828125 480.15625,192.421875" stroke="black" stroke-width="1.5" /><text dominant-baseline="middle" fill="black" font-family="Arial" font-size="12px" font-weight="bold" text-anchor="middle" x="403.1640625" y="287.34375">Living Room</text></g><g id="room_master_bedroom"><polygon fill="rgb(255,165,0)" fill-opacity="0.7" points="461.171875,272.578125 461.171875,405.46875 543.4375,405.46875 543.4375,306.328125 494.921875,306.328125 492.8125,272.578125" stroke="black" stroke-width="1.5" /><text dominant-baseline="middle" fill="black" font-family="Arial" font-size="12px" font-weight="bold" text-anchor="middle" x="503.359375" y="340.078125">Master Bedroom</text></g><g id="room_common_room_2"><polygon fill="rgb(255,215,0)" fill-opacity="0.7" points="224.921875,192.421875 224.921875,293.671875 298.75,293.671875 298.75,230.390625 317.734375,228.28125 317.734375,192.421875" stroke="black" stroke-width="1.5" /><text dominant-baseline="middle" fill="black" font-family="Arial" font-size="12px" font-weight="bold" text-anchor="middle" x="272.3828125" y="244.1015625">Common Room 2</text></g><g id="room_common_room"><polygon fill="rgb(255,215,0)" fill-opacity="0.7" points="258.671875,306.328125 258.671875,405.46875 332.5,405.46875 332.5,306.328125" stroke="black" stroke-width="1.5" /><text dominant-baseline="middle" fill="black" font-family="Arial" font-size="12px" font-weight="bold" text-anchor="middle" x="296.640625" y="356.953125">Common Room</text></g><g id="room_kitchen"><polygon fill="rgb(240,128,128)" fill-opacity="0.7" points="492.8125,173.4375 492.8125,228.28125 575.078125,228.28125 575.078125,173.4375" stroke="black" stroke-width="1.5" /><text dominant-baseline="middle" fill="black" font-family="Arial" font-size="12px" font-weight="bold" text-anchor="middle" x="535.0" y="201.9140625">Kitchen</text></g><g id="room_balcony"><polygon fill="rgb(107,142,35)" fill-opacity="0.7" points="345.15625,392.8125 345.15625,426.5625 448.515625,426.5625 448.515625,392.8125" stroke="black" stroke-width="1.5" /><text dominant-baseline="middle" fill="black" font-family="Arial" font-size="12px" font-weight="bold" text-anchor="middle" x="397.890625" y="410.7421875">Balcony</text></g><g id="room_bathroom"><polygon fill="rgb(173,216,230)" fill-opacity="0.7" points="505.46875,240.9375 505.46875,293.671875 543.4375,293.671875 543.4375,240.9375" stroke="black" stroke-width="1.5" /><text dominant-baseline="middle" fill="black" font-family="Arial" font-size="12px" font-weight="bold" text-anchor="middle" x="525.5078125" y="268.359375">Bathroom</text></g><g id="room_balcony_2"><polygon fill="rgb(107,142,35)" fill-opacity="0.7" points="556.09375,240.9375 556.09375,293.671875 575.078125,293.671875 575.078125,240.9375" stroke="black" stroke-width="1.5" /><text dominant-baseline="middle" fill="black" font-family="Arial" font-size="12px" font-weight="bold" text-anchor="middle" x="566.640625" y="268.359375">Balcony 2</text></g><rect fill="red" fill-opacity="0.9" height="10.546875" id="main_door" stroke="darkred" stroke-width="3" width="27.421875" x="448.515625" y="181.875" /><text dominant-baseline="middle" fill="white" font-family="Arial" font-size="9px" font-weight="bold" text-anchor="middle" x="462.2265625" y="187.1484375">Main Door</text><text fill="black" font-family="Arial" font-size="18px" font-weight="bold" text-anchor="middle" x="400.0" y="30">Floor Plan - ID: 6174</text></svg>