<?xml version="1.0" encoding="utf-8" ?>
<svg baseProfile="full" height="600px" version="1.1" viewBox="0 0 800 600" width="800px" xmlns="http://www.w3.org/2000/svg" xmlns:ev="http://www.w3.org/2001/xml-events" xmlns:xlink="http://www.w3.org/1999/xlink"><defs /><rect fill="white" height="600" width="800" x="0" y="0" /><polygon fill="none" id="floor_plan_boundary" points="298.75,95.390625 298.75,240.9375 260.78125,243.046875 260.78125,458.203125 395.78125,458.203125 397.890625,504.609375 539.21875,504.609375 539.21875,272.578125 509.6875,270.46875 509.6875,202.96875 486.484375,202.96875 486.484375,211.40625 501.25,213.515625 501.25,281.015625 530.78125,283.125 530.78125,494.0625 408.4375,496.171875 406.328125,449.765625 269.21875,447.65625 269.21875,253.59375 307.1875,251.484375 307.1875,105.9375 484.375,103.828125 486.484375,165.0 494.921875,165.0 494.921875,95.390625" stroke="black" stroke-linecap="butt" stroke-linejoin="miter" stroke-width="4" /><g id="room_living_room"><polygon fill="rgb(238,232,170)" fill-opacity="0.7" points="408.4375,165.0 406.328125,196.640625 366.25,196.640625 366.25,240.9375 408.4375,243.046875 408.4375,291.5625 366.25,293.671875 366.25,325.3125 408.4375,327.421875 408.4375,447.65625 528.671875,447.65625 528.671875,283.125 499.140625,281.015625 484.375,165.0" stroke="black" stroke-width="1.5" /><text dominant-baseline="middle" fill="black" font-family="Arial" font-size="12px" font-weight="bold" text-anchor="middle" x="448.515625" y="307.3828125">Living Room</text></g><g id="room_master_bedroom"><polygon fill="rgb(255,165,0)" fill-opacity="0.7" points="271.328125,337.96875 271.328125,447.65625 395.78125,447.65625 395.78125,337.96875" stroke="black" stroke-width="1.5" /><text dominant-baseline="middle" fill="black" font-family="Arial" font-size="12px" font-weight="bold" text-anchor="middle" x="334.609375" y="393.8671875">Master Bedroom</text></g><g id="room_common_room_2"><polygon fill="rgb(255,215,0)" fill-opacity="0.7" points="309.296875,105.9375 309.296875,183.984375 395.78125,183.984375 395.78125,105.9375" stroke="black" stroke-width="1.5" /><text dominant-baseline="middle" fill="black" font-family="Arial" font-size="12px" font-weight="bold" text-anchor="middle" x="353.59375" y="146.015625">Common Room 2</text></g><g id="room_common_room"><polygon fill="rgb(255,215,0)" fill-opacity="0.7" points="271.328125,253.59375 271.328125,325.3125 357.8125,325.3125 357.8125,253.59375" stroke="black" stroke-width="1.5" /><text dominant-baseline="middle" fill="black" font-family="Arial" font-size="12px" font-weight="bold" text-anchor="middle" x="315.625" y="290.5078125">Common Room</text></g><g id="room_balcony"><polygon fill="rgb(107,142,35)" fill-opacity="0.7" points="408.4375,460.3125 408.4375,494.0625 528.671875,494.0625 528.671875,460.3125" stroke="black" stroke-width="1.5" /><text dominant-baseline="middle" fill="black" font-family="Arial" font-size="12px" font-weight="bold" text-anchor="middle" x="469.609375" y="478.2421875">Balcony</text></g><g id="room_kitchen"><polygon fill="rgb(240,128,128)" fill-opacity="0.7" points="408.4375,105.9375 408.4375,156.5625 484.375,156.5625 484.375,105.9375" stroke="black" stroke-width="1.5" /><text dominant-baseline="middle" fill="black" font-family="Arial" font-size="12px" font-weight="bold" text-anchor="middle" x="447.4609375" y="132.3046875">Kitchen</text></g><g id="room_bathroom"><polygon fill="rgb(173,216,230)" fill-opacity="0.7" points="309.296875,196.640625 309.296875,240.9375 357.8125,240.9375 357.8125,196.640625" stroke="black" stroke-width="1.5" /><text dominant-baseline="middle" fill="black" font-family="Arial" font-size="12px" font-weight="bold" text-anchor="middle" x="334.609375" y="219.84375">Bathroom</text></g><rect fill="red" fill-opacity="0.9" height="35.859375" id="main_door" stroke="darkred" stroke-width="3" width="10.546875" x="486.484375" y="167.109375" /><text dominant-baseline="middle" fill="white" font-family="Arial" font-size="9px" font-weight="bold" text-anchor="middle" x="491.7578125" y="185.0390625">Main Door</text><text fill="black" font-family="Arial" font-size="18px" font-weight="bold" text-anchor="middle" x="400.0" y="30">Floor Plan - ID: 6179</text></svg>