<?xml version="1.0" encoding="utf-8" ?>
<svg baseProfile="full" height="600px" version="1.1" viewBox="0 0 800 600" width="800px" xmlns="http://www.w3.org/2000/svg" xmlns:ev="http://www.w3.org/2001/xml-events" xmlns:xlink="http://www.w3.org/1999/xlink"><defs /><rect fill="white" height="600" width="800" x="0" y="0" /><polygon fill="none" id="floor_plan_boundary" points="203.828125,194.53125 203.828125,255.703125 189.0625,257.8125 189.0625,405.46875 387.34375,405.46875 193.28125,399.140625 193.28125,264.140625 208.046875,262.03125 210.15625,198.75 604.609375,198.75 606.71875,255.703125 551.875,257.8125 551.875,356.953125 598.28125,356.953125 600.390625,399.140625 416.875,401.25 604.609375,405.46875 604.609375,352.734375 556.09375,350.625 556.09375,264.140625 610.9375,262.03125 610.9375,194.53125" stroke="black" stroke-linecap="butt" stroke-linejoin="miter" stroke-width="4" /><g id="room_living_room"><polygon fill="rgb(238,232,170)" fill-opacity="0.7" points="195.390625,264.140625 195.390625,316.875 357.8125,316.875 359.921875,399.140625 437.96875,399.140625 440.078125,350.625 549.765625,350.625 549.765625,297.890625 437.96875,295.78125 437.96875,234.609375 359.921875,234.609375 357.8125,264.140625" stroke="black" stroke-width="1.5" /><text dominant-baseline="middle" fill="black" font-family="Arial" font-size="12px" font-weight="bold" text-anchor="middle" x="373.6328125" y="317.9296875">Living Room</text></g><g id="room_master_bedroom"><polygon fill="rgb(255,165,0)" fill-opacity="0.7" points="195.390625,325.3125 195.390625,399.140625 313.515625,399.140625 313.515625,325.3125" stroke="black" stroke-width="1.5" /><text dominant-baseline="middle" fill="black" font-family="Arial" font-size="12px" font-weight="bold" text-anchor="middle" x="255.5078125" y="363.28125">Master Bedroom</text></g><g id="room_common_room"><polygon fill="rgb(255,215,0)" fill-opacity="0.7" points="446.40625,200.859375 446.40625,255.703125 604.609375,255.703125 604.609375,200.859375" stroke="black" stroke-width="1.5" /><text dominant-baseline="middle" fill="black" font-family="Arial" font-size="12px" font-weight="bold" text-anchor="middle" x="526.5625" y="229.3359375">Common Room</text></g><g id="room_common_room_2"><polygon fill="rgb(255,215,0)" fill-opacity="0.7" points="210.15625,200.859375 210.15625,255.703125 351.484375,255.703125 351.484375,200.859375" stroke="black" stroke-width="1.5" /><text dominant-baseline="middle" fill="black" font-family="Arial" font-size="12px" font-weight="bold" text-anchor="middle" x="281.875" y="229.3359375">Common Room 2</text></g><g id="room_kitchen"><polygon fill="rgb(240,128,128)" fill-opacity="0.7" points="446.40625,359.0625 446.40625,399.140625 598.28125,399.140625 598.28125,359.0625" stroke="black" stroke-width="1.5" /><text dominant-baseline="middle" fill="black" font-family="Arial" font-size="12px" font-weight="bold" text-anchor="middle" x="523.3984375" y="380.15625">Kitchen</text></g><g id="room_bathroom"><polygon fill="rgb(173,216,230)" fill-opacity="0.7" points="446.40625,264.140625 446.40625,289.453125 549.765625,289.453125 549.765625,264.140625" stroke="black" stroke-width="1.5" /><text dominant-baseline="middle" fill="black" font-family="Arial" font-size="12px" font-weight="bold" text-anchor="middle" x="499.140625" y="277.8515625">Bathroom</text></g><g id="room_room_8"><polygon fill="rgb(221,160,221)" fill-opacity="0.7" points="321.953125,325.3125 321.953125,399.140625 351.484375,399.140625 351.484375,325.3125" stroke="black" stroke-width="1.5" /><text dominant-baseline="middle" fill="black" font-family="Arial" font-size="12px" font-weight="bold" text-anchor="middle" x="337.7734375" y="363.28125">Room 8</text></g><g id="room_bathroom_2"><polygon fill="rgb(173,216,230)" fill-opacity="0.7" points="359.921875,200.859375 359.921875,226.171875 437.96875,226.171875 437.96875,200.859375" stroke="black" stroke-width="1.5" /><text dominant-baseline="middle" fill="black" font-family="Arial" font-size="12px" font-weight="bold" text-anchor="middle" x="400.0" y="214.5703125">Bathroom 2</text></g><rect fill="red" fill-opacity="0.9" height="6.328125" id="main_door" stroke="darkred" stroke-width="3" width="27.421875" x="389.453125" y="401.25" /><text dominant-baseline="middle" fill="white" font-family="Arial" font-size="9px" font-weight="bold" text-anchor="middle" x="403.1640625" y="404.4140625">Main Door</text><text fill="black" font-family="Arial" font-size="18px" font-weight="bold" text-anchor="middle" x="400.0" y="30">Floor Plan - ID: 618</text></svg>