<?xml version="1.0" encoding="utf-8" ?>
<svg baseProfile="full" height="600px" version="1.1" viewBox="0 0 800 600" width="800px" xmlns="http://www.w3.org/2000/svg" xmlns:ev="http://www.w3.org/2001/xml-events" xmlns:xlink="http://www.w3.org/1999/xlink"><defs /><rect fill="white" height="600" width="800" x="0" y="0" /><polygon fill="none" id="floor_plan_boundary" points="286.09375,146.015625 286.09375,226.171875 233.359375,228.28125 233.359375,411.796875 433.75,411.796875 435.859375,453.984375 566.640625,453.984375 566.640625,283.125 516.015625,287.34375 562.421875,289.453125 560.3125,449.765625 442.1875,449.765625 440.078125,407.578125 237.578125,405.46875 237.578125,234.609375 290.3125,232.5 292.421875,150.234375 513.90625,150.234375 520.234375,262.03125 520.234375,146.015625" stroke="black" stroke-linecap="butt" stroke-linejoin="miter" stroke-width="4" /><g id="room_living_room"><polygon fill="rgb(238,232,170)" fill-opacity="0.7" points="292.421875,234.609375 292.421875,281.015625 442.1875,283.125 442.1875,405.46875 560.3125,405.46875 560.3125,289.453125 513.90625,287.34375 513.90625,152.34375 442.1875,152.34375 440.078125,234.609375" stroke="black" stroke-width="1.5" /><text dominant-baseline="middle" fill="black" font-family="Arial" font-size="12px" font-weight="bold" text-anchor="middle" x="427.421875" y="279.9609375">Living Room</text></g><g id="room_common_room"><polygon fill="rgb(255,215,0)" fill-opacity="0.7" points="334.609375,289.453125 334.609375,405.46875 433.75,405.46875 433.75,289.453125" stroke="black" stroke-width="1.5" /><text dominant-baseline="middle" fill="black" font-family="Arial" font-size="12px" font-weight="bold" text-anchor="middle" x="385.234375" y="348.515625">Common Room</text></g><g id="room_master_bedroom"><polygon fill="rgb(255,165,0)" fill-opacity="0.7" points="239.6875,289.453125 239.6875,405.46875 326.171875,405.46875 326.171875,289.453125" stroke="black" stroke-width="1.5" /><text dominant-baseline="middle" fill="black" font-family="Arial" font-size="12px" font-weight="bold" text-anchor="middle" x="283.984375" y="348.515625">Master Bedroom</text></g><g id="room_common_room_2"><polygon fill="rgb(255,215,0)" fill-opacity="0.7" points="292.421875,152.34375 292.421875,226.171875 372.578125,226.171875 372.578125,152.34375" stroke="black" stroke-width="1.5" /><text dominant-baseline="middle" fill="black" font-family="Arial" font-size="12px" font-weight="bold" text-anchor="middle" x="333.5546875" y="190.3125">Common Room 2</text></g><g id="room_balcony"><polygon fill="rgb(107,142,35)" fill-opacity="0.7" points="442.1875,413.90625 442.1875,447.65625 560.3125,447.65625 560.3125,413.90625" stroke="black" stroke-width="1.5" /><text dominant-baseline="middle" fill="black" font-family="Arial" font-size="12px" font-weight="bold" text-anchor="middle" x="502.3046875" y="431.8359375">Balcony</text></g><g id="room_kitchen"><polygon fill="rgb(240,128,128)" fill-opacity="0.7" points="381.015625,152.34375 381.015625,226.171875 433.75,226.171875 433.75,152.34375" stroke="black" stroke-width="1.5" /><text dominant-baseline="middle" fill="black" font-family="Arial" font-size="12px" font-weight="bold" text-anchor="middle" x="408.4375" y="190.3125">Kitchen</text></g><g id="room_bathroom"><polygon fill="rgb(173,216,230)" fill-opacity="0.7" points="239.6875,234.609375 239.6875,281.015625 283.984375,281.015625 283.984375,234.609375" stroke="black" stroke-width="1.5" /><text dominant-baseline="middle" fill="black" font-family="Arial" font-size="12px" font-weight="bold" text-anchor="middle" x="262.890625" y="258.8671875">Bathroom</text></g><text fill="black" font-family="Arial" font-size="18px" font-weight="bold" text-anchor="middle" x="400.0" y="30">Floor Plan - ID: 61874</text></svg>