<?xml version="1.0" encoding="utf-8" ?>
<svg baseProfile="full" height="600px" version="1.1" viewBox="0 0 800 600" width="800px" xmlns="http://www.w3.org/2000/svg" xmlns:ev="http://www.w3.org/2001/xml-events" xmlns:xlink="http://www.w3.org/1999/xlink"><defs /><rect fill="white" height="600" width="800" x="0" y="0" /><polygon fill="none" id="floor_plan_boundary" points="290.3125,82.734375 290.3125,162.890625 296.640625,86.953125 446.40625,86.953125 448.515625,253.59375 505.46875,255.703125 505.46875,510.9375 340.9375,513.046875 338.828125,371.71875 294.53125,369.609375 290.3125,192.421875 290.3125,375.9375 334.609375,378.046875 334.609375,517.265625 509.6875,517.265625 509.6875,249.375 452.734375,247.265625 452.734375,82.734375" stroke="black" stroke-linecap="butt" stroke-linejoin="miter" stroke-width="4" /><g id="room_living_room"><polygon fill="rgb(238,232,170)" fill-opacity="0.7" points="296.640625,89.0625 296.640625,281.015625 362.03125,281.015625 364.140625,369.609375 418.984375,369.609375 418.984375,335.859375 446.40625,333.75 446.40625,200.859375 370.46875,200.859375 368.359375,89.0625" stroke="black" stroke-width="1.5" /><text dominant-baseline="middle" fill="black" font-family="Arial" font-size="12px" font-weight="bold" text-anchor="middle" x="372.578125" y="230.390625">Living Room</text></g><g id="room_master_bedroom"><polygon fill="rgb(255,165,0)" fill-opacity="0.7" points="427.421875,342.1875 427.421875,462.421875 503.359375,462.421875 503.359375,342.1875" stroke="black" stroke-width="1.5" /><text dominant-baseline="middle" fill="black" font-family="Arial" font-size="12px" font-weight="bold" text-anchor="middle" x="466.4453125" y="403.359375">Master Bedroom</text></g><g id="room_common_room_2"><polygon fill="rgb(255,215,0)" fill-opacity="0.7" points="376.796875,89.0625 376.796875,192.421875 446.40625,192.421875 446.40625,89.0625" stroke="black" stroke-width="1.5" /><text dominant-baseline="middle" fill="black" font-family="Arial" font-size="12px" font-weight="bold" text-anchor="middle" x="412.65625" y="141.796875">Common Room 2</text></g><g id="room_common_room"><polygon fill="rgb(255,215,0)" fill-opacity="0.7" points="340.9375,378.046875 340.9375,462.421875 418.984375,462.421875 418.984375,378.046875" stroke="black" stroke-width="1.5" /><text dominant-baseline="middle" fill="black" font-family="Arial" font-size="12px" font-weight="bold" text-anchor="middle" x="381.015625" y="421.2890625">Common Room</text></g><g id="room_kitchen"><polygon fill="rgb(240,128,128)" fill-opacity="0.7" points="296.640625,289.453125 296.640625,369.609375 355.703125,369.609375 355.703125,289.453125" stroke="black" stroke-width="1.5" /><text dominant-baseline="middle" fill="black" font-family="Arial" font-size="12px" font-weight="bold" text-anchor="middle" x="327.2265625" y="330.5859375">Kitchen</text></g><g id="room_bathroom"><polygon fill="rgb(173,216,230)" fill-opacity="0.7" points="454.84375,255.703125 454.84375,333.75 503.359375,333.75 503.359375,255.703125" stroke="black" stroke-width="1.5" /><text dominant-baseline="middle" fill="black" font-family="Arial" font-size="12px" font-weight="bold" text-anchor="middle" x="480.15625" y="295.78125">Bathroom</text></g><g id="room_balcony_2"><polygon fill="rgb(107,142,35)" fill-opacity="0.7" points="340.9375,470.859375 340.9375,510.9375 418.984375,510.9375 418.984375,470.859375" stroke="black" stroke-width="1.5" /><text dominant-baseline="middle" fill="black" font-family="Arial" font-size="12px" font-weight="bold" text-anchor="middle" x="381.015625" y="491.953125">Balcony 2</text></g><g id="room_balcony"><polygon fill="rgb(107,142,35)" fill-opacity="0.7" points="427.421875,470.859375 427.421875,510.9375 503.359375,510.9375 503.359375,470.859375" stroke="black" stroke-width="1.5" /><text dominant-baseline="middle" fill="black" font-family="Arial" font-size="12px" font-weight="bold" text-anchor="middle" x="466.4453125" y="491.953125">Balcony</text></g><rect fill="red" fill-opacity="0.9" height="27.421875" id="main_door" stroke="darkred" stroke-width="3" width="6.328125" x="290.3125" y="165.0" /><text dominant-baseline="middle" fill="white" font-family="Arial" font-size="9px" font-weight="bold" text-anchor="middle" x="293.4765625" y="178.7109375">Main Door</text><text fill="black" font-family="Arial" font-size="18px" font-weight="bold" text-anchor="middle" x="400.0" y="30">Floor Plan - ID: 62254</text></svg>