<?xml version="1.0" encoding="utf-8" ?>
<svg baseProfile="full" height="600px" version="1.1" viewBox="0 0 800 600" width="800px" xmlns="http://www.w3.org/2000/svg" xmlns:ev="http://www.w3.org/2001/xml-events" xmlns:xlink="http://www.w3.org/1999/xlink"><defs /><rect fill="white" height="600" width="800" x="0" y="0" /><polygon fill="none" id="floor_plan_boundary" points="507.578125,86.953125 423.203125,86.953125 421.09375,129.140625 332.5,129.140625 330.390625,150.234375 229.140625,150.234375 229.140625,253.59375 205.9375,255.703125 205.9375,466.640625 330.390625,466.640625 332.5,513.046875 478.046875,513.046875 480.15625,466.640625 594.0625,466.640625 594.0625,335.859375 480.15625,335.859375 478.046875,308.4375 454.84375,306.328125 454.84375,268.359375 446.40625,268.359375 446.40625,316.875 469.609375,318.984375 469.609375,344.296875 585.625,346.40625 583.515625,458.203125 469.609375,458.203125 467.5,504.609375 343.046875,504.609375 340.9375,458.203125 214.375,456.09375 214.375,266.25 237.578125,264.140625 237.578125,160.78125 340.9375,158.671875 343.046875,137.578125 431.640625,137.578125 433.75,95.390625 497.03125,95.390625 499.140625,190.3125 446.40625,192.421875 446.40625,234.609375 454.84375,234.609375 456.953125,200.859375 507.578125,200.859375" stroke="black" stroke-linecap="butt" stroke-linejoin="miter" stroke-width="4" /><g id="room_living_room"><polygon fill="rgb(238,232,170)" fill-opacity="0.7" points="343.046875,202.96875 343.046875,285.234375 298.75,287.34375 298.75,327.421875 343.046875,329.53125 343.046875,502.5 467.5,502.5 467.5,318.984375 444.296875,316.875 444.296875,202.96875" stroke="black" stroke-width="1.5" /><text dominant-baseline="middle" fill="black" font-family="Arial" font-size="12px" font-weight="bold" text-anchor="middle" x="384.1796875" y="353.7890625">Living Room</text></g><g id="room_master_bedroom"><polygon fill="rgb(255,165,0)" fill-opacity="0.7" points="216.484375,340.078125 216.484375,456.09375 330.390625,456.09375 330.390625,340.078125" stroke="black" stroke-width="1.5" /><text dominant-baseline="middle" fill="black" font-family="Arial" font-size="12px" font-weight="bold" text-anchor="middle" x="274.4921875" y="399.140625">Master Bedroom</text></g><g id="room_common_room"><polygon fill="rgb(255,215,0)" fill-opacity="0.7" points="480.15625,346.40625 480.15625,456.09375 583.515625,456.09375 583.515625,346.40625" stroke="black" stroke-width="1.5" /><text dominant-baseline="middle" fill="black" font-family="Arial" font-size="12px" font-weight="bold" text-anchor="middle" x="532.890625" y="402.3046875">Common Room</text></g><g id="room_common_room_2"><polygon fill="rgb(255,215,0)" fill-opacity="0.7" points="239.6875,160.78125 239.6875,253.59375 298.75,253.59375 298.75,274.6875 330.390625,274.6875 330.390625,160.78125" stroke="black" stroke-width="1.5" /><text dominant-baseline="middle" fill="black" font-family="Arial" font-size="12px" font-weight="bold" text-anchor="middle" x="286.09375" y="218.7890625">Common Room 2</text></g><g id="room_kitchen"><polygon fill="rgb(240,128,128)" fill-opacity="0.7" points="433.75,97.5 433.75,190.3125 497.03125,190.3125 497.03125,97.5" stroke="black" stroke-width="1.5" /><text dominant-baseline="middle" fill="black" font-family="Arial" font-size="12px" font-weight="bold" text-anchor="middle" x="466.4453125" y="144.9609375">Kitchen</text></g><g id="room_bathroom"><polygon fill="rgb(173,216,230)" fill-opacity="0.7" points="216.484375,266.25 216.484375,327.421875 290.3125,327.421875 290.3125,266.25" stroke="black" stroke-width="1.5" /><text dominant-baseline="middle" fill="black" font-family="Arial" font-size="12px" font-weight="bold" text-anchor="middle" x="254.453125" y="297.890625">Bathroom</text></g><g id="room_balcony"><polygon fill="rgb(107,142,35)" fill-opacity="0.7" points="343.046875,139.6875 343.046875,190.3125 421.09375,190.3125 421.09375,139.6875" stroke="black" stroke-width="1.5" /><text dominant-baseline="middle" fill="black" font-family="Arial" font-size="12px" font-weight="bold" text-anchor="middle" x="383.125" y="166.0546875">Balcony</text></g><rect fill="red" fill-opacity="0.9" height="31.640625" id="main_door" stroke="darkred" stroke-width="3" width="10.546875" x="446.40625" y="236.71875" /><text dominant-baseline="middle" fill="white" font-family="Arial" font-size="9px" font-weight="bold" text-anchor="middle" x="451.6796875" y="252.5390625">Main Door</text><text fill="black" font-family="Arial" font-size="18px" font-weight="bold" text-anchor="middle" x="400.0" y="30">Floor Plan - ID: 62271</text></svg>