<?xml version="1.0" encoding="utf-8" ?>
<svg baseProfile="full" height="600px" version="1.1" viewBox="0 0 800 600" width="800px" xmlns="http://www.w3.org/2000/svg" xmlns:ev="http://www.w3.org/2001/xml-events" xmlns:xlink="http://www.w3.org/1999/xlink"><defs /><rect fill="white" height="600" width="800" x="0" y="0" /><polygon fill="none" id="floor_plan_boundary" points="229.140625,160.78125 229.140625,428.671875 336.71875,428.671875 338.828125,439.21875 452.734375,439.21875 454.84375,428.671875 570.859375,428.671875 570.859375,291.5625 427.421875,293.671875 564.53125,295.78125 564.53125,424.453125 448.515625,424.453125 446.40625,435.0 345.15625,435.0 343.046875,424.453125 235.46875,424.453125 233.359375,167.109375 425.3125,165.0 431.640625,264.140625 431.640625,160.78125" stroke="black" stroke-linecap="butt" stroke-linejoin="miter" stroke-width="4" /><g id="room_living_room"><polygon fill="rgb(238,232,170)" fill-opacity="0.7" points="345.15625,228.28125 345.15625,422.34375 446.40625,422.34375 446.40625,297.890625 425.3125,295.78125 425.3125,228.28125" stroke="black" stroke-width="1.5" /><text dominant-baseline="middle" fill="black" font-family="Arial" font-size="12px" font-weight="bold" text-anchor="middle" x="396.8359375" y="326.3671875">Living Room</text></g><g id="room_master_bedroom"><polygon fill="rgb(255,165,0)" fill-opacity="0.7" points="454.84375,297.890625 454.84375,422.34375 564.53125,422.34375 564.53125,297.890625" stroke="black" stroke-width="1.5" /><text dominant-baseline="middle" fill="black" font-family="Arial" font-size="12px" font-weight="bold" text-anchor="middle" x="510.7421875" y="361.171875">Master Bedroom</text></g><g id="room_master_bedroom_2"><polygon fill="rgb(255,165,0)" fill-opacity="0.7" points="235.46875,297.890625 235.46875,422.34375 336.71875,422.34375 336.71875,297.890625" stroke="black" stroke-width="1.5" /><text dominant-baseline="middle" fill="black" font-family="Arial" font-size="12px" font-weight="bold" text-anchor="middle" x="287.1484375" y="361.171875">Master Bedroom 2</text></g><g id="room_common_room"><polygon fill="rgb(255,215,0)" fill-opacity="0.7" points="235.46875,167.109375 235.46875,243.046875 336.71875,243.046875 336.71875,167.109375" stroke="black" stroke-width="1.5" /><text dominant-baseline="middle" fill="black" font-family="Arial" font-size="12px" font-weight="bold" text-anchor="middle" x="287.1484375" y="206.1328125">Common Room</text></g><g id="room_kitchen"><polygon fill="rgb(240,128,128)" fill-opacity="0.7" points="345.15625,167.109375 345.15625,219.84375 425.3125,219.84375 425.3125,167.109375" stroke="black" stroke-width="1.5" /><text dominant-baseline="middle" fill="black" font-family="Arial" font-size="12px" font-weight="bold" text-anchor="middle" x="386.2890625" y="194.53125">Kitchen</text></g><g id="room_bathroom"><polygon fill="rgb(173,216,230)" fill-opacity="0.7" points="235.46875,251.484375 235.46875,289.453125 336.71875,289.453125 336.71875,251.484375" stroke="black" stroke-width="1.5" /><text dominant-baseline="middle" fill="black" font-family="Arial" font-size="12px" font-weight="bold" text-anchor="middle" x="287.1484375" y="271.5234375">Bathroom</text></g><rect fill="red" fill-opacity="0.9" height="27.421875" id="main_door" stroke="darkred" stroke-width="3" width="6.328125" x="427.421875" y="266.25" /><text dominant-baseline="middle" fill="white" font-family="Arial" font-size="9px" font-weight="bold" text-anchor="middle" x="430.5859375" y="279.9609375">Main Door</text><text fill="black" font-family="Arial" font-size="18px" font-weight="bold" text-anchor="middle" x="400.0" y="30">Floor Plan - ID: 62606</text></svg>