<?xml version="1.0" encoding="utf-8" ?>
<svg baseProfile="full" height="600px" version="1.1" viewBox="0 0 800 600" width="800px" xmlns="http://www.w3.org/2000/svg" xmlns:ev="http://www.w3.org/2001/xml-events" xmlns:xlink="http://www.w3.org/1999/xlink"><defs /><rect fill="white" height="600" width="800" x="0" y="0" /><polygon fill="none" id="floor_plan_boundary" points="229.140625,156.5625 229.140625,285.234375 273.4375,287.34375 273.4375,437.109375 516.015625,445.546875 518.125,266.25 570.859375,264.140625 570.859375,156.5625 389.453125,156.5625 389.453125,165.0 562.421875,167.109375 562.421875,253.59375 509.6875,255.703125 509.6875,441.328125 391.5625,441.328125 389.453125,428.671875 281.875,426.5625 281.875,276.796875 237.578125,274.6875 237.578125,167.109375 355.703125,165.0 355.703125,156.5625" stroke="black" stroke-linecap="butt" stroke-linejoin="miter" stroke-width="4" /><g id="room_living_room"><polygon fill="rgb(238,232,170)" fill-opacity="0.7" points="353.59375,167.109375 353.59375,283.125 391.5625,287.34375 391.5625,388.59375 507.578125,388.59375 507.578125,266.25 450.625,264.140625 450.625,167.109375" stroke="black" stroke-width="1.5" /><text dominant-baseline="middle" fill="black" font-family="Arial" font-size="12px" font-weight="bold" text-anchor="middle" x="431.640625" y="278.90625">Living Room</text></g><g id="room_master_bedroom"><polygon fill="rgb(255,165,0)" fill-opacity="0.7" points="381.015625,291.5625 353.59375,291.5625 355.703125,325.3125 283.984375,325.3125 283.984375,426.5625 378.90625,426.5625" stroke="black" stroke-width="1.5" /><text dominant-baseline="middle" fill="black" font-family="Arial" font-size="12px" font-weight="bold" text-anchor="middle" x="333.5546875" y="360.1171875">Master Bedroom</text></g><g id="room_common_room"><polygon fill="rgb(255,215,0)" fill-opacity="0.7" points="463.28125,167.109375 463.28125,253.59375 560.3125,253.59375 560.3125,167.109375" stroke="black" stroke-width="1.5" /><text dominant-baseline="middle" fill="black" font-family="Arial" font-size="12px" font-weight="bold" text-anchor="middle" x="512.8515625" y="211.40625">Common Room</text></g><g id="room_kitchen"><polygon fill="rgb(240,128,128)" fill-opacity="0.7" points="239.6875,167.109375 239.6875,221.953125 345.15625,224.0625 345.15625,167.109375" stroke="black" stroke-width="1.5" /><text dominant-baseline="middle" fill="black" font-family="Arial" font-size="12px" font-weight="bold" text-anchor="middle" x="293.4765625" y="196.640625">Kitchen</text></g><g id="room_bathroom"><polygon fill="rgb(173,216,230)" fill-opacity="0.7" points="283.984375,232.5 283.984375,312.65625 343.046875,312.65625 345.15625,232.5" stroke="black" stroke-width="1.5" /><text dominant-baseline="middle" fill="black" font-family="Arial" font-size="12px" font-weight="bold" text-anchor="middle" x="315.625" y="273.6328125">Bathroom</text></g><g id="room_balcony"><polygon fill="rgb(107,142,35)" fill-opacity="0.7" points="391.5625,401.25 391.5625,439.21875 509.6875,439.21875 509.6875,401.25" stroke="black" stroke-width="1.5" /><text dominant-baseline="middle" fill="black" font-family="Arial" font-size="12px" font-weight="bold" text-anchor="middle" x="451.6796875" y="421.2890625">Balcony</text></g><g id="room_balcony_2"><polygon fill="rgb(107,142,35)" fill-opacity="0.7" points="239.6875,234.609375 239.6875,274.6875 271.328125,274.6875 271.328125,234.609375" stroke="black" stroke-width="1.5" /><text dominant-baseline="middle" fill="black" font-family="Arial" font-size="12px" font-weight="bold" text-anchor="middle" x="256.5625" y="255.703125">Balcony 2</text></g><rect fill="red" fill-opacity="0.9" height="10.546875" id="main_door" stroke="darkred" stroke-width="3" width="31.640625" x="357.8125" y="156.5625" /><text dominant-baseline="middle" fill="white" font-family="Arial" font-size="9px" font-weight="bold" text-anchor="middle" x="373.6328125" y="161.8359375">Main Door</text><text fill="black" font-family="Arial" font-size="18px" font-weight="bold" text-anchor="middle" x="400.0" y="30">Floor Plan - ID: 6270</text></svg>