<?xml version="1.0" encoding="utf-8" ?>
<svg baseProfile="full" height="600px" version="1.1" viewBox="0 0 800 600" width="800px" xmlns="http://www.w3.org/2000/svg" xmlns:ev="http://www.w3.org/2001/xml-events" xmlns:xlink="http://www.w3.org/1999/xlink"><defs /><rect fill="white" height="600" width="800" x="0" y="0" /><polygon fill="none" id="floor_plan_boundary" points="222.8125,135.46875 222.8125,420.234375 351.484375,420.234375 353.59375,464.53125 478.046875,464.53125 478.046875,293.671875 518.125,287.34375 473.828125,287.34375 471.71875,460.3125 359.921875,460.3125 357.8125,416.015625 227.03125,413.90625 227.03125,141.796875 570.859375,139.6875 572.96875,221.953125 520.234375,224.0625 524.453125,266.25 526.5625,228.28125 577.1875,228.28125 577.1875,135.46875" stroke="black" stroke-linecap="butt" stroke-linejoin="miter" stroke-width="4" /><g id="room_living_room"><polygon fill="rgb(238,232,170)" fill-opacity="0.7" points="359.921875,177.65625 359.921875,228.28125 307.1875,230.390625 307.1875,295.78125 359.921875,297.890625 359.921875,413.90625 471.71875,413.90625 471.71875,287.34375 518.125,285.234375 518.125,230.390625 471.71875,228.28125 471.71875,177.65625" stroke="black" stroke-width="1.5" /><text dominant-baseline="middle" fill="black" font-family="Arial" font-size="12px" font-weight="bold" text-anchor="middle" x="413.7109375" y="296.8359375">Living Room</text></g><g id="room_master_bedroom"><polygon fill="rgb(255,165,0)" fill-opacity="0.7" points="229.140625,304.21875 229.140625,413.90625 351.484375,413.90625 351.484375,304.21875" stroke="black" stroke-width="1.5" /><text dominant-baseline="middle" fill="black" font-family="Arial" font-size="12px" font-weight="bold" text-anchor="middle" x="291.3671875" y="360.1171875">Master Bedroom</text></g><g id="room_common_room_2"><polygon fill="rgb(255,215,0)" fill-opacity="0.7" points="229.140625,141.796875 229.140625,221.953125 351.484375,221.953125 351.484375,141.796875" stroke="black" stroke-width="1.5" /><text dominant-baseline="middle" fill="black" font-family="Arial" font-size="12px" font-weight="bold" text-anchor="middle" x="291.3671875" y="182.9296875">Common Room 2</text></g><g id="room_common_room"><polygon fill="rgb(255,215,0)" fill-opacity="0.7" points="480.15625,141.796875 480.15625,221.953125 570.859375,221.953125 570.859375,141.796875" stroke="black" stroke-width="1.5" /><text dominant-baseline="middle" fill="black" font-family="Arial" font-size="12px" font-weight="bold" text-anchor="middle" x="526.5625" y="182.9296875">Common Room</text></g><g id="room_bathroom"><polygon fill="rgb(173,216,230)" fill-opacity="0.7" points="229.140625,230.390625 229.140625,295.78125 298.75,295.78125 298.75,230.390625" stroke="black" stroke-width="1.5" /><text dominant-baseline="middle" fill="black" font-family="Arial" font-size="12px" font-weight="bold" text-anchor="middle" x="265.0" y="264.140625">Bathroom</text></g><g id="room_balcony"><polygon fill="rgb(107,142,35)" fill-opacity="0.7" points="359.921875,422.34375 359.921875,458.203125 471.71875,458.203125 471.71875,422.34375" stroke="black" stroke-width="1.5" /><text dominant-baseline="middle" fill="black" font-family="Arial" font-size="12px" font-weight="bold" text-anchor="middle" x="416.875" y="441.328125">Balcony</text></g><g id="room_kitchen"><polygon fill="rgb(240,128,128)" fill-opacity="0.7" points="359.921875,141.796875 359.921875,169.21875 471.71875,169.21875 471.71875,141.796875" stroke="black" stroke-width="1.5" /><text dominant-baseline="middle" fill="black" font-family="Arial" font-size="12px" font-weight="bold" text-anchor="middle" x="416.875" y="156.5625">Kitchen</text></g><text fill="black" font-family="Arial" font-size="18px" font-weight="bold" text-anchor="middle" x="400.0" y="30">Floor Plan - ID: 63138</text></svg>