<?xml version="1.0" encoding="utf-8" ?>
<svg baseProfile="full" height="600px" version="1.1" viewBox="0 0 800 600" width="800px" xmlns="http://www.w3.org/2000/svg" xmlns:ev="http://www.w3.org/2001/xml-events" xmlns:xlink="http://www.w3.org/1999/xlink"><defs /><rect fill="white" height="600" width="800" x="0" y="0" /><polygon fill="none" id="floor_plan_boundary" points="189.0625,213.515625 189.0625,276.796875 305.078125,276.796875 307.1875,340.078125 362.03125,340.078125 311.40625,333.75 311.40625,272.578125 195.390625,272.578125 195.390625,217.734375 311.40625,217.734375 313.515625,192.421875 570.859375,192.421875 572.96875,291.5625 606.71875,293.671875 606.71875,405.46875 414.765625,407.578125 408.4375,335.859375 408.4375,411.796875 610.9375,411.796875 610.9375,287.34375 577.1875,285.234375 577.1875,188.203125 307.1875,188.203125 305.078125,213.515625" stroke="black" stroke-linecap="butt" stroke-linejoin="miter" stroke-width="4" /><g id="room_living_room"><polygon fill="rgb(238,232,170)" fill-opacity="0.7" points="313.515625,255.703125 313.515625,333.75 412.65625,333.75 414.765625,405.46875 570.859375,405.46875 570.859375,293.671875 370.46875,291.5625 368.359375,255.703125" stroke="black" stroke-width="1.5" /><text dominant-baseline="middle" fill="black" font-family="Arial" font-size="12px" font-weight="bold" text-anchor="middle" x="443.2421875" y="331.640625">Living Room</text></g><g id="room_master_bedroom"><polygon fill="rgb(255,165,0)" fill-opacity="0.7" points="423.203125,194.53125 423.203125,285.234375 570.859375,285.234375 570.859375,194.53125" stroke="black" stroke-width="1.5" /><text dominant-baseline="middle" fill="black" font-family="Arial" font-size="12px" font-weight="bold" text-anchor="middle" x="498.0859375" y="240.9375">Master Bedroom</text></g><g id="room_common_room"><polygon fill="rgb(255,215,0)" fill-opacity="0.7" points="195.390625,219.84375 195.390625,270.46875 305.078125,270.46875 305.078125,219.84375" stroke="black" stroke-width="1.5" /><text dominant-baseline="middle" fill="black" font-family="Arial" font-size="12px" font-weight="bold" text-anchor="middle" x="251.2890625" y="246.2109375">Common Room</text></g><g id="room_bathroom"><polygon fill="rgb(173,216,230)" fill-opacity="0.7" points="376.796875,194.53125 376.796875,283.125 414.765625,283.125 414.765625,194.53125" stroke="black" stroke-width="1.5" /><text dominant-baseline="middle" fill="black" font-family="Arial" font-size="12px" font-weight="bold" text-anchor="middle" x="396.8359375" y="239.8828125">Bathroom</text></g><g id="room_kitchen"><polygon fill="rgb(240,128,128)" fill-opacity="0.7" points="313.515625,194.53125 313.515625,247.265625 368.359375,247.265625 368.359375,194.53125" stroke="black" stroke-width="1.5" /><text dominant-baseline="middle" fill="black" font-family="Arial" font-size="12px" font-weight="bold" text-anchor="middle" x="341.9921875" y="221.953125">Kitchen</text></g><g id="room_balcony"><polygon fill="rgb(107,142,35)" fill-opacity="0.7" points="579.296875,293.671875 579.296875,405.46875 604.609375,405.46875 604.609375,293.671875" stroke="black" stroke-width="1.5" /><text dominant-baseline="middle" fill="black" font-family="Arial" font-size="12px" font-weight="bold" text-anchor="middle" x="593.0078125" y="350.625">Balcony</text></g><rect fill="red" fill-opacity="0.9" height="6.328125" id="main_door" stroke="darkred" stroke-width="3" width="44.296875" x="364.140625" y="335.859375" /><text dominant-baseline="middle" fill="white" font-family="Arial" font-size="9px" font-weight="bold" text-anchor="middle" x="386.2890625" y="339.0234375">Main Door</text><text fill="black" font-family="Arial" font-size="18px" font-weight="bold" text-anchor="middle" x="400.0" y="30">Floor Plan - ID: 63632</text></svg>