<?xml version="1.0" encoding="utf-8" ?>
<svg baseProfile="full" height="600px" version="1.1" viewBox="0 0 800 600" width="800px" xmlns="http://www.w3.org/2000/svg" xmlns:ev="http://www.w3.org/2001/xml-events" xmlns:xlink="http://www.w3.org/1999/xlink"><defs /><rect fill="white" height="600" width="800" x="0" y="0" /><polygon fill="none" id="floor_plan_boundary" points="302.96875,146.015625 302.96875,327.421875 233.359375,329.53125 233.359375,453.984375 440.078125,453.984375 237.578125,447.65625 237.578125,335.859375 307.1875,333.75 309.296875,150.234375 412.65625,150.234375 414.765625,183.984375 530.78125,186.09375 530.78125,380.15625 562.421875,382.265625 562.421875,447.65625 465.390625,453.984375 566.640625,453.984375 566.640625,375.9375 535.0,373.828125 535.0,179.765625 421.09375,179.765625 418.984375,146.015625" stroke="black" stroke-linecap="butt" stroke-linejoin="miter" stroke-width="4" /><g id="room_living_room"><polygon fill="rgb(238,232,170)" fill-opacity="0.7" points="459.0625,310.546875 376.796875,310.546875 374.6875,335.859375 239.6875,335.859375 239.6875,447.65625 459.0625,447.65625" stroke="black" stroke-width="1.5" /><text dominant-baseline="middle" fill="black" font-family="Arial" font-size="12px" font-weight="bold" text-anchor="middle" x="350.4296875" y="380.15625">Living Room</text></g><g id="room_master_bedroom"><polygon fill="rgb(255,165,0)" fill-opacity="0.7" points="421.09375,186.09375 421.09375,302.109375 528.671875,302.109375 528.671875,186.09375" stroke="black" stroke-width="1.5" /><text dominant-baseline="middle" fill="black" font-family="Arial" font-size="12px" font-weight="bold" text-anchor="middle" x="475.9375" y="245.15625">Master Bedroom</text></g><g id="room_common_room"><polygon fill="rgb(255,215,0)" fill-opacity="0.7" points="309.296875,186.09375 309.296875,281.015625 374.6875,281.015625 376.796875,302.109375 412.65625,302.109375 412.65625,186.09375" stroke="black" stroke-width="1.5" /><text dominant-baseline="middle" fill="black" font-family="Arial" font-size="12px" font-weight="bold" text-anchor="middle" x="362.03125" y="245.15625">Common Room</text></g><g id="room_kitchen"><polygon fill="rgb(240,128,128)" fill-opacity="0.7" points="467.5,382.265625 467.5,447.65625 560.3125,447.65625 560.3125,382.265625" stroke="black" stroke-width="1.5" /><text dominant-baseline="middle" fill="black" font-family="Arial" font-size="12px" font-weight="bold" text-anchor="middle" x="514.9609375" y="416.015625">Kitchen</text></g><g id="room_bathroom"><polygon fill="rgb(173,216,230)" fill-opacity="0.7" points="467.5,310.546875 467.5,373.828125 528.671875,373.828125 528.671875,310.546875" stroke="black" stroke-width="1.5" /><text dominant-baseline="middle" fill="black" font-family="Arial" font-size="12px" font-weight="bold" text-anchor="middle" x="499.140625" y="343.2421875">Bathroom</text></g><g id="room_balcony_2"><polygon fill="rgb(107,142,35)" fill-opacity="0.7" points="309.296875,152.34375 309.296875,177.65625 412.65625,177.65625 412.65625,152.34375" stroke="black" stroke-width="1.5" /><text dominant-baseline="middle" fill="black" font-family="Arial" font-size="12px" font-weight="bold" text-anchor="middle" x="362.03125" y="166.0546875">Balcony 2</text></g><g id="room_balcony"><polygon fill="rgb(107,142,35)" fill-opacity="0.7" points="309.296875,289.453125 309.296875,327.421875 368.359375,327.421875 368.359375,289.453125" stroke="black" stroke-width="1.5" /><text dominant-baseline="middle" fill="black" font-family="Arial" font-size="12px" font-weight="bold" text-anchor="middle" x="339.8828125" y="309.4921875">Balcony</text></g><text fill="black" font-family="Arial" font-size="18px" font-weight="bold" text-anchor="middle" x="400.0" y="30">Floor Plan - ID: 63643</text></svg>