<?xml version="1.0" encoding="utf-8" ?>
<svg baseProfile="full" height="600px" version="1.1" viewBox="0 0 800 600" width="800px" xmlns="http://www.w3.org/2000/svg" xmlns:ev="http://www.w3.org/2001/xml-events" xmlns:xlink="http://www.w3.org/1999/xlink"><defs /><rect fill="white" height="600" width="800" x="0" y="0" /><polygon fill="none" id="floor_plan_boundary" points="292.421875,118.59375 292.421875,401.25 252.34375,403.359375 252.34375,481.40625 440.078125,481.40625 440.078125,236.71875 473.828125,230.390625 435.859375,230.390625 435.859375,475.078125 256.5625,475.078125 256.5625,409.6875 296.640625,407.578125 296.640625,124.921875 541.328125,122.8125 543.4375,190.3125 475.9375,192.421875 480.15625,211.40625 482.265625,196.640625 547.65625,196.640625 547.65625,118.59375" stroke="black" stroke-linecap="butt" stroke-linejoin="miter" stroke-width="4" /><g id="room_master_bedroom"><polygon fill="rgb(255,165,0)" fill-opacity="0.7" points="298.75,308.4375 298.75,432.890625 433.75,432.890625 433.75,308.4375" stroke="black" stroke-width="1.5" /><text dominant-baseline="middle" fill="black" font-family="Arial" font-size="12px" font-weight="bold" text-anchor="middle" x="367.3046875" y="371.71875">Master Bedroom</text></g><g id="room_living_room"><polygon fill="rgb(238,232,170)" fill-opacity="0.7" points="298.75,300.0 433.75,300.0 433.75,230.390625 473.828125,228.28125 473.828125,198.75 298.75,198.75" stroke="black" stroke-width="1.5" /><text dominant-baseline="middle" fill="black" font-family="Arial" font-size="12px" font-weight="bold" text-anchor="middle" x="387.34375" y="250.4296875">Living Room</text></g><g id="room_balcony"><polygon fill="rgb(107,142,35)" fill-opacity="0.7" points="258.671875,409.6875 258.671875,475.078125 433.75,475.078125 433.75,441.328125 292.421875,441.328125 290.3125,409.6875" stroke="black" stroke-width="1.5" /><text dominant-baseline="middle" fill="black" font-family="Arial" font-size="12px" font-weight="bold" text-anchor="middle" x="347.265625" y="443.4375">Balcony</text></g><g id="room_common_room"><polygon fill="rgb(255,215,0)" fill-opacity="0.7" points="442.1875,124.921875 442.1875,190.3125 541.328125,190.3125 541.328125,124.921875" stroke="black" stroke-width="1.5" /><text dominant-baseline="middle" fill="black" font-family="Arial" font-size="12px" font-weight="bold" text-anchor="middle" x="492.8125" y="158.671875">Common Room</text></g><g id="room_kitchen"><polygon fill="rgb(240,128,128)" fill-opacity="0.7" points="368.359375,124.921875 368.359375,190.3125 433.75,190.3125 433.75,124.921875" stroke="black" stroke-width="1.5" /><text dominant-baseline="middle" fill="black" font-family="Arial" font-size="12px" font-weight="bold" text-anchor="middle" x="402.109375" y="158.671875">Kitchen</text></g><g id="room_bathroom"><polygon fill="rgb(173,216,230)" fill-opacity="0.7" points="298.75,124.921875 298.75,190.3125 359.921875,190.3125 359.921875,124.921875" stroke="black" stroke-width="1.5" /><text dominant-baseline="middle" fill="black" font-family="Arial" font-size="12px" font-weight="bold" text-anchor="middle" x="330.390625" y="158.671875">Bathroom</text></g><text fill="black" font-family="Arial" font-size="18px" font-weight="bold" text-anchor="middle" x="400.0" y="30">Floor Plan - ID: 64335</text></svg>