<?xml version="1.0" encoding="utf-8" ?>
<svg baseProfile="full" height="600px" version="1.1" viewBox="0 0 800 600" width="800px" xmlns="http://www.w3.org/2000/svg" xmlns:ev="http://www.w3.org/2001/xml-events" xmlns:xlink="http://www.w3.org/1999/xlink"><defs /><rect fill="white" height="600" width="800" x="0" y="0" /><polygon fill="none" id="floor_plan_boundary" points="239.6875,181.875 239.6875,435.0 362.03125,435.0 364.140625,413.90625 446.40625,413.90625 448.515625,432.890625 560.3125,432.890625 560.3125,188.203125 511.796875,188.203125 509.6875,165.0 351.484375,165.0 503.359375,169.21875 505.46875,192.421875 556.09375,194.53125 553.984375,428.671875 454.84375,428.671875 452.734375,409.6875 357.8125,409.6875 355.703125,430.78125 246.015625,430.78125 243.90625,188.203125 290.3125,186.09375 292.421875,169.21875 321.953125,165.0 286.09375,165.0 283.984375,181.875" stroke="black" stroke-linecap="butt" stroke-linejoin="miter" stroke-width="4" /><g id="room_living_room"><polygon fill="rgb(238,232,170)" fill-opacity="0.7" points="246.015625,375.9375 355.703125,375.9375 357.8125,278.90625 482.265625,278.90625 482.265625,251.484375 357.8125,251.484375 364.140625,171.328125 292.421875,171.328125 290.3125,188.203125 246.015625,188.203125" stroke="black" stroke-width="1.5" /><text dominant-baseline="middle" fill="black" font-family="Arial" font-size="12px" font-weight="bold" text-anchor="middle" x="365.1953125" y="274.6875">Living Room</text></g><g id="room_master_bedroom"><polygon fill="rgb(255,165,0)" fill-opacity="0.7" points="454.84375,287.34375 454.84375,426.5625 553.984375,426.5625 553.984375,314.765625 484.375,314.765625 482.265625,287.34375" stroke="black" stroke-width="1.5" /><text dominant-baseline="middle" fill="black" font-family="Arial" font-size="12px" font-weight="bold" text-anchor="middle" x="505.46875" y="358.0078125">Master Bedroom</text></g><g id="room_common_room"><polygon fill="rgb(255,215,0)" fill-opacity="0.7" points="364.140625,287.34375 364.140625,407.578125 446.40625,407.578125 446.40625,287.34375" stroke="black" stroke-width="1.5" /><text dominant-baseline="middle" fill="black" font-family="Arial" font-size="12px" font-weight="bold" text-anchor="middle" x="406.328125" y="348.515625">Common Room</text></g><g id="room_common_room_2"><polygon fill="rgb(255,215,0)" fill-opacity="0.7" points="511.796875,194.53125 511.796875,249.375 490.703125,251.484375 490.703125,306.328125 553.984375,306.328125 553.984375,194.53125" stroke="black" stroke-width="1.5" /><text dominant-baseline="middle" fill="black" font-family="Arial" font-size="12px" font-weight="bold" text-anchor="middle" x="523.3984375" y="251.484375">Common Room 2</text></g><g id="room_balcony"><polygon fill="rgb(107,142,35)" fill-opacity="0.7" points="246.015625,384.375 246.015625,428.671875 355.703125,428.671875 355.703125,384.375" stroke="black" stroke-width="1.5" /><text dominant-baseline="middle" fill="black" font-family="Arial" font-size="12px" font-weight="bold" text-anchor="middle" x="301.9140625" y="407.578125">Balcony</text></g><g id="room_kitchen"><polygon fill="rgb(240,128,128)" fill-opacity="0.7" points="372.578125,171.328125 372.578125,215.625 364.140625,217.734375 364.140625,243.046875 433.75,243.046875 433.75,171.328125" stroke="black" stroke-width="1.5" /><text dominant-baseline="middle" fill="black" font-family="Arial" font-size="12px" font-weight="bold" text-anchor="middle" x="400.0" y="208.2421875">Kitchen</text></g><g id="room_bathroom"><polygon fill="rgb(173,216,230)" fill-opacity="0.7" points="442.1875,171.328125 442.1875,243.046875 503.359375,243.046875 503.359375,171.328125" stroke="black" stroke-width="1.5" /><text dominant-baseline="middle" fill="black" font-family="Arial" font-size="12px" font-weight="bold" text-anchor="middle" x="473.828125" y="208.2421875">Bathroom</text></g><rect fill="red" fill-opacity="0.9" height="6.328125" id="main_door" stroke="darkred" stroke-width="3" width="27.421875" x="324.0625" y="165.0" /><text dominant-baseline="middle" fill="white" font-family="Arial" font-size="9px" font-weight="bold" text-anchor="middle" x="337.7734375" y="168.1640625">Main Door</text><text fill="black" font-family="Arial" font-size="18px" font-weight="bold" text-anchor="middle" x="400.0" y="30">Floor Plan - ID: 64389</text></svg>