<?xml version="1.0" encoding="utf-8" ?>
<svg baseProfile="full" height="600px" version="1.1" viewBox="0 0 800 600" width="800px" xmlns="http://www.w3.org/2000/svg" xmlns:ev="http://www.w3.org/2001/xml-events" xmlns:xlink="http://www.w3.org/1999/xlink"><defs /><rect fill="white" height="600" width="800" x="0" y="0" /><polygon fill="none" id="floor_plan_boundary" points="570.859375,137.578125 423.203125,137.578125 421.09375,173.4375 246.015625,173.4375 246.015625,221.953125 229.140625,224.0625 229.140625,306.328125 275.546875,308.4375 275.546875,373.828125 258.671875,375.9375 258.671875,428.671875 340.9375,428.671875 343.046875,409.6875 391.5625,409.6875 393.671875,462.421875 488.59375,462.421875 488.59375,411.796875 516.015625,409.6875 516.015625,308.4375 570.859375,306.328125 570.859375,300.0 507.578125,297.890625 507.578125,399.140625 480.15625,401.25 478.046875,453.984375 404.21875,453.984375 402.109375,401.25 332.5,401.25 330.390625,420.234375 269.21875,420.234375 267.109375,386.484375 283.984375,384.375 283.984375,297.890625 237.578125,295.78125 237.578125,234.609375 254.453125,232.5 256.5625,181.875 431.640625,181.875 433.75,146.015625 560.3125,146.015625 562.421875,257.8125 570.859375,257.8125" stroke="black" stroke-linecap="butt" stroke-linejoin="miter" stroke-width="4" /><g id="room_living_room"><polygon fill="rgb(238,232,170)" fill-opacity="0.7" points="416.875,183.984375 416.875,245.15625 353.59375,247.265625 353.59375,276.796875 391.5625,278.90625 391.5625,399.140625 505.46875,399.140625 505.46875,297.890625 560.3125,295.78125 560.3125,247.265625 507.578125,245.15625 507.578125,183.984375" stroke="black" stroke-width="1.5" /><text dominant-baseline="middle" fill="black" font-family="Arial" font-size="12px" font-weight="bold" text-anchor="middle" x="458.0078125" y="292.6171875">Living Room</text></g><g id="room_master_bedroom"><polygon fill="rgb(255,165,0)" fill-opacity="0.7" points="286.09375,289.453125 286.09375,384.375 269.21875,386.484375 269.21875,418.125 330.390625,418.125 332.5,399.140625 378.90625,399.140625 378.90625,289.453125" stroke="black" stroke-width="1.5" /><text dominant-baseline="middle" fill="black" font-family="Arial" font-size="12px" font-weight="bold" text-anchor="middle" x="325.1171875" y="354.84375">Master Bedroom</text></g><g id="room_common_room"><polygon fill="rgb(255,215,0)" fill-opacity="0.7" points="256.5625,183.984375 256.5625,232.5 239.6875,234.609375 239.6875,295.78125 273.4375,295.78125 275.546875,276.796875 345.15625,276.796875 345.15625,183.984375" stroke="black" stroke-width="1.5" /><text dominant-baseline="middle" fill="black" font-family="Arial" font-size="12px" font-weight="bold" text-anchor="middle" x="293.4765625" y="240.9375">Common Room</text></g><g id="room_kitchen"><polygon fill="rgb(240,128,128)" fill-opacity="0.7" points="518.125,148.125 516.015625,238.828125 560.3125,238.828125 560.3125,148.125" stroke="black" stroke-width="1.5" /><text dominant-baseline="middle" fill="black" font-family="Arial" font-size="12px" font-weight="bold" text-anchor="middle" x="539.21875" y="194.53125">Kitchen</text></g><g id="room_balcony"><polygon fill="rgb(107,142,35)" fill-opacity="0.7" points="404.21875,411.796875 404.21875,451.875 478.046875,451.875 478.046875,411.796875" stroke="black" stroke-width="1.5" /><text dominant-baseline="middle" fill="black" font-family="Arial" font-size="12px" font-weight="bold" text-anchor="middle" x="442.1875" y="432.890625">Balcony</text></g><g id="room_bathroom"><polygon fill="rgb(173,216,230)" fill-opacity="0.7" points="353.59375,183.984375 353.59375,238.828125 404.21875,238.828125 404.21875,183.984375" stroke="black" stroke-width="1.5" /><text dominant-baseline="middle" fill="black" font-family="Arial" font-size="12px" font-weight="bold" text-anchor="middle" x="379.9609375" y="212.4609375">Bathroom</text></g><g id="room_balcony_2"><polygon fill="rgb(107,142,35)" fill-opacity="0.7" points="433.75,148.125 433.75,171.328125 505.46875,171.328125 505.46875,148.125" stroke="black" stroke-width="1.5" /><text dominant-baseline="middle" fill="black" font-family="Arial" font-size="12px" font-weight="bold" text-anchor="middle" x="470.6640625" y="160.78125">Balcony 2</text></g><rect fill="red" fill-opacity="0.9" height="40.078125" id="main_door" stroke="darkred" stroke-width="3" width="10.546875" x="562.421875" y="259.921875" /><text dominant-baseline="middle" fill="white" font-family="Arial" font-size="9px" font-weight="bold" text-anchor="middle" x="567.6953125" y="279.9609375">Main Door</text><text fill="black" font-family="Arial" font-size="18px" font-weight="bold" text-anchor="middle" x="400.0" y="30">Floor Plan - ID: 64637</text></svg>