<?xml version="1.0" encoding="utf-8" ?>
<svg baseProfile="full" height="600px" version="1.1" viewBox="0 0 800 600" width="800px" xmlns="http://www.w3.org/2000/svg" xmlns:ev="http://www.w3.org/2001/xml-events" xmlns:xlink="http://www.w3.org/1999/xlink"><defs /><rect fill="white" height="600" width="800" x="0" y="0" /><polygon fill="none" id="floor_plan_boundary" points="248.125,154.453125 248.125,287.34375 220.703125,289.453125 220.703125,445.546875 229.140625,445.546875 229.140625,300.0 256.5625,297.890625 258.671875,162.890625 338.828125,162.890625 340.9375,190.3125 541.328125,190.3125 543.4375,293.671875 570.859375,295.78125 568.75,405.46875 262.890625,403.359375 267.109375,445.546875 273.4375,411.796875 579.296875,409.6875 579.296875,285.234375 551.875,283.125 551.875,181.875 351.484375,181.875 349.375,154.453125" stroke="black" stroke-linecap="butt" stroke-linejoin="miter" stroke-width="4" /><g id="room_living_room"><polygon fill="rgb(238,232,170)" fill-opacity="0.7" points="231.25,365.390625 231.25,435.0 260.78125,435.0 262.890625,401.25 522.34375,401.25 522.34375,295.78125 418.984375,293.671875 416.875,228.28125 349.375,228.28125 349.375,251.484375 393.671875,253.59375 393.671875,312.65625 324.0625,314.765625 324.0625,365.390625" stroke="black" stroke-width="1.5" /><text dominant-baseline="middle" fill="black" font-family="Arial" font-size="12px" font-weight="bold" text-anchor="middle" x="377.8515625" y="332.6953125">Living Room</text></g><g id="room_master_bedroom"><polygon fill="rgb(255,165,0)" fill-opacity="0.7" points="452.734375,192.421875 452.734375,240.9375 425.3125,243.046875 425.3125,285.234375 541.328125,283.125 541.328125,192.421875" stroke="black" stroke-width="1.5" /><text dominant-baseline="middle" fill="black" font-family="Arial" font-size="12px" font-weight="bold" text-anchor="middle" x="484.375" y="239.8828125">Master Bedroom</text></g><g id="room_common_room"><polygon fill="rgb(255,215,0)" fill-opacity="0.7" points="258.671875,228.28125 258.671875,289.453125 321.953125,289.453125 324.0625,306.328125 385.234375,306.328125 385.234375,259.921875 343.046875,259.921875 340.9375,228.28125" stroke="black" stroke-width="1.5" /><text dominant-baseline="middle" fill="black" font-family="Arial" font-size="12px" font-weight="bold" text-anchor="middle" x="323.0078125" y="268.359375">Common Room</text></g><g id="room_common_room_2"><polygon fill="rgb(255,215,0)" fill-opacity="0.7" points="258.671875,165.0 258.671875,219.84375 370.46875,219.84375 370.46875,192.421875 340.9375,192.421875 338.828125,165.0" stroke="black" stroke-width="1.5" /><text dominant-baseline="middle" fill="black" font-family="Arial" font-size="12px" font-weight="bold" text-anchor="middle" x="315.625" y="193.4765625">Common Room 2</text></g><g id="room_kitchen"><polygon fill="rgb(240,128,128)" fill-opacity="0.7" points="231.25,300.0 231.25,352.734375 315.625,352.734375 315.625,297.890625" stroke="black" stroke-width="1.5" /><text dominant-baseline="middle" fill="black" font-family="Arial" font-size="12px" font-weight="bold" text-anchor="middle" x="274.4921875" y="326.3671875">Kitchen</text></g><g id="room_balcony"><polygon fill="rgb(107,142,35)" fill-opacity="0.7" points="535.0,295.78125 535.0,403.359375 568.75,403.359375 568.75,295.78125" stroke="black" stroke-width="1.5" /><text dominant-baseline="middle" fill="black" font-family="Arial" font-size="12px" font-weight="bold" text-anchor="middle" x="552.9296875" y="350.625">Balcony</text></g><g id="room_bathroom"><polygon fill="rgb(173,216,230)" fill-opacity="0.7" points="378.90625,192.421875 378.90625,219.84375 423.203125,219.84375 425.3125,234.609375 444.296875,234.609375 444.296875,192.421875" stroke="black" stroke-width="1.5" /><text dominant-baseline="middle" fill="black" font-family="Arial" font-size="12px" font-weight="bold" text-anchor="middle" x="412.65625" y="214.5703125">Bathroom</text></g><rect fill="red" fill-opacity="0.9" height="10.546875" id="main_door" stroke="darkred" stroke-width="3" width="35.859375" x="231.25" y="437.109375" /><text dominant-baseline="middle" fill="white" font-family="Arial" font-size="9px" font-weight="bold" text-anchor="middle" x="249.1796875" y="442.3828125">Main Door</text><text fill="black" font-family="Arial" font-size="18px" font-weight="bold" text-anchor="middle" x="400.0" y="30">Floor Plan - ID: 64894</text></svg>