<?xml version="1.0" encoding="utf-8" ?>
<svg baseProfile="full" height="600px" version="1.1" viewBox="0 0 800 600" width="800px" xmlns="http://www.w3.org/2000/svg" xmlns:ev="http://www.w3.org/2001/xml-events" xmlns:xlink="http://www.w3.org/1999/xlink"><defs /><rect fill="white" height="600" width="800" x="0" y="0" /><polygon fill="none" id="floor_plan_boundary" points="210.15625,308.4375 210.15625,369.609375 231.25,371.71875 231.25,424.453125 347.265625,424.453125 237.578125,420.234375 235.46875,365.390625 214.375,363.28125 216.484375,312.65625 271.328125,312.65625 271.328125,207.1875 412.65625,205.078125 414.765625,179.765625 490.703125,179.765625 492.8125,312.65625 585.625,314.765625 585.625,418.125 368.359375,424.453125 589.84375,424.453125 589.84375,308.4375 497.03125,306.328125 497.03125,175.546875 408.4375,175.546875 406.328125,200.859375 267.109375,200.859375 267.109375,306.328125" stroke="black" stroke-linecap="butt" stroke-linejoin="miter" stroke-width="4" /><g id="room_living_room"><polygon fill="rgb(238,232,170)" fill-opacity="0.7" points="273.4375,207.1875 273.4375,306.328125 313.515625,308.4375 313.515625,418.125 490.703125,418.125 490.703125,314.765625 406.328125,312.65625 406.328125,207.1875" stroke="black" stroke-width="1.5" /><text dominant-baseline="middle" fill="black" font-family="Arial" font-size="12px" font-weight="bold" text-anchor="middle" x="383.125" y="313.7109375">Living Room</text></g><g id="room_common_room"><polygon fill="rgb(255,215,0)" fill-opacity="0.7" points="499.140625,314.765625 499.140625,418.125 583.515625,418.125 583.515625,314.765625" stroke="black" stroke-width="1.5" /><text dominant-baseline="middle" fill="black" font-family="Arial" font-size="12px" font-weight="bold" text-anchor="middle" x="542.3828125" y="367.5">Common Room</text></g><g id="room_master_bedroom"><polygon fill="rgb(255,165,0)" fill-opacity="0.7" points="414.765625,207.1875 414.765625,306.328125 490.703125,306.328125 490.703125,207.1875" stroke="black" stroke-width="1.5" /><text dominant-baseline="middle" fill="black" font-family="Arial" font-size="12px" font-weight="bold" text-anchor="middle" x="453.7890625" y="257.8125">Master Bedroom</text></g><g id="room_kitchen"><polygon fill="rgb(240,128,128)" fill-opacity="0.7" points="216.484375,314.765625 216.484375,363.28125 305.078125,363.28125 305.078125,314.765625" stroke="black" stroke-width="1.5" /><text dominant-baseline="middle" fill="black" font-family="Arial" font-size="12px" font-weight="bold" text-anchor="middle" x="261.8359375" y="340.078125">Kitchen</text></g><g id="room_bathroom"><polygon fill="rgb(173,216,230)" fill-opacity="0.7" points="237.578125,371.71875 237.578125,418.125 305.078125,418.125 305.078125,371.71875" stroke="black" stroke-width="1.5" /><text dominant-baseline="middle" fill="black" font-family="Arial" font-size="12px" font-weight="bold" text-anchor="middle" x="272.3828125" y="395.9765625">Bathroom</text></g><g id="room_balcony"><polygon fill="rgb(107,142,35)" fill-opacity="0.7" points="414.765625,181.875 414.765625,198.75 490.703125,198.75 490.703125,181.875" stroke="black" stroke-width="1.5" /><text dominant-baseline="middle" fill="black" font-family="Arial" font-size="12px" font-weight="bold" text-anchor="middle" x="453.7890625" y="191.3671875">Balcony</text></g><text fill="black" font-family="Arial" font-size="18px" font-weight="bold" text-anchor="middle" x="400.0" y="30">Floor Plan - ID: 65175</text></svg>