<?xml version="1.0" encoding="utf-8" ?>
<svg baseProfile="full" height="600px" version="1.1" viewBox="0 0 800 600" width="800px" xmlns="http://www.w3.org/2000/svg" xmlns:ev="http://www.w3.org/2001/xml-events" xmlns:xlink="http://www.w3.org/1999/xlink"><defs /><rect fill="white" height="600" width="800" x="0" y="0" /><polygon fill="none" id="floor_plan_boundary" points="349.375,97.5 347.265625,141.796875 269.21875,141.796875 269.21875,278.90625 277.65625,278.90625 277.65625,152.34375 357.8125,150.234375 359.921875,105.9375 423.203125,105.9375 425.3125,150.234375 522.34375,152.34375 520.234375,458.203125 425.3125,458.203125 423.203125,494.0625 317.734375,494.0625 315.625,331.640625 279.765625,331.640625 277.65625,321.09375 269.21875,321.09375 269.21875,340.078125 307.1875,342.1875 307.1875,502.5 433.75,502.5 435.859375,466.640625 530.78125,466.640625 530.78125,141.796875 435.859375,141.796875 433.75,97.5" stroke="black" stroke-linecap="butt" stroke-linejoin="miter" stroke-width="4" /><g id="room_living_room"><polygon fill="rgb(238,232,170)" fill-opacity="0.7" points="357.8125,209.296875 359.921875,270.46875 279.765625,272.578125 279.765625,329.53125 317.734375,331.640625 317.734375,456.09375 423.203125,456.09375 423.203125,333.75 461.171875,331.640625 461.171875,272.578125 423.203125,270.46875 423.203125,209.296875" stroke="black" stroke-width="1.5" /><text dominant-baseline="middle" fill="black" font-family="Arial" font-size="12px" font-weight="bold" text-anchor="middle" x="371.5234375" y="333.75">Living Room</text></g><g id="room_master_bedroom"><polygon fill="rgb(255,165,0)" fill-opacity="0.7" points="435.859375,340.078125 435.859375,456.09375 520.234375,456.09375 520.234375,340.078125" stroke="black" stroke-width="1.5" /><text dominant-baseline="middle" fill="black" font-family="Arial" font-size="12px" font-weight="bold" text-anchor="middle" x="479.1015625" y="399.140625">Master Bedroom</text></g><g id="room_common_room"><polygon fill="rgb(255,215,0)" fill-opacity="0.7" points="435.859375,152.34375 435.859375,259.921875 520.234375,259.921875 520.234375,152.34375" stroke="black" stroke-width="1.5" /><text dominant-baseline="middle" fill="black" font-family="Arial" font-size="12px" font-weight="bold" text-anchor="middle" x="479.1015625" y="207.1875">Common Room</text></g><g id="room_common_room_2"><polygon fill="rgb(255,215,0)" fill-opacity="0.7" points="279.765625,152.34375 279.765625,259.921875 349.375,259.921875 349.375,152.34375" stroke="black" stroke-width="1.5" /><text dominant-baseline="middle" fill="black" font-family="Arial" font-size="12px" font-weight="bold" text-anchor="middle" x="315.625" y="207.1875">Common Room 2</text></g><g id="room_kitchen"><polygon fill="rgb(240,128,128)" fill-opacity="0.7" points="357.8125,152.34375 357.8125,200.859375 423.203125,200.859375 423.203125,152.34375" stroke="black" stroke-width="1.5" /><text dominant-baseline="middle" fill="black" font-family="Arial" font-size="12px" font-weight="bold" text-anchor="middle" x="391.5625" y="177.65625">Kitchen</text></g><g id="room_bathroom"><polygon fill="rgb(173,216,230)" fill-opacity="0.7" points="469.609375,272.578125 469.609375,331.640625 520.234375,331.640625 520.234375,272.578125" stroke="black" stroke-width="1.5" /><text dominant-baseline="middle" fill="black" font-family="Arial" font-size="12px" font-weight="bold" text-anchor="middle" x="495.9765625" y="303.1640625">Bathroom</text></g><g id="room_balcony"><polygon fill="rgb(107,142,35)" fill-opacity="0.7" points="317.734375,468.75 317.734375,491.953125 423.203125,491.953125 423.203125,468.75" stroke="black" stroke-width="1.5" /><text dominant-baseline="middle" fill="black" font-family="Arial" font-size="12px" font-weight="bold" text-anchor="middle" x="371.5234375" y="481.40625">Balcony</text></g><g id="room_balcony_2"><polygon fill="rgb(107,142,35)" fill-opacity="0.7" points="359.921875,108.046875 359.921875,139.6875 423.203125,139.6875 423.203125,108.046875" stroke="black" stroke-width="1.5" /><text dominant-baseline="middle" fill="black" font-family="Arial" font-size="12px" font-weight="bold" text-anchor="middle" x="392.6171875" y="124.921875">Balcony 2</text></g><rect fill="red" fill-opacity="0.9" height="40.078125" id="main_door" stroke="darkred" stroke-width="3" width="10.546875" x="269.21875" y="281.015625" /><text dominant-baseline="middle" fill="white" font-family="Arial" font-size="9px" font-weight="bold" text-anchor="middle" x="274.4921875" y="301.0546875">Main Door</text><text fill="black" font-family="Arial" font-size="18px" font-weight="bold" text-anchor="middle" x="400.0" y="30">Floor Plan - ID: 65256</text></svg>