<?xml version="1.0" encoding="utf-8" ?>
<svg baseProfile="full" height="600px" version="1.1" viewBox="0 0 800 600" width="800px" xmlns="http://www.w3.org/2000/svg" xmlns:ev="http://www.w3.org/2001/xml-events" xmlns:xlink="http://www.w3.org/1999/xlink"><defs /><rect fill="white" height="600" width="800" x="0" y="0" /><polygon fill="none" id="floor_plan_boundary" points="260.78125,103.828125 260.78125,213.515625 231.25,215.625 231.25,439.21875 435.859375,439.21875 437.96875,496.171875 568.75,496.171875 568.75,291.5625 520.234375,291.5625 520.234375,300.0 560.3125,302.109375 558.203125,487.734375 448.515625,487.734375 446.40625,430.78125 239.6875,428.671875 239.6875,226.171875 269.21875,224.0625 271.328125,112.265625 518.125,112.265625 520.234375,240.9375 528.671875,240.9375 528.671875,103.828125" stroke="black" stroke-linecap="butt" stroke-linejoin="miter" stroke-width="4" /><g id="room_living_room"><polygon fill="rgb(238,232,170)" fill-opacity="0.7" points="317.734375,226.171875 317.734375,255.703125 448.515625,257.8125 448.515625,428.671875 558.203125,428.671875 558.203125,302.109375 518.125,300.0 518.125,192.421875 431.640625,192.421875 429.53125,226.171875" stroke="black" stroke-width="1.5" /><text dominant-baseline="middle" fill="black" font-family="Arial" font-size="12px" font-weight="bold" text-anchor="middle" x="439.0234375" y="311.6015625">Living Room</text></g><g id="room_master_bedroom"><polygon fill="rgb(255,165,0)" fill-opacity="0.7" points="391.5625,268.359375 317.734375,268.359375 317.734375,302.109375 241.796875,302.109375 241.796875,428.671875 343.046875,428.671875 343.046875,291.5625 391.5625,289.453125" stroke="black" stroke-width="1.5" /><text dominant-baseline="middle" fill="black" font-family="Arial" font-size="12px" font-weight="bold" text-anchor="middle" x="317.734375" y="349.5703125">Master Bedroom</text></g><g id="room_common_room"><polygon fill="rgb(255,215,0)" fill-opacity="0.7" points="435.859375,268.359375 404.21875,268.359375 402.109375,302.109375 355.703125,302.109375 355.703125,428.671875 435.859375,428.671875" stroke="black" stroke-width="1.5" /><text dominant-baseline="middle" fill="black" font-family="Arial" font-size="12px" font-weight="bold" text-anchor="middle" x="396.8359375" y="349.5703125">Common Room</text></g><g id="room_common_room_2"><polygon fill="rgb(255,215,0)" fill-opacity="0.7" points="271.328125,114.375 271.328125,213.515625 351.484375,213.515625 351.484375,114.375" stroke="black" stroke-width="1.5" /><text dominant-baseline="middle" fill="black" font-family="Arial" font-size="12px" font-weight="bold" text-anchor="middle" x="312.4609375" y="165.0">Common Room 2</text></g><g id="room_kitchen"><polygon fill="rgb(240,128,128)" fill-opacity="0.7" points="431.640625,114.375 431.640625,183.984375 518.125,183.984375 518.125,114.375" stroke="black" stroke-width="1.5" /><text dominant-baseline="middle" fill="black" font-family="Arial" font-size="12px" font-weight="bold" text-anchor="middle" x="475.9375" y="150.234375">Kitchen</text></g><g id="room_bathroom_2"><polygon fill="rgb(173,216,230)" fill-opacity="0.7" points="364.140625,114.375 364.140625,213.515625 418.984375,213.515625 418.984375,114.375" stroke="black" stroke-width="1.5" /><text dominant-baseline="middle" fill="black" font-family="Arial" font-size="12px" font-weight="bold" text-anchor="middle" x="392.6171875" y="165.0">Bathroom 2</text></g><g id="room_balcony"><polygon fill="rgb(107,142,35)" fill-opacity="0.7" points="448.515625,441.328125 448.515625,485.625 558.203125,485.625 558.203125,441.328125" stroke="black" stroke-width="1.5" /><text dominant-baseline="middle" fill="black" font-family="Arial" font-size="12px" font-weight="bold" text-anchor="middle" x="504.4140625" y="464.53125">Balcony</text></g><g id="room_bathroom"><polygon fill="rgb(173,216,230)" fill-opacity="0.7" points="241.796875,226.171875 241.796875,289.453125 309.296875,289.453125 309.296875,226.171875" stroke="black" stroke-width="1.5" /><text dominant-baseline="middle" fill="black" font-family="Arial" font-size="12px" font-weight="bold" text-anchor="middle" x="276.6015625" y="258.8671875">Bathroom</text></g><rect fill="red" fill-opacity="0.9" height="48.515625" id="main_door" stroke="darkred" stroke-width="3" width="10.546875" x="520.234375" y="243.046875" /><text dominant-baseline="middle" fill="white" font-family="Arial" font-size="9px" font-weight="bold" text-anchor="middle" x="525.5078125" y="267.3046875">Main Door</text><text fill="black" font-family="Arial" font-size="18px" font-weight="bold" text-anchor="middle" x="400.0" y="30">Floor Plan - ID: 6537</text></svg>