<?xml version="1.0" encoding="utf-8" ?>
<svg baseProfile="full" height="600px" version="1.1" viewBox="0 0 800 600" width="800px" xmlns="http://www.w3.org/2000/svg" xmlns:ev="http://www.w3.org/2001/xml-events" xmlns:xlink="http://www.w3.org/1999/xlink"><defs /><rect fill="white" height="600" width="800" x="0" y="0" /><polygon fill="none" id="floor_plan_boundary" points="311.40625,86.953125 311.40625,224.0625 319.84375,224.0625 319.84375,93.28125 389.453125,91.171875 391.5625,139.6875 418.984375,139.6875 418.984375,120.703125 465.390625,122.8125 463.28125,139.6875 478.046875,141.796875 478.046875,266.25 511.796875,268.359375 511.796875,458.203125 484.375,460.3125 484.375,475.078125 435.859375,475.078125 433.75,460.3125 397.890625,460.3125 395.78125,508.828125 290.3125,508.828125 288.203125,268.359375 319.84375,266.25 319.84375,253.59375 279.765625,257.8125 279.765625,513.046875 406.328125,513.046875 408.4375,468.75 427.421875,468.75 429.53125,479.296875 490.703125,479.296875 492.8125,468.75 520.234375,468.75 520.234375,257.8125 486.484375,255.703125 486.484375,131.25 471.71875,131.25 469.609375,116.484375 412.65625,116.484375 412.65625,129.140625 397.890625,131.25 395.78125,86.953125" stroke="black" stroke-linecap="butt" stroke-linejoin="miter" stroke-width="4" /><g id="room_living_room"><polygon fill="rgb(238,232,170)" fill-opacity="0.7" points="321.953125,158.671875 321.953125,266.25 290.3125,268.359375 290.3125,458.203125 395.78125,458.203125 395.78125,293.671875 431.640625,291.5625 431.640625,268.359375 387.34375,266.25 387.34375,158.671875" stroke="black" stroke-width="1.5" /><text dominant-baseline="middle" fill="black" font-family="Arial" font-size="12px" font-weight="bold" text-anchor="middle" x="362.03125" y="309.4921875">Living Room</text></g><g id="room_master_bedroom"><polygon fill="rgb(255,165,0)" fill-opacity="0.7" points="408.4375,304.21875 408.4375,458.203125 433.75,458.203125 435.859375,472.96875 484.375,472.96875 484.375,458.203125 509.6875,458.203125 509.6875,335.859375 433.75,335.859375 431.640625,304.21875" stroke="black" stroke-width="1.5" /><text dominant-baseline="middle" fill="black" font-family="Arial" font-size="12px" font-weight="bold" text-anchor="middle" x="460.1171875" y="389.6484375">Master Bedroom</text></g><g id="room_common_room"><polygon fill="rgb(255,215,0)" fill-opacity="0.7" points="418.984375,122.8125 421.09375,139.6875 400.0,141.796875 400.0,255.703125 475.9375,255.703125 475.9375,141.796875 461.171875,139.6875 463.28125,122.8125" stroke="black" stroke-width="1.5" /><text dominant-baseline="middle" fill="black" font-family="Arial" font-size="12px" font-weight="bold" text-anchor="middle" x="439.0234375" y="190.3125">Common Room</text></g><g id="room_balcony"><polygon fill="rgb(107,142,35)" fill-opacity="0.7" points="290.3125,470.859375 290.3125,506.71875 395.78125,506.71875 395.78125,470.859375" stroke="black" stroke-width="1.5" /><text dominant-baseline="middle" fill="black" font-family="Arial" font-size="12px" font-weight="bold" text-anchor="middle" x="344.1015625" y="489.84375">Balcony</text></g><g id="room_bathroom"><polygon fill="rgb(173,216,230)" fill-opacity="0.7" points="444.296875,268.359375 444.296875,323.203125 509.6875,323.203125 509.6875,268.359375" stroke="black" stroke-width="1.5" /><text dominant-baseline="middle" fill="black" font-family="Arial" font-size="12px" font-weight="bold" text-anchor="middle" x="478.046875" y="296.8359375">Bathroom</text></g><g id="room_kitchen"><polygon fill="rgb(240,128,128)" fill-opacity="0.7" points="321.953125,93.28125 321.953125,146.015625 387.34375,146.015625 389.453125,93.28125" stroke="black" stroke-width="1.5" /><text dominant-baseline="middle" fill="black" font-family="Arial" font-size="12px" font-weight="bold" text-anchor="middle" x="356.7578125" y="120.703125">Kitchen</text></g><rect fill="red" fill-opacity="0.9" height="27.421875" id="main_door" stroke="darkred" stroke-width="3" width="10.546875" x="311.40625" y="226.171875" /><text dominant-baseline="middle" fill="white" font-family="Arial" font-size="9px" font-weight="bold" text-anchor="middle" x="316.6796875" y="239.8828125">Main Door</text><text fill="black" font-family="Arial" font-size="18px" font-weight="bold" text-anchor="middle" x="400.0" y="30">Floor Plan - ID: 6549</text></svg>