<?xml version="1.0" encoding="utf-8" ?>
<svg baseProfile="full" height="600px" version="1.1" viewBox="0 0 800 600" width="800px" xmlns="http://www.w3.org/2000/svg" xmlns:ev="http://www.w3.org/2001/xml-events" xmlns:xlink="http://www.w3.org/1999/xlink"><defs /><rect fill="white" height="600" width="800" x="0" y="0" /><polygon fill="none" id="floor_plan_boundary" points="197.5,169.21875 197.5,240.9375 233.359375,243.046875 233.359375,375.9375 427.421875,375.9375 429.53125,430.78125 562.421875,430.78125 562.421875,281.015625 602.5,278.90625 602.5,169.21875 425.3125,169.21875 425.3125,177.65625 594.0625,179.765625 594.0625,272.578125 553.984375,274.6875 551.875,422.34375 440.078125,422.34375 437.96875,367.5 243.90625,367.5 241.796875,232.5 205.9375,230.390625 205.9375,179.765625 391.5625,177.65625 391.5625,169.21875" stroke="black" stroke-linecap="butt" stroke-linejoin="miter" stroke-width="4" /><g id="room_living_room"><polygon fill="rgb(238,232,170)" fill-opacity="0.7" points="305.078125,179.765625 305.078125,230.390625 440.078125,232.5 440.078125,365.390625 551.875,365.390625 551.875,243.046875 513.90625,240.9375 516.015625,179.765625" stroke="black" stroke-width="1.5" /><text dominant-baseline="middle" fill="black" font-family="Arial" font-size="12px" font-weight="bold" text-anchor="middle" x="429.53125" y="273.6328125">Living Room</text></g><g id="room_master_bedroom"><polygon fill="rgb(255,165,0)" fill-opacity="0.7" points="243.90625,243.046875 243.90625,365.390625 340.9375,365.390625 340.9375,243.046875" stroke="black" stroke-width="1.5" /><text dominant-baseline="middle" fill="black" font-family="Arial" font-size="12px" font-weight="bold" text-anchor="middle" x="293.4765625" y="305.2734375">Master Bedroom</text></g><g id="room_common_room"><polygon fill="rgb(255,215,0)" fill-opacity="0.7" points="349.375,243.046875 349.375,365.390625 427.421875,365.390625 427.421875,243.046875" stroke="black" stroke-width="1.5" /><text dominant-baseline="middle" fill="black" font-family="Arial" font-size="12px" font-weight="bold" text-anchor="middle" x="389.453125" y="305.2734375">Common Room</text></g><g id="room_balcony"><polygon fill="rgb(107,142,35)" fill-opacity="0.7" points="440.078125,378.046875 440.078125,420.234375 551.875,420.234375 551.875,378.046875" stroke="black" stroke-width="1.5" /><text dominant-baseline="middle" fill="black" font-family="Arial" font-size="12px" font-weight="bold" text-anchor="middle" x="497.03125" y="400.1953125">Balcony</text></g><g id="room_bathroom"><polygon fill="rgb(173,216,230)" fill-opacity="0.7" points="208.046875,179.765625 208.046875,230.390625 292.421875,230.390625 292.421875,179.765625" stroke="black" stroke-width="1.5" /><text dominant-baseline="middle" fill="black" font-family="Arial" font-size="12px" font-weight="bold" text-anchor="middle" x="251.2890625" y="206.1328125">Bathroom</text></g><g id="room_kitchen"><polygon fill="rgb(240,128,128)" fill-opacity="0.7" points="524.453125,179.765625 524.453125,230.390625 591.953125,230.390625 591.953125,179.765625" stroke="black" stroke-width="1.5" /><text dominant-baseline="middle" fill="black" font-family="Arial" font-size="12px" font-weight="bold" text-anchor="middle" x="559.2578125" y="206.1328125">Kitchen</text></g><rect fill="red" fill-opacity="0.9" height="10.546875" id="main_door" stroke="darkred" stroke-width="3" width="31.640625" x="393.671875" y="169.21875" /><text dominant-baseline="middle" fill="white" font-family="Arial" font-size="9px" font-weight="bold" text-anchor="middle" x="409.4921875" y="174.4921875">Main Door</text><text fill="black" font-family="Arial" font-size="18px" font-weight="bold" text-anchor="middle" x="400.0" y="30">Floor Plan - ID: 6561</text></svg>