<?xml version="1.0" encoding="utf-8" ?>
<svg baseProfile="full" height="600px" version="1.1" viewBox="0 0 800 600" width="800px" xmlns="http://www.w3.org/2000/svg" xmlns:ev="http://www.w3.org/2001/xml-events" xmlns:xlink="http://www.w3.org/1999/xlink"><defs /><rect fill="white" height="600" width="800" x="0" y="0" /><polygon fill="none" id="floor_plan_boundary" points="271.328125,120.703125 271.328125,217.734375 277.65625,124.921875 524.453125,127.03125 524.453125,435.0 402.109375,437.109375 400.0,475.078125 277.65625,475.078125 271.328125,247.265625 271.328125,479.296875 406.328125,479.296875 408.4375,441.328125 528.671875,441.328125 528.671875,120.703125" stroke="black" stroke-linecap="butt" stroke-linejoin="miter" stroke-width="4" /><g id="room_living_room"><polygon fill="rgb(238,232,170)" fill-opacity="0.7" points="277.65625,224.0625 277.65625,268.359375 355.703125,270.46875 355.703125,325.3125 450.625,325.3125 452.734375,268.359375 522.34375,268.359375 522.34375,127.03125 345.15625,127.03125 345.15625,221.953125" stroke="black" stroke-width="1.5" /><text dominant-baseline="middle" fill="black" font-family="Arial" font-size="12px" font-weight="bold" text-anchor="middle" x="401.0546875" y="227.2265625">Living Room</text></g><g id="room_master_bedroom"><polygon fill="rgb(255,165,0)" fill-opacity="0.7" points="277.65625,333.75 277.65625,435.0 400.0,435.0 400.0,333.75" stroke="black" stroke-width="1.5" /><text dominant-baseline="middle" fill="black" font-family="Arial" font-size="12px" font-weight="bold" text-anchor="middle" x="339.8828125" y="385.4296875">Master Bedroom</text></g><g id="room_common_room"><polygon fill="rgb(255,215,0)" fill-opacity="0.7" points="408.4375,333.75 408.4375,435.0 522.34375,435.0 522.34375,333.75" stroke="black" stroke-width="1.5" /><text dominant-baseline="middle" fill="black" font-family="Arial" font-size="12px" font-weight="bold" text-anchor="middle" x="466.4453125" y="385.4296875">Common Room</text></g><g id="room_kitchen"><polygon fill="rgb(240,128,128)" fill-opacity="0.7" points="277.65625,127.03125 277.65625,215.625 336.71875,215.625 336.71875,127.03125" stroke="black" stroke-width="1.5" /><text dominant-baseline="middle" fill="black" font-family="Arial" font-size="12px" font-weight="bold" text-anchor="middle" x="308.2421875" y="172.3828125">Kitchen</text></g><g id="room_balcony"><polygon fill="rgb(107,142,35)" fill-opacity="0.7" points="277.65625,443.4375 277.65625,472.96875 400.0,472.96875 400.0,443.4375" stroke="black" stroke-width="1.5" /><text dominant-baseline="middle" fill="black" font-family="Arial" font-size="12px" font-weight="bold" text-anchor="middle" x="339.8828125" y="459.2578125">Balcony</text></g><g id="room_room_7"><polygon fill="rgb(221,160,221)" fill-opacity="0.7" points="277.65625,276.796875 277.65625,325.3125 347.265625,325.3125 347.265625,276.796875" stroke="black" stroke-width="1.5" /><text dominant-baseline="middle" fill="black" font-family="Arial" font-size="12px" font-weight="bold" text-anchor="middle" x="313.515625" y="302.109375">Room 7</text></g><g id="room_bathroom"><polygon fill="rgb(173,216,230)" fill-opacity="0.7" points="459.0625,276.796875 459.0625,325.3125 522.34375,325.3125 522.34375,276.796875" stroke="black" stroke-width="1.5" /><text dominant-baseline="middle" fill="black" font-family="Arial" font-size="12px" font-weight="bold" text-anchor="middle" x="491.7578125" y="302.109375">Bathroom</text></g><rect fill="red" fill-opacity="0.9" height="27.421875" id="main_door" stroke="darkred" stroke-width="3" width="6.328125" x="271.328125" y="219.84375" /><text dominant-baseline="middle" fill="white" font-family="Arial" font-size="9px" font-weight="bold" text-anchor="middle" x="274.4921875" y="233.5546875">Main Door</text><text fill="black" font-family="Arial" font-size="18px" font-weight="bold" text-anchor="middle" x="400.0" y="30">Floor Plan - ID: 65679</text></svg>