<?xml version="1.0" encoding="utf-8" ?>
<svg baseProfile="full" height="600px" version="1.1" viewBox="0 0 800 600" width="800px" xmlns="http://www.w3.org/2000/svg" xmlns:ev="http://www.w3.org/2001/xml-events" xmlns:xlink="http://www.w3.org/1999/xlink"><defs /><rect fill="white" height="600" width="800" x="0" y="0" /><polygon fill="none" id="floor_plan_boundary" points="294.53125,135.46875 296.640625,251.484375 300.859375,139.6875 488.59375,141.796875 488.59375,251.484375 539.21875,253.59375 539.21875,416.015625 427.421875,418.125 425.3125,460.3125 262.890625,460.3125 260.78125,253.59375 271.328125,247.265625 256.5625,247.265625 256.5625,464.53125 431.640625,464.53125 433.75,422.34375 543.4375,422.34375 543.4375,247.265625 492.8125,245.15625 492.8125,135.46875" stroke="black" stroke-linecap="butt" stroke-linejoin="miter" stroke-width="4" /><g id="room_living_room"><polygon fill="rgb(238,232,170)" fill-opacity="0.7" points="300.859375,192.421875 300.859375,251.484375 262.890625,253.59375 262.890625,458.203125 425.3125,458.203125 425.3125,253.59375 383.125,251.484375 383.125,192.421875" stroke="black" stroke-width="1.5" /><text dominant-baseline="middle" fill="black" font-family="Arial" font-size="12px" font-weight="bold" text-anchor="middle" x="345.15625" y="326.3671875">Living Room</text></g><g id="room_master_bedroom"><polygon fill="rgb(255,165,0)" fill-opacity="0.7" points="433.75,253.59375 433.75,416.015625 537.109375,416.015625 537.109375,304.21875 459.0625,304.21875 456.953125,253.59375" stroke="black" stroke-width="1.5" /><text dominant-baseline="middle" fill="black" font-family="Arial" font-size="12px" font-weight="bold" text-anchor="middle" x="486.484375" y="335.859375">Master Bedroom</text></g><g id="room_common_room"><polygon fill="rgb(255,215,0)" fill-opacity="0.7" points="391.5625,141.796875 391.5625,245.15625 486.484375,245.15625 486.484375,141.796875" stroke="black" stroke-width="1.5" /><text dominant-baseline="middle" fill="black" font-family="Arial" font-size="12px" font-weight="bold" text-anchor="middle" x="440.078125" y="194.53125">Common Room</text></g><g id="room_kitchen"><polygon fill="rgb(240,128,128)" fill-opacity="0.7" points="300.859375,141.796875 300.859375,183.984375 383.125,183.984375 383.125,141.796875" stroke="black" stroke-width="1.5" /><text dominant-baseline="middle" fill="black" font-family="Arial" font-size="12px" font-weight="bold" text-anchor="middle" x="343.046875" y="163.9453125">Kitchen</text></g><g id="room_bathroom"><polygon fill="rgb(173,216,230)" fill-opacity="0.7" points="465.390625,253.59375 465.390625,295.78125 537.109375,295.78125 537.109375,253.59375" stroke="black" stroke-width="1.5" /><text dominant-baseline="middle" fill="black" font-family="Arial" font-size="12px" font-weight="bold" text-anchor="middle" x="502.3046875" y="275.7421875">Bathroom</text></g><text fill="black" font-family="Arial" font-size="18px" font-weight="bold" text-anchor="middle" x="400.0" y="30">Floor Plan - ID: 65934</text></svg>