<?xml version="1.0" encoding="utf-8" ?>
<svg baseProfile="full" height="600px" version="1.1" viewBox="0 0 800 600" width="800px" xmlns="http://www.w3.org/2000/svg" xmlns:ev="http://www.w3.org/2001/xml-events" xmlns:xlink="http://www.w3.org/1999/xlink"><defs /><rect fill="white" height="600" width="800" x="0" y="0" /><polygon fill="none" id="floor_plan_boundary" points="319.84375,89.0625 319.84375,236.71875 328.28125,236.71875 330.390625,93.28125 397.890625,93.28125 400.0,146.015625 513.90625,148.125 511.796875,460.3125 402.109375,460.3125 400.0,506.71875 286.09375,506.71875 286.09375,304.21875 328.28125,302.109375 328.28125,274.6875 319.84375,274.6875 317.734375,293.671875 277.65625,293.671875 279.765625,510.9375 406.328125,510.9375 408.4375,468.75 522.34375,468.75 522.34375,137.578125 410.546875,137.578125 408.4375,89.0625" stroke="black" stroke-linecap="butt" stroke-linejoin="miter" stroke-width="4" /><g id="room_living_room"><polygon fill="rgb(238,232,170)" fill-opacity="0.7" points="330.390625,228.28125 330.390625,302.109375 288.203125,304.21875 288.203125,458.203125 397.890625,458.203125 397.890625,323.203125 440.078125,321.09375 440.078125,259.921875 400.0,259.921875 397.890625,228.28125" stroke="black" stroke-width="1.5" /><text dominant-baseline="middle" fill="black" font-family="Arial" font-size="12px" font-weight="bold" text-anchor="middle" x="365.1953125" y="344.296875">Living Room</text></g><g id="room_master_bedroom"><polygon fill="rgb(255,165,0)" fill-opacity="0.7" points="410.546875,333.75 410.546875,458.203125 511.796875,458.203125 511.796875,333.75" stroke="black" stroke-width="1.5" /><text dominant-baseline="middle" fill="black" font-family="Arial" font-size="12px" font-weight="bold" text-anchor="middle" x="462.2265625" y="397.03125">Master Bedroom</text></g><g id="room_common_room"><polygon fill="rgb(255,215,0)" fill-opacity="0.7" points="410.546875,148.125 410.546875,247.265625 511.796875,247.265625 511.796875,148.125" stroke="black" stroke-width="1.5" /><text dominant-baseline="middle" fill="black" font-family="Arial" font-size="12px" font-weight="bold" text-anchor="middle" x="462.2265625" y="198.75">Common Room</text></g><g id="room_kitchen"><polygon fill="rgb(240,128,128)" fill-opacity="0.7" points="330.390625,148.125 330.390625,215.625 397.890625,215.625 397.890625,148.125" stroke="black" stroke-width="1.5" /><text dominant-baseline="middle" fill="black" font-family="Arial" font-size="12px" font-weight="bold" text-anchor="middle" x="365.1953125" y="182.9296875">Kitchen</text></g><g id="room_bathroom"><polygon fill="rgb(173,216,230)" fill-opacity="0.7" points="448.515625,259.921875 448.515625,321.09375 511.796875,321.09375 511.796875,259.921875" stroke="black" stroke-width="1.5" /><text dominant-baseline="middle" fill="black" font-family="Arial" font-size="12px" font-weight="bold" text-anchor="middle" x="481.2109375" y="291.5625">Bathroom</text></g><g id="room_balcony"><polygon fill="rgb(107,142,35)" fill-opacity="0.7" points="286.09375,470.859375 286.09375,504.609375 400.0,504.609375 400.0,470.859375" stroke="black" stroke-width="1.5" /><text dominant-baseline="middle" fill="black" font-family="Arial" font-size="12px" font-weight="bold" text-anchor="middle" x="344.1015625" y="488.7890625">Balcony</text></g><g id="room_balcony_2"><polygon fill="rgb(107,142,35)" fill-opacity="0.7" points="330.390625,95.390625 330.390625,135.46875 397.890625,135.46875 397.890625,95.390625" stroke="black" stroke-width="1.5" /><text dominant-baseline="middle" fill="black" font-family="Arial" font-size="12px" font-weight="bold" text-anchor="middle" x="365.1953125" y="116.484375">Balcony 2</text></g><rect fill="red" fill-opacity="0.9" height="35.859375" id="main_door" stroke="darkred" stroke-width="3" width="10.546875" x="319.84375" y="238.828125" /><text dominant-baseline="middle" fill="white" font-family="Arial" font-size="9px" font-weight="bold" text-anchor="middle" x="325.1171875" y="256.7578125">Main Door</text><text fill="black" font-family="Arial" font-size="18px" font-weight="bold" text-anchor="middle" x="400.0" y="30">Floor Plan - ID: 6614</text></svg>