<?xml version="1.0" encoding="utf-8" ?>
<svg baseProfile="full" height="600px" version="1.1" viewBox="0 0 800 600" width="800px" xmlns="http://www.w3.org/2000/svg" xmlns:ev="http://www.w3.org/2001/xml-events" xmlns:xlink="http://www.w3.org/1999/xlink"><defs /><rect fill="white" height="600" width="800" x="0" y="0" /><polygon fill="none" id="floor_plan_boundary" points="227.03125,221.953125 227.03125,407.578125 321.953125,407.578125 324.0625,380.15625 423.203125,380.15625 425.3125,413.90625 537.109375,413.90625 537.109375,253.59375 572.96875,251.484375 572.96875,186.09375 467.5,186.09375 465.390625,194.53125 370.46875,194.53125 364.140625,186.09375 364.140625,198.75 471.71875,198.75 473.828125,190.3125 568.75,192.421875 568.75,245.15625 532.890625,247.265625 530.78125,409.6875 431.640625,409.6875 429.53125,375.9375 317.734375,375.9375 315.625,403.359375 233.359375,403.359375 231.25,228.28125 321.953125,226.171875 326.171875,186.09375 317.734375,186.09375 315.625,221.953125" stroke="black" stroke-linecap="butt" stroke-linejoin="miter" stroke-width="4" /><g id="room_living_room"><polygon fill="rgb(238,232,170)" fill-opacity="0.7" points="324.0625,192.421875 324.0625,373.828125 423.203125,373.828125 423.203125,297.890625 465.390625,295.78125 465.390625,200.859375 366.25,202.96875 362.03125,192.421875" stroke="black" stroke-width="1.5" /><text dominant-baseline="middle" fill="black" font-family="Arial" font-size="12px" font-weight="bold" text-anchor="middle" x="395.78125" y="284.1796875">Living Room</text></g><g id="room_master_bedroom"><polygon fill="rgb(255,165,0)" fill-opacity="0.7" points="431.640625,304.21875 431.640625,407.578125 530.78125,407.578125 530.78125,304.21875" stroke="black" stroke-width="1.5" /><text dominant-baseline="middle" fill="black" font-family="Arial" font-size="12px" font-weight="bold" text-anchor="middle" x="482.265625" y="356.953125">Master Bedroom</text></g><g id="room_common_room"><polygon fill="rgb(255,215,0)" fill-opacity="0.7" points="233.359375,228.28125 233.359375,337.96875 315.625,337.96875 315.625,228.28125" stroke="black" stroke-width="1.5" /><text dominant-baseline="middle" fill="black" font-family="Arial" font-size="12px" font-weight="bold" text-anchor="middle" x="275.546875" y="284.1796875">Common Room</text></g><g id="room_kitchen"><polygon fill="rgb(240,128,128)" fill-opacity="0.7" points="473.828125,192.421875 473.828125,245.15625 566.640625,245.15625 566.640625,192.421875" stroke="black" stroke-width="1.5" /><text dominant-baseline="middle" fill="black" font-family="Arial" font-size="12px" font-weight="bold" text-anchor="middle" x="521.2890625" y="219.84375">Kitchen</text></g><g id="room_balcony"><polygon fill="rgb(107,142,35)" fill-opacity="0.7" points="233.359375,346.40625 233.359375,401.25 315.625,401.25 315.625,346.40625" stroke="black" stroke-width="1.5" /><text dominant-baseline="middle" fill="black" font-family="Arial" font-size="12px" font-weight="bold" text-anchor="middle" x="275.546875" y="374.8828125">Balcony</text></g><g id="room_bathroom"><polygon fill="rgb(173,216,230)" fill-opacity="0.7" points="473.828125,253.59375 473.828125,295.78125 530.78125,295.78125 530.78125,253.59375" stroke="black" stroke-width="1.5" /><text dominant-baseline="middle" fill="black" font-family="Arial" font-size="12px" font-weight="bold" text-anchor="middle" x="503.359375" y="275.7421875">Bathroom</text></g><rect fill="red" fill-opacity="0.9" height="6.328125" id="main_door" stroke="darkred" stroke-width="3" width="35.859375" x="328.28125" y="186.09375" /><text dominant-baseline="middle" fill="white" font-family="Arial" font-size="9px" font-weight="bold" text-anchor="middle" x="346.2109375" y="189.2578125">Main Door</text><text fill="black" font-family="Arial" font-size="18px" font-weight="bold" text-anchor="middle" x="400.0" y="30">Floor Plan - ID: 66693</text></svg>