<?xml version="1.0" encoding="utf-8" ?>
<svg baseProfile="full" height="600px" version="1.1" viewBox="0 0 800 600" width="800px" xmlns="http://www.w3.org/2000/svg" xmlns:ev="http://www.w3.org/2001/xml-events" xmlns:xlink="http://www.w3.org/1999/xlink"><defs /><rect fill="white" height="600" width="800" x="0" y="0" /><polygon fill="none" id="floor_plan_boundary" points="252.34375,192.421875 252.34375,304.21875 273.4375,306.328125 273.4375,409.6875 370.46875,409.6875 372.578125,453.984375 547.65625,453.984375 547.65625,283.125 541.328125,449.765625 378.90625,449.765625 376.796875,405.46875 279.765625,405.46875 277.65625,300.0 256.5625,297.890625 258.671875,196.640625 391.5625,196.640625 393.671875,150.234375 486.484375,150.234375 488.59375,196.640625 543.4375,198.75 547.65625,262.03125 547.65625,192.421875 494.921875,192.421875 492.8125,146.015625 387.34375,146.015625 385.234375,192.421875" stroke="black" stroke-linecap="butt" stroke-linejoin="miter" stroke-width="4" /><g id="room_living_room"><polygon fill="rgb(238,232,170)" fill-opacity="0.7" points="393.671875,198.75 393.671875,264.140625 349.375,266.25 349.375,297.890625 378.90625,300.0 378.90625,403.359375 541.328125,403.359375 541.328125,266.25 486.484375,264.140625 486.484375,198.75" stroke="black" stroke-width="1.5" /><text dominant-baseline="middle" fill="black" font-family="Arial" font-size="12px" font-weight="bold" text-anchor="middle" x="446.40625" y="302.109375">Living Room</text></g><g id="room_master_bedroom"><polygon fill="rgb(255,165,0)" fill-opacity="0.7" points="279.765625,306.328125 279.765625,403.359375 370.46875,403.359375 370.46875,306.328125" stroke="black" stroke-width="1.5" /><text dominant-baseline="middle" fill="black" font-family="Arial" font-size="12px" font-weight="bold" text-anchor="middle" x="326.171875" y="355.8984375">Master Bedroom</text></g><g id="room_common_room"><polygon fill="rgb(255,215,0)" fill-opacity="0.7" points="258.671875,198.75 258.671875,297.890625 340.9375,297.890625 340.9375,198.75" stroke="black" stroke-width="1.5" /><text dominant-baseline="middle" fill="black" font-family="Arial" font-size="12px" font-weight="bold" text-anchor="middle" x="300.859375" y="249.375">Common Room</text></g><g id="room_balcony"><polygon fill="rgb(107,142,35)" fill-opacity="0.7" points="378.90625,411.796875 378.90625,447.65625 541.328125,447.65625 541.328125,411.796875" stroke="black" stroke-width="1.5" /><text dominant-baseline="middle" fill="black" font-family="Arial" font-size="12px" font-weight="bold" text-anchor="middle" x="461.171875" y="430.78125">Balcony</text></g><g id="room_balcony_2"><polygon fill="rgb(107,142,35)" fill-opacity="0.7" points="393.671875,152.34375 393.671875,190.3125 486.484375,190.3125 486.484375,152.34375" stroke="black" stroke-width="1.5" /><text dominant-baseline="middle" fill="black" font-family="Arial" font-size="12px" font-weight="bold" text-anchor="middle" x="441.1328125" y="172.3828125">Balcony 2</text></g><g id="room_kitchen"><polygon fill="rgb(240,128,128)" fill-opacity="0.7" points="494.921875,198.75 494.921875,257.8125 541.328125,257.8125 541.328125,198.75" stroke="black" stroke-width="1.5" /><text dominant-baseline="middle" fill="black" font-family="Arial" font-size="12px" font-weight="bold" text-anchor="middle" x="519.1796875" y="229.3359375">Kitchen</text></g><g id="room_bathroom"><polygon fill="rgb(173,216,230)" fill-opacity="0.7" points="349.375,198.75 349.375,257.8125 385.234375,257.8125 385.234375,198.75" stroke="black" stroke-width="1.5" /><text dominant-baseline="middle" fill="black" font-family="Arial" font-size="12px" font-weight="bold" text-anchor="middle" x="368.359375" y="229.3359375">Bathroom</text></g><text fill="black" font-family="Arial" font-size="18px" font-weight="bold" text-anchor="middle" x="400.0" y="30">Floor Plan - ID: 66692</text></svg>