<?xml version="1.0" encoding="utf-8" ?>
<svg baseProfile="full" height="600px" version="1.1" viewBox="0 0 800 600" width="800px" xmlns="http://www.w3.org/2000/svg" xmlns:ev="http://www.w3.org/2001/xml-events" xmlns:xlink="http://www.w3.org/1999/xlink"><defs /><rect fill="white" height="600" width="800" x="0" y="0" /><polygon fill="none" id="floor_plan_boundary" points="560.3125,156.5625 423.203125,156.5625 421.09375,118.59375 330.390625,118.59375 328.28125,156.5625 239.6875,156.5625 239.6875,310.546875 267.109375,312.65625 267.109375,432.890625 286.09375,435.0 286.09375,481.40625 381.015625,481.40625 383.125,432.890625 505.46875,432.890625 505.46875,327.421875 530.78125,325.3125 530.78125,314.765625 501.25,321.09375 499.140625,428.671875 376.796875,428.671875 374.6875,477.1875 292.421875,477.1875 290.3125,428.671875 271.328125,426.5625 271.328125,306.328125 243.90625,304.21875 243.90625,162.890625 334.609375,160.78125 336.71875,122.8125 414.765625,122.8125 416.875,160.78125 553.984375,160.78125 556.09375,266.25 526.5625,268.359375 530.78125,285.234375 532.890625,272.578125 560.3125,272.578125" stroke="black" stroke-linecap="butt" stroke-linejoin="miter" stroke-width="4" /><g id="room_living_room"><polygon fill="rgb(238,232,170)" fill-opacity="0.7" points="423.203125,162.890625 423.203125,255.703125 305.078125,257.8125 305.078125,304.21875 385.234375,308.4375 383.125,426.5625 499.140625,426.5625 499.140625,321.09375 524.453125,318.984375 524.453125,274.6875 499.140625,272.578125 499.140625,162.890625" stroke="black" stroke-width="1.5" /><text dominant-baseline="middle" fill="black" font-family="Arial" font-size="12px" font-weight="bold" text-anchor="middle" x="415.8203125" y="295.78125">Living Room</text></g><g id="room_master_bedroom"><polygon fill="rgb(255,165,0)" fill-opacity="0.7" points="273.4375,312.65625 273.4375,426.5625 374.6875,426.5625 374.6875,312.65625" stroke="black" stroke-width="1.5" /><text dominant-baseline="middle" fill="black" font-family="Arial" font-size="12px" font-weight="bold" text-anchor="middle" x="325.1171875" y="370.6640625">Master Bedroom</text></g><g id="room_common_room_2"><polygon fill="rgb(255,215,0)" fill-opacity="0.7" points="246.015625,162.890625 246.015625,249.375 328.28125,249.375 328.28125,162.890625" stroke="black" stroke-width="1.5" /><text dominant-baseline="middle" fill="black" font-family="Arial" font-size="12px" font-weight="bold" text-anchor="middle" x="288.203125" y="207.1875">Common Room 2</text></g><g id="room_common_room"><polygon fill="rgb(255,215,0)" fill-opacity="0.7" points="336.71875,162.890625 336.71875,249.375 414.765625,249.375 414.765625,162.890625" stroke="black" stroke-width="1.5" /><text dominant-baseline="middle" fill="black" font-family="Arial" font-size="12px" font-weight="bold" text-anchor="middle" x="376.796875" y="207.1875">Common Room</text></g><g id="room_kitchen"><polygon fill="rgb(240,128,128)" fill-opacity="0.7" points="507.578125,162.890625 507.578125,266.25 553.984375,266.25 553.984375,162.890625" stroke="black" stroke-width="1.5" /><text dominant-baseline="middle" fill="black" font-family="Arial" font-size="12px" font-weight="bold" text-anchor="middle" x="531.8359375" y="215.625">Kitchen</text></g><g id="room_balcony"><polygon fill="rgb(107,142,35)" fill-opacity="0.7" points="292.421875,435.0 292.421875,475.078125 374.6875,475.078125 374.6875,435.0" stroke="black" stroke-width="1.5" /><text dominant-baseline="middle" fill="black" font-family="Arial" font-size="12px" font-weight="bold" text-anchor="middle" x="334.609375" y="456.09375">Balcony</text></g><g id="room_bathroom"><polygon fill="rgb(173,216,230)" fill-opacity="0.7" points="246.015625,257.8125 246.015625,304.21875 296.640625,304.21875 296.640625,257.8125" stroke="black" stroke-width="1.5" /><text dominant-baseline="middle" fill="black" font-family="Arial" font-size="12px" font-weight="bold" text-anchor="middle" x="272.3828125" y="282.0703125">Bathroom</text></g><g id="room_balcony_2"><polygon fill="rgb(107,142,35)" fill-opacity="0.7" points="336.71875,124.921875 336.71875,154.453125 414.765625,154.453125 414.765625,124.921875" stroke="black" stroke-width="1.5" /><text dominant-baseline="middle" fill="black" font-family="Arial" font-size="12px" font-weight="bold" text-anchor="middle" x="376.796875" y="140.7421875">Balcony 2</text></g><rect fill="red" fill-opacity="0.9" height="27.421875" id="main_door" stroke="darkred" stroke-width="3" width="6.328125" x="526.5625" y="287.34375" /><text dominant-baseline="middle" fill="white" font-family="Arial" font-size="9px" font-weight="bold" text-anchor="middle" x="529.7265625" y="301.0546875">Main Door</text><text fill="black" font-family="Arial" font-size="18px" font-weight="bold" text-anchor="middle" x="400.0" y="30">Floor Plan - ID: 66782</text></svg>