<?xml version="1.0" encoding="utf-8" ?>
<svg baseProfile="full" height="600px" version="1.1" viewBox="0 0 800 600" width="800px" xmlns="http://www.w3.org/2000/svg" xmlns:ev="http://www.w3.org/2001/xml-events" xmlns:xlink="http://www.w3.org/1999/xlink"><defs /><rect fill="white" height="600" width="800" x="0" y="0" /><polygon fill="none" id="floor_plan_boundary" points="227.03125,129.140625 227.03125,190.3125 262.890625,192.421875 262.890625,325.3125 227.03125,327.421875 227.03125,392.8125 296.640625,392.8125 298.75,331.640625 372.578125,331.640625 374.6875,470.859375 461.171875,470.859375 461.171875,394.921875 518.125,392.8125 518.125,253.59375 572.96875,251.484375 572.96875,129.140625 368.359375,129.140625 568.75,135.46875 568.75,245.15625 513.90625,247.265625 513.90625,386.484375 456.953125,388.59375 454.84375,466.640625 378.90625,464.53125 378.90625,327.421875 292.421875,327.421875 290.3125,388.59375 231.25,386.484375 231.25,333.75 267.109375,331.640625 267.109375,186.09375 231.25,183.984375 231.25,135.46875 343.046875,129.140625" stroke="black" stroke-linecap="butt" stroke-linejoin="miter" stroke-width="4" /><g id="room_living_room"><polygon fill="rgb(238,232,170)" fill-opacity="0.7" points="347.265625,135.46875 347.265625,245.15625 381.015625,247.265625 381.015625,325.3125 511.796875,325.3125 511.796875,224.0625 454.84375,221.953125 454.84375,135.46875" stroke="black" stroke-width="1.5" /><text dominant-baseline="middle" fill="black" font-family="Arial" font-size="12px" font-weight="bold" text-anchor="middle" x="430.5859375" y="231.4453125">Living Room</text></g><g id="room_master_bedroom"><polygon fill="rgb(255,165,0)" fill-opacity="0.7" points="381.015625,333.75 381.015625,464.53125 454.84375,464.53125 454.84375,333.75" stroke="black" stroke-width="1.5" /><text dominant-baseline="middle" fill="black" font-family="Arial" font-size="12px" font-weight="bold" text-anchor="middle" x="418.984375" y="400.1953125">Master Bedroom</text></g><g id="room_common_room_2"><polygon fill="rgb(255,215,0)" fill-opacity="0.7" points="463.28125,135.46875 463.28125,215.625 518.125,215.625 520.234375,245.15625 566.640625,245.15625 566.640625,135.46875" stroke="black" stroke-width="1.5" /><text dominant-baseline="middle" fill="black" font-family="Arial" font-size="12px" font-weight="bold" text-anchor="middle" x="516.015625" y="191.3671875">Common Room 2</text></g><g id="room_common_room"><polygon fill="rgb(255,215,0)" fill-opacity="0.7" points="269.21875,253.59375 269.21875,325.3125 372.578125,325.3125 372.578125,253.59375" stroke="black" stroke-width="1.5" /><text dominant-baseline="middle" fill="black" font-family="Arial" font-size="12px" font-weight="bold" text-anchor="middle" x="321.953125" y="290.5078125">Common Room</text></g><g id="room_kitchen"><polygon fill="rgb(240,128,128)" fill-opacity="0.7" points="233.359375,135.46875 233.359375,183.984375 338.828125,183.984375 338.828125,135.46875" stroke="black" stroke-width="1.5" /><text dominant-baseline="middle" fill="black" font-family="Arial" font-size="12px" font-weight="bold" text-anchor="middle" x="287.1484375" y="160.78125">Kitchen</text></g><g id="room_bathroom"><polygon fill="rgb(173,216,230)" fill-opacity="0.7" points="269.21875,192.421875 269.21875,245.15625 338.828125,245.15625 338.828125,192.421875" stroke="black" stroke-width="1.5" /><text dominant-baseline="middle" fill="black" font-family="Arial" font-size="12px" font-weight="bold" text-anchor="middle" x="305.078125" y="219.84375">Bathroom</text></g><g id="room_balcony_2"><polygon fill="rgb(107,142,35)" fill-opacity="0.7" points="233.359375,333.75 233.359375,386.484375 290.3125,386.484375 290.3125,333.75" stroke="black" stroke-width="1.5" /><text dominant-baseline="middle" fill="black" font-family="Arial" font-size="12px" font-weight="bold" text-anchor="middle" x="262.890625" y="361.171875">Balcony 2</text></g><g id="room_balcony"><polygon fill="rgb(107,142,35)" fill-opacity="0.7" points="463.28125,333.75 463.28125,386.484375 511.796875,386.484375 511.796875,333.75" stroke="black" stroke-width="1.5" /><text dominant-baseline="middle" fill="black" font-family="Arial" font-size="12px" font-weight="bold" text-anchor="middle" x="488.59375" y="361.171875">Balcony</text></g><text fill="black" font-family="Arial" font-size="18px" font-weight="bold" text-anchor="middle" x="400.0" y="30">Floor Plan - ID: 67094</text></svg>