<?xml version="1.0" encoding="utf-8" ?>
<svg baseProfile="full" height="600px" version="1.1" viewBox="0 0 800 600" width="800px" xmlns="http://www.w3.org/2000/svg" xmlns:ev="http://www.w3.org/2001/xml-events" xmlns:xlink="http://www.w3.org/1999/xlink"><defs /><rect fill="white" height="600" width="800" x="0" y="0" /><polygon fill="none" id="floor_plan_boundary" points="298.75,84.84375 298.75,481.40625 395.78125,481.40625 397.890625,515.15625 501.25,515.15625 501.25,278.90625 480.15625,283.125 497.03125,285.234375 494.921875,510.9375 404.21875,510.9375 402.109375,477.1875 302.96875,475.078125 302.96875,91.171875 395.78125,89.0625 397.890625,133.359375 478.046875,133.359375 480.15625,253.59375 484.375,129.140625 404.21875,129.140625 402.109375,84.84375" stroke="black" stroke-linecap="butt" stroke-linejoin="miter" stroke-width="4" /><g id="room_living_room"><polygon fill="rgb(238,232,170)" fill-opacity="0.7" points="305.078125,135.46875 305.078125,361.171875 433.75,361.171875 433.75,278.90625 478.046875,276.796875 478.046875,238.828125 395.78125,236.71875 395.78125,135.46875" stroke="black" stroke-width="1.5" /><text dominant-baseline="middle" fill="black" font-family="Arial" font-size="12px" font-weight="bold" text-anchor="middle" x="392.6171875" y="249.375">Living Room</text></g><g id="room_master_bedroom"><polygon fill="rgb(255,165,0)" fill-opacity="0.7" points="404.21875,369.609375 404.21875,475.078125 494.921875,475.078125 494.921875,369.609375" stroke="black" stroke-width="1.5" /><text dominant-baseline="middle" fill="black" font-family="Arial" font-size="12px" font-weight="bold" text-anchor="middle" x="450.625" y="423.3984375">Master Bedroom</text></g><g id="room_common_room"><polygon fill="rgb(255,215,0)" fill-opacity="0.7" points="305.078125,369.609375 305.078125,475.078125 395.78125,475.078125 395.78125,369.609375" stroke="black" stroke-width="1.5" /><text dominant-baseline="middle" fill="black" font-family="Arial" font-size="12px" font-weight="bold" text-anchor="middle" x="351.484375" y="423.3984375">Common Room</text></g><g id="room_kitchen"><polygon fill="rgb(240,128,128)" fill-opacity="0.7" points="404.21875,135.46875 404.21875,230.390625 478.046875,230.390625 478.046875,135.46875" stroke="black" stroke-width="1.5" /><text dominant-baseline="middle" fill="black" font-family="Arial" font-size="12px" font-weight="bold" text-anchor="middle" x="442.1875" y="183.984375">Kitchen</text></g><g id="room_bathroom"><polygon fill="rgb(173,216,230)" fill-opacity="0.7" points="442.1875,285.234375 442.1875,361.171875 494.921875,361.171875 494.921875,285.234375" stroke="black" stroke-width="1.5" /><text dominant-baseline="middle" fill="black" font-family="Arial" font-size="12px" font-weight="bold" text-anchor="middle" x="469.609375" y="324.2578125">Bathroom</text></g><g id="room_balcony_2"><polygon fill="rgb(107,142,35)" fill-opacity="0.7" points="305.078125,91.171875 305.078125,127.03125 395.78125,127.03125 395.78125,91.171875" stroke="black" stroke-width="1.5" /><text dominant-baseline="middle" fill="black" font-family="Arial" font-size="12px" font-weight="bold" text-anchor="middle" x="351.484375" y="110.15625">Balcony 2</text></g><g id="room_balcony"><polygon fill="rgb(107,142,35)" fill-opacity="0.7" points="404.21875,483.515625 404.21875,508.828125 494.921875,508.828125 494.921875,483.515625" stroke="black" stroke-width="1.5" /><text dominant-baseline="middle" fill="black" font-family="Arial" font-size="12px" font-weight="bold" text-anchor="middle" x="450.625" y="497.2265625">Balcony</text></g><rect fill="red" fill-opacity="0.9" height="27.421875" id="main_door" stroke="darkred" stroke-width="3" width="6.328125" x="480.15625" y="255.703125" /><text dominant-baseline="middle" fill="white" font-family="Arial" font-size="9px" font-weight="bold" text-anchor="middle" x="483.3203125" y="269.4140625">Main Door</text><text fill="black" font-family="Arial" font-size="18px" font-weight="bold" text-anchor="middle" x="400.0" y="30">Floor Plan - ID: 67349</text></svg>