<?xml version="1.0" encoding="utf-8" ?>
<svg baseProfile="full" height="600px" version="1.1" viewBox="0 0 800 600" width="800px" xmlns="http://www.w3.org/2000/svg" xmlns:ev="http://www.w3.org/2001/xml-events" xmlns:xlink="http://www.w3.org/1999/xlink"><defs /><rect fill="white" height="600" width="800" x="0" y="0" /><polygon fill="none" id="floor_plan_boundary" points="315.625,89.0625 315.625,207.1875 321.953125,93.28125 397.890625,93.28125 400.0,148.125 516.015625,150.234375 516.015625,483.515625 370.46875,485.625 368.359375,506.71875 283.984375,504.609375 283.984375,323.203125 319.84375,321.09375 315.625,236.71875 315.625,314.765625 279.765625,316.875 279.765625,510.9375 374.6875,510.9375 376.796875,489.84375 520.234375,489.84375 520.234375,143.90625 406.328125,143.90625 404.21875,89.0625" stroke="black" stroke-linecap="butt" stroke-linejoin="miter" stroke-width="4" /><g id="room_living_room"><polygon fill="rgb(238,232,170)" fill-opacity="0.7" points="513.90625,150.234375 406.328125,150.234375 404.21875,213.515625 321.953125,213.515625 321.953125,238.828125 385.234375,240.9375 385.234375,350.625 414.765625,350.625 416.875,314.765625 513.90625,314.765625" stroke="black" stroke-width="1.5" /><text dominant-baseline="middle" fill="black" font-family="Arial" font-size="12px" font-weight="bold" text-anchor="middle" x="418.984375" y="251.484375">Living Room</text></g><g id="room_master_bedroom"><polygon fill="rgb(255,165,0)" fill-opacity="0.7" points="286.09375,323.203125 286.09375,447.65625 414.765625,447.65625 414.765625,359.0625 378.90625,359.0625 376.796875,323.203125" stroke="black" stroke-width="1.5" /><text dominant-baseline="middle" fill="black" font-family="Arial" font-size="12px" font-weight="bold" text-anchor="middle" x="351.484375" y="386.484375">Master Bedroom</text></g><g id="room_common_room"><polygon fill="rgb(255,215,0)" fill-opacity="0.7" points="423.203125,323.203125 423.203125,447.65625 513.90625,447.65625 513.90625,323.203125" stroke="black" stroke-width="1.5" /><text dominant-baseline="middle" fill="black" font-family="Arial" font-size="12px" font-weight="bold" text-anchor="middle" x="469.609375" y="386.484375">Common Room</text></g><g id="room_kitchen"><polygon fill="rgb(240,128,128)" fill-opacity="0.7" points="321.953125,95.390625 321.953125,205.078125 397.890625,205.078125 397.890625,95.390625" stroke="black" stroke-width="1.5" /><text dominant-baseline="middle" fill="black" font-family="Arial" font-size="12px" font-weight="bold" text-anchor="middle" x="360.9765625" y="151.2890625">Kitchen</text></g><g id="room_balcony_2"><polygon fill="rgb(107,142,35)" fill-opacity="0.7" points="286.09375,456.09375 286.09375,504.609375 368.359375,504.609375 370.46875,483.515625 414.765625,483.515625 414.765625,456.09375" stroke="black" stroke-width="1.5" /><text dominant-baseline="middle" fill="black" font-family="Arial" font-size="12px" font-weight="bold" text-anchor="middle" x="351.484375" y="481.40625">Balcony 2</text></g><g id="room_bathroom"><polygon fill="rgb(173,216,230)" fill-opacity="0.7" points="321.953125,247.265625 321.953125,314.765625 376.796875,314.765625 376.796875,247.265625" stroke="black" stroke-width="1.5" /><text dominant-baseline="middle" fill="black" font-family="Arial" font-size="12px" font-weight="bold" text-anchor="middle" x="350.4296875" y="282.0703125">Bathroom</text></g><g id="room_balcony"><polygon fill="rgb(107,142,35)" fill-opacity="0.7" points="423.203125,456.09375 423.203125,483.515625 513.90625,483.515625 513.90625,456.09375" stroke="black" stroke-width="1.5" /><text dominant-baseline="middle" fill="black" font-family="Arial" font-size="12px" font-weight="bold" text-anchor="middle" x="469.609375" y="470.859375">Balcony</text></g><rect fill="red" fill-opacity="0.9" height="27.421875" id="main_door" stroke="darkred" stroke-width="3" width="6.328125" x="315.625" y="209.296875" /><text dominant-baseline="middle" fill="white" font-family="Arial" font-size="9px" font-weight="bold" text-anchor="middle" x="318.7890625" y="223.0078125">Main Door</text><text fill="black" font-family="Arial" font-size="18px" font-weight="bold" text-anchor="middle" x="400.0" y="30">Floor Plan - ID: 67465</text></svg>