<?xml version="1.0" encoding="utf-8" ?>
<svg baseProfile="full" height="600px" version="1.1" viewBox="0 0 800 600" width="800px" xmlns="http://www.w3.org/2000/svg" xmlns:ev="http://www.w3.org/2001/xml-events" xmlns:xlink="http://www.w3.org/1999/xlink"><defs /><rect fill="white" height="600" width="800" x="0" y="0" /><polygon fill="none" id="floor_plan_boundary" points="212.265625,156.5625 216.484375,276.796875 218.59375,160.78125 357.8125,160.78125 359.921875,133.359375 549.765625,133.359375 551.875,272.578125 583.515625,274.6875 581.40625,428.671875 475.9375,428.671875 473.828125,466.640625 359.921875,466.640625 357.8125,304.21875 212.265625,308.4375 353.59375,310.546875 353.59375,470.859375 480.15625,470.859375 482.265625,432.890625 587.734375,432.890625 587.734375,268.359375 556.09375,266.25 556.09375,129.140625 353.59375,129.140625 351.484375,156.5625" stroke="black" stroke-linecap="butt" stroke-linejoin="miter" stroke-width="4" /><g id="room_living_room"><polygon fill="rgb(238,232,170)" fill-opacity="0.7" points="359.921875,135.46875 359.921875,228.28125 290.3125,230.390625 290.3125,272.578125 218.59375,274.6875 218.59375,302.109375 357.8125,302.109375 359.921875,426.5625 473.828125,426.5625 473.828125,314.765625 499.140625,312.65625 499.140625,274.6875 473.828125,272.578125 473.828125,230.390625 437.96875,228.28125 437.96875,135.46875" stroke="black" stroke-width="1.5" /><text dominant-baseline="middle" fill="black" font-family="Arial" font-size="12px" font-weight="bold" text-anchor="middle" x="359.921875" y="282.0703125">Living Room</text></g><g id="room_master_bedroom"><polygon fill="rgb(255,165,0)" fill-opacity="0.7" points="507.578125,274.6875 507.578125,318.984375 482.265625,321.09375 482.265625,426.5625 581.40625,426.5625 581.40625,274.6875" stroke="black" stroke-width="1.5" /><text dominant-baseline="middle" fill="black" font-family="Arial" font-size="12px" font-weight="bold" text-anchor="middle" x="532.890625" y="351.6796875">Master Bedroom</text></g><g id="room_common_room"><polygon fill="rgb(255,215,0)" fill-opacity="0.7" points="446.40625,135.46875 446.40625,221.953125 549.765625,221.953125 549.765625,135.46875" stroke="black" stroke-width="1.5" /><text dominant-baseline="middle" fill="black" font-family="Arial" font-size="12px" font-weight="bold" text-anchor="middle" x="499.140625" y="179.765625">Common Room</text></g><g id="room_kitchen"><polygon fill="rgb(240,128,128)" fill-opacity="0.7" points="218.59375,162.890625 218.59375,266.25 281.875,266.25 281.875,162.890625" stroke="black" stroke-width="1.5" /><text dominant-baseline="middle" fill="black" font-family="Arial" font-size="12px" font-weight="bold" text-anchor="middle" x="251.2890625" y="215.625">Kitchen</text></g><g id="room_room_7"><polygon fill="rgb(221,160,221)" fill-opacity="0.7" points="290.3125,162.890625 290.3125,221.953125 351.484375,221.953125 351.484375,162.890625" stroke="black" stroke-width="1.5" /><text dominant-baseline="middle" fill="black" font-family="Arial" font-size="12px" font-weight="bold" text-anchor="middle" x="321.953125" y="193.4765625">Room 7</text></g><g id="room_balcony"><polygon fill="rgb(107,142,35)" fill-opacity="0.7" points="359.921875,435.0 359.921875,464.53125 473.828125,464.53125 473.828125,435.0" stroke="black" stroke-width="1.5" /><text dominant-baseline="middle" fill="black" font-family="Arial" font-size="12px" font-weight="bold" text-anchor="middle" x="417.9296875" y="450.8203125">Balcony</text></g><g id="room_bathroom"><polygon fill="rgb(173,216,230)" fill-opacity="0.7" points="482.265625,230.390625 482.265625,266.25 549.765625,266.25 549.765625,230.390625" stroke="black" stroke-width="1.5" /><text dominant-baseline="middle" fill="black" font-family="Arial" font-size="12px" font-weight="bold" text-anchor="middle" x="517.0703125" y="249.375">Bathroom</text></g><rect fill="red" fill-opacity="0.9" height="27.421875" id="main_door" stroke="darkred" stroke-width="3" width="6.328125" x="212.265625" y="278.90625" /><text dominant-baseline="middle" fill="white" font-family="Arial" font-size="9px" font-weight="bold" text-anchor="middle" x="215.4296875" y="292.6171875">Main Door</text><text fill="black" font-family="Arial" font-size="18px" font-weight="bold" text-anchor="middle" x="400.0" y="30">Floor Plan - ID: 67751</text></svg>