<?xml version="1.0" encoding="utf-8" ?>
<svg baseProfile="full" height="600px" version="1.1" viewBox="0 0 800 600" width="800px" xmlns="http://www.w3.org/2000/svg" xmlns:ev="http://www.w3.org/2001/xml-events" xmlns:xlink="http://www.w3.org/1999/xlink"><defs /><rect fill="white" height="600" width="800" x="0" y="0" /><polygon fill="none" id="floor_plan_boundary" points="273.4375,135.46875 273.4375,226.171875 239.6875,228.28125 239.6875,262.03125 248.125,262.03125 250.234375,236.71875 281.875,236.71875 283.984375,143.90625 551.875,146.015625 551.875,323.203125 450.625,325.3125 448.515625,456.09375 347.265625,456.09375 345.15625,306.328125 250.234375,306.328125 248.125,291.5625 239.6875,291.5625 239.6875,314.765625 336.71875,316.875 336.71875,464.53125 459.0625,464.53125 459.0625,335.859375 560.3125,333.75 560.3125,135.46875" stroke="black" stroke-linecap="butt" stroke-linejoin="miter" stroke-width="4" /><g id="room_living_room"><polygon fill="rgb(238,232,170)" fill-opacity="0.7" points="250.234375,238.828125 250.234375,304.21875 347.265625,306.328125 347.265625,453.984375 448.515625,453.984375 448.515625,238.828125 385.234375,238.828125 383.125,207.1875 353.59375,207.1875 351.484375,238.828125" stroke="black" stroke-width="1.5" /><text dominant-baseline="middle" fill="black" font-family="Arial" font-size="12px" font-weight="bold" text-anchor="middle" x="350.4296875" y="331.640625">Living Room</text></g><g id="room_master_bedroom"><polygon fill="rgb(255,165,0)" fill-opacity="0.7" points="395.78125,146.015625 395.78125,226.171875 549.765625,226.171875 549.765625,146.015625" stroke="black" stroke-width="1.5" /><text dominant-baseline="middle" fill="black" font-family="Arial" font-size="12px" font-weight="bold" text-anchor="middle" x="473.828125" y="187.1484375">Master Bedroom</text></g><g id="room_common_room"><polygon fill="rgb(255,215,0)" fill-opacity="0.7" points="461.171875,238.828125 461.171875,323.203125 549.765625,323.203125 549.765625,238.828125" stroke="black" stroke-width="1.5" /><text dominant-baseline="middle" fill="black" font-family="Arial" font-size="12px" font-weight="bold" text-anchor="middle" x="506.5234375" y="282.0703125">Common Room</text></g><g id="room_bathroom"><polygon fill="rgb(173,216,230)" fill-opacity="0.7" points="283.984375,146.015625 283.984375,226.171875 340.9375,226.171875 340.9375,146.015625" stroke="black" stroke-width="1.5" /><text dominant-baseline="middle" fill="black" font-family="Arial" font-size="12px" font-weight="bold" text-anchor="middle" x="313.515625" y="187.1484375">Bathroom</text></g><rect fill="red" fill-opacity="0.9" height="27.421875" id="main_door" stroke="darkred" stroke-width="3" width="10.546875" x="239.6875" y="264.140625" /><text dominant-baseline="middle" fill="white" font-family="Arial" font-size="9px" font-weight="bold" text-anchor="middle" x="244.9609375" y="277.8515625">Main Door</text><text fill="black" font-family="Arial" font-size="18px" font-weight="bold" text-anchor="middle" x="400.0" y="30">Floor Plan - ID: 67886</text></svg>