<?xml version="1.0" encoding="utf-8" ?>
<svg baseProfile="full" height="600px" version="1.1" viewBox="0 0 800 600" width="800px" xmlns="http://www.w3.org/2000/svg" xmlns:ev="http://www.w3.org/2001/xml-events" xmlns:xlink="http://www.w3.org/1999/xlink"><defs /><rect fill="white" height="600" width="800" x="0" y="0" /><polygon fill="none" id="floor_plan_boundary" points="376.796875,78.515625 374.6875,181.875 252.34375,181.875 252.34375,310.546875 302.96875,312.65625 302.96875,350.625 283.984375,352.734375 283.984375,420.234375 347.265625,422.34375 347.265625,468.75 332.5,470.859375 332.5,519.375 425.3125,519.375 427.421875,502.5 461.171875,502.5 463.28125,521.484375 547.65625,521.484375 547.65625,361.171875 532.890625,359.0625 532.890625,302.109375 450.625,302.109375 450.625,310.546875 524.453125,312.65625 524.453125,369.609375 539.21875,371.71875 537.109375,513.046875 473.828125,513.046875 471.71875,494.0625 416.875,494.0625 414.765625,510.9375 343.046875,510.9375 340.9375,481.40625 355.703125,479.296875 355.703125,411.796875 292.421875,409.6875 292.421875,363.28125 311.40625,361.171875 311.40625,302.109375 260.78125,300.0 262.890625,190.3125 385.234375,190.3125 385.234375,89.0625 437.96875,86.953125 440.078125,169.21875 450.625,171.328125 450.625,264.140625 459.0625,264.140625 448.515625,78.515625" stroke="black" stroke-linecap="butt" stroke-linejoin="miter" stroke-width="4" /><g id="room_living_room"><polygon fill="rgb(238,232,170)" fill-opacity="0.7" points="313.515625,192.421875 313.515625,300.0 404.21875,300.0 406.328125,392.8125 440.078125,392.8125 448.515625,171.328125 387.34375,169.21875 385.234375,192.421875" stroke="black" stroke-width="1.5" /><text dominant-baseline="middle" fill="black" font-family="Arial" font-size="12px" font-weight="bold" text-anchor="middle" x="382.0703125" y="282.0703125">Living Room</text></g><g id="room_master_bedroom"><polygon fill="rgb(255,165,0)" fill-opacity="0.7" points="448.515625,369.609375 450.625,491.953125 471.71875,491.953125 473.828125,510.9375 537.109375,510.9375 537.109375,371.71875" stroke="black" stroke-width="1.5" /><text dominant-baseline="middle" fill="black" font-family="Arial" font-size="12px" font-weight="bold" text-anchor="middle" x="493.8671875" y="441.328125">Master Bedroom</text></g><g id="room_common_room"><polygon fill="rgb(255,215,0)" fill-opacity="0.7" points="357.8125,405.46875 357.8125,479.296875 343.046875,481.40625 343.046875,508.828125 414.765625,508.828125 416.875,491.953125 437.96875,491.953125 437.96875,405.46875" stroke="black" stroke-width="1.5" /><text dominant-baseline="middle" fill="black" font-family="Arial" font-size="12px" font-weight="bold" text-anchor="middle" x="391.5625" y="458.203125">Common Room</text></g><g id="room_common_room_2"><polygon fill="rgb(255,215,0)" fill-opacity="0.7" points="313.515625,312.65625 313.515625,361.171875 294.53125,363.28125 294.53125,409.6875 345.15625,409.6875 347.265625,392.8125 397.890625,392.8125 397.890625,312.65625" stroke="black" stroke-width="1.5" /><text dominant-baseline="middle" fill="black" font-family="Arial" font-size="12px" font-weight="bold" text-anchor="middle" x="347.265625" y="362.2265625">Common Room 2</text></g><g id="room_balcony"><polygon fill="rgb(107,142,35)" fill-opacity="0.7" points="262.890625,192.421875 262.890625,300.0 300.859375,300.0 300.859375,192.421875" stroke="black" stroke-width="1.5" /><text dominant-baseline="middle" fill="black" font-family="Arial" font-size="12px" font-weight="bold" text-anchor="middle" x="282.9296875" y="247.265625">Balcony</text></g><g id="room_kitchen"><polygon fill="rgb(240,128,128)" fill-opacity="0.7" points="387.34375,89.0625 387.34375,160.78125 437.96875,160.78125 437.96875,89.0625" stroke="black" stroke-width="1.5" /><text dominant-baseline="middle" fill="black" font-family="Arial" font-size="12px" font-weight="bold" text-anchor="middle" x="413.7109375" y="125.9765625">Kitchen</text></g><g id="room_bathroom"><polygon fill="rgb(173,216,230)" fill-opacity="0.7" points="448.515625,314.765625 448.515625,361.171875 522.34375,361.171875 522.34375,312.65625" stroke="black" stroke-width="1.5" /><text dominant-baseline="middle" fill="black" font-family="Arial" font-size="12px" font-weight="bold" text-anchor="middle" x="486.484375" y="337.96875">Bathroom</text></g><rect fill="red" fill-opacity="0.9" height="35.859375" id="main_door" stroke="darkred" stroke-width="3" width="10.546875" x="450.625" y="266.25" /><text dominant-baseline="middle" fill="white" font-family="Arial" font-size="9px" font-weight="bold" text-anchor="middle" x="455.8984375" y="284.1796875">Main Door</text><text fill="black" font-family="Arial" font-size="18px" font-weight="bold" text-anchor="middle" x="400.0" y="30">Floor Plan - ID: 67924</text></svg>