<?xml version="1.0" encoding="utf-8" ?>
<svg baseProfile="full" height="600px" version="1.1" viewBox="0 0 800 600" width="800px" xmlns="http://www.w3.org/2000/svg" xmlns:ev="http://www.w3.org/2001/xml-events" xmlns:xlink="http://www.w3.org/1999/xlink"><defs /><rect fill="white" height="600" width="800" x="0" y="0" /><polygon fill="none" id="floor_plan_boundary" points="233.359375,167.109375 233.359375,295.78125 305.078125,297.890625 305.078125,432.890625 410.546875,432.890625 412.65625,397.03125 530.78125,397.03125 530.78125,259.921875 566.640625,257.8125 566.640625,167.109375 497.03125,167.109375 494.921875,194.53125 389.453125,194.53125 385.234375,167.109375 383.125,198.75 501.25,198.75 503.359375,171.328125 562.421875,173.4375 562.421875,251.484375 526.5625,253.59375 526.5625,390.703125 406.328125,392.8125 404.21875,428.671875 311.40625,428.671875 309.296875,291.5625 237.578125,289.453125 237.578125,173.4375 359.921875,167.109375" stroke="black" stroke-linecap="butt" stroke-linejoin="miter" stroke-width="4" /><g id="room_living_room"><polygon fill="rgb(238,232,170)" fill-opacity="0.7" points="239.6875,173.4375 239.6875,289.453125 440.078125,289.453125 440.078125,236.71875 469.609375,234.609375 469.609375,200.859375 383.125,200.859375 381.015625,173.4375" stroke="black" stroke-width="1.5" /><text dominant-baseline="middle" fill="black" font-family="Arial" font-size="12px" font-weight="bold" text-anchor="middle" x="355.703125" y="232.5">Living Room</text></g><g id="room_common_room"><polygon fill="rgb(255,215,0)" fill-opacity="0.7" points="412.65625,297.890625 412.65625,390.703125 524.453125,390.703125 524.453125,297.890625" stroke="black" stroke-width="1.5" /><text dominant-baseline="middle" fill="black" font-family="Arial" font-size="12px" font-weight="bold" text-anchor="middle" x="469.609375" y="345.3515625">Common Room</text></g><g id="room_master_bedroom"><polygon fill="rgb(255,165,0)" fill-opacity="0.7" points="311.40625,297.890625 311.40625,390.703125 404.21875,390.703125 404.21875,297.890625" stroke="black" stroke-width="1.5" /><text dominant-baseline="middle" fill="black" font-family="Arial" font-size="12px" font-weight="bold" text-anchor="middle" x="358.8671875" y="345.3515625">Master Bedroom</text></g><g id="room_kitchen"><polygon fill="rgb(240,128,128)" fill-opacity="0.7" points="503.359375,173.4375 503.359375,198.75 478.046875,200.859375 478.046875,234.609375 530.78125,234.609375 532.890625,251.484375 560.3125,251.484375 560.3125,173.4375" stroke="black" stroke-width="1.5" /><text dominant-baseline="middle" fill="black" font-family="Arial" font-size="12px" font-weight="bold" text-anchor="middle" x="520.234375" y="213.515625">Kitchen</text></g><g id="room_bathroom"><polygon fill="rgb(173,216,230)" fill-opacity="0.7" points="448.515625,243.046875 448.515625,289.453125 524.453125,289.453125 524.453125,243.046875" stroke="black" stroke-width="1.5" /><text dominant-baseline="middle" fill="black" font-family="Arial" font-size="12px" font-weight="bold" text-anchor="middle" x="487.5390625" y="267.3046875">Bathroom</text></g><g id="room_balcony"><polygon fill="rgb(107,142,35)" fill-opacity="0.7" points="311.40625,399.140625 311.40625,426.5625 404.21875,426.5625 404.21875,399.140625" stroke="black" stroke-width="1.5" /><text dominant-baseline="middle" fill="black" font-family="Arial" font-size="12px" font-weight="bold" text-anchor="middle" x="358.8671875" y="413.90625">Balcony</text></g><text fill="black" font-family="Arial" font-size="18px" font-weight="bold" text-anchor="middle" x="400.0" y="30">Floor Plan - ID: 68027</text></svg>