<?xml version="1.0" encoding="utf-8" ?>
<svg baseProfile="full" height="600px" version="1.1" viewBox="0 0 800 600" width="800px" xmlns="http://www.w3.org/2000/svg" xmlns:ev="http://www.w3.org/2001/xml-events" xmlns:xlink="http://www.w3.org/1999/xlink"><defs /><rect fill="white" height="600" width="800" x="0" y="0" /><polygon fill="none" id="floor_plan_boundary" points="237.578125,200.859375 237.578125,283.125 256.5625,285.234375 256.5625,306.328125 212.265625,308.4375 212.265625,437.109375 423.203125,437.109375 423.203125,428.671875 220.703125,426.5625 220.703125,318.984375 265.0,316.875 265.0,274.6875 246.015625,272.578125 246.015625,211.40625 391.5625,209.296875 393.671875,171.328125 478.046875,171.328125 480.15625,209.296875 579.296875,211.40625 579.296875,291.5625 562.421875,293.671875 562.421875,426.5625 452.734375,428.671875 452.734375,437.109375 570.859375,437.109375 570.859375,304.21875 587.734375,302.109375 587.734375,200.859375 490.703125,200.859375 488.59375,162.890625 383.125,162.890625 381.015625,200.859375" stroke="black" stroke-linecap="butt" stroke-linejoin="miter" stroke-width="4" /><g id="room_living_room"><polygon fill="rgb(238,232,170)" fill-opacity="0.7" points="480.15625,276.796875 391.5625,276.796875 389.453125,318.984375 222.8125,318.984375 222.8125,426.5625 492.8125,426.5625 492.8125,356.953125 442.1875,354.84375 444.296875,295.78125 480.15625,293.671875" stroke="black" stroke-width="1.5" /><text dominant-baseline="middle" fill="black" font-family="Arial" font-size="12px" font-weight="bold" text-anchor="middle" x="358.8671875" y="352.734375">Living Room</text></g><g id="room_master_bedroom"><polygon fill="rgb(255,165,0)" fill-opacity="0.7" points="248.125,211.40625 248.125,272.578125 267.109375,274.6875 267.109375,306.328125 383.125,306.328125 383.125,211.40625" stroke="black" stroke-width="1.5" /><text dominant-baseline="middle" fill="black" font-family="Arial" font-size="12px" font-weight="bold" text-anchor="middle" x="316.6796875" y="259.921875">Master Bedroom</text></g><g id="room_common_room_2"><polygon fill="rgb(255,215,0)" fill-opacity="0.7" points="393.671875,173.4375 391.5625,268.359375 480.15625,268.359375 478.046875,173.4375" stroke="black" stroke-width="1.5" /><text dominant-baseline="middle" fill="black" font-family="Arial" font-size="12px" font-weight="bold" text-anchor="middle" x="436.9140625" y="221.953125">Common Room 2</text></g><g id="room_common_room"><polygon fill="rgb(255,215,0)" fill-opacity="0.7" points="488.59375,211.40625 488.59375,293.671875 577.1875,291.5625 577.1875,211.40625" stroke="black" stroke-width="1.5" /><text dominant-baseline="middle" fill="black" font-family="Arial" font-size="12px" font-weight="bold" text-anchor="middle" x="533.9453125" y="253.59375">Common Room</text></g><g id="room_bathroom"><polygon fill="rgb(173,216,230)" fill-opacity="0.7" points="452.734375,302.109375 452.734375,344.296875 560.3125,344.296875 560.3125,302.109375" stroke="black" stroke-width="1.5" /><text dominant-baseline="middle" fill="black" font-family="Arial" font-size="12px" font-weight="bold" text-anchor="middle" x="507.578125" y="324.2578125">Bathroom</text></g><g id="room_kitchen"><polygon fill="rgb(240,128,128)" fill-opacity="0.7" points="501.25,356.953125 501.25,426.5625 560.3125,426.5625 560.3125,356.953125" stroke="black" stroke-width="1.5" /><text dominant-baseline="middle" fill="black" font-family="Arial" font-size="12px" font-weight="bold" text-anchor="middle" x="531.8359375" y="392.8125">Kitchen</text></g><rect fill="red" fill-opacity="0.9" height="10.546875" id="main_door" stroke="darkred" stroke-width="3" width="27.421875" x="425.3125" y="428.671875" /><text dominant-baseline="middle" fill="white" font-family="Arial" font-size="9px" font-weight="bold" text-anchor="middle" x="439.0234375" y="433.9453125">Main Door</text><text fill="black" font-family="Arial" font-size="18px" font-weight="bold" text-anchor="middle" x="400.0" y="30">Floor Plan - ID: 68181</text></svg>