<?xml version="1.0" encoding="utf-8" ?>
<svg baseProfile="full" height="600px" version="1.1" viewBox="0 0 800 600" width="800px" xmlns="http://www.w3.org/2000/svg" xmlns:ev="http://www.w3.org/2001/xml-events" xmlns:xlink="http://www.w3.org/1999/xlink"><defs /><rect fill="white" height="600" width="800" x="0" y="0" /><polygon fill="none" id="floor_plan_boundary" points="340.9375,103.828125 340.9375,139.6875 321.953125,141.796875 321.953125,198.75 248.125,200.859375 248.125,293.671875 298.75,291.5625 298.75,285.234375 256.5625,283.125 256.5625,211.40625 330.390625,209.296875 330.390625,152.34375 347.265625,150.234375 347.265625,108.046875 425.3125,108.046875 425.3125,150.234375 541.328125,150.234375 541.328125,487.734375 467.5,485.625 467.5,441.328125 448.515625,439.21875 448.515625,323.203125 321.953125,323.203125 319.84375,344.296875 300.859375,344.296875 298.75,329.53125 290.3125,329.53125 290.3125,352.734375 330.390625,352.734375 332.5,331.640625 437.96875,331.640625 440.078125,449.765625 459.0625,451.875 459.0625,496.171875 551.875,496.171875 551.875,141.796875 433.75,141.796875 431.640625,103.828125" stroke="black" stroke-linecap="butt" stroke-linejoin="miter" stroke-width="4" /><g id="room_living_room"><polygon fill="rgb(238,232,170)" fill-opacity="0.7" points="347.265625,110.15625 349.375,150.234375 332.5,152.34375 332.5,293.671875 300.859375,295.78125 300.859375,342.1875 319.84375,342.1875 321.953125,321.09375 473.828125,321.09375 473.828125,268.359375 437.96875,266.25 437.96875,152.34375 423.203125,150.234375 425.3125,110.15625" stroke="black" stroke-width="1.5" /><text dominant-baseline="middle" fill="black" font-family="Arial" font-size="12px" font-weight="bold" text-anchor="middle" x="388.3984375" y="227.2265625">Living Room</text></g><g id="room_master_bedroom"><polygon fill="rgb(255,165,0)" fill-opacity="0.7" points="450.625,333.75 450.625,439.21875 469.609375,441.328125 469.609375,485.625 541.328125,485.625 541.328125,333.75" stroke="black" stroke-width="1.5" /><text dominant-baseline="middle" fill="black" font-family="Arial" font-size="12px" font-weight="bold" text-anchor="middle" x="497.03125" y="410.7421875">Master Bedroom</text></g><g id="room_common_room"><polygon fill="rgb(255,215,0)" fill-opacity="0.7" points="450.625,152.34375 450.625,259.921875 541.328125,259.921875 541.328125,152.34375" stroke="black" stroke-width="1.5" /><text dominant-baseline="middle" fill="black" font-family="Arial" font-size="12px" font-weight="bold" text-anchor="middle" x="497.03125" y="207.1875">Common Room</text></g><g id="room_kitchen"><polygon fill="rgb(240,128,128)" fill-opacity="0.7" points="258.671875,211.40625 258.671875,283.125 319.84375,283.125 319.84375,211.40625" stroke="black" stroke-width="1.5" /><text dominant-baseline="middle" fill="black" font-family="Arial" font-size="12px" font-weight="bold" text-anchor="middle" x="290.3125" y="248.3203125">Kitchen</text></g><g id="room_bathroom"><polygon fill="rgb(173,216,230)" fill-opacity="0.7" points="486.484375,268.359375 486.484375,321.09375 541.328125,321.09375 541.328125,268.359375" stroke="black" stroke-width="1.5" /><text dominant-baseline="middle" fill="black" font-family="Arial" font-size="12px" font-weight="bold" text-anchor="middle" x="514.9609375" y="295.78125">Bathroom</text></g><rect fill="red" fill-opacity="0.9" height="35.859375" id="main_door" stroke="darkred" stroke-width="3" width="10.546875" x="290.3125" y="293.671875" /><text dominant-baseline="middle" fill="white" font-family="Arial" font-size="9px" font-weight="bold" text-anchor="middle" x="295.5859375" y="311.6015625">Main Door</text><text fill="black" font-family="Arial" font-size="18px" font-weight="bold" text-anchor="middle" x="400.0" y="30">Floor Plan - ID: 68215</text></svg>