<?xml version="1.0" encoding="utf-8" ?>
<svg baseProfile="full" height="600px" version="1.1" viewBox="0 0 800 600" width="800px" xmlns="http://www.w3.org/2000/svg" xmlns:ev="http://www.w3.org/2001/xml-events" xmlns:xlink="http://www.w3.org/1999/xlink"><defs /><rect fill="white" height="600" width="800" x="0" y="0" /><polygon fill="none" id="floor_plan_boundary" points="218.59375,200.859375 218.59375,270.46875 328.28125,270.46875 224.921875,266.25 222.8125,207.1875 334.609375,205.078125 336.71875,146.015625 575.078125,146.015625 575.078125,453.984375 465.390625,453.984375 463.28125,407.578125 410.546875,407.578125 408.4375,304.21875 362.03125,304.21875 359.921875,325.3125 336.71875,325.3125 330.390625,304.21875 330.390625,329.53125 366.25,329.53125 368.359375,308.4375 402.109375,308.4375 404.21875,411.796875 456.953125,411.796875 459.0625,458.203125 581.40625,458.203125 581.40625,141.796875 330.390625,141.796875 328.28125,200.859375" stroke="black" stroke-linecap="butt" stroke-linejoin="miter" stroke-width="4" /><g id="room_living_room"><polygon fill="rgb(238,232,170)" fill-opacity="0.7" points="336.71875,148.125 336.71875,323.203125 359.921875,323.203125 362.03125,302.109375 456.953125,302.109375 459.0625,285.234375 486.484375,285.234375 486.484375,266.25 456.953125,264.140625 456.953125,148.125" stroke="black" stroke-width="1.5" /><text dominant-baseline="middle" fill="black" font-family="Arial" font-size="12px" font-weight="bold" text-anchor="middle" x="412.65625" y="236.71875">Living Room</text></g><g id="room_master_bedroom"><polygon fill="rgb(255,165,0)" fill-opacity="0.7" points="494.921875,266.25 492.8125,293.671875 465.390625,293.671875 465.390625,405.46875 575.078125,405.46875 575.078125,266.25" stroke="black" stroke-width="1.5" /><text dominant-baseline="middle" fill="black" font-family="Arial" font-size="12px" font-weight="bold" text-anchor="middle" x="521.2890625" y="336.9140625">Master Bedroom</text></g><g id="room_common_room"><polygon fill="rgb(255,215,0)" fill-opacity="0.7" points="465.390625,148.125 465.390625,257.8125 575.078125,257.8125 575.078125,148.125" stroke="black" stroke-width="1.5" /><text dominant-baseline="middle" fill="black" font-family="Arial" font-size="12px" font-weight="bold" text-anchor="middle" x="521.2890625" y="204.0234375">Common Room</text></g><g id="room_kitchen"><polygon fill="rgb(240,128,128)" fill-opacity="0.7" points="224.921875,207.1875 224.921875,264.140625 328.28125,264.140625 328.28125,207.1875" stroke="black" stroke-width="1.5" /><text dominant-baseline="middle" fill="black" font-family="Arial" font-size="12px" font-weight="bold" text-anchor="middle" x="277.65625" y="236.71875">Kitchen</text></g><g id="room_bathroom"><polygon fill="rgb(173,216,230)" fill-opacity="0.7" points="410.546875,310.546875 410.546875,405.46875 456.953125,405.46875 456.953125,310.546875" stroke="black" stroke-width="1.5" /><text dominant-baseline="middle" fill="black" font-family="Arial" font-size="12px" font-weight="bold" text-anchor="middle" x="434.8046875" y="359.0625">Bathroom</text></g><g id="room_balcony"><polygon fill="rgb(107,142,35)" fill-opacity="0.7" points="465.390625,413.90625 465.390625,451.875 575.078125,451.875 575.078125,413.90625" stroke="black" stroke-width="1.5" /><text dominant-baseline="middle" fill="black" font-family="Arial" font-size="12px" font-weight="bold" text-anchor="middle" x="521.2890625" y="433.9453125">Balcony</text></g><rect fill="red" fill-opacity="0.9" height="35.859375" id="main_door" stroke="darkred" stroke-width="3" width="6.328125" x="330.390625" y="268.359375" /><text dominant-baseline="middle" fill="white" font-family="Arial" font-size="9px" font-weight="bold" text-anchor="middle" x="333.5546875" y="286.2890625">Main Door</text><text fill="black" font-family="Arial" font-size="18px" font-weight="bold" text-anchor="middle" x="400.0" y="30">Floor Plan - ID: 68618</text></svg>