<?xml version="1.0" encoding="utf-8" ?>
<svg baseProfile="full" height="600px" version="1.1" viewBox="0 0 800 600" width="800px" xmlns="http://www.w3.org/2000/svg" xmlns:ev="http://www.w3.org/2001/xml-events" xmlns:xlink="http://www.w3.org/1999/xlink"><defs /><rect fill="white" height="600" width="800" x="0" y="0" /><polygon fill="none" id="floor_plan_boundary" points="205.9375,192.421875 205.9375,407.578125 224.921875,407.578125 224.921875,399.140625 214.375,397.03125 216.484375,200.859375 583.515625,200.859375 583.515625,399.140625 262.890625,399.140625 262.890625,407.578125 594.0625,407.578125 594.0625,192.421875" stroke="black" stroke-linecap="butt" stroke-linejoin="miter" stroke-width="4" /><g id="room_living_room"><polygon fill="rgb(238,232,170)" fill-opacity="0.7" points="216.484375,397.03125 381.015625,397.03125 381.015625,337.96875 463.28125,335.859375 463.28125,310.546875 381.015625,308.4375 381.015625,202.96875 269.21875,202.96875 269.21875,363.28125 216.484375,365.390625" stroke="black" stroke-width="1.5" /><text dominant-baseline="middle" fill="black" font-family="Arial" font-size="12px" font-weight="bold" text-anchor="middle" x="340.9375" y="301.0546875">Living Room</text></g><g id="room_master_bedroom"><polygon fill="rgb(255,165,0)" fill-opacity="0.7" points="437.96875,202.96875 437.96875,297.890625 583.515625,297.890625 583.515625,202.96875" stroke="black" stroke-width="1.5" /><text dominant-baseline="middle" fill="black" font-family="Arial" font-size="12px" font-weight="bold" text-anchor="middle" x="511.796875" y="251.484375">Master Bedroom</text></g><g id="room_common_room"><polygon fill="rgb(255,215,0)" fill-opacity="0.7" points="475.9375,310.546875 475.9375,397.03125 583.515625,397.03125 583.515625,310.546875" stroke="black" stroke-width="1.5" /><text dominant-baseline="middle" fill="black" font-family="Arial" font-size="12px" font-weight="bold" text-anchor="middle" x="530.78125" y="354.84375">Common Room</text></g><g id="room_kitchen"><polygon fill="rgb(240,128,128)" fill-opacity="0.7" points="216.484375,202.96875 216.484375,352.734375 256.5625,352.734375 256.5625,202.96875" stroke="black" stroke-width="1.5" /><text dominant-baseline="middle" fill="black" font-family="Arial" font-size="12px" font-weight="bold" text-anchor="middle" x="237.578125" y="278.90625">Kitchen</text></g><g id="room_bathroom_2"><polygon fill="rgb(173,216,230)" fill-opacity="0.7" points="393.671875,202.96875 393.671875,297.890625 429.53125,297.890625 429.53125,202.96875" stroke="black" stroke-width="1.5" /><text dominant-baseline="middle" fill="black" font-family="Arial" font-size="12px" font-weight="bold" text-anchor="middle" x="412.65625" y="251.484375">Bathroom 2</text></g><g id="room_bathroom"><polygon fill="rgb(173,216,230)" fill-opacity="0.7" points="393.671875,348.515625 393.671875,397.03125 463.28125,397.03125 463.28125,348.515625" stroke="black" stroke-width="1.5" /><text dominant-baseline="middle" fill="black" font-family="Arial" font-size="12px" font-weight="bold" text-anchor="middle" x="429.53125" y="373.828125">Bathroom</text></g><rect fill="red" fill-opacity="0.9" height="10.546875" id="main_door" stroke="darkred" stroke-width="3" width="35.859375" x="227.03125" y="399.140625" /><text dominant-baseline="middle" fill="white" font-family="Arial" font-size="9px" font-weight="bold" text-anchor="middle" x="244.9609375" y="404.4140625">Main Door</text><text fill="black" font-family="Arial" font-size="18px" font-weight="bold" text-anchor="middle" x="400.0" y="30">Floor Plan - ID: 68694</text></svg>