<?xml version="1.0" encoding="utf-8" ?>
<svg baseProfile="full" height="600px" version="1.1" viewBox="0 0 800 600" width="800px" xmlns="http://www.w3.org/2000/svg" xmlns:ev="http://www.w3.org/2001/xml-events" xmlns:xlink="http://www.w3.org/1999/xlink"><defs /><rect fill="white" height="600" width="800" x="0" y="0" /><polygon fill="none" id="floor_plan_boundary" points="368.359375,133.359375 368.359375,186.09375 343.046875,188.203125 343.046875,238.828125 279.765625,240.9375 279.765625,289.453125 258.671875,291.5625 258.671875,361.171875 307.1875,363.28125 307.1875,466.640625 381.015625,466.640625 383.125,447.65625 539.21875,447.65625 541.328125,137.578125 528.671875,133.359375 532.890625,437.109375 372.578125,439.21875 370.46875,458.203125 315.625,456.09375 315.625,352.734375 267.109375,350.625 267.109375,302.109375 288.203125,300.0 288.203125,251.484375 351.484375,249.375 351.484375,198.75 376.796875,196.640625 378.90625,141.796875 499.140625,141.796875 499.140625,133.359375" stroke="black" stroke-linecap="butt" stroke-linejoin="miter" stroke-width="4" /><g id="room_living_room"><polygon fill="rgb(238,232,170)" fill-opacity="0.7" points="530.78125,143.90625 494.921875,143.90625 492.8125,211.40625 425.3125,211.40625 425.3125,249.375 385.234375,251.484375 385.234375,276.796875 425.3125,278.90625 425.3125,392.8125 530.78125,392.8125" stroke="black" stroke-width="1.5" /><text dominant-baseline="middle" fill="black" font-family="Arial" font-size="12px" font-weight="bold" text-anchor="middle" x="459.0625" y="269.4140625">Living Room</text></g><g id="room_master_bedroom"><polygon fill="rgb(255,165,0)" fill-opacity="0.7" points="412.65625,289.453125 385.234375,289.453125 385.234375,342.1875 317.734375,342.1875 317.734375,456.09375 370.46875,456.09375 372.578125,437.109375 412.65625,437.109375" stroke="black" stroke-width="1.5" /><text dominant-baseline="middle" fill="black" font-family="Arial" font-size="12px" font-weight="bold" text-anchor="middle" x="366.25" y="373.828125">Master Bedroom</text></g><g id="room_common_room"><polygon fill="rgb(255,215,0)" fill-opacity="0.7" points="290.3125,251.484375 290.3125,300.0 269.21875,302.109375 269.21875,350.625 305.078125,350.625 307.1875,329.53125 376.796875,329.53125 376.796875,251.484375" stroke="black" stroke-width="1.5" /><text dominant-baseline="middle" fill="black" font-family="Arial" font-size="12px" font-weight="bold" text-anchor="middle" x="324.0625" y="302.109375">Common Room</text></g><g id="room_kitchen"><polygon fill="rgb(240,128,128)" fill-opacity="0.7" points="425.3125,143.90625 425.3125,202.96875 486.484375,202.96875 486.484375,143.90625" stroke="black" stroke-width="1.5" /><text dominant-baseline="middle" fill="black" font-family="Arial" font-size="12px" font-weight="bold" text-anchor="middle" x="456.953125" y="174.4921875">Kitchen</text></g><g id="room_balcony"><polygon fill="rgb(107,142,35)" fill-opacity="0.7" points="425.3125,405.46875 425.3125,437.109375 530.78125,437.109375 530.78125,405.46875" stroke="black" stroke-width="1.5" /><text dominant-baseline="middle" fill="black" font-family="Arial" font-size="12px" font-weight="bold" text-anchor="middle" x="479.1015625" y="422.34375">Balcony</text></g><g id="room_bathroom"><polygon fill="rgb(173,216,230)" fill-opacity="0.7" points="353.59375,198.75 353.59375,238.828125 412.65625,238.828125 412.65625,198.75" stroke="black" stroke-width="1.5" /><text dominant-baseline="middle" fill="black" font-family="Arial" font-size="12px" font-weight="bold" text-anchor="middle" x="384.1796875" y="219.84375">Bathroom</text></g><g id="room_balcony_2"><polygon fill="rgb(107,142,35)" fill-opacity="0.7" points="378.90625,143.90625 378.90625,186.09375 412.65625,186.09375 412.65625,143.90625" stroke="black" stroke-width="1.5" /><text dominant-baseline="middle" fill="black" font-family="Arial" font-size="12px" font-weight="bold" text-anchor="middle" x="396.8359375" y="166.0546875">Balcony 2</text></g><rect fill="red" fill-opacity="0.9" height="10.546875" id="main_door" stroke="darkred" stroke-width="3" width="27.421875" x="501.25" y="133.359375" /><text dominant-baseline="middle" fill="white" font-family="Arial" font-size="9px" font-weight="bold" text-anchor="middle" x="514.9609375" y="138.6328125">Main Door</text><text fill="black" font-family="Arial" font-size="18px" font-weight="bold" text-anchor="middle" x="400.0" y="30">Floor Plan - ID: 68884</text></svg>