<?xml version="1.0" encoding="utf-8" ?>
<svg baseProfile="full" height="600px" version="1.1" viewBox="0 0 800 600" width="800px" xmlns="http://www.w3.org/2000/svg" xmlns:ev="http://www.w3.org/2001/xml-events" xmlns:xlink="http://www.w3.org/1999/xlink"><defs /><rect fill="white" height="600" width="800" x="0" y="0" /><polygon fill="none" id="floor_plan_boundary" points="250.234375,105.9375 250.234375,445.546875 347.265625,445.546875 349.375,494.0625 465.390625,494.0625 467.5,445.546875 549.765625,445.546875 549.765625,289.453125 467.5,289.453125 465.390625,270.46875 456.953125,270.46875 456.953125,297.890625 541.328125,300.0 539.21875,437.109375 456.953125,437.109375 454.84375,485.625 359.921875,485.625 357.8125,437.109375 258.671875,435.0 258.671875,116.484375 454.84375,114.375 456.953125,236.71875 465.390625,236.71875 465.390625,105.9375" stroke="black" stroke-linecap="butt" stroke-linejoin="miter" stroke-width="4" /><g id="room_living_room"><polygon fill="rgb(238,232,170)" fill-opacity="0.7" points="357.8125,173.4375 357.8125,226.171875 319.84375,228.28125 319.84375,287.34375 357.8125,289.453125 357.8125,435.0 454.84375,435.0 454.84375,173.4375" stroke="black" stroke-width="1.5" /><text dominant-baseline="middle" fill="black" font-family="Arial" font-size="12px" font-weight="bold" text-anchor="middle" x="388.3984375" y="305.2734375">Living Room</text></g><g id="room_master_bedroom"><polygon fill="rgb(255,165,0)" fill-opacity="0.7" points="260.78125,300.0 260.78125,435.0 349.375,435.0 349.375,300.0" stroke="black" stroke-width="1.5" /><text dominant-baseline="middle" fill="black" font-family="Arial" font-size="12px" font-weight="bold" text-anchor="middle" x="306.1328125" y="368.5546875">Master Bedroom</text></g><g id="room_common_room"><polygon fill="rgb(255,215,0)" fill-opacity="0.7" points="467.5,300.0 467.5,435.0 539.21875,435.0 539.21875,300.0" stroke="black" stroke-width="1.5" /><text dominant-baseline="middle" fill="black" font-family="Arial" font-size="12px" font-weight="bold" text-anchor="middle" x="504.4140625" y="368.5546875">Common Room</text></g><g id="room_common_room_2"><polygon fill="rgb(255,215,0)" fill-opacity="0.7" points="260.78125,116.484375 260.78125,215.625 349.375,215.625 349.375,116.484375" stroke="black" stroke-width="1.5" /><text dominant-baseline="middle" fill="black" font-family="Arial" font-size="12px" font-weight="bold" text-anchor="middle" x="306.1328125" y="167.109375">Common Room 2</text></g><g id="room_balcony_2"><polygon fill="rgb(107,142,35)" fill-opacity="0.7" points="357.8125,116.484375 357.8125,160.78125 454.84375,160.78125 454.84375,116.484375" stroke="black" stroke-width="1.5" /><text dominant-baseline="middle" fill="black" font-family="Arial" font-size="12px" font-weight="bold" text-anchor="middle" x="407.3828125" y="139.6875">Balcony 2</text></g><g id="room_balcony"><polygon fill="rgb(107,142,35)" fill-opacity="0.7" points="359.921875,447.65625 359.921875,483.515625 454.84375,483.515625 454.84375,447.65625" stroke="black" stroke-width="1.5" /><text dominant-baseline="middle" fill="black" font-family="Arial" font-size="12px" font-weight="bold" text-anchor="middle" x="408.4375" y="466.640625">Balcony</text></g><g id="room_bathroom"><polygon fill="rgb(173,216,230)" fill-opacity="0.7" points="260.78125,228.28125 260.78125,287.34375 311.40625,287.34375 311.40625,228.28125" stroke="black" stroke-width="1.5" /><text dominant-baseline="middle" fill="black" font-family="Arial" font-size="12px" font-weight="bold" text-anchor="middle" x="287.1484375" y="258.8671875">Bathroom</text></g><rect fill="red" fill-opacity="0.9" height="31.640625" id="main_door" stroke="darkred" stroke-width="3" width="10.546875" x="456.953125" y="238.828125" /><text dominant-baseline="middle" fill="white" font-family="Arial" font-size="9px" font-weight="bold" text-anchor="middle" x="462.2265625" y="254.6484375">Main Door</text><text fill="black" font-family="Arial" font-size="18px" font-weight="bold" text-anchor="middle" x="400.0" y="30">Floor Plan - ID: 68970</text></svg>