<?xml version="1.0" encoding="utf-8" ?>
<svg baseProfile="full" height="600px" version="1.1" viewBox="0 0 800 600" width="800px" xmlns="http://www.w3.org/2000/svg" xmlns:ev="http://www.w3.org/2001/xml-events" xmlns:xlink="http://www.w3.org/1999/xlink"><defs /><rect fill="white" height="600" width="800" x="0" y="0" /><polygon fill="none" id="floor_plan_boundary" points="222.8125,150.234375 222.8125,437.109375 294.53125,437.109375 227.03125,430.78125 229.140625,154.453125 328.28125,154.453125 330.390625,127.03125 456.953125,127.03125 459.0625,154.453125 570.859375,154.453125 572.96875,470.859375 537.109375,470.859375 537.109375,430.78125 324.0625,437.109375 530.78125,437.109375 532.890625,477.1875 577.1875,477.1875 577.1875,150.234375 465.390625,150.234375 463.28125,122.8125 324.0625,122.8125 321.953125,150.234375" stroke="black" stroke-linecap="butt" stroke-linejoin="miter" stroke-width="4" /><g id="room_living_room"><polygon fill="rgb(238,232,170)" fill-opacity="0.7" points="456.953125,129.140625 330.390625,129.140625 330.390625,272.578125 229.140625,274.6875 229.140625,365.390625 296.640625,365.390625 298.75,430.78125 321.953125,430.78125 324.0625,350.625 456.953125,350.625" stroke="black" stroke-width="1.5" /><text dominant-baseline="middle" fill="black" font-family="Arial" font-size="12px" font-weight="bold" text-anchor="middle" x="344.1015625" y="281.015625">Living Room</text></g><g id="room_master_bedroom"><polygon fill="rgb(255,165,0)" fill-opacity="0.7" points="465.390625,259.921875 465.390625,356.953125 404.21875,359.0625 404.21875,430.78125 570.859375,430.78125 570.859375,259.921875" stroke="black" stroke-width="1.5" /><text dominant-baseline="middle" fill="black" font-family="Arial" font-size="12px" font-weight="bold" text-anchor="middle" x="488.59375" y="346.40625">Master Bedroom</text></g><g id="room_common_room_2"><polygon fill="rgb(255,215,0)" fill-opacity="0.7" points="229.140625,156.5625 229.140625,266.25 321.953125,266.25 321.953125,156.5625" stroke="black" stroke-width="1.5" /><text dominant-baseline="middle" fill="black" font-family="Arial" font-size="12px" font-weight="bold" text-anchor="middle" x="276.6015625" y="212.4609375">Common Room 2</text></g><g id="room_common_room"><polygon fill="rgb(255,215,0)" fill-opacity="0.7" points="465.390625,156.5625 465.390625,251.484375 570.859375,251.484375 570.859375,156.5625" stroke="black" stroke-width="1.5" /><text dominant-baseline="middle" fill="black" font-family="Arial" font-size="12px" font-weight="bold" text-anchor="middle" x="519.1796875" y="205.078125">Common Room</text></g><g id="room_bathroom_2"><polygon fill="rgb(173,216,230)" fill-opacity="0.7" points="330.390625,359.0625 330.390625,430.78125 395.78125,430.78125 395.78125,359.0625" stroke="black" stroke-width="1.5" /><text dominant-baseline="middle" fill="black" font-family="Arial" font-size="12px" font-weight="bold" text-anchor="middle" x="364.140625" y="395.9765625">Bathroom 2</text></g><g id="room_bathroom"><polygon fill="rgb(173,216,230)" fill-opacity="0.7" points="229.140625,405.46875 229.140625,430.78125 290.3125,430.78125 290.3125,405.46875" stroke="black" stroke-width="1.5" /><text dominant-baseline="middle" fill="black" font-family="Arial" font-size="12px" font-weight="bold" text-anchor="middle" x="260.78125" y="419.1796875">Bathroom</text></g><g id="room_kitchen"><polygon fill="rgb(240,128,128)" fill-opacity="0.7" points="229.140625,373.828125 229.140625,397.03125 290.3125,397.03125 290.3125,373.828125" stroke="black" stroke-width="1.5" /><text dominant-baseline="middle" fill="black" font-family="Arial" font-size="12px" font-weight="bold" text-anchor="middle" x="260.78125" y="386.484375">Kitchen</text></g><g id="room_balcony"><polygon fill="rgb(107,142,35)" fill-opacity="0.7" points="539.21875,439.21875 539.21875,470.859375 570.859375,470.859375 570.859375,439.21875" stroke="black" stroke-width="1.5" /><text dominant-baseline="middle" fill="black" font-family="Arial" font-size="12px" font-weight="bold" text-anchor="middle" x="556.09375" y="456.09375">Balcony</text></g><rect fill="red" fill-opacity="0.9" height="6.328125" id="main_door" stroke="darkred" stroke-width="3" width="27.421875" x="296.640625" y="432.890625" /><text dominant-baseline="middle" fill="white" font-family="Arial" font-size="9px" font-weight="bold" text-anchor="middle" x="310.3515625" y="436.0546875">Main Door</text><text fill="black" font-family="Arial" font-size="18px" font-weight="bold" text-anchor="middle" x="400.0" y="30">Floor Plan - ID: 69009</text></svg>