<?xml version="1.0" encoding="utf-8" ?>
<svg baseProfile="full" height="600px" version="1.1" viewBox="0 0 800 600" width="800px" xmlns="http://www.w3.org/2000/svg" xmlns:ev="http://www.w3.org/2001/xml-events" xmlns:xlink="http://www.w3.org/1999/xlink"><defs /><rect fill="white" height="600" width="800" x="0" y="0" /><polygon fill="none" id="floor_plan_boundary" points="364.140625,99.609375 364.140625,192.421875 256.5625,192.421875 256.5625,300.0 292.421875,302.109375 292.421875,500.390625 374.6875,500.390625 376.796875,483.515625 406.328125,483.515625 408.4375,500.390625 543.4375,500.390625 543.4375,192.421875 530.78125,192.421875 535.0,489.84375 418.984375,491.953125 416.875,475.078125 366.25,475.078125 364.140625,491.953125 300.859375,489.84375 300.859375,291.5625 265.0,289.453125 265.0,202.96875 372.578125,200.859375 372.578125,108.046875 423.203125,108.046875 425.3125,137.578125 486.484375,137.578125 488.59375,200.859375 497.03125,200.859375 497.03125,129.140625 435.859375,129.140625 433.75,99.609375" stroke="black" stroke-linecap="butt" stroke-linejoin="miter" stroke-width="4" /><g id="room_living_room"><polygon fill="rgb(238,232,170)" fill-opacity="0.7" points="433.75,200.859375 435.859375,257.8125 372.578125,262.03125 372.578125,291.5625 416.875,293.671875 416.875,420.234375 532.890625,420.234375 532.890625,202.96875" stroke="black" stroke-width="1.5" /><text dominant-baseline="middle" fill="black" font-family="Arial" font-size="12px" font-weight="bold" text-anchor="middle" x="453.7890625" y="311.6015625">Living Room</text></g><g id="room_master_bedroom"><polygon fill="rgb(255,165,0)" fill-opacity="0.7" points="408.4375,300.0 374.6875,300.0 370.46875,367.5 302.96875,365.390625 302.96875,489.84375 364.140625,489.84375 366.25,472.96875 408.4375,472.96875" stroke="black" stroke-width="1.5" /><text dominant-baseline="middle" fill="black" font-family="Arial" font-size="12px" font-weight="bold" text-anchor="middle" x="356.7578125" y="395.9765625">Master Bedroom</text></g><g id="room_common_room"><polygon fill="rgb(255,215,0)" fill-opacity="0.7" points="267.109375,202.96875 267.109375,289.453125 364.140625,291.5625 364.140625,202.96875" stroke="black" stroke-width="1.5" /><text dominant-baseline="middle" fill="black" font-family="Arial" font-size="12px" font-weight="bold" text-anchor="middle" x="316.6796875" y="248.3203125">Common Room</text></g><g id="room_balcony"><polygon fill="rgb(107,142,35)" fill-opacity="0.7" points="416.875,428.671875 418.984375,489.84375 532.890625,489.84375 532.890625,428.671875" stroke="black" stroke-width="1.5" /><text dominant-baseline="middle" fill="black" font-family="Arial" font-size="12px" font-weight="bold" text-anchor="middle" x="475.9375" y="460.3125">Balcony</text></g><g id="room_kitchen"><polygon fill="rgb(240,128,128)" fill-opacity="0.7" points="412.65625,137.578125 412.65625,192.421875 486.484375,192.421875 486.484375,139.6875" stroke="black" stroke-width="1.5" /><text dominant-baseline="middle" fill="black" font-family="Arial" font-size="12px" font-weight="bold" text-anchor="middle" x="450.625" y="166.0546875">Kitchen</text></g><g id="room_bathroom"><polygon fill="rgb(173,216,230)" fill-opacity="0.7" points="302.96875,300.0 302.96875,356.953125 366.25,356.953125 366.25,300.0" stroke="black" stroke-width="1.5" /><text dominant-baseline="middle" fill="black" font-family="Arial" font-size="12px" font-weight="bold" text-anchor="middle" x="335.6640625" y="329.53125">Bathroom</text></g><g id="room_balcony_2"><polygon fill="rgb(107,142,35)" fill-opacity="0.7" points="372.578125,110.15625 372.578125,190.3125 404.21875,192.421875 404.21875,131.25 423.203125,129.140625 423.203125,110.15625" stroke="black" stroke-width="1.5" /><text dominant-baseline="middle" fill="black" font-family="Arial" font-size="12px" font-weight="bold" text-anchor="middle" x="398.9453125" y="152.34375">Balcony 2</text></g><g id="room_bathroom_2"><polygon fill="rgb(173,216,230)" fill-opacity="0.7" points="374.6875,200.859375 372.578125,253.59375 425.3125,253.59375 425.3125,200.859375" stroke="black" stroke-width="1.5" /><text dominant-baseline="middle" fill="black" font-family="Arial" font-size="12px" font-weight="bold" text-anchor="middle" x="400.0" y="228.28125">Bathroom 2</text></g><rect fill="red" fill-opacity="0.9" height="10.546875" id="main_door" stroke="darkred" stroke-width="3" width="31.640625" x="499.140625" y="192.421875" /><text dominant-baseline="middle" fill="white" font-family="Arial" font-size="9px" font-weight="bold" text-anchor="middle" x="514.9609375" y="197.6953125">Main Door</text><text fill="black" font-family="Arial" font-size="18px" font-weight="bold" text-anchor="middle" x="400.0" y="30">Floor Plan - ID: 69114</text></svg>