<?xml version="1.0" encoding="utf-8" ?>
<svg baseProfile="full" height="600px" version="1.1" viewBox="0 0 800 600" width="800px" xmlns="http://www.w3.org/2000/svg" xmlns:ev="http://www.w3.org/2001/xml-events" xmlns:xlink="http://www.w3.org/1999/xlink"><defs /><rect fill="white" height="600" width="800" x="0" y="0" /><polygon fill="none" id="floor_plan_boundary" points="205.9375,194.53125 205.9375,293.671875 222.8125,295.78125 222.8125,437.109375 404.21875,439.21875 406.328125,481.40625 570.859375,481.40625 570.859375,297.890625 594.0625,295.78125 594.0625,289.453125 562.421875,287.34375 562.421875,475.078125 416.875,477.1875 414.765625,430.78125 233.359375,432.890625 231.25,285.234375 214.375,283.125 214.375,205.078125 319.84375,202.96875 321.953125,127.03125 404.21875,127.03125 406.328125,146.015625 473.828125,146.015625 475.9375,127.03125 560.3125,127.03125 562.421875,249.375 594.0625,247.265625 594.0625,240.9375 570.859375,238.828125 570.859375,118.59375 465.390625,118.59375 463.28125,137.578125 416.875,137.578125 414.765625,118.59375 311.40625,118.59375 309.296875,194.53125" stroke="black" stroke-linecap="butt" stroke-linejoin="miter" stroke-width="4" /><g id="room_living_room"><polygon fill="rgb(238,232,170)" fill-opacity="0.7" points="475.9375,129.140625 475.9375,213.515625 414.765625,217.734375 412.65625,257.8125 319.84375,257.8125 319.84375,285.234375 416.875,285.234375 416.875,428.671875 560.3125,428.671875 560.3125,287.34375 583.515625,285.234375 583.515625,251.484375 560.3125,249.375 560.3125,129.140625" stroke="black" stroke-width="1.5" /><text dominant-baseline="middle" fill="black" font-family="Arial" font-size="12px" font-weight="bold" text-anchor="middle" x="452.734375" y="279.9609375">Living Room</text></g><g id="room_master_bedroom"><polygon fill="rgb(255,165,0)" fill-opacity="0.7" points="233.359375,367.5 233.359375,430.78125 404.21875,428.671875 404.21875,295.78125 292.421875,293.671875 294.53125,363.28125" stroke="black" stroke-width="1.5" /><text dominant-baseline="middle" fill="black" font-family="Arial" font-size="12px" font-weight="bold" text-anchor="middle" x="319.84375" y="363.28125">Master Bedroom</text></g><g id="room_common_room_2"><polygon fill="rgb(255,215,0)" fill-opacity="0.7" points="321.953125,129.140625 319.84375,249.375 406.328125,249.375 404.21875,129.140625" stroke="black" stroke-width="1.5" /><text dominant-baseline="middle" fill="black" font-family="Arial" font-size="12px" font-weight="bold" text-anchor="middle" x="364.140625" y="190.3125">Common Room 2</text></g><g id="room_common_room"><polygon fill="rgb(255,215,0)" fill-opacity="0.7" points="216.484375,205.078125 216.484375,283.125 311.40625,285.234375 311.40625,205.078125" stroke="black" stroke-width="1.5" /><text dominant-baseline="middle" fill="black" font-family="Arial" font-size="12px" font-weight="bold" text-anchor="middle" x="265.0" y="246.2109375">Common Room</text></g><g id="room_balcony"><polygon fill="rgb(107,142,35)" fill-opacity="0.7" points="416.875,441.328125 416.875,475.078125 560.3125,475.078125 560.3125,441.328125" stroke="black" stroke-width="1.5" /><text dominant-baseline="middle" fill="black" font-family="Arial" font-size="12px" font-weight="bold" text-anchor="middle" x="489.6484375" y="459.2578125">Balcony</text></g><g id="room_bathroom"><polygon fill="rgb(173,216,230)" fill-opacity="0.7" points="283.984375,293.671875 233.359375,295.78125 233.359375,359.0625 283.984375,359.0625" stroke="black" stroke-width="1.5" /><text dominant-baseline="middle" fill="black" font-family="Arial" font-size="12px" font-weight="bold" text-anchor="middle" x="259.7265625" y="327.421875">Bathroom</text></g><g id="room_bathroom_2"><polygon fill="rgb(173,216,230)" fill-opacity="0.7" points="416.875,148.125 414.765625,209.296875 465.390625,209.296875 463.28125,148.125" stroke="black" stroke-width="1.5" /><text dominant-baseline="middle" fill="black" font-family="Arial" font-size="12px" font-weight="bold" text-anchor="middle" x="441.1328125" y="179.765625">Bathroom 2</text></g><rect fill="red" fill-opacity="0.9" height="40.078125" id="main_door" stroke="darkred" stroke-width="3" width="10.546875" x="585.625" y="249.375" /><text dominant-baseline="middle" fill="white" font-family="Arial" font-size="9px" font-weight="bold" text-anchor="middle" x="590.8984375" y="269.4140625">Main Door</text><text fill="black" font-family="Arial" font-size="18px" font-weight="bold" text-anchor="middle" x="400.0" y="30">Floor Plan - ID: 6957</text></svg>