<?xml version="1.0" encoding="utf-8" ?>
<svg baseProfile="full" height="600px" version="1.1" viewBox="0 0 800 600" width="800px" xmlns="http://www.w3.org/2000/svg" xmlns:ev="http://www.w3.org/2001/xml-events" xmlns:xlink="http://www.w3.org/1999/xlink"><defs /><rect fill="white" height="600" width="800" x="0" y="0" /><polygon fill="none" id="floor_plan_boundary" points="235.46875,146.015625 235.46875,453.984375 241.796875,150.234375 370.46875,150.234375 372.578125,186.09375 475.9375,190.3125 478.046875,183.984375 503.359375,183.984375 505.46875,190.3125 551.875,192.421875 551.875,329.53125 560.3125,331.640625 560.3125,348.515625 551.875,350.625 549.765625,401.25 431.640625,401.25 429.53125,449.765625 279.765625,453.984375 435.859375,453.984375 437.96875,405.46875 556.09375,405.46875 556.09375,356.953125 564.53125,354.84375 564.53125,325.3125 556.09375,323.203125 556.09375,186.09375 511.796875,186.09375 509.6875,179.765625 471.71875,179.765625 469.609375,186.09375 378.90625,181.875 376.796875,146.015625" stroke="black" stroke-linecap="butt" stroke-linejoin="miter" stroke-width="4" /><g id="room_living_room"><polygon fill="rgb(238,232,170)" fill-opacity="0.7" points="241.796875,447.65625 279.765625,447.65625 281.875,399.140625 370.46875,399.140625 372.578125,314.765625 494.921875,314.765625 494.921875,289.453125 372.578125,289.453125 370.46875,188.203125 241.796875,188.203125" stroke="black" stroke-width="1.5" /><text dominant-baseline="middle" fill="black" font-family="Arial" font-size="12px" font-weight="bold" text-anchor="middle" x="369.4140625" y="318.984375">Living Room</text></g><g id="room_common_room"><polygon fill="rgb(255,215,0)" fill-opacity="0.7" points="437.96875,323.203125 437.96875,399.140625 549.765625,399.140625 549.765625,350.625 558.203125,348.515625 558.203125,331.640625 551.875,331.640625 549.765625,323.203125" stroke="black" stroke-width="1.5" /><text dominant-baseline="middle" fill="black" font-family="Arial" font-size="12px" font-weight="bold" text-anchor="middle" x="499.140625" y="362.2265625">Common Room</text></g><g id="room_common_room_2"><polygon fill="rgb(255,215,0)" fill-opacity="0.7" points="378.90625,188.203125 378.90625,281.015625 459.0625,281.015625 459.0625,188.203125" stroke="black" stroke-width="1.5" /><text dominant-baseline="middle" fill="black" font-family="Arial" font-size="12px" font-weight="bold" text-anchor="middle" x="420.0390625" y="235.6640625">Common Room 2</text></g><g id="room_master_bedroom"><polygon fill="rgb(255,165,0)" fill-opacity="0.7" points="467.5,192.421875 467.5,281.015625 494.921875,281.015625 497.03125,255.703125 549.765625,255.703125 549.765625,192.421875 505.46875,192.421875 503.359375,186.09375 478.046875,186.09375 475.9375,192.421875" stroke="black" stroke-width="1.5" /><text dominant-baseline="middle" fill="black" font-family="Arial" font-size="12px" font-weight="bold" text-anchor="middle" x="509.6875" y="234.609375">Master Bedroom</text></g><g id="room_kitchen"><polygon fill="rgb(240,128,128)" fill-opacity="0.7" points="288.203125,407.578125 288.203125,447.65625 429.53125,447.65625 429.53125,407.578125" stroke="black" stroke-width="1.5" /><text dominant-baseline="middle" fill="black" font-family="Arial" font-size="12px" font-weight="bold" text-anchor="middle" x="359.921875" y="428.671875">Kitchen</text></g><g id="room_bathroom"><polygon fill="rgb(173,216,230)" fill-opacity="0.7" points="378.90625,323.203125 378.90625,399.140625 429.53125,399.140625 429.53125,323.203125" stroke="black" stroke-width="1.5" /><text dominant-baseline="middle" fill="black" font-family="Arial" font-size="12px" font-weight="bold" text-anchor="middle" x="405.2734375" y="362.2265625">Bathroom</text></g><g id="room_balcony"><polygon fill="rgb(107,142,35)" fill-opacity="0.7" points="241.796875,152.34375 241.796875,179.765625 370.46875,179.765625 370.46875,152.34375" stroke="black" stroke-width="1.5" /><text dominant-baseline="middle" fill="black" font-family="Arial" font-size="12px" font-weight="bold" text-anchor="middle" x="307.1875" y="167.109375">Balcony</text></g><g id="room_bathroom_2"><polygon fill="rgb(173,216,230)" fill-opacity="0.7" points="503.359375,264.140625 503.359375,314.765625 549.765625,314.765625 549.765625,264.140625" stroke="black" stroke-width="1.5" /><text dominant-baseline="middle" fill="black" font-family="Arial" font-size="12px" font-weight="bold" text-anchor="middle" x="527.6171875" y="290.5078125">Bathroom 2</text></g><rect fill="red" fill-opacity="0.9" height="6.328125" id="main_door" stroke="darkred" stroke-width="3" width="40.078125" x="239.6875" y="449.765625" /><text dominant-baseline="middle" fill="white" font-family="Arial" font-size="9px" font-weight="bold" text-anchor="middle" x="259.7265625" y="452.9296875">Main Door</text><text fill="black" font-family="Arial" font-size="18px" font-weight="bold" text-anchor="middle" x="400.0" y="30">Floor Plan - ID: 69720</text></svg>