<?xml version="1.0" encoding="utf-8" ?>
<svg baseProfile="full" height="600px" version="1.1" viewBox="0 0 800 600" width="800px" xmlns="http://www.w3.org/2000/svg" xmlns:ev="http://www.w3.org/2001/xml-events" xmlns:xlink="http://www.w3.org/1999/xlink"><defs /><rect fill="white" height="600" width="800" x="0" y="0" /><polygon fill="none" id="floor_plan_boundary" points="558.203125,127.03125 414.765625,127.03125 412.65625,158.671875 319.84375,158.671875 324.0625,283.125 326.171875,162.890625 418.984375,162.890625 421.09375,131.25 553.984375,133.359375 556.09375,430.78125 414.765625,430.78125 412.65625,468.75 326.171875,468.75 324.0625,430.78125 241.796875,428.671875 241.796875,308.4375 324.0625,304.21875 237.578125,302.109375 237.578125,435.0 317.734375,435.0 319.84375,472.96875 418.984375,472.96875 421.09375,435.0 562.421875,435.0" stroke="black" stroke-linecap="butt" stroke-linejoin="miter" stroke-width="4" /><g id="room_living_room"><polygon fill="rgb(238,232,170)" fill-opacity="0.7" points="551.875,215.625 421.09375,215.625 418.984375,253.59375 326.171875,253.59375 326.171875,428.671875 412.65625,428.671875 414.765625,300.0 551.875,300.0" stroke="black" stroke-width="1.5" /><text dominant-baseline="middle" fill="black" font-family="Arial" font-size="12px" font-weight="bold" text-anchor="middle" x="440.078125" y="323.203125">Living Room</text></g><g id="room_common_room"><polygon fill="rgb(255,215,0)" fill-opacity="0.7" points="421.09375,308.4375 421.09375,428.671875 556.09375,428.671875 556.09375,308.4375" stroke="black" stroke-width="1.5" /><text dominant-baseline="middle" fill="black" font-family="Arial" font-size="12px" font-weight="bold" text-anchor="middle" x="489.6484375" y="369.609375">Common Room</text></g><g id="room_common_room_2"><polygon fill="rgb(255,215,0)" fill-opacity="0.7" points="243.90625,308.4375 243.90625,428.671875 317.734375,428.671875 317.734375,308.4375" stroke="black" stroke-width="1.5" /><text dominant-baseline="middle" fill="black" font-family="Arial" font-size="12px" font-weight="bold" text-anchor="middle" x="281.875" y="369.609375">Common Room 2</text></g><g id="room_common_room_3"><polygon fill="rgb(255,215,0)" fill-opacity="0.7" points="326.171875,165.0 326.171875,245.15625 412.65625,245.15625 412.65625,165.0" stroke="black" stroke-width="1.5" /><text dominant-baseline="middle" fill="black" font-family="Arial" font-size="12px" font-weight="bold" text-anchor="middle" x="370.46875" y="206.1328125">Common Room 3</text></g><g id="room_kitchen"><polygon fill="rgb(240,128,128)" fill-opacity="0.7" points="488.59375,133.359375 488.59375,207.1875 551.875,207.1875 551.875,133.359375" stroke="black" stroke-width="1.5" /><text dominant-baseline="middle" fill="black" font-family="Arial" font-size="12px" font-weight="bold" text-anchor="middle" x="521.2890625" y="171.328125">Kitchen</text></g><g id="room_bathroom"><polygon fill="rgb(173,216,230)" fill-opacity="0.7" points="421.09375,133.359375 421.09375,207.1875 480.15625,207.1875 480.15625,133.359375" stroke="black" stroke-width="1.5" /><text dominant-baseline="middle" fill="black" font-family="Arial" font-size="12px" font-weight="bold" text-anchor="middle" x="451.6796875" y="171.328125">Bathroom</text></g><g id="room_balcony"><polygon fill="rgb(107,142,35)" fill-opacity="0.7" points="326.171875,437.109375 326.171875,466.640625 412.65625,466.640625 412.65625,437.109375" stroke="black" stroke-width="1.5" /><text dominant-baseline="middle" fill="black" font-family="Arial" font-size="12px" font-weight="bold" text-anchor="middle" x="370.46875" y="452.9296875">Balcony</text></g><text fill="black" font-family="Arial" font-size="18px" font-weight="bold" text-anchor="middle" x="400.0" y="30">Floor Plan - ID: 70037</text></svg>