<?xml version="1.0" encoding="utf-8" ?>
<svg baseProfile="full" height="600px" version="1.1" viewBox="0 0 800 600" width="800px" xmlns="http://www.w3.org/2000/svg" xmlns:ev="http://www.w3.org/2001/xml-events" xmlns:xlink="http://www.w3.org/1999/xlink"><defs /><rect fill="white" height="600" width="800" x="0" y="0" /><polygon fill="none" id="floor_plan_boundary" points="277.65625,146.015625 277.65625,321.09375 239.6875,323.203125 239.6875,420.234375 294.53125,420.234375 296.640625,453.984375 317.734375,453.984375 317.734375,445.546875 305.078125,443.4375 305.078125,411.796875 248.125,409.6875 248.125,333.75 286.09375,331.640625 286.09375,156.5625 391.5625,154.453125 393.671875,192.421875 503.359375,194.53125 503.359375,331.640625 551.875,333.75 551.875,443.4375 355.703125,445.546875 355.703125,453.984375 560.3125,453.984375 560.3125,323.203125 511.796875,321.09375 511.796875,183.984375 404.21875,183.984375 402.109375,146.015625" stroke="black" stroke-linecap="butt" stroke-linejoin="miter" stroke-width="4" /><g id="room_living_room"><polygon fill="rgb(238,232,170)" fill-opacity="0.7" points="362.03125,259.921875 362.03125,331.640625 307.1875,333.75 307.1875,443.4375 501.25,443.4375 501.25,333.75 393.671875,333.75 391.5625,259.921875" stroke="black" stroke-width="1.5" /><text dominant-baseline="middle" fill="black" font-family="Arial" font-size="12px" font-weight="bold" text-anchor="middle" x="405.2734375" y="352.734375">Living Room</text></g><g id="room_master_bedroom"><polygon fill="rgb(255,165,0)" fill-opacity="0.7" points="404.21875,194.53125 404.21875,321.09375 501.25,321.09375 501.25,194.53125" stroke="black" stroke-width="1.5" /><text dominant-baseline="middle" fill="black" font-family="Arial" font-size="12px" font-weight="bold" text-anchor="middle" x="453.7890625" y="258.8671875">Master Bedroom</text></g><g id="room_common_room"><polygon fill="rgb(255,215,0)" fill-opacity="0.7" points="288.203125,156.5625 288.203125,247.265625 391.5625,247.265625 391.5625,156.5625" stroke="black" stroke-width="1.5" /><text dominant-baseline="middle" fill="black" font-family="Arial" font-size="12px" font-weight="bold" text-anchor="middle" x="340.9375" y="202.96875">Common Room</text></g><g id="room_balcony"><polygon fill="rgb(107,142,35)" fill-opacity="0.7" points="513.90625,333.75 513.90625,443.4375 549.765625,443.4375 549.765625,333.75" stroke="black" stroke-width="1.5" /><text dominant-baseline="middle" fill="black" font-family="Arial" font-size="12px" font-weight="bold" text-anchor="middle" x="532.890625" y="389.6484375">Balcony</text></g><g id="room_bathroom"><polygon fill="rgb(173,216,230)" fill-opacity="0.7" points="288.203125,259.921875 288.203125,321.09375 349.375,321.09375 349.375,259.921875" stroke="black" stroke-width="1.5" /><text dominant-baseline="middle" fill="black" font-family="Arial" font-size="12px" font-weight="bold" text-anchor="middle" x="319.84375" y="291.5625">Bathroom</text></g><g id="room_kitchen"><polygon fill="rgb(240,128,128)" fill-opacity="0.7" points="250.234375,333.75 250.234375,409.6875 294.53125,409.6875 294.53125,333.75" stroke="black" stroke-width="1.5" /><text dominant-baseline="middle" fill="black" font-family="Arial" font-size="12px" font-weight="bold" text-anchor="middle" x="273.4375" y="372.7734375">Kitchen</text></g><rect fill="red" fill-opacity="0.9" height="10.546875" id="main_door" stroke="darkred" stroke-width="3" width="35.859375" x="319.84375" y="445.546875" /><text dominant-baseline="middle" fill="white" font-family="Arial" font-size="9px" font-weight="bold" text-anchor="middle" x="337.7734375" y="450.8203125">Main Door</text><text fill="black" font-family="Arial" font-size="18px" font-weight="bold" text-anchor="middle" x="400.0" y="30">Floor Plan - ID: 7017</text></svg>