<?xml version="1.0" encoding="utf-8" ?>
<svg baseProfile="full" height="600px" version="1.1" viewBox="0 0 800 600" width="800px" xmlns="http://www.w3.org/2000/svg" xmlns:ev="http://www.w3.org/2001/xml-events" xmlns:xlink="http://www.w3.org/1999/xlink"><defs /><rect fill="white" height="600" width="800" x="0" y="0" /><polygon fill="none" id="floor_plan_boundary" points="532.890625,70.078125 368.359375,70.078125 368.359375,183.984375 374.6875,74.296875 528.671875,76.40625 528.671875,289.453125 469.609375,291.5625 469.609375,481.40625 368.359375,483.515625 366.25,525.703125 271.328125,523.59375 271.328125,318.984375 372.578125,316.875 368.359375,209.296875 368.359375,310.546875 267.109375,312.65625 267.109375,529.921875 372.578125,529.921875 374.6875,487.734375 473.828125,487.734375 473.828125,297.890625 532.890625,295.78125" stroke="black" stroke-linecap="butt" stroke-linejoin="miter" stroke-width="4" /><g id="room_living_room"><polygon fill="rgb(238,232,170)" fill-opacity="0.7" points="526.5625,177.65625 435.859375,177.65625 433.75,143.90625 374.6875,143.90625 374.6875,354.84375 395.78125,354.84375 397.890625,289.453125 526.5625,289.453125" stroke="black" stroke-width="1.5" /><text dominant-baseline="middle" fill="black" font-family="Arial" font-size="12px" font-weight="bold" text-anchor="middle" x="451.6796875" y="250.4296875">Living Room</text></g><g id="room_master_bedroom"><polygon fill="rgb(255,165,0)" fill-opacity="0.7" points="273.4375,318.984375 273.4375,481.40625 366.25,481.40625 366.25,318.984375" stroke="black" stroke-width="1.5" /><text dominant-baseline="middle" fill="black" font-family="Arial" font-size="12px" font-weight="bold" text-anchor="middle" x="320.8984375" y="401.25">Master Bedroom</text></g><g id="room_common_room"><polygon fill="rgb(255,215,0)" fill-opacity="0.7" points="374.6875,363.28125 374.6875,481.40625 467.5,481.40625 467.5,363.28125" stroke="black" stroke-width="1.5" /><text dominant-baseline="middle" fill="black" font-family="Arial" font-size="12px" font-weight="bold" text-anchor="middle" x="422.1484375" y="423.3984375">Common Room</text></g><g id="room_common_room_2"><polygon fill="rgb(255,215,0)" fill-opacity="0.7" points="442.1875,76.40625 442.1875,169.21875 526.5625,169.21875 526.5625,76.40625" stroke="black" stroke-width="1.5" /><text dominant-baseline="middle" fill="black" font-family="Arial" font-size="12px" font-weight="bold" text-anchor="middle" x="485.4296875" y="123.8671875">Common Room 2</text></g><g id="room_bathroom"><polygon fill="rgb(173,216,230)" fill-opacity="0.7" points="404.21875,297.890625 404.21875,354.84375 467.5,354.84375 467.5,297.890625" stroke="black" stroke-width="1.5" /><text dominant-baseline="middle" fill="black" font-family="Arial" font-size="12px" font-weight="bold" text-anchor="middle" x="436.9140625" y="327.421875">Bathroom</text></g><g id="room_kitchen"><polygon fill="rgb(240,128,128)" fill-opacity="0.7" points="374.6875,76.40625 374.6875,135.46875 433.75,135.46875 433.75,76.40625" stroke="black" stroke-width="1.5" /><text dominant-baseline="middle" fill="black" font-family="Arial" font-size="12px" font-weight="bold" text-anchor="middle" x="405.2734375" y="106.9921875">Kitchen</text></g><g id="room_balcony"><polygon fill="rgb(107,142,35)" fill-opacity="0.7" points="273.4375,489.84375 273.4375,523.59375 366.25,523.59375 366.25,489.84375" stroke="black" stroke-width="1.5" /><text dominant-baseline="middle" fill="black" font-family="Arial" font-size="12px" font-weight="bold" text-anchor="middle" x="320.8984375" y="507.7734375">Balcony</text></g><text fill="black" font-family="Arial" font-size="18px" font-weight="bold" text-anchor="middle" x="400.0" y="30">Floor Plan - ID: 70338</text></svg>