<?xml version="1.0" encoding="utf-8" ?>
<svg baseProfile="full" height="600px" version="1.1" viewBox="0 0 800 600" width="800px" xmlns="http://www.w3.org/2000/svg" xmlns:ev="http://www.w3.org/2001/xml-events" xmlns:xlink="http://www.w3.org/1999/xlink"><defs /><rect fill="white" height="600" width="800" x="0" y="0" /><polygon fill="none" id="floor_plan_boundary" points="224.921875,150.234375 224.921875,243.046875 231.25,154.453125 570.859375,156.5625 568.75,401.25 359.921875,401.25 357.8125,445.546875 256.5625,445.546875 254.453125,276.796875 231.25,276.796875 224.921875,268.359375 224.921875,281.015625 250.234375,283.125 250.234375,449.765625 364.140625,449.765625 366.25,405.46875 575.078125,405.46875 575.078125,150.234375" stroke="black" stroke-linecap="butt" stroke-linejoin="miter" stroke-width="4" /><g id="room_living_room"><polygon fill="rgb(238,232,170)" fill-opacity="0.7" points="507.578125,247.265625 389.453125,247.265625 387.34375,156.5625 313.515625,156.5625 313.515625,245.15625 231.25,247.265625 231.25,274.6875 256.5625,276.796875 256.5625,399.140625 357.8125,399.140625 359.921875,274.6875 507.578125,274.6875" stroke="black" stroke-width="1.5" /><text dominant-baseline="middle" fill="black" font-family="Arial" font-size="12px" font-weight="bold" text-anchor="middle" x="370.46875" y="278.90625">Living Room</text></g><g id="room_common_room"><polygon fill="rgb(255,215,0)" fill-opacity="0.7" points="366.25,283.125 366.25,399.140625 461.171875,399.140625 461.171875,283.125" stroke="black" stroke-width="1.5" /><text dominant-baseline="middle" fill="black" font-family="Arial" font-size="12px" font-weight="bold" text-anchor="middle" x="414.765625" y="342.1875">Common Room</text></g><g id="room_master_bedroom"><polygon fill="rgb(255,165,0)" fill-opacity="0.7" points="469.609375,283.125 469.609375,399.140625 568.75,399.140625 568.75,323.203125 509.6875,323.203125 507.578125,283.125" stroke="black" stroke-width="1.5" /><text dominant-baseline="middle" fill="black" font-family="Arial" font-size="12px" font-weight="bold" text-anchor="middle" x="520.234375" y="342.1875">Master Bedroom</text></g><g id="room_common_room_2"><polygon fill="rgb(255,215,0)" fill-opacity="0.7" points="469.609375,156.5625 469.609375,238.828125 568.75,238.828125 568.75,156.5625" stroke="black" stroke-width="1.5" /><text dominant-baseline="middle" fill="black" font-family="Arial" font-size="12px" font-weight="bold" text-anchor="middle" x="520.234375" y="198.75">Common Room 2</text></g><g id="room_kitchen"><polygon fill="rgb(240,128,128)" fill-opacity="0.7" points="231.25,156.5625 231.25,238.828125 305.078125,238.828125 305.078125,156.5625" stroke="black" stroke-width="1.5" /><text dominant-baseline="middle" fill="black" font-family="Arial" font-size="12px" font-weight="bold" text-anchor="middle" x="269.21875" y="198.75">Kitchen</text></g><g id="room_bathroom_2"><polygon fill="rgb(173,216,230)" fill-opacity="0.7" points="395.78125,156.5625 395.78125,238.828125 461.171875,238.828125 461.171875,156.5625" stroke="black" stroke-width="1.5" /><text dominant-baseline="middle" fill="black" font-family="Arial" font-size="12px" font-weight="bold" text-anchor="middle" x="429.53125" y="198.75">Bathroom 2</text></g><g id="room_balcony"><polygon fill="rgb(107,142,35)" fill-opacity="0.7" points="256.5625,407.578125 256.5625,443.4375 357.8125,443.4375 357.8125,407.578125" stroke="black" stroke-width="1.5" /><text dominant-baseline="middle" fill="black" font-family="Arial" font-size="12px" font-weight="bold" text-anchor="middle" x="308.2421875" y="426.5625">Balcony</text></g><g id="room_bathroom"><polygon fill="rgb(173,216,230)" fill-opacity="0.7" points="516.015625,247.265625 516.015625,314.765625 568.75,314.765625 568.75,247.265625" stroke="black" stroke-width="1.5" /><text dominant-baseline="middle" fill="black" font-family="Arial" font-size="12px" font-weight="bold" text-anchor="middle" x="543.4375" y="282.0703125">Bathroom</text></g><text fill="black" font-family="Arial" font-size="18px" font-weight="bold" text-anchor="middle" x="400.0" y="30">Floor Plan - ID: 70389</text></svg>