<?xml version="1.0" encoding="utf-8" ?>
<svg baseProfile="full" height="600px" version="1.1" viewBox="0 0 800 600" width="800px" xmlns="http://www.w3.org/2000/svg" xmlns:ev="http://www.w3.org/2001/xml-events" xmlns:xlink="http://www.w3.org/1999/xlink"><defs /><rect fill="white" height="600" width="800" x="0" y="0" /><polygon fill="none" id="floor_plan_boundary" points="400.0,80.625 397.890625,118.59375 309.296875,118.59375 309.296875,219.84375 283.984375,221.953125 283.984375,441.328125 406.328125,441.328125 408.4375,519.375 516.015625,519.375 516.015625,262.03125 480.15625,262.03125 478.046875,243.046875 469.609375,243.046875 469.609375,270.46875 507.578125,272.578125 507.578125,508.828125 418.984375,510.9375 416.875,432.890625 292.421875,430.78125 292.421875,232.5 317.734375,230.390625 317.734375,129.140625 408.4375,127.03125 408.4375,91.171875 444.296875,89.0625 446.40625,127.03125 469.609375,129.140625 469.609375,209.296875 478.046875,209.296875 478.046875,118.59375 454.84375,116.484375 454.84375,80.625" stroke="black" stroke-linecap="butt" stroke-linejoin="miter" stroke-width="4" /><g id="room_living_room"><polygon fill="rgb(238,232,170)" fill-opacity="0.7" points="410.546875,207.1875 410.546875,251.484375 366.25,253.59375 366.25,293.671875 402.109375,295.78125 402.109375,430.78125 505.46875,430.78125 505.46875,272.578125 467.5,270.46875 467.5,207.1875" stroke="black" stroke-width="1.5" /><text dominant-baseline="middle" fill="black" font-family="Arial" font-size="12px" font-weight="bold" text-anchor="middle" x="436.9140625" y="320.0390625">Living Room</text></g><g id="room_master_bedroom"><polygon fill="rgb(255,165,0)" fill-opacity="0.7" points="294.53125,306.328125 294.53125,430.78125 389.453125,430.78125 389.453125,306.328125" stroke="black" stroke-width="1.5" /><text dominant-baseline="middle" fill="black" font-family="Arial" font-size="12px" font-weight="bold" text-anchor="middle" x="343.046875" y="369.609375">Master Bedroom</text></g><g id="room_common_room"><polygon fill="rgb(255,215,0)" fill-opacity="0.7" points="319.84375,129.140625 319.84375,219.84375 364.140625,219.84375 366.25,240.9375 397.890625,240.9375 397.890625,129.140625" stroke="black" stroke-width="1.5" /><text dominant-baseline="middle" fill="black" font-family="Arial" font-size="12px" font-weight="bold" text-anchor="middle" x="359.921875" y="186.09375">Common Room</text></g><g id="room_balcony"><polygon fill="rgb(107,142,35)" fill-opacity="0.7" points="418.984375,443.4375 418.984375,508.828125 505.46875,508.828125 505.46875,443.4375" stroke="black" stroke-width="1.5" /><text dominant-baseline="middle" fill="black" font-family="Arial" font-size="12px" font-weight="bold" text-anchor="middle" x="463.28125" y="477.1875">Balcony</text></g><g id="room_kitchen"><polygon fill="rgb(240,128,128)" fill-opacity="0.7" points="410.546875,129.140625 410.546875,198.75 467.5,198.75 467.5,129.140625" stroke="black" stroke-width="1.5" /><text dominant-baseline="middle" fill="black" font-family="Arial" font-size="12px" font-weight="bold" text-anchor="middle" x="440.078125" y="165.0">Kitchen</text></g><g id="room_bathroom"><polygon fill="rgb(173,216,230)" fill-opacity="0.7" points="294.53125,232.5 294.53125,293.671875 353.59375,293.671875 353.59375,232.5" stroke="black" stroke-width="1.5" /><text dominant-baseline="middle" fill="black" font-family="Arial" font-size="12px" font-weight="bold" text-anchor="middle" x="325.1171875" y="264.140625">Bathroom</text></g><rect fill="red" fill-opacity="0.9" height="31.640625" id="main_door" stroke="darkred" stroke-width="3" width="10.546875" x="469.609375" y="211.40625" /><text dominant-baseline="middle" fill="white" font-family="Arial" font-size="9px" font-weight="bold" text-anchor="middle" x="474.8828125" y="227.2265625">Main Door</text><text fill="black" font-family="Arial" font-size="18px" font-weight="bold" text-anchor="middle" x="400.0" y="30">Floor Plan - ID: 70558</text></svg>