<?xml version="1.0" encoding="utf-8" ?>
<svg baseProfile="full" height="600px" version="1.1" viewBox="0 0 800 600" width="800px" xmlns="http://www.w3.org/2000/svg" xmlns:ev="http://www.w3.org/2001/xml-events" xmlns:xlink="http://www.w3.org/1999/xlink"><defs /><rect fill="white" height="600" width="800" x="0" y="0" /><polygon fill="none" id="floor_plan_boundary" points="562.421875,86.953125 311.40625,86.953125 309.296875,150.234375 237.578125,150.234375 237.578125,513.046875 368.359375,513.046875 368.359375,453.984375 425.3125,451.875 425.3125,373.828125 416.875,373.828125 416.875,441.328125 359.921875,443.4375 357.8125,504.609375 246.015625,502.5 246.015625,160.78125 319.84375,158.671875 321.953125,95.390625 553.984375,97.5 551.875,226.171875 416.875,226.171875 416.875,344.296875 425.3125,344.296875 427.421875,234.609375 562.421875,234.609375" stroke="black" stroke-linecap="butt" stroke-linejoin="miter" stroke-width="4" /><g id="room_living_room"><polygon fill="rgb(238,232,170)" fill-opacity="0.7" points="248.125,194.53125 248.125,304.21875 368.359375,304.21875 370.46875,382.265625 414.765625,382.265625 414.765625,226.171875 461.171875,224.0625 461.171875,194.53125" stroke="black" stroke-width="1.5" /><text dominant-baseline="middle" fill="black" font-family="Arial" font-size="12px" font-weight="bold" text-anchor="middle" x="355.703125" y="289.453125">Living Room</text></g><g id="room_master_bedroom"><polygon fill="rgb(255,165,0)" fill-opacity="0.7" points="357.8125,316.875 321.953125,316.875 319.84375,392.8125 248.125,392.8125 248.125,502.5 357.8125,502.5" stroke="black" stroke-width="1.5" /><text dominant-baseline="middle" fill="black" font-family="Arial" font-size="12px" font-weight="bold" text-anchor="middle" x="304.0234375" y="410.7421875">Master Bedroom</text></g><g id="room_common_room"><polygon fill="rgb(255,215,0)" fill-opacity="0.7" points="473.828125,97.5 473.828125,224.0625 551.875,224.0625 551.875,97.5" stroke="black" stroke-width="1.5" /><text dominant-baseline="middle" fill="black" font-family="Arial" font-size="12px" font-weight="bold" text-anchor="middle" x="513.90625" y="161.8359375">Common Room</text></g><g id="room_common_room_2"><polygon fill="rgb(255,215,0)" fill-opacity="0.7" points="321.953125,97.5 321.953125,181.875 414.765625,181.875 414.765625,97.5" stroke="black" stroke-width="1.5" /><text dominant-baseline="middle" fill="black" font-family="Arial" font-size="12px" font-weight="bold" text-anchor="middle" x="369.4140625" y="140.7421875">Common Room 2</text></g><g id="room_bathroom_2"><polygon fill="rgb(173,216,230)" fill-opacity="0.7" points="248.125,316.875 248.125,380.15625 309.296875,380.15625 309.296875,316.875" stroke="black" stroke-width="1.5" /><text dominant-baseline="middle" fill="black" font-family="Arial" font-size="12px" font-weight="bold" text-anchor="middle" x="279.765625" y="349.5703125">Bathroom 2</text></g><g id="room_kitchen"><polygon fill="rgb(240,128,128)" fill-opacity="0.7" points="427.421875,97.5 427.421875,181.875 461.171875,181.875 461.171875,97.5" stroke="black" stroke-width="1.5" /><text dominant-baseline="middle" fill="black" font-family="Arial" font-size="12px" font-weight="bold" text-anchor="middle" x="445.3515625" y="140.7421875">Kitchen</text></g><g id="room_bathroom"><polygon fill="rgb(173,216,230)" fill-opacity="0.7" points="370.46875,390.703125 370.46875,441.328125 414.765625,441.328125 414.765625,390.703125" stroke="black" stroke-width="1.5" /><text dominant-baseline="middle" fill="black" font-family="Arial" font-size="12px" font-weight="bold" text-anchor="middle" x="393.671875" y="417.0703125">Bathroom</text></g><g id="room_balcony"><polygon fill="rgb(107,142,35)" fill-opacity="0.7" points="248.125,160.78125 248.125,181.875 309.296875,181.875 309.296875,160.78125" stroke="black" stroke-width="1.5" /><text dominant-baseline="middle" fill="black" font-family="Arial" font-size="12px" font-weight="bold" text-anchor="middle" x="279.765625" y="172.3828125">Balcony</text></g><rect fill="red" fill-opacity="0.9" height="27.421875" id="main_door" stroke="darkred" stroke-width="3" width="10.546875" x="416.875" y="346.40625" /><text dominant-baseline="middle" fill="white" font-family="Arial" font-size="9px" font-weight="bold" text-anchor="middle" x="422.1484375" y="360.1171875">Main Door</text><text fill="black" font-family="Arial" font-size="18px" font-weight="bold" text-anchor="middle" x="400.0" y="30">Floor Plan - ID: 71489</text></svg>