<?xml version="1.0" encoding="utf-8" ?>
<svg baseProfile="full" height="600px" version="1.1" viewBox="0 0 800 600" width="800px" xmlns="http://www.w3.org/2000/svg" xmlns:ev="http://www.w3.org/2001/xml-events" xmlns:xlink="http://www.w3.org/1999/xlink"><defs /><rect fill="white" height="600" width="800" x="0" y="0" /><polygon fill="none" id="floor_plan_boundary" points="237.578125,122.8125 237.578125,477.1875 336.71875,477.1875 338.828125,432.890625 452.734375,432.890625 452.734375,359.0625 507.578125,356.953125 497.03125,348.515625 444.296875,348.515625 442.1875,424.453125 328.28125,424.453125 326.171875,468.75 248.125,468.75 248.125,131.25 551.875,131.25 553.984375,306.328125 499.140625,308.4375 499.140625,321.09375 562.421875,316.875 562.421875,122.8125" stroke="black" stroke-linecap="butt" stroke-linejoin="miter" stroke-width="4" /><g id="room_living_room"><polygon fill="rgb(238,232,170)" fill-opacity="0.7" points="393.671875,133.359375 393.671875,215.625 338.828125,217.734375 338.828125,253.59375 321.953125,255.703125 321.953125,308.4375 452.734375,306.328125 454.84375,346.40625 497.03125,346.40625 499.140625,306.328125 551.875,306.328125 551.875,240.9375 497.03125,238.828125 497.03125,133.359375" stroke="black" stroke-width="1.5" /><text dominant-baseline="middle" fill="black" font-family="Arial" font-size="12px" font-weight="bold" text-anchor="middle" x="437.96875" y="240.9375">Living Room</text></g><g id="room_master_bedroom"><polygon fill="rgb(255,165,0)" fill-opacity="0.7" points="248.125,316.875 248.125,422.34375 353.59375,422.34375 353.59375,316.875" stroke="black" stroke-width="1.5" /><text dominant-baseline="middle" fill="black" font-family="Arial" font-size="12px" font-weight="bold" text-anchor="middle" x="301.9140625" y="370.6640625">Master Bedroom</text></g><g id="room_common_room_2"><polygon fill="rgb(255,215,0)" fill-opacity="0.7" points="248.125,133.359375 248.125,243.046875 326.171875,243.046875 328.28125,133.359375" stroke="black" stroke-width="1.5" /><text dominant-baseline="middle" fill="black" font-family="Arial" font-size="12px" font-weight="bold" text-anchor="middle" x="289.2578125" y="189.2578125">Common Room 2</text></g><g id="room_common_room"><polygon fill="rgb(255,215,0)" fill-opacity="0.7" points="366.25,318.984375 366.25,422.34375 442.1875,422.34375 442.1875,318.984375" stroke="black" stroke-width="1.5" /><text dominant-baseline="middle" fill="black" font-family="Arial" font-size="12px" font-weight="bold" text-anchor="middle" x="405.2734375" y="371.71875">Common Room</text></g><g id="room_kitchen"><polygon fill="rgb(240,128,128)" fill-opacity="0.7" points="509.6875,133.359375 509.6875,228.28125 551.875,228.28125 551.875,133.359375" stroke="black" stroke-width="1.5" /><text dominant-baseline="middle" fill="black" font-family="Arial" font-size="12px" font-weight="bold" text-anchor="middle" x="531.8359375" y="181.875">Kitchen</text></g><g id="room_bathroom"><polygon fill="rgb(173,216,230)" fill-opacity="0.7" points="248.125,255.703125 248.125,308.4375 313.515625,308.4375 313.515625,255.703125" stroke="black" stroke-width="1.5" /><text dominant-baseline="middle" fill="black" font-family="Arial" font-size="12px" font-weight="bold" text-anchor="middle" x="281.875" y="283.125">Bathroom</text></g><g id="room_bathroom_2"><polygon fill="rgb(173,216,230)" fill-opacity="0.7" points="336.71875,133.359375 336.71875,205.078125 381.015625,205.078125 381.015625,133.359375" stroke="black" stroke-width="1.5" /><text dominant-baseline="middle" fill="black" font-family="Arial" font-size="12px" font-weight="bold" text-anchor="middle" x="359.921875" y="170.2734375">Bathroom 2</text></g><g id="room_balcony"><polygon fill="rgb(107,142,35)" fill-opacity="0.7" points="248.125,435.0 248.125,466.640625 326.171875,466.640625 326.171875,435.0" stroke="black" stroke-width="1.5" /><text dominant-baseline="middle" fill="black" font-family="Arial" font-size="12px" font-weight="bold" text-anchor="middle" x="288.203125" y="451.875">Balcony</text></g><rect fill="red" fill-opacity="0.9" height="27.421875" id="main_door" stroke="darkred" stroke-width="3" width="10.546875" x="499.140625" y="323.203125" /><text dominant-baseline="middle" fill="white" font-family="Arial" font-size="9px" font-weight="bold" text-anchor="middle" x="504.4140625" y="336.9140625">Main Door</text><text fill="black" font-family="Arial" font-size="18px" font-weight="bold" text-anchor="middle" x="400.0" y="30">Floor Plan - ID: 71493</text></svg>