<?xml version="1.0" encoding="utf-8" ?>
<svg baseProfile="full" height="600px" version="1.1" viewBox="0 0 800 600" width="800px" xmlns="http://www.w3.org/2000/svg" xmlns:ev="http://www.w3.org/2001/xml-events" xmlns:xlink="http://www.w3.org/1999/xlink"><defs /><rect fill="white" height="600" width="800" x="0" y="0" /><polygon fill="none" id="floor_plan_boundary" points="252.34375,141.796875 252.34375,293.671875 298.75,295.78125 298.75,458.203125 425.3125,458.203125 427.421875,409.6875 452.734375,411.796875 452.734375,439.21875 522.34375,439.21875 522.34375,207.1875 547.65625,205.078125 547.65625,141.796875 448.515625,141.796875 448.515625,150.234375 539.21875,152.34375 539.21875,194.53125 513.90625,196.640625 513.90625,428.671875 463.28125,430.78125 461.171875,401.25 416.875,401.25 414.765625,449.765625 307.1875,447.65625 307.1875,285.234375 260.78125,283.125 260.78125,152.34375 418.984375,150.234375 418.984375,141.796875" stroke="black" stroke-linecap="butt" stroke-linejoin="miter" stroke-width="4" /><g id="room_living_room"><polygon fill="rgb(238,232,170)" fill-opacity="0.7" points="486.484375,152.34375 370.46875,152.34375 370.46875,274.6875 309.296875,276.796875 309.296875,399.140625 414.765625,399.140625 414.765625,268.359375 448.515625,266.25 448.515625,196.640625 486.484375,194.53125" stroke="black" stroke-width="1.5" /><text dominant-baseline="middle" fill="black" font-family="Arial" font-size="12px" font-weight="bold" text-anchor="middle" x="398.9453125" y="276.796875">Living Room</text></g><g id="room_master_bedroom"><polygon fill="rgb(255,165,0)" fill-opacity="0.7" points="427.421875,278.90625 427.421875,399.140625 461.171875,399.140625 463.28125,428.671875 511.796875,428.671875 511.796875,278.90625" stroke="black" stroke-width="1.5" /><text dominant-baseline="middle" fill="black" font-family="Arial" font-size="12px" font-weight="bold" text-anchor="middle" x="470.6640625" y="354.84375">Master Bedroom</text></g><g id="room_common_room"><polygon fill="rgb(255,215,0)" fill-opacity="0.7" points="262.890625,152.34375 262.890625,283.125 296.640625,283.125 298.75,264.140625 357.8125,264.140625 357.8125,152.34375" stroke="black" stroke-width="1.5" /><text dominant-baseline="middle" fill="black" font-family="Arial" font-size="12px" font-weight="bold" text-anchor="middle" x="311.40625" y="218.7890625">Common Room</text></g><g id="room_balcony"><polygon fill="rgb(107,142,35)" fill-opacity="0.7" points="309.296875,411.796875 309.296875,447.65625 414.765625,447.65625 414.765625,411.796875" stroke="black" stroke-width="1.5" /><text dominant-baseline="middle" fill="black" font-family="Arial" font-size="12px" font-weight="bold" text-anchor="middle" x="363.0859375" y="430.78125">Balcony</text></g><g id="room_kitchen"><polygon fill="rgb(240,128,128)" fill-opacity="0.7" points="461.171875,207.1875 461.171875,266.25 511.796875,266.25 511.796875,207.1875" stroke="black" stroke-width="1.5" /><text dominant-baseline="middle" fill="black" font-family="Arial" font-size="12px" font-weight="bold" text-anchor="middle" x="487.5390625" y="237.7734375">Kitchen</text></g><g id="room_bathroom"><polygon fill="rgb(173,216,230)" fill-opacity="0.7" points="494.921875,152.34375 494.921875,194.53125 537.109375,194.53125 537.109375,152.34375" stroke="black" stroke-width="1.5" /><text dominant-baseline="middle" fill="black" font-family="Arial" font-size="12px" font-weight="bold" text-anchor="middle" x="517.0703125" y="174.4921875">Bathroom</text></g><rect fill="red" fill-opacity="0.9" height="10.546875" id="main_door" stroke="darkred" stroke-width="3" width="27.421875" x="421.09375" y="141.796875" /><text dominant-baseline="middle" fill="white" font-family="Arial" font-size="9px" font-weight="bold" text-anchor="middle" x="434.8046875" y="147.0703125">Main Door</text><text fill="black" font-family="Arial" font-size="18px" font-weight="bold" text-anchor="middle" x="400.0" y="30">Floor Plan - ID: 71644</text></svg>