<?xml version="1.0" encoding="utf-8" ?>
<svg baseProfile="full" height="600px" version="1.1" viewBox="0 0 800 600" width="800px" xmlns="http://www.w3.org/2000/svg" xmlns:ev="http://www.w3.org/2001/xml-events" xmlns:xlink="http://www.w3.org/1999/xlink"><defs /><rect fill="white" height="600" width="800" x="0" y="0" /><polygon fill="none" id="floor_plan_boundary" points="252.34375,181.875 252.34375,325.3125 267.109375,327.421875 267.109375,373.828125 324.0625,375.9375 324.0625,449.765625 340.9375,451.875 340.9375,485.625 547.65625,485.625 547.65625,403.359375 539.21875,403.359375 537.109375,477.1875 351.484375,477.1875 349.375,441.328125 332.5,439.21875 332.5,365.390625 277.65625,365.390625 275.546875,316.875 260.78125,314.765625 262.890625,190.3125 427.421875,190.3125 429.53125,122.8125 537.109375,122.8125 539.21875,356.953125 547.65625,356.953125 547.65625,114.375 418.984375,114.375 416.875,181.875" stroke="black" stroke-linecap="butt" stroke-linejoin="miter" stroke-width="4" /><g id="room_living_room"><polygon fill="rgb(238,232,170)" fill-opacity="0.7" points="429.53125,162.890625 429.53125,249.375 374.6875,251.484375 374.6875,314.765625 429.53125,316.875 429.53125,403.359375 537.109375,403.359375 537.109375,162.890625" stroke="black" stroke-width="1.5" /><text dominant-baseline="middle" fill="black" font-family="Arial" font-size="12px" font-weight="bold" text-anchor="middle" x="456.953125" y="284.1796875">Living Room</text></g><g id="room_common_room"><polygon fill="rgb(255,215,0)" fill-opacity="0.7" points="262.890625,192.421875 262.890625,314.765625 362.03125,314.765625 362.03125,192.421875" stroke="black" stroke-width="1.5" /><text dominant-baseline="middle" fill="black" font-family="Arial" font-size="12px" font-weight="bold" text-anchor="middle" x="313.515625" y="254.6484375">Common Room</text></g><g id="room_master_bedroom"><polygon fill="rgb(255,165,0)" fill-opacity="0.7" points="334.609375,327.421875 334.609375,439.21875 416.875,439.21875 416.875,327.421875" stroke="black" stroke-width="1.5" /><text dominant-baseline="middle" fill="black" font-family="Arial" font-size="12px" font-weight="bold" text-anchor="middle" x="376.796875" y="384.375">Master Bedroom</text></g><g id="room_kitchen"><polygon fill="rgb(240,128,128)" fill-opacity="0.7" points="429.53125,416.015625 429.53125,475.078125 537.109375,475.078125 537.109375,416.015625" stroke="black" stroke-width="1.5" /><text dominant-baseline="middle" fill="black" font-family="Arial" font-size="12px" font-weight="bold" text-anchor="middle" x="484.375" y="446.6015625">Kitchen</text></g><g id="room_balcony_3"><polygon fill="rgb(107,142,35)" fill-opacity="0.7" points="429.53125,124.921875 429.53125,150.234375 537.109375,150.234375 537.109375,124.921875" stroke="black" stroke-width="1.5" /><text dominant-baseline="middle" fill="black" font-family="Arial" font-size="12px" font-weight="bold" text-anchor="middle" x="484.375" y="138.6328125">Balcony 3</text></g><g id="room_bathroom"><polygon fill="rgb(173,216,230)" fill-opacity="0.7" points="374.6875,192.421875 374.6875,238.828125 416.875,238.828125 416.875,192.421875" stroke="black" stroke-width="1.5" /><text dominant-baseline="middle" fill="black" font-family="Arial" font-size="12px" font-weight="bold" text-anchor="middle" x="396.8359375" y="216.6796875">Bathroom</text></g><g id="room_balcony_2"><polygon fill="rgb(107,142,35)" fill-opacity="0.7" points="277.65625,327.421875 277.65625,363.28125 321.953125,363.28125 321.953125,327.421875" stroke="black" stroke-width="1.5" /><text dominant-baseline="middle" fill="black" font-family="Arial" font-size="12px" font-weight="bold" text-anchor="middle" x="300.859375" y="346.40625">Balcony 2</text></g><g id="room_balcony"><polygon fill="rgb(107,142,35)" fill-opacity="0.7" points="351.484375,451.875 351.484375,475.078125 416.875,475.078125 416.875,451.875" stroke="black" stroke-width="1.5" /><text dominant-baseline="middle" fill="black" font-family="Arial" font-size="12px" font-weight="bold" text-anchor="middle" x="385.234375" y="464.53125">Balcony</text></g><rect fill="red" fill-opacity="0.9" height="44.296875" id="main_door" stroke="darkred" stroke-width="3" width="10.546875" x="539.21875" y="359.0625" /><text dominant-baseline="middle" fill="white" font-family="Arial" font-size="9px" font-weight="bold" text-anchor="middle" x="544.4921875" y="381.2109375">Main Door</text><text fill="black" font-family="Arial" font-size="18px" font-weight="bold" text-anchor="middle" x="400.0" y="30">Floor Plan - ID: 7181</text></svg>