<?xml version="1.0" encoding="utf-8" ?>
<svg baseProfile="full" height="600px" version="1.1" viewBox="0 0 800 600" width="800px" xmlns="http://www.w3.org/2000/svg" xmlns:ev="http://www.w3.org/2001/xml-events" xmlns:xlink="http://www.w3.org/1999/xlink"><defs /><rect fill="white" height="600" width="800" x="0" y="0" /><polygon fill="none" id="floor_plan_boundary" points="317.734375,110.15625 317.734375,221.953125 328.28125,224.0625 328.28125,247.265625 313.515625,278.90625 330.390625,278.90625 336.71875,257.8125 336.71875,213.515625 326.171875,211.40625 328.28125,118.59375 385.234375,118.59375 387.34375,146.015625 448.515625,146.015625 450.625,118.59375 547.65625,120.703125 547.65625,479.296875 254.453125,481.40625 252.34375,281.015625 283.984375,278.90625 283.984375,270.46875 243.90625,270.46875 243.90625,489.84375 556.09375,489.84375 556.09375,110.15625 440.078125,110.15625 437.96875,137.578125 397.890625,137.578125 395.78125,110.15625" stroke="black" stroke-linecap="butt" stroke-linejoin="miter" stroke-width="4" /><g id="room_living_room"><polygon fill="rgb(238,232,170)" fill-opacity="0.7" points="440.078125,202.96875 395.78125,202.96875 393.671875,236.71875 338.828125,236.71875 330.390625,281.015625 254.453125,281.015625 254.453125,424.453125 429.53125,424.453125 429.53125,352.734375 446.40625,350.625 446.40625,327.421875 429.53125,325.3125 429.53125,266.25 469.609375,264.140625 469.609375,238.828125 440.078125,236.71875" stroke="black" stroke-width="1.5" /><text dominant-baseline="middle" fill="black" font-family="Arial" font-size="12px" font-weight="bold" text-anchor="middle" x="363.0859375" y="314.765625">Living Room</text></g><g id="room_master_bedroom"><polygon fill="rgb(255,165,0)" fill-opacity="0.7" points="454.84375,327.421875 454.84375,356.953125 437.96875,359.0625 437.96875,479.296875 545.546875,479.296875 545.546875,327.421875" stroke="black" stroke-width="1.5" /><text dominant-baseline="middle" fill="black" font-family="Arial" font-size="12px" font-weight="bold" text-anchor="middle" x="492.8125" y="404.4140625">Master Bedroom</text></g><g id="room_common_room"><polygon fill="rgb(255,215,0)" fill-opacity="0.7" points="450.625,120.703125 448.515625,230.390625 545.546875,230.390625 545.546875,120.703125" stroke="black" stroke-width="1.5" /><text dominant-baseline="middle" fill="black" font-family="Arial" font-size="12px" font-weight="bold" text-anchor="middle" x="498.0859375" y="176.6015625">Common Room</text></g><g id="room_balcony"><polygon fill="rgb(107,142,35)" fill-opacity="0.7" points="254.453125,437.109375 254.453125,479.296875 429.53125,479.296875 429.53125,437.109375" stroke="black" stroke-width="1.5" /><text dominant-baseline="middle" fill="black" font-family="Arial" font-size="12px" font-weight="bold" text-anchor="middle" x="343.046875" y="459.2578125">Balcony</text></g><g id="room_bathroom"><polygon fill="rgb(173,216,230)" fill-opacity="0.7" points="437.96875,272.578125 437.96875,318.984375 545.546875,318.984375 545.546875,238.828125 478.046875,238.828125 475.9375,272.578125" stroke="black" stroke-width="1.5" /><text dominant-baseline="middle" fill="black" font-family="Arial" font-size="12px" font-weight="bold" text-anchor="middle" x="492.8125" y="279.9609375">Bathroom</text></g><g id="room_kitchen"><polygon fill="rgb(240,128,128)" fill-opacity="0.7" points="328.28125,120.703125 328.28125,211.40625 338.828125,213.515625 338.828125,228.28125 387.34375,228.28125 385.234375,120.703125" stroke="black" stroke-width="1.5" /><text dominant-baseline="middle" fill="black" font-family="Arial" font-size="12px" font-weight="bold" text-anchor="middle" x="358.8671875" y="175.546875">Kitchen</text></g><g id="room_bathroom_2"><polygon fill="rgb(173,216,230)" fill-opacity="0.7" points="395.78125,148.125 395.78125,194.53125 440.078125,194.53125 440.078125,148.125" stroke="black" stroke-width="1.5" /><text dominant-baseline="middle" fill="black" font-family="Arial" font-size="12px" font-weight="bold" text-anchor="middle" x="418.984375" y="172.3828125">Bathroom 2</text></g><rect fill="red" fill-opacity="0.9" height="10.546875" id="main_door" stroke="darkred" stroke-width="3" width="27.421875" x="286.09375" y="270.46875" /><text dominant-baseline="middle" fill="white" font-family="Arial" font-size="9px" font-weight="bold" text-anchor="middle" x="299.8046875" y="275.7421875">Main Door</text><text fill="black" font-family="Arial" font-size="18px" font-weight="bold" text-anchor="middle" x="400.0" y="30">Floor Plan - ID: 71855</text></svg>