<?xml version="1.0" encoding="utf-8" ?>
<svg baseProfile="full" height="600px" version="1.1" viewBox="0 0 800 600" width="800px" xmlns="http://www.w3.org/2000/svg" xmlns:ev="http://www.w3.org/2001/xml-events" xmlns:xlink="http://www.w3.org/1999/xlink"><defs /><rect fill="white" height="600" width="800" x="0" y="0" /><polygon fill="none" id="floor_plan_boundary" points="256.5625,171.328125 256.5625,428.671875 450.625,428.671875 450.625,424.453125 260.78125,422.34375 262.890625,175.546875 537.109375,175.546875 539.21875,422.34375 471.71875,428.671875 543.4375,428.671875 543.4375,171.328125" stroke="black" stroke-linecap="butt" stroke-linejoin="miter" stroke-width="4" /><g id="room_living_room"><polygon fill="rgb(238,232,170)" fill-opacity="0.7" points="296.640625,270.46875 296.640625,422.34375 473.828125,422.34375 473.828125,361.171875 537.109375,359.0625 537.109375,289.453125 475.9375,289.453125 473.828125,270.46875" stroke="black" stroke-width="1.5" /><text dominant-baseline="middle" fill="black" font-family="Arial" font-size="12px" font-weight="bold" text-anchor="middle" x="417.9296875" y="347.4609375">Living Room</text></g><g id="room_master_bedroom"><polygon fill="rgb(255,165,0)" fill-opacity="0.7" points="262.890625,177.65625 262.890625,262.03125 381.015625,262.03125 381.015625,177.65625" stroke="black" stroke-width="1.5" /><text dominant-baseline="middle" fill="black" font-family="Arial" font-size="12px" font-weight="bold" text-anchor="middle" x="323.0078125" y="220.8984375">Master Bedroom</text></g><g id="room_common_room"><polygon fill="rgb(255,215,0)" fill-opacity="0.7" points="389.453125,177.65625 389.453125,262.03125 473.828125,262.03125 473.828125,177.65625" stroke="black" stroke-width="1.5" /><text dominant-baseline="middle" fill="black" font-family="Arial" font-size="12px" font-weight="bold" text-anchor="middle" x="432.6953125" y="220.8984375">Common Room</text></g><g id="room_kitchen"><polygon fill="rgb(240,128,128)" fill-opacity="0.7" points="482.265625,177.65625 482.265625,281.015625 537.109375,281.015625 537.109375,177.65625" stroke="black" stroke-width="1.5" /><text dominant-baseline="middle" fill="black" font-family="Arial" font-size="12px" font-weight="bold" text-anchor="middle" x="510.7421875" y="230.390625">Kitchen</text></g><g id="room_balcony"><polygon fill="rgb(107,142,35)" fill-opacity="0.7" points="262.890625,270.46875 262.890625,422.34375 288.203125,422.34375 288.203125,270.46875" stroke="black" stroke-width="1.5" /><text dominant-baseline="middle" fill="black" font-family="Arial" font-size="12px" font-weight="bold" text-anchor="middle" x="276.6015625" y="347.4609375">Balcony</text></g><g id="room_bathroom"><polygon fill="rgb(173,216,230)" fill-opacity="0.7" points="482.265625,367.5 482.265625,422.34375 537.109375,422.34375 537.109375,367.5" stroke="black" stroke-width="1.5" /><text dominant-baseline="middle" fill="black" font-family="Arial" font-size="12px" font-weight="bold" text-anchor="middle" x="510.7421875" y="395.9765625">Bathroom</text></g><text fill="black" font-family="Arial" font-size="18px" font-weight="bold" text-anchor="middle" x="400.0" y="30">Floor Plan - ID: 71916</text></svg>