<?xml version="1.0" encoding="utf-8" ?>
<svg baseProfile="full" height="600px" version="1.1" viewBox="0 0 800 600" width="800px" xmlns="http://www.w3.org/2000/svg" xmlns:ev="http://www.w3.org/2001/xml-events" xmlns:xlink="http://www.w3.org/1999/xlink"><defs /><rect fill="white" height="600" width="800" x="0" y="0" /><polygon fill="none" id="floor_plan_boundary" points="332.5,108.046875 332.5,247.265625 286.09375,249.375 286.09375,443.4375 393.671875,443.4375 395.78125,491.953125 513.90625,491.953125 513.90625,297.890625 488.59375,300.0 509.6875,304.21875 507.578125,487.734375 402.109375,487.734375 400.0,439.21875 290.3125,437.109375 290.3125,255.703125 336.71875,253.59375 338.828125,112.265625 488.59375,114.375 492.8125,278.90625 492.8125,108.046875" stroke="black" stroke-linecap="butt" stroke-linejoin="miter" stroke-width="4" /><g id="room_living_room"><polygon fill="rgb(238,232,170)" fill-opacity="0.7" points="402.109375,205.078125 402.109375,437.109375 507.578125,437.109375 507.578125,304.21875 486.484375,302.109375 486.484375,205.078125" stroke="black" stroke-width="1.5" /><text dominant-baseline="middle" fill="black" font-family="Arial" font-size="12px" font-weight="bold" text-anchor="middle" x="455.8984375" y="322.1484375">Living Room</text></g><g id="room_master_bedroom"><polygon fill="rgb(255,165,0)" fill-opacity="0.7" points="292.421875,325.3125 292.421875,437.109375 393.671875,437.109375 393.671875,325.3125" stroke="black" stroke-width="1.5" /><text dominant-baseline="middle" fill="black" font-family="Arial" font-size="12px" font-weight="bold" text-anchor="middle" x="344.1015625" y="382.265625">Master Bedroom</text></g><g id="room_balcony_2"><polygon fill="rgb(107,142,35)" fill-opacity="0.7" points="338.828125,114.375 338.828125,196.640625 421.09375,196.640625 421.09375,114.375" stroke="black" stroke-width="1.5" /><text dominant-baseline="middle" fill="black" font-family="Arial" font-size="12px" font-weight="bold" text-anchor="middle" x="381.015625" y="156.5625">Balcony 2</text></g><g id="room_common_room"><polygon fill="rgb(255,215,0)" fill-opacity="0.7" points="292.421875,255.703125 292.421875,316.875 393.671875,316.875 393.671875,255.703125" stroke="black" stroke-width="1.5" /><text dominant-baseline="middle" fill="black" font-family="Arial" font-size="12px" font-weight="bold" text-anchor="middle" x="344.1015625" y="287.34375">Common Room</text></g><g id="room_kitchen"><polygon fill="rgb(240,128,128)" fill-opacity="0.7" points="429.53125,114.375 429.53125,196.640625 486.484375,196.640625 486.484375,114.375" stroke="black" stroke-width="1.5" /><text dominant-baseline="middle" fill="black" font-family="Arial" font-size="12px" font-weight="bold" text-anchor="middle" x="459.0625" y="156.5625">Kitchen</text></g><g id="room_balcony"><polygon fill="rgb(107,142,35)" fill-opacity="0.7" points="402.109375,445.546875 402.109375,485.625 507.578125,485.625 507.578125,445.546875" stroke="black" stroke-width="1.5" /><text dominant-baseline="middle" fill="black" font-family="Arial" font-size="12px" font-weight="bold" text-anchor="middle" x="455.8984375" y="466.640625">Balcony</text></g><g id="room_bathroom"><polygon fill="rgb(173,216,230)" fill-opacity="0.7" points="338.828125,205.078125 338.828125,247.265625 393.671875,247.265625 393.671875,205.078125" stroke="black" stroke-width="1.5" /><text dominant-baseline="middle" fill="black" font-family="Arial" font-size="12px" font-weight="bold" text-anchor="middle" x="367.3046875" y="227.2265625">Bathroom</text></g><text fill="black" font-family="Arial" font-size="18px" font-weight="bold" text-anchor="middle" x="400.0" y="30">Floor Plan - ID: 72203</text></svg>