<?xml version="1.0" encoding="utf-8" ?>
<svg baseProfile="full" height="600px" version="1.1" viewBox="0 0 800 600" width="800px" xmlns="http://www.w3.org/2000/svg" xmlns:ev="http://www.w3.org/2001/xml-events" xmlns:xlink="http://www.w3.org/1999/xlink"><defs /><rect fill="white" height="600" width="800" x="0" y="0" /><polygon fill="none" id="floor_plan_boundary" points="241.796875,196.640625 241.796875,401.25 271.328125,401.25 273.4375,426.5625 355.703125,426.5625 357.8125,445.546875 448.515625,445.546875 450.625,426.5625 558.203125,426.5625 558.203125,188.203125 400.0,188.203125 397.890625,154.453125 315.625,154.453125 313.515625,205.078125 324.0625,205.078125 326.171875,162.890625 387.34375,162.890625 389.453125,196.640625 549.765625,198.75 549.765625,416.015625 440.078125,418.125 437.96875,437.109375 368.359375,437.109375 366.25,418.125 283.984375,418.125 281.875,392.8125 250.234375,390.703125 250.234375,207.1875 279.765625,205.078125 279.765625,196.640625" stroke="black" stroke-linecap="butt" stroke-linejoin="miter" stroke-width="4" /><g id="room_living_room"><polygon fill="rgb(238,232,170)" fill-opacity="0.7" points="252.34375,207.1875 252.34375,390.703125 281.875,390.703125 283.984375,416.015625 355.703125,416.015625 357.8125,308.4375 480.15625,310.546875 480.15625,278.90625 376.796875,278.90625 374.6875,240.9375 315.625,240.9375 313.515625,207.1875" stroke="black" stroke-width="1.5" /><text dominant-baseline="middle" fill="black" font-family="Arial" font-size="12px" font-weight="bold" text-anchor="middle" x="367.3046875" y="312.65625">Living Room</text></g><g id="room_master_bedroom"><polygon fill="rgb(255,165,0)" fill-opacity="0.7" points="448.515625,318.984375 448.515625,416.015625 547.65625,416.015625 547.65625,318.984375" stroke="black" stroke-width="1.5" /><text dominant-baseline="middle" fill="black" font-family="Arial" font-size="12px" font-weight="bold" text-anchor="middle" x="499.140625" y="368.5546875">Master Bedroom</text></g><g id="room_common_room"><polygon fill="rgb(255,215,0)" fill-opacity="0.7" points="368.359375,318.984375 368.359375,435.0 437.96875,435.0 440.078125,318.984375" stroke="black" stroke-width="1.5" /><text dominant-baseline="middle" fill="black" font-family="Arial" font-size="12px" font-weight="bold" text-anchor="middle" x="405.2734375" y="378.046875">Common Room</text></g><g id="room_common_room_2"><polygon fill="rgb(255,215,0)" fill-opacity="0.7" points="448.515625,198.75 448.515625,270.46875 547.65625,270.46875 547.65625,198.75" stroke="black" stroke-width="1.5" /><text dominant-baseline="middle" fill="black" font-family="Arial" font-size="12px" font-weight="bold" text-anchor="middle" x="499.140625" y="235.6640625">Common Room 2</text></g><g id="room_kitchen"><polygon fill="rgb(240,128,128)" fill-opacity="0.7" points="326.171875,165.0 326.171875,228.28125 387.34375,228.28125 387.34375,165.0" stroke="black" stroke-width="1.5" /><text dominant-baseline="middle" fill="black" font-family="Arial" font-size="12px" font-weight="bold" text-anchor="middle" x="357.8125" y="197.6953125">Kitchen</text></g><g id="room_bathroom"><polygon fill="rgb(173,216,230)" fill-opacity="0.7" points="400.0,198.75 400.0,238.828125 383.125,240.9375 383.125,270.46875 440.078125,270.46875 440.078125,198.75" stroke="black" stroke-width="1.5" /><text dominant-baseline="middle" fill="black" font-family="Arial" font-size="12px" font-weight="bold" text-anchor="middle" x="412.65625" y="235.6640625">Bathroom</text></g><rect fill="red" fill-opacity="0.9" height="10.546875" id="main_door" stroke="darkred" stroke-width="3" width="31.640625" x="281.875" y="196.640625" /><text dominant-baseline="middle" fill="white" font-family="Arial" font-size="9px" font-weight="bold" text-anchor="middle" x="297.6953125" y="201.9140625">Main Door</text><text fill="black" font-family="Arial" font-size="18px" font-weight="bold" text-anchor="middle" x="400.0" y="30">Floor Plan - ID: 72224</text></svg>