<?xml version="1.0" encoding="utf-8" ?>
<svg baseProfile="full" height="600px" version="1.1" viewBox="0 0 800 600" width="800px" xmlns="http://www.w3.org/2000/svg" xmlns:ev="http://www.w3.org/2001/xml-events" xmlns:xlink="http://www.w3.org/1999/xlink"><defs /><rect fill="white" height="600" width="800" x="0" y="0" /><polygon fill="none" id="floor_plan_boundary" points="484.375,86.953125 374.6875,86.953125 374.6875,160.78125 321.953125,162.890625 321.953125,329.53125 326.171875,169.21875 378.90625,167.109375 381.015625,91.171875 478.046875,91.171875 480.15625,302.109375 518.125,304.21875 518.125,468.75 404.21875,470.859375 402.109375,508.828125 283.984375,508.828125 281.875,359.0625 326.171875,354.84375 277.65625,352.734375 277.65625,513.046875 408.4375,513.046875 410.546875,475.078125 522.34375,475.078125 522.34375,297.890625 484.375,295.78125" stroke="black" stroke-linecap="butt" stroke-linejoin="miter" stroke-width="4" /><g id="room_living_room"><polygon fill="rgb(238,232,170)" fill-opacity="0.7" points="328.28125,198.75 328.28125,356.953125 283.984375,359.0625 283.984375,468.75 402.109375,468.75 402.109375,352.734375 425.3125,350.625 425.3125,297.890625 478.046875,295.78125 478.046875,274.6875 425.3125,272.578125 425.3125,198.75" stroke="black" stroke-width="1.5" /><text dominant-baseline="middle" fill="black" font-family="Arial" font-size="12px" font-weight="bold" text-anchor="middle" x="382.0703125" y="334.8046875">Living Room</text></g><g id="room_master_bedroom"><polygon fill="rgb(255,165,0)" fill-opacity="0.7" points="410.546875,359.0625 410.546875,468.75 516.015625,468.75 516.015625,359.0625" stroke="black" stroke-width="1.5" /><text dominant-baseline="middle" fill="black" font-family="Arial" font-size="12px" font-weight="bold" text-anchor="middle" x="464.3359375" y="414.9609375">Master Bedroom</text></g><g id="room_common_room"><polygon fill="rgb(255,215,0)" fill-opacity="0.7" points="381.015625,93.28125 381.015625,190.3125 478.046875,190.3125 478.046875,93.28125" stroke="black" stroke-width="1.5" /><text dominant-baseline="middle" fill="black" font-family="Arial" font-size="12px" font-weight="bold" text-anchor="middle" x="430.5859375" y="142.8515625">Common Room</text></g><g id="room_bathroom"><polygon fill="rgb(173,216,230)" fill-opacity="0.7" points="433.75,304.21875 433.75,350.625 516.015625,350.625 516.015625,304.21875" stroke="black" stroke-width="1.5" /><text dominant-baseline="middle" fill="black" font-family="Arial" font-size="12px" font-weight="bold" text-anchor="middle" x="475.9375" y="328.4765625">Bathroom</text></g><g id="room_balcony"><polygon fill="rgb(107,142,35)" fill-opacity="0.7" points="283.984375,477.1875 283.984375,506.71875 402.109375,506.71875 402.109375,477.1875" stroke="black" stroke-width="1.5" /><text dominant-baseline="middle" fill="black" font-family="Arial" font-size="12px" font-weight="bold" text-anchor="middle" x="344.1015625" y="493.0078125">Balcony</text></g><g id="room_kitchen"><polygon fill="rgb(240,128,128)" fill-opacity="0.7" points="433.75,198.75 433.75,266.25 478.046875,266.25 478.046875,198.75" stroke="black" stroke-width="1.5" /><text dominant-baseline="middle" fill="black" font-family="Arial" font-size="12px" font-weight="bold" text-anchor="middle" x="456.953125" y="233.5546875">Kitchen</text></g><g id="room_balcony_2"><polygon fill="rgb(107,142,35)" fill-opacity="0.7" points="328.28125,169.21875 328.28125,190.3125 372.578125,190.3125 372.578125,169.21875" stroke="black" stroke-width="1.5" /><text dominant-baseline="middle" fill="black" font-family="Arial" font-size="12px" font-weight="bold" text-anchor="middle" x="351.484375" y="180.8203125">Balcony 2</text></g><text fill="black" font-family="Arial" font-size="18px" font-weight="bold" text-anchor="middle" x="400.0" y="30">Floor Plan - ID: 72337</text></svg>