<?xml version="1.0" encoding="utf-8" ?>
<svg baseProfile="full" height="600px" version="1.1" viewBox="0 0 800 600" width="800px" xmlns="http://www.w3.org/2000/svg" xmlns:ev="http://www.w3.org/2001/xml-events" xmlns:xlink="http://www.w3.org/1999/xlink"><defs /><rect fill="white" height="600" width="800" x="0" y="0" /><polygon fill="none" id="floor_plan_boundary" points="218.59375,209.296875 218.59375,390.703125 581.40625,390.703125 581.40625,306.328125 577.1875,306.328125 575.078125,386.484375 222.8125,384.375 224.921875,213.515625 575.078125,213.515625 577.1875,276.796875 581.40625,276.796875 581.40625,209.296875" stroke="black" stroke-linecap="butt" stroke-linejoin="miter" stroke-width="4" /><g id="room_master_bedroom"><polygon fill="rgb(255,165,0)" fill-opacity="0.7" points="224.921875,215.625 224.921875,384.375 362.03125,384.375 362.03125,215.625" stroke="black" stroke-width="1.5" /><text dominant-baseline="middle" fill="black" font-family="Arial" font-size="12px" font-weight="bold" text-anchor="middle" x="294.53125" y="301.0546875">Master Bedroom</text></g><g id="room_living_room"><polygon fill="rgb(238,232,170)" fill-opacity="0.7" points="370.46875,215.625 370.46875,384.375 478.046875,384.375 478.046875,215.625" stroke="black" stroke-width="1.5" /><text dominant-baseline="middle" fill="black" font-family="Arial" font-size="12px" font-weight="bold" text-anchor="middle" x="425.3125" y="301.0546875">Living Room</text></g><g id="room_kitchen"><polygon fill="rgb(240,128,128)" fill-opacity="0.7" points="486.484375,215.625 486.484375,300.0 575.078125,300.0 575.078125,215.625" stroke="black" stroke-width="1.5" /><text dominant-baseline="middle" fill="black" font-family="Arial" font-size="12px" font-weight="bold" text-anchor="middle" x="531.8359375" y="258.8671875">Kitchen</text></g><g id="room_bathroom"><polygon fill="rgb(173,216,230)" fill-opacity="0.7" points="486.484375,308.4375 486.484375,384.375 575.078125,384.375 575.078125,308.4375" stroke="black" stroke-width="1.5" /><text dominant-baseline="middle" fill="black" font-family="Arial" font-size="12px" font-weight="bold" text-anchor="middle" x="531.8359375" y="347.4609375">Bathroom</text></g><rect fill="red" fill-opacity="0.9" height="27.421875" id="main_door" stroke="darkred" stroke-width="3" width="6.328125" x="577.1875" y="278.90625" /><text dominant-baseline="middle" fill="white" font-family="Arial" font-size="9px" font-weight="bold" text-anchor="middle" x="580.3515625" y="292.6171875">Main Door</text><text fill="black" font-family="Arial" font-size="18px" font-weight="bold" text-anchor="middle" x="400.0" y="30">Floor Plan - ID: 72416</text></svg>