<?xml version="1.0" encoding="utf-8" ?>
<svg baseProfile="full" height="600px" version="1.1" viewBox="0 0 800 600" width="800px" xmlns="http://www.w3.org/2000/svg" xmlns:ev="http://www.w3.org/2001/xml-events" xmlns:xlink="http://www.w3.org/1999/xlink"><defs /><rect fill="white" height="600" width="800" x="0" y="0" /><polygon fill="none" id="floor_plan_boundary" points="391.5625,108.046875 389.453125,167.109375 300.859375,167.109375 300.859375,255.703125 283.984375,257.8125 283.984375,447.65625 389.453125,447.65625 391.5625,491.953125 516.015625,491.953125 516.015625,243.046875 509.6875,487.734375 397.890625,487.734375 395.78125,443.4375 288.203125,441.328125 288.203125,264.140625 305.078125,262.03125 307.1875,171.328125 395.78125,171.328125 397.890625,112.265625 494.921875,112.265625 497.03125,171.328125 511.796875,173.4375 516.015625,221.953125 516.015625,167.109375 501.25,165.0 501.25,108.046875" stroke="black" stroke-linecap="butt" stroke-linejoin="miter" stroke-width="4" /><g id="room_living_room"><polygon fill="rgb(238,232,170)" fill-opacity="0.7" points="397.890625,173.4375 397.890625,262.03125 338.828125,264.140625 338.828125,314.765625 397.890625,316.875 397.890625,441.328125 509.6875,441.328125 509.6875,173.4375" stroke="black" stroke-width="1.5" /><text dominant-baseline="middle" fill="black" font-family="Arial" font-size="12px" font-weight="bold" text-anchor="middle" x="425.3125" y="308.4375">Living Room</text></g><g id="room_master_bedroom"><polygon fill="rgb(255,165,0)" fill-opacity="0.7" points="290.3125,323.203125 290.3125,441.328125 389.453125,441.328125 389.453125,323.203125" stroke="black" stroke-width="1.5" /><text dominant-baseline="middle" fill="black" font-family="Arial" font-size="12px" font-weight="bold" text-anchor="middle" x="340.9375" y="383.3203125">Master Bedroom</text></g><g id="room_common_room"><polygon fill="rgb(255,215,0)" fill-opacity="0.7" points="307.1875,173.4375 307.1875,255.703125 389.453125,255.703125 389.453125,173.4375" stroke="black" stroke-width="1.5" /><text dominant-baseline="middle" fill="black" font-family="Arial" font-size="12px" font-weight="bold" text-anchor="middle" x="349.375" y="215.625">Common Room</text></g><g id="room_balcony"><polygon fill="rgb(107,142,35)" fill-opacity="0.7" points="397.890625,449.765625 397.890625,485.625 509.6875,485.625 509.6875,449.765625" stroke="black" stroke-width="1.5" /><text dominant-baseline="middle" fill="black" font-family="Arial" font-size="12px" font-weight="bold" text-anchor="middle" x="454.84375" y="468.75">Balcony</text></g><g id="room_kitchen"><polygon fill="rgb(240,128,128)" fill-opacity="0.7" points="433.75,114.375 433.75,165.0 494.921875,165.0 494.921875,114.375" stroke="black" stroke-width="1.5" /><text dominant-baseline="middle" fill="black" font-family="Arial" font-size="12px" font-weight="bold" text-anchor="middle" x="465.390625" y="140.7421875">Kitchen</text></g><g id="room_bathroom"><polygon fill="rgb(173,216,230)" fill-opacity="0.7" points="290.3125,264.140625 290.3125,314.765625 330.390625,314.765625 330.390625,264.140625" stroke="black" stroke-width="1.5" /><text dominant-baseline="middle" fill="black" font-family="Arial" font-size="12px" font-weight="bold" text-anchor="middle" x="311.40625" y="290.5078125">Bathroom</text></g><g id="room_balcony_2"><polygon fill="rgb(107,142,35)" fill-opacity="0.7" points="397.890625,114.375 397.890625,165.0 425.3125,165.0 425.3125,114.375" stroke="black" stroke-width="1.5" /><text dominant-baseline="middle" fill="black" font-family="Arial" font-size="12px" font-weight="bold" text-anchor="middle" x="412.65625" y="140.7421875">Balcony 2</text></g><text fill="black" font-family="Arial" font-size="18px" font-weight="bold" text-anchor="middle" x="400.0" y="30">Floor Plan - ID: 72422</text></svg>