<?xml version="1.0" encoding="utf-8" ?>
<svg baseProfile="full" height="600px" version="1.1" viewBox="0 0 800 600" width="800px" xmlns="http://www.w3.org/2000/svg" xmlns:ev="http://www.w3.org/2001/xml-events" xmlns:xlink="http://www.w3.org/1999/xlink"><defs /><rect fill="white" height="600" width="800" x="0" y="0" /><polygon fill="none" id="floor_plan_boundary" points="558.203125,116.484375 275.546875,116.484375 275.546875,226.171875 241.796875,228.28125 241.796875,456.09375 273.4375,456.09375 275.546875,483.515625 338.828125,483.515625 340.9375,456.09375 368.359375,456.09375 370.46875,333.75 497.03125,333.75 497.03125,325.3125 364.140625,329.53125 364.140625,449.765625 334.609375,451.875 332.5,479.296875 281.875,479.296875 279.765625,451.875 248.125,451.875 246.015625,234.609375 279.765625,232.5 279.765625,122.8125 551.875,120.703125 553.984375,249.375 532.890625,251.484375 530.78125,274.6875 492.8125,274.6875 537.109375,278.90625 537.109375,257.8125 558.203125,255.703125" stroke="black" stroke-linecap="butt" stroke-linejoin="miter" stroke-width="4" /><g id="room_living_room"><polygon fill="rgb(238,232,170)" fill-opacity="0.7" points="385.234375,122.8125 385.234375,247.265625 330.390625,249.375 330.390625,304.21875 366.25,302.109375 370.46875,327.421875 490.703125,327.421875 490.703125,122.8125" stroke="black" stroke-width="1.5" /><text dominant-baseline="middle" fill="black" font-family="Arial" font-size="12px" font-weight="bold" text-anchor="middle" x="411.6015625" y="226.171875">Living Room</text></g><g id="room_master_bedroom"><polygon fill="rgb(255,165,0)" fill-opacity="0.7" points="248.125,312.65625 248.125,449.765625 279.765625,449.765625 281.875,477.1875 332.5,477.1875 334.609375,449.765625 362.03125,449.765625 362.03125,312.65625" stroke="black" stroke-width="1.5" /><text dominant-baseline="middle" fill="black" font-family="Arial" font-size="12px" font-weight="bold" text-anchor="middle" x="306.1328125" y="395.9765625">Master Bedroom</text></g><g id="room_common_room"><polygon fill="rgb(255,215,0)" fill-opacity="0.7" points="281.875,122.8125 281.875,226.171875 326.171875,224.0625 330.390625,240.9375 376.796875,240.9375 376.796875,122.8125" stroke="black" stroke-width="1.5" /><text dominant-baseline="middle" fill="black" font-family="Arial" font-size="12px" font-weight="bold" text-anchor="middle" x="330.390625" y="182.9296875">Common Room</text></g><g id="room_bathroom"><polygon fill="rgb(173,216,230)" fill-opacity="0.7" points="248.125,234.609375 248.125,304.21875 321.953125,304.21875 321.953125,234.609375" stroke="black" stroke-width="1.5" /><text dominant-baseline="middle" fill="black" font-family="Arial" font-size="12px" font-weight="bold" text-anchor="middle" x="286.09375" y="270.46875">Bathroom</text></g><g id="room_kitchen"><polygon fill="rgb(240,128,128)" fill-opacity="0.7" points="499.140625,167.109375 499.140625,272.578125 530.78125,272.578125 530.78125,251.484375 551.875,249.375 551.875,167.109375" stroke="black" stroke-width="1.5" /><text dominant-baseline="middle" fill="black" font-family="Arial" font-size="12px" font-weight="bold" text-anchor="middle" x="526.5625" y="220.8984375">Kitchen</text></g><g id="room_balcony"><polygon fill="rgb(107,142,35)" fill-opacity="0.7" points="499.140625,122.8125 499.140625,158.671875 551.875,158.671875 551.875,122.8125" stroke="black" stroke-width="1.5" /><text dominant-baseline="middle" fill="black" font-family="Arial" font-size="12px" font-weight="bold" text-anchor="middle" x="526.5625" y="141.796875">Balcony</text></g><rect fill="red" fill-opacity="0.9" height="44.296875" id="main_door" stroke="darkred" stroke-width="3" width="6.328125" x="492.8125" y="281.015625" /><text dominant-baseline="middle" fill="white" font-family="Arial" font-size="9px" font-weight="bold" text-anchor="middle" x="495.9765625" y="303.1640625">Main Door</text><text fill="black" font-family="Arial" font-size="18px" font-weight="bold" text-anchor="middle" x="400.0" y="30">Floor Plan - ID: 7246</text></svg>