<?xml version="1.0" encoding="utf-8" ?>
<svg baseProfile="full" height="600px" version="1.1" viewBox="0 0 800 600" width="800px" xmlns="http://www.w3.org/2000/svg" xmlns:ev="http://www.w3.org/2001/xml-events" xmlns:xlink="http://www.w3.org/1999/xlink"><defs /><rect fill="white" height="600" width="800" x="0" y="0" /><polygon fill="none" id="floor_plan_boundary" points="625.703125,354.84375 598.28125,356.953125 621.484375,361.171875 619.375,397.03125 497.03125,397.03125 494.921875,424.453125 180.625,424.453125 180.625,219.84375 490.703125,219.84375 492.8125,175.546875 537.109375,175.546875 539.21875,310.546875 596.171875,310.546875 602.5,327.421875 602.5,306.328125 543.4375,304.21875 543.4375,171.328125 486.484375,171.328125 484.375,215.625 174.296875,215.625 174.296875,428.671875 501.25,428.671875 503.359375,401.25 625.703125,401.25" stroke="black" stroke-linecap="butt" stroke-linejoin="miter" stroke-width="4" /><g id="room_living_room"><polygon fill="rgb(238,232,170)" fill-opacity="0.7" points="256.5625,323.203125 256.5625,344.296875 397.890625,344.296875 400.0,422.34375 494.921875,422.34375 497.03125,394.921875 619.375,394.921875 619.375,361.171875 596.171875,359.0625 596.171875,312.65625 484.375,310.546875 484.375,221.953125 378.90625,221.953125 376.796875,323.203125" stroke="black" stroke-width="1.5" /><text dominant-baseline="middle" fill="black" font-family="Arial" font-size="12px" font-weight="bold" text-anchor="middle" x="439.0234375" y="323.203125">Living Room</text></g><g id="room_master_bedroom"><polygon fill="rgb(255,165,0)" fill-opacity="0.7" points="180.625,221.953125 180.625,352.734375 248.125,352.734375 248.125,316.875 279.765625,314.765625 279.765625,221.953125" stroke="black" stroke-width="1.5" /><text dominant-baseline="middle" fill="black" font-family="Arial" font-size="12px" font-weight="bold" text-anchor="middle" x="231.25" y="288.3984375">Master Bedroom</text></g><g id="room_common_room_2"><polygon fill="rgb(255,215,0)" fill-opacity="0.7" points="288.203125,221.953125 288.203125,314.765625 370.46875,314.765625 370.46875,221.953125" stroke="black" stroke-width="1.5" /><text dominant-baseline="middle" fill="black" font-family="Arial" font-size="12px" font-weight="bold" text-anchor="middle" x="330.390625" y="269.4140625">Common Room 2</text></g><g id="room_common_room"><polygon fill="rgb(255,215,0)" fill-opacity="0.7" points="256.5625,352.734375 256.5625,422.34375 332.5,422.34375 332.5,352.734375" stroke="black" stroke-width="1.5" /><text dominant-baseline="middle" fill="black" font-family="Arial" font-size="12px" font-weight="bold" text-anchor="middle" x="295.5859375" y="388.59375">Common Room</text></g><g id="room_bathroom"><polygon fill="rgb(173,216,230)" fill-opacity="0.7" points="180.625,361.171875 180.625,422.34375 248.125,422.34375 248.125,361.171875" stroke="black" stroke-width="1.5" /><text dominant-baseline="middle" fill="black" font-family="Arial" font-size="12px" font-weight="bold" text-anchor="middle" x="215.4296875" y="392.8125">Bathroom</text></g><g id="room_kitchen"><polygon fill="rgb(240,128,128)" fill-opacity="0.7" points="492.8125,221.953125 492.8125,304.21875 537.109375,304.21875 537.109375,221.953125" stroke="black" stroke-width="1.5" /><text dominant-baseline="middle" fill="black" font-family="Arial" font-size="12px" font-weight="bold" text-anchor="middle" x="516.015625" y="264.140625">Kitchen</text></g><g id="room_bathroom_2"><polygon fill="rgb(173,216,230)" fill-opacity="0.7" points="340.9375,352.734375 340.9375,422.34375 391.5625,422.34375 391.5625,352.734375" stroke="black" stroke-width="1.5" /><text dominant-baseline="middle" fill="black" font-family="Arial" font-size="12px" font-weight="bold" text-anchor="middle" x="367.3046875" y="388.59375">Bathroom 2</text></g><g id="room_balcony"><polygon fill="rgb(107,142,35)" fill-opacity="0.7" points="492.8125,177.65625 492.8125,213.515625 537.109375,213.515625 537.109375,177.65625" stroke="black" stroke-width="1.5" /><text dominant-baseline="middle" fill="black" font-family="Arial" font-size="12px" font-weight="bold" text-anchor="middle" x="516.015625" y="196.640625">Balcony</text></g><rect fill="red" fill-opacity="0.9" height="27.421875" id="main_door" stroke="darkred" stroke-width="3" width="6.328125" x="598.28125" y="329.53125" /><text dominant-baseline="middle" fill="white" font-family="Arial" font-size="9px" font-weight="bold" text-anchor="middle" x="601.4453125" y="343.2421875">Main Door</text><text fill="black" font-family="Arial" font-size="18px" font-weight="bold" text-anchor="middle" x="400.0" y="30">Floor Plan - ID: 72504</text></svg>