<?xml version="1.0" encoding="utf-8" ?>
<svg baseProfile="full" height="600px" version="1.1" viewBox="0 0 800 600" width="800px" xmlns="http://www.w3.org/2000/svg" xmlns:ev="http://www.w3.org/2001/xml-events" xmlns:xlink="http://www.w3.org/1999/xlink"><defs /><rect fill="white" height="600" width="800" x="0" y="0" /><polygon fill="none" id="floor_plan_boundary" points="267.109375,89.0625 267.109375,215.625 292.421875,215.625 294.53125,243.046875 302.96875,243.046875 302.96875,207.1875 275.546875,205.078125 277.65625,97.5 437.96875,97.5 440.078125,133.359375 524.453125,135.46875 522.34375,502.5 431.640625,502.5 429.53125,356.953125 347.265625,356.953125 345.15625,287.34375 305.078125,287.34375 302.96875,276.796875 294.53125,276.796875 294.53125,295.78125 336.71875,297.890625 336.71875,365.390625 421.09375,367.5 421.09375,510.9375 532.890625,510.9375 532.890625,124.921875 450.625,124.921875 448.515625,89.0625" stroke="black" stroke-linecap="butt" stroke-linejoin="miter" stroke-width="4" /><g id="room_living_room"><polygon fill="rgb(238,232,170)" fill-opacity="0.7" points="336.71875,135.46875 336.71875,247.265625 305.078125,249.375 305.078125,285.234375 347.265625,287.34375 347.265625,354.84375 418.984375,354.84375 418.984375,287.34375 465.390625,285.234375 465.390625,249.375 433.75,247.265625 433.75,135.46875" stroke="black" stroke-width="1.5" /><text dominant-baseline="middle" fill="black" font-family="Arial" font-size="12px" font-weight="bold" text-anchor="middle" x="386.2890625" y="246.2109375">Living Room</text></g><g id="room_master_bedroom"><polygon fill="rgb(255,165,0)" fill-opacity="0.7" points="431.640625,297.890625 431.640625,500.390625 522.34375,500.390625 522.34375,316.875 467.5,316.875 465.390625,297.890625" stroke="black" stroke-width="1.5" /><text dominant-baseline="middle" fill="black" font-family="Arial" font-size="12px" font-weight="bold" text-anchor="middle" x="478.046875" y="400.1953125">Master Bedroom</text></g><g id="room_common_room"><polygon fill="rgb(255,215,0)" fill-opacity="0.7" points="446.40625,135.46875 446.40625,236.71875 522.34375,236.71875 522.34375,135.46875" stroke="black" stroke-width="1.5" /><text dominant-baseline="middle" fill="black" font-family="Arial" font-size="12px" font-weight="bold" text-anchor="middle" x="485.4296875" y="187.1484375">Common Room</text></g><g id="room_kitchen"><polygon fill="rgb(240,128,128)" fill-opacity="0.7" points="277.65625,99.609375 277.65625,205.078125 302.96875,205.078125 305.078125,236.71875 324.0625,236.71875 324.0625,99.609375" stroke="black" stroke-width="1.5" /><text dominant-baseline="middle" fill="black" font-family="Arial" font-size="12px" font-weight="bold" text-anchor="middle" x="301.9140625" y="169.21875">Kitchen</text></g><g id="room_bathroom"><polygon fill="rgb(173,216,230)" fill-opacity="0.7" points="478.046875,249.375 478.046875,304.21875 522.34375,304.21875 522.34375,249.375" stroke="black" stroke-width="1.5" /><text dominant-baseline="middle" fill="black" font-family="Arial" font-size="12px" font-weight="bold" text-anchor="middle" x="501.25" y="277.8515625">Bathroom</text></g><g id="room_balcony"><polygon fill="rgb(107,142,35)" fill-opacity="0.7" points="336.71875,99.609375 336.71875,122.8125 437.96875,122.8125 437.96875,99.609375" stroke="black" stroke-width="1.5" /><text dominant-baseline="middle" fill="black" font-family="Arial" font-size="12px" font-weight="bold" text-anchor="middle" x="388.3984375" y="112.265625">Balcony</text></g><rect fill="red" fill-opacity="0.9" height="31.640625" id="main_door" stroke="darkred" stroke-width="3" width="10.546875" x="294.53125" y="245.15625" /><text dominant-baseline="middle" fill="white" font-family="Arial" font-size="9px" font-weight="bold" text-anchor="middle" x="299.8046875" y="260.9765625">Main Door</text><text fill="black" font-family="Arial" font-size="18px" font-weight="bold" text-anchor="middle" x="400.0" y="30">Floor Plan - ID: 72517</text></svg>