<?xml version="1.0" encoding="utf-8" ?>
<svg baseProfile="full" height="600px" version="1.1" viewBox="0 0 800 600" width="800px" xmlns="http://www.w3.org/2000/svg" xmlns:ev="http://www.w3.org/2001/xml-events" xmlns:xlink="http://www.w3.org/1999/xlink"><defs /><rect fill="white" height="600" width="800" x="0" y="0" /><polygon fill="none" id="floor_plan_boundary" points="239.6875,205.078125 239.6875,418.125 328.28125,418.125 330.390625,403.359375 364.140625,403.359375 366.25,420.234375 347.265625,422.34375 347.265625,462.421875 465.390625,462.421875 467.5,403.359375 482.265625,405.46875 482.265625,422.34375 560.3125,422.34375 560.3125,205.078125 467.5,205.078125 465.390625,156.5625 459.0625,156.5625 456.953125,213.515625 551.875,215.625 551.875,411.796875 492.8125,413.90625 490.703125,394.921875 456.953125,394.921875 454.84375,453.984375 357.8125,453.984375 355.703125,432.890625 374.6875,430.78125 374.6875,394.921875 319.84375,394.921875 317.734375,409.6875 248.125,407.578125 248.125,215.625 328.28125,213.515625 330.390625,146.015625 416.875,146.015625 418.984375,165.0 425.3125,165.0 427.421875,137.578125 319.84375,137.578125 317.734375,205.078125" stroke="black" stroke-linecap="butt" stroke-linejoin="miter" stroke-width="4" /><g id="room_living_room"><polygon fill="rgb(238,232,170)" fill-opacity="0.7" points="454.84375,167.109375 412.65625,167.109375 410.546875,213.515625 319.84375,215.625 319.84375,268.359375 357.8125,270.46875 357.8125,392.8125 456.953125,392.8125" stroke="black" stroke-width="1.5" /><text dominant-baseline="middle" fill="black" font-family="Arial" font-size="12px" font-weight="bold" text-anchor="middle" x="389.453125" y="281.015625">Living Room</text></g><g id="room_master_bedroom"><polygon fill="rgb(255,165,0)" fill-opacity="0.7" points="345.15625,276.796875 250.234375,278.90625 250.234375,407.578125 317.734375,407.578125 319.84375,392.8125 345.15625,392.8125" stroke="black" stroke-width="1.5" /><text dominant-baseline="middle" fill="black" font-family="Arial" font-size="12px" font-weight="bold" text-anchor="middle" x="298.75" y="343.2421875">Master Bedroom</text></g><g id="room_common_room"><polygon fill="rgb(255,215,0)" fill-opacity="0.7" points="465.390625,302.109375 465.390625,392.8125 490.703125,392.8125 492.8125,411.796875 549.765625,411.796875 549.765625,302.109375" stroke="black" stroke-width="1.5" /><text dominant-baseline="middle" fill="black" font-family="Arial" font-size="12px" font-weight="bold" text-anchor="middle" x="508.6328125" y="358.0078125">Common Room</text></g><g id="room_common_room_2"><polygon fill="rgb(255,215,0)" fill-opacity="0.7" points="465.390625,215.625 465.390625,293.671875 549.765625,293.671875 549.765625,215.625" stroke="black" stroke-width="1.5" /><text dominant-baseline="middle" fill="black" font-family="Arial" font-size="12px" font-weight="bold" text-anchor="middle" x="508.6328125" y="255.703125">Common Room 2</text></g><g id="room_kitchen"><polygon fill="rgb(240,128,128)" fill-opacity="0.7" points="330.390625,148.125 330.390625,202.96875 400.0,205.078125 400.0,156.5625 416.875,154.453125 416.875,148.125" stroke="black" stroke-width="1.5" /><text dominant-baseline="middle" fill="black" font-family="Arial" font-size="12px" font-weight="bold" text-anchor="middle" x="374.6875" y="177.65625">Kitchen</text></g><g id="room_balcony"><polygon fill="rgb(107,142,35)" fill-opacity="0.7" points="357.8125,432.890625 357.8125,451.875 454.84375,451.875 454.84375,405.46875 376.796875,405.46875 376.796875,430.78125" stroke="black" stroke-width="1.5" /><text dominant-baseline="middle" fill="black" font-family="Arial" font-size="12px" font-weight="bold" text-anchor="middle" x="407.3828125" y="429.7265625">Balcony</text></g><g id="room_bathroom"><polygon fill="rgb(173,216,230)" fill-opacity="0.7" points="250.234375,215.625 250.234375,266.25 311.40625,266.25 311.40625,215.625" stroke="black" stroke-width="1.5" /><text dominant-baseline="middle" fill="black" font-family="Arial" font-size="12px" font-weight="bold" text-anchor="middle" x="281.875" y="241.9921875">Bathroom</text></g><rect fill="red" fill-opacity="0.9" height="10.546875" id="main_door" stroke="darkred" stroke-width="3" width="31.640625" x="427.421875" y="156.5625" /><text dominant-baseline="middle" fill="white" font-family="Arial" font-size="9px" font-weight="bold" text-anchor="middle" x="443.2421875" y="161.8359375">Main Door</text><text fill="black" font-family="Arial" font-size="18px" font-weight="bold" text-anchor="middle" x="400.0" y="30">Floor Plan - ID: 72521</text></svg>