<?xml version="1.0" encoding="utf-8" ?>
<svg baseProfile="full" height="600px" version="1.1" viewBox="0 0 800 600" width="800px" xmlns="http://www.w3.org/2000/svg" xmlns:ev="http://www.w3.org/2001/xml-events" xmlns:xlink="http://www.w3.org/1999/xlink"><defs /><rect fill="white" height="600" width="800" x="0" y="0" /><polygon fill="none" id="floor_plan_boundary" points="243.90625,143.90625 243.90625,453.984375 340.9375,453.984375 343.046875,485.625 459.0625,485.625 461.171875,498.28125 556.09375,498.28125 556.09375,318.984375 526.5625,316.875 526.5625,268.359375 501.25,270.46875 501.25,276.796875 518.125,278.90625 518.125,327.421875 547.65625,329.53125 545.546875,489.84375 471.71875,489.84375 469.609375,477.1875 353.59375,477.1875 351.484375,445.546875 252.34375,443.4375 252.34375,154.453125 351.484375,152.34375 353.59375,110.15625 509.6875,110.15625 511.796875,213.515625 501.25,215.625 501.25,236.71875 509.6875,236.71875 509.6875,226.171875 520.234375,224.0625 520.234375,101.71875 343.046875,101.71875 340.9375,143.90625" stroke="black" stroke-linecap="butt" stroke-linejoin="miter" stroke-width="4" /><g id="room_living_room"><polygon fill="rgb(238,232,170)" fill-opacity="0.7" points="353.59375,181.875 353.59375,276.796875 309.296875,278.90625 309.296875,308.4375 353.59375,310.546875 353.59375,475.078125 459.0625,475.078125 459.0625,310.546875 516.015625,308.4375 516.015625,278.90625 499.140625,276.796875 499.140625,226.171875 444.296875,226.171875 442.1875,181.875" stroke="black" stroke-width="1.5" /><text dominant-baseline="middle" fill="black" font-family="Arial" font-size="12px" font-weight="bold" text-anchor="middle" x="413.7109375" y="329.53125">Living Room</text></g><g id="room_master_bedroom"><polygon fill="rgb(255,165,0)" fill-opacity="0.7" points="254.453125,300.0 254.453125,443.4375 340.9375,443.4375 340.9375,321.09375 298.75,321.09375 296.640625,300.0" stroke="black" stroke-width="1.5" /><text dominant-baseline="middle" fill="black" font-family="Arial" font-size="12px" font-weight="bold" text-anchor="middle" x="298.75" y="372.7734375">Master Bedroom</text></g><g id="room_common_room_2"><polygon fill="rgb(255,215,0)" fill-opacity="0.7" points="254.453125,154.453125 254.453125,287.34375 296.640625,287.34375 298.75,266.25 340.9375,266.25 340.9375,154.453125" stroke="black" stroke-width="1.5" /><text dominant-baseline="middle" fill="black" font-family="Arial" font-size="12px" font-weight="bold" text-anchor="middle" x="298.75" y="221.953125">Common Room 2</text></g><g id="room_common_room"><polygon fill="rgb(255,215,0)" fill-opacity="0.7" points="471.71875,321.09375 471.71875,443.4375 545.546875,443.4375 545.546875,329.53125 518.125,329.53125 516.015625,321.09375" stroke="black" stroke-width="1.5" /><text dominant-baseline="middle" fill="black" font-family="Arial" font-size="12px" font-weight="bold" text-anchor="middle" x="509.6875" y="383.3203125">Common Room</text></g><g id="room_bathroom"><polygon fill="rgb(173,216,230)" fill-opacity="0.7" points="454.84375,112.265625 454.84375,213.515625 509.6875,213.515625 509.6875,112.265625" stroke="black" stroke-width="1.5" /><text dominant-baseline="middle" fill="black" font-family="Arial" font-size="12px" font-weight="bold" text-anchor="middle" x="483.3203125" y="163.9453125">Bathroom</text></g><g id="room_kitchen"><polygon fill="rgb(240,128,128)" fill-opacity="0.7" points="353.59375,112.265625 353.59375,173.4375 442.1875,173.4375 442.1875,112.265625" stroke="black" stroke-width="1.5" /><text dominant-baseline="middle" fill="black" font-family="Arial" font-size="12px" font-weight="bold" text-anchor="middle" x="398.9453125" y="143.90625">Kitchen</text></g><g id="room_balcony"><polygon fill="rgb(107,142,35)" fill-opacity="0.7" points="471.71875,456.09375 471.71875,487.734375 545.546875,487.734375 545.546875,456.09375" stroke="black" stroke-width="1.5" /><text dominant-baseline="middle" fill="black" font-family="Arial" font-size="12px" font-weight="bold" text-anchor="middle" x="509.6875" y="472.96875">Balcony</text></g><rect fill="red" fill-opacity="0.9" height="31.640625" id="main_door" stroke="darkred" stroke-width="3" width="10.546875" x="501.25" y="238.828125" /><text dominant-baseline="middle" fill="white" font-family="Arial" font-size="9px" font-weight="bold" text-anchor="middle" x="506.5234375" y="254.6484375">Main Door</text><text fill="black" font-family="Arial" font-size="18px" font-weight="bold" text-anchor="middle" x="400.0" y="30">Floor Plan - ID: 72905</text></svg>