<?xml version="1.0" encoding="utf-8" ?>
<svg baseProfile="full" height="600px" version="1.1" viewBox="0 0 800 600" width="800px" xmlns="http://www.w3.org/2000/svg" xmlns:ev="http://www.w3.org/2001/xml-events" xmlns:xlink="http://www.w3.org/1999/xlink"><defs /><rect fill="white" height="600" width="800" x="0" y="0" /><polygon fill="none" id="floor_plan_boundary" points="224.921875,93.28125 224.921875,506.71875 404.21875,506.71875 404.21875,363.28125 539.21875,361.171875 539.21875,327.421875 575.078125,325.3125 575.078125,281.015625 566.640625,281.015625 564.53125,316.875 530.78125,316.875 528.671875,352.734375 395.78125,352.734375 393.671875,498.28125 235.46875,498.28125 233.359375,103.828125 324.0625,101.71875 326.171875,167.109375 391.5625,167.109375 393.671875,230.390625 564.53125,230.390625 566.640625,251.484375 575.078125,251.484375 575.078125,221.953125 404.21875,221.953125 402.109375,158.671875 334.609375,156.5625 334.609375,93.28125" stroke="black" stroke-linecap="butt" stroke-linejoin="miter" stroke-width="4" /><g id="room_living_room"><polygon fill="rgb(238,232,170)" fill-opacity="0.7" points="235.46875,232.5 235.46875,316.875 334.609375,316.875 336.71875,382.265625 393.671875,382.265625 395.78125,350.625 528.671875,350.625 528.671875,316.875 564.53125,314.765625 564.53125,232.5 326.171875,232.5 324.0625,200.859375 300.859375,200.859375 298.75,232.5" stroke="black" stroke-width="1.5" /><text dominant-baseline="middle" fill="black" font-family="Arial" font-size="12px" font-weight="bold" text-anchor="middle" x="401.0546875" y="292.6171875">Living Room</text></g><g id="room_common_room"><polygon fill="rgb(255,215,0)" fill-opacity="0.7" points="235.46875,103.828125 235.46875,219.84375 288.203125,219.84375 290.3125,188.203125 324.0625,188.203125 324.0625,103.828125" stroke="black" stroke-width="1.5" /><text dominant-baseline="middle" fill="black" font-family="Arial" font-size="12px" font-weight="bold" text-anchor="middle" x="280.8203125" y="162.890625">Common Room</text></g><g id="room_master_bedroom"><polygon fill="rgb(255,165,0)" fill-opacity="0.7" points="305.078125,394.921875 305.078125,496.171875 393.671875,496.171875 393.671875,394.921875" stroke="black" stroke-width="1.5" /><text dominant-baseline="middle" fill="black" font-family="Arial" font-size="12px" font-weight="bold" text-anchor="middle" x="350.4296875" y="446.6015625">Master Bedroom</text></g><g id="room_balcony"><polygon fill="rgb(107,142,35)" fill-opacity="0.7" points="235.46875,394.921875 235.46875,496.171875 292.421875,496.171875 292.421875,394.921875" stroke="black" stroke-width="1.5" /><text dominant-baseline="middle" fill="black" font-family="Arial" font-size="12px" font-weight="bold" text-anchor="middle" x="265.0" y="446.6015625">Balcony</text></g><g id="room_kitchen"><polygon fill="rgb(240,128,128)" fill-opacity="0.7" points="235.46875,329.53125 235.46875,382.265625 324.0625,382.265625 324.0625,329.53125" stroke="black" stroke-width="1.5" /><text dominant-baseline="middle" fill="black" font-family="Arial" font-size="12px" font-weight="bold" text-anchor="middle" x="280.8203125" y="356.953125">Kitchen</text></g><g id="room_bathroom"><polygon fill="rgb(173,216,230)" fill-opacity="0.7" points="336.71875,169.21875 336.71875,219.84375 391.5625,219.84375 391.5625,169.21875" stroke="black" stroke-width="1.5" /><text dominant-baseline="middle" fill="black" font-family="Arial" font-size="12px" font-weight="bold" text-anchor="middle" x="365.1953125" y="195.5859375">Bathroom</text></g><rect fill="red" fill-opacity="0.9" height="27.421875" id="main_door" stroke="darkred" stroke-width="3" width="10.546875" x="566.640625" y="253.59375" /><text dominant-baseline="middle" fill="white" font-family="Arial" font-size="9px" font-weight="bold" text-anchor="middle" x="571.9140625" y="267.3046875">Main Door</text><text fill="black" font-family="Arial" font-size="18px" font-weight="bold" text-anchor="middle" x="400.0" y="30">Floor Plan - ID: 7301</text></svg>