<?xml version="1.0" encoding="utf-8" ?>
<svg baseProfile="full" height="600px" version="1.1" viewBox="0 0 800 600" width="800px" xmlns="http://www.w3.org/2000/svg" xmlns:ev="http://www.w3.org/2001/xml-events" xmlns:xlink="http://www.w3.org/1999/xlink"><defs /><rect fill="white" height="600" width="800" x="0" y="0" /><polygon fill="none" id="floor_plan_boundary" points="309.296875,135.46875 307.1875,173.4375 265.0,173.4375 265.0,262.03125 269.21875,179.765625 313.515625,177.65625 315.625,139.6875 389.453125,139.6875 391.5625,156.5625 501.25,156.5625 503.359375,257.8125 532.890625,259.921875 530.78125,447.65625 469.609375,447.65625 467.5,430.78125 429.53125,430.78125 427.421875,460.3125 315.625,460.3125 313.515625,295.78125 265.0,295.78125 309.296875,302.109375 309.296875,464.53125 433.75,464.53125 435.859375,435.0 461.171875,435.0 463.28125,451.875 537.109375,451.875 537.109375,253.59375 507.578125,251.484375 507.578125,152.34375 397.890625,152.34375 395.78125,135.46875" stroke="black" stroke-linecap="butt" stroke-linejoin="miter" stroke-width="4" /><g id="room_living_room"><polygon fill="rgb(238,232,170)" fill-opacity="0.7" points="271.328125,259.921875 271.328125,293.671875 315.625,295.78125 315.625,458.203125 427.421875,458.203125 427.421875,283.125 473.828125,281.015625 473.828125,259.921875" stroke="black" stroke-width="1.5" /><text dominant-baseline="middle" fill="black" font-family="Arial" font-size="12px" font-weight="bold" text-anchor="middle" x="373.6328125" y="360.1171875">Living Room</text></g><g id="room_master_bedroom"><polygon fill="rgb(255,165,0)" fill-opacity="0.7" points="435.859375,289.453125 435.859375,428.671875 467.5,428.671875 469.609375,445.546875 530.78125,445.546875 530.78125,310.546875 475.9375,310.546875 473.828125,289.453125" stroke="black" stroke-width="1.5" /><text dominant-baseline="middle" fill="black" font-family="Arial" font-size="12px" font-weight="bold" text-anchor="middle" x="484.375" y="368.5546875">Master Bedroom</text></g><g id="room_common_room_2"><polygon fill="rgb(255,215,0)" fill-opacity="0.7" points="397.890625,158.671875 397.890625,251.484375 501.25,251.484375 501.25,158.671875" stroke="black" stroke-width="1.5" /><text dominant-baseline="middle" fill="black" font-family="Arial" font-size="12px" font-weight="bold" text-anchor="middle" x="450.625" y="206.1328125">Common Room 2</text></g><g id="room_common_room"><polygon fill="rgb(255,215,0)" fill-opacity="0.7" points="315.625,179.765625 315.625,251.484375 389.453125,251.484375 389.453125,179.765625" stroke="black" stroke-width="1.5" /><text dominant-baseline="middle" fill="black" font-family="Arial" font-size="12px" font-weight="bold" text-anchor="middle" x="353.59375" y="216.6796875">Common Room</text></g><g id="room_kitchen"><polygon fill="rgb(240,128,128)" fill-opacity="0.7" points="271.328125,179.765625 271.328125,251.484375 307.1875,251.484375 307.1875,179.765625" stroke="black" stroke-width="1.5" /><text dominant-baseline="middle" fill="black" font-family="Arial" font-size="12px" font-weight="bold" text-anchor="middle" x="290.3125" y="216.6796875">Kitchen</text></g><g id="room_balcony"><polygon fill="rgb(107,142,35)" fill-opacity="0.7" points="315.625,141.796875 315.625,171.328125 389.453125,171.328125 389.453125,141.796875" stroke="black" stroke-width="1.5" /><text dominant-baseline="middle" fill="black" font-family="Arial" font-size="12px" font-weight="bold" text-anchor="middle" x="353.59375" y="157.6171875">Balcony</text></g><g id="room_bathroom"><polygon fill="rgb(173,216,230)" fill-opacity="0.7" points="482.265625,259.921875 482.265625,302.109375 530.78125,302.109375 530.78125,259.921875" stroke="black" stroke-width="1.5" /><text dominant-baseline="middle" fill="black" font-family="Arial" font-size="12px" font-weight="bold" text-anchor="middle" x="507.578125" y="282.0703125">Bathroom</text></g><rect fill="red" fill-opacity="0.9" height="31.640625" id="main_door" stroke="darkred" stroke-width="3" width="6.328125" x="265.0" y="264.140625" /><text dominant-baseline="middle" fill="white" font-family="Arial" font-size="9px" font-weight="bold" text-anchor="middle" x="268.1640625" y="279.9609375">Main Door</text><text fill="black" font-family="Arial" font-size="18px" font-weight="bold" text-anchor="middle" x="400.0" y="30">Floor Plan - ID: 73012</text></svg>