<?xml version="1.0" encoding="utf-8" ?>
<svg baseProfile="full" height="600px" version="1.1" viewBox="0 0 800 600" width="800px" xmlns="http://www.w3.org/2000/svg" xmlns:ev="http://www.w3.org/2001/xml-events" xmlns:xlink="http://www.w3.org/1999/xlink"><defs /><rect fill="white" height="600" width="800" x="0" y="0" /><polygon fill="none" id="floor_plan_boundary" points="275.546875,127.03125 275.546875,211.40625 317.734375,211.40625 319.84375,230.390625 328.28125,230.390625 328.28125,202.96875 283.984375,200.859375 286.09375,135.46875 528.671875,137.578125 528.671875,232.5 553.984375,234.609375 553.984375,435.0 446.40625,437.109375 444.296875,464.53125 269.21875,464.53125 267.109375,456.09375 248.125,456.09375 246.015625,350.625 267.109375,348.515625 269.21875,300.0 328.28125,300.0 328.28125,276.796875 319.84375,276.796875 317.734375,291.5625 258.671875,291.5625 258.671875,337.96875 237.578125,340.078125 237.578125,464.53125 256.5625,464.53125 258.671875,472.96875 454.84375,472.96875 456.953125,445.546875 562.421875,445.546875 562.421875,224.0625 537.109375,221.953125 537.109375,127.03125" stroke="black" stroke-linecap="butt" stroke-linejoin="miter" stroke-width="4" /><g id="room_living_room"><polygon fill="rgb(238,232,170)" fill-opacity="0.7" points="357.8125,137.578125 357.8125,211.40625 330.390625,213.515625 330.390625,422.34375 444.296875,422.34375 444.296875,306.328125 482.265625,304.21875 482.265625,234.609375 433.75,232.5 433.75,137.578125" stroke="black" stroke-width="1.5" /><text dominant-baseline="middle" fill="black" font-family="Arial" font-size="12px" font-weight="bold" text-anchor="middle" x="407.3828125" y="281.015625">Living Room</text></g><g id="room_master_bedroom"><polygon fill="rgb(255,165,0)" fill-opacity="0.7" points="456.953125,316.875 456.953125,435.0 551.875,435.0 551.875,316.875" stroke="black" stroke-width="1.5" /><text dominant-baseline="middle" fill="black" font-family="Arial" font-size="12px" font-weight="bold" text-anchor="middle" x="505.46875" y="376.9921875">Master Bedroom</text></g><g id="room_common_room"><polygon fill="rgb(255,215,0)" fill-opacity="0.7" points="269.21875,302.109375 269.21875,348.515625 248.125,350.625 248.125,453.984375 267.109375,453.984375 269.21875,462.421875 317.734375,462.421875 317.734375,302.109375" stroke="black" stroke-width="1.5" /><text dominant-baseline="middle" fill="black" font-family="Arial" font-size="12px" font-weight="bold" text-anchor="middle" x="283.984375" y="383.3203125">Common Room</text></g><g id="room_common_room_2"><polygon fill="rgb(255,215,0)" fill-opacity="0.7" points="446.40625,137.578125 446.40625,221.953125 526.5625,221.953125 526.5625,137.578125" stroke="black" stroke-width="1.5" /><text dominant-baseline="middle" fill="black" font-family="Arial" font-size="12px" font-weight="bold" text-anchor="middle" x="487.5390625" y="180.8203125">Common Room 2</text></g><g id="room_bathroom"><polygon fill="rgb(173,216,230)" fill-opacity="0.7" points="490.703125,234.609375 490.703125,304.21875 551.875,304.21875 551.875,234.609375" stroke="black" stroke-width="1.5" /><text dominant-baseline="middle" fill="black" font-family="Arial" font-size="12px" font-weight="bold" text-anchor="middle" x="522.34375" y="270.46875">Bathroom</text></g><g id="room_kitchen"><polygon fill="rgb(240,128,128)" fill-opacity="0.7" points="286.09375,137.578125 286.09375,200.859375 345.15625,200.859375 345.15625,137.578125" stroke="black" stroke-width="1.5" /><text dominant-baseline="middle" fill="black" font-family="Arial" font-size="12px" font-weight="bold" text-anchor="middle" x="316.6796875" y="170.2734375">Kitchen</text></g><g id="room_balcony"><polygon fill="rgb(107,142,35)" fill-opacity="0.7" points="330.390625,435.0 330.390625,462.421875 444.296875,462.421875 444.296875,435.0" stroke="black" stroke-width="1.5" /><text dominant-baseline="middle" fill="black" font-family="Arial" font-size="12px" font-weight="bold" text-anchor="middle" x="388.3984375" y="449.765625">Balcony</text></g><rect fill="red" fill-opacity="0.9" height="44.296875" id="main_door" stroke="darkred" stroke-width="3" width="10.546875" x="319.84375" y="232.5" /><text dominant-baseline="middle" fill="white" font-family="Arial" font-size="9px" font-weight="bold" text-anchor="middle" x="325.1171875" y="254.6484375">Main Door</text><text fill="black" font-family="Arial" font-size="18px" font-weight="bold" text-anchor="middle" x="400.0" y="30">Floor Plan - ID: 73107</text></svg>