<?xml version="1.0" encoding="utf-8" ?>
<svg baseProfile="full" height="600px" version="1.1" viewBox="0 0 800 600" width="800px" xmlns="http://www.w3.org/2000/svg" xmlns:ev="http://www.w3.org/2001/xml-events" xmlns:xlink="http://www.w3.org/1999/xlink"><defs /><rect fill="white" height="600" width="800" x="0" y="0" /><polygon fill="none" id="floor_plan_boundary" points="321.953125,84.84375 321.953125,230.390625 357.8125,236.71875 357.8125,221.953125 330.390625,219.84375 332.5,93.28125 402.109375,93.28125 404.21875,139.6875 505.46875,141.796875 503.359375,464.53125 404.21875,464.53125 402.109375,506.71875 296.640625,506.71875 294.53125,350.625 330.390625,348.515625 330.390625,321.09375 357.8125,318.984375 357.8125,266.25 349.375,266.25 349.375,308.4375 321.953125,310.546875 321.953125,337.96875 286.09375,340.078125 286.09375,515.15625 412.65625,515.15625 414.765625,472.96875 513.90625,472.96875 513.90625,131.25 414.765625,131.25 412.65625,84.84375" stroke="black" stroke-linecap="butt" stroke-linejoin="miter" stroke-width="4" /><g id="room_living_room"><polygon fill="rgb(238,232,170)" fill-opacity="0.7" points="332.5,169.21875 332.5,219.84375 359.921875,221.953125 359.921875,318.984375 332.5,321.09375 330.390625,350.625 296.640625,350.625 296.640625,462.421875 402.109375,462.421875 402.109375,321.09375 440.078125,318.984375 440.078125,259.921875 402.109375,257.8125 402.109375,169.21875" stroke="black" stroke-width="1.5" /><text dominant-baseline="middle" fill="black" font-family="Arial" font-size="12px" font-weight="bold" text-anchor="middle" x="369.4140625" y="316.875">Living Room</text></g><g id="room_master_bedroom"><polygon fill="rgb(255,165,0)" fill-opacity="0.7" points="414.765625,331.640625 414.765625,462.421875 503.359375,462.421875 503.359375,354.84375 442.1875,354.84375 440.078125,331.640625" stroke="black" stroke-width="1.5" /><text dominant-baseline="middle" fill="black" font-family="Arial" font-size="12px" font-weight="bold" text-anchor="middle" x="460.1171875" y="398.0859375">Master Bedroom</text></g><g id="room_common_room"><polygon fill="rgb(255,215,0)" fill-opacity="0.7" points="414.765625,141.796875 414.765625,247.265625 503.359375,247.265625 503.359375,141.796875" stroke="black" stroke-width="1.5" /><text dominant-baseline="middle" fill="black" font-family="Arial" font-size="12px" font-weight="bold" text-anchor="middle" x="460.1171875" y="195.5859375">Common Room</text></g><g id="room_kitchen"><polygon fill="rgb(240,128,128)" fill-opacity="0.7" points="332.5,95.390625 332.5,156.5625 402.109375,156.5625 402.109375,95.390625" stroke="black" stroke-width="1.5" /><text dominant-baseline="middle" fill="black" font-family="Arial" font-size="12px" font-weight="bold" text-anchor="middle" x="368.359375" y="127.03125">Kitchen</text></g><g id="room_balcony"><polygon fill="rgb(107,142,35)" fill-opacity="0.7" points="296.640625,475.078125 296.640625,504.609375 402.109375,504.609375 402.109375,475.078125" stroke="black" stroke-width="1.5" /><text dominant-baseline="middle" fill="black" font-family="Arial" font-size="12px" font-weight="bold" text-anchor="middle" x="350.4296875" y="490.8984375">Balcony</text></g><g id="room_bathroom"><polygon fill="rgb(173,216,230)" fill-opacity="0.7" points="452.734375,259.921875 452.734375,318.984375 503.359375,318.984375 503.359375,259.921875" stroke="black" stroke-width="1.5" /><text dominant-baseline="middle" fill="black" font-family="Arial" font-size="12px" font-weight="bold" text-anchor="middle" x="479.1015625" y="290.5078125">Bathroom</text></g><rect fill="red" fill-opacity="0.9" height="27.421875" id="main_door" stroke="darkred" stroke-width="3" width="10.546875" x="349.375" y="238.828125" /><text dominant-baseline="middle" fill="white" font-family="Arial" font-size="9px" font-weight="bold" text-anchor="middle" x="354.6484375" y="252.5390625">Main Door</text><text fill="black" font-family="Arial" font-size="18px" font-weight="bold" text-anchor="middle" x="400.0" y="30">Floor Plan - ID: 7314</text></svg>