<?xml version="1.0" encoding="utf-8" ?>
<svg baseProfile="full" height="600px" version="1.1" viewBox="0 0 800 600" width="800px" xmlns="http://www.w3.org/2000/svg" xmlns:ev="http://www.w3.org/2001/xml-events" xmlns:xlink="http://www.w3.org/1999/xlink"><defs /><rect fill="white" height="600" width="800" x="0" y="0" /><polygon fill="none" id="floor_plan_boundary" points="288.203125,141.796875 288.203125,251.484375 250.234375,253.59375 250.234375,453.984375 429.53125,453.984375 431.640625,494.0625 549.765625,494.0625 549.765625,270.46875 543.4375,489.84375 437.96875,489.84375 435.859375,449.765625 254.453125,447.65625 254.453125,259.921875 292.421875,257.8125 294.53125,146.015625 435.859375,146.015625 437.96875,110.15625 505.46875,110.15625 507.578125,274.6875 526.5625,274.6875 511.796875,268.359375 511.796875,105.9375 431.640625,105.9375 429.53125,141.796875" stroke="black" stroke-linecap="butt" stroke-linejoin="miter" stroke-width="4" /><g id="room_living_room"><polygon fill="rgb(238,232,170)" fill-opacity="0.7" points="437.96875,183.984375 437.96875,274.6875 355.703125,276.796875 355.703125,318.984375 437.96875,321.09375 437.96875,447.65625 543.4375,447.65625 543.4375,276.796875 505.46875,274.6875 505.46875,183.984375" stroke="black" stroke-width="1.5" /><text dominant-baseline="middle" fill="black" font-family="Arial" font-size="12px" font-weight="bold" text-anchor="middle" x="450.625" y="316.875">Living Room</text></g><g id="room_master_bedroom"><polygon fill="rgb(255,165,0)" fill-opacity="0.7" points="347.265625,259.921875 319.84375,259.921875 317.734375,327.421875 256.5625,327.421875 256.5625,447.65625 347.265625,447.65625" stroke="black" stroke-width="1.5" /><text dominant-baseline="middle" fill="black" font-family="Arial" font-size="12px" font-weight="bold" text-anchor="middle" x="302.96875" y="354.84375">Master Bedroom</text></g><g id="room_common_room_2"><polygon fill="rgb(255,215,0)" fill-opacity="0.7" points="294.53125,148.125 294.53125,251.484375 353.59375,251.484375 355.703125,268.359375 381.015625,268.359375 381.015625,148.125" stroke="black" stroke-width="1.5" /><text dominant-baseline="middle" fill="black" font-family="Arial" font-size="12px" font-weight="bold" text-anchor="middle" x="338.828125" y="209.296875">Common Room 2</text></g><g id="room_common_room"><polygon fill="rgb(255,215,0)" fill-opacity="0.7" points="355.703125,327.421875 355.703125,447.65625 429.53125,447.65625 429.53125,327.421875" stroke="black" stroke-width="1.5" /><text dominant-baseline="middle" fill="black" font-family="Arial" font-size="12px" font-weight="bold" text-anchor="middle" x="393.671875" y="388.59375">Common Room</text></g><g id="room_bathroom_2"><polygon fill="rgb(173,216,230)" fill-opacity="0.7" points="389.453125,148.125 389.453125,268.359375 429.53125,268.359375 429.53125,148.125" stroke="black" stroke-width="1.5" /><text dominant-baseline="middle" fill="black" font-family="Arial" font-size="12px" font-weight="bold" text-anchor="middle" x="410.546875" y="209.296875">Bathroom 2</text></g><g id="room_kitchen"><polygon fill="rgb(240,128,128)" fill-opacity="0.7" points="437.96875,112.265625 437.96875,175.546875 505.46875,175.546875 505.46875,112.265625" stroke="black" stroke-width="1.5" /><text dominant-baseline="middle" fill="black" font-family="Arial" font-size="12px" font-weight="bold" text-anchor="middle" x="472.7734375" y="144.9609375">Kitchen</text></g><g id="room_balcony"><polygon fill="rgb(107,142,35)" fill-opacity="0.7" points="437.96875,456.09375 437.96875,487.734375 543.4375,487.734375 543.4375,456.09375" stroke="black" stroke-width="1.5" /><text dominant-baseline="middle" fill="black" font-family="Arial" font-size="12px" font-weight="bold" text-anchor="middle" x="491.7578125" y="472.96875">Balcony</text></g><g id="room_bathroom"><polygon fill="rgb(173,216,230)" fill-opacity="0.7" points="256.5625,259.921875 256.5625,318.984375 311.40625,318.984375 311.40625,259.921875" stroke="black" stroke-width="1.5" /><text dominant-baseline="middle" fill="black" font-family="Arial" font-size="12px" font-weight="bold" text-anchor="middle" x="285.0390625" y="290.5078125">Bathroom</text></g><text fill="black" font-family="Arial" font-size="18px" font-weight="bold" text-anchor="middle" x="400.0" y="30">Floor Plan - ID: 73177</text></svg>