<?xml version="1.0" encoding="utf-8" ?>
<svg baseProfile="full" height="600px" version="1.1" viewBox="0 0 800 600" width="800px" xmlns="http://www.w3.org/2000/svg" xmlns:ev="http://www.w3.org/2001/xml-events" xmlns:xlink="http://www.w3.org/1999/xlink"><defs /><rect fill="white" height="600" width="800" x="0" y="0" /><polygon fill="none" id="floor_plan_boundary" points="227.03125,110.15625 227.03125,333.75 279.765625,335.859375 279.765625,464.53125 389.453125,464.53125 391.5625,489.84375 522.34375,489.84375 522.34375,318.984375 572.96875,316.875 572.96875,270.46875 564.53125,270.46875 562.421875,308.4375 513.90625,308.4375 511.796875,481.40625 402.109375,481.40625 400.0,456.09375 290.3125,456.09375 288.203125,325.3125 235.46875,323.203125 235.46875,120.703125 562.421875,118.59375 564.53125,240.9375 572.96875,240.9375 572.96875,110.15625" stroke="black" stroke-linecap="butt" stroke-linejoin="miter" stroke-width="4" /><g id="room_living_room"><polygon fill="rgb(238,232,170)" fill-opacity="0.7" points="414.765625,120.703125 412.65625,181.875 351.484375,181.875 351.484375,323.203125 402.109375,325.3125 402.109375,424.453125 511.796875,424.453125 511.796875,308.4375 562.421875,306.328125 562.421875,245.15625 497.03125,243.046875 497.03125,120.703125" stroke="black" stroke-width="1.5" /><text dominant-baseline="middle" fill="black" font-family="Arial" font-size="12px" font-weight="bold" text-anchor="middle" x="458.0078125" y="273.6328125">Living Room</text></g><g id="room_master_bedroom"><polygon fill="rgb(255,165,0)" fill-opacity="0.7" points="290.3125,335.859375 290.3125,453.984375 389.453125,453.984375 389.453125,335.859375" stroke="black" stroke-width="1.5" /><text dominant-baseline="middle" fill="black" font-family="Arial" font-size="12px" font-weight="bold" text-anchor="middle" x="340.9375" y="395.9765625">Master Bedroom</text></g><g id="room_common_room_2"><polygon fill="rgb(255,215,0)" fill-opacity="0.7" points="237.578125,120.703125 237.578125,232.5 338.828125,232.5 338.828125,120.703125" stroke="black" stroke-width="1.5" /><text dominant-baseline="middle" fill="black" font-family="Arial" font-size="12px" font-weight="bold" text-anchor="middle" x="289.2578125" y="177.65625">Common Room 2</text></g><g id="room_common_room"><polygon fill="rgb(255,215,0)" fill-opacity="0.7" points="237.578125,245.15625 237.578125,323.203125 338.828125,323.203125 338.828125,245.15625" stroke="black" stroke-width="1.5" /><text dominant-baseline="middle" fill="black" font-family="Arial" font-size="12px" font-weight="bold" text-anchor="middle" x="289.2578125" y="285.234375">Common Room</text></g><g id="room_kitchen"><polygon fill="rgb(240,128,128)" fill-opacity="0.7" points="509.6875,120.703125 509.6875,232.5 562.421875,232.5 562.421875,120.703125" stroke="black" stroke-width="1.5" /><text dominant-baseline="middle" fill="black" font-family="Arial" font-size="12px" font-weight="bold" text-anchor="middle" x="537.109375" y="177.65625">Kitchen</text></g><g id="room_balcony"><polygon fill="rgb(107,142,35)" fill-opacity="0.7" points="402.109375,437.109375 402.109375,479.296875 511.796875,479.296875 511.796875,437.109375" stroke="black" stroke-width="1.5" /><text dominant-baseline="middle" fill="black" font-family="Arial" font-size="12px" font-weight="bold" text-anchor="middle" x="458.0078125" y="459.2578125">Balcony</text></g><g id="room_bathroom"><polygon fill="rgb(173,216,230)" fill-opacity="0.7" points="351.484375,120.703125 351.484375,173.4375 402.109375,173.4375 402.109375,120.703125" stroke="black" stroke-width="1.5" /><text dominant-baseline="middle" fill="black" font-family="Arial" font-size="12px" font-weight="bold" text-anchor="middle" x="377.8515625" y="148.125">Bathroom</text></g><rect fill="red" fill-opacity="0.9" height="27.421875" id="main_door" stroke="darkred" stroke-width="3" width="10.546875" x="564.53125" y="243.046875" /><text dominant-baseline="middle" fill="white" font-family="Arial" font-size="9px" font-weight="bold" text-anchor="middle" x="569.8046875" y="256.7578125">Main Door</text><text fill="black" font-family="Arial" font-size="18px" font-weight="bold" text-anchor="middle" x="400.0" y="30">Floor Plan - ID: 73171</text></svg>