<?xml version="1.0" encoding="utf-8" ?>
<svg baseProfile="full" height="600px" version="1.1" viewBox="0 0 800 600" width="800px" xmlns="http://www.w3.org/2000/svg" xmlns:ev="http://www.w3.org/2001/xml-events" xmlns:xlink="http://www.w3.org/1999/xlink"><defs /><rect fill="white" height="600" width="800" x="0" y="0" /><polygon fill="none" id="floor_plan_boundary" points="246.015625,114.375 246.015625,247.265625 283.984375,249.375 283.984375,449.765625 416.875,449.765625 418.984375,485.625 553.984375,485.625 553.984375,274.6875 524.453125,272.578125 524.453125,215.625 553.984375,213.515625 553.984375,114.375 421.09375,114.375 549.765625,120.703125 549.765625,207.1875 520.234375,209.296875 520.234375,278.90625 549.765625,281.015625 547.65625,481.40625 425.3125,481.40625 423.203125,445.546875 288.203125,443.4375 288.203125,243.046875 250.234375,240.9375 250.234375,120.703125 391.5625,114.375" stroke="black" stroke-linecap="butt" stroke-linejoin="miter" stroke-width="4" /><g id="room_living_room"><polygon fill="rgb(238,232,170)" fill-opacity="0.7" points="416.875,120.703125 393.671875,120.703125 391.5625,190.3125 290.3125,190.3125 290.3125,401.25 416.875,401.25" stroke="black" stroke-width="1.5" /><text dominant-baseline="middle" fill="black" font-family="Arial" font-size="12px" font-weight="bold" text-anchor="middle" x="354.6484375" y="262.03125">Living Room</text></g><g id="room_master_bedroom"><polygon fill="rgb(255,165,0)" fill-opacity="0.7" points="425.3125,281.015625 425.3125,479.296875 547.65625,479.296875 547.65625,342.1875 467.5,342.1875 465.390625,281.015625" stroke="black" stroke-width="1.5" /><text dominant-baseline="middle" fill="black" font-family="Arial" font-size="12px" font-weight="bold" text-anchor="middle" x="487.5390625" y="381.2109375">Master Bedroom</text></g><g id="room_common_room"><polygon fill="rgb(255,215,0)" fill-opacity="0.7" points="425.3125,120.703125 425.3125,207.1875 547.65625,207.1875 547.65625,120.703125" stroke="black" stroke-width="1.5" /><text dominant-baseline="middle" fill="black" font-family="Arial" font-size="12px" font-weight="bold" text-anchor="middle" x="487.5390625" y="165.0">Common Room</text></g><g id="room_kitchen"><polygon fill="rgb(240,128,128)" fill-opacity="0.7" points="252.34375,120.703125 252.34375,240.9375 281.875,240.9375 283.984375,181.875 385.234375,181.875 385.234375,120.703125" stroke="black" stroke-width="1.5" /><text dominant-baseline="middle" fill="black" font-family="Arial" font-size="12px" font-weight="bold" text-anchor="middle" x="319.84375" y="181.875">Kitchen</text></g><g id="room_bathroom_2"><polygon fill="rgb(173,216,230)" fill-opacity="0.7" points="425.3125,215.625 425.3125,272.578125 518.125,272.578125 518.125,215.625" stroke="black" stroke-width="1.5" /><text dominant-baseline="middle" fill="black" font-family="Arial" font-size="12px" font-weight="bold" text-anchor="middle" x="472.7734375" y="245.15625">Bathroom 2</text></g><g id="room_balcony"><polygon fill="rgb(107,142,35)" fill-opacity="0.7" points="290.3125,409.6875 290.3125,443.4375 416.875,443.4375 416.875,409.6875" stroke="black" stroke-width="1.5" /><text dominant-baseline="middle" fill="black" font-family="Arial" font-size="12px" font-weight="bold" text-anchor="middle" x="354.6484375" y="427.6171875">Balcony</text></g><g id="room_bathroom"><polygon fill="rgb(173,216,230)" fill-opacity="0.7" points="473.828125,281.015625 473.828125,333.75 547.65625,333.75 547.65625,281.015625" stroke="black" stroke-width="1.5" /><text dominant-baseline="middle" fill="black" font-family="Arial" font-size="12px" font-weight="bold" text-anchor="middle" x="511.796875" y="308.4375">Bathroom</text></g><rect fill="red" fill-opacity="0.9" height="6.328125" id="main_door" stroke="darkred" stroke-width="3" width="27.421875" x="393.671875" y="114.375" /><text dominant-baseline="middle" fill="white" font-family="Arial" font-size="9px" font-weight="bold" text-anchor="middle" x="407.3828125" y="117.5390625">Main Door</text><text fill="black" font-family="Arial" font-size="18px" font-weight="bold" text-anchor="middle" x="400.0" y="30">Floor Plan - ID: 73209</text></svg>