<?xml version="1.0" encoding="utf-8" ?>
<svg baseProfile="full" height="600px" version="1.1" viewBox="0 0 800 600" width="800px" xmlns="http://www.w3.org/2000/svg" xmlns:ev="http://www.w3.org/2001/xml-events" xmlns:xlink="http://www.w3.org/1999/xlink"><defs /><rect fill="white" height="600" width="800" x="0" y="0" /><polygon fill="none" id="floor_plan_boundary" points="332.5,122.8125 330.390625,188.203125 254.453125,188.203125 254.453125,453.984375 381.015625,453.984375 383.125,496.171875 450.625,496.171875 452.734375,510.9375 530.78125,510.9375 530.78125,498.28125 545.546875,496.171875 545.546875,354.84375 478.046875,352.734375 478.046875,183.984375 505.46875,181.875 505.46875,89.0625 433.75,89.0625 431.640625,122.8125 381.015625,127.03125 437.96875,127.03125 440.078125,93.28125 501.25,95.390625 501.25,175.546875 473.828125,177.65625 473.828125,359.0625 541.328125,361.171875 541.328125,489.84375 526.5625,491.953125 524.453125,506.71875 459.0625,506.71875 456.953125,491.953125 389.453125,491.953125 387.34375,449.765625 258.671875,447.65625 258.671875,194.53125 336.71875,192.421875 338.828125,122.8125" stroke="black" stroke-linecap="butt" stroke-linejoin="miter" stroke-width="4" /><g id="room_living_room"><polygon fill="rgb(238,232,170)" fill-opacity="0.7" points="381.015625,129.140625 338.828125,129.140625 336.71875,194.53125 260.78125,194.53125 260.78125,447.65625 381.015625,447.65625" stroke="black" stroke-width="1.5" /><text dominant-baseline="middle" fill="black" font-family="Arial" font-size="12px" font-weight="bold" text-anchor="middle" x="321.953125" y="289.453125">Living Room</text></g><g id="room_master_bedroom"><polygon fill="rgb(255,165,0)" fill-opacity="0.7" points="389.453125,352.734375 389.453125,489.84375 456.953125,489.84375 459.0625,504.609375 524.453125,504.609375 524.453125,491.953125 539.21875,489.84375 539.21875,361.171875" stroke="black" stroke-width="1.5" /><text dominant-baseline="middle" fill="black" font-family="Arial" font-size="12px" font-weight="bold" text-anchor="middle" x="465.390625" y="429.7265625">Master Bedroom</text></g><g id="room_common_room"><polygon fill="rgb(255,215,0)" fill-opacity="0.7" points="389.453125,243.046875 389.453125,344.296875 471.71875,344.296875 471.71875,243.046875" stroke="black" stroke-width="1.5" /><text dominant-baseline="middle" fill="black" font-family="Arial" font-size="12px" font-weight="bold" text-anchor="middle" x="431.640625" y="294.7265625">Common Room</text></g><g id="room_kitchen"><polygon fill="rgb(240,128,128)" fill-opacity="0.7" points="389.453125,129.140625 389.453125,175.546875 499.140625,175.546875 499.140625,95.390625 440.078125,95.390625 437.96875,129.140625" stroke="black" stroke-width="1.5" /><text dominant-baseline="middle" fill="black" font-family="Arial" font-size="12px" font-weight="bold" text-anchor="middle" x="445.3515625" y="136.5234375">Kitchen</text></g><g id="room_bathroom"><polygon fill="rgb(173,216,230)" fill-opacity="0.7" points="389.453125,183.984375 389.453125,234.609375 471.71875,234.609375 471.71875,183.984375" stroke="black" stroke-width="1.5" /><text dominant-baseline="middle" fill="black" font-family="Arial" font-size="12px" font-weight="bold" text-anchor="middle" x="431.640625" y="210.3515625">Bathroom</text></g><rect fill="red" fill-opacity="0.9" height="6.328125" id="main_door" stroke="darkred" stroke-width="3" width="40.078125" x="340.9375" y="122.8125" /><text dominant-baseline="middle" fill="white" font-family="Arial" font-size="9px" font-weight="bold" text-anchor="middle" x="360.9765625" y="125.9765625">Main Door</text><text fill="black" font-family="Arial" font-size="18px" font-weight="bold" text-anchor="middle" x="400.0" y="30">Floor Plan - ID: 73226</text></svg>