<?xml version="1.0" encoding="utf-8" ?>
<svg baseProfile="full" height="600px" version="1.1" viewBox="0 0 800 600" width="800px" xmlns="http://www.w3.org/2000/svg" xmlns:ev="http://www.w3.org/2001/xml-events" xmlns:xlink="http://www.w3.org/1999/xlink"><defs /><rect fill="white" height="600" width="800" x="0" y="0" /><polygon fill="none" id="floor_plan_boundary" points="201.71875,232.5 201.71875,437.109375 551.875,437.109375 551.875,318.984375 598.28125,316.875 598.28125,192.421875 427.421875,192.421875 425.3125,162.890625 368.359375,162.890625 418.984375,167.109375 421.09375,196.640625 594.0625,198.75 594.0625,310.546875 547.65625,312.65625 545.546875,432.890625 208.046875,432.890625 205.9375,238.828125 305.078125,236.71875 307.1875,217.734375 372.578125,217.734375 372.578125,192.421875 366.25,213.515625 300.859375,213.515625 298.75,232.5" stroke="black" stroke-linecap="butt" stroke-linejoin="miter" stroke-width="4" /><g id="room_living_room"><polygon fill="rgb(238,232,170)" fill-opacity="0.7" points="418.984375,169.21875 374.6875,169.21875 372.578125,219.84375 307.1875,219.84375 307.1875,291.5625 275.546875,293.671875 275.546875,335.859375 307.1875,337.96875 307.1875,430.78125 418.984375,430.78125" stroke="black" stroke-width="1.5" /><text dominant-baseline="middle" fill="black" font-family="Arial" font-size="12px" font-weight="bold" text-anchor="middle" x="348.3203125" y="301.0546875">Living Room</text></g><g id="room_master_bedroom"><polygon fill="rgb(255,165,0)" fill-opacity="0.7" points="427.421875,198.75 427.421875,310.546875 545.546875,310.546875 545.546875,198.75" stroke="black" stroke-width="1.5" /><text dominant-baseline="middle" fill="black" font-family="Arial" font-size="12px" font-weight="bold" text-anchor="middle" x="487.5390625" y="255.703125">Master Bedroom</text></g><g id="room_common_room_2"><polygon fill="rgb(255,215,0)" fill-opacity="0.7" points="427.421875,318.984375 427.421875,430.78125 545.546875,430.78125 545.546875,318.984375" stroke="black" stroke-width="1.5" /><text dominant-baseline="middle" fill="black" font-family="Arial" font-size="12px" font-weight="bold" text-anchor="middle" x="487.5390625" y="375.9375">Common Room 2</text></g><g id="room_common_room"><polygon fill="rgb(255,215,0)" fill-opacity="0.7" points="208.046875,344.296875 208.046875,430.78125 298.75,430.78125 298.75,344.296875" stroke="black" stroke-width="1.5" /><text dominant-baseline="middle" fill="black" font-family="Arial" font-size="12px" font-weight="bold" text-anchor="middle" x="254.453125" y="388.59375">Common Room</text></g><g id="room_balcony"><polygon fill="rgb(107,142,35)" fill-opacity="0.7" points="553.984375,198.75 553.984375,310.546875 591.953125,310.546875 591.953125,198.75" stroke="black" stroke-width="1.5" /><text dominant-baseline="middle" fill="black" font-family="Arial" font-size="12px" font-weight="bold" text-anchor="middle" x="574.0234375" y="255.703125">Balcony</text></g><g id="room_kitchen"><polygon fill="rgb(240,128,128)" fill-opacity="0.7" points="208.046875,238.828125 208.046875,285.234375 298.75,285.234375 298.75,238.828125" stroke="black" stroke-width="1.5" /><text dominant-baseline="middle" fill="black" font-family="Arial" font-size="12px" font-weight="bold" text-anchor="middle" x="254.453125" y="263.0859375">Kitchen</text></g><g id="room_bathroom"><polygon fill="rgb(173,216,230)" fill-opacity="0.7" points="208.046875,293.671875 208.046875,335.859375 267.109375,335.859375 267.109375,293.671875" stroke="black" stroke-width="1.5" /><text dominant-baseline="middle" fill="black" font-family="Arial" font-size="12px" font-weight="bold" text-anchor="middle" x="238.6328125" y="315.8203125">Bathroom</text></g><rect fill="red" fill-opacity="0.9" height="27.421875" id="main_door" stroke="darkred" stroke-width="3" width="6.328125" x="368.359375" y="165.0" /><text dominant-baseline="middle" fill="white" font-family="Arial" font-size="9px" font-weight="bold" text-anchor="middle" x="371.5234375" y="178.7109375">Main Door</text><text fill="black" font-family="Arial" font-size="18px" font-weight="bold" text-anchor="middle" x="400.0" y="30">Floor Plan - ID: 73358</text></svg>