<?xml version="1.0" encoding="utf-8" ?>
<svg baseProfile="full" height="600px" version="1.1" viewBox="0 0 800 600" width="800px" xmlns="http://www.w3.org/2000/svg" xmlns:ev="http://www.w3.org/2001/xml-events" xmlns:xlink="http://www.w3.org/1999/xlink"><defs /><rect fill="white" height="600" width="800" x="0" y="0" /><polygon fill="none" id="floor_plan_boundary" points="530.78125,127.03125 389.453125,127.03125 387.34375,143.90625 364.140625,143.90625 364.140625,152.34375 397.890625,152.34375 400.0,135.46875 522.34375,137.578125 522.34375,272.578125 486.484375,274.6875 486.484375,418.125 389.453125,420.234375 387.34375,464.53125 277.65625,462.421875 277.65625,175.546875 307.1875,173.4375 307.1875,154.453125 334.609375,152.34375 334.609375,143.90625 298.75,143.90625 296.640625,165.0 269.21875,165.0 269.21875,472.96875 397.890625,472.96875 400.0,428.671875 494.921875,428.671875 494.921875,285.234375 530.78125,283.125" stroke="black" stroke-linecap="butt" stroke-linejoin="miter" stroke-width="4" /><g id="room_living_room"><polygon fill="rgb(238,232,170)" fill-opacity="0.7" points="387.34375,154.453125 338.828125,154.453125 336.71875,232.5 279.765625,232.5 279.765625,462.421875 387.34375,462.421875" stroke="black" stroke-width="1.5" /><text dominant-baseline="middle" fill="black" font-family="Arial" font-size="12px" font-weight="bold" text-anchor="middle" x="334.609375" y="309.4921875">Living Room</text></g><g id="room_master_bedroom"><polygon fill="rgb(255,165,0)" fill-opacity="0.7" points="400.0,285.234375 400.0,418.125 484.375,418.125 484.375,285.234375" stroke="black" stroke-width="1.5" /><text dominant-baseline="middle" fill="black" font-family="Arial" font-size="12px" font-weight="bold" text-anchor="middle" x="443.2421875" y="352.734375">Master Bedroom</text></g><g id="room_common_room"><polygon fill="rgb(255,215,0)" fill-opacity="0.7" points="400.0,137.578125 400.0,219.84375 520.234375,219.84375 520.234375,137.578125" stroke="black" stroke-width="1.5" /><text dominant-baseline="middle" fill="black" font-family="Arial" font-size="12px" font-weight="bold" text-anchor="middle" x="461.171875" y="179.765625">Common Room</text></g><g id="room_kitchen"><polygon fill="rgb(240,128,128)" fill-opacity="0.7" points="400.0,232.5 400.0,272.578125 520.234375,272.578125 520.234375,232.5" stroke="black" stroke-width="1.5" /><text dominant-baseline="middle" fill="black" font-family="Arial" font-size="12px" font-weight="bold" text-anchor="middle" x="461.171875" y="253.59375">Kitchen</text></g><g id="room_bathroom"><polygon fill="rgb(173,216,230)" fill-opacity="0.7" points="326.171875,154.453125 309.296875,154.453125 307.1875,175.546875 279.765625,175.546875 279.765625,219.84375 326.171875,219.84375" stroke="black" stroke-width="1.5" /><text dominant-baseline="middle" fill="black" font-family="Arial" font-size="12px" font-weight="bold" text-anchor="middle" x="304.0234375" y="188.203125">Bathroom</text></g><rect fill="red" fill-opacity="0.9" height="10.546875" id="main_door" stroke="darkred" stroke-width="3" width="27.421875" x="336.71875" y="143.90625" /><text dominant-baseline="middle" fill="white" font-family="Arial" font-size="9px" font-weight="bold" text-anchor="middle" x="350.4296875" y="149.1796875">Main Door</text><text fill="black" font-family="Arial" font-size="18px" font-weight="bold" text-anchor="middle" x="400.0" y="30">Floor Plan - ID: 73386</text></svg>