<?xml version="1.0" encoding="utf-8" ?>
<svg baseProfile="full" height="600px" version="1.1" viewBox="0 0 800 600" width="800px" xmlns="http://www.w3.org/2000/svg" xmlns:ev="http://www.w3.org/2001/xml-events" xmlns:xlink="http://www.w3.org/1999/xlink"><defs /><rect fill="white" height="600" width="800" x="0" y="0" /><polygon fill="none" id="floor_plan_boundary" points="640.46875,139.6875 433.75,139.6875 431.640625,160.78125 290.3125,160.78125 288.203125,181.875 159.53125,181.875 170.078125,190.3125 298.75,190.3125 300.859375,169.21875 442.1875,169.21875 444.296875,148.125 632.03125,150.234375 632.03125,407.578125 433.75,409.6875 431.640625,451.875 260.78125,451.875 258.671875,247.265625 170.078125,247.265625 167.96875,213.515625 159.53125,213.515625 159.53125,255.703125 250.234375,257.8125 250.234375,460.3125 442.1875,460.3125 444.296875,418.125 640.46875,418.125" stroke="black" stroke-linecap="butt" stroke-linejoin="miter" stroke-width="4" /><g id="room_living_room"><polygon fill="rgb(238,232,170)" fill-opacity="0.7" points="170.078125,192.421875 170.078125,245.15625 258.671875,245.15625 260.78125,287.34375 319.84375,289.453125 319.84375,407.578125 431.640625,407.578125 431.640625,289.453125 522.34375,287.34375 522.34375,257.8125 381.015625,257.8125 378.90625,171.328125 300.859375,171.328125 298.75,192.421875" stroke="black" stroke-width="1.5" /><text dominant-baseline="middle" fill="black" font-family="Arial" font-size="12px" font-weight="bold" text-anchor="middle" x="347.265625" y="290.5078125">Living Room</text></g><g id="room_master_bedroom"><polygon fill="rgb(255,165,0)" fill-opacity="0.7" points="535.0,150.234375 535.0,407.578125 629.921875,407.578125 629.921875,257.8125 575.078125,255.703125 575.078125,150.234375" stroke="black" stroke-width="1.5" /><text dominant-baseline="middle" fill="black" font-family="Arial" font-size="12px" font-weight="bold" text-anchor="middle" x="583.515625" y="279.9609375">Master Bedroom</text></g><g id="room_common_room"><polygon fill="rgb(255,215,0)" fill-opacity="0.7" points="444.296875,300.0 444.296875,407.578125 522.34375,407.578125 522.34375,300.0" stroke="black" stroke-width="1.5" /><text dominant-baseline="middle" fill="black" font-family="Arial" font-size="12px" font-weight="bold" text-anchor="middle" x="484.375" y="354.84375">Common Room</text></g><g id="room_common_room_2"><polygon fill="rgb(255,215,0)" fill-opacity="0.7" points="444.296875,150.234375 444.296875,245.15625 522.34375,245.15625 522.34375,150.234375" stroke="black" stroke-width="1.5" /><text dominant-baseline="middle" fill="black" font-family="Arial" font-size="12px" font-weight="bold" text-anchor="middle" x="484.375" y="198.75">Common Room 2</text></g><g id="room_balcony"><polygon fill="rgb(107,142,35)" fill-opacity="0.7" points="260.78125,420.234375 260.78125,449.765625 431.640625,449.765625 431.640625,420.234375" stroke="black" stroke-width="1.5" /><text dominant-baseline="middle" fill="black" font-family="Arial" font-size="12px" font-weight="bold" text-anchor="middle" x="347.265625" y="436.0546875">Balcony</text></g><g id="room_kitchen"><polygon fill="rgb(240,128,128)" fill-opacity="0.7" points="260.78125,300.0 260.78125,407.578125 307.1875,407.578125 307.1875,300.0" stroke="black" stroke-width="1.5" /><text dominant-baseline="middle" fill="black" font-family="Arial" font-size="12px" font-weight="bold" text-anchor="middle" x="285.0390625" y="354.84375">Kitchen</text></g><g id="room_bathroom_2"><polygon fill="rgb(173,216,230)" fill-opacity="0.7" points="587.734375,150.234375 587.734375,245.15625 629.921875,245.15625 629.921875,150.234375" stroke="black" stroke-width="1.5" /><text dominant-baseline="middle" fill="black" font-family="Arial" font-size="12px" font-weight="bold" text-anchor="middle" x="609.8828125" y="198.75">Bathroom 2</text></g><g id="room_bathroom"><polygon fill="rgb(173,216,230)" fill-opacity="0.7" points="391.5625,171.328125 391.5625,245.15625 431.640625,245.15625 431.640625,171.328125" stroke="black" stroke-width="1.5" /><text dominant-baseline="middle" fill="black" font-family="Arial" font-size="12px" font-weight="bold" text-anchor="middle" x="412.65625" y="209.296875">Bathroom</text></g><rect fill="red" fill-opacity="0.9" height="27.421875" id="main_door" stroke="darkred" stroke-width="3" width="10.546875" x="159.53125" y="186.09375" /><text dominant-baseline="middle" fill="white" font-family="Arial" font-size="9px" font-weight="bold" text-anchor="middle" x="164.8046875" y="199.8046875">Main Door</text><text fill="black" font-family="Arial" font-size="18px" font-weight="bold" text-anchor="middle" x="400.0" y="30">Floor Plan - ID: 73634</text></svg>