<?xml version="1.0" encoding="utf-8" ?>
<svg baseProfile="full" height="600px" version="1.1" viewBox="0 0 800 600" width="800px" xmlns="http://www.w3.org/2000/svg" xmlns:ev="http://www.w3.org/2001/xml-events" xmlns:xlink="http://www.w3.org/1999/xlink"><defs /><rect fill="white" height="600" width="800" x="0" y="0" /><polygon fill="none" id="floor_plan_boundary" points="237.578125,143.90625 237.578125,255.703125 246.015625,255.703125 248.125,152.34375 374.6875,152.34375 376.796875,175.546875 448.515625,175.546875 450.625,152.34375 526.5625,152.34375 528.671875,257.8125 553.984375,259.921875 551.875,422.34375 463.28125,422.34375 461.171875,453.984375 378.90625,453.984375 378.90625,407.578125 364.140625,405.46875 364.140625,287.34375 248.125,287.34375 237.578125,295.78125 355.703125,297.890625 355.703125,416.015625 370.46875,418.125 372.578125,458.203125 467.5,458.203125 469.609375,430.78125 562.421875,430.78125 562.421875,249.375 537.109375,247.265625 537.109375,143.90625 440.078125,143.90625 437.96875,167.109375 387.34375,167.109375 385.234375,143.90625" stroke="black" stroke-linecap="butt" stroke-linejoin="miter" stroke-width="4" /><g id="room_living_room"><polygon fill="rgb(238,232,170)" fill-opacity="0.7" points="248.125,259.921875 248.125,285.234375 366.25,287.34375 366.25,405.46875 459.0625,407.578125 459.0625,314.765625 499.140625,312.65625 499.140625,259.921875 440.078125,255.703125 440.078125,177.65625 387.34375,177.65625 385.234375,259.921875" stroke="black" stroke-width="1.5" /><text dominant-baseline="middle" fill="black" font-family="Arial" font-size="12px" font-weight="bold" text-anchor="middle" x="374.6875" y="293.671875">Living Room</text></g><g id="room_master_bedroom"><polygon fill="rgb(255,165,0)" fill-opacity="0.7" points="471.71875,321.09375 471.71875,420.234375 551.875,420.234375 551.875,321.09375" stroke="black" stroke-width="1.5" /><text dominant-baseline="middle" fill="black" font-family="Arial" font-size="12px" font-weight="bold" text-anchor="middle" x="512.8515625" y="371.71875">Master Bedroom</text></g><g id="room_common_room"><polygon fill="rgb(255,215,0)" fill-opacity="0.7" points="450.625,154.453125 448.515625,249.375 526.5625,247.265625 526.5625,154.453125" stroke="black" stroke-width="1.5" /><text dominant-baseline="middle" fill="black" font-family="Arial" font-size="12px" font-weight="bold" text-anchor="middle" x="488.59375" y="202.96875">Common Room</text></g><g id="room_common_room_2"><polygon fill="rgb(255,215,0)" fill-opacity="0.7" points="248.125,154.453125 248.125,247.265625 315.625,249.375 315.625,154.453125" stroke="black" stroke-width="1.5" /><text dominant-baseline="middle" fill="black" font-family="Arial" font-size="12px" font-weight="bold" text-anchor="middle" x="282.9296875" y="202.96875">Common Room 2</text></g><g id="room_kitchen"><polygon fill="rgb(240,128,128)" fill-opacity="0.7" points="324.0625,154.453125 324.0625,247.265625 374.6875,247.265625 374.6875,154.453125" stroke="black" stroke-width="1.5" /><text dominant-baseline="middle" fill="black" font-family="Arial" font-size="12px" font-weight="bold" text-anchor="middle" x="350.4296875" y="201.9140625">Kitchen</text></g><g id="room_balcony"><polygon fill="rgb(107,142,35)" fill-opacity="0.7" points="381.015625,416.015625 378.90625,451.875 461.171875,451.875 459.0625,416.015625" stroke="black" stroke-width="1.5" /><text dominant-baseline="middle" fill="black" font-family="Arial" font-size="12px" font-weight="bold" text-anchor="middle" x="421.09375" y="435.0">Balcony</text></g><g id="room_bathroom"><polygon fill="rgb(173,216,230)" fill-opacity="0.7" points="507.578125,259.921875 507.578125,312.65625 551.875,312.65625 551.875,259.921875" stroke="black" stroke-width="1.5" /><text dominant-baseline="middle" fill="black" font-family="Arial" font-size="12px" font-weight="bold" text-anchor="middle" x="530.78125" y="287.34375">Bathroom</text></g><rect fill="red" fill-opacity="0.9" height="31.640625" id="main_door" stroke="darkred" stroke-width="3" width="10.546875" x="237.578125" y="257.8125" /><text dominant-baseline="middle" fill="white" font-family="Arial" font-size="9px" font-weight="bold" text-anchor="middle" x="242.8515625" y="273.6328125">Main Door</text><text fill="black" font-family="Arial" font-size="18px" font-weight="bold" text-anchor="middle" x="400.0" y="30">Floor Plan - ID: 73818</text></svg>