<?xml version="1.0" encoding="utf-8" ?>
<svg baseProfile="full" height="600px" version="1.1" viewBox="0 0 800 600" width="800px" xmlns="http://www.w3.org/2000/svg" xmlns:ev="http://www.w3.org/2001/xml-events" xmlns:xlink="http://www.w3.org/1999/xlink"><defs /><rect fill="white" height="600" width="800" x="0" y="0" /><polygon fill="none" id="floor_plan_boundary" points="246.015625,84.84375 246.015625,169.21875 302.96875,171.328125 302.96875,243.046875 307.1875,165.0 250.234375,162.890625 252.34375,89.0625 427.421875,89.0625 429.53125,122.8125 475.9375,122.8125 478.046875,101.71875 526.5625,103.828125 526.5625,236.71875 549.765625,238.828125 547.65625,510.9375 433.75,508.828125 433.75,278.90625 302.96875,283.125 427.421875,283.125 429.53125,515.15625 553.984375,515.15625 553.984375,232.5 530.78125,230.390625 530.78125,97.5 471.71875,97.5 469.609375,118.59375 435.859375,118.59375 433.75,84.84375" stroke="black" stroke-linecap="butt" stroke-linejoin="miter" stroke-width="4" /><g id="room_living_room"><polygon fill="rgb(238,232,170)" fill-opacity="0.7" points="309.296875,91.171875 309.296875,276.796875 433.75,276.796875 435.859375,323.203125 469.609375,323.203125 469.609375,238.828125 427.421875,236.71875 427.421875,91.171875" stroke="black" stroke-width="1.5" /><text dominant-baseline="middle" fill="black" font-family="Arial" font-size="12px" font-weight="bold" text-anchor="middle" x="390.5078125" y="208.2421875">Living Room</text></g><g id="room_master_bedroom"><polygon fill="rgb(255,165,0)" fill-opacity="0.7" points="435.859375,331.640625 435.859375,458.203125 547.65625,458.203125 547.65625,331.640625" stroke="black" stroke-width="1.5" /><text dominant-baseline="middle" fill="black" font-family="Arial" font-size="12px" font-weight="bold" text-anchor="middle" x="492.8125" y="395.9765625">Master Bedroom</text></g><g id="room_common_room"><polygon fill="rgb(255,215,0)" fill-opacity="0.7" points="435.859375,124.921875 435.859375,230.390625 524.453125,230.390625 524.453125,103.828125 478.046875,103.828125 473.828125,127.03125" stroke="black" stroke-width="1.5" /><text dominant-baseline="middle" fill="black" font-family="Arial" font-size="12px" font-weight="bold" text-anchor="middle" x="481.2109375" y="168.1640625">Common Room</text></g><g id="room_bathroom"><polygon fill="rgb(173,216,230)" fill-opacity="0.7" points="478.046875,238.828125 478.046875,323.203125 547.65625,323.203125 547.65625,238.828125" stroke="black" stroke-width="1.5" /><text dominant-baseline="middle" fill="black" font-family="Arial" font-size="12px" font-weight="bold" text-anchor="middle" x="513.90625" y="282.0703125">Bathroom</text></g><g id="room_balcony"><polygon fill="rgb(107,142,35)" fill-opacity="0.7" points="435.859375,466.640625 435.859375,508.828125 547.65625,508.828125 547.65625,466.640625" stroke="black" stroke-width="1.5" /><text dominant-baseline="middle" fill="black" font-family="Arial" font-size="12px" font-weight="bold" text-anchor="middle" x="492.8125" y="488.7890625">Balcony</text></g><g id="room_kitchen"><polygon fill="rgb(240,128,128)" fill-opacity="0.7" points="252.34375,91.171875 252.34375,162.890625 300.859375,162.890625 300.859375,91.171875" stroke="black" stroke-width="1.5" /><text dominant-baseline="middle" fill="black" font-family="Arial" font-size="12px" font-weight="bold" text-anchor="middle" x="277.65625" y="128.0859375">Kitchen</text></g><rect fill="red" fill-opacity="0.9" height="35.859375" id="main_door" stroke="darkred" stroke-width="3" width="6.328125" x="302.96875" y="245.15625" /><text dominant-baseline="middle" fill="white" font-family="Arial" font-size="9px" font-weight="bold" text-anchor="middle" x="306.1328125" y="263.0859375">Main Door</text><text fill="black" font-family="Arial" font-size="18px" font-weight="bold" text-anchor="middle" x="400.0" y="30">Floor Plan - ID: 7389</text></svg>