<?xml version="1.0" encoding="utf-8" ?>
<svg baseProfile="full" height="600px" version="1.1" viewBox="0 0 800 600" width="800px" xmlns="http://www.w3.org/2000/svg" xmlns:ev="http://www.w3.org/2001/xml-events" xmlns:xlink="http://www.w3.org/1999/xlink"><defs /><rect fill="white" height="600" width="800" x="0" y="0" /><polygon fill="none" id="floor_plan_boundary" points="283.984375,103.828125 283.984375,306.328125 288.203125,110.15625 372.578125,108.046875 374.6875,148.125 473.828125,150.234375 473.828125,310.546875 511.796875,312.65625 509.6875,491.953125 290.3125,491.953125 283.984375,331.640625 283.984375,496.171875 516.015625,496.171875 516.015625,306.328125 478.046875,304.21875 478.046875,143.90625 381.015625,143.90625 378.90625,103.828125" stroke="black" stroke-linecap="butt" stroke-linejoin="miter" stroke-width="4" /><g id="room_living_room"><polygon fill="rgb(238,232,170)" fill-opacity="0.7" points="338.828125,266.25 336.71875,312.65625 290.3125,312.65625 290.3125,489.84375 444.296875,489.84375 444.296875,312.65625 425.3125,310.546875 425.3125,266.25" stroke="black" stroke-width="1.5" /><text dominant-baseline="middle" fill="black" font-family="Arial" font-size="12px" font-weight="bold" text-anchor="middle" x="368.359375" y="379.1015625">Living Room</text></g><g id="room_common_room_2"><polygon fill="rgb(255,215,0)" fill-opacity="0.7" points="381.015625,150.234375 381.015625,257.8125 471.71875,257.8125 471.71875,150.234375" stroke="black" stroke-width="1.5" /><text dominant-baseline="middle" fill="black" font-family="Arial" font-size="12px" font-weight="bold" text-anchor="middle" x="427.421875" y="205.078125">Common Room 2</text></g><g id="room_master_bedroom"><polygon fill="rgb(255,165,0)" fill-opacity="0.7" points="290.3125,150.234375 290.3125,257.8125 372.578125,257.8125 372.578125,150.234375" stroke="black" stroke-width="1.5" /><text dominant-baseline="middle" fill="black" font-family="Arial" font-size="12px" font-weight="bold" text-anchor="middle" x="332.5" y="205.078125">Master Bedroom</text></g><g id="room_common_room"><polygon fill="rgb(255,215,0)" fill-opacity="0.7" points="452.734375,390.703125 452.734375,489.84375 509.6875,489.84375 509.6875,390.703125" stroke="black" stroke-width="1.5" /><text dominant-baseline="middle" fill="black" font-family="Arial" font-size="12px" font-weight="bold" text-anchor="middle" x="482.265625" y="441.328125">Common Room</text></g><g id="room_kitchen"><polygon fill="rgb(240,128,128)" fill-opacity="0.7" points="452.734375,312.65625 452.734375,382.265625 509.6875,382.265625 509.6875,312.65625" stroke="black" stroke-width="1.5" /><text dominant-baseline="middle" fill="black" font-family="Arial" font-size="12px" font-weight="bold" text-anchor="middle" x="482.265625" y="348.515625">Kitchen</text></g><g id="room_balcony"><polygon fill="rgb(107,142,35)" fill-opacity="0.7" points="290.3125,110.15625 290.3125,141.796875 372.578125,141.796875 372.578125,110.15625" stroke="black" stroke-width="1.5" /><text dominant-baseline="middle" fill="black" font-family="Arial" font-size="12px" font-weight="bold" text-anchor="middle" x="332.5" y="127.03125">Balcony</text></g><g id="room_bathroom_2"><polygon fill="rgb(173,216,230)" fill-opacity="0.7" points="290.3125,266.25 290.3125,304.21875 330.390625,304.21875 330.390625,266.25" stroke="black" stroke-width="1.5" /><text dominant-baseline="middle" fill="black" font-family="Arial" font-size="12px" font-weight="bold" text-anchor="middle" x="311.40625" y="286.2890625">Bathroom 2</text></g><g id="room_bathroom"><polygon fill="rgb(173,216,230)" fill-opacity="0.7" points="433.75,266.25 433.75,304.21875 471.71875,304.21875 471.71875,266.25" stroke="black" stroke-width="1.5" /><text dominant-baseline="middle" fill="black" font-family="Arial" font-size="12px" font-weight="bold" text-anchor="middle" x="453.7890625" y="286.2890625">Bathroom</text></g><text fill="black" font-family="Arial" font-size="18px" font-weight="bold" text-anchor="middle" x="400.0" y="30">Floor Plan - ID: 74300</text></svg>