<?xml version="1.0" encoding="utf-8" ?>
<svg baseProfile="full" height="600px" version="1.1" viewBox="0 0 800 600" width="800px" xmlns="http://www.w3.org/2000/svg" xmlns:ev="http://www.w3.org/2001/xml-events" xmlns:xlink="http://www.w3.org/1999/xlink"><defs /><rect fill="white" height="600" width="800" x="0" y="0" /><polygon fill="none" id="floor_plan_boundary" points="575.078125,105.9375 475.9375,105.9375 473.828125,150.234375 224.921875,150.234375 227.03125,494.0625 321.953125,494.0625 321.953125,456.09375 351.484375,453.984375 353.59375,354.84375 484.375,354.84375 484.375,346.40625 343.046875,346.40625 343.046875,443.4375 315.625,445.546875 317.734375,487.734375 233.359375,489.84375 233.359375,160.78125 484.375,158.671875 486.484375,114.375 564.53125,114.375 566.640625,295.78125 475.9375,297.890625 475.9375,316.875 484.375,316.875 486.484375,306.328125 575.078125,306.328125" stroke="black" stroke-linecap="butt" stroke-linejoin="miter" stroke-width="4" /><g id="room_living_room"><polygon fill="rgb(238,232,170)" fill-opacity="0.7" points="353.59375,160.78125 353.59375,259.921875 307.1875,262.03125 307.1875,293.671875 353.59375,295.78125 353.59375,344.296875 473.828125,344.296875 473.828125,160.78125" stroke="black" stroke-width="1.5" /><text dominant-baseline="middle" fill="black" font-family="Arial" font-size="12px" font-weight="bold" text-anchor="middle" x="391.5625" y="253.59375">Living Room</text></g><g id="room_master_bedroom"><polygon fill="rgb(255,165,0)" fill-opacity="0.7" points="340.9375,306.328125 307.1875,306.328125 305.078125,333.75 235.46875,333.75 235.46875,443.4375 340.9375,443.4375" stroke="black" stroke-width="1.5" /><text dominant-baseline="middle" fill="black" font-family="Arial" font-size="12px" font-weight="bold" text-anchor="middle" x="289.2578125" y="375.9375">Master Bedroom</text></g><g id="room_common_room"><polygon fill="rgb(255,215,0)" fill-opacity="0.7" points="235.46875,160.78125 235.46875,249.375 340.9375,249.375 340.9375,160.78125" stroke="black" stroke-width="1.5" /><text dominant-baseline="middle" fill="black" font-family="Arial" font-size="12px" font-weight="bold" text-anchor="middle" x="289.2578125" y="206.1328125">Common Room</text></g><g id="room_room_7"><polygon fill="rgb(218,112,214)" fill-opacity="0.7" points="486.484375,194.53125 486.484375,295.78125 564.53125,295.78125 564.53125,194.53125" stroke="black" stroke-width="1.5" /><text dominant-baseline="middle" fill="black" font-family="Arial" font-size="12px" font-weight="bold" text-anchor="middle" x="526.5625" y="246.2109375">Room 7</text></g><g id="room_kitchen"><polygon fill="rgb(240,128,128)" fill-opacity="0.7" points="486.484375,116.484375 486.484375,186.09375 564.53125,186.09375 564.53125,116.484375" stroke="black" stroke-width="1.5" /><text dominant-baseline="middle" fill="black" font-family="Arial" font-size="12px" font-weight="bold" text-anchor="middle" x="526.5625" y="152.34375">Kitchen</text></g><g id="room_bathroom"><polygon fill="rgb(173,216,230)" fill-opacity="0.7" points="235.46875,262.03125 235.46875,321.09375 294.53125,321.09375 294.53125,262.03125" stroke="black" stroke-width="1.5" /><text dominant-baseline="middle" fill="black" font-family="Arial" font-size="12px" font-weight="bold" text-anchor="middle" x="266.0546875" y="292.6171875">Bathroom</text></g><g id="room_balcony"><polygon fill="rgb(107,142,35)" fill-opacity="0.7" points="233.359375,456.09375 233.359375,487.734375 315.625,487.734375 315.625,456.09375" stroke="black" stroke-width="1.5" /><text dominant-baseline="middle" fill="black" font-family="Arial" font-size="12px" font-weight="bold" text-anchor="middle" x="275.546875" y="472.96875">Balcony</text></g><rect fill="red" fill-opacity="0.9" height="27.421875" id="main_door" stroke="darkred" stroke-width="3" width="10.546875" x="475.9375" y="318.984375" /><text dominant-baseline="middle" fill="white" font-family="Arial" font-size="9px" font-weight="bold" text-anchor="middle" x="481.2109375" y="332.6953125">Main Door</text><text fill="black" font-family="Arial" font-size="18px" font-weight="bold" text-anchor="middle" x="400.0" y="30">Floor Plan - ID: 74336</text></svg>