<?xml version="1.0" encoding="utf-8" ?>
<svg baseProfile="full" height="600px" version="1.1" viewBox="0 0 800 600" width="800px" xmlns="http://www.w3.org/2000/svg" xmlns:ev="http://www.w3.org/2001/xml-events" xmlns:xlink="http://www.w3.org/1999/xlink"><defs /><rect fill="white" height="600" width="800" x="0" y="0" /><polygon fill="none" id="floor_plan_boundary" points="254.453125,110.15625 254.453125,466.640625 345.15625,466.640625 347.265625,489.84375 452.734375,489.84375 454.84375,466.640625 545.546875,466.640625 545.546875,266.25 539.21875,462.421875 448.515625,462.421875 446.40625,485.625 353.59375,485.625 351.484375,462.421875 258.671875,460.3125 258.671875,116.484375 539.21875,114.375 545.546875,232.5 545.546875,110.15625" stroke="black" stroke-linecap="butt" stroke-linejoin="miter" stroke-width="4" /><g id="room_living_room"><polygon fill="rgb(238,232,170)" fill-opacity="0.7" points="307.1875,236.71875 307.1875,297.890625 353.59375,300.0 353.59375,460.3125 446.40625,460.3125 446.40625,327.421875 539.21875,325.3125 539.21875,236.71875" stroke="black" stroke-width="1.5" /><text dominant-baseline="middle" fill="black" font-family="Arial" font-size="12px" font-weight="bold" text-anchor="middle" x="424.2578125" y="349.5703125">Living Room</text></g><g id="room_master_bedroom"><polygon fill="rgb(255,165,0)" fill-opacity="0.7" points="260.78125,306.328125 260.78125,460.3125 345.15625,460.3125 345.15625,306.328125" stroke="black" stroke-width="1.5" /><text dominant-baseline="middle" fill="black" font-family="Arial" font-size="12px" font-weight="bold" text-anchor="middle" x="304.0234375" y="384.375">Master Bedroom</text></g><g id="room_common_room_2"><polygon fill="rgb(255,215,0)" fill-opacity="0.7" points="260.78125,116.484375 260.78125,228.28125 376.796875,228.28125 376.796875,116.484375" stroke="black" stroke-width="1.5" /><text dominant-baseline="middle" fill="black" font-family="Arial" font-size="12px" font-weight="bold" text-anchor="middle" x="319.84375" y="173.4375">Common Room 2</text></g><g id="room_common_room"><polygon fill="rgb(255,215,0)" fill-opacity="0.7" points="454.84375,333.75 454.84375,460.3125 539.21875,460.3125 539.21875,333.75" stroke="black" stroke-width="1.5" /><text dominant-baseline="middle" fill="black" font-family="Arial" font-size="12px" font-weight="bold" text-anchor="middle" x="498.0859375" y="398.0859375">Common Room</text></g><g id="room_bathroom"><polygon fill="rgb(173,216,230)" fill-opacity="0.7" points="385.234375,116.484375 385.234375,228.28125 459.0625,228.28125 459.0625,116.484375" stroke="black" stroke-width="1.5" /><text dominant-baseline="middle" fill="black" font-family="Arial" font-size="12px" font-weight="bold" text-anchor="middle" x="423.203125" y="173.4375">Bathroom</text></g><g id="room_kitchen"><polygon fill="rgb(240,128,128)" fill-opacity="0.7" points="467.5,116.484375 467.5,228.28125 539.21875,228.28125 539.21875,116.484375" stroke="black" stroke-width="1.5" /><text dominant-baseline="middle" fill="black" font-family="Arial" font-size="12px" font-weight="bold" text-anchor="middle" x="504.4140625" y="173.4375">Kitchen</text></g><g id="room_room_8"><polygon fill="rgb(221,160,221)" fill-opacity="0.7" points="260.78125,236.71875 260.78125,297.890625 298.75,297.890625 298.75,236.71875" stroke="black" stroke-width="1.5" /><text dominant-baseline="middle" fill="black" font-family="Arial" font-size="12px" font-weight="bold" text-anchor="middle" x="280.8203125" y="268.359375">Room 8</text></g><g id="room_balcony"><polygon fill="rgb(107,142,35)" fill-opacity="0.7" points="353.59375,468.75 353.59375,483.515625 446.40625,483.515625 446.40625,468.75" stroke="black" stroke-width="1.5" /><text dominant-baseline="middle" fill="black" font-family="Arial" font-size="12px" font-weight="bold" text-anchor="middle" x="401.0546875" y="477.1875">Balcony</text></g><rect fill="red" fill-opacity="0.9" height="31.640625" id="main_door" stroke="darkred" stroke-width="3" width="6.328125" x="541.328125" y="234.609375" /><text dominant-baseline="middle" fill="white" font-family="Arial" font-size="9px" font-weight="bold" text-anchor="middle" x="544.4921875" y="250.4296875">Main Door</text><text fill="black" font-family="Arial" font-size="18px" font-weight="bold" text-anchor="middle" x="400.0" y="30">Floor Plan - ID: 74363</text></svg>