<?xml version="1.0" encoding="utf-8" ?>
<svg baseProfile="full" height="600px" version="1.1" viewBox="0 0 800 600" width="800px" xmlns="http://www.w3.org/2000/svg" xmlns:ev="http://www.w3.org/2001/xml-events" xmlns:xlink="http://www.w3.org/1999/xlink"><defs /><rect fill="white" height="600" width="800" x="0" y="0" /><polygon fill="none" id="floor_plan_boundary" points="241.796875,154.453125 241.796875,251.484375 248.125,158.671875 551.875,158.671875 551.875,403.359375 440.078125,403.359375 437.96875,441.328125 326.171875,441.328125 324.0625,297.890625 248.125,297.890625 241.796875,276.796875 241.796875,302.109375 319.84375,304.21875 319.84375,445.546875 444.296875,445.546875 446.40625,407.578125 558.203125,407.578125 558.203125,154.453125" stroke="black" stroke-linecap="butt" stroke-linejoin="miter" stroke-width="4" /><g id="room_living_room"><polygon fill="rgb(238,232,170)" fill-opacity="0.7" points="311.40625,160.78125 311.40625,253.59375 248.125,255.703125 248.125,295.78125 326.171875,297.890625 326.171875,401.25 437.96875,401.25 437.96875,232.5 387.34375,230.390625 387.34375,160.78125" stroke="black" stroke-width="1.5" /><text dominant-baseline="middle" fill="black" font-family="Arial" font-size="12px" font-weight="bold" text-anchor="middle" x="344.1015625" y="282.0703125">Living Room</text></g><g id="room_master_bedroom"><polygon fill="rgb(255,165,0)" fill-opacity="0.7" points="446.40625,255.703125 446.40625,401.25 551.875,401.25 551.875,255.703125" stroke="black" stroke-width="1.5" /><text dominant-baseline="middle" fill="black" font-family="Arial" font-size="12px" font-weight="bold" text-anchor="middle" x="500.1953125" y="329.53125">Master Bedroom</text></g><g id="room_common_room"><polygon fill="rgb(255,215,0)" fill-opacity="0.7" points="446.40625,160.78125 446.40625,247.265625 551.875,247.265625 551.875,160.78125" stroke="black" stroke-width="1.5" /><text dominant-baseline="middle" fill="black" font-family="Arial" font-size="12px" font-weight="bold" text-anchor="middle" x="500.1953125" y="205.078125">Common Room</text></g><g id="room_kitchen"><polygon fill="rgb(240,128,128)" fill-opacity="0.7" points="248.125,160.78125 248.125,247.265625 302.96875,247.265625 302.96875,160.78125" stroke="black" stroke-width="1.5" /><text dominant-baseline="middle" fill="black" font-family="Arial" font-size="12px" font-weight="bold" text-anchor="middle" x="276.6015625" y="205.078125">Kitchen</text></g><g id="room_balcony"><polygon fill="rgb(107,142,35)" fill-opacity="0.7" points="326.171875,409.6875 326.171875,439.21875 437.96875,439.21875 437.96875,409.6875" stroke="black" stroke-width="1.5" /><text dominant-baseline="middle" fill="black" font-family="Arial" font-size="12px" font-weight="bold" text-anchor="middle" x="383.125" y="425.5078125">Balcony</text></g><g id="room_bathroom"><polygon fill="rgb(173,216,230)" fill-opacity="0.7" points="395.78125,160.78125 395.78125,224.0625 437.96875,224.0625 437.96875,160.78125" stroke="black" stroke-width="1.5" /><text dominant-baseline="middle" fill="black" font-family="Arial" font-size="12px" font-weight="bold" text-anchor="middle" x="417.9296875" y="193.4765625">Bathroom</text></g><text fill="black" font-family="Arial" font-size="18px" font-weight="bold" text-anchor="middle" x="400.0" y="30">Floor Plan - ID: 74510</text></svg>