<?xml version="1.0" encoding="utf-8" ?>
<svg baseProfile="full" height="600px" version="1.1" viewBox="0 0 800 600" width="800px" xmlns="http://www.w3.org/2000/svg" xmlns:ev="http://www.w3.org/2001/xml-events" xmlns:xlink="http://www.w3.org/1999/xlink"><defs /><rect fill="white" height="600" width="800" x="0" y="0" /><polygon fill="none" id="floor_plan_boundary" points="286.09375,150.234375 286.09375,253.59375 265.0,255.703125 265.0,494.0625 535.0,494.0625 535.0,310.546875 490.703125,310.546875 530.78125,316.875 528.671875,489.84375 269.21875,487.734375 269.21875,262.03125 290.3125,259.921875 292.421875,154.453125 389.453125,154.453125 391.5625,110.15625 488.59375,110.15625 494.921875,289.453125 494.921875,105.9375 385.234375,105.9375 383.125,150.234375" stroke="black" stroke-linecap="butt" stroke-linejoin="miter" stroke-width="4" /><g id="room_living_room"><polygon fill="rgb(238,232,170)" fill-opacity="0.7" points="391.5625,156.5625 391.5625,308.4375 416.875,310.546875 416.875,487.734375 528.671875,487.734375 528.671875,316.875 488.59375,314.765625 488.59375,156.5625" stroke="black" stroke-width="1.5" /><text dominant-baseline="middle" fill="black" font-family="Arial" font-size="12px" font-weight="bold" text-anchor="middle" x="461.171875" y="323.203125">Living Room</text></g><g id="room_master_bedroom"><polygon fill="rgb(255,165,0)" fill-opacity="0.7" points="408.4375,316.875 391.5625,316.875 389.453125,369.609375 271.328125,369.609375 271.328125,487.734375 408.4375,487.734375" stroke="black" stroke-width="1.5" /><text dominant-baseline="middle" fill="black" font-family="Arial" font-size="12px" font-weight="bold" text-anchor="middle" x="340.9375" y="403.359375">Master Bedroom</text></g><g id="room_kitchen"><polygon fill="rgb(240,128,128)" fill-opacity="0.7" points="292.421875,156.5625 292.421875,253.59375 383.125,253.59375 383.125,156.5625" stroke="black" stroke-width="1.5" /><text dominant-baseline="middle" fill="black" font-family="Arial" font-size="12px" font-weight="bold" text-anchor="middle" x="338.828125" y="206.1328125">Kitchen</text></g><g id="room_bathroom_2"><polygon fill="rgb(173,216,230)" fill-opacity="0.7" points="271.328125,262.03125 271.328125,308.4375 383.125,308.4375 383.125,262.03125" stroke="black" stroke-width="1.5" /><text dominant-baseline="middle" fill="black" font-family="Arial" font-size="12px" font-weight="bold" text-anchor="middle" x="328.28125" y="286.2890625">Bathroom 2</text></g><g id="room_bathroom"><polygon fill="rgb(173,216,230)" fill-opacity="0.7" points="271.328125,316.875 271.328125,361.171875 383.125,361.171875 383.125,316.875" stroke="black" stroke-width="1.5" /><text dominant-baseline="middle" fill="black" font-family="Arial" font-size="12px" font-weight="bold" text-anchor="middle" x="328.28125" y="340.078125">Bathroom</text></g><g id="room_balcony"><polygon fill="rgb(107,142,35)" fill-opacity="0.7" points="391.5625,112.265625 391.5625,148.125 488.59375,148.125 488.59375,112.265625" stroke="black" stroke-width="1.5" /><text dominant-baseline="middle" fill="black" font-family="Arial" font-size="12px" font-weight="bold" text-anchor="middle" x="441.1328125" y="131.25">Balcony</text></g><text fill="black" font-family="Arial" font-size="18px" font-weight="bold" text-anchor="middle" x="400.0" y="30">Floor Plan - ID: 74566</text></svg>