<?xml version="1.0" encoding="utf-8" ?>
<svg baseProfile="full" height="600px" version="1.1" viewBox="0 0 800 600" width="800px" xmlns="http://www.w3.org/2000/svg" xmlns:ev="http://www.w3.org/2001/xml-events" xmlns:xlink="http://www.w3.org/1999/xlink"><defs /><rect fill="white" height="600" width="800" x="0" y="0" /><polygon fill="none" id="floor_plan_boundary" points="326.171875,97.5 326.171875,221.953125 332.5,101.71875 475.9375,103.828125 475.9375,207.1875 511.796875,209.296875 511.796875,496.171875 288.203125,496.171875 288.203125,245.15625 330.390625,243.046875 283.984375,238.828125 283.984375,502.5 516.015625,502.5 516.015625,202.96875 480.15625,200.859375 480.15625,97.5" stroke="black" stroke-linecap="butt" stroke-linejoin="miter" stroke-width="4" /><g id="room_living_room"><polygon fill="rgb(238,232,170)" fill-opacity="0.7" points="290.3125,245.15625 290.3125,321.09375 364.140625,321.09375 366.25,375.9375 402.109375,375.9375 404.21875,321.09375 509.6875,321.09375 509.6875,209.296875 332.5,209.296875 330.390625,245.15625" stroke="black" stroke-width="1.5" /><text dominant-baseline="middle" fill="black" font-family="Arial" font-size="12px" font-weight="bold" text-anchor="middle" x="401.0546875" y="293.671875">Living Room</text></g><g id="room_common_room"><polygon fill="rgb(255,215,0)" fill-opacity="0.7" points="290.3125,384.375 290.3125,496.171875 402.109375,496.171875 402.109375,384.375" stroke="black" stroke-width="1.5" /><text dominant-baseline="middle" fill="black" font-family="Arial" font-size="12px" font-weight="bold" text-anchor="middle" x="347.265625" y="441.328125">Common Room</text></g><g id="room_common_room_2"><polygon fill="rgb(255,215,0)" fill-opacity="0.7" points="410.546875,329.53125 410.546875,447.65625 509.6875,447.65625 509.6875,329.53125" stroke="black" stroke-width="1.5" /><text dominant-baseline="middle" fill="black" font-family="Arial" font-size="12px" font-weight="bold" text-anchor="middle" x="461.171875" y="389.6484375">Common Room 2</text></g><g id="room_common_room_3"><polygon fill="rgb(255,215,0)" fill-opacity="0.7" points="391.5625,103.828125 391.5625,200.859375 473.828125,200.859375 473.828125,103.828125" stroke="black" stroke-width="1.5" /><text dominant-baseline="middle" fill="black" font-family="Arial" font-size="12px" font-weight="bold" text-anchor="middle" x="433.75" y="153.3984375">Common Room 3</text></g><g id="room_kitchen"><polygon fill="rgb(240,128,128)" fill-opacity="0.7" points="332.5,103.828125 332.5,200.859375 383.125,200.859375 383.125,103.828125" stroke="black" stroke-width="1.5" /><text dominant-baseline="middle" fill="black" font-family="Arial" font-size="12px" font-weight="bold" text-anchor="middle" x="358.8671875" y="153.3984375">Kitchen</text></g><g id="room_balcony"><polygon fill="rgb(107,142,35)" fill-opacity="0.7" points="410.546875,456.09375 410.546875,496.171875 509.6875,496.171875 509.6875,456.09375" stroke="black" stroke-width="1.5" /><text dominant-baseline="middle" fill="black" font-family="Arial" font-size="12px" font-weight="bold" text-anchor="middle" x="461.171875" y="477.1875">Balcony</text></g><g id="room_bathroom"><polygon fill="rgb(173,216,230)" fill-opacity="0.7" points="290.3125,329.53125 290.3125,375.9375 357.8125,375.9375 357.8125,329.53125" stroke="black" stroke-width="1.5" /><text dominant-baseline="middle" fill="black" font-family="Arial" font-size="12px" font-weight="bold" text-anchor="middle" x="325.1171875" y="353.7890625">Bathroom</text></g><text fill="black" font-family="Arial" font-size="18px" font-weight="bold" text-anchor="middle" x="400.0" y="30">Floor Plan - ID: 74602</text></svg>