<?xml version="1.0" encoding="utf-8" ?>
<svg baseProfile="full" height="600px" version="1.1" viewBox="0 0 800 600" width="800px" xmlns="http://www.w3.org/2000/svg" xmlns:ev="http://www.w3.org/2001/xml-events" xmlns:xlink="http://www.w3.org/1999/xlink"><defs /><rect fill="white" height="600" width="800" x="0" y="0" /><polygon fill="none" id="floor_plan_boundary" points="286.09375,139.6875 286.09375,270.46875 326.171875,272.578125 326.171875,363.28125 302.96875,365.390625 302.96875,460.3125 513.90625,460.3125 513.90625,139.6875 423.203125,139.6875 509.6875,146.015625 507.578125,456.09375 307.1875,453.984375 307.1875,371.71875 330.390625,369.609375 330.390625,266.25 290.3125,264.140625 290.3125,146.015625 397.890625,139.6875" stroke="black" stroke-linecap="butt" stroke-linejoin="miter" stroke-width="4" /><g id="room_living_room"><polygon fill="rgb(238,232,170)" fill-opacity="0.7" points="404.21875,146.015625 404.21875,363.28125 507.578125,363.28125 507.578125,146.015625" stroke="black" stroke-width="1.5" /><text dominant-baseline="middle" fill="black" font-family="Arial" font-size="12px" font-weight="bold" text-anchor="middle" x="456.953125" y="255.703125">Living Room</text></g><g id="room_common_room"><polygon fill="rgb(255,215,0)" fill-opacity="0.7" points="404.21875,371.71875 404.21875,453.984375 507.578125,453.984375 507.578125,371.71875" stroke="black" stroke-width="1.5" /><text dominant-baseline="middle" fill="black" font-family="Arial" font-size="12px" font-weight="bold" text-anchor="middle" x="456.953125" y="413.90625">Common Room</text></g><g id="room_kitchen"><polygon fill="rgb(240,128,128)" fill-opacity="0.7" points="395.78125,146.015625 292.421875,146.015625 292.421875,264.140625 343.046875,264.140625 343.046875,194.53125 395.78125,192.421875" stroke="black" stroke-width="1.5" /><text dominant-baseline="middle" fill="black" font-family="Arial" font-size="12px" font-weight="bold" text-anchor="middle" x="345.15625" y="206.1328125">Kitchen</text></g><g id="room_master_bedroom"><polygon fill="rgb(255,165,0)" fill-opacity="0.7" points="309.296875,371.71875 309.296875,453.984375 395.78125,453.984375 395.78125,371.71875" stroke="black" stroke-width="1.5" /><text dominant-baseline="middle" fill="black" font-family="Arial" font-size="12px" font-weight="bold" text-anchor="middle" x="353.59375" y="413.90625">Master Bedroom</text></g><g id="room_common_room_2"><polygon fill="rgb(255,215,0)" fill-opacity="0.7" points="332.5,272.578125 332.5,363.28125 395.78125,363.28125 395.78125,272.578125" stroke="black" stroke-width="1.5" /><text dominant-baseline="middle" fill="black" font-family="Arial" font-size="12px" font-weight="bold" text-anchor="middle" x="365.1953125" y="318.984375">Common Room 2</text></g><g id="room_bathroom"><polygon fill="rgb(173,216,230)" fill-opacity="0.7" points="351.484375,200.859375 351.484375,264.140625 395.78125,264.140625 395.78125,200.859375" stroke="black" stroke-width="1.5" /><text dominant-baseline="middle" fill="black" font-family="Arial" font-size="12px" font-weight="bold" text-anchor="middle" x="374.6875" y="233.5546875">Bathroom</text></g><text fill="black" font-family="Arial" font-size="18px" font-weight="bold" text-anchor="middle" x="400.0" y="30">Floor Plan - ID: 74946</text></svg>