<?xml version="1.0" encoding="utf-8" ?>
<svg baseProfile="full" height="600px" version="1.1" viewBox="0 0 800 600" width="800px" xmlns="http://www.w3.org/2000/svg" xmlns:ev="http://www.w3.org/2001/xml-events" xmlns:xlink="http://www.w3.org/1999/xlink"><defs /><rect fill="white" height="600" width="800" x="0" y="0" /><polygon fill="none" id="floor_plan_boundary" points="256.5625,154.453125 256.5625,445.546875 543.4375,445.546875 543.4375,285.234375 524.453125,283.125 524.453125,196.640625 452.734375,196.640625 450.625,154.453125 340.9375,158.671875 444.296875,158.671875 446.40625,200.859375 520.234375,202.96875 520.234375,289.453125 539.21875,291.5625 539.21875,439.21875 260.78125,439.21875 260.78125,160.78125 315.625,154.453125" stroke="black" stroke-linecap="butt" stroke-linejoin="miter" stroke-width="4" /><g id="room_living_room"><polygon fill="rgb(238,232,170)" fill-opacity="0.7" points="321.953125,160.78125 321.953125,240.9375 262.890625,243.046875 262.890625,394.921875 370.46875,394.921875 372.578125,369.609375 444.296875,369.609375 446.40625,350.625 465.390625,350.625 465.390625,291.5625 444.296875,289.453125 444.296875,160.78125" stroke="black" stroke-width="1.5" /><text dominant-baseline="middle" fill="black" font-family="Arial" font-size="12px" font-weight="bold" text-anchor="middle" x="365.1953125" y="278.90625">Living Room</text></g><g id="room_master_bedroom"><polygon fill="rgb(255,165,0)" fill-opacity="0.7" points="452.734375,359.0625 452.734375,439.21875 537.109375,439.21875 537.109375,359.0625" stroke="black" stroke-width="1.5" /><text dominant-baseline="middle" fill="black" font-family="Arial" font-size="12px" font-weight="bold" text-anchor="middle" x="495.9765625" y="400.1953125">Master Bedroom</text></g><g id="room_common_room_2"><polygon fill="rgb(255,215,0)" fill-opacity="0.7" points="452.734375,202.96875 452.734375,283.125 518.125,283.125 518.125,202.96875" stroke="black" stroke-width="1.5" /><text dominant-baseline="middle" fill="black" font-family="Arial" font-size="12px" font-weight="bold" text-anchor="middle" x="486.484375" y="244.1015625">Common Room 2</text></g><g id="room_common_room"><polygon fill="rgb(255,215,0)" fill-opacity="0.7" points="378.90625,378.046875 378.90625,439.21875 444.296875,439.21875 444.296875,378.046875" stroke="black" stroke-width="1.5" /><text dominant-baseline="middle" fill="black" font-family="Arial" font-size="12px" font-weight="bold" text-anchor="middle" x="412.65625" y="409.6875">Common Room</text></g><g id="room_balcony"><polygon fill="rgb(107,142,35)" fill-opacity="0.7" points="262.890625,403.359375 262.890625,439.21875 370.46875,439.21875 370.46875,403.359375" stroke="black" stroke-width="1.5" /><text dominant-baseline="middle" fill="black" font-family="Arial" font-size="12px" font-weight="bold" text-anchor="middle" x="317.734375" y="422.34375">Balcony</text></g><g id="room_bathroom"><polygon fill="rgb(173,216,230)" fill-opacity="0.7" points="473.828125,291.5625 473.828125,350.625 537.109375,350.625 537.109375,291.5625" stroke="black" stroke-width="1.5" /><text dominant-baseline="middle" fill="black" font-family="Arial" font-size="12px" font-weight="bold" text-anchor="middle" x="506.5234375" y="322.1484375">Bathroom</text></g><g id="room_kitchen"><polygon fill="rgb(240,128,128)" fill-opacity="0.7" points="262.890625,160.78125 262.890625,234.609375 313.515625,234.609375 313.515625,160.78125" stroke="black" stroke-width="1.5" /><text dominant-baseline="middle" fill="black" font-family="Arial" font-size="12px" font-weight="bold" text-anchor="middle" x="289.2578125" y="198.75">Kitchen</text></g><text fill="black" font-family="Arial" font-size="18px" font-weight="bold" text-anchor="middle" x="400.0" y="30">Floor Plan - ID: 75161</text></svg>