<?xml version="1.0" encoding="utf-8" ?>
<svg baseProfile="full" height="600px" version="1.1" viewBox="0 0 800 600" width="800px" xmlns="http://www.w3.org/2000/svg" xmlns:ev="http://www.w3.org/2001/xml-events" xmlns:xlink="http://www.w3.org/1999/xlink"><defs /><rect fill="white" height="600" width="800" x="0" y="0" /><polygon fill="none" id="floor_plan_boundary" points="233.359375,152.34375 233.359375,281.015625 241.796875,281.015625 243.90625,160.78125 404.21875,160.78125 406.328125,179.765625 497.03125,179.765625 499.140625,287.34375 558.203125,289.453125 556.09375,439.21875 448.515625,439.21875 446.40625,418.125 334.609375,418.125 332.5,397.03125 258.671875,397.03125 256.5625,323.203125 233.359375,318.984375 233.359375,331.640625 248.125,333.75 248.125,405.46875 321.953125,405.46875 324.0625,426.5625 435.859375,426.5625 437.96875,447.65625 566.640625,447.65625 566.640625,278.90625 507.578125,276.796875 507.578125,171.328125 416.875,171.328125 414.765625,152.34375" stroke="black" stroke-linecap="butt" stroke-linejoin="miter" stroke-width="4" /><g id="room_living_room"><polygon fill="rgb(238,232,170)" fill-opacity="0.7" points="243.90625,270.46875 243.90625,321.09375 334.609375,323.203125 334.609375,416.015625 435.859375,416.015625 435.859375,289.453125 406.328125,287.34375 406.328125,219.84375 319.84375,219.84375 317.734375,289.453125 273.4375,289.453125 273.4375,270.46875" stroke="black" stroke-width="1.5" /><text dominant-baseline="middle" fill="black" font-family="Arial" font-size="12px" font-weight="bold" text-anchor="middle" x="340.9375" y="318.984375">Living Room</text></g><g id="room_master_bedroom"><polygon fill="rgb(255,165,0)" fill-opacity="0.7" points="448.515625,289.453125 448.515625,394.921875 556.09375,394.921875 556.09375,289.453125" stroke="black" stroke-width="1.5" /><text dominant-baseline="middle" fill="black" font-family="Arial" font-size="12px" font-weight="bold" text-anchor="middle" x="503.359375" y="343.2421875">Master Bedroom</text></g><g id="room_common_room"><polygon fill="rgb(255,215,0)" fill-opacity="0.7" points="416.875,181.875 414.765625,276.796875 497.03125,276.796875 497.03125,181.875" stroke="black" stroke-width="1.5" /><text dominant-baseline="middle" fill="black" font-family="Arial" font-size="12px" font-weight="bold" text-anchor="middle" x="456.953125" y="230.390625">Common Room</text></g><g id="room_common_room_2"><polygon fill="rgb(255,215,0)" fill-opacity="0.7" points="243.90625,162.890625 243.90625,262.03125 279.765625,262.03125 281.875,276.796875 307.1875,276.796875 307.1875,162.890625" stroke="black" stroke-width="1.5" /><text dominant-baseline="middle" fill="black" font-family="Arial" font-size="12px" font-weight="bold" text-anchor="middle" x="276.6015625" y="220.8984375">Common Room 2</text></g><g id="room_kitchen"><polygon fill="rgb(240,128,128)" fill-opacity="0.7" points="319.84375,162.890625 319.84375,211.40625 404.21875,211.40625 404.21875,162.890625" stroke="black" stroke-width="1.5" /><text dominant-baseline="middle" fill="black" font-family="Arial" font-size="12px" font-weight="bold" text-anchor="middle" x="363.0859375" y="188.203125">Kitchen</text></g><g id="room_bathroom"><polygon fill="rgb(173,216,230)" fill-opacity="0.7" points="258.671875,333.75 258.671875,394.921875 321.953125,394.921875 321.953125,333.75" stroke="black" stroke-width="1.5" /><text dominant-baseline="middle" fill="black" font-family="Arial" font-size="12px" font-weight="bold" text-anchor="middle" x="291.3671875" y="365.390625">Bathroom</text></g><g id="room_balcony"><polygon fill="rgb(107,142,35)" fill-opacity="0.7" points="448.515625,407.578125 448.515625,437.109375 556.09375,437.109375 556.09375,407.578125" stroke="black" stroke-width="1.5" /><text dominant-baseline="middle" fill="black" font-family="Arial" font-size="12px" font-weight="bold" text-anchor="middle" x="503.359375" y="423.3984375">Balcony</text></g><rect fill="red" fill-opacity="0.9" height="35.859375" id="main_door" stroke="darkred" stroke-width="3" width="10.546875" x="233.359375" y="283.125" /><text dominant-baseline="middle" fill="white" font-family="Arial" font-size="9px" font-weight="bold" text-anchor="middle" x="238.6328125" y="301.0546875">Main Door</text><text fill="black" font-family="Arial" font-size="18px" font-weight="bold" text-anchor="middle" x="400.0" y="30">Floor Plan - ID: 75639</text></svg>