<?xml version="1.0" encoding="utf-8" ?>
<svg baseProfile="full" height="600px" version="1.1" viewBox="0 0 800 600" width="800px" xmlns="http://www.w3.org/2000/svg" xmlns:ev="http://www.w3.org/2001/xml-events" xmlns:xlink="http://www.w3.org/1999/xlink"><defs /><rect fill="white" height="600" width="800" x="0" y="0" /><polygon fill="none" id="floor_plan_boundary" points="494.921875,53.203125 378.90625,53.203125 368.359375,217.734375 248.125,217.734375 248.125,411.796875 309.296875,413.90625 311.40625,546.796875 431.640625,546.796875 433.75,494.0625 528.671875,494.0625 530.78125,483.515625 551.875,483.515625 551.875,120.703125 543.4375,120.703125 541.328125,475.078125 520.234375,475.078125 518.125,485.625 423.203125,485.625 421.09375,538.359375 319.84375,538.359375 319.84375,403.359375 256.5625,401.25 256.5625,228.28125 378.90625,226.171875 387.34375,63.75 484.375,61.640625 486.484375,129.140625 497.03125,129.140625" stroke="black" stroke-linecap="butt" stroke-linejoin="miter" stroke-width="4" /><g id="room_living_room"><polygon fill="rgb(238,232,170)" fill-opacity="0.7" points="446.40625,131.25 440.078125,276.796875 381.015625,278.90625 389.453125,401.25 431.640625,401.25 433.75,424.453125 541.328125,424.453125 541.328125,131.25" stroke="black" stroke-width="1.5" /><text dominant-baseline="middle" fill="black" font-family="Arial" font-size="12px" font-weight="bold" text-anchor="middle" x="462.2265625" y="278.90625">Living Room</text></g><g id="room_master_bedroom"><polygon fill="rgb(255,165,0)" fill-opacity="0.7" points="319.84375,413.90625 319.84375,536.25 421.09375,536.25 421.09375,413.90625" stroke="black" stroke-width="1.5" /><text dominant-baseline="middle" fill="black" font-family="Arial" font-size="12px" font-weight="bold" text-anchor="middle" x="371.5234375" y="476.1328125">Master Bedroom</text></g><g id="room_common_room"><polygon fill="rgb(255,215,0)" fill-opacity="0.7" points="258.671875,318.984375 258.671875,401.25 376.796875,401.25 376.796875,318.984375" stroke="black" stroke-width="1.5" /><text dominant-baseline="middle" fill="black" font-family="Arial" font-size="12px" font-weight="bold" text-anchor="middle" x="318.7890625" y="361.171875">Common Room</text></g><g id="room_common_room_2"><polygon fill="rgb(255,215,0)" fill-opacity="0.7" points="258.671875,228.28125 258.671875,306.328125 368.359375,306.328125 368.359375,228.28125" stroke="black" stroke-width="1.5" /><text dominant-baseline="middle" fill="black" font-family="Arial" font-size="12px" font-weight="bold" text-anchor="middle" x="314.5703125" y="268.359375">Common Room 2</text></g><g id="room_kitchen"><polygon fill="rgb(240,128,128)" fill-opacity="0.7" points="389.453125,63.75 389.453125,118.59375 484.375,118.59375 484.375,63.75" stroke="black" stroke-width="1.5" /><text dominant-baseline="middle" fill="black" font-family="Arial" font-size="12px" font-weight="bold" text-anchor="middle" x="437.96875" y="92.2265625">Kitchen</text></g><g id="room_balcony"><polygon fill="rgb(107,142,35)" fill-opacity="0.7" points="433.75,437.109375 433.75,483.515625 518.125,483.515625 520.234375,472.96875 541.328125,472.96875 541.328125,437.109375" stroke="black" stroke-width="1.5" /><text dominant-baseline="middle" fill="black" font-family="Arial" font-size="12px" font-weight="bold" text-anchor="middle" x="488.59375" y="461.3671875">Balcony</text></g><g id="room_bathroom"><polygon fill="rgb(173,216,230)" fill-opacity="0.7" points="381.015625,196.640625 381.015625,266.25 427.421875,266.25 427.421875,196.640625" stroke="black" stroke-width="1.5" /><text dominant-baseline="middle" fill="black" font-family="Arial" font-size="12px" font-weight="bold" text-anchor="middle" x="405.2734375" y="232.5">Bathroom</text></g><g id="room_balcony_2"><polygon fill="rgb(107,142,35)" fill-opacity="0.7" points="381.015625,131.25 381.015625,183.984375 433.75,183.984375 433.75,131.25" stroke="black" stroke-width="1.5" /><text dominant-baseline="middle" fill="black" font-family="Arial" font-size="12px" font-weight="bold" text-anchor="middle" x="408.4375" y="158.671875">Balcony 2</text></g><rect fill="red" fill-opacity="0.9" height="10.546875" id="main_door" stroke="darkred" stroke-width="3" width="44.296875" x="499.140625" y="120.703125" /><text dominant-baseline="middle" fill="white" font-family="Arial" font-size="9px" font-weight="bold" text-anchor="middle" x="521.2890625" y="125.9765625">Main Door</text><text fill="black" font-family="Arial" font-size="18px" font-weight="bold" text-anchor="middle" x="400.0" y="30">Floor Plan - ID: 7568</text></svg>