<?xml version="1.0" encoding="utf-8" ?>
<svg baseProfile="full" height="600px" version="1.1" viewBox="0 0 800 600" width="800px" xmlns="http://www.w3.org/2000/svg" xmlns:ev="http://www.w3.org/2001/xml-events" xmlns:xlink="http://www.w3.org/1999/xlink"><defs /><rect fill="white" height="600" width="800" x="0" y="0" /><polygon fill="none" id="floor_plan_boundary" points="387.34375,97.5 385.234375,139.6875 313.515625,139.6875 313.515625,262.03125 269.21875,264.140625 269.21875,346.40625 273.4375,270.46875 317.734375,268.359375 317.734375,146.015625 391.5625,143.90625 393.671875,101.71875 488.59375,101.71875 490.703125,268.359375 526.5625,270.46875 526.5625,460.3125 473.828125,462.421875 471.71875,498.28125 376.796875,498.28125 374.6875,371.71875 269.21875,375.9375 370.46875,378.046875 370.46875,502.5 478.046875,502.5 480.15625,466.640625 530.78125,466.640625 530.78125,264.140625 494.921875,262.03125 494.921875,97.5" stroke="black" stroke-linecap="butt" stroke-linejoin="miter" stroke-width="4" /><g id="room_living_room"><polygon fill="rgb(238,232,170)" fill-opacity="0.7" points="275.546875,350.625 275.546875,369.609375 494.921875,369.609375 497.03125,388.59375 524.453125,388.59375 524.453125,270.46875 353.59375,270.46875 353.59375,348.515625" stroke="black" stroke-width="1.5" /><text dominant-baseline="middle" fill="black" font-family="Arial" font-size="12px" font-weight="bold" text-anchor="middle" x="401.0546875" y="330.5859375">Living Room</text></g><g id="room_master_bedroom"><polygon fill="rgb(255,165,0)" fill-opacity="0.7" points="376.796875,378.046875 376.796875,460.3125 524.453125,460.3125 524.453125,397.03125 490.703125,397.03125 488.59375,378.046875" stroke="black" stroke-width="1.5" /><text dominant-baseline="middle" fill="black" font-family="Arial" font-size="12px" font-weight="bold" text-anchor="middle" x="451.6796875" y="420.234375">Master Bedroom</text></g><g id="room_common_room"><polygon fill="rgb(255,215,0)" fill-opacity="0.7" points="393.671875,146.015625 393.671875,262.03125 488.59375,262.03125 488.59375,146.015625" stroke="black" stroke-width="1.5" /><text dominant-baseline="middle" fill="black" font-family="Arial" font-size="12px" font-weight="bold" text-anchor="middle" x="442.1875" y="205.078125">Common Room</text></g><g id="room_kitchen"><polygon fill="rgb(240,128,128)" fill-opacity="0.7" points="319.84375,146.015625 319.84375,262.03125 385.234375,262.03125 385.234375,146.015625" stroke="black" stroke-width="1.5" /><text dominant-baseline="middle" fill="black" font-family="Arial" font-size="12px" font-weight="bold" text-anchor="middle" x="353.59375" y="205.078125">Kitchen</text></g><g id="room_bathroom"><polygon fill="rgb(173,216,230)" fill-opacity="0.7" points="275.546875,270.46875 275.546875,342.1875 345.15625,342.1875 345.15625,270.46875" stroke="black" stroke-width="1.5" /><text dominant-baseline="middle" fill="black" font-family="Arial" font-size="12px" font-weight="bold" text-anchor="middle" x="311.40625" y="307.3828125">Bathroom</text></g><g id="room_balcony_2"><polygon fill="rgb(107,142,35)" fill-opacity="0.7" points="393.671875,103.828125 393.671875,137.578125 488.59375,137.578125 488.59375,103.828125" stroke="black" stroke-width="1.5" /><text dominant-baseline="middle" fill="black" font-family="Arial" font-size="12px" font-weight="bold" text-anchor="middle" x="442.1875" y="121.7578125">Balcony 2</text></g><g id="room_balcony"><polygon fill="rgb(107,142,35)" fill-opacity="0.7" points="376.796875,468.75 376.796875,496.171875 471.71875,496.171875 471.71875,468.75" stroke="black" stroke-width="1.5" /><text dominant-baseline="middle" fill="black" font-family="Arial" font-size="12px" font-weight="bold" text-anchor="middle" x="425.3125" y="483.515625">Balcony</text></g><rect fill="red" fill-opacity="0.9" height="27.421875" id="main_door" stroke="darkred" stroke-width="3" width="6.328125" x="269.21875" y="348.515625" /><text dominant-baseline="middle" fill="white" font-family="Arial" font-size="9px" font-weight="bold" text-anchor="middle" x="272.3828125" y="362.2265625">Main Door</text><text fill="black" font-family="Arial" font-size="18px" font-weight="bold" text-anchor="middle" x="400.0" y="30">Floor Plan - ID: 75885</text></svg>