<?xml version="1.0" encoding="utf-8" ?>
<svg baseProfile="full" height="600px" version="1.1" viewBox="0 0 800 600" width="800px" xmlns="http://www.w3.org/2000/svg" xmlns:ev="http://www.w3.org/2001/xml-events" xmlns:xlink="http://www.w3.org/1999/xlink"><defs /><rect fill="white" height="600" width="800" x="0" y="0" /><polygon fill="none" id="floor_plan_boundary" points="260.78125,135.46875 260.78125,281.015625 267.109375,139.6875 490.703125,139.6875 492.8125,245.15625 535.0,247.265625 535.0,420.234375 418.984375,422.34375 416.875,460.3125 290.3125,460.3125 288.203125,302.109375 260.78125,306.328125 283.984375,308.4375 283.984375,464.53125 423.203125,464.53125 425.3125,426.5625 539.21875,426.5625 539.21875,240.9375 497.03125,238.828125 497.03125,135.46875" stroke="black" stroke-linecap="butt" stroke-linejoin="miter" stroke-width="4" /><g id="room_living_room"><polygon fill="rgb(238,232,170)" fill-opacity="0.7" points="267.109375,211.40625 267.109375,300.0 290.3125,302.109375 290.3125,420.234375 416.875,420.234375 416.875,302.109375 446.40625,300.0 446.40625,247.265625 381.015625,247.265625 378.90625,211.40625" stroke="black" stroke-width="1.5" /><text dominant-baseline="middle" fill="black" font-family="Arial" font-size="12px" font-weight="bold" text-anchor="middle" x="357.8125" y="316.875">Living Room</text></g><g id="room_master_bedroom"><polygon fill="rgb(255,165,0)" fill-opacity="0.7" points="425.3125,308.4375 425.3125,420.234375 532.890625,420.234375 532.890625,308.4375" stroke="black" stroke-width="1.5" /><text dominant-baseline="middle" fill="black" font-family="Arial" font-size="12px" font-weight="bold" text-anchor="middle" x="480.15625" y="365.390625">Master Bedroom</text></g><g id="room_common_room"><polygon fill="rgb(255,215,0)" fill-opacity="0.7" points="387.34375,141.796875 387.34375,238.828125 490.703125,238.828125 490.703125,141.796875" stroke="black" stroke-width="1.5" /><text dominant-baseline="middle" fill="black" font-family="Arial" font-size="12px" font-weight="bold" text-anchor="middle" x="440.078125" y="191.3671875">Common Room</text></g><g id="room_kitchen"><polygon fill="rgb(240,128,128)" fill-opacity="0.7" points="267.109375,141.796875 267.109375,202.96875 378.90625,202.96875 378.90625,141.796875" stroke="black" stroke-width="1.5" /><text dominant-baseline="middle" fill="black" font-family="Arial" font-size="12px" font-weight="bold" text-anchor="middle" x="324.0625" y="173.4375">Kitchen</text></g><g id="room_bathroom"><polygon fill="rgb(173,216,230)" fill-opacity="0.7" points="454.84375,247.265625 454.84375,300.0 532.890625,300.0 532.890625,247.265625" stroke="black" stroke-width="1.5" /><text dominant-baseline="middle" fill="black" font-family="Arial" font-size="12px" font-weight="bold" text-anchor="middle" x="494.921875" y="274.6875">Bathroom</text></g><g id="room_balcony"><polygon fill="rgb(107,142,35)" fill-opacity="0.7" points="290.3125,428.671875 290.3125,458.203125 416.875,458.203125 416.875,428.671875" stroke="black" stroke-width="1.5" /><text dominant-baseline="middle" fill="black" font-family="Arial" font-size="12px" font-weight="bold" text-anchor="middle" x="354.6484375" y="444.4921875">Balcony</text></g><text fill="black" font-family="Arial" font-size="18px" font-weight="bold" text-anchor="middle" x="400.0" y="30">Floor Plan - ID: 76395</text></svg>