<?xml version="1.0" encoding="utf-8" ?>
<svg baseProfile="full" height="600px" version="1.1" viewBox="0 0 800 600" width="800px" xmlns="http://www.w3.org/2000/svg" xmlns:ev="http://www.w3.org/2001/xml-events" xmlns:xlink="http://www.w3.org/1999/xlink"><defs /><rect fill="white" height="600" width="800" x="0" y="0" /><polygon fill="none" id="floor_plan_boundary" points="321.953125,91.171875 321.953125,141.796875 330.390625,141.796875 332.5,99.609375 397.890625,101.71875 397.890625,217.734375 516.015625,219.84375 516.015625,447.65625 397.890625,449.765625 395.78125,500.390625 307.1875,500.390625 305.078125,479.296875 283.984375,477.1875 283.984375,143.90625 275.546875,133.359375 275.546875,487.734375 294.53125,487.734375 296.640625,508.828125 406.328125,508.828125 408.4375,458.203125 524.453125,458.203125 524.453125,209.296875 408.4375,209.296875 406.328125,91.171875" stroke="black" stroke-linecap="butt" stroke-linejoin="miter" stroke-width="4" /><g id="room_living_room"><polygon fill="rgb(238,232,170)" fill-opacity="0.7" points="286.09375,143.90625 286.09375,447.65625 395.78125,447.65625 395.78125,342.1875 435.859375,340.078125 435.859375,310.546875 395.78125,308.4375 395.78125,268.359375 319.84375,266.25 319.84375,143.90625" stroke="black" stroke-width="1.5" /><text dominant-baseline="middle" fill="black" font-family="Arial" font-size="12px" font-weight="bold" text-anchor="middle" x="362.03125" y="296.8359375">Living Room</text></g><g id="room_master_bedroom"><polygon fill="rgb(255,165,0)" fill-opacity="0.7" points="408.4375,352.734375 408.4375,447.65625 513.90625,447.65625 513.90625,331.640625 448.515625,331.640625 446.40625,352.734375" stroke="black" stroke-width="1.5" /><text dominant-baseline="middle" fill="black" font-family="Arial" font-size="12px" font-weight="bold" text-anchor="middle" x="462.2265625" y="390.703125">Master Bedroom</text></g><g id="room_common_room"><polygon fill="rgb(255,215,0)" fill-opacity="0.7" points="408.4375,219.84375 408.4375,297.890625 446.40625,297.890625 448.515625,318.984375 513.90625,318.984375 513.90625,219.84375" stroke="black" stroke-width="1.5" /><text dominant-baseline="middle" fill="black" font-family="Arial" font-size="12px" font-weight="bold" text-anchor="middle" x="462.2265625" y="270.46875">Common Room</text></g><g id="room_kitchen"><polygon fill="rgb(240,128,128)" fill-opacity="0.7" points="332.5,101.71875 332.5,179.765625 395.78125,179.765625 395.78125,101.71875" stroke="black" stroke-width="1.5" /><text dominant-baseline="middle" fill="black" font-family="Arial" font-size="12px" font-weight="bold" text-anchor="middle" x="365.1953125" y="141.796875">Kitchen</text></g><g id="room_bathroom"><polygon fill="rgb(173,216,230)" fill-opacity="0.7" points="332.5,192.421875 332.5,255.703125 395.78125,255.703125 395.78125,192.421875" stroke="black" stroke-width="1.5" /><text dominant-baseline="middle" fill="black" font-family="Arial" font-size="12px" font-weight="bold" text-anchor="middle" x="365.1953125" y="225.1171875">Bathroom</text></g><g id="room_balcony"><polygon fill="rgb(107,142,35)" fill-opacity="0.7" points="286.09375,460.3125 286.09375,477.1875 307.1875,479.296875 307.1875,498.28125 395.78125,498.28125 395.78125,460.3125" stroke="black" stroke-width="1.5" /><text dominant-baseline="middle" fill="black" font-family="Arial" font-size="12px" font-weight="bold" text-anchor="middle" x="341.9921875" y="480.3515625">Balcony</text></g><rect fill="red" fill-opacity="0.9" height="10.546875" id="main_door" stroke="darkred" stroke-width="3" width="40.078125" x="281.875" y="133.359375" /><text dominant-baseline="middle" fill="white" font-family="Arial" font-size="9px" font-weight="bold" text-anchor="middle" x="301.9140625" y="138.6328125">Main Door</text><text fill="black" font-family="Arial" font-size="18px" font-weight="bold" text-anchor="middle" x="400.0" y="30">Floor Plan - ID: 7639</text></svg>