<?xml version="1.0" encoding="utf-8" ?>
<svg baseProfile="full" height="600px" version="1.1" viewBox="0 0 800 600" width="800px" xmlns="http://www.w3.org/2000/svg" xmlns:ev="http://www.w3.org/2001/xml-events" xmlns:xlink="http://www.w3.org/1999/xlink"><defs /><rect fill="white" height="600" width="800" x="0" y="0" /><polygon fill="none" id="floor_plan_boundary" points="528.671875,63.75 435.859375,63.75 433.75,108.046875 315.625,108.046875 315.625,217.734375 271.328125,219.84375 271.328125,352.734375 324.0625,354.84375 324.0625,536.25 444.296875,536.25 444.296875,405.46875 528.671875,403.359375 528.671875,346.40625 520.234375,346.40625 518.125,394.921875 435.859375,394.921875 435.859375,525.703125 332.5,525.703125 332.5,344.296875 279.765625,342.1875 279.765625,230.390625 324.0625,228.28125 324.0625,118.59375 444.296875,116.484375 446.40625,72.1875 518.125,72.1875 520.234375,295.78125 528.671875,295.78125" stroke="black" stroke-linecap="butt" stroke-linejoin="miter" stroke-width="4" /><g id="room_living_room"><polygon fill="rgb(238,232,170)" fill-opacity="0.7" points="281.875,230.390625 281.875,342.1875 518.125,342.1875 518.125,230.390625" stroke="black" stroke-width="1.5" /><text dominant-baseline="middle" fill="black" font-family="Arial" font-size="12px" font-weight="bold" text-anchor="middle" x="401.0546875" y="287.34375">Living Room</text></g><g id="room_master_bedroom"><polygon fill="rgb(255,165,0)" fill-opacity="0.7" points="433.75,354.84375 408.4375,354.84375 406.328125,394.921875 334.609375,394.921875 334.609375,525.703125 433.75,525.703125" stroke="black" stroke-width="1.5" /><text dominant-baseline="middle" fill="black" font-family="Arial" font-size="12px" font-weight="bold" text-anchor="middle" x="385.234375" y="441.328125">Master Bedroom</text></g><g id="room_common_room"><polygon fill="rgb(255,215,0)" fill-opacity="0.7" points="326.171875,118.59375 326.171875,217.734375 433.75,217.734375 433.75,118.59375" stroke="black" stroke-width="1.5" /><text dominant-baseline="middle" fill="black" font-family="Arial" font-size="12px" font-weight="bold" text-anchor="middle" x="381.015625" y="169.21875">Common Room</text></g><g id="room_kitchen"><polygon fill="rgb(240,128,128)" fill-opacity="0.7" points="446.40625,118.59375 446.40625,217.734375 518.125,217.734375 518.125,118.59375" stroke="black" stroke-width="1.5" /><text dominant-baseline="middle" fill="black" font-family="Arial" font-size="12px" font-weight="bold" text-anchor="middle" x="483.3203125" y="169.21875">Kitchen</text></g><g id="room_bathroom"><polygon fill="rgb(173,216,230)" fill-opacity="0.7" points="446.40625,354.84375 446.40625,392.8125 518.125,392.8125 518.125,354.84375" stroke="black" stroke-width="1.5" /><text dominant-baseline="middle" fill="black" font-family="Arial" font-size="12px" font-weight="bold" text-anchor="middle" x="483.3203125" y="374.8828125">Bathroom</text></g><g id="room_balcony"><polygon fill="rgb(107,142,35)" fill-opacity="0.7" points="446.40625,74.296875 446.40625,105.9375 518.125,105.9375 518.125,74.296875" stroke="black" stroke-width="1.5" /><text dominant-baseline="middle" fill="black" font-family="Arial" font-size="12px" font-weight="bold" text-anchor="middle" x="483.3203125" y="91.171875">Balcony</text></g><rect fill="red" fill-opacity="0.9" height="48.515625" id="main_door" stroke="darkred" stroke-width="3" width="10.546875" x="520.234375" y="297.890625" /><text dominant-baseline="middle" fill="white" font-family="Arial" font-size="9px" font-weight="bold" text-anchor="middle" x="525.5078125" y="322.1484375">Main Door</text><text fill="black" font-family="Arial" font-size="18px" font-weight="bold" text-anchor="middle" x="400.0" y="30">Floor Plan - ID: 7645</text></svg>