<?xml version="1.0" encoding="utf-8" ?>
<svg baseProfile="full" height="600px" version="1.1" viewBox="0 0 800 600" width="800px" xmlns="http://www.w3.org/2000/svg" xmlns:ev="http://www.w3.org/2001/xml-events" xmlns:xlink="http://www.w3.org/1999/xlink"><defs /><rect fill="white" height="600" width="800" x="0" y="0" /><polygon fill="none" id="floor_plan_boundary" points="290.3125,101.71875 290.3125,234.609375 258.671875,236.71875 294.53125,240.9375 296.640625,105.9375 429.53125,105.9375 431.640625,135.46875 535.0,135.46875 537.109375,323.203125 513.90625,325.3125 511.796875,458.203125 400.0,458.203125 397.890625,494.0625 265.0,494.0625 258.671875,266.25 258.671875,498.28125 404.21875,498.28125 406.328125,462.421875 518.125,462.421875 518.125,331.640625 541.328125,329.53125 541.328125,131.25 437.96875,131.25 435.859375,101.71875" stroke="black" stroke-linecap="butt" stroke-linejoin="miter" stroke-width="4" /><g id="room_living_room"><polygon fill="rgb(238,232,170)" fill-opacity="0.7" points="296.640625,190.3125 296.640625,240.9375 265.0,243.046875 265.0,456.09375 397.890625,456.09375 397.890625,325.3125 454.84375,323.203125 454.84375,243.046875 429.53125,240.9375 429.53125,190.3125" stroke="black" stroke-width="1.5" /><text dominant-baseline="middle" fill="black" font-family="Arial" font-size="12px" font-weight="bold" text-anchor="middle" x="360.9765625" y="324.2578125">Living Room</text></g><g id="room_common_room_2"><polygon fill="rgb(255,215,0)" fill-opacity="0.7" points="437.96875,137.578125 437.96875,234.609375 535.0,234.609375 535.0,137.578125" stroke="black" stroke-width="1.5" /><text dominant-baseline="middle" fill="black" font-family="Arial" font-size="12px" font-weight="bold" text-anchor="middle" x="487.5390625" y="187.1484375">Common Room 2</text></g><g id="room_master_bedroom"><polygon fill="rgb(255,165,0)" fill-opacity="0.7" points="406.328125,331.640625 406.328125,456.09375 511.796875,456.09375 511.796875,378.046875 431.640625,378.046875 429.53125,331.640625" stroke="black" stroke-width="1.5" /><text dominant-baseline="middle" fill="black" font-family="Arial" font-size="12px" font-weight="bold" text-anchor="middle" x="460.1171875" y="394.921875">Master Bedroom</text></g><g id="room_common_room"><polygon fill="rgb(255,215,0)" fill-opacity="0.7" points="463.28125,243.046875 463.28125,323.203125 535.0,323.203125 535.0,243.046875" stroke="black" stroke-width="1.5" /><text dominant-baseline="middle" fill="black" font-family="Arial" font-size="12px" font-weight="bold" text-anchor="middle" x="500.1953125" y="284.1796875">Common Room</text></g><g id="room_kitchen"><polygon fill="rgb(240,128,128)" fill-opacity="0.7" points="296.640625,108.046875 296.640625,181.875 368.359375,181.875 368.359375,108.046875" stroke="black" stroke-width="1.5" /><text dominant-baseline="middle" fill="black" font-family="Arial" font-size="12px" font-weight="bold" text-anchor="middle" x="333.5546875" y="146.015625">Kitchen</text></g><g id="room_bathroom_2"><polygon fill="rgb(173,216,230)" fill-opacity="0.7" points="376.796875,108.046875 376.796875,181.875 429.53125,181.875 429.53125,108.046875" stroke="black" stroke-width="1.5" /><text dominant-baseline="middle" fill="black" font-family="Arial" font-size="12px" font-weight="bold" text-anchor="middle" x="404.21875" y="146.015625">Bathroom 2</text></g><g id="room_balcony"><polygon fill="rgb(107,142,35)" fill-opacity="0.7" points="265.0,464.53125 265.0,491.953125 397.890625,491.953125 397.890625,464.53125" stroke="black" stroke-width="1.5" /><text dominant-baseline="middle" fill="black" font-family="Arial" font-size="12px" font-weight="bold" text-anchor="middle" x="332.5" y="479.296875">Balcony</text></g><g id="room_bathroom"><polygon fill="rgb(173,216,230)" fill-opacity="0.7" points="437.96875,331.640625 437.96875,369.609375 511.796875,369.609375 511.796875,331.640625" stroke="black" stroke-width="1.5" /><text dominant-baseline="middle" fill="black" font-family="Arial" font-size="12px" font-weight="bold" text-anchor="middle" x="475.9375" y="351.6796875">Bathroom</text></g><rect fill="red" fill-opacity="0.9" height="27.421875" id="main_door" stroke="darkred" stroke-width="3" width="6.328125" x="258.671875" y="238.828125" /><text dominant-baseline="middle" fill="white" font-family="Arial" font-size="9px" font-weight="bold" text-anchor="middle" x="261.8359375" y="252.5390625">Main Door</text><text fill="black" font-family="Arial" font-size="18px" font-weight="bold" text-anchor="middle" x="400.0" y="30">Floor Plan - ID: 76603</text></svg>