<?xml version="1.0" encoding="utf-8" ?>
<svg baseProfile="full" height="600px" version="1.1" viewBox="0 0 800 600" width="800px" xmlns="http://www.w3.org/2000/svg" xmlns:ev="http://www.w3.org/2001/xml-events" xmlns:xlink="http://www.w3.org/1999/xlink"><defs /><rect fill="white" height="600" width="800" x="0" y="0" /><polygon fill="none" id="floor_plan_boundary" points="189.0625,146.015625 189.0625,255.703125 260.78125,257.8125 260.78125,247.265625 197.5,245.15625 199.609375,154.453125 566.640625,154.453125 568.75,247.265625 602.5,249.375 600.390625,397.03125 478.046875,397.03125 475.9375,445.546875 343.046875,445.546875 340.9375,350.625 300.859375,348.515625 300.859375,295.78125 252.34375,295.78125 252.34375,304.21875 290.3125,304.21875 292.421875,359.0625 332.5,361.171875 332.5,453.984375 486.484375,453.984375 488.59375,405.46875 610.9375,405.46875 610.9375,238.828125 577.1875,236.71875 577.1875,146.015625" stroke="black" stroke-linecap="butt" stroke-linejoin="miter" stroke-width="4" /><g id="room_living_room"><polygon fill="rgb(238,232,170)" fill-opacity="0.7" points="277.65625,194.53125 262.890625,293.671875 302.96875,295.78125 302.96875,348.515625 343.046875,350.625 343.046875,394.921875 475.9375,394.921875 475.9375,297.890625 520.234375,295.78125 520.234375,255.703125 368.359375,255.703125 366.25,194.53125" stroke="black" stroke-width="1.5" /><text dominant-baseline="middle" fill="black" font-family="Arial" font-size="12px" font-weight="bold" text-anchor="middle" x="392.6171875" y="295.78125">Living Room</text></g><g id="room_master_bedroom"><polygon fill="rgb(255,165,0)" fill-opacity="0.7" points="488.59375,304.21875 488.59375,394.921875 600.390625,394.921875 600.390625,304.21875" stroke="black" stroke-width="1.5" /><text dominant-baseline="middle" fill="black" font-family="Arial" font-size="12px" font-weight="bold" text-anchor="middle" x="545.546875" y="350.625">Master Bedroom</text></g><g id="room_common_room_2"><polygon fill="rgb(255,215,0)" fill-opacity="0.7" points="378.90625,156.5625 378.90625,247.265625 469.609375,247.265625 469.609375,156.5625" stroke="black" stroke-width="1.5" /><text dominant-baseline="middle" fill="black" font-family="Arial" font-size="12px" font-weight="bold" text-anchor="middle" x="425.3125" y="202.96875">Common Room 2</text></g><g id="room_common_room"><polygon fill="rgb(255,215,0)" fill-opacity="0.7" points="478.046875,156.5625 478.046875,247.265625 520.234375,247.265625 522.34375,238.828125 566.640625,238.828125 566.640625,156.5625" stroke="black" stroke-width="1.5" /><text dominant-baseline="middle" fill="black" font-family="Arial" font-size="12px" font-weight="bold" text-anchor="middle" x="523.3984375" y="202.96875">Common Room</text></g><g id="room_kitchen"><polygon fill="rgb(240,128,128)" fill-opacity="0.7" points="199.609375,156.5625 199.609375,245.15625 265.0,245.15625 265.0,156.5625" stroke="black" stroke-width="1.5" /><text dominant-baseline="middle" fill="black" font-family="Arial" font-size="12px" font-weight="bold" text-anchor="middle" x="233.359375" y="201.9140625">Kitchen</text></g><g id="room_balcony"><polygon fill="rgb(107,142,35)" fill-opacity="0.7" points="343.046875,407.578125 343.046875,443.4375 475.9375,443.4375 475.9375,407.578125" stroke="black" stroke-width="1.5" /><text dominant-baseline="middle" fill="black" font-family="Arial" font-size="12px" font-weight="bold" text-anchor="middle" x="410.546875" y="426.5625">Balcony</text></g><g id="room_bathroom"><polygon fill="rgb(173,216,230)" fill-opacity="0.7" points="528.671875,247.265625 528.671875,295.78125 600.390625,295.78125 600.390625,249.375" stroke="black" stroke-width="1.5" /><text dominant-baseline="middle" fill="black" font-family="Arial" font-size="12px" font-weight="bold" text-anchor="middle" x="565.5859375" y="272.578125">Bathroom</text></g><g id="room_balcony_2"><polygon fill="rgb(107,142,35)" fill-opacity="0.7" points="277.65625,156.5625 277.65625,181.875 366.25,181.875 366.25,156.5625" stroke="black" stroke-width="1.5" /><text dominant-baseline="middle" fill="black" font-family="Arial" font-size="12px" font-weight="bold" text-anchor="middle" x="323.0078125" y="170.2734375">Balcony 2</text></g><rect fill="red" fill-opacity="0.9" height="35.859375" id="main_door" stroke="darkred" stroke-width="3" width="10.546875" x="252.34375" y="259.921875" /><text dominant-baseline="middle" fill="white" font-family="Arial" font-size="9px" font-weight="bold" text-anchor="middle" x="257.6171875" y="277.8515625">Main Door</text><text fill="black" font-family="Arial" font-size="18px" font-weight="bold" text-anchor="middle" x="400.0" y="30">Floor Plan - ID: 7691</text></svg>