<?xml version="1.0" encoding="utf-8" ?>
<svg baseProfile="full" height="600px" version="1.1" viewBox="0 0 800 600" width="800px" xmlns="http://www.w3.org/2000/svg" xmlns:ev="http://www.w3.org/2001/xml-events" xmlns:xlink="http://www.w3.org/1999/xlink"><defs /><rect fill="white" height="600" width="800" x="0" y="0" /><polygon fill="none" id="floor_plan_boundary" points="608.828125,141.796875 404.21875,141.796875 402.109375,200.859375 283.984375,200.859375 281.875,276.796875 191.171875,276.796875 191.171875,416.015625 281.875,416.015625 283.984375,458.203125 387.34375,458.203125 387.34375,310.546875 507.578125,306.328125 383.125,304.21875 383.125,451.875 290.3125,453.984375 288.203125,411.796875 195.390625,409.6875 195.390625,283.125 288.203125,281.015625 290.3125,205.078125 408.4375,205.078125 410.546875,146.015625 602.5,146.015625 604.609375,230.390625 503.359375,232.5 507.578125,285.234375 509.6875,236.71875 608.828125,236.71875" stroke="black" stroke-linecap="butt" stroke-linejoin="miter" stroke-width="4" /><g id="room_living_room"><polygon fill="rgb(238,232,170)" fill-opacity="0.7" points="549.765625,148.125 473.828125,148.125 471.71875,207.1875 290.3125,207.1875 290.3125,302.109375 501.25,302.109375 501.25,232.5 549.765625,230.390625" stroke="black" stroke-width="1.5" /><text dominant-baseline="middle" fill="black" font-family="Arial" font-size="12px" font-weight="bold" text-anchor="middle" x="421.09375" y="226.171875">Living Room</text></g><g id="room_common_room"><polygon fill="rgb(255,215,0)" fill-opacity="0.7" points="197.5,283.125 197.5,409.6875 281.875,409.6875 281.875,283.125" stroke="black" stroke-width="1.5" /><text dominant-baseline="middle" fill="black" font-family="Arial" font-size="12px" font-weight="bold" text-anchor="middle" x="240.7421875" y="347.4609375">Common Room</text></g><g id="room_master_bedroom"><polygon fill="rgb(255,165,0)" fill-opacity="0.7" points="290.3125,310.546875 290.3125,409.6875 381.015625,409.6875 381.015625,310.546875" stroke="black" stroke-width="1.5" /><text dominant-baseline="middle" fill="black" font-family="Arial" font-size="12px" font-weight="bold" text-anchor="middle" x="336.71875" y="361.171875">Master Bedroom</text></g><g id="room_kitchen"><polygon fill="rgb(240,128,128)" fill-opacity="0.7" points="558.203125,148.125 558.203125,230.390625 602.5,230.390625 602.5,148.125" stroke="black" stroke-width="1.5" /><text dominant-baseline="middle" fill="black" font-family="Arial" font-size="12px" font-weight="bold" text-anchor="middle" x="581.40625" y="190.3125">Kitchen</text></g><g id="room_balcony"><polygon fill="rgb(107,142,35)" fill-opacity="0.7" points="290.3125,418.125 290.3125,451.875 381.015625,451.875 381.015625,418.125" stroke="black" stroke-width="1.5" /><text dominant-baseline="middle" fill="black" font-family="Arial" font-size="12px" font-weight="bold" text-anchor="middle" x="336.71875" y="436.0546875">Balcony</text></g><g id="room_bathroom"><polygon fill="rgb(173,216,230)" fill-opacity="0.7" points="410.546875,148.125 410.546875,198.75 465.390625,198.75 465.390625,148.125" stroke="black" stroke-width="1.5" /><text dominant-baseline="middle" fill="black" font-family="Arial" font-size="12px" font-weight="bold" text-anchor="middle" x="439.0234375" y="174.4921875">Bathroom</text></g><text fill="black" font-family="Arial" font-size="18px" font-weight="bold" text-anchor="middle" x="400.0" y="30">Floor Plan - ID: 77015</text></svg>