<?xml version="1.0" encoding="utf-8" ?>
<svg baseProfile="full" height="600px" version="1.1" viewBox="0 0 800 600" width="800px" xmlns="http://www.w3.org/2000/svg" xmlns:ev="http://www.w3.org/2001/xml-events" xmlns:xlink="http://www.w3.org/1999/xlink"><defs /><rect fill="white" height="600" width="800" x="0" y="0" /><polygon fill="none" id="floor_plan_boundary" points="262.890625,131.25 262.890625,224.0625 269.21875,135.46875 526.5625,135.46875 528.671875,255.703125 556.09375,257.8125 556.09375,413.90625 359.921875,416.015625 357.8125,464.53125 246.015625,464.53125 243.90625,257.8125 267.109375,253.59375 239.6875,251.484375 239.6875,468.75 364.140625,468.75 366.25,420.234375 560.3125,420.234375 560.3125,251.484375 532.890625,249.375 532.890625,131.25" stroke="black" stroke-linecap="butt" stroke-linejoin="miter" stroke-width="4" /><g id="room_living_room"><polygon fill="rgb(238,232,170)" fill-opacity="0.7" points="269.21875,137.578125 269.21875,255.703125 246.015625,257.8125 246.015625,413.90625 357.8125,413.90625 357.8125,291.5625 450.625,289.453125 450.625,215.625 408.4375,215.625 406.328125,257.8125 345.15625,257.8125 343.046875,137.578125" stroke="black" stroke-width="1.5" /><text dominant-baseline="middle" fill="black" font-family="Arial" font-size="12px" font-weight="bold" text-anchor="middle" x="349.375" y="276.796875">Living Room</text></g><g id="room_master_bedroom"><polygon fill="rgb(255,165,0)" fill-opacity="0.7" points="459.0625,257.8125 459.0625,413.90625 553.984375,413.90625 553.984375,329.53125 490.703125,329.53125 488.59375,257.8125" stroke="black" stroke-width="1.5" /><text dominant-baseline="middle" fill="black" font-family="Arial" font-size="12px" font-weight="bold" text-anchor="middle" x="507.578125" y="336.9140625">Master Bedroom</text></g><g id="room_common_room"><polygon fill="rgb(255,215,0)" fill-opacity="0.7" points="366.25,297.890625 366.25,413.90625 450.625,413.90625 450.625,297.890625" stroke="black" stroke-width="1.5" /><text dominant-baseline="middle" fill="black" font-family="Arial" font-size="12px" font-weight="bold" text-anchor="middle" x="409.4921875" y="356.953125">Common Room</text></g><g id="room_common_room_2"><polygon fill="rgb(255,215,0)" fill-opacity="0.7" points="459.0625,137.578125 459.0625,249.375 526.5625,249.375 526.5625,137.578125" stroke="black" stroke-width="1.5" /><text dominant-baseline="middle" fill="black" font-family="Arial" font-size="12px" font-weight="bold" text-anchor="middle" x="493.8671875" y="194.53125">Common Room 2</text></g><g id="room_kitchen"><polygon fill="rgb(240,128,128)" fill-opacity="0.7" points="351.484375,137.578125 351.484375,249.375 400.0,249.375 400.0,137.578125" stroke="black" stroke-width="1.5" /><text dominant-baseline="middle" fill="black" font-family="Arial" font-size="12px" font-weight="bold" text-anchor="middle" x="376.796875" y="194.53125">Kitchen</text></g><g id="room_balcony"><polygon fill="rgb(107,142,35)" fill-opacity="0.7" points="246.015625,422.34375 246.015625,462.421875 357.8125,462.421875 357.8125,422.34375" stroke="black" stroke-width="1.5" /><text dominant-baseline="middle" fill="black" font-family="Arial" font-size="12px" font-weight="bold" text-anchor="middle" x="302.96875" y="443.4375">Balcony</text></g><g id="room_bathroom"><polygon fill="rgb(173,216,230)" fill-opacity="0.7" points="497.03125,257.8125 497.03125,321.09375 553.984375,321.09375 553.984375,257.8125" stroke="black" stroke-width="1.5" /><text dominant-baseline="middle" fill="black" font-family="Arial" font-size="12px" font-weight="bold" text-anchor="middle" x="526.5625" y="290.5078125">Bathroom</text></g><g id="room_bathroom_2"><polygon fill="rgb(173,216,230)" fill-opacity="0.7" points="408.4375,137.578125 408.4375,207.1875 450.625,207.1875 450.625,137.578125" stroke="black" stroke-width="1.5" /><text dominant-baseline="middle" fill="black" font-family="Arial" font-size="12px" font-weight="bold" text-anchor="middle" x="430.5859375" y="173.4375">Bathroom 2</text></g><rect fill="red" fill-opacity="0.9" height="27.421875" id="main_door" stroke="darkred" stroke-width="3" width="6.328125" x="262.890625" y="226.171875" /><text dominant-baseline="middle" fill="white" font-family="Arial" font-size="9px" font-weight="bold" text-anchor="middle" x="266.0546875" y="239.8828125">Main Door</text><text fill="black" font-family="Arial" font-size="18px" font-weight="bold" text-anchor="middle" x="400.0" y="30">Floor Plan - ID: 77183</text></svg>