<?xml version="1.0" encoding="utf-8" ?>
<svg baseProfile="full" height="600px" version="1.1" viewBox="0 0 800 600" width="800px" xmlns="http://www.w3.org/2000/svg" xmlns:ev="http://www.w3.org/2001/xml-events" xmlns:xlink="http://www.w3.org/1999/xlink"><defs /><rect fill="white" height="600" width="800" x="0" y="0" /><polygon fill="none" id="floor_plan_boundary" points="376.796875,65.859375 374.6875,110.15625 288.203125,110.15625 288.203125,487.734375 374.6875,487.734375 376.796875,534.140625 484.375,534.140625 484.375,359.0625 475.9375,359.0625 473.828125,525.703125 387.34375,525.703125 385.234375,479.296875 296.640625,477.1875 296.640625,120.703125 385.234375,118.59375 387.34375,74.296875 501.25,74.296875 503.359375,230.390625 484.375,232.5 484.375,291.5625 475.9375,300.0 492.8125,302.109375 492.8125,243.046875 511.796875,240.9375 511.796875,65.859375" stroke="black" stroke-linecap="butt" stroke-linejoin="miter" stroke-width="4" /><g id="room_living_room"><polygon fill="rgb(238,232,170)" fill-opacity="0.7" points="387.34375,120.703125 385.234375,300.0 347.265625,302.109375 347.265625,367.5 473.828125,367.5 482.265625,232.5 501.25,230.390625 501.25,120.703125" stroke="black" stroke-width="1.5" /><text dominant-baseline="middle" fill="black" font-family="Arial" font-size="12px" font-weight="bold" text-anchor="middle" x="425.3125" y="245.15625">Living Room</text></g><g id="room_common_room"><polygon fill="rgb(255,215,0)" fill-opacity="0.7" points="387.34375,380.15625 387.34375,477.1875 473.828125,477.1875 473.828125,380.15625" stroke="black" stroke-width="1.5" /><text dominant-baseline="middle" fill="black" font-family="Arial" font-size="12px" font-weight="bold" text-anchor="middle" x="431.640625" y="429.7265625">Common Room</text></g><g id="room_master_bedroom"><polygon fill="rgb(255,165,0)" fill-opacity="0.7" points="298.75,120.703125 298.75,230.390625 374.6875,230.390625 374.6875,120.703125" stroke="black" stroke-width="1.5" /><text dominant-baseline="middle" fill="black" font-family="Arial" font-size="12px" font-weight="bold" text-anchor="middle" x="337.7734375" y="176.6015625">Master Bedroom</text></g><g id="room_common_room_2"><polygon fill="rgb(255,215,0)" fill-opacity="0.7" points="298.75,380.15625 298.75,477.1875 374.6875,477.1875 374.6875,380.15625" stroke="black" stroke-width="1.5" /><text dominant-baseline="middle" fill="black" font-family="Arial" font-size="12px" font-weight="bold" text-anchor="middle" x="337.7734375" y="429.7265625">Common Room 2</text></g><g id="room_kitchen"><polygon fill="rgb(240,128,128)" fill-opacity="0.7" points="298.75,243.046875 298.75,293.671875 376.796875,293.671875 376.796875,243.046875" stroke="black" stroke-width="1.5" /><text dominant-baseline="middle" fill="black" font-family="Arial" font-size="12px" font-weight="bold" text-anchor="middle" x="338.828125" y="269.4140625">Kitchen</text></g><g id="room_balcony_2"><polygon fill="rgb(107,142,35)" fill-opacity="0.7" points="387.34375,76.40625 387.34375,108.046875 501.25,108.046875 501.25,76.40625" stroke="black" stroke-width="1.5" /><text dominant-baseline="middle" fill="black" font-family="Arial" font-size="12px" font-weight="bold" text-anchor="middle" x="445.3515625" y="93.28125">Balcony 2</text></g><g id="room_balcony"><polygon fill="rgb(107,142,35)" fill-opacity="0.7" points="387.34375,489.84375 387.34375,523.59375 473.828125,523.59375 473.828125,489.84375" stroke="black" stroke-width="1.5" /><text dominant-baseline="middle" fill="black" font-family="Arial" font-size="12px" font-weight="bold" text-anchor="middle" x="431.640625" y="507.7734375">Balcony</text></g><g id="room_bathroom"><polygon fill="rgb(173,216,230)" fill-opacity="0.7" points="298.75,302.109375 298.75,367.5 338.828125,367.5 338.828125,302.109375" stroke="black" stroke-width="1.5" /><text dominant-baseline="middle" fill="black" font-family="Arial" font-size="12px" font-weight="bold" text-anchor="middle" x="319.84375" y="335.859375">Bathroom</text></g><rect fill="red" fill-opacity="0.9" height="56.953125" id="main_door" stroke="darkred" stroke-width="3" width="10.546875" x="475.9375" y="302.109375" /><text dominant-baseline="middle" fill="white" font-family="Arial" font-size="9px" font-weight="bold" text-anchor="middle" x="481.2109375" y="330.5859375">Main Door</text><text fill="black" font-family="Arial" font-size="18px" font-weight="bold" text-anchor="middle" x="400.0" y="30">Floor Plan - ID: 77428</text></svg>