<?xml version="1.0" encoding="utf-8" ?>
<svg baseProfile="full" height="600px" version="1.1" viewBox="0 0 800 600" width="800px" xmlns="http://www.w3.org/2000/svg" xmlns:ev="http://www.w3.org/2001/xml-events" xmlns:xlink="http://www.w3.org/1999/xlink"><defs /><rect fill="white" height="600" width="800" x="0" y="0" /><polygon fill="none" id="floor_plan_boundary" points="292.421875,135.46875 292.421875,238.828125 300.859375,238.828125 302.96875,143.90625 535.0,146.015625 535.0,390.703125 461.171875,392.8125 459.0625,456.09375 338.828125,456.09375 336.71875,392.8125 265.0,390.703125 265.0,295.78125 300.859375,293.671875 300.859375,272.578125 292.421875,272.578125 290.3125,285.234375 256.5625,285.234375 256.5625,401.25 326.171875,401.25 328.28125,464.53125 469.609375,464.53125 471.71875,401.25 543.4375,401.25 543.4375,135.46875" stroke="black" stroke-linecap="butt" stroke-linejoin="miter" stroke-width="4" /><g id="room_living_room"><polygon fill="rgb(238,232,170)" fill-opacity="0.7" points="302.96875,146.015625 302.96875,283.125 338.828125,285.234375 338.828125,390.703125 404.21875,390.703125 406.328125,361.171875 459.0625,361.171875 459.0625,295.78125 416.875,293.671875 416.875,146.015625" stroke="black" stroke-width="1.5" /><text dominant-baseline="middle" fill="black" font-family="Arial" font-size="12px" font-weight="bold" text-anchor="middle" x="382.0703125" y="269.4140625">Living Room</text></g><g id="room_master_bedroom"><polygon fill="rgb(255,165,0)" fill-opacity="0.7" points="429.53125,146.015625 429.53125,283.125 532.890625,283.125 532.890625,146.015625" stroke="black" stroke-width="1.5" /><text dominant-baseline="middle" fill="black" font-family="Arial" font-size="12px" font-weight="bold" text-anchor="middle" x="482.265625" y="215.625">Master Bedroom</text></g><g id="room_common_room"><polygon fill="rgb(255,215,0)" fill-opacity="0.7" points="471.71875,295.78125 471.71875,390.703125 532.890625,390.703125 532.890625,295.78125" stroke="black" stroke-width="1.5" /><text dominant-baseline="middle" fill="black" font-family="Arial" font-size="12px" font-weight="bold" text-anchor="middle" x="503.359375" y="344.296875">Common Room</text></g><g id="room_common_room_2"><polygon fill="rgb(255,215,0)" fill-opacity="0.7" points="267.109375,295.78125 267.109375,390.703125 326.171875,390.703125 326.171875,295.78125" stroke="black" stroke-width="1.5" /><text dominant-baseline="middle" fill="black" font-family="Arial" font-size="12px" font-weight="bold" text-anchor="middle" x="297.6953125" y="344.296875">Common Room 2</text></g><g id="room_bathroom"><polygon fill="rgb(173,216,230)" fill-opacity="0.7" points="416.875,373.828125 416.875,453.984375 459.0625,453.984375 459.0625,373.828125" stroke="black" stroke-width="1.5" /><text dominant-baseline="middle" fill="black" font-family="Arial" font-size="12px" font-weight="bold" text-anchor="middle" x="439.0234375" y="414.9609375">Bathroom</text></g><g id="room_kitchen"><polygon fill="rgb(240,128,128)" fill-opacity="0.7" points="338.828125,403.359375 338.828125,453.984375 404.21875,453.984375 404.21875,403.359375" stroke="black" stroke-width="1.5" /><text dominant-baseline="middle" fill="black" font-family="Arial" font-size="12px" font-weight="bold" text-anchor="middle" x="372.578125" y="429.7265625">Kitchen</text></g><rect fill="red" fill-opacity="0.9" height="31.640625" id="main_door" stroke="darkred" stroke-width="3" width="10.546875" x="292.421875" y="240.9375" /><text dominant-baseline="middle" fill="white" font-family="Arial" font-size="9px" font-weight="bold" text-anchor="middle" x="297.6953125" y="256.7578125">Main Door</text><text fill="black" font-family="Arial" font-size="18px" font-weight="bold" text-anchor="middle" x="400.0" y="30">Floor Plan - ID: 77456</text></svg>