<?xml version="1.0" encoding="utf-8" ?>
<svg baseProfile="full" height="600px" version="1.1" viewBox="0 0 800 600" width="800px" xmlns="http://www.w3.org/2000/svg" xmlns:ev="http://www.w3.org/2001/xml-events" xmlns:xlink="http://www.w3.org/1999/xlink"><defs /><rect fill="white" height="600" width="800" x="0" y="0" /><polygon fill="none" id="floor_plan_boundary" points="305.078125,95.390625 305.078125,179.765625 243.90625,181.875 243.90625,287.34375 248.125,188.203125 309.296875,186.09375 311.40625,99.609375 482.265625,99.609375 484.375,215.625 551.875,217.734375 551.875,441.328125 490.703125,443.4375 488.59375,422.34375 442.1875,422.34375 440.078125,500.390625 324.0625,500.390625 321.953125,316.875 243.90625,316.875 317.734375,323.203125 317.734375,504.609375 446.40625,504.609375 448.515625,426.5625 482.265625,426.5625 484.375,447.65625 556.09375,447.65625 556.09375,211.40625 488.59375,209.296875 488.59375,95.390625" stroke="black" stroke-linecap="butt" stroke-linejoin="miter" stroke-width="4" /><g id="room_living_room"><polygon fill="rgb(238,232,170)" fill-opacity="0.7" points="311.40625,217.734375 311.40625,274.6875 250.234375,276.796875 250.234375,314.765625 324.0625,316.875 324.0625,441.328125 440.078125,441.328125 440.078125,287.34375 482.265625,285.234375 482.265625,217.734375" stroke="black" stroke-width="1.5" /><text dominant-baseline="middle" fill="black" font-family="Arial" font-size="12px" font-weight="bold" text-anchor="middle" x="367.3046875" y="330.5859375">Living Room</text></g><g id="room_master_bedroom"><polygon fill="rgb(255,165,0)" fill-opacity="0.7" points="448.515625,293.671875 448.515625,420.234375 488.59375,420.234375 490.703125,441.328125 549.765625,441.328125 549.765625,293.671875" stroke="black" stroke-width="1.5" /><text dominant-baseline="middle" fill="black" font-family="Arial" font-size="12px" font-weight="bold" text-anchor="middle" x="500.1953125" y="368.5546875">Master Bedroom</text></g><g id="room_common_room"><polygon fill="rgb(255,215,0)" fill-opacity="0.7" points="397.890625,101.71875 397.890625,209.296875 482.265625,209.296875 482.265625,101.71875" stroke="black" stroke-width="1.5" /><text dominant-baseline="middle" fill="black" font-family="Arial" font-size="12px" font-weight="bold" text-anchor="middle" x="441.1328125" y="156.5625">Common Room</text></g><g id="room_common_room_2"><polygon fill="rgb(255,215,0)" fill-opacity="0.7" points="311.40625,101.71875 311.40625,209.296875 389.453125,209.296875 389.453125,101.71875" stroke="black" stroke-width="1.5" /><text dominant-baseline="middle" fill="black" font-family="Arial" font-size="12px" font-weight="bold" text-anchor="middle" x="351.484375" y="156.5625">Common Room 2</text></g><g id="room_balcony"><polygon fill="rgb(107,142,35)" fill-opacity="0.7" points="324.0625,449.765625 324.0625,498.28125 440.078125,498.28125 440.078125,449.765625" stroke="black" stroke-width="1.5" /><text dominant-baseline="middle" fill="black" font-family="Arial" font-size="12px" font-weight="bold" text-anchor="middle" x="383.125" y="475.078125">Balcony</text></g><g id="room_kitchen"><polygon fill="rgb(240,128,128)" fill-opacity="0.7" points="250.234375,188.203125 250.234375,268.359375 302.96875,268.359375 302.96875,188.203125" stroke="black" stroke-width="1.5" /><text dominant-baseline="middle" fill="black" font-family="Arial" font-size="12px" font-weight="bold" text-anchor="middle" x="277.65625" y="229.3359375">Kitchen</text></g><g id="room_bathroom"><polygon fill="rgb(173,216,230)" fill-opacity="0.7" points="490.703125,217.734375 490.703125,285.234375 549.765625,285.234375 549.765625,217.734375" stroke="black" stroke-width="1.5" /><text dominant-baseline="middle" fill="black" font-family="Arial" font-size="12px" font-weight="bold" text-anchor="middle" x="521.2890625" y="252.5390625">Bathroom</text></g><rect fill="red" fill-opacity="0.9" height="27.421875" id="main_door" stroke="darkred" stroke-width="3" width="6.328125" x="243.90625" y="289.453125" /><text dominant-baseline="middle" fill="white" font-family="Arial" font-size="9px" font-weight="bold" text-anchor="middle" x="247.0703125" y="303.1640625">Main Door</text><text fill="black" font-family="Arial" font-size="18px" font-weight="bold" text-anchor="middle" x="400.0" y="30">Floor Plan - ID: 77526</text></svg>