<?xml version="1.0" encoding="utf-8" ?>
<svg baseProfile="full" height="600px" version="1.1" viewBox="0 0 800 600" width="800px" xmlns="http://www.w3.org/2000/svg" xmlns:ev="http://www.w3.org/2001/xml-events" xmlns:xlink="http://www.w3.org/1999/xlink"><defs /><rect fill="white" height="600" width="800" x="0" y="0" /><polygon fill="none" id="floor_plan_boundary" points="330.390625,67.96875 330.390625,285.234375 336.71875,72.1875 404.21875,74.296875 404.21875,154.453125 505.46875,156.5625 503.359375,466.640625 404.21875,466.640625 402.109375,527.8125 296.640625,527.8125 294.53125,344.296875 334.609375,342.1875 334.609375,323.203125 328.28125,337.96875 290.3125,337.96875 290.3125,532.03125 408.4375,532.03125 410.546875,470.859375 509.6875,470.859375 509.6875,150.234375 410.546875,150.234375 408.4375,67.96875" stroke="black" stroke-linecap="butt" stroke-linejoin="miter" stroke-width="4" /><g id="room_living_room"><polygon fill="rgb(238,232,170)" fill-opacity="0.7" points="336.71875,143.90625 336.71875,342.1875 296.640625,344.296875 296.640625,456.09375 402.109375,456.09375 402.109375,337.96875 444.296875,335.859375 444.296875,281.015625 402.109375,278.90625 402.109375,143.90625" stroke="black" stroke-width="1.5" /><text dominant-baseline="middle" fill="black" font-family="Arial" font-size="12px" font-weight="bold" text-anchor="middle" x="371.5234375" y="301.0546875">Living Room</text></g><g id="room_master_bedroom"><polygon fill="rgb(255,165,0)" fill-opacity="0.7" points="410.546875,344.296875 410.546875,464.53125 503.359375,464.53125 503.359375,344.296875" stroke="black" stroke-width="1.5" /><text dominant-baseline="middle" fill="black" font-family="Arial" font-size="12px" font-weight="bold" text-anchor="middle" x="458.0078125" y="405.46875">Master Bedroom</text></g><g id="room_common_room"><polygon fill="rgb(255,215,0)" fill-opacity="0.7" points="410.546875,156.5625 410.546875,272.578125 503.359375,272.578125 503.359375,156.5625" stroke="black" stroke-width="1.5" /><text dominant-baseline="middle" fill="black" font-family="Arial" font-size="12px" font-weight="bold" text-anchor="middle" x="458.0078125" y="215.625">Common Room</text></g><g id="room_balcony"><polygon fill="rgb(107,142,35)" fill-opacity="0.7" points="296.640625,464.53125 296.640625,525.703125 402.109375,525.703125 402.109375,464.53125" stroke="black" stroke-width="1.5" /><text dominant-baseline="middle" fill="black" font-family="Arial" font-size="12px" font-weight="bold" text-anchor="middle" x="350.4296875" y="496.171875">Balcony</text></g><g id="room_kitchen"><polygon fill="rgb(240,128,128)" fill-opacity="0.7" points="336.71875,74.296875 336.71875,135.46875 402.109375,135.46875 402.109375,74.296875" stroke="black" stroke-width="1.5" /><text dominant-baseline="middle" fill="black" font-family="Arial" font-size="12px" font-weight="bold" text-anchor="middle" x="370.46875" y="105.9375">Kitchen</text></g><g id="room_bathroom"><polygon fill="rgb(173,216,230)" fill-opacity="0.7" points="452.734375,281.015625 452.734375,335.859375 503.359375,335.859375 503.359375,281.015625" stroke="black" stroke-width="1.5" /><text dominant-baseline="middle" fill="black" font-family="Arial" font-size="12px" font-weight="bold" text-anchor="middle" x="479.1015625" y="309.4921875">Bathroom</text></g><rect fill="red" fill-opacity="0.9" height="35.859375" id="main_door" stroke="darkred" stroke-width="3" width="6.328125" x="330.390625" y="287.34375" /><text dominant-baseline="middle" fill="white" font-family="Arial" font-size="9px" font-weight="bold" text-anchor="middle" x="333.5546875" y="305.2734375">Main Door</text><text fill="black" font-family="Arial" font-size="18px" font-weight="bold" text-anchor="middle" x="400.0" y="30">Floor Plan - ID: 77564</text></svg>