<?xml version="1.0" encoding="utf-8" ?>
<svg baseProfile="full" height="600px" version="1.1" viewBox="0 0 800 600" width="800px" xmlns="http://www.w3.org/2000/svg" xmlns:ev="http://www.w3.org/2001/xml-events" xmlns:xlink="http://www.w3.org/1999/xlink"><defs /><rect fill="white" height="600" width="800" x="0" y="0" /><polygon fill="none" id="floor_plan_boundary" points="189.0625,194.53125 189.0625,306.328125 172.1875,308.4375 172.1875,418.125 416.875,418.125 416.875,409.6875 180.625,407.578125 180.625,318.984375 197.5,316.875 197.5,205.078125 391.5625,202.96875 393.671875,190.3125 488.59375,190.3125 490.703125,215.625 594.0625,215.625 596.171875,316.875 619.375,318.984375 619.375,407.578125 454.84375,409.6875 454.84375,418.125 627.8125,418.125 627.8125,308.4375 604.609375,306.328125 604.609375,207.1875 501.25,207.1875 499.140625,181.875 383.125,181.875 381.015625,194.53125" stroke="black" stroke-linecap="butt" stroke-linejoin="miter" stroke-width="4" /><g id="room_living_room"><polygon fill="rgb(238,232,170)" fill-opacity="0.7" points="393.671875,192.421875 393.671875,276.796875 330.390625,278.90625 330.390625,407.578125 524.453125,407.578125 524.453125,316.875 488.59375,314.765625 488.59375,192.421875" stroke="black" stroke-width="1.5" /><text dominant-baseline="middle" fill="black" font-family="Arial" font-size="12px" font-weight="bold" text-anchor="middle" x="428.4765625" y="301.0546875">Living Room</text></g><g id="room_master_bedroom"><polygon fill="rgb(255,165,0)" fill-opacity="0.7" points="199.609375,205.078125 199.609375,306.328125 321.953125,306.328125 321.953125,205.078125" stroke="black" stroke-width="1.5" /><text dominant-baseline="middle" fill="black" font-family="Arial" font-size="12px" font-weight="bold" text-anchor="middle" x="261.8359375" y="256.7578125">Master Bedroom</text></g><g id="room_common_room_2"><polygon fill="rgb(255,215,0)" fill-opacity="0.7" points="501.25,217.734375 501.25,308.4375 594.0625,308.4375 594.0625,217.734375" stroke="black" stroke-width="1.5" /><text dominant-baseline="middle" fill="black" font-family="Arial" font-size="12px" font-weight="bold" text-anchor="middle" x="548.7109375" y="264.140625">Common Room 2</text></g><g id="room_common_room"><polygon fill="rgb(255,215,0)" fill-opacity="0.7" points="229.140625,318.984375 229.140625,407.578125 321.953125,407.578125 321.953125,318.984375" stroke="black" stroke-width="1.5" /><text dominant-baseline="middle" fill="black" font-family="Arial" font-size="12px" font-weight="bold" text-anchor="middle" x="276.6015625" y="364.3359375">Common Room</text></g><g id="room_kitchen"><polygon fill="rgb(240,128,128)" fill-opacity="0.7" points="537.109375,316.875 537.109375,407.578125 617.265625,407.578125 617.265625,318.984375" stroke="black" stroke-width="1.5" /><text dominant-baseline="middle" fill="black" font-family="Arial" font-size="12px" font-weight="bold" text-anchor="middle" x="578.2421875" y="363.28125">Kitchen</text></g><g id="room_bathroom"><polygon fill="rgb(173,216,230)" fill-opacity="0.7" points="330.390625,205.078125 330.390625,270.46875 381.015625,270.46875 381.015625,205.078125" stroke="black" stroke-width="1.5" /><text dominant-baseline="middle" fill="black" font-family="Arial" font-size="12px" font-weight="bold" text-anchor="middle" x="356.7578125" y="238.828125">Bathroom</text></g><g id="room_balcony"><polygon fill="rgb(107,142,35)" fill-opacity="0.7" points="182.734375,318.984375 182.734375,407.578125 216.484375,407.578125 216.484375,318.984375" stroke="black" stroke-width="1.5" /><text dominant-baseline="middle" fill="black" font-family="Arial" font-size="12px" font-weight="bold" text-anchor="middle" x="200.6640625" y="364.3359375">Balcony</text></g><rect fill="red" fill-opacity="0.9" height="10.546875" id="main_door" stroke="darkred" stroke-width="3" width="35.859375" x="418.984375" y="409.6875" /><text dominant-baseline="middle" fill="white" font-family="Arial" font-size="9px" font-weight="bold" text-anchor="middle" x="436.9140625" y="414.9609375">Main Door</text><text fill="black" font-family="Arial" font-size="18px" font-weight="bold" text-anchor="middle" x="400.0" y="30">Floor Plan - ID: 77621</text></svg>