<?xml version="1.0" encoding="utf-8" ?>
<svg baseProfile="full" height="600px" version="1.1" viewBox="0 0 800 600" width="800px" xmlns="http://www.w3.org/2000/svg" xmlns:ev="http://www.w3.org/2001/xml-events" xmlns:xlink="http://www.w3.org/1999/xlink"><defs /><rect fill="white" height="600" width="800" x="0" y="0" /><polygon fill="none" id="floor_plan_boundary" points="290.3125,118.59375 290.3125,441.328125 389.453125,441.328125 391.5625,481.40625 509.6875,481.40625 509.6875,236.71875 492.8125,236.71875 505.46875,243.046875 503.359375,477.1875 397.890625,477.1875 395.78125,437.109375 294.53125,435.0 294.53125,124.921875 442.1875,122.8125 444.296875,240.9375 471.71875,236.71875 448.515625,234.609375 448.515625,118.59375" stroke="black" stroke-linecap="butt" stroke-linejoin="miter" stroke-width="4" /><g id="room_living_room"><polygon fill="rgb(238,232,170)" fill-opacity="0.7" points="374.6875,196.640625 374.6875,240.9375 351.484375,243.046875 351.484375,291.5625 397.890625,293.671875 397.890625,435.0 503.359375,435.0 503.359375,243.046875 444.296875,243.046875 442.1875,196.640625" stroke="black" stroke-width="1.5" /><text dominant-baseline="middle" fill="black" font-family="Arial" font-size="12px" font-weight="bold" text-anchor="middle" x="428.4765625" y="316.875">Living Room</text></g><g id="room_master_bedroom"><polygon fill="rgb(255,165,0)" fill-opacity="0.7" points="296.640625,300.0 296.640625,435.0 389.453125,435.0 389.453125,300.0" stroke="black" stroke-width="1.5" /><text dominant-baseline="middle" fill="black" font-family="Arial" font-size="12px" font-weight="bold" text-anchor="middle" x="344.1015625" y="368.5546875">Master Bedroom</text></g><g id="room_common_room"><polygon fill="rgb(255,215,0)" fill-opacity="0.7" points="296.640625,124.921875 296.640625,234.609375 366.25,234.609375 366.25,124.921875" stroke="black" stroke-width="1.5" /><text dominant-baseline="middle" fill="black" font-family="Arial" font-size="12px" font-weight="bold" text-anchor="middle" x="332.5" y="180.8203125">Common Room</text></g><g id="room_kitchen"><polygon fill="rgb(240,128,128)" fill-opacity="0.7" points="374.6875,124.921875 374.6875,188.203125 442.1875,188.203125 442.1875,124.921875" stroke="black" stroke-width="1.5" /><text dominant-baseline="middle" fill="black" font-family="Arial" font-size="12px" font-weight="bold" text-anchor="middle" x="409.4921875" y="157.6171875">Kitchen</text></g><g id="room_balcony"><polygon fill="rgb(107,142,35)" fill-opacity="0.7" points="397.890625,443.4375 397.890625,475.078125 503.359375,475.078125 503.359375,443.4375" stroke="black" stroke-width="1.5" /><text dominant-baseline="middle" fill="black" font-family="Arial" font-size="12px" font-weight="bold" text-anchor="middle" x="451.6796875" y="460.3125">Balcony</text></g><g id="room_bathroom"><polygon fill="rgb(173,216,230)" fill-opacity="0.7" points="296.640625,243.046875 296.640625,291.5625 343.046875,291.5625 343.046875,243.046875" stroke="black" stroke-width="1.5" /><text dominant-baseline="middle" fill="black" font-family="Arial" font-size="12px" font-weight="bold" text-anchor="middle" x="320.8984375" y="268.359375">Bathroom</text></g><text fill="black" font-family="Arial" font-size="18px" font-weight="bold" text-anchor="middle" x="400.0" y="30">Floor Plan - ID: 78172</text></svg>