<?xml version="1.0" encoding="utf-8" ?>
<svg baseProfile="full" height="600px" version="1.1" viewBox="0 0 800 600" width="800px" xmlns="http://www.w3.org/2000/svg" xmlns:ev="http://www.w3.org/2001/xml-events" xmlns:xlink="http://www.w3.org/1999/xlink"><defs /><rect fill="white" height="600" width="800" x="0" y="0" /><polygon fill="none" id="floor_plan_boundary" points="596.171875,190.3125 459.0625,190.3125 456.953125,205.078125 364.140625,205.078125 364.140625,255.703125 351.484375,257.8125 368.359375,262.03125 370.46875,209.296875 463.28125,209.296875 465.390625,194.53125 589.84375,194.53125 591.953125,321.09375 575.078125,323.203125 572.96875,405.46875 210.15625,405.46875 208.046875,264.140625 321.953125,257.8125 203.828125,257.8125 203.828125,409.6875 579.296875,409.6875 579.296875,329.53125 596.171875,327.421875" stroke="black" stroke-linecap="butt" stroke-linejoin="miter" stroke-width="4" /><g id="room_living_room"><polygon fill="rgb(238,232,170)" fill-opacity="0.7" points="298.75,264.140625 298.75,403.359375 456.953125,403.359375 456.953125,295.78125 364.140625,295.78125 362.03125,264.140625" stroke="black" stroke-width="1.5" /><text dominant-baseline="middle" fill="black" font-family="Arial" font-size="12px" font-weight="bold" text-anchor="middle" x="378.90625" y="334.8046875">Living Room</text></g><g id="room_master_bedroom"><polygon fill="rgb(255,165,0)" fill-opacity="0.7" points="465.390625,196.640625 465.390625,321.09375 589.84375,321.09375 589.84375,196.640625" stroke="black" stroke-width="1.5" /><text dominant-baseline="middle" fill="black" font-family="Arial" font-size="12px" font-weight="bold" text-anchor="middle" x="528.671875" y="259.921875">Master Bedroom</text></g><g id="room_common_room_2"><polygon fill="rgb(255,215,0)" fill-opacity="0.7" points="465.390625,329.53125 465.390625,403.359375 572.96875,403.359375 572.96875,329.53125" stroke="black" stroke-width="1.5" /><text dominant-baseline="middle" fill="black" font-family="Arial" font-size="12px" font-weight="bold" text-anchor="middle" x="520.234375" y="367.5">Common Room 2</text></g><g id="room_bathroom"><polygon fill="rgb(173,216,230)" fill-opacity="0.7" points="370.46875,211.40625 370.46875,287.34375 456.953125,287.34375 456.953125,211.40625" stroke="black" stroke-width="1.5" /><text dominant-baseline="middle" fill="black" font-family="Arial" font-size="12px" font-weight="bold" text-anchor="middle" x="414.765625" y="250.4296875">Bathroom</text></g><g id="room_kitchen"><polygon fill="rgb(240,128,128)" fill-opacity="0.7" points="210.15625,264.140625 210.15625,331.640625 290.3125,331.640625 290.3125,264.140625" stroke="black" stroke-width="1.5" /><text dominant-baseline="middle" fill="black" font-family="Arial" font-size="12px" font-weight="bold" text-anchor="middle" x="251.2890625" y="298.9453125">Kitchen</text></g><g id="room_common_room"><polygon fill="rgb(255,215,0)" fill-opacity="0.7" points="210.15625,340.078125 210.15625,403.359375 290.3125,403.359375 290.3125,340.078125" stroke="black" stroke-width="1.5" /><text dominant-baseline="middle" fill="black" font-family="Arial" font-size="12px" font-weight="bold" text-anchor="middle" x="251.2890625" y="372.7734375">Common Room</text></g><rect fill="red" fill-opacity="0.9" height="6.328125" id="main_door" stroke="darkred" stroke-width="3" width="27.421875" x="324.0625" y="257.8125" /><text dominant-baseline="middle" fill="white" font-family="Arial" font-size="9px" font-weight="bold" text-anchor="middle" x="337.7734375" y="260.9765625">Main Door</text><text fill="black" font-family="Arial" font-size="18px" font-weight="bold" text-anchor="middle" x="400.0" y="30">Floor Plan - ID: 78254</text></svg>