<?xml version="1.0" encoding="utf-8" ?>
<svg baseProfile="full" height="600px" version="1.1" viewBox="0 0 800 600" width="800px" xmlns="http://www.w3.org/2000/svg" xmlns:ev="http://www.w3.org/2001/xml-events" xmlns:xlink="http://www.w3.org/1999/xlink"><defs /><rect fill="white" height="600" width="800" x="0" y="0" /><polygon fill="none" id="floor_plan_boundary" points="265.0,124.921875 265.0,318.984375 315.625,321.09375 315.625,426.5625 418.984375,426.5625 421.09375,475.078125 535.0,475.078125 535.0,314.765625 503.359375,316.875 530.78125,321.09375 530.78125,468.75 427.421875,470.859375 425.3125,422.34375 321.953125,422.34375 319.84375,314.765625 269.21875,312.65625 271.328125,129.140625 501.25,129.140625 507.578125,291.5625 507.578125,124.921875" stroke="black" stroke-linecap="butt" stroke-linejoin="miter" stroke-width="4" /><g id="room_living_room"><polygon fill="rgb(238,232,170)" fill-opacity="0.7" points="271.328125,226.171875 271.328125,312.65625 501.25,312.65625 501.25,226.171875" stroke="black" stroke-width="1.5" /><text dominant-baseline="middle" fill="black" font-family="Arial" font-size="12px" font-weight="bold" text-anchor="middle" x="387.34375" y="270.46875">Living Room</text></g><g id="room_master_bedroom"><polygon fill="rgb(255,165,0)" fill-opacity="0.7" points="427.421875,321.09375 427.421875,420.234375 528.671875,420.234375 528.671875,321.09375" stroke="black" stroke-width="1.5" /><text dominant-baseline="middle" fill="black" font-family="Arial" font-size="12px" font-weight="bold" text-anchor="middle" x="479.1015625" y="371.71875">Master Bedroom</text></g><g id="room_common_room"><polygon fill="rgb(255,215,0)" fill-opacity="0.7" points="321.953125,321.09375 321.953125,420.234375 418.984375,420.234375 418.984375,321.09375" stroke="black" stroke-width="1.5" /><text dominant-baseline="middle" fill="black" font-family="Arial" font-size="12px" font-weight="bold" text-anchor="middle" x="371.5234375" y="371.71875">Common Room</text></g><g id="room_common_room_2"><polygon fill="rgb(255,215,0)" fill-opacity="0.7" points="271.328125,131.25 271.328125,217.734375 362.03125,217.734375 362.03125,131.25" stroke="black" stroke-width="1.5" /><text dominant-baseline="middle" fill="black" font-family="Arial" font-size="12px" font-weight="bold" text-anchor="middle" x="317.734375" y="175.546875">Common Room 2</text></g><g id="room_bathroom"><polygon fill="rgb(173,216,230)" fill-opacity="0.7" points="437.96875,131.25 437.96875,217.734375 501.25,217.734375 501.25,131.25" stroke="black" stroke-width="1.5" /><text dominant-baseline="middle" fill="black" font-family="Arial" font-size="12px" font-weight="bold" text-anchor="middle" x="470.6640625" y="175.546875">Bathroom</text></g><g id="room_kitchen"><polygon fill="rgb(240,128,128)" fill-opacity="0.7" points="370.46875,131.25 370.46875,217.734375 429.53125,217.734375 429.53125,131.25" stroke="black" stroke-width="1.5" /><text dominant-baseline="middle" fill="black" font-family="Arial" font-size="12px" font-weight="bold" text-anchor="middle" x="401.0546875" y="175.546875">Kitchen</text></g><g id="room_balcony"><polygon fill="rgb(107,142,35)" fill-opacity="0.7" points="427.421875,428.671875 427.421875,468.75 528.671875,468.75 528.671875,428.671875" stroke="black" stroke-width="1.5" /><text dominant-baseline="middle" fill="black" font-family="Arial" font-size="12px" font-weight="bold" text-anchor="middle" x="479.1015625" y="449.765625">Balcony</text></g><text fill="black" font-family="Arial" font-size="18px" font-weight="bold" text-anchor="middle" x="400.0" y="30">Floor Plan - ID: 78291</text></svg>