<?xml version="1.0" encoding="utf-8" ?>
<svg baseProfile="full" height="600px" version="1.1" viewBox="0 0 800 600" width="800px" xmlns="http://www.w3.org/2000/svg" xmlns:ev="http://www.w3.org/2001/xml-events" xmlns:xlink="http://www.w3.org/1999/xlink"><defs /><rect fill="white" height="600" width="800" x="0" y="0" /><polygon fill="none" id="floor_plan_boundary" points="176.40625,192.421875 176.40625,407.578125 431.640625,407.578125 182.734375,403.359375 182.734375,196.640625 617.265625,196.640625 619.375,363.28125 518.125,365.390625 516.015625,403.359375 452.734375,407.578125 522.34375,407.578125 524.453125,369.609375 623.59375,369.609375 623.59375,192.421875" stroke="black" stroke-linecap="butt" stroke-linejoin="miter" stroke-width="4" /><g id="room_living_room"><polygon fill="rgb(238,232,170)" fill-opacity="0.7" points="296.640625,198.75 296.640625,356.953125 267.109375,359.0625 267.109375,401.25 516.015625,401.25 516.015625,310.546875 473.828125,308.4375 473.828125,198.75" stroke="black" stroke-width="1.5" /><text dominant-baseline="middle" fill="black" font-family="Arial" font-size="12px" font-weight="bold" text-anchor="middle" x="392.6171875" y="301.0546875">Living Room</text></g><g id="room_common_room"><polygon fill="rgb(255,215,0)" fill-opacity="0.7" points="182.734375,198.75 182.734375,350.625 288.203125,350.625 288.203125,198.75" stroke="black" stroke-width="1.5" /><text dominant-baseline="middle" fill="black" font-family="Arial" font-size="12px" font-weight="bold" text-anchor="middle" x="236.5234375" y="275.7421875">Common Room</text></g><g id="room_master_bedroom"><polygon fill="rgb(255,165,0)" fill-opacity="0.7" points="482.265625,198.75 482.265625,302.109375 617.265625,302.109375 617.265625,198.75" stroke="black" stroke-width="1.5" /><text dominant-baseline="middle" fill="black" font-family="Arial" font-size="12px" font-weight="bold" text-anchor="middle" x="550.8203125" y="251.484375">Master Bedroom</text></g><g id="room_bathroom"><polygon fill="rgb(173,216,230)" fill-opacity="0.7" points="524.453125,310.546875 524.453125,363.28125 617.265625,363.28125 617.265625,310.546875" stroke="black" stroke-width="1.5" /><text dominant-baseline="middle" fill="black" font-family="Arial" font-size="12px" font-weight="bold" text-anchor="middle" x="571.9140625" y="337.96875">Bathroom</text></g><g id="room_kitchen"><polygon fill="rgb(240,128,128)" fill-opacity="0.7" points="182.734375,359.0625 182.734375,401.25 258.671875,401.25 258.671875,359.0625" stroke="black" stroke-width="1.5" /><text dominant-baseline="middle" fill="black" font-family="Arial" font-size="12px" font-weight="bold" text-anchor="middle" x="221.7578125" y="381.2109375">Kitchen</text></g><text fill="black" font-family="Arial" font-size="18px" font-weight="bold" text-anchor="middle" x="400.0" y="30">Floor Plan - ID: 78578</text></svg>