<?xml version="1.0" encoding="utf-8" ?>
<svg baseProfile="full" height="600px" version="1.1" viewBox="0 0 800 600" width="800px" xmlns="http://www.w3.org/2000/svg" xmlns:ev="http://www.w3.org/2001/xml-events" xmlns:xlink="http://www.w3.org/1999/xlink"><defs /><rect fill="white" height="600" width="800" x="0" y="0" /><polygon fill="none" id="floor_plan_boundary" points="212.265625,181.875 212.265625,318.984375 313.515625,318.984375 315.625,405.46875 408.4375,405.46875 410.546875,458.203125 547.65625,458.203125 416.875,453.984375 414.765625,401.25 321.953125,401.25 319.84375,314.765625 216.484375,312.65625 216.484375,188.203125 313.515625,186.09375 315.625,209.296875 374.6875,209.296875 376.796875,186.09375 469.609375,186.09375 471.71875,146.015625 581.40625,146.015625 581.40625,458.203125 587.734375,458.203125 587.734375,141.796875 465.390625,141.796875 463.28125,181.875 370.46875,181.875 368.359375,205.078125 321.953125,205.078125 319.84375,181.875" stroke="black" stroke-linecap="butt" stroke-linejoin="miter" stroke-width="4" /><g id="room_living_room"><polygon fill="rgb(238,232,170)" fill-opacity="0.7" points="321.953125,285.234375 321.953125,312.65625 469.609375,312.65625 471.71875,369.609375 547.65625,369.609375 549.765625,451.875 581.40625,451.875 581.40625,188.203125 471.71875,188.203125 469.609375,285.234375" stroke="black" stroke-width="1.5" /><text dominant-baseline="middle" fill="black" font-family="Arial" font-size="12px" font-weight="bold" text-anchor="middle" x="452.734375" y="321.09375">Living Room</text></g><g id="room_master_bedroom"><polygon fill="rgb(255,165,0)" fill-opacity="0.7" points="218.59375,188.203125 218.59375,312.65625 313.515625,312.65625 313.515625,188.203125" stroke="black" stroke-width="1.5" /><text dominant-baseline="middle" fill="black" font-family="Arial" font-size="12px" font-weight="bold" text-anchor="middle" x="267.109375" y="251.484375">Master Bedroom</text></g><g id="room_common_room_2"><polygon fill="rgb(255,215,0)" fill-opacity="0.7" points="376.796875,188.203125 376.796875,276.796875 463.28125,276.796875 463.28125,188.203125" stroke="black" stroke-width="1.5" /><text dominant-baseline="middle" fill="black" font-family="Arial" font-size="12px" font-weight="bold" text-anchor="middle" x="421.09375" y="233.5546875">Common Room 2</text></g><g id="room_kitchen"><polygon fill="rgb(240,128,128)" fill-opacity="0.7" points="416.875,407.578125 416.875,451.875 541.328125,451.875 541.328125,378.046875 471.71875,378.046875 469.609375,407.578125" stroke="black" stroke-width="1.5" /><text dominant-baseline="middle" fill="black" font-family="Arial" font-size="12px" font-weight="bold" text-anchor="middle" x="480.15625" y="416.015625">Kitchen</text></g><g id="room_common_room"><polygon fill="rgb(255,215,0)" fill-opacity="0.7" points="321.953125,321.09375 321.953125,399.140625 402.109375,399.140625 402.109375,321.09375" stroke="black" stroke-width="1.5" /><text dominant-baseline="middle" fill="black" font-family="Arial" font-size="12px" font-weight="bold" text-anchor="middle" x="363.0859375" y="361.171875">Common Room</text></g><g id="room_bathroom"><polygon fill="rgb(173,216,230)" fill-opacity="0.7" points="410.546875,321.09375 410.546875,399.140625 463.28125,399.140625 463.28125,321.09375" stroke="black" stroke-width="1.5" /><text dominant-baseline="middle" fill="black" font-family="Arial" font-size="12px" font-weight="bold" text-anchor="middle" x="437.96875" y="361.171875">Bathroom</text></g><g id="room_balcony"><polygon fill="rgb(107,142,35)" fill-opacity="0.7" points="471.71875,148.125 471.71875,179.765625 581.40625,179.765625 581.40625,148.125" stroke="black" stroke-width="1.5" /><text dominant-baseline="middle" fill="black" font-family="Arial" font-size="12px" font-weight="bold" text-anchor="middle" x="527.6171875" y="165.0">Balcony</text></g><g id="room_bathroom_2"><polygon fill="rgb(173,216,230)" fill-opacity="0.7" points="321.953125,211.40625 321.953125,276.796875 368.359375,276.796875 368.359375,211.40625" stroke="black" stroke-width="1.5" /><text dominant-baseline="middle" fill="black" font-family="Arial" font-size="12px" font-weight="bold" text-anchor="middle" x="346.2109375" y="245.15625">Bathroom 2</text></g><rect fill="red" fill-opacity="0.9" height="6.328125" id="main_door" stroke="darkred" stroke-width="3" width="31.640625" x="549.765625" y="453.984375" /><text dominant-baseline="middle" fill="white" font-family="Arial" font-size="9px" font-weight="bold" text-anchor="middle" x="565.5859375" y="457.1484375">Main Door</text><text fill="black" font-family="Arial" font-size="18px" font-weight="bold" text-anchor="middle" x="400.0" y="30">Floor Plan - ID: 78580</text></svg>