<?xml version="1.0" encoding="utf-8" ?>
<svg baseProfile="full" height="600px" version="1.1" viewBox="0 0 800 600" width="800px" xmlns="http://www.w3.org/2000/svg" xmlns:ev="http://www.w3.org/2001/xml-events" xmlns:xlink="http://www.w3.org/1999/xlink"><defs /><rect fill="white" height="600" width="800" x="0" y="0" /><polygon fill="none" id="floor_plan_boundary" points="381.015625,53.203125 378.90625,80.625 313.515625,80.625 313.515625,190.3125 378.90625,190.3125 381.015625,264.140625 389.453125,264.140625 389.453125,181.875 321.953125,179.765625 321.953125,91.171875 389.453125,89.0625 391.5625,61.640625 490.703125,61.640625 492.8125,230.390625 518.125,232.5 518.125,375.9375 473.828125,378.046875 471.71875,538.359375 391.5625,538.359375 389.453125,517.265625 283.984375,517.265625 281.875,335.859375 307.1875,333.75 309.296875,306.328125 389.453125,306.328125 378.90625,297.890625 298.75,297.890625 298.75,323.203125 273.4375,325.3125 273.4375,525.703125 378.90625,525.703125 381.015625,546.796875 482.265625,546.796875 482.265625,388.59375 526.5625,386.484375 526.5625,221.953125 501.25,219.84375 501.25,53.203125" stroke="black" stroke-linecap="butt" stroke-linejoin="miter" stroke-width="4" /><g id="room_living_room"><polygon fill="rgb(238,232,170)" fill-opacity="0.7" points="391.5625,158.671875 391.5625,306.328125 362.03125,308.4375 362.03125,375.9375 516.015625,375.9375 516.015625,232.5 490.703125,230.390625 490.703125,158.671875" stroke="black" stroke-width="1.5" /><text dominant-baseline="middle" fill="black" font-family="Arial" font-size="12px" font-weight="bold" text-anchor="middle" x="440.078125" y="268.359375">Living Room</text></g><g id="room_master_bedroom"><polygon fill="rgb(255,165,0)" fill-opacity="0.7" points="283.984375,388.59375 283.984375,515.15625 378.90625,515.15625 378.90625,388.59375" stroke="black" stroke-width="1.5" /><text dominant-baseline="middle" fill="black" font-family="Arial" font-size="12px" font-weight="bold" text-anchor="middle" x="332.5" y="452.9296875">Master Bedroom</text></g><g id="room_common_room_2"><polygon fill="rgb(255,215,0)" fill-opacity="0.7" points="391.5625,63.75 391.5625,146.015625 490.703125,146.015625 490.703125,63.75" stroke="black" stroke-width="1.5" /><text dominant-baseline="middle" fill="black" font-family="Arial" font-size="12px" font-weight="bold" text-anchor="middle" x="442.1875" y="105.9375">Common Room 2</text></g><g id="room_common_room"><polygon fill="rgb(255,215,0)" fill-opacity="0.7" points="391.5625,388.59375 391.5625,487.734375 471.71875,487.734375 471.71875,388.59375" stroke="black" stroke-width="1.5" /><text dominant-baseline="middle" fill="black" font-family="Arial" font-size="12px" font-weight="bold" text-anchor="middle" x="432.6953125" y="439.21875">Common Room</text></g><g id="room_kitchen"><polygon fill="rgb(240,128,128)" fill-opacity="0.7" points="324.0625,91.171875 324.0625,179.765625 378.90625,179.765625 378.90625,91.171875" stroke="black" stroke-width="1.5" /><text dominant-baseline="middle" fill="black" font-family="Arial" font-size="12px" font-weight="bold" text-anchor="middle" x="352.5390625" y="136.5234375">Kitchen</text></g><g id="room_bathroom"><polygon fill="rgb(173,216,230)" fill-opacity="0.7" points="309.296875,308.4375 309.296875,333.75 283.984375,335.859375 283.984375,375.9375 349.375,375.9375 349.375,308.4375" stroke="black" stroke-width="1.5" /><text dominant-baseline="middle" fill="black" font-family="Arial" font-size="12px" font-weight="bold" text-anchor="middle" x="317.734375" y="343.2421875">Bathroom</text></g><g id="room_balcony"><polygon fill="rgb(107,142,35)" fill-opacity="0.7" points="391.5625,500.390625 391.5625,536.25 471.71875,536.25 471.71875,500.390625" stroke="black" stroke-width="1.5" /><text dominant-baseline="middle" fill="black" font-family="Arial" font-size="12px" font-weight="bold" text-anchor="middle" x="432.6953125" y="519.375">Balcony</text></g><rect fill="red" fill-opacity="0.9" height="35.859375" id="main_door" stroke="darkred" stroke-width="3" width="10.546875" x="381.015625" y="266.25" /><text dominant-baseline="middle" fill="white" font-family="Arial" font-size="9px" font-weight="bold" text-anchor="middle" x="386.2890625" y="284.1796875">Main Door</text><text fill="black" font-family="Arial" font-size="18px" font-weight="bold" text-anchor="middle" x="400.0" y="30">Floor Plan - ID: 78900</text></svg>