<?xml version="1.0" encoding="utf-8" ?>
<svg baseProfile="full" height="600px" version="1.1" viewBox="0 0 800 600" width="800px" xmlns="http://www.w3.org/2000/svg" xmlns:ev="http://www.w3.org/2001/xml-events" xmlns:xlink="http://www.w3.org/1999/xlink"><defs /><rect fill="white" height="600" width="800" x="0" y="0" /><polygon fill="none" id="floor_plan_boundary" points="243.90625,234.609375 243.90625,302.109375 357.8125,304.21875 357.8125,449.765625 400.0,449.765625 402.109375,435.0 442.1875,435.0 444.296875,449.765625 556.09375,449.765625 556.09375,205.078125 537.109375,202.96875 537.109375,150.234375 381.015625,150.234375 381.015625,202.96875 355.703125,209.296875 385.234375,209.296875 387.34375,154.453125 532.890625,156.5625 532.890625,209.296875 551.875,211.40625 549.765625,445.546875 450.625,445.546875 448.515625,430.78125 395.78125,430.78125 393.671875,445.546875 364.140625,445.546875 362.03125,297.890625 248.125,295.78125 248.125,240.9375 315.625,238.828125 317.734375,205.078125 311.40625,205.078125 309.296875,234.609375" stroke="black" stroke-linecap="butt" stroke-linejoin="miter" stroke-width="4" /><g id="room_living_room"><polygon fill="rgb(238,232,170)" fill-opacity="0.7" points="317.734375,211.40625 317.734375,295.78125 362.03125,295.78125 364.140625,316.875 408.4375,314.765625 412.65625,354.84375 442.1875,354.84375 446.40625,314.765625 549.765625,316.875 549.765625,211.40625" stroke="black" stroke-width="1.5" /><text dominant-baseline="middle" fill="black" font-family="Arial" font-size="12px" font-weight="bold" text-anchor="middle" x="434.8046875" y="284.1796875">Living Room</text></g><g id="room_master_bedroom"><polygon fill="rgb(255,165,0)" fill-opacity="0.7" points="450.625,325.3125 450.625,443.4375 549.765625,443.4375 549.765625,325.3125" stroke="black" stroke-width="1.5" /><text dominant-baseline="middle" fill="black" font-family="Arial" font-size="12px" font-weight="bold" text-anchor="middle" x="501.25" y="385.4296875">Master Bedroom</text></g><g id="room_common_room"><polygon fill="rgb(255,215,0)" fill-opacity="0.7" points="364.140625,325.3125 364.140625,443.4375 393.671875,443.4375 397.890625,426.5625 442.1875,428.671875 442.1875,363.28125 408.4375,365.390625 404.21875,325.3125" stroke="black" stroke-width="1.5" /><text dominant-baseline="middle" fill="black" font-family="Arial" font-size="12px" font-weight="bold" text-anchor="middle" x="404.21875" y="385.4296875">Common Room</text></g><g id="room_kitchen"><polygon fill="rgb(240,128,128)" fill-opacity="0.7" points="387.34375,156.5625 387.34375,202.96875 486.484375,202.96875 486.484375,156.5625" stroke="black" stroke-width="1.5" /><text dominant-baseline="middle" fill="black" font-family="Arial" font-size="12px" font-weight="bold" text-anchor="middle" x="437.96875" y="180.8203125">Kitchen</text></g><g id="room_bathroom"><polygon fill="rgb(173,216,230)" fill-opacity="0.7" points="250.234375,240.9375 250.234375,295.78125 309.296875,295.78125 309.296875,240.9375" stroke="black" stroke-width="1.5" /><text dominant-baseline="middle" fill="black" font-family="Arial" font-size="12px" font-weight="bold" text-anchor="middle" x="280.8203125" y="269.4140625">Bathroom</text></g><g id="room_balcony"><polygon fill="rgb(107,142,35)" fill-opacity="0.7" points="494.921875,156.5625 494.921875,202.96875 530.78125,202.96875 530.78125,156.5625" stroke="black" stroke-width="1.5" /><text dominant-baseline="middle" fill="black" font-family="Arial" font-size="12px" font-weight="bold" text-anchor="middle" x="513.90625" y="180.8203125">Balcony</text></g><rect fill="red" fill-opacity="0.9" height="6.328125" id="main_door" stroke="darkred" stroke-width="3" width="35.859375" x="319.84375" y="205.078125" /><text dominant-baseline="middle" fill="white" font-family="Arial" font-size="9px" font-weight="bold" text-anchor="middle" x="337.7734375" y="208.2421875">Main Door</text><text fill="black" font-family="Arial" font-size="18px" font-weight="bold" text-anchor="middle" x="400.0" y="30">Floor Plan - ID: 7902</text></svg>