<?xml version="1.0" encoding="utf-8" ?>
<svg baseProfile="full" height="600px" version="1.1" viewBox="0 0 800 600" width="800px" xmlns="http://www.w3.org/2000/svg" xmlns:ev="http://www.w3.org/2001/xml-events" xmlns:xlink="http://www.w3.org/1999/xlink"><defs /><rect fill="white" height="600" width="800" x="0" y="0" /><polygon fill="none" id="floor_plan_boundary" points="328.28125,59.53125 326.171875,112.265625 269.21875,112.265625 269.21875,224.0625 305.078125,224.0625 307.1875,249.375 311.40625,219.84375 273.4375,217.734375 273.4375,118.59375 332.5,116.484375 334.609375,63.75 423.203125,63.75 425.3125,116.484375 526.5625,118.59375 526.5625,534.140625 431.640625,536.25 429.53125,489.84375 311.40625,487.734375 311.40625,278.90625 307.1875,494.0625 423.203125,494.0625 425.3125,540.46875 530.78125,540.46875 530.78125,112.265625 431.640625,112.265625 429.53125,59.53125" stroke="black" stroke-linecap="butt" stroke-linejoin="miter" stroke-width="4" /><g id="room_living_room"><polygon fill="rgb(238,232,170)" fill-opacity="0.7" points="313.515625,226.171875 313.515625,487.734375 423.203125,487.734375 421.09375,314.765625 459.0625,310.546875 459.0625,238.828125 425.3125,238.828125 423.203125,226.171875" stroke="black" stroke-width="1.5" /><text dominant-baseline="middle" fill="black" font-family="Arial" font-size="12px" font-weight="bold" text-anchor="middle" x="387.34375" y="358.0078125">Living Room</text></g><g id="room_master_bedroom"><polygon fill="rgb(255,165,0)" fill-opacity="0.7" points="431.640625,318.984375 431.640625,534.140625 524.453125,534.140625 524.453125,318.984375" stroke="black" stroke-width="1.5" /><text dominant-baseline="middle" fill="black" font-family="Arial" font-size="12px" font-weight="bold" text-anchor="middle" x="479.1015625" y="427.6171875">Master Bedroom</text></g><g id="room_room_6"><polygon fill="rgb(218,112,214)" fill-opacity="0.7" points="334.609375,65.859375 334.609375,217.734375 423.203125,217.734375 423.203125,65.859375" stroke="black" stroke-width="1.5" /><text dominant-baseline="middle" fill="black" font-family="Arial" font-size="12px" font-weight="bold" text-anchor="middle" x="379.9609375" y="142.8515625">Room 6</text></g><g id="room_common_room"><polygon fill="rgb(255,215,0)" fill-opacity="0.7" points="431.640625,118.59375 431.640625,230.390625 524.453125,230.390625 524.453125,118.59375" stroke="black" stroke-width="1.5" /><text dominant-baseline="middle" fill="black" font-family="Arial" font-size="12px" font-weight="bold" text-anchor="middle" x="479.1015625" y="175.546875">Common Room</text></g><g id="room_kitchen"><polygon fill="rgb(240,128,128)" fill-opacity="0.7" points="275.546875,118.59375 275.546875,217.734375 326.171875,217.734375 326.171875,118.59375" stroke="black" stroke-width="1.5" /><text dominant-baseline="middle" fill="black" font-family="Arial" font-size="12px" font-weight="bold" text-anchor="middle" x="301.9140625" y="169.21875">Kitchen</text></g><g id="room_bathroom"><polygon fill="rgb(173,216,230)" fill-opacity="0.7" points="467.5,238.828125 467.5,310.546875 524.453125,310.546875 524.453125,238.828125" stroke="black" stroke-width="1.5" /><text dominant-baseline="middle" fill="black" font-family="Arial" font-size="12px" font-weight="bold" text-anchor="middle" x="497.03125" y="275.7421875">Bathroom</text></g><rect fill="red" fill-opacity="0.9" height="27.421875" id="main_door" stroke="darkred" stroke-width="3" width="6.328125" x="307.1875" y="251.484375" /><text dominant-baseline="middle" fill="white" font-family="Arial" font-size="9px" font-weight="bold" text-anchor="middle" x="310.3515625" y="265.1953125">Main Door</text><text fill="black" font-family="Arial" font-size="18px" font-weight="bold" text-anchor="middle" x="400.0" y="30">Floor Plan - ID: 79132</text></svg>