<?xml version="1.0" encoding="utf-8" ?>
<svg baseProfile="full" height="600px" version="1.1" viewBox="0 0 800 600" width="800px" xmlns="http://www.w3.org/2000/svg" xmlns:ev="http://www.w3.org/2001/xml-events" xmlns:xlink="http://www.w3.org/1999/xlink"><defs /><rect fill="white" height="600" width="800" x="0" y="0" /><polygon fill="none" id="floor_plan_boundary" points="277.65625,165.0 277.65625,259.921875 250.234375,262.03125 250.234375,437.109375 372.578125,437.109375 374.6875,468.75 488.59375,468.75 381.015625,464.53125 378.90625,432.890625 256.5625,432.890625 254.453125,268.359375 281.875,266.25 283.984375,169.21875 397.890625,169.21875 400.0,135.46875 513.90625,135.46875 516.015625,167.109375 545.546875,169.21875 545.546875,232.5 530.78125,234.609375 528.671875,249.375 505.46875,249.375 505.46875,430.78125 490.703125,432.890625 509.6875,437.109375 509.6875,255.703125 535.0,253.59375 535.0,240.9375 549.765625,238.828125 549.765625,162.890625 520.234375,160.78125 520.234375,131.25 393.671875,131.25 391.5625,165.0" stroke="black" stroke-linecap="butt" stroke-linejoin="miter" stroke-width="4" /><g id="room_living_room"><polygon fill="rgb(238,232,170)" fill-opacity="0.7" points="400.0,137.578125 408.4375,266.25 347.265625,268.359375 347.265625,316.875 393.671875,321.09375 381.015625,462.421875 488.59375,462.421875 488.59375,432.890625 503.359375,430.78125 492.8125,162.890625 513.90625,160.78125 513.90625,137.578125" stroke="black" stroke-width="1.5" /><text dominant-baseline="middle" fill="black" font-family="Arial" font-size="12px" font-weight="bold" text-anchor="middle" x="431.640625" y="301.0546875">Living Room</text></g><g id="room_master_bedroom"><polygon fill="rgb(255,165,0)" fill-opacity="0.7" points="256.5625,325.3125 256.5625,430.78125 383.125,430.78125 383.125,325.3125" stroke="black" stroke-width="1.5" /><text dominant-baseline="middle" fill="black" font-family="Arial" font-size="12px" font-weight="bold" text-anchor="middle" x="320.8984375" y="379.1015625">Master Bedroom</text></g><g id="room_common_room"><polygon fill="rgb(255,215,0)" fill-opacity="0.7" points="283.984375,171.328125 283.984375,259.921875 400.0,259.921875 400.0,171.328125" stroke="black" stroke-width="1.5" /><text dominant-baseline="middle" fill="black" font-family="Arial" font-size="12px" font-weight="bold" text-anchor="middle" x="343.046875" y="216.6796875">Common Room</text></g><g id="room_bathroom"><polygon fill="rgb(173,216,230)" fill-opacity="0.7" points="256.5625,268.359375 256.5625,316.875 338.828125,316.875 338.828125,268.359375" stroke="black" stroke-width="1.5" /><text dominant-baseline="middle" fill="black" font-family="Arial" font-size="12px" font-weight="bold" text-anchor="middle" x="298.75" y="293.671875">Bathroom</text></g><g id="room_kitchen"><polygon fill="rgb(240,128,128)" fill-opacity="0.7" points="501.25,169.21875 501.25,247.265625 528.671875,247.265625 528.671875,234.609375 543.4375,232.5 543.4375,169.21875" stroke="black" stroke-width="1.5" /><text dominant-baseline="middle" fill="black" font-family="Arial" font-size="12px" font-weight="bold" text-anchor="middle" x="523.3984375" y="209.296875">Kitchen</text></g><rect fill="red" fill-opacity="0.7" height="35.859375" id="door" stroke="darkred" stroke-width="2" width="6.328125" x="490.703125" y="435.0" /><text dominant-baseline="middle" fill="white" font-family="Arial" font-size="8px" font-weight="bold" text-anchor="middle" x="493.8671875" y="452.9296875">Door</text><text fill="black" font-family="Arial" font-size="18px" font-weight="bold" text-anchor="middle" x="400.0" y="30">Floor Plan - ID: 79453</text></svg>