<?xml version="1.0" encoding="utf-8" ?>
<svg baseProfile="full" height="600px" version="1.1" viewBox="0 0 800 600" width="800px" xmlns="http://www.w3.org/2000/svg" xmlns:ev="http://www.w3.org/2001/xml-events" xmlns:xlink="http://www.w3.org/1999/xlink"><defs /><rect fill="white" height="600" width="800" x="0" y="0" /><polygon fill="none" id="floor_plan_boundary" points="227.03125,95.390625 227.03125,327.421875 279.765625,329.53125 279.765625,447.65625 402.109375,447.65625 404.21875,504.609375 518.125,504.609375 520.234375,268.359375 482.265625,266.25 482.265625,226.171875 535.0,224.0625 535.0,215.625 473.828125,215.625 473.828125,276.796875 511.796875,278.90625 513.90625,498.28125 410.546875,500.390625 408.4375,439.21875 288.203125,437.109375 288.203125,318.984375 235.46875,316.875 233.359375,105.9375 562.421875,103.828125 564.53125,213.515625 572.96875,224.0625 572.96875,95.390625" stroke="black" stroke-linecap="butt" stroke-linejoin="miter" stroke-width="4" /><g id="room_living_room"><polygon fill="rgb(238,232,170)" fill-opacity="0.7" points="290.3125,105.9375 290.3125,217.734375 313.515625,219.84375 313.515625,316.875 400.0,316.875 402.109375,213.515625 562.421875,213.515625 562.421875,167.109375 505.46875,165.0 505.46875,105.9375" stroke="black" stroke-width="1.5" /><text dominant-baseline="middle" fill="black" font-family="Arial" font-size="12px" font-weight="bold" text-anchor="middle" x="427.421875" y="212.4609375">Living Room</text></g><g id="room_master_bedroom"><polygon fill="rgb(255,165,0)" fill-opacity="0.7" points="412.65625,278.90625 412.65625,437.109375 509.6875,437.109375 509.6875,278.90625" stroke="black" stroke-width="1.5" /><text dominant-baseline="middle" fill="black" font-family="Arial" font-size="12px" font-weight="bold" text-anchor="middle" x="462.2265625" y="359.0625">Master Bedroom</text></g><g id="room_common_room"><polygon fill="rgb(255,215,0)" fill-opacity="0.7" points="290.3125,329.53125 290.3125,437.109375 400.0,437.109375 400.0,329.53125" stroke="black" stroke-width="1.5" /><text dominant-baseline="middle" fill="black" font-family="Arial" font-size="12px" font-weight="bold" text-anchor="middle" x="346.2109375" y="384.375">Common Room</text></g><g id="room_kitchen"><polygon fill="rgb(240,128,128)" fill-opacity="0.7" points="237.578125,230.390625 237.578125,316.875 300.859375,316.875 300.859375,230.390625" stroke="black" stroke-width="1.5" /><text dominant-baseline="middle" fill="black" font-family="Arial" font-size="12px" font-weight="bold" text-anchor="middle" x="270.2734375" y="274.6875">Kitchen</text></g><g id="room_balcony"><polygon fill="rgb(107,142,35)" fill-opacity="0.7" points="410.546875,449.765625 410.546875,498.28125 511.796875,498.28125 511.796875,449.765625" stroke="black" stroke-width="1.5" /><text dominant-baseline="middle" fill="black" font-family="Arial" font-size="12px" font-weight="bold" text-anchor="middle" x="462.2265625" y="475.078125">Balcony</text></g><g id="room_balcony_2"><polygon fill="rgb(107,142,35)" fill-opacity="0.7" points="235.46875,105.9375 235.46875,217.734375 277.65625,217.734375 277.65625,105.9375" stroke="black" stroke-width="1.5" /><text dominant-baseline="middle" fill="black" font-family="Arial" font-size="12px" font-weight="bold" text-anchor="middle" x="257.6171875" y="162.890625">Balcony 2</text></g><g id="room_bathroom"><polygon fill="rgb(173,216,230)" fill-opacity="0.7" points="412.65625,226.171875 412.65625,266.25 471.71875,266.25 471.71875,226.171875" stroke="black" stroke-width="1.5" /><text dominant-baseline="middle" fill="black" font-family="Arial" font-size="12px" font-weight="bold" text-anchor="middle" x="443.2421875" y="247.265625">Bathroom</text></g><g id="room_bathroom_2"><polygon fill="rgb(173,216,230)" fill-opacity="0.7" points="518.125,105.9375 518.125,158.671875 562.421875,158.671875 562.421875,105.9375" stroke="black" stroke-width="1.5" /><text dominant-baseline="middle" fill="black" font-family="Arial" font-size="12px" font-weight="bold" text-anchor="middle" x="541.328125" y="133.359375">Bathroom 2</text></g><rect fill="red" fill-opacity="0.9" height="10.546875" id="main_door" stroke="darkred" stroke-width="3" width="31.640625" x="537.109375" y="215.625" /><text dominant-baseline="middle" fill="white" font-family="Arial" font-size="9px" font-weight="bold" text-anchor="middle" x="552.9296875" y="220.8984375">Main Door</text><text fill="black" font-family="Arial" font-size="18px" font-weight="bold" text-anchor="middle" x="400.0" y="30">Floor Plan - ID: 79630</text></svg>