<?xml version="1.0" encoding="utf-8" ?>
<svg baseProfile="full" height="600px" version="1.1" viewBox="0 0 800 600" width="800px" xmlns="http://www.w3.org/2000/svg" xmlns:ev="http://www.w3.org/2001/xml-events" xmlns:xlink="http://www.w3.org/1999/xlink"><defs /><rect fill="white" height="600" width="800" x="0" y="0" /><polygon fill="none" id="floor_plan_boundary" points="271.328125,103.828125 271.328125,496.171875 528.671875,496.171875 528.671875,262.03125 461.171875,262.03125 459.0625,247.265625 454.84375,266.25 524.453125,268.359375 524.453125,489.84375 275.546875,489.84375 275.546875,110.15625 452.734375,108.046875 459.0625,209.296875 459.0625,103.828125" stroke="black" stroke-linecap="butt" stroke-linejoin="miter" stroke-width="4" /><g id="room_living_room"><polygon fill="rgb(238,232,170)" fill-opacity="0.7" points="452.734375,169.21875 381.015625,169.21875 376.796875,221.953125 277.65625,219.84375 277.65625,350.625 452.734375,350.625" stroke="black" stroke-width="1.5" /><text dominant-baseline="middle" fill="black" font-family="Arial" font-size="12px" font-weight="bold" text-anchor="middle" x="366.25" y="260.9765625">Living Room</text></g><g id="room_master_bedroom"><polygon fill="rgb(255,165,0)" fill-opacity="0.7" points="404.21875,359.0625 404.21875,489.84375 522.34375,489.84375 522.34375,359.0625" stroke="black" stroke-width="1.5" /><text dominant-baseline="middle" fill="black" font-family="Arial" font-size="12px" font-weight="bold" text-anchor="middle" x="464.3359375" y="425.5078125">Master Bedroom</text></g><g id="room_common_room"><polygon fill="rgb(255,215,0)" fill-opacity="0.7" points="277.65625,359.0625 277.65625,458.203125 395.78125,458.203125 395.78125,359.0625" stroke="black" stroke-width="1.5" /><text dominant-baseline="middle" fill="black" font-family="Arial" font-size="12px" font-weight="bold" text-anchor="middle" x="337.7734375" y="409.6875">Common Room</text></g><g id="room_common_room_2"><polygon fill="rgb(255,215,0)" fill-opacity="0.7" points="277.65625,110.15625 277.65625,211.40625 372.578125,211.40625 372.578125,110.15625" stroke="black" stroke-width="1.5" /><text dominant-baseline="middle" fill="black" font-family="Arial" font-size="12px" font-weight="bold" text-anchor="middle" x="326.171875" y="161.8359375">Common Room 2</text></g><g id="room_kitchen"><polygon fill="rgb(240,128,128)" fill-opacity="0.7" points="381.015625,110.15625 381.015625,160.78125 452.734375,160.78125 452.734375,110.15625" stroke="black" stroke-width="1.5" /><text dominant-baseline="middle" fill="black" font-family="Arial" font-size="12px" font-weight="bold" text-anchor="middle" x="417.9296875" y="136.5234375">Kitchen</text></g><g id="room_balcony"><polygon fill="rgb(107,142,35)" fill-opacity="0.7" points="277.65625,466.640625 277.65625,489.84375 395.78125,489.84375 395.78125,466.640625" stroke="black" stroke-width="1.5" /><text dominant-baseline="middle" fill="black" font-family="Arial" font-size="12px" font-weight="bold" text-anchor="middle" x="337.7734375" y="479.296875">Balcony</text></g><g id="room_bathroom"><polygon fill="rgb(173,216,230)" fill-opacity="0.7" points="461.171875,312.65625 461.171875,350.625 522.34375,350.625 522.34375,312.65625" stroke="black" stroke-width="1.5" /><text dominant-baseline="middle" fill="black" font-family="Arial" font-size="12px" font-weight="bold" text-anchor="middle" x="492.8125" y="332.6953125">Bathroom</text></g><g id="room_bathroom_2"><polygon fill="rgb(173,216,230)" fill-opacity="0.7" points="461.171875,268.359375 461.171875,304.21875 522.34375,304.21875 522.34375,268.359375" stroke="black" stroke-width="1.5" /><text dominant-baseline="middle" fill="black" font-family="Arial" font-size="12px" font-weight="bold" text-anchor="middle" x="492.8125" y="287.34375">Bathroom 2</text></g><rect fill="red" fill-opacity="0.9" height="35.859375" id="main_door" stroke="darkred" stroke-width="3" width="6.328125" x="454.84375" y="211.40625" /><text dominant-baseline="middle" fill="white" font-family="Arial" font-size="9px" font-weight="bold" text-anchor="middle" x="458.0078125" y="229.3359375">Main Door</text><text fill="black" font-family="Arial" font-size="18px" font-weight="bold" text-anchor="middle" x="400.0" y="30">Floor Plan - ID: 79705</text></svg>