<?xml version="1.0" encoding="utf-8" ?>
<svg baseProfile="full" height="600px" version="1.1" viewBox="0 0 800 600" width="800px" xmlns="http://www.w3.org/2000/svg" xmlns:ev="http://www.w3.org/2001/xml-events" xmlns:xlink="http://www.w3.org/1999/xlink"><defs /><rect fill="white" height="600" width="800" x="0" y="0" /><polygon fill="none" id="floor_plan_boundary" points="250.234375,162.890625 250.234375,500.390625 321.953125,500.390625 321.953125,466.640625 347.265625,464.53125 349.375,527.8125 549.765625,527.8125 549.765625,363.28125 444.296875,363.28125 442.1875,331.640625 435.859375,367.5 545.546875,369.609375 543.4375,523.59375 355.703125,523.59375 353.59375,460.3125 317.734375,460.3125 315.625,496.171875 254.453125,494.0625 254.453125,169.21875 440.078125,167.109375 442.1875,78.515625 503.359375,76.40625 505.46875,217.734375 435.859375,219.84375 442.1875,293.671875 442.1875,226.171875 509.6875,224.0625 509.6875,72.1875 435.859375,72.1875 435.859375,162.890625" stroke="black" stroke-linecap="butt" stroke-linejoin="miter" stroke-width="4" /><g id="room_living_room"><polygon fill="rgb(238,232,170)" fill-opacity="0.7" points="355.703125,169.21875 355.703125,259.921875 326.171875,262.03125 326.171875,323.203125 355.703125,325.3125 355.703125,521.484375 454.84375,521.484375 454.84375,409.6875 497.03125,407.578125 497.03125,369.609375 433.75,367.5 435.859375,169.21875" stroke="black" stroke-width="1.5" /><text dominant-baseline="middle" fill="black" font-family="Arial" font-size="12px" font-weight="bold" text-anchor="middle" x="412.65625" y="346.40625">Living Room</text></g><g id="room_master_bedroom"><polygon fill="rgb(255,165,0)" fill-opacity="0.7" points="256.5625,331.640625 256.5625,494.0625 315.625,494.0625 315.625,460.3125 347.265625,458.203125 347.265625,331.640625" stroke="black" stroke-width="1.5" /><text dominant-baseline="middle" fill="black" font-family="Arial" font-size="12px" font-weight="bold" text-anchor="middle" x="302.96875" y="413.90625">Master Bedroom</text></g><g id="room_common_room"><polygon fill="rgb(255,215,0)" fill-opacity="0.7" points="463.28125,416.015625 463.28125,521.484375 543.4375,521.484375 543.4375,416.015625" stroke="black" stroke-width="1.5" /><text dominant-baseline="middle" fill="black" font-family="Arial" font-size="12px" font-weight="bold" text-anchor="middle" x="504.4140625" y="469.8046875">Common Room</text></g><g id="room_common_room_2"><polygon fill="rgb(255,215,0)" fill-opacity="0.7" points="256.5625,169.21875 256.5625,253.59375 347.265625,253.59375 347.265625,169.21875" stroke="black" stroke-width="1.5" /><text dominant-baseline="middle" fill="black" font-family="Arial" font-size="12px" font-weight="bold" text-anchor="middle" x="302.96875" y="212.4609375">Common Room 2</text></g><g id="room_kitchen"><polygon fill="rgb(240,128,128)" fill-opacity="0.7" points="444.296875,124.921875 444.296875,217.734375 503.359375,217.734375 503.359375,124.921875" stroke="black" stroke-width="1.5" /><text dominant-baseline="middle" fill="black" font-family="Arial" font-size="12px" font-weight="bold" text-anchor="middle" x="474.8828125" y="172.3828125">Kitchen</text></g><g id="room_bathroom_2"><polygon fill="rgb(173,216,230)" fill-opacity="0.7" points="256.5625,262.03125 256.5625,323.203125 317.734375,323.203125 317.734375,262.03125" stroke="black" stroke-width="1.5" /><text dominant-baseline="middle" fill="black" font-family="Arial" font-size="12px" font-weight="bold" text-anchor="middle" x="288.203125" y="293.671875">Bathroom 2</text></g><g id="room_balcony"><polygon fill="rgb(107,142,35)" fill-opacity="0.7" points="444.296875,78.515625 444.296875,116.484375 503.359375,116.484375 503.359375,78.515625" stroke="black" stroke-width="1.5" /><text dominant-baseline="middle" fill="black" font-family="Arial" font-size="12px" font-weight="bold" text-anchor="middle" x="474.8828125" y="98.5546875">Balcony</text></g><g id="room_bathroom"><polygon fill="rgb(173,216,230)" fill-opacity="0.7" points="505.46875,369.609375 505.46875,407.578125 543.4375,407.578125 543.4375,369.609375" stroke="black" stroke-width="1.5" /><text dominant-baseline="middle" fill="black" font-family="Arial" font-size="12px" font-weight="bold" text-anchor="middle" x="525.5078125" y="389.6484375">Bathroom</text></g><rect fill="red" fill-opacity="0.9" height="35.859375" id="main_door" stroke="darkred" stroke-width="3" width="6.328125" x="437.96875" y="295.78125" /><text dominant-baseline="middle" fill="white" font-family="Arial" font-size="9px" font-weight="bold" text-anchor="middle" x="441.1328125" y="313.7109375">Main Door</text><text fill="black" font-family="Arial" font-size="18px" font-weight="bold" text-anchor="middle" x="400.0" y="30">Floor Plan - ID: 79855</text></svg>