<?xml version="1.0" encoding="utf-8" ?>
<svg baseProfile="full" height="600px" version="1.1" viewBox="0 0 800 600" width="800px" xmlns="http://www.w3.org/2000/svg" xmlns:ev="http://www.w3.org/2001/xml-events" xmlns:xlink="http://www.w3.org/1999/xlink"><defs /><rect fill="white" height="600" width="800" x="0" y="0" /><polygon fill="none" id="floor_plan_boundary" points="279.765625,120.703125 279.765625,498.28125 520.234375,498.28125 520.234375,171.328125 452.734375,171.328125 450.625,101.71875 345.15625,101.71875 343.046875,124.921875 349.375,124.921875 351.484375,105.9375 444.296875,105.9375 446.40625,175.546875 516.015625,177.65625 516.015625,491.953125 283.984375,491.953125 283.984375,127.03125 296.640625,120.703125" stroke="black" stroke-linecap="butt" stroke-linejoin="miter" stroke-width="4" /><g id="room_living_room"><polygon fill="rgb(238,232,170)" fill-opacity="0.7" points="286.09375,127.03125 286.09375,401.25 406.328125,401.25 406.328125,318.984375 444.296875,316.875 444.296875,272.578125 406.328125,270.46875 406.328125,177.65625 345.15625,177.65625 343.046875,127.03125" stroke="black" stroke-width="1.5" /><text dominant-baseline="middle" fill="black" font-family="Arial" font-size="12px" font-weight="bold" text-anchor="middle" x="366.25" y="265.1953125">Living Room</text></g><g id="room_master_bedroom"><polygon fill="rgb(255,165,0)" fill-opacity="0.7" points="414.765625,325.3125 414.765625,491.953125 513.90625,491.953125 513.90625,325.3125" stroke="black" stroke-width="1.5" /><text dominant-baseline="middle" fill="black" font-family="Arial" font-size="12px" font-weight="bold" text-anchor="middle" x="465.390625" y="409.6875">Master Bedroom</text></g><g id="room_common_room"><polygon fill="rgb(255,215,0)" fill-opacity="0.7" points="286.09375,409.6875 286.09375,491.953125 406.328125,491.953125 406.328125,409.6875" stroke="black" stroke-width="1.5" /><text dominant-baseline="middle" fill="black" font-family="Arial" font-size="12px" font-weight="bold" text-anchor="middle" x="347.265625" y="451.875">Common Room</text></g><g id="room_common_room_2"><polygon fill="rgb(255,215,0)" fill-opacity="0.7" points="414.765625,177.65625 414.765625,264.140625 513.90625,264.140625 513.90625,177.65625" stroke="black" stroke-width="1.5" /><text dominant-baseline="middle" fill="black" font-family="Arial" font-size="12px" font-weight="bold" text-anchor="middle" x="465.390625" y="221.953125">Common Room 2</text></g><g id="room_kitchen"><polygon fill="rgb(240,128,128)" fill-opacity="0.7" points="351.484375,108.046875 351.484375,169.21875 444.296875,169.21875 444.296875,108.046875" stroke="black" stroke-width="1.5" /><text dominant-baseline="middle" fill="black" font-family="Arial" font-size="12px" font-weight="bold" text-anchor="middle" x="398.9453125" y="139.6875">Kitchen</text></g><g id="room_bathroom"><polygon fill="rgb(173,216,230)" fill-opacity="0.7" points="452.734375,272.578125 452.734375,316.875 513.90625,316.875 513.90625,272.578125" stroke="black" stroke-width="1.5" /><text dominant-baseline="middle" fill="black" font-family="Arial" font-size="12px" font-weight="bold" text-anchor="middle" x="484.375" y="295.78125">Bathroom</text></g><rect fill="red" fill-opacity="0.9" height="6.328125" id="main_door" stroke="darkred" stroke-width="3" width="44.296875" x="298.75" y="120.703125" /><text dominant-baseline="middle" fill="white" font-family="Arial" font-size="9px" font-weight="bold" text-anchor="middle" x="320.8984375" y="123.8671875">Main Door</text><text fill="black" font-family="Arial" font-size="18px" font-weight="bold" text-anchor="middle" x="400.0" y="30">Floor Plan - ID: 79967</text></svg>