<?xml version="1.0" encoding="utf-8" ?>
<svg baseProfile="full" height="600px" version="1.1" viewBox="0 0 800 600" width="800px" xmlns="http://www.w3.org/2000/svg" xmlns:ev="http://www.w3.org/2001/xml-events" xmlns:xlink="http://www.w3.org/1999/xlink"><defs /><rect fill="white" height="600" width="800" x="0" y="0" /><polygon fill="none" id="floor_plan_boundary" points="326.171875,124.921875 324.0625,169.21875 265.0,169.21875 265.0,430.78125 381.015625,430.78125 383.125,475.078125 486.484375,475.078125 486.484375,310.546875 535.0,304.21875 482.265625,304.21875 480.15625,470.859375 389.453125,470.859375 387.34375,426.5625 269.21875,424.453125 269.21875,175.546875 330.390625,173.4375 332.5,129.140625 528.671875,129.140625 535.0,266.25 535.0,124.921875" stroke="black" stroke-linecap="butt" stroke-linejoin="miter" stroke-width="4" /><g id="room_living_room"><polygon fill="rgb(238,232,170)" fill-opacity="0.7" points="370.46875,175.546875 370.46875,272.578125 336.71875,274.6875 336.71875,318.984375 370.46875,321.09375 370.46875,424.453125 389.453125,426.5625 389.453125,468.75 480.15625,468.75 480.15625,304.21875 528.671875,302.109375 528.671875,257.8125 482.265625,257.8125 480.15625,215.625 397.890625,215.625 395.78125,175.546875" stroke="black" stroke-width="1.5" /><text dominant-baseline="middle" fill="black" font-family="Arial" font-size="12px" font-weight="bold" text-anchor="middle" x="433.75" y="323.203125">Living Room</text></g><g id="room_master_bedroom"><polygon fill="rgb(255,165,0)" fill-opacity="0.7" points="271.328125,327.421875 271.328125,424.453125 362.03125,424.453125 362.03125,327.421875" stroke="black" stroke-width="1.5" /><text dominant-baseline="middle" fill="black" font-family="Arial" font-size="12px" font-weight="bold" text-anchor="middle" x="317.734375" y="376.9921875">Master Bedroom</text></g><g id="room_common_room"><polygon fill="rgb(255,215,0)" fill-opacity="0.7" points="271.328125,175.546875 271.328125,266.25 362.03125,266.25 362.03125,175.546875" stroke="black" stroke-width="1.5" /><text dominant-baseline="middle" fill="black" font-family="Arial" font-size="12px" font-weight="bold" text-anchor="middle" x="317.734375" y="221.953125">Common Room</text></g><g id="room_common_room_2"><polygon fill="rgb(255,215,0)" fill-opacity="0.7" points="404.21875,131.25 404.21875,207.1875 480.15625,207.1875 480.15625,131.25" stroke="black" stroke-width="1.5" /><text dominant-baseline="middle" fill="black" font-family="Arial" font-size="12px" font-weight="bold" text-anchor="middle" x="443.2421875" y="170.2734375">Common Room 2</text></g><g id="room_kitchen"><polygon fill="rgb(240,128,128)" fill-opacity="0.7" points="488.59375,131.25 488.59375,249.375 528.671875,249.375 528.671875,131.25" stroke="black" stroke-width="1.5" /><text dominant-baseline="middle" fill="black" font-family="Arial" font-size="12px" font-weight="bold" text-anchor="middle" x="509.6875" y="191.3671875">Kitchen</text></g><g id="room_bathroom"><polygon fill="rgb(173,216,230)" fill-opacity="0.7" points="271.328125,274.6875 271.328125,318.984375 328.28125,318.984375 328.28125,274.6875" stroke="black" stroke-width="1.5" /><text dominant-baseline="middle" fill="black" font-family="Arial" font-size="12px" font-weight="bold" text-anchor="middle" x="300.859375" y="297.890625">Bathroom</text></g><g id="room_bathroom_2"><polygon fill="rgb(173,216,230)" fill-opacity="0.7" points="332.5,131.25 332.5,167.109375 395.78125,167.109375 395.78125,131.25" stroke="black" stroke-width="1.5" /><text dominant-baseline="middle" fill="black" font-family="Arial" font-size="12px" font-weight="bold" text-anchor="middle" x="365.1953125" y="150.234375">Bathroom 2</text></g><rect fill="red" fill-opacity="0.9" height="35.859375" id="main_door" stroke="darkred" stroke-width="3" width="6.328125" x="530.78125" y="268.359375" /><text dominant-baseline="middle" fill="white" font-family="Arial" font-size="9px" font-weight="bold" text-anchor="middle" x="533.9453125" y="286.2890625">Main Door</text><text fill="black" font-family="Arial" font-size="18px" font-weight="bold" text-anchor="middle" x="400.0" y="30">Floor Plan - ID: 80026</text></svg>