<?xml version="1.0" encoding="utf-8" ?>
<svg baseProfile="full" height="600px" version="1.1" viewBox="0 0 800 600" width="800px" xmlns="http://www.w3.org/2000/svg" xmlns:ev="http://www.w3.org/2001/xml-events" xmlns:xlink="http://www.w3.org/1999/xlink"><defs /><rect fill="white" height="600" width="800" x="0" y="0" /><polygon fill="none" id="floor_plan_boundary" points="239.6875,114.375 246.015625,122.8125 334.609375,122.8125 336.71875,162.890625 543.4375,171.328125 545.546875,268.359375 572.96875,270.46875 572.96875,316.875 543.4375,318.984375 541.328125,477.1875 442.1875,477.1875 440.078125,388.59375 338.828125,388.59375 336.71875,426.5625 229.140625,426.5625 224.921875,211.40625 243.90625,209.296875 239.6875,146.015625 239.6875,202.96875 220.703125,205.078125 218.59375,435.0 345.15625,435.0 345.15625,392.8125 433.75,392.8125 435.859375,485.625 551.875,485.625 551.875,329.53125 581.40625,327.421875 581.40625,259.921875 553.984375,257.8125 553.984375,162.890625 347.265625,154.453125 345.15625,114.375" stroke="black" stroke-linecap="butt" stroke-linejoin="miter" stroke-width="4" /><g id="room_living_room"><polygon fill="rgb(238,232,170)" fill-opacity="0.7" points="246.015625,124.921875 246.015625,209.296875 227.03125,211.40625 229.140625,424.453125 336.71875,424.453125 334.609375,287.34375 497.03125,285.234375 497.03125,255.703125 461.171875,253.59375 461.171875,217.734375 414.765625,217.734375 412.65625,255.703125 336.71875,255.703125 334.609375,124.921875" stroke="black" stroke-width="1.5" /><text dominant-baseline="middle" fill="black" font-family="Arial" font-size="12px" font-weight="bold" text-anchor="middle" x="363.0859375" y="275.7421875">Living Room</text></g><g id="room_master_bedroom"><polygon fill="rgb(255,165,0)" fill-opacity="0.7" points="442.1875,293.671875 442.1875,475.078125 541.328125,475.078125 541.328125,321.09375 499.140625,321.09375 497.03125,293.671875" stroke="black" stroke-width="1.5" /><text dominant-baseline="middle" fill="black" font-family="Arial" font-size="12px" font-weight="bold" text-anchor="middle" x="492.8125" y="385.4296875">Master Bedroom</text></g><g id="room_common_room"><polygon fill="rgb(255,215,0)" fill-opacity="0.7" points="347.265625,293.671875 347.265625,386.484375 433.75,386.484375 433.75,293.671875" stroke="black" stroke-width="1.5" /><text dominant-baseline="middle" fill="black" font-family="Arial" font-size="12px" font-weight="bold" text-anchor="middle" x="391.5625" y="341.1328125">Common Room</text></g><g id="room_common_room_2"><polygon fill="rgb(255,215,0)" fill-opacity="0.7" points="473.828125,173.4375 473.828125,243.046875 507.578125,243.046875 509.6875,257.8125 543.4375,257.8125 543.4375,173.4375" stroke="black" stroke-width="1.5" /><text dominant-baseline="middle" fill="black" font-family="Arial" font-size="12px" font-weight="bold" text-anchor="middle" x="509.6875" y="216.6796875">Common Room 2</text></g><g id="room_kitchen"><polygon fill="rgb(240,128,128)" fill-opacity="0.7" points="347.265625,165.0 347.265625,243.046875 406.328125,243.046875 406.328125,165.0" stroke="black" stroke-width="1.5" /><text dominant-baseline="middle" fill="black" font-family="Arial" font-size="12px" font-weight="bold" text-anchor="middle" x="377.8515625" y="205.078125">Kitchen</text></g><g id="room_bathroom"><polygon fill="rgb(173,216,230)" fill-opacity="0.7" points="509.6875,270.46875 509.6875,308.4375 551.875,308.4375 553.984375,316.875 570.859375,316.875 570.859375,270.46875" stroke="black" stroke-width="1.5" /><text dominant-baseline="middle" fill="black" font-family="Arial" font-size="12px" font-weight="bold" text-anchor="middle" x="541.328125" y="294.7265625">Bathroom</text></g><g id="room_bathroom_2"><polygon fill="rgb(173,216,230)" fill-opacity="0.7" points="414.765625,165.0 414.765625,209.296875 461.171875,209.296875 461.171875,165.0" stroke="black" stroke-width="1.5" /><text dominant-baseline="middle" fill="black" font-family="Arial" font-size="12px" font-weight="bold" text-anchor="middle" x="439.0234375" y="188.203125">Bathroom 2</text></g><rect fill="red" fill-opacity="0.9" height="27.421875" id="main_door" stroke="darkred" stroke-width="3" width="6.328125" x="239.6875" y="118.59375" /><text dominant-baseline="middle" fill="white" font-family="Arial" font-size="9px" font-weight="bold" text-anchor="middle" x="242.8515625" y="132.3046875">Main Door</text><text fill="black" font-family="Arial" font-size="18px" font-weight="bold" text-anchor="middle" x="400.0" y="30">Floor Plan - ID: 80077</text></svg>