<?xml version="1.0" encoding="utf-8" ?>
<svg baseProfile="full" height="600px" version="1.1" viewBox="0 0 800 600" width="800px" xmlns="http://www.w3.org/2000/svg" xmlns:ev="http://www.w3.org/2001/xml-events" xmlns:xlink="http://www.w3.org/1999/xlink"><defs /><rect fill="white" height="600" width="800" x="0" y="0" /><polygon fill="none" id="floor_plan_boundary" points="298.75,53.203125 294.53125,133.359375 307.1875,133.359375 309.296875,61.640625 368.359375,61.640625 370.46875,133.359375 461.171875,135.46875 461.171875,259.921875 539.21875,262.03125 539.21875,491.953125 404.21875,494.0625 402.109375,538.359375 302.96875,536.25 302.96875,350.625 260.78125,348.515625 260.78125,124.921875 252.34375,124.921875 252.34375,359.0625 294.53125,361.171875 294.53125,546.796875 412.65625,546.796875 414.765625,502.5 547.65625,502.5 547.65625,251.484375 469.609375,249.375 469.609375,124.921875 381.015625,124.921875 378.90625,53.203125" stroke="black" stroke-linecap="butt" stroke-linejoin="miter" stroke-width="4" /><g id="room_living_room"><polygon fill="rgb(238,232,170)" fill-opacity="0.7" points="262.890625,135.46875 262.890625,285.234375 372.578125,285.234375 374.6875,403.359375 402.109375,403.359375 402.109375,251.484375 459.0625,249.375 459.0625,135.46875" stroke="black" stroke-width="1.5" /><text dominant-baseline="middle" fill="black" font-family="Arial" font-size="12px" font-weight="bold" text-anchor="middle" x="362.03125" y="270.46875">Living Room</text></g><g id="room_master_bedroom"><polygon fill="rgb(255,165,0)" fill-opacity="0.7" points="305.078125,416.015625 305.078125,536.25 402.109375,536.25 402.109375,416.015625" stroke="black" stroke-width="1.5" /><text dominant-baseline="middle" fill="black" font-family="Arial" font-size="12px" font-weight="bold" text-anchor="middle" x="354.6484375" y="477.1875">Master Bedroom</text></g><g id="room_common_room"><polygon fill="rgb(255,215,0)" fill-opacity="0.7" points="414.765625,361.171875 414.765625,447.65625 537.109375,447.65625 537.109375,361.171875" stroke="black" stroke-width="1.5" /><text dominant-baseline="middle" fill="black" font-family="Arial" font-size="12px" font-weight="bold" text-anchor="middle" x="476.9921875" y="405.46875">Common Room</text></g><g id="room_common_room_2"><polygon fill="rgb(255,215,0)" fill-opacity="0.7" points="414.765625,262.03125 414.765625,348.515625 537.109375,348.515625 537.109375,262.03125" stroke="black" stroke-width="1.5" /><text dominant-baseline="middle" fill="black" font-family="Arial" font-size="12px" font-weight="bold" text-anchor="middle" x="476.9921875" y="306.328125">Common Room 2</text></g><g id="room_kitchen"><polygon fill="rgb(240,128,128)" fill-opacity="0.7" points="262.890625,297.890625 262.890625,348.515625 362.03125,348.515625 362.03125,297.890625" stroke="black" stroke-width="1.5" /><text dominant-baseline="middle" fill="black" font-family="Arial" font-size="12px" font-weight="bold" text-anchor="middle" x="313.515625" y="324.2578125">Kitchen</text></g><g id="room_balcony"><polygon fill="rgb(107,142,35)" fill-opacity="0.7" points="414.765625,460.3125 414.765625,491.953125 537.109375,491.953125 537.109375,460.3125" stroke="black" stroke-width="1.5" /><text dominant-baseline="middle" fill="black" font-family="Arial" font-size="12px" font-weight="bold" text-anchor="middle" x="476.9921875" y="477.1875">Balcony</text></g><g id="room_bathroom_2"><polygon fill="rgb(173,216,230)" fill-opacity="0.7" points="309.296875,63.75 309.296875,122.8125 368.359375,122.8125 368.359375,63.75" stroke="black" stroke-width="1.5" /><text dominant-baseline="middle" fill="black" font-family="Arial" font-size="12px" font-weight="bold" text-anchor="middle" x="339.8828125" y="94.3359375">Bathroom 2</text></g><g id="room_bathroom"><polygon fill="rgb(173,216,230)" fill-opacity="0.7" points="305.078125,361.171875 305.078125,403.359375 362.03125,403.359375 362.03125,361.171875" stroke="black" stroke-width="1.5" /><text dominant-baseline="middle" fill="black" font-family="Arial" font-size="12px" font-weight="bold" text-anchor="middle" x="334.609375" y="383.3203125">Bathroom</text></g><rect fill="red" fill-opacity="0.9" height="10.546875" id="main_door" stroke="darkred" stroke-width="3" width="31.640625" x="262.890625" y="124.921875" /><text dominant-baseline="middle" fill="white" font-family="Arial" font-size="9px" font-weight="bold" text-anchor="middle" x="278.7109375" y="130.1953125">Main Door</text><text fill="black" font-family="Arial" font-size="18px" font-weight="bold" text-anchor="middle" x="400.0" y="30">Floor Plan - ID: 80158</text></svg>