<?xml version="1.0" encoding="utf-8" ?>
<svg baseProfile="full" height="600px" version="1.1" viewBox="0 0 800 600" width="800px" xmlns="http://www.w3.org/2000/svg" xmlns:ev="http://www.w3.org/2001/xml-events" xmlns:xlink="http://www.w3.org/1999/xlink"><defs /><rect fill="white" height="600" width="800" x="0" y="0" /><polygon fill="none" id="floor_plan_boundary" points="271.328125,84.84375 271.328125,188.203125 227.03125,190.3125 227.03125,321.09375 271.328125,323.203125 271.328125,508.828125 383.125,508.828125 385.234375,475.078125 467.5,475.078125 469.609375,515.15625 572.96875,515.15625 572.96875,316.875 522.34375,314.765625 522.34375,283.125 507.578125,281.015625 507.578125,234.609375 452.734375,238.828125 501.25,238.828125 503.359375,287.34375 518.125,289.453125 518.125,321.09375 568.75,323.203125 568.75,508.828125 475.9375,510.9375 473.828125,470.859375 378.90625,470.859375 376.796875,504.609375 275.546875,502.5 275.546875,316.875 231.25,314.765625 231.25,196.640625 275.546875,194.53125 277.65625,89.0625 444.296875,89.0625 450.625,198.75 450.625,84.84375" stroke="black" stroke-linecap="butt" stroke-linejoin="miter" stroke-width="4" /><g id="room_living_room"><polygon fill="rgb(238,232,170)" fill-opacity="0.7" points="444.296875,91.171875 345.15625,91.171875 345.15625,194.53125 277.65625,196.640625 277.65625,314.765625 334.609375,314.765625 336.71875,373.828125 376.796875,373.828125 378.90625,342.1875 435.859375,342.1875" stroke="black" stroke-width="1.5" /><text dominant-baseline="middle" fill="black" font-family="Arial" font-size="12px" font-weight="bold" text-anchor="middle" x="362.03125" y="233.5546875">Living Room</text></g><g id="room_master_bedroom"><polygon fill="rgb(255,165,0)" fill-opacity="0.7" points="444.296875,323.203125 444.296875,342.1875 478.046875,346.40625 475.9375,508.828125 566.640625,508.828125 566.640625,323.203125" stroke="black" stroke-width="1.5" /><text dominant-baseline="middle" fill="black" font-family="Arial" font-size="12px" font-weight="bold" text-anchor="middle" x="506.5234375" y="417.0703125">Master Bedroom</text></g><g id="room_common_room"><polygon fill="rgb(255,215,0)" fill-opacity="0.7" points="277.65625,382.265625 277.65625,502.5 376.796875,502.5 376.796875,382.265625" stroke="black" stroke-width="1.5" /><text dominant-baseline="middle" fill="black" font-family="Arial" font-size="12px" font-weight="bold" text-anchor="middle" x="328.28125" y="443.4375">Common Room</text></g><g id="room_common_room_2"><polygon fill="rgb(255,215,0)" fill-opacity="0.7" points="385.234375,350.625 385.234375,468.75 467.5,468.75 467.5,350.625" stroke="black" stroke-width="1.5" /><text dominant-baseline="middle" fill="black" font-family="Arial" font-size="12px" font-weight="bold" text-anchor="middle" x="427.421875" y="410.7421875">Common Room 2</text></g><g id="room_kitchen"><polygon fill="rgb(240,128,128)" fill-opacity="0.7" points="277.65625,91.171875 277.65625,188.203125 336.71875,188.203125 336.71875,91.171875" stroke="black" stroke-width="1.5" /><text dominant-baseline="middle" fill="black" font-family="Arial" font-size="12px" font-weight="bold" text-anchor="middle" x="308.2421875" y="140.7421875">Kitchen</text></g><g id="room_balcony"><polygon fill="rgb(107,142,35)" fill-opacity="0.7" points="233.359375,196.640625 233.359375,314.765625 269.21875,314.765625 269.21875,196.640625" stroke="black" stroke-width="1.5" /><text dominant-baseline="middle" fill="black" font-family="Arial" font-size="12px" font-weight="bold" text-anchor="middle" x="252.34375" y="256.7578125">Balcony</text></g><g id="room_bathroom_2"><polygon fill="rgb(173,216,230)" fill-opacity="0.7" points="452.734375,240.9375 452.734375,314.765625 516.015625,314.765625 516.015625,289.453125 503.359375,289.453125 499.140625,285.234375 501.25,240.9375" stroke="black" stroke-width="1.5" /><text dominant-baseline="middle" fill="black" font-family="Arial" font-size="12px" font-weight="bold" text-anchor="middle" x="485.4296875" y="278.90625">Bathroom 2</text></g><g id="room_bathroom"><polygon fill="rgb(173,216,230)" fill-opacity="0.7" points="277.65625,323.203125 277.65625,373.828125 328.28125,373.828125 328.28125,323.203125" stroke="black" stroke-width="1.5" /><text dominant-baseline="middle" fill="black" font-family="Arial" font-size="12px" font-weight="bold" text-anchor="middle" x="304.0234375" y="349.5703125">Bathroom</text></g><rect fill="red" fill-opacity="0.7" height="40.078125" id="door" stroke="darkred" stroke-width="2" width="6.328125" x="446.40625" y="200.859375" /><text dominant-baseline="middle" fill="white" font-family="Arial" font-size="8px" font-weight="bold" text-anchor="middle" x="449.5703125" y="220.8984375">Door</text><text fill="black" font-family="Arial" font-size="18px" font-weight="bold" text-anchor="middle" x="400.0" y="30">Floor Plan - ID: 80534</text></svg>