<?xml version="1.0" encoding="utf-8" ?>
<svg baseProfile="full" height="600px" version="1.1" viewBox="0 0 800 600" width="800px" xmlns="http://www.w3.org/2000/svg" xmlns:ev="http://www.w3.org/2001/xml-events" xmlns:xlink="http://www.w3.org/1999/xlink"><defs /><rect fill="white" height="600" width="800" x="0" y="0" /><polygon fill="none" id="floor_plan_boundary" points="368.359375,135.46875 368.359375,255.703125 267.109375,257.8125 267.109375,346.40625 330.390625,346.40625 271.328125,340.078125 271.328125,264.140625 372.578125,262.03125 374.6875,139.6875 526.5625,139.6875 528.671875,458.203125 440.078125,460.3125 437.96875,443.4375 351.484375,443.4375 349.375,378.046875 338.828125,382.265625 345.15625,384.375 345.15625,447.65625 431.640625,447.65625 433.75,464.53125 532.890625,464.53125 532.890625,135.46875" stroke="black" stroke-linecap="butt" stroke-linejoin="miter" stroke-width="4" /><g id="room_living_room"><polygon fill="rgb(238,232,170)" fill-opacity="0.7" points="338.828125,348.515625 338.828125,375.9375 526.5625,375.9375 526.5625,264.140625 374.6875,264.140625 374.6875,346.40625" stroke="black" stroke-width="1.5" /><text dominant-baseline="middle" fill="black" font-family="Arial" font-size="12px" font-weight="bold" text-anchor="middle" x="433.75" y="321.09375">Living Room</text></g><g id="room_master_bedroom"><polygon fill="rgb(255,165,0)" fill-opacity="0.7" points="374.6875,158.671875 374.6875,255.703125 526.5625,255.703125 526.5625,158.671875" stroke="black" stroke-width="1.5" /><text dominant-baseline="middle" fill="black" font-family="Arial" font-size="12px" font-weight="bold" text-anchor="middle" x="451.6796875" y="208.2421875">Master Bedroom</text></g><g id="room_common_room"><polygon fill="rgb(255,215,0)" fill-opacity="0.7" points="273.4375,264.140625 273.4375,340.078125 366.25,340.078125 366.25,264.140625" stroke="black" stroke-width="1.5" /><text dominant-baseline="middle" fill="black" font-family="Arial" font-size="12px" font-weight="bold" text-anchor="middle" x="320.8984375" y="303.1640625">Common Room</text></g><g id="room_kitchen"><polygon fill="rgb(240,128,128)" fill-opacity="0.7" points="440.078125,384.375 440.078125,458.203125 526.5625,458.203125 526.5625,384.375" stroke="black" stroke-width="1.5" /><text dominant-baseline="middle" fill="black" font-family="Arial" font-size="12px" font-weight="bold" text-anchor="middle" x="484.375" y="422.34375">Kitchen</text></g><g id="room_bathroom"><polygon fill="rgb(173,216,230)" fill-opacity="0.7" points="351.484375,384.375 351.484375,441.328125 431.640625,441.328125 431.640625,384.375" stroke="black" stroke-width="1.5" /><text dominant-baseline="middle" fill="black" font-family="Arial" font-size="12px" font-weight="bold" text-anchor="middle" x="392.6171875" y="413.90625">Bathroom</text></g><g id="room_balcony"><polygon fill="rgb(107,142,35)" fill-opacity="0.7" points="374.6875,141.796875 374.6875,150.234375 526.5625,150.234375 526.5625,141.796875" stroke="black" stroke-width="1.5" /><text dominant-baseline="middle" fill="black" font-family="Arial" font-size="12px" font-weight="bold" text-anchor="middle" x="451.6796875" y="147.0703125">Balcony</text></g><rect fill="red" fill-opacity="0.7" height="44.296875" id="door" stroke="darkred" stroke-width="2" width="6.328125" x="332.5" y="340.078125" /><text dominant-baseline="middle" fill="white" font-family="Arial" font-size="8px" font-weight="bold" text-anchor="middle" x="335.6640625" y="362.2265625">Door</text><text fill="black" font-family="Arial" font-size="18px" font-weight="bold" text-anchor="middle" x="400.0" y="30">Floor Plan - ID: 80556</text></svg>