<?xml version="1.0" encoding="utf-8" ?>
<svg baseProfile="full" height="600px" version="1.1" viewBox="0 0 800 600" width="800px" xmlns="http://www.w3.org/2000/svg" xmlns:ev="http://www.w3.org/2001/xml-events" xmlns:xlink="http://www.w3.org/1999/xlink"><defs /><rect fill="white" height="600" width="800" x="0" y="0" /><polygon fill="none" id="floor_plan_boundary" points="239.6875,146.015625 239.6875,272.578125 222.8125,274.6875 222.8125,346.40625 239.6875,348.515625 239.6875,453.984375 425.3125,453.984375 427.421875,500.390625 577.1875,500.390625 577.1875,411.796875 507.578125,409.6875 507.578125,335.859375 503.359375,416.015625 572.96875,418.125 570.859375,496.171875 433.75,496.171875 431.640625,449.765625 243.90625,447.65625 243.90625,342.1875 227.03125,340.078125 227.03125,281.015625 243.90625,278.90625 246.015625,150.234375 343.046875,150.234375 345.15625,103.828125 450.625,103.828125 452.734375,287.34375 501.25,287.34375 507.578125,306.328125 507.578125,283.125 456.953125,281.015625 456.953125,99.609375 338.828125,99.609375 336.71875,146.015625" stroke="black" stroke-linecap="butt" stroke-linejoin="miter" stroke-width="4" /><g id="room_living_room"><polygon fill="rgb(238,232,170)" fill-opacity="0.7" points="345.15625,152.34375 345.15625,278.90625 315.625,281.015625 315.625,340.078125 431.640625,340.078125 433.75,447.65625 501.25,447.65625 501.25,289.453125 450.625,287.34375 450.625,152.34375" stroke="black" stroke-width="1.5" /><text dominant-baseline="middle" fill="black" font-family="Arial" font-size="12px" font-weight="bold" text-anchor="middle" x="409.4921875" y="301.0546875">Living Room</text></g><g id="room_master_bedroom"><polygon fill="rgb(255,165,0)" fill-opacity="0.7" points="246.015625,152.34375 246.015625,272.578125 336.71875,272.578125 336.71875,152.34375" stroke="black" stroke-width="1.5" /><text dominant-baseline="middle" fill="black" font-family="Arial" font-size="12px" font-weight="bold" text-anchor="middle" x="292.421875" y="213.515625">Master Bedroom</text></g><g id="room_common_room_2"><polygon fill="rgb(255,215,0)" fill-opacity="0.7" points="246.015625,348.515625 246.015625,447.65625 336.71875,447.65625 336.71875,348.515625" stroke="black" stroke-width="1.5" /><text dominant-baseline="middle" fill="black" font-family="Arial" font-size="12px" font-weight="bold" text-anchor="middle" x="292.421875" y="399.140625">Common Room 2</text></g><g id="room_common_room"><polygon fill="rgb(255,215,0)" fill-opacity="0.7" points="345.15625,348.515625 345.15625,447.65625 425.3125,447.65625 425.3125,348.515625" stroke="black" stroke-width="1.5" /><text dominant-baseline="middle" fill="black" font-family="Arial" font-size="12px" font-weight="bold" text-anchor="middle" x="386.2890625" y="399.140625">Common Room</text></g><g id="room_kitchen"><polygon fill="rgb(240,128,128)" fill-opacity="0.7" points="509.6875,418.125 511.796875,451.875 499.140625,456.09375 499.140625,494.0625 570.859375,494.0625 570.859375,418.125" stroke="black" stroke-width="1.5" /><text dominant-baseline="middle" fill="black" font-family="Arial" font-size="12px" font-weight="bold" text-anchor="middle" x="536.0546875" y="457.1484375">Kitchen</text></g><g id="room_bathroom"><polygon fill="rgb(173,216,230)" fill-opacity="0.7" points="229.140625,281.015625 229.140625,340.078125 307.1875,340.078125 307.1875,281.015625" stroke="black" stroke-width="1.5" /><text dominant-baseline="middle" fill="black" font-family="Arial" font-size="12px" font-weight="bold" text-anchor="middle" x="269.21875" y="311.6015625">Bathroom</text></g><g id="room_balcony_2"><polygon fill="rgb(107,142,35)" fill-opacity="0.7" points="345.15625,105.9375 345.15625,143.90625 450.625,143.90625 450.625,105.9375" stroke="black" stroke-width="1.5" /><text dominant-baseline="middle" fill="black" font-family="Arial" font-size="12px" font-weight="bold" text-anchor="middle" x="398.9453125" y="125.9765625">Balcony 2</text></g><g id="room_balcony"><polygon fill="rgb(107,142,35)" fill-opacity="0.7" points="433.75,456.09375 433.75,494.0625 490.703125,494.0625 490.703125,456.09375" stroke="black" stroke-width="1.5" /><text dominant-baseline="middle" fill="black" font-family="Arial" font-size="12px" font-weight="bold" text-anchor="middle" x="463.28125" y="476.1328125">Balcony</text></g><rect fill="red" fill-opacity="0.9" height="27.421875" id="main_door" stroke="darkred" stroke-width="3" width="6.328125" x="503.359375" y="308.4375" /><text dominant-baseline="middle" fill="white" font-family="Arial" font-size="9px" font-weight="bold" text-anchor="middle" x="506.5234375" y="322.1484375">Main Door</text><text fill="black" font-family="Arial" font-size="18px" font-weight="bold" text-anchor="middle" x="400.0" y="30">Floor Plan - ID: 80647</text></svg>