<?xml version="1.0" encoding="utf-8" ?>
<svg baseProfile="full" height="600px" version="1.1" viewBox="0 0 800 600" width="800px" xmlns="http://www.w3.org/2000/svg" xmlns:ev="http://www.w3.org/2001/xml-events" xmlns:xlink="http://www.w3.org/1999/xlink"><defs /><rect fill="white" height="600" width="800" x="0" y="0" /><polygon fill="none" id="floor_plan_boundary" points="205.9375,243.046875 205.9375,394.921875 427.421875,394.921875 429.53125,426.5625 440.078125,426.5625 433.75,420.234375 433.75,390.703125 212.265625,390.703125 210.15625,249.375 290.3125,247.265625 292.421875,177.65625 467.5,177.65625 469.609375,200.859375 587.734375,200.859375 589.84375,420.234375 469.609375,426.5625 594.0625,426.5625 594.0625,196.640625 475.9375,196.640625 473.828125,173.4375 286.09375,173.4375 283.984375,243.046875" stroke="black" stroke-linecap="butt" stroke-linejoin="miter" stroke-width="4" /><g id="room_living_room"><polygon fill="rgb(238,232,170)" fill-opacity="0.7" points="286.09375,283.125 286.09375,388.59375 433.75,388.59375 435.859375,420.234375 467.5,420.234375 469.609375,361.171875 587.734375,361.171875 587.734375,289.453125 469.609375,289.453125 467.5,249.375 412.65625,249.375 410.546875,283.125" stroke="black" stroke-width="1.5" /><text dominant-baseline="middle" fill="black" font-family="Arial" font-size="12px" font-weight="bold" text-anchor="middle" x="437.96875" y="335.859375">Living Room</text></g><g id="room_master_bedroom"><polygon fill="rgb(255,165,0)" fill-opacity="0.7" points="292.421875,179.765625 292.421875,274.6875 404.21875,274.6875 404.21875,179.765625" stroke="black" stroke-width="1.5" /><text dominant-baseline="middle" fill="black" font-family="Arial" font-size="12px" font-weight="bold" text-anchor="middle" x="349.375" y="228.28125">Master Bedroom</text></g><g id="room_common_room_2"><polygon fill="rgb(255,215,0)" fill-opacity="0.7" points="475.9375,202.96875 475.9375,281.015625 587.734375,281.015625 587.734375,202.96875" stroke="black" stroke-width="1.5" /><text dominant-baseline="middle" fill="black" font-family="Arial" font-size="12px" font-weight="bold" text-anchor="middle" x="532.890625" y="243.046875">Common Room 2</text></g><g id="room_kitchen"><polygon fill="rgb(240,128,128)" fill-opacity="0.7" points="475.9375,369.609375 475.9375,420.234375 587.734375,420.234375 587.734375,369.609375" stroke="black" stroke-width="1.5" /><text dominant-baseline="middle" fill="black" font-family="Arial" font-size="12px" font-weight="bold" text-anchor="middle" x="532.890625" y="395.9765625">Kitchen</text></g><g id="room_balcony"><polygon fill="rgb(107,142,35)" fill-opacity="0.7" points="212.265625,321.09375 212.265625,388.59375 277.65625,388.59375 277.65625,321.09375" stroke="black" stroke-width="1.5" /><text dominant-baseline="middle" fill="black" font-family="Arial" font-size="12px" font-weight="bold" text-anchor="middle" x="246.015625" y="355.8984375">Balcony</text></g><g id="room_common_room"><polygon fill="rgb(255,215,0)" fill-opacity="0.7" points="212.265625,249.375 212.265625,312.65625 277.65625,312.65625 277.65625,276.796875 283.984375,274.6875 283.984375,249.375" stroke="black" stroke-width="1.5" /><text dominant-baseline="middle" fill="black" font-family="Arial" font-size="12px" font-weight="bold" text-anchor="middle" x="249.1796875" y="282.0703125">Common Room</text></g><g id="room_bathroom"><polygon fill="rgb(173,216,230)" fill-opacity="0.7" points="412.65625,179.765625 412.65625,240.9375 467.5,240.9375 467.5,179.765625" stroke="black" stroke-width="1.5" /><text dominant-baseline="middle" fill="black" font-family="Arial" font-size="12px" font-weight="bold" text-anchor="middle" x="441.1328125" y="211.40625">Bathroom</text></g><rect fill="red" fill-opacity="0.9" height="6.328125" id="main_door" stroke="darkred" stroke-width="3" width="27.421875" x="442.1875" y="422.34375" /><text dominant-baseline="middle" fill="white" font-family="Arial" font-size="9px" font-weight="bold" text-anchor="middle" x="455.8984375" y="425.5078125">Main Door</text><text fill="black" font-family="Arial" font-size="18px" font-weight="bold" text-anchor="middle" x="400.0" y="30">Floor Plan - ID: 80685</text></svg>