<?xml version="1.0" encoding="utf-8" ?>
<svg baseProfile="full" height="600px" version="1.1" viewBox="0 0 800 600" width="800px" xmlns="http://www.w3.org/2000/svg" xmlns:ev="http://www.w3.org/2001/xml-events" xmlns:xlink="http://www.w3.org/1999/xlink"><defs /><rect fill="white" height="600" width="800" x="0" y="0" /><polygon fill="none" id="floor_plan_boundary" points="321.953125,127.03125 321.953125,167.109375 330.390625,167.109375 332.5,135.46875 456.953125,135.46875 459.0625,177.65625 509.6875,179.765625 509.6875,426.5625 484.375,428.671875 482.265625,445.546875 429.53125,445.546875 427.421875,428.671875 404.21875,428.671875 402.109375,464.53125 290.3125,462.421875 288.203125,158.671875 281.875,158.671875 281.875,472.96875 412.65625,472.96875 414.765625,437.109375 418.984375,453.984375 492.8125,453.984375 494.921875,437.109375 518.125,437.109375 518.125,169.21875 469.609375,169.21875 467.5,127.03125" stroke="black" stroke-linecap="butt" stroke-linejoin="miter" stroke-width="4" /><g id="room_living_room"><polygon fill="rgb(238,232,170)" fill-opacity="0.7" points="292.421875,169.21875 292.421875,392.8125 402.109375,392.8125 402.109375,304.21875 437.96875,302.109375 437.96875,270.46875 402.109375,268.359375 402.109375,205.078125 321.953125,205.078125 319.84375,169.21875" stroke="black" stroke-width="1.5" /><text dominant-baseline="middle" fill="black" font-family="Arial" font-size="12px" font-weight="bold" text-anchor="middle" x="366.25" y="282.0703125">Living Room</text></g><g id="room_master_bedroom"><polygon fill="rgb(255,165,0)" fill-opacity="0.7" points="414.765625,314.765625 414.765625,426.5625 429.53125,428.671875 429.53125,443.4375 482.265625,443.4375 484.375,426.5625 507.578125,426.5625 507.578125,325.3125 440.078125,325.3125 437.96875,314.765625" stroke="black" stroke-width="1.5" /><text dominant-baseline="middle" fill="black" font-family="Arial" font-size="12px" font-weight="bold" text-anchor="middle" x="462.2265625" y="380.15625">Master Bedroom</text></g><g id="room_common_room"><polygon fill="rgb(255,215,0)" fill-opacity="0.7" points="414.765625,179.765625 414.765625,257.8125 507.578125,257.8125 507.578125,179.765625" stroke="black" stroke-width="1.5" /><text dominant-baseline="middle" fill="black" font-family="Arial" font-size="12px" font-weight="bold" text-anchor="middle" x="462.2265625" y="219.84375">Common Room</text></g><g id="room_balcony"><polygon fill="rgb(107,142,35)" fill-opacity="0.7" points="292.421875,405.46875 292.421875,462.421875 402.109375,462.421875 402.109375,405.46875" stroke="black" stroke-width="1.5" /><text dominant-baseline="middle" fill="black" font-family="Arial" font-size="12px" font-weight="bold" text-anchor="middle" x="348.3203125" y="435.0">Balcony</text></g><g id="room_kitchen"><polygon fill="rgb(240,128,128)" fill-opacity="0.7" points="332.5,137.578125 332.5,192.421875 402.109375,192.421875 402.109375,137.578125" stroke="black" stroke-width="1.5" /><text dominant-baseline="middle" fill="black" font-family="Arial" font-size="12px" font-weight="bold" text-anchor="middle" x="368.359375" y="166.0546875">Kitchen</text></g><g id="room_bathroom"><polygon fill="rgb(173,216,230)" fill-opacity="0.7" points="450.625,270.46875 450.625,312.65625 507.578125,312.65625 507.578125,270.46875" stroke="black" stroke-width="1.5" /><text dominant-baseline="middle" fill="black" font-family="Arial" font-size="12px" font-weight="bold" text-anchor="middle" x="480.15625" y="292.6171875">Bathroom</text></g><g id="room_balcony_2"><polygon fill="rgb(107,142,35)" fill-opacity="0.7" points="414.765625,137.578125 414.765625,167.109375 456.953125,167.109375 456.953125,137.578125" stroke="black" stroke-width="1.5" /><text dominant-baseline="middle" fill="black" font-family="Arial" font-size="12px" font-weight="bold" text-anchor="middle" x="436.9140625" y="153.3984375">Balcony 2</text></g><rect fill="red" fill-opacity="0.9" height="10.546875" id="main_door" stroke="darkred" stroke-width="3" width="31.640625" x="290.3125" y="158.671875" /><text dominant-baseline="middle" fill="white" font-family="Arial" font-size="9px" font-weight="bold" text-anchor="middle" x="306.1328125" y="163.9453125">Main Door</text><text fill="black" font-family="Arial" font-size="18px" font-weight="bold" text-anchor="middle" x="400.0" y="30">Floor Plan - ID: 8109</text></svg>