<?xml version="1.0" encoding="utf-8" ?>
<svg baseProfile="full" height="600px" version="1.1" viewBox="0 0 800 600" width="800px" xmlns="http://www.w3.org/2000/svg" xmlns:ev="http://www.w3.org/2001/xml-events" xmlns:xlink="http://www.w3.org/1999/xlink"><defs /><rect fill="white" height="600" width="800" x="0" y="0" /><polygon fill="none" id="floor_plan_boundary" points="256.5625,97.5 256.5625,335.859375 296.640625,337.96875 296.640625,470.859375 315.625,472.96875 315.625,491.953125 376.796875,491.953125 378.90625,470.859375 404.21875,470.859375 406.328125,521.484375 543.4375,521.484375 543.4375,327.421875 505.46875,325.3125 507.578125,262.03125 480.15625,262.03125 478.046875,243.046875 469.609375,243.046875 469.609375,270.46875 497.03125,272.578125 499.140625,335.859375 535.0,337.96875 532.890625,513.046875 416.875,513.046875 414.765625,462.421875 368.359375,462.421875 366.25,483.515625 326.171875,483.515625 324.0625,462.421875 305.078125,460.3125 305.078125,327.421875 265.0,325.3125 265.0,108.046875 446.40625,105.9375 448.515625,86.953125 488.59375,86.953125 490.703125,179.765625 469.609375,181.875 469.609375,213.515625 478.046875,213.515625 478.046875,192.421875 499.140625,190.3125 499.140625,78.515625 437.96875,78.515625 435.859375,97.5" stroke="black" stroke-linecap="butt" stroke-linejoin="miter" stroke-width="4" /><g id="room_living_room"><polygon fill="rgb(238,232,170)" fill-opacity="0.7" points="446.40625,148.125 444.296875,190.3125 376.796875,190.3125 376.796875,325.3125 416.875,327.421875 416.875,460.3125 532.890625,460.3125 532.890625,337.96875 497.03125,335.859375 494.921875,272.578125 467.5,270.46875 467.5,181.875 488.59375,179.765625 488.59375,148.125" stroke="black" stroke-width="1.5" /><text dominant-baseline="middle" fill="black" font-family="Arial" font-size="12px" font-weight="bold" text-anchor="middle" x="455.8984375" y="305.2734375">Living Room</text></g><g id="room_master_bedroom"><polygon fill="rgb(255,165,0)" fill-opacity="0.7" points="307.1875,337.96875 307.1875,460.3125 326.171875,462.421875 326.171875,481.40625 366.25,481.40625 368.359375,460.3125 404.21875,460.3125 404.21875,337.96875" stroke="black" stroke-width="1.5" /><text dominant-baseline="middle" fill="black" font-family="Arial" font-size="12px" font-weight="bold" text-anchor="middle" x="356.7578125" y="410.7421875">Master Bedroom</text></g><g id="room_common_room_2"><polygon fill="rgb(255,215,0)" fill-opacity="0.7" points="267.109375,108.046875 267.109375,217.734375 368.359375,217.734375 368.359375,108.046875" stroke="black" stroke-width="1.5" /><text dominant-baseline="middle" fill="black" font-family="Arial" font-size="12px" font-weight="bold" text-anchor="middle" x="318.7890625" y="163.9453125">Common Room 2</text></g><g id="room_common_room"><polygon fill="rgb(255,215,0)" fill-opacity="0.7" points="267.109375,230.390625 267.109375,325.3125 368.359375,325.3125 368.359375,230.390625" stroke="black" stroke-width="1.5" /><text dominant-baseline="middle" fill="black" font-family="Arial" font-size="12px" font-weight="bold" text-anchor="middle" x="318.7890625" y="278.90625">Common Room</text></g><g id="room_kitchen"><polygon fill="rgb(240,128,128)" fill-opacity="0.7" points="376.796875,108.046875 376.796875,181.875 437.96875,181.875 437.96875,108.046875" stroke="black" stroke-width="1.5" /><text dominant-baseline="middle" fill="black" font-family="Arial" font-size="12px" font-weight="bold" text-anchor="middle" x="408.4375" y="146.015625">Kitchen</text></g><g id="room_balcony"><polygon fill="rgb(107,142,35)" fill-opacity="0.7" points="416.875,472.96875 416.875,510.9375 532.890625,510.9375 532.890625,472.96875" stroke="black" stroke-width="1.5" /><text dominant-baseline="middle" fill="black" font-family="Arial" font-size="12px" font-weight="bold" text-anchor="middle" x="475.9375" y="493.0078125">Balcony</text></g><g id="room_bathroom"><polygon fill="rgb(173,216,230)" fill-opacity="0.7" points="448.515625,89.0625 446.40625,139.6875 488.59375,139.6875 488.59375,89.0625" stroke="black" stroke-width="1.5" /><text dominant-baseline="middle" fill="black" font-family="Arial" font-size="12px" font-weight="bold" text-anchor="middle" x="468.5546875" y="115.4296875">Bathroom</text></g><rect fill="red" fill-opacity="0.9" height="27.421875" id="main_door" stroke="darkred" stroke-width="3" width="10.546875" x="469.609375" y="215.625" /><text dominant-baseline="middle" fill="white" font-family="Arial" font-size="9px" font-weight="bold" text-anchor="middle" x="474.8828125" y="229.3359375">Main Door</text><text fill="black" font-family="Arial" font-size="18px" font-weight="bold" text-anchor="middle" x="400.0" y="30">Floor Plan - ID: 8174</text></svg>