<?xml version="1.0" encoding="utf-8" ?>
<svg baseProfile="full" height="600px" version="1.1" viewBox="0 0 800 600" width="800px" xmlns="http://www.w3.org/2000/svg" xmlns:ev="http://www.w3.org/2001/xml-events" xmlns:xlink="http://www.w3.org/1999/xlink"><defs /><rect fill="white" height="600" width="800" x="0" y="0" /><polygon fill="none" id="floor_plan_boundary" points="222.8125,116.484375 222.8125,483.515625 338.828125,483.515625 340.9375,439.21875 364.140625,439.21875 366.25,456.09375 454.84375,456.09375 456.953125,439.21875 577.1875,439.21875 577.1875,422.34375 566.640625,430.78125 446.40625,430.78125 444.296875,447.65625 376.796875,447.65625 374.6875,430.78125 330.390625,430.78125 328.28125,475.078125 233.359375,475.078125 233.359375,124.921875 374.6875,124.921875 376.796875,232.5 494.921875,232.5 497.03125,285.234375 566.640625,285.234375 568.75,384.375 577.1875,384.375 577.1875,276.796875 507.578125,276.796875 505.46875,224.0625 387.34375,224.0625 385.234375,116.484375" stroke="black" stroke-linecap="butt" stroke-linejoin="miter" stroke-width="4" /><g id="room_living_room"><polygon fill="rgb(238,232,170)" fill-opacity="0.7" points="296.640625,234.609375 296.640625,300.0 340.9375,302.109375 340.9375,428.671875 374.6875,428.671875 376.796875,445.546875 444.296875,445.546875 446.40625,428.671875 566.640625,428.671875 566.640625,380.15625 494.921875,378.046875 494.921875,234.609375" stroke="black" stroke-width="1.5" /><text dominant-baseline="middle" fill="black" font-family="Arial" font-size="12px" font-weight="bold" text-anchor="middle" x="432.6953125" y="341.1328125">Living Room</text></g><g id="room_common_room"><polygon fill="rgb(255,215,0)" fill-opacity="0.7" points="233.359375,127.03125 233.359375,221.953125 374.6875,221.953125 374.6875,127.03125" stroke="black" stroke-width="1.5" /><text dominant-baseline="middle" fill="black" font-family="Arial" font-size="12px" font-weight="bold" text-anchor="middle" x="305.078125" y="175.546875">Common Room</text></g><g id="room_master_bedroom"><polygon fill="rgb(255,165,0)" fill-opacity="0.7" points="233.359375,308.4375 233.359375,428.671875 328.28125,428.671875 328.28125,308.4375" stroke="black" stroke-width="1.5" /><text dominant-baseline="middle" fill="black" font-family="Arial" font-size="12px" font-weight="bold" text-anchor="middle" x="281.875" y="369.609375">Master Bedroom</text></g><g id="room_kitchen"><polygon fill="rgb(240,128,128)" fill-opacity="0.7" points="507.578125,287.34375 507.578125,371.71875 566.640625,371.71875 566.640625,287.34375" stroke="black" stroke-width="1.5" /><text dominant-baseline="middle" fill="black" font-family="Arial" font-size="12px" font-weight="bold" text-anchor="middle" x="538.1640625" y="330.5859375">Kitchen</text></g><g id="room_bathroom"><polygon fill="rgb(173,216,230)" fill-opacity="0.7" points="233.359375,234.609375 233.359375,300.0 288.203125,300.0 288.203125,234.609375" stroke="black" stroke-width="1.5" /><text dominant-baseline="middle" fill="black" font-family="Arial" font-size="12px" font-weight="bold" text-anchor="middle" x="261.8359375" y="268.359375">Bathroom</text></g><g id="room_balcony"><polygon fill="rgb(107,142,35)" fill-opacity="0.7" points="233.359375,441.328125 233.359375,472.96875 328.28125,472.96875 328.28125,441.328125" stroke="black" stroke-width="1.5" /><text dominant-baseline="middle" fill="black" font-family="Arial" font-size="12px" font-weight="bold" text-anchor="middle" x="281.875" y="458.203125">Balcony</text></g><rect fill="red" fill-opacity="0.9" height="35.859375" id="main_door" stroke="darkred" stroke-width="3" width="10.546875" x="568.75" y="386.484375" /><text dominant-baseline="middle" fill="white" font-family="Arial" font-size="9px" font-weight="bold" text-anchor="middle" x="574.0234375" y="404.4140625">Main Door</text><text fill="black" font-family="Arial" font-size="18px" font-weight="bold" text-anchor="middle" x="400.0" y="30">Floor Plan - ID: 8317</text></svg>