<?xml version="1.0" encoding="utf-8" ?>
<svg baseProfile="full" height="600px" version="1.1" viewBox="0 0 800 600" width="800px" xmlns="http://www.w3.org/2000/svg" xmlns:ev="http://www.w3.org/2001/xml-events" xmlns:xlink="http://www.w3.org/1999/xlink"><defs /><rect fill="white" height="600" width="800" x="0" y="0" /><polygon fill="none" id="floor_plan_boundary" points="214.375,124.921875 214.375,175.546875 246.015625,177.65625 246.015625,238.828125 269.21875,240.9375 269.21875,272.578125 258.671875,285.234375 277.65625,285.234375 277.65625,230.390625 254.453125,228.28125 254.453125,167.109375 222.8125,165.0 224.921875,133.359375 324.0625,133.359375 326.171875,175.546875 412.65625,175.546875 414.765625,196.640625 482.265625,196.640625 484.375,175.546875 564.53125,175.546875 566.640625,274.6875 577.1875,276.796875 564.53125,466.640625 475.9375,466.640625 473.828125,439.21875 269.21875,439.21875 267.109375,314.765625 258.671875,314.765625 258.671875,447.65625 463.28125,447.65625 465.390625,475.078125 575.078125,475.078125 575.078125,361.171875 585.625,359.0625 575.078125,167.109375 473.828125,167.109375 471.71875,188.203125 425.3125,188.203125 423.203125,167.109375 336.71875,167.109375 334.609375,124.921875" stroke="black" stroke-linecap="butt" stroke-linejoin="miter" stroke-width="4" /><g id="room_living_room"><polygon fill="rgb(238,232,170)" fill-opacity="0.7" points="511.796875,276.796875 425.3125,276.796875 423.203125,312.65625 326.171875,312.65625 324.0625,285.234375 269.21875,287.34375 269.21875,437.109375 463.28125,437.109375 463.28125,302.109375 511.796875,300.0" stroke="black" stroke-width="1.5" /><text dominant-baseline="middle" fill="black" font-family="Arial" font-size="12px" font-weight="bold" text-anchor="middle" x="391.5625" y="358.0078125">Living Room</text></g><g id="room_master_bedroom"><polygon fill="rgb(255,165,0)" fill-opacity="0.7" points="475.9375,312.65625 475.9375,464.53125 564.53125,464.53125 564.53125,361.171875 511.796875,361.171875 511.796875,312.65625" stroke="black" stroke-width="1.5" /><text dominant-baseline="middle" fill="black" font-family="Arial" font-size="12px" font-weight="bold" text-anchor="middle" x="521.2890625" y="389.6484375">Master Bedroom</text></g><g id="room_common_room_2"><polygon fill="rgb(255,215,0)" fill-opacity="0.7" points="336.71875,177.65625 336.71875,300.0 412.65625,300.0 412.65625,177.65625" stroke="black" stroke-width="1.5" /><text dominant-baseline="middle" fill="black" font-family="Arial" font-size="12px" font-weight="bold" text-anchor="middle" x="375.7421875" y="239.8828125">Common Room 2</text></g><g id="room_common_room"><polygon fill="rgb(255,215,0)" fill-opacity="0.7" points="484.375,177.65625 484.375,264.140625 564.53125,264.140625 564.53125,177.65625" stroke="black" stroke-width="1.5" /><text dominant-baseline="middle" fill="black" font-family="Arial" font-size="12px" font-weight="bold" text-anchor="middle" x="525.5078125" y="221.953125">Common Room</text></g><g id="room_kitchen"><polygon fill="rgb(240,128,128)" fill-opacity="0.7" points="256.5625,177.65625 256.5625,228.28125 279.765625,230.390625 279.765625,272.578125 324.0625,272.578125 324.0625,177.65625" stroke="black" stroke-width="1.5" /><text dominant-baseline="middle" fill="black" font-family="Arial" font-size="12px" font-weight="bold" text-anchor="middle" x="291.3671875" y="226.171875">Kitchen</text></g><g id="room_bathroom"><polygon fill="rgb(173,216,230)" fill-opacity="0.7" points="524.453125,276.796875 524.453125,348.515625 575.078125,348.515625 575.078125,276.796875" stroke="black" stroke-width="1.5" /><text dominant-baseline="middle" fill="black" font-family="Arial" font-size="12px" font-weight="bold" text-anchor="middle" x="550.8203125" y="313.7109375">Bathroom</text></g><g id="room_bathroom_2"><polygon fill="rgb(173,216,230)" fill-opacity="0.7" points="425.3125,198.75 425.3125,264.140625 471.71875,264.140625 471.71875,198.75" stroke="black" stroke-width="1.5" /><text dominant-baseline="middle" fill="black" font-family="Arial" font-size="12px" font-weight="bold" text-anchor="middle" x="449.5703125" y="232.5">Bathroom 2</text></g><g id="room_balcony"><polygon fill="rgb(107,142,35)" fill-opacity="0.7" points="224.921875,135.46875 224.921875,165.0 324.0625,165.0 324.0625,135.46875" stroke="black" stroke-width="1.5" /><text dominant-baseline="middle" fill="black" font-family="Arial" font-size="12px" font-weight="bold" text-anchor="middle" x="275.546875" y="151.2890625">Balcony</text></g><rect fill="red" fill-opacity="0.9" height="27.421875" id="main_door" stroke="darkred" stroke-width="3" width="10.546875" x="258.671875" y="287.34375" /><text dominant-baseline="middle" fill="white" font-family="Arial" font-size="9px" font-weight="bold" text-anchor="middle" x="263.9453125" y="301.0546875">Main Door</text><text fill="black" font-family="Arial" font-size="18px" font-weight="bold" text-anchor="middle" x="400.0" y="30">Floor Plan - ID: 8331</text></svg>