<?xml version="1.0" encoding="utf-8" ?>
<svg baseProfile="full" height="600px" version="1.1" viewBox="0 0 800 600" width="800px" xmlns="http://www.w3.org/2000/svg" xmlns:ev="http://www.w3.org/2001/xml-events" xmlns:xlink="http://www.w3.org/1999/xlink"><defs /><rect fill="white" height="600" width="800" x="0" y="0" /><polygon fill="none" id="floor_plan_boundary" points="216.484375,131.25 216.484375,207.1875 265.0,209.296875 265.0,432.890625 378.90625,432.890625 381.015625,468.75 526.5625,468.75 526.5625,268.359375 583.515625,266.25 583.515625,131.25 478.046875,131.25 475.9375,154.453125 391.5625,154.453125 391.5625,162.890625 486.484375,162.890625 488.59375,139.6875 575.078125,141.796875 575.078125,255.703125 518.125,257.8125 516.015625,460.3125 391.5625,460.3125 389.453125,424.453125 273.4375,422.34375 273.4375,198.75 224.921875,196.640625 224.921875,141.796875 340.9375,139.6875 343.046875,162.890625 349.375,162.890625 351.484375,131.25" stroke="black" stroke-linecap="butt" stroke-linejoin="miter" stroke-width="4" /><g id="room_living_room"><polygon fill="rgb(238,232,170)" fill-opacity="0.7" points="353.59375,165.0 353.59375,255.703125 391.5625,257.8125 391.5625,422.34375 516.015625,422.34375 516.015625,268.359375 475.9375,266.25 475.9375,165.0" stroke="black" stroke-width="1.5" /><text dominant-baseline="middle" fill="black" font-family="Arial" font-size="12px" font-weight="bold" text-anchor="middle" x="435.859375" y="294.7265625">Living Room</text></g><g id="room_master_bedroom"><polygon fill="rgb(255,165,0)" fill-opacity="0.7" points="378.90625,268.359375 353.59375,268.359375 351.484375,297.890625 275.546875,297.890625 275.546875,422.34375 378.90625,422.34375" stroke="black" stroke-width="1.5" /><text dominant-baseline="middle" fill="black" font-family="Arial" font-size="12px" font-weight="bold" text-anchor="middle" x="328.28125" y="346.40625">Master Bedroom</text></g><g id="room_common_room"><polygon fill="rgb(255,215,0)" fill-opacity="0.7" points="488.59375,141.796875 488.59375,255.703125 572.96875,255.703125 572.96875,141.796875" stroke="black" stroke-width="1.5" /><text dominant-baseline="middle" fill="black" font-family="Arial" font-size="12px" font-weight="bold" text-anchor="middle" x="531.8359375" y="199.8046875">Common Room</text></g><g id="room_kitchen"><polygon fill="rgb(240,128,128)" fill-opacity="0.7" points="227.03125,141.796875 227.03125,196.640625 340.9375,196.640625 340.9375,141.796875" stroke="black" stroke-width="1.5" /><text dominant-baseline="middle" fill="black" font-family="Arial" font-size="12px" font-weight="bold" text-anchor="middle" x="285.0390625" y="170.2734375">Kitchen</text></g><g id="room_bathroom"><polygon fill="rgb(173,216,230)" fill-opacity="0.7" points="275.546875,209.296875 275.546875,285.234375 340.9375,285.234375 340.9375,209.296875" stroke="black" stroke-width="1.5" /><text dominant-baseline="middle" fill="black" font-family="Arial" font-size="12px" font-weight="bold" text-anchor="middle" x="309.296875" y="248.3203125">Bathroom</text></g><g id="room_balcony"><polygon fill="rgb(107,142,35)" fill-opacity="0.7" points="391.5625,435.0 391.5625,458.203125 516.015625,458.203125 516.015625,435.0" stroke="black" stroke-width="1.5" /><text dominant-baseline="middle" fill="black" font-family="Arial" font-size="12px" font-weight="bold" text-anchor="middle" x="454.84375" y="447.65625">Balcony</text></g><rect fill="red" fill-opacity="0.9" height="10.546875" id="main_door" stroke="darkred" stroke-width="3" width="40.078125" x="351.484375" y="154.453125" /><text dominant-baseline="middle" fill="white" font-family="Arial" font-size="9px" font-weight="bold" text-anchor="middle" x="371.5234375" y="159.7265625">Main Door</text><text fill="black" font-family="Arial" font-size="18px" font-weight="bold" text-anchor="middle" x="400.0" y="30">Floor Plan - ID: 8532</text></svg>