<?xml version="1.0" encoding="utf-8" ?>
<svg baseProfile="full" height="600px" version="1.1" viewBox="0 0 800 600" width="800px" xmlns="http://www.w3.org/2000/svg" xmlns:ev="http://www.w3.org/2001/xml-events" xmlns:xlink="http://www.w3.org/1999/xlink"><defs /><rect fill="white" height="600" width="800" x="0" y="0" /><polygon fill="none" id="floor_plan_boundary" points="288.203125,97.5 288.203125,281.015625 296.640625,281.015625 298.75,105.9375 366.25,105.9375 368.359375,177.65625 459.0625,177.65625 461.171875,224.0625 543.4375,226.171875 543.4375,437.109375 433.75,439.21875 431.640625,403.359375 374.6875,403.359375 372.578125,494.0625 258.671875,494.0625 256.5625,325.3125 296.640625,323.203125 296.640625,310.546875 248.125,314.765625 248.125,502.5 383.125,502.5 385.234375,411.796875 421.09375,411.796875 423.203125,447.65625 551.875,447.65625 551.875,215.625 471.71875,215.625 469.609375,169.21875 378.90625,169.21875 376.796875,97.5" stroke="black" stroke-linecap="butt" stroke-linejoin="miter" stroke-width="4" /><g id="room_living_room"><polygon fill="rgb(238,232,170)" fill-opacity="0.7" points="298.75,207.1875 298.75,323.203125 258.671875,325.3125 258.671875,437.109375 372.578125,437.109375 372.578125,346.40625 421.09375,344.296875 421.09375,314.765625 459.0625,312.65625 459.0625,285.234375 368.359375,285.234375 366.25,207.1875" stroke="black" stroke-width="1.5" /><text dominant-baseline="middle" fill="black" font-family="Arial" font-size="12px" font-weight="bold" text-anchor="middle" x="359.921875" y="323.203125">Living Room</text></g><g id="room_master_bedroom"><polygon fill="rgb(255,165,0)" fill-opacity="0.7" points="433.75,325.3125 433.75,437.109375 541.328125,437.109375 541.328125,325.3125" stroke="black" stroke-width="1.5" /><text dominant-baseline="middle" fill="black" font-family="Arial" font-size="12px" font-weight="bold" text-anchor="middle" x="488.59375" y="382.265625">Master Bedroom</text></g><g id="room_common_room_2"><polygon fill="rgb(255,215,0)" fill-opacity="0.7" points="378.90625,179.765625 378.90625,272.578125 459.0625,272.578125 459.0625,179.765625" stroke="black" stroke-width="1.5" /><text dominant-baseline="middle" fill="black" font-family="Arial" font-size="12px" font-weight="bold" text-anchor="middle" x="420.0390625" y="227.2265625">Common Room 2</text></g><g id="room_common_room"><polygon fill="rgb(255,215,0)" fill-opacity="0.7" points="471.71875,226.171875 471.71875,312.65625 541.328125,312.65625 541.328125,226.171875" stroke="black" stroke-width="1.5" /><text dominant-baseline="middle" fill="black" font-family="Arial" font-size="12px" font-weight="bold" text-anchor="middle" x="507.578125" y="270.46875">Common Room</text></g><g id="room_balcony"><polygon fill="rgb(107,142,35)" fill-opacity="0.7" points="258.671875,449.765625 258.671875,491.953125 372.578125,491.953125 372.578125,449.765625" stroke="black" stroke-width="1.5" /><text dominant-baseline="middle" fill="black" font-family="Arial" font-size="12px" font-weight="bold" text-anchor="middle" x="316.6796875" y="471.9140625">Balcony</text></g><g id="room_kitchen"><polygon fill="rgb(240,128,128)" fill-opacity="0.7" points="298.75,143.90625 298.75,194.53125 366.25,194.53125 366.25,143.90625" stroke="black" stroke-width="1.5" /><text dominant-baseline="middle" fill="black" font-family="Arial" font-size="12px" font-weight="bold" text-anchor="middle" x="333.5546875" y="170.2734375">Kitchen</text></g><g id="room_bathroom"><polygon fill="rgb(173,216,230)" fill-opacity="0.7" points="385.234375,356.953125 385.234375,401.25 421.09375,401.25 421.09375,356.953125" stroke="black" stroke-width="1.5" /><text dominant-baseline="middle" fill="black" font-family="Arial" font-size="12px" font-weight="bold" text-anchor="middle" x="404.21875" y="380.15625">Bathroom</text></g><g id="room_balcony_2"><polygon fill="rgb(107,142,35)" fill-opacity="0.7" points="298.75,108.046875 298.75,131.25 366.25,131.25 366.25,108.046875" stroke="black" stroke-width="1.5" /><text dominant-baseline="middle" fill="black" font-family="Arial" font-size="12px" font-weight="bold" text-anchor="middle" x="333.5546875" y="120.703125">Balcony 2</text></g><rect fill="red" fill-opacity="0.9" height="27.421875" id="main_door" stroke="darkred" stroke-width="3" width="10.546875" x="288.203125" y="283.125" /><text dominant-baseline="middle" fill="white" font-family="Arial" font-size="9px" font-weight="bold" text-anchor="middle" x="293.4765625" y="296.8359375">Main Door</text><text fill="black" font-family="Arial" font-size="18px" font-weight="bold" text-anchor="middle" x="400.0" y="30">Floor Plan - ID: 8541</text></svg>