<?xml version="1.0" encoding="utf-8" ?>
<svg baseProfile="full" height="600px" version="1.1" viewBox="0 0 800 600" width="800px" xmlns="http://www.w3.org/2000/svg" xmlns:ev="http://www.w3.org/2001/xml-events" xmlns:xlink="http://www.w3.org/1999/xlink"><defs /><rect fill="white" height="600" width="800" x="0" y="0" /><polygon fill="none" id="floor_plan_boundary" points="258.671875,133.359375 258.671875,234.609375 313.515625,236.71875 315.625,466.640625 418.984375,466.640625 421.09375,416.015625 541.328125,416.015625 539.21875,133.359375 412.65625,133.359375 406.328125,162.890625 421.09375,162.890625 423.203125,137.578125 535.0,139.6875 532.890625,405.46875 414.765625,407.578125 412.65625,462.421875 319.84375,460.3125 321.953125,230.390625 267.109375,228.28125 269.21875,137.578125 355.703125,137.578125 357.8125,162.890625 368.359375,162.890625 366.25,133.359375" stroke="black" stroke-linecap="butt" stroke-linejoin="miter" stroke-width="4" /><g id="room_living_room"><polygon fill="rgb(238,232,170)" fill-opacity="0.7" points="366.25,165.0 366.25,194.53125 421.09375,196.640625 421.09375,405.46875 530.78125,405.46875 530.78125,202.96875 459.0625,202.96875 456.953125,139.6875 423.203125,139.6875 421.09375,165.0" stroke="black" stroke-width="1.5" /><text dominant-baseline="middle" fill="black" font-family="Arial" font-size="12px" font-weight="bold" text-anchor="middle" x="449.5703125" y="273.6328125">Living Room</text></g><g id="room_master_bedroom"><polygon fill="rgb(255,165,0)" fill-opacity="0.7" points="324.0625,291.5625 324.0625,407.578125 412.65625,407.578125 412.65625,291.5625" stroke="black" stroke-width="1.5" /><text dominant-baseline="middle" fill="black" font-family="Arial" font-size="12px" font-weight="bold" text-anchor="middle" x="369.4140625" y="350.625">Master Bedroom</text></g><g id="room_common_room"><polygon fill="rgb(255,215,0)" fill-opacity="0.7" points="321.953125,202.96875 324.0625,283.125 412.65625,283.125 412.65625,202.96875" stroke="black" stroke-width="1.5" /><text dominant-baseline="middle" fill="black" font-family="Arial" font-size="12px" font-weight="bold" text-anchor="middle" x="368.359375" y="244.1015625">Common Room</text></g><g id="room_kitchen"><polygon fill="rgb(240,128,128)" fill-opacity="0.7" points="269.21875,139.6875 269.21875,228.28125 313.515625,228.28125 311.40625,198.75 315.625,194.53125 357.8125,194.53125 355.703125,139.6875" stroke="black" stroke-width="1.5" /><text dominant-baseline="middle" fill="black" font-family="Arial" font-size="12px" font-weight="bold" text-anchor="middle" x="314.5703125" y="185.0390625">Kitchen</text></g><g id="room_balcony"><polygon fill="rgb(107,142,35)" fill-opacity="0.7" points="321.953125,416.015625 321.953125,460.3125 412.65625,460.3125 412.65625,416.015625" stroke="black" stroke-width="1.5" /><text dominant-baseline="middle" fill="black" font-family="Arial" font-size="12px" font-weight="bold" text-anchor="middle" x="368.359375" y="439.21875">Balcony</text></g><g id="room_bathroom"><polygon fill="rgb(173,216,230)" fill-opacity="0.7" points="465.390625,139.6875 465.390625,194.53125 532.890625,194.53125 532.890625,139.6875" stroke="black" stroke-width="1.5" /><text dominant-baseline="middle" fill="black" font-family="Arial" font-size="12px" font-weight="bold" text-anchor="middle" x="500.1953125" y="168.1640625">Bathroom</text></g><rect fill="red" fill-opacity="0.9" height="6.328125" id="main_door" stroke="darkred" stroke-width="3" width="35.859375" x="370.46875" y="158.671875" /><text dominant-baseline="middle" fill="white" font-family="Arial" font-size="9px" font-weight="bold" text-anchor="middle" x="388.3984375" y="161.8359375">Main Door</text><text fill="black" font-family="Arial" font-size="18px" font-weight="bold" text-anchor="middle" x="400.0" y="30">Floor Plan - ID: 8610</text></svg>