<?xml version="1.0" encoding="utf-8" ?>
<svg baseProfile="full" height="600px" version="1.1" viewBox="0 0 800 600" width="800px" xmlns="http://www.w3.org/2000/svg" xmlns:ev="http://www.w3.org/2001/xml-events" xmlns:xlink="http://www.w3.org/1999/xlink"><defs /><rect fill="white" height="600" width="800" x="0" y="0" /><polygon fill="none" id="floor_plan_boundary" points="184.84375,183.984375 184.84375,416.015625 353.59375,416.015625 189.0625,409.6875 191.171875,188.203125 330.390625,188.203125 332.5,289.453125 345.15625,289.453125 345.15625,190.3125 425.3125,188.203125 427.421875,209.296875 478.046875,211.40625 475.9375,304.21875 490.703125,304.21875 492.8125,215.625 591.953125,215.625 591.953125,365.390625 610.9375,367.5 610.9375,409.6875 404.21875,416.015625 615.15625,416.015625 615.15625,361.171875 598.28125,359.0625 596.171875,211.40625 486.484375,211.40625 484.375,300.0 482.265625,205.078125 433.75,205.078125 431.640625,183.984375 340.9375,183.984375 338.828125,285.234375 336.71875,183.984375" stroke="black" stroke-linecap="butt" stroke-linejoin="miter" stroke-width="4" /><g id="room_living_room"><polygon fill="rgb(238,232,170)" fill-opacity="0.7" points="191.171875,291.5625 191.171875,409.6875 433.75,409.6875 433.75,306.328125 425.3125,291.5625" stroke="black" stroke-width="1.5" /><text dominant-baseline="middle" fill="black" font-family="Arial" font-size="12px" font-weight="bold" text-anchor="middle" x="313.515625" y="351.6796875">Living Room</text></g><g id="room_master_bedroom"><polygon fill="rgb(255,165,0)" fill-opacity="0.7" points="492.8125,217.734375 492.8125,359.0625 591.953125,359.0625 591.953125,217.734375" stroke="black" stroke-width="1.5" /><text dominant-baseline="middle" fill="black" font-family="Arial" font-size="12px" font-weight="bold" text-anchor="middle" x="543.4375" y="289.453125">Master Bedroom</text></g><g id="room_room_7"><polygon fill="rgb(218,112,214)" fill-opacity="0.7" points="191.171875,190.3125 191.171875,283.125 330.390625,283.125 330.390625,190.3125" stroke="black" stroke-width="1.5" /><text dominant-baseline="middle" fill="black" font-family="Arial" font-size="12px" font-weight="bold" text-anchor="middle" x="261.8359375" y="237.7734375">Room 7</text></g><g id="room_common_room"><polygon fill="rgb(255,215,0)" fill-opacity="0.7" points="347.265625,190.3125 347.265625,283.125 425.3125,283.125 425.3125,190.3125" stroke="black" stroke-width="1.5" /><text dominant-baseline="middle" fill="black" font-family="Arial" font-size="12px" font-weight="bold" text-anchor="middle" x="387.34375" y="237.7734375">Common Room</text></g><g id="room_bathroom"><polygon fill="rgb(173,216,230)" fill-opacity="0.7" points="442.1875,306.328125 442.1875,409.6875 513.90625,409.6875 513.90625,367.5 488.59375,369.609375 484.375,365.390625 484.375,306.328125" stroke="black" stroke-width="1.5" /><text dominant-baseline="middle" fill="black" font-family="Arial" font-size="12px" font-weight="bold" text-anchor="middle" x="479.1015625" y="359.0625">Bathroom</text></g><g id="room_kitchen"><polygon fill="rgb(240,128,128)" fill-opacity="0.7" points="522.34375,367.5 522.34375,409.6875 608.828125,409.6875 608.828125,367.5" stroke="black" stroke-width="1.5" /><text dominant-baseline="middle" fill="black" font-family="Arial" font-size="12px" font-weight="bold" text-anchor="middle" x="566.640625" y="389.6484375">Kitchen</text></g><g id="room_room_7"><polygon fill="rgb(218,112,214)" fill-opacity="0.7" points="433.75,211.40625 433.75,283.125 442.1875,285.234375 442.1875,297.890625 475.9375,297.890625 475.9375,211.40625" stroke="black" stroke-width="1.5" /><text dominant-baseline="middle" fill="black" font-family="Arial" font-size="12px" font-weight="bold" text-anchor="middle" x="455.8984375" y="255.703125">Room 7</text></g><rect fill="red" fill-opacity="0.9" height="6.328125" id="main_door" stroke="darkred" stroke-width="3" width="48.515625" x="355.703125" y="411.796875" /><text dominant-baseline="middle" fill="white" font-family="Arial" font-size="9px" font-weight="bold" text-anchor="middle" x="379.9609375" y="414.9609375">Main Door</text><text fill="black" font-family="Arial" font-size="18px" font-weight="bold" text-anchor="middle" x="400.0" y="30">Floor Plan - ID: 866</text></svg>