<?xml version="1.0" encoding="utf-8" ?>
<svg baseProfile="full" height="600px" version="1.1" viewBox="0 0 800 600" width="800px" xmlns="http://www.w3.org/2000/svg" xmlns:ev="http://www.w3.org/2001/xml-events" xmlns:xlink="http://www.w3.org/1999/xlink"><defs /><rect fill="white" height="600" width="800" x="0" y="0" /><polygon fill="none" id="floor_plan_boundary" points="332.5,116.484375 332.5,251.484375 340.9375,251.484375 343.046875,124.921875 539.21875,127.03125 539.21875,268.359375 566.640625,270.46875 566.640625,472.96875 469.609375,475.078125 467.5,430.78125 235.46875,430.78125 233.359375,314.765625 305.078125,312.65625 307.1875,291.5625 340.9375,291.5625 340.9375,281.015625 296.640625,283.125 294.53125,304.21875 224.921875,304.21875 224.921875,439.21875 456.953125,439.21875 459.0625,483.515625 575.078125,483.515625 575.078125,259.921875 547.65625,257.8125 547.65625,116.484375" stroke="black" stroke-linecap="butt" stroke-linejoin="miter" stroke-width="4" /><g id="room_living_room"><polygon fill="rgb(238,232,170)" fill-opacity="0.7" points="343.046875,181.875 343.046875,428.671875 456.953125,428.671875 456.953125,304.21875 492.8125,302.109375 492.8125,270.46875 421.09375,268.359375 421.09375,181.875" stroke="black" stroke-width="1.5" /><text dominant-baseline="middle" fill="black" font-family="Arial" font-size="12px" font-weight="bold" text-anchor="middle" x="418.984375" y="306.328125">Living Room</text></g><g id="room_common_room"><polygon fill="rgb(255,215,0)" fill-opacity="0.7" points="330.390625,293.671875 307.1875,293.671875 305.078125,314.765625 235.46875,314.765625 235.46875,428.671875 330.390625,428.671875" stroke="black" stroke-width="1.5" /><text dominant-baseline="middle" fill="black" font-family="Arial" font-size="12px" font-weight="bold" text-anchor="middle" x="283.984375" y="362.2265625">Common Room</text></g><g id="room_master_bedroom"><polygon fill="rgb(255,165,0)" fill-opacity="0.7" points="469.609375,314.765625 469.609375,428.671875 564.53125,428.671875 564.53125,325.3125 494.921875,325.3125 492.8125,314.765625" stroke="black" stroke-width="1.5" /><text dominant-baseline="middle" fill="black" font-family="Arial" font-size="12px" font-weight="bold" text-anchor="middle" x="518.125" y="372.7734375">Master Bedroom</text></g><g id="room_common_room_2"><polygon fill="rgb(255,215,0)" fill-opacity="0.7" points="537.109375,127.03125 433.75,127.03125 433.75,257.8125 456.953125,257.8125 459.0625,202.96875 537.109375,202.96875" stroke="black" stroke-width="1.5" /><text dominant-baseline="middle" fill="black" font-family="Arial" font-size="12px" font-weight="bold" text-anchor="middle" x="486.484375" y="193.4765625">Common Room 2</text></g><g id="room_kitchen"><polygon fill="rgb(240,128,128)" fill-opacity="0.7" points="343.046875,127.03125 343.046875,173.4375 421.09375,173.4375 421.09375,127.03125" stroke="black" stroke-width="1.5" /><text dominant-baseline="middle" fill="black" font-family="Arial" font-size="12px" font-weight="bold" text-anchor="middle" x="383.125" y="151.2890625">Kitchen</text></g><g id="room_balcony"><polygon fill="rgb(107,142,35)" fill-opacity="0.7" points="469.609375,441.328125 469.609375,472.96875 564.53125,472.96875 564.53125,441.328125" stroke="black" stroke-width="1.5" /><text dominant-baseline="middle" fill="black" font-family="Arial" font-size="12px" font-weight="bold" text-anchor="middle" x="518.125" y="458.203125">Balcony</text></g><g id="room_bathroom_2"><polygon fill="rgb(173,216,230)" fill-opacity="0.7" points="469.609375,215.625 469.609375,257.8125 537.109375,257.8125 537.109375,215.625" stroke="black" stroke-width="1.5" /><text dominant-baseline="middle" fill="black" font-family="Arial" font-size="12px" font-weight="bold" text-anchor="middle" x="504.4140625" y="237.7734375">Bathroom 2</text></g><g id="room_bathroom"><polygon fill="rgb(173,216,230)" fill-opacity="0.7" points="505.46875,270.46875 505.46875,312.65625 564.53125,312.65625 564.53125,270.46875" stroke="black" stroke-width="1.5" /><text dominant-baseline="middle" fill="black" font-family="Arial" font-size="12px" font-weight="bold" text-anchor="middle" x="536.0546875" y="292.6171875">Bathroom</text></g><rect fill="red" fill-opacity="0.9" height="27.421875" id="main_door" stroke="darkred" stroke-width="3" width="10.546875" x="332.5" y="253.59375" /><text dominant-baseline="middle" fill="white" font-family="Arial" font-size="9px" font-weight="bold" text-anchor="middle" x="337.7734375" y="267.3046875">Main Door</text><text fill="black" font-family="Arial" font-size="18px" font-weight="bold" text-anchor="middle" x="400.0" y="30">Floor Plan - ID: 8763</text></svg>