<?xml version="1.0" encoding="utf-8" ?>
<svg baseProfile="full" height="600px" version="1.1" viewBox="0 0 800 600" width="800px" xmlns="http://www.w3.org/2000/svg" xmlns:ev="http://www.w3.org/2001/xml-events" xmlns:xlink="http://www.w3.org/1999/xlink"><defs /><rect fill="white" height="600" width="800" x="0" y="0" /><polygon fill="none" id="floor_plan_boundary" points="260.78125,101.71875 260.78125,266.25 269.21875,266.25 271.328125,110.15625 330.390625,110.15625 332.5,146.015625 530.78125,148.125 530.78125,449.765625 522.34375,451.875 520.234375,489.84375 343.046875,489.84375 340.9375,318.984375 271.328125,318.984375 269.21875,295.78125 260.78125,295.78125 260.78125,327.421875 332.5,329.53125 332.5,498.28125 530.78125,498.28125 530.78125,462.421875 539.21875,460.3125 539.21875,137.578125 343.046875,137.578125 340.9375,101.71875" stroke="black" stroke-linecap="butt" stroke-linejoin="miter" stroke-width="4" /><g id="room_living_room"><polygon fill="rgb(238,232,170)" fill-opacity="0.7" points="271.328125,112.265625 271.328125,316.875 343.046875,318.984375 343.046875,487.734375 437.96875,487.734375 437.96875,318.984375 475.9375,316.875 475.9375,262.03125 334.609375,262.03125 330.390625,112.265625" stroke="black" stroke-width="1.5" /><text dominant-baseline="middle" fill="black" font-family="Arial" font-size="12px" font-weight="bold" text-anchor="middle" x="374.6875" y="301.0546875">Living Room</text></g><g id="room_master_bedroom"><polygon fill="rgb(255,165,0)" fill-opacity="0.7" points="450.625,329.53125 450.625,487.734375 520.234375,487.734375 520.234375,451.875 528.671875,449.765625 528.671875,329.53125" stroke="black" stroke-width="1.5" /><text dominant-baseline="middle" fill="black" font-family="Arial" font-size="12px" font-weight="bold" text-anchor="middle" x="490.703125" y="409.6875">Master Bedroom</text></g><g id="room_common_room_2"><polygon fill="rgb(255,215,0)" fill-opacity="0.7" points="340.9375,148.125 340.9375,253.59375 440.078125,253.59375 440.078125,148.125" stroke="black" stroke-width="1.5" /><text dominant-baseline="middle" fill="black" font-family="Arial" font-size="12px" font-weight="bold" text-anchor="middle" x="391.5625" y="201.9140625">Common Room 2</text></g><g id="room_common_room"><polygon fill="rgb(255,215,0)" fill-opacity="0.7" points="448.515625,148.125 448.515625,253.59375 528.671875,253.59375 528.671875,148.125" stroke="black" stroke-width="1.5" /><text dominant-baseline="middle" fill="black" font-family="Arial" font-size="12px" font-weight="bold" text-anchor="middle" x="489.6484375" y="201.9140625">Common Room</text></g><g id="room_bathroom"><polygon fill="rgb(173,216,230)" fill-opacity="0.7" points="484.375,262.03125 484.375,316.875 528.671875,316.875 528.671875,262.03125" stroke="black" stroke-width="1.5" /><text dominant-baseline="middle" fill="black" font-family="Arial" font-size="12px" font-weight="bold" text-anchor="middle" x="507.578125" y="290.5078125">Bathroom</text></g><rect fill="red" fill-opacity="0.9" height="27.421875" id="main_door" stroke="darkred" stroke-width="3" width="10.546875" x="260.78125" y="268.359375" /><text dominant-baseline="middle" fill="white" font-family="Arial" font-size="9px" font-weight="bold" text-anchor="middle" x="266.0546875" y="282.0703125">Main Door</text><text fill="black" font-family="Arial" font-size="18px" font-weight="bold" text-anchor="middle" x="400.0" y="30">Floor Plan - ID: 8792</text></svg>