<?xml version="1.0" encoding="utf-8" ?>
<svg baseProfile="full" height="600px" version="1.1" viewBox="0 0 800 600" width="800px" xmlns="http://www.w3.org/2000/svg" xmlns:ev="http://www.w3.org/2001/xml-events" xmlns:xlink="http://www.w3.org/1999/xlink"><defs /><rect fill="white" height="600" width="800" x="0" y="0" /><polygon fill="none" id="floor_plan_boundary" points="233.359375,129.140625 233.359375,234.609375 241.796875,234.609375 243.90625,137.578125 302.96875,137.578125 305.078125,175.546875 558.203125,177.65625 558.203125,295.78125 497.03125,297.890625 497.03125,409.6875 364.140625,411.796875 362.03125,462.421875 241.796875,460.3125 241.796875,268.359375 233.359375,268.359375 233.359375,470.859375 372.578125,470.859375 374.6875,420.234375 505.46875,420.234375 505.46875,308.4375 566.640625,306.328125 566.640625,167.109375 315.625,167.109375 313.515625,129.140625" stroke="black" stroke-linecap="butt" stroke-linejoin="miter" stroke-width="4" /><g id="room_living_room"><polygon fill="rgb(238,232,170)" fill-opacity="0.7" points="494.921875,177.65625 372.578125,177.65625 370.46875,230.390625 243.90625,230.390625 243.90625,350.625 364.140625,350.625 368.359375,295.78125 494.921875,297.890625" stroke="black" stroke-width="1.5" /><text dominant-baseline="middle" fill="black" font-family="Arial" font-size="12px" font-weight="bold" text-anchor="middle" x="370.46875" y="265.1953125">Living Room</text></g><g id="room_master_bedroom"><polygon fill="rgb(255,165,0)" fill-opacity="0.7" points="372.578125,306.328125 372.578125,409.6875 494.921875,409.6875 494.921875,306.328125" stroke="black" stroke-width="1.5" /><text dominant-baseline="middle" fill="black" font-family="Arial" font-size="12px" font-weight="bold" text-anchor="middle" x="434.8046875" y="359.0625">Master Bedroom</text></g><g id="room_common_room"><polygon fill="rgb(255,215,0)" fill-opacity="0.7" points="243.90625,359.0625 243.90625,460.3125 362.03125,460.3125 364.140625,359.0625" stroke="black" stroke-width="1.5" /><text dominant-baseline="middle" fill="black" font-family="Arial" font-size="12px" font-weight="bold" text-anchor="middle" x="305.078125" y="410.7421875">Common Room</text></g><g id="room_balcony"><polygon fill="rgb(107,142,35)" fill-opacity="0.7" points="507.578125,177.65625 507.578125,295.78125 556.09375,295.78125 556.09375,177.65625" stroke="black" stroke-width="1.5" /><text dominant-baseline="middle" fill="black" font-family="Arial" font-size="12px" font-weight="bold" text-anchor="middle" x="532.890625" y="237.7734375">Balcony</text></g><g id="room_kitchen"><polygon fill="rgb(240,128,128)" fill-opacity="0.7" points="243.90625,139.6875 243.90625,221.953125 305.078125,221.953125 302.96875,139.6875" stroke="black" stroke-width="1.5" /><text dominant-baseline="middle" fill="black" font-family="Arial" font-size="12px" font-weight="bold" text-anchor="middle" x="275.546875" y="181.875">Kitchen</text></g><g id="room_bathroom"><polygon fill="rgb(173,216,230)" fill-opacity="0.7" points="313.515625,177.65625 313.515625,221.953125 364.140625,221.953125 364.140625,177.65625" stroke="black" stroke-width="1.5" /><text dominant-baseline="middle" fill="black" font-family="Arial" font-size="12px" font-weight="bold" text-anchor="middle" x="339.8828125" y="200.859375">Bathroom</text></g><rect fill="red" fill-opacity="0.9" height="31.640625" id="main_door" stroke="darkred" stroke-width="3" width="10.546875" x="233.359375" y="236.71875" /><text dominant-baseline="middle" fill="white" font-family="Arial" font-size="9px" font-weight="bold" text-anchor="middle" x="238.6328125" y="252.5390625">Main Door</text><text fill="black" font-family="Arial" font-size="18px" font-weight="bold" text-anchor="middle" x="400.0" y="30">Floor Plan - ID: 8986</text></svg>