<?xml version="1.0" encoding="utf-8" ?>
<svg baseProfile="full" height="600px" version="1.1" viewBox="0 0 800 600" width="800px" xmlns="http://www.w3.org/2000/svg" xmlns:ev="http://www.w3.org/2001/xml-events" xmlns:xlink="http://www.w3.org/1999/xlink"><defs /><rect fill="white" height="600" width="800" x="0" y="0" /><polygon fill="none" id="floor_plan_boundary" points="545.546875,93.28125 433.75,93.28125 433.75,101.71875 537.109375,103.828125 537.109375,439.21875 431.640625,441.328125 429.53125,498.28125 313.515625,496.171875 313.515625,264.140625 262.890625,262.03125 262.890625,173.4375 378.90625,171.328125 378.90625,103.828125 395.78125,101.71875 395.78125,93.28125 370.46875,93.28125 368.359375,162.890625 254.453125,162.890625 254.453125,272.578125 305.078125,274.6875 305.078125,506.71875 440.078125,506.71875 442.1875,449.765625 545.546875,449.765625" stroke="black" stroke-linecap="butt" stroke-linejoin="miter" stroke-width="4" /><g id="room_living_room"><polygon fill="rgb(238,232,170)" fill-opacity="0.7" points="429.53125,103.828125 381.015625,103.828125 378.90625,173.4375 265.0,173.4375 265.0,262.03125 315.625,264.140625 315.625,439.21875 429.53125,439.21875" stroke="black" stroke-width="1.5" /><text dominant-baseline="middle" fill="black" font-family="Arial" font-size="12px" font-weight="bold" text-anchor="middle" x="348.3203125" y="272.578125">Living Room</text></g><g id="room_master_bedroom"><polygon fill="rgb(255,165,0)" fill-opacity="0.7" points="442.1875,297.890625 442.1875,439.21875 535.0,439.21875 535.0,297.890625" stroke="black" stroke-width="1.5" /><text dominant-baseline="middle" fill="black" font-family="Arial" font-size="12px" font-weight="bold" text-anchor="middle" x="489.6484375" y="369.609375">Master Bedroom</text></g><g id="room_common_room"><polygon fill="rgb(255,215,0)" fill-opacity="0.7" points="442.1875,171.328125 442.1875,285.234375 535.0,285.234375 535.0,171.328125" stroke="black" stroke-width="1.5" /><text dominant-baseline="middle" fill="black" font-family="Arial" font-size="12px" font-weight="bold" text-anchor="middle" x="489.6484375" y="229.3359375">Common Room</text></g><g id="room_bathroom"><polygon fill="rgb(173,216,230)" fill-opacity="0.7" points="442.1875,103.828125 442.1875,158.671875 535.0,158.671875 535.0,103.828125" stroke="black" stroke-width="1.5" /><text dominant-baseline="middle" fill="black" font-family="Arial" font-size="12px" font-weight="bold" text-anchor="middle" x="489.6484375" y="132.3046875">Bathroom</text></g><g id="room_balcony"><polygon fill="rgb(107,142,35)" fill-opacity="0.7" points="315.625,451.875 315.625,496.171875 429.53125,496.171875 429.53125,451.875" stroke="black" stroke-width="1.5" /><text dominant-baseline="middle" fill="black" font-family="Arial" font-size="12px" font-weight="bold" text-anchor="middle" x="373.6328125" y="475.078125">Balcony</text></g><rect fill="red" fill-opacity="0.9" height="10.546875" id="main_door" stroke="darkred" stroke-width="3" width="35.859375" x="397.890625" y="93.28125" /><text dominant-baseline="middle" fill="white" font-family="Arial" font-size="9px" font-weight="bold" text-anchor="middle" x="415.8203125" y="98.5546875">Main Door</text><text fill="black" font-family="Arial" font-size="18px" font-weight="bold" text-anchor="middle" x="400.0" y="30">Floor Plan - ID: 9029</text></svg>