<?xml version="1.0" encoding="utf-8" ?>
<svg baseProfile="full" height="600px" version="1.1" viewBox="0 0 800 600" width="800px" xmlns="http://www.w3.org/2000/svg" xmlns:ev="http://www.w3.org/2001/xml-events" xmlns:xlink="http://www.w3.org/1999/xlink"><defs /><rect fill="white" height="600" width="800" x="0" y="0" /><polygon fill="none" id="floor_plan_boundary" points="271.328125,175.546875 271.328125,316.875 222.8125,318.984375 222.8125,435.0 423.203125,435.0 425.3125,491.953125 577.1875,491.953125 577.1875,175.546875 553.984375,175.546875 553.984375,183.984375 568.75,186.09375 566.640625,483.515625 435.859375,483.515625 433.75,426.5625 231.25,424.453125 231.25,329.53125 279.765625,327.421875 279.765625,186.09375 433.75,183.984375 435.859375,116.484375 505.46875,116.484375 507.578125,183.984375 524.453125,183.984375 516.015625,173.4375 516.015625,108.046875 425.3125,108.046875 423.203125,175.546875" stroke="black" stroke-linecap="butt" stroke-linejoin="miter" stroke-width="4" /><g id="room_living_room"><polygon fill="rgb(238,232,170)" fill-opacity="0.7" points="566.640625,186.09375 518.125,186.09375 516.015625,226.171875 435.859375,226.171875 435.859375,274.6875 400.0,276.796875 400.0,316.875 435.859375,318.984375 435.859375,481.40625 566.640625,481.40625" stroke="black" stroke-width="1.5" /><text dominant-baseline="middle" fill="black" font-family="Arial" font-size="12px" font-weight="bold" text-anchor="middle" x="484.375" y="334.8046875">Living Room</text></g><g id="room_master_bedroom"><polygon fill="rgb(255,165,0)" fill-opacity="0.7" points="281.875,329.53125 281.875,424.453125 423.203125,424.453125 423.203125,329.53125" stroke="black" stroke-width="1.5" /><text dominant-baseline="middle" fill="black" font-family="Arial" font-size="12px" font-weight="bold" text-anchor="middle" x="353.59375" y="378.046875">Master Bedroom</text></g><g id="room_common_room"><polygon fill="rgb(255,215,0)" fill-opacity="0.7" points="281.875,186.09375 281.875,264.140625 423.203125,264.140625 423.203125,186.09375" stroke="black" stroke-width="1.5" /><text dominant-baseline="middle" fill="black" font-family="Arial" font-size="12px" font-weight="bold" text-anchor="middle" x="353.59375" y="226.171875">Common Room</text></g><g id="room_bathroom"><polygon fill="rgb(173,216,230)" fill-opacity="0.7" points="435.859375,118.59375 435.859375,213.515625 505.46875,213.515625 505.46875,118.59375" stroke="black" stroke-width="1.5" /><text dominant-baseline="middle" fill="black" font-family="Arial" font-size="12px" font-weight="bold" text-anchor="middle" x="471.71875" y="167.109375">Bathroom</text></g><g id="room_kitchen"><polygon fill="rgb(240,128,128)" fill-opacity="0.7" points="281.875,276.796875 281.875,316.875 387.34375,316.875 387.34375,276.796875" stroke="black" stroke-width="1.5" /><text dominant-baseline="middle" fill="black" font-family="Arial" font-size="12px" font-weight="bold" text-anchor="middle" x="335.6640625" y="297.890625">Kitchen</text></g><g id="room_balcony"><polygon fill="rgb(107,142,35)" fill-opacity="0.7" points="233.359375,329.53125 233.359375,424.453125 269.21875,424.453125 269.21875,329.53125" stroke="black" stroke-width="1.5" /><text dominant-baseline="middle" fill="black" font-family="Arial" font-size="12px" font-weight="bold" text-anchor="middle" x="252.34375" y="378.046875">Balcony</text></g><rect fill="red" fill-opacity="0.9" height="10.546875" id="main_door" stroke="darkred" stroke-width="3" width="27.421875" x="526.5625" y="175.546875" /><text dominant-baseline="middle" fill="white" font-family="Arial" font-size="9px" font-weight="bold" text-anchor="middle" x="540.2734375" y="180.8203125">Main Door</text><text fill="black" font-family="Arial" font-size="18px" font-weight="bold" text-anchor="middle" x="400.0" y="30">Floor Plan - ID: 9383</text></svg>