<?xml version="1.0" encoding="utf-8" ?>
<svg baseProfile="full" height="600px" version="1.1" viewBox="0 0 800 600" width="800px" xmlns="http://www.w3.org/2000/svg" xmlns:ev="http://www.w3.org/2001/xml-events" xmlns:xlink="http://www.w3.org/1999/xlink"><defs /><rect fill="white" height="600" width="800" x="0" y="0" /><polygon fill="none" id="floor_plan_boundary" points="566.640625,127.03125 478.046875,127.03125 475.9375,105.9375 376.796875,105.9375 374.6875,127.03125 277.65625,127.03125 277.65625,249.375 233.359375,251.484375 233.359375,466.640625 258.671875,466.640625 260.78125,491.953125 319.84375,491.953125 319.84375,468.75 336.71875,466.640625 338.828125,494.0625 471.71875,494.0625 471.71875,302.109375 530.78125,300.0 467.5,295.78125 465.390625,489.84375 345.15625,489.84375 343.046875,462.421875 315.625,462.421875 313.515625,487.734375 267.109375,487.734375 265.0,462.421875 237.578125,460.3125 237.578125,257.8125 281.875,255.703125 281.875,133.359375 381.015625,131.25 383.125,110.15625 469.609375,110.15625 471.71875,131.25 560.3125,131.25 562.421875,249.375 526.5625,253.59375 566.640625,255.703125" stroke="black" stroke-linecap="butt" stroke-linejoin="miter" stroke-width="4" /><g id="room_living_room"><polygon fill="rgb(238,232,170)" fill-opacity="0.7" points="383.125,175.546875 385.234375,253.59375 307.1875,257.8125 307.1875,327.421875 345.15625,329.53125 345.15625,441.328125 465.390625,441.328125 465.390625,295.78125 524.453125,293.671875 524.453125,257.8125 469.609375,255.703125 469.609375,175.546875" stroke="black" stroke-width="1.5" /><text dominant-baseline="middle" fill="black" font-family="Arial" font-size="12px" font-weight="bold" text-anchor="middle" x="416.875" y="309.4921875">Living Room</text></g><g id="room_master_bedroom"><polygon fill="rgb(255,165,0)" fill-opacity="0.7" points="239.6875,335.859375 239.6875,460.3125 265.0,460.3125 267.109375,485.625 313.515625,485.625 311.40625,464.53125 336.71875,460.3125 336.71875,335.859375" stroke="black" stroke-width="1.5" /><text dominant-baseline="middle" fill="black" font-family="Arial" font-size="12px" font-weight="bold" text-anchor="middle" x="289.2578125" y="411.796875">Master Bedroom</text></g><g id="room_common_room_2"><polygon fill="rgb(255,215,0)" fill-opacity="0.7" points="283.984375,133.359375 283.984375,249.375 374.6875,249.375 374.6875,133.359375" stroke="black" stroke-width="1.5" /><text dominant-baseline="middle" fill="black" font-family="Arial" font-size="12px" font-weight="bold" text-anchor="middle" x="330.390625" y="192.421875">Common Room 2</text></g><g id="room_common_room"><polygon fill="rgb(255,215,0)" fill-opacity="0.7" points="478.046875,133.359375 478.046875,249.375 560.3125,249.375 560.3125,133.359375" stroke="black" stroke-width="1.5" /><text dominant-baseline="middle" fill="black" font-family="Arial" font-size="12px" font-weight="bold" text-anchor="middle" x="520.234375" y="192.421875">Common Room</text></g><g id="room_kitchen"><polygon fill="rgb(240,128,128)" fill-opacity="0.7" points="383.125,112.265625 383.125,167.109375 469.609375,167.109375 469.609375,112.265625" stroke="black" stroke-width="1.5" /><text dominant-baseline="middle" fill="black" font-family="Arial" font-size="12px" font-weight="bold" text-anchor="middle" x="427.421875" y="140.7421875">Kitchen</text></g><g id="room_balcony"><polygon fill="rgb(107,142,35)" fill-opacity="0.7" points="345.15625,449.765625 345.15625,487.734375 465.390625,487.734375 465.390625,449.765625" stroke="black" stroke-width="1.5" /><text dominant-baseline="middle" fill="black" font-family="Arial" font-size="12px" font-weight="bold" text-anchor="middle" x="406.328125" y="469.8046875">Balcony</text></g><g id="room_bathroom"><polygon fill="rgb(173,216,230)" fill-opacity="0.7" points="239.6875,257.8125 239.6875,327.421875 298.75,327.421875 298.75,257.8125" stroke="black" stroke-width="1.5" /><text dominant-baseline="middle" fill="black" font-family="Arial" font-size="12px" font-weight="bold" text-anchor="middle" x="270.2734375" y="293.671875">Bathroom</text></g><rect fill="red" fill-opacity="0.9" height="40.078125" id="main_door" stroke="darkred" stroke-width="3" width="6.328125" x="526.5625" y="255.703125" /><text dominant-baseline="middle" fill="white" font-family="Arial" font-size="9px" font-weight="bold" text-anchor="middle" x="529.7265625" y="275.7421875">Main Door</text><text fill="black" font-family="Arial" font-size="18px" font-weight="bold" text-anchor="middle" x="400.0" y="30">Floor Plan - ID: 9622</text></svg>