<?xml version="1.0" encoding="utf-8" ?>
<svg baseProfile="full" height="600px" version="1.1" viewBox="0 0 800 600" width="800px" xmlns="http://www.w3.org/2000/svg" xmlns:ev="http://www.w3.org/2001/xml-events" xmlns:xlink="http://www.w3.org/1999/xlink"><defs /><rect fill="white" height="600" width="800" x="0" y="0" /><polygon fill="none" id="floor_plan_boundary" points="298.75,97.5 298.75,253.59375 307.1875,253.59375 309.296875,105.9375 471.71875,105.9375 473.828125,194.53125 505.46875,196.640625 505.46875,302.109375 473.828125,304.21875 473.828125,491.953125 378.90625,494.0625 376.796875,483.515625 294.53125,481.40625 294.53125,314.765625 307.1875,312.65625 307.1875,291.5625 298.75,291.5625 298.75,302.109375 286.09375,304.21875 286.09375,491.953125 366.25,491.953125 368.359375,502.5 482.265625,502.5 482.265625,314.765625 513.90625,312.65625 513.90625,186.09375 482.265625,183.984375 482.265625,97.5" stroke="black" stroke-linecap="butt" stroke-linejoin="miter" stroke-width="4" /><g id="room_living_room"><polygon fill="rgb(238,232,170)" fill-opacity="0.7" points="309.296875,196.640625 309.296875,302.109375 376.796875,302.109375 378.90625,359.0625 402.109375,359.0625 404.21875,302.109375 503.359375,302.109375 503.359375,196.640625" stroke="black" stroke-width="1.5" /><text dominant-baseline="middle" fill="black" font-family="Arial" font-size="12px" font-weight="bold" text-anchor="middle" x="407.3828125" y="278.90625">Living Room</text></g><g id="room_master_bedroom"><polygon fill="rgb(255,165,0)" fill-opacity="0.7" points="378.90625,371.71875 378.90625,491.953125 471.71875,491.953125 471.71875,380.15625 404.21875,380.15625 402.109375,371.71875" stroke="black" stroke-width="1.5" /><text dominant-baseline="middle" fill="black" font-family="Arial" font-size="12px" font-weight="bold" text-anchor="middle" x="426.3671875" y="432.890625">Master Bedroom</text></g><g id="room_common_room"><polygon fill="rgb(255,215,0)" fill-opacity="0.7" points="296.640625,314.765625 296.640625,435.0 366.25,435.0 366.25,314.765625" stroke="black" stroke-width="1.5" /><text dominant-baseline="middle" fill="black" font-family="Arial" font-size="12px" font-weight="bold" text-anchor="middle" x="332.5" y="375.9375">Common Room</text></g><g id="room_common_room_2"><polygon fill="rgb(255,215,0)" fill-opacity="0.7" points="378.90625,108.046875 378.90625,183.984375 471.71875,183.984375 471.71875,108.046875" stroke="black" stroke-width="1.5" /><text dominant-baseline="middle" fill="black" font-family="Arial" font-size="12px" font-weight="bold" text-anchor="middle" x="426.3671875" y="147.0703125">Common Room 2</text></g><g id="room_kitchen"><polygon fill="rgb(240,128,128)" fill-opacity="0.7" points="309.296875,108.046875 309.296875,183.984375 366.25,183.984375 366.25,108.046875" stroke="black" stroke-width="1.5" /><text dominant-baseline="middle" fill="black" font-family="Arial" font-size="12px" font-weight="bold" text-anchor="middle" x="338.828125" y="147.0703125">Kitchen</text></g><g id="room_bathroom"><polygon fill="rgb(173,216,230)" fill-opacity="0.7" points="414.765625,314.765625 414.765625,367.5 471.71875,367.5 471.71875,314.765625" stroke="black" stroke-width="1.5" /><text dominant-baseline="middle" fill="black" font-family="Arial" font-size="12px" font-weight="bold" text-anchor="middle" x="444.296875" y="342.1875">Bathroom</text></g><g id="room_balcony"><polygon fill="rgb(107,142,35)" fill-opacity="0.7" points="296.640625,447.65625 296.640625,481.40625 366.25,481.40625 366.25,447.65625" stroke="black" stroke-width="1.5" /><text dominant-baseline="middle" fill="black" font-family="Arial" font-size="12px" font-weight="bold" text-anchor="middle" x="332.5" y="465.5859375">Balcony</text></g><rect fill="red" fill-opacity="0.9" height="35.859375" id="main_door" stroke="darkred" stroke-width="3" width="10.546875" x="298.75" y="255.703125" /><text dominant-baseline="middle" fill="white" font-family="Arial" font-size="9px" font-weight="bold" text-anchor="middle" x="304.0234375" y="273.6328125">Main Door</text><text fill="black" font-family="Arial" font-size="18px" font-weight="bold" text-anchor="middle" x="400.0" y="30">Floor Plan - ID: 9639</text></svg>