<?xml version="1.0" encoding="utf-8" ?>
<svg baseProfile="full" height="600px" version="1.1" viewBox="0 0 800 600" width="800px" xmlns="http://www.w3.org/2000/svg" xmlns:ev="http://www.w3.org/2001/xml-events" xmlns:xlink="http://www.w3.org/1999/xlink"><defs /><rect fill="white" height="600" width="800" x="0" y="0" /><polygon fill="none" id="floor_plan_boundary" points="300.859375,103.828125 300.859375,224.0625 269.21875,226.171875 269.21875,447.65625 393.671875,447.65625 395.78125,496.171875 530.78125,496.171875 530.78125,272.578125 522.34375,283.125 520.234375,487.734375 406.328125,487.734375 404.21875,439.21875 277.65625,437.109375 277.65625,236.71875 309.296875,234.609375 311.40625,112.265625 480.15625,112.265625 482.265625,281.015625 490.703125,281.015625 490.703125,103.828125" stroke="black" stroke-linecap="butt" stroke-linejoin="miter" stroke-width="4" /><g id="room_living_room"><polygon fill="rgb(238,232,170)" fill-opacity="0.7" points="406.328125,179.765625 406.328125,255.703125 364.140625,257.8125 364.140625,289.453125 406.328125,291.5625 406.328125,437.109375 520.234375,437.109375 520.234375,283.125 480.15625,281.015625 480.15625,179.765625" stroke="black" stroke-width="1.5" /><text dominant-baseline="middle" fill="black" font-family="Arial" font-size="12px" font-weight="bold" text-anchor="middle" x="443.2421875" y="309.4921875">Living Room</text></g><g id="room_master_bedroom"><polygon fill="rgb(255,165,0)" fill-opacity="0.7" points="279.765625,302.109375 279.765625,437.109375 393.671875,437.109375 393.671875,302.109375" stroke="black" stroke-width="1.5" /><text dominant-baseline="middle" fill="black" font-family="Arial" font-size="12px" font-weight="bold" text-anchor="middle" x="337.7734375" y="370.6640625">Master Bedroom</text></g><g id="room_common_room"><polygon fill="rgb(255,215,0)" fill-opacity="0.7" points="311.40625,114.375 311.40625,224.0625 362.03125,224.0625 364.140625,245.15625 393.671875,245.15625 393.671875,114.375" stroke="black" stroke-width="1.5" /><text dominant-baseline="middle" fill="black" font-family="Arial" font-size="12px" font-weight="bold" text-anchor="middle" x="353.59375" y="180.8203125">Common Room</text></g><g id="room_balcony"><polygon fill="rgb(107,142,35)" fill-opacity="0.7" points="406.328125,449.765625 406.328125,485.625 520.234375,485.625 520.234375,449.765625" stroke="black" stroke-width="1.5" /><text dominant-baseline="middle" fill="black" font-family="Arial" font-size="12px" font-weight="bold" text-anchor="middle" x="464.3359375" y="468.75">Balcony</text></g><g id="room_kitchen"><polygon fill="rgb(240,128,128)" fill-opacity="0.7" points="406.328125,114.375 406.328125,167.109375 480.15625,167.109375 480.15625,114.375" stroke="black" stroke-width="1.5" /><text dominant-baseline="middle" fill="black" font-family="Arial" font-size="12px" font-weight="bold" text-anchor="middle" x="444.296875" y="141.796875">Kitchen</text></g><g id="room_bathroom"><polygon fill="rgb(173,216,230)" fill-opacity="0.7" points="279.765625,236.71875 279.765625,289.453125 351.484375,289.453125 351.484375,236.71875" stroke="black" stroke-width="1.5" /><text dominant-baseline="middle" fill="black" font-family="Arial" font-size="12px" font-weight="bold" text-anchor="middle" x="316.6796875" y="264.140625">Bathroom</text></g><rect fill="red" fill-opacity="0.9" height="10.546875" id="main_door" stroke="darkred" stroke-width="3" width="31.640625" x="492.8125" y="272.578125" /><text dominant-baseline="middle" fill="white" font-family="Arial" font-size="9px" font-weight="bold" text-anchor="middle" x="508.6328125" y="277.8515625">Main Door</text><text fill="black" font-family="Arial" font-size="18px" font-weight="bold" text-anchor="middle" x="400.0" y="30">Floor Plan - ID: 9643</text></svg>