<?xml version="1.0" encoding="utf-8" ?>
<svg baseProfile="full" height="600px" version="1.1" viewBox="0 0 800 600" width="800px" xmlns="http://www.w3.org/2000/svg" xmlns:ev="http://www.w3.org/2001/xml-events" xmlns:xlink="http://www.w3.org/1999/xlink"><defs /><rect fill="white" height="600" width="800" x="0" y="0" /><polygon fill="none" id="floor_plan_boundary" points="279.765625,101.71875 279.765625,173.4375 294.53125,173.4375 296.640625,179.765625 305.078125,179.765625 305.078125,165.0 288.203125,162.890625 290.3125,110.15625 414.765625,110.15625 416.875,173.4375 511.796875,175.546875 511.796875,487.734375 425.3125,489.84375 423.203125,426.5625 288.203125,424.453125 288.203125,219.84375 305.078125,217.734375 305.078125,209.296875 279.765625,209.296875 279.765625,435.0 412.65625,435.0 414.765625,498.28125 520.234375,498.28125 520.234375,165.0 423.203125,165.0 421.09375,101.71875" stroke="black" stroke-linecap="butt" stroke-linejoin="miter" stroke-width="4" /><g id="room_living_room"><polygon fill="rgb(238,232,170)" fill-opacity="0.7" points="509.6875,175.546875 416.875,175.546875 414.765625,112.265625 381.015625,112.265625 378.90625,175.546875 307.1875,175.546875 307.1875,217.734375 290.3125,219.84375 290.3125,316.875 414.765625,316.875 418.984375,268.359375 509.6875,270.46875" stroke="black" stroke-width="1.5" /><text dominant-baseline="middle" fill="black" font-family="Arial" font-size="12px" font-weight="bold" text-anchor="middle" x="401.0546875" y="215.625">Living Room</text></g><g id="room_balcony"><polygon fill="rgb(107,142,35)" fill-opacity="0.7" points="290.3125,329.53125 290.3125,424.453125 423.203125,424.453125 425.3125,487.734375 509.6875,487.734375 509.6875,390.703125 416.875,390.703125 414.765625,329.53125" stroke="black" stroke-width="1.5" /><text dominant-baseline="middle" fill="black" font-family="Arial" font-size="12px" font-weight="bold" text-anchor="middle" x="401.0546875" y="409.6875">Balcony</text></g><g id="room_master_bedroom"><polygon fill="rgb(255,165,0)" fill-opacity="0.7" points="423.203125,278.90625 423.203125,382.265625 509.6875,382.265625 509.6875,278.90625" stroke="black" stroke-width="1.5" /><text dominant-baseline="middle" fill="black" font-family="Arial" font-size="12px" font-weight="bold" text-anchor="middle" x="467.5" y="331.640625">Master Bedroom</text></g><g id="room_bathroom"><polygon fill="rgb(173,216,230)" fill-opacity="0.7" points="290.3125,112.265625 290.3125,162.890625 372.578125,162.890625 372.578125,112.265625" stroke="black" stroke-width="1.5" /><text dominant-baseline="middle" fill="black" font-family="Arial" font-size="12px" font-weight="bold" text-anchor="middle" x="332.5" y="138.6328125">Bathroom</text></g><rect fill="red" fill-opacity="0.9" height="27.421875" id="main_door" stroke="darkred" stroke-width="3" width="10.546875" x="296.640625" y="181.875" /><text dominant-baseline="middle" fill="white" font-family="Arial" font-size="9px" font-weight="bold" text-anchor="middle" x="301.9140625" y="195.5859375">Main Door</text><text fill="black" font-family="Arial" font-size="18px" font-weight="bold" text-anchor="middle" x="400.0" y="30">Floor Plan - ID: 9743</text></svg>