<?xml version="1.0" encoding="utf-8" ?>
<svg baseProfile="full" height="600px" version="1.1" viewBox="0 0 800 600" width="800px" xmlns="http://www.w3.org/2000/svg" xmlns:ev="http://www.w3.org/2001/xml-events" xmlns:xlink="http://www.w3.org/1999/xlink"><defs /><rect fill="white" height="600" width="800" x="0" y="0" /><polygon fill="none" id="floor_plan_boundary" points="208.046875,179.765625 208.046875,316.875 254.453125,318.984375 254.453125,397.03125 343.046875,397.03125 345.15625,420.234375 446.40625,420.234375 448.515625,394.921875 488.59375,394.921875 490.703125,420.234375 591.953125,420.234375 591.953125,179.765625 414.765625,179.765625 414.765625,188.203125 583.515625,190.3125 581.40625,411.796875 501.25,411.796875 499.140625,386.484375 437.96875,386.484375 435.859375,411.796875 355.703125,411.796875 353.59375,388.59375 265.0,388.59375 262.890625,308.4375 216.484375,306.328125 216.484375,190.3125 368.359375,188.203125 368.359375,179.765625" stroke="black" stroke-linecap="butt" stroke-linejoin="miter" stroke-width="4" /><g id="room_living_room"><polygon fill="rgb(238,232,170)" fill-opacity="0.7" points="353.59375,190.3125 353.59375,243.046875 313.515625,245.15625 313.515625,274.6875 353.59375,276.796875 355.703125,409.6875 435.859375,409.6875 437.96875,384.375 471.71875,384.375 471.71875,283.125 509.6875,281.015625 509.6875,251.484375 471.71875,249.375 471.71875,190.3125" stroke="black" stroke-width="1.5" /><text dominant-baseline="middle" fill="black" font-family="Arial" font-size="12px" font-weight="bold" text-anchor="middle" x="412.65625" y="301.0546875">Living Room</text></g><g id="room_master_bedroom"><polygon fill="rgb(255,165,0)" fill-opacity="0.7" points="480.15625,289.453125 480.15625,384.375 501.25,386.484375 501.25,409.6875 581.40625,409.6875 581.40625,289.453125" stroke="black" stroke-width="1.5" /><text dominant-baseline="middle" fill="black" font-family="Arial" font-size="12px" font-weight="bold" text-anchor="middle" x="531.8359375" y="350.625">Master Bedroom</text></g><g id="room_master_bedroom_2"><polygon fill="rgb(255,165,0)" fill-opacity="0.7" points="262.890625,264.140625 265.0,386.484375 345.15625,386.484375 345.15625,283.125 307.1875,283.125 305.078125,264.140625" stroke="black" stroke-width="1.5" /><text dominant-baseline="middle" fill="black" font-family="Arial" font-size="12px" font-weight="bold" text-anchor="middle" x="305.078125" y="326.3671875">Master Bedroom 2</text></g><g id="room_kitchen"><polygon fill="rgb(240,128,128)" fill-opacity="0.7" points="218.59375,190.3125 218.59375,251.484375 305.078125,251.484375 307.1875,236.71875 345.15625,236.71875 345.15625,190.3125" stroke="black" stroke-width="1.5" /><text dominant-baseline="middle" fill="black" font-family="Arial" font-size="12px" font-weight="bold" text-anchor="middle" x="282.9296875" y="221.953125">Kitchen</text></g><g id="room_bathroom"><polygon fill="rgb(173,216,230)" fill-opacity="0.7" points="480.15625,190.3125 480.15625,243.046875 509.6875,243.046875 507.578125,238.828125 511.796875,234.609375 545.546875,234.609375 545.546875,190.3125" stroke="black" stroke-width="1.5" /><text dominant-baseline="middle" fill="black" font-family="Arial" font-size="12px" font-weight="bold" text-anchor="middle" x="513.90625" y="217.734375">Bathroom</text></g><g id="room_balcony"><polygon fill="rgb(107,142,35)" fill-opacity="0.7" points="218.59375,264.140625 218.59375,306.328125 254.453125,306.328125 254.453125,264.140625" stroke="black" stroke-width="1.5" /><text dominant-baseline="middle" fill="black" font-family="Arial" font-size="12px" font-weight="bold" text-anchor="middle" x="237.578125" y="286.2890625">Balcony</text></g><g id="room_room_7"><polygon fill="rgb(221,160,221)" fill-opacity="0.7" points="553.984375,190.3125 553.984375,234.609375 581.40625,234.609375 581.40625,190.3125" stroke="black" stroke-width="1.5" /><text dominant-baseline="middle" fill="black" font-family="Arial" font-size="12px" font-weight="bold" text-anchor="middle" x="568.75" y="213.515625">Room 7</text></g><rect fill="red" fill-opacity="0.9" height="10.546875" id="main_door" stroke="darkred" stroke-width="3" width="44.296875" x="370.46875" y="179.765625" /><text dominant-baseline="middle" fill="white" font-family="Arial" font-size="9px" font-weight="bold" text-anchor="middle" x="392.6171875" y="185.0390625">Main Door</text><text fill="black" font-family="Arial" font-size="18px" font-weight="bold" text-anchor="middle" x="400.0" y="30">Floor Plan - ID: 9861</text></svg>