<?xml version="1.0" encoding="utf-8" ?>
<svg baseProfile="full" height="600px" version="1.1" viewBox="0 0 800 600" width="800px" xmlns="http://www.w3.org/2000/svg" xmlns:ev="http://www.w3.org/2001/xml-events" xmlns:xlink="http://www.w3.org/1999/xlink"><defs /><rect fill="white" height="600" width="800" x="0" y="0" /><polygon fill="none" id="floor_plan_boundary" points="551.875,120.703125 446.40625,120.703125 444.296875,175.546875 364.140625,175.546875 364.140625,183.984375 454.84375,183.984375 456.953125,129.140625 543.4375,131.25 543.4375,262.03125 482.265625,264.140625 480.15625,470.859375 385.234375,470.859375 383.125,397.03125 256.5625,397.03125 256.5625,186.09375 313.515625,183.984375 313.515625,175.546875 248.125,175.546875 248.125,405.46875 372.578125,407.578125 374.6875,479.296875 490.703125,479.296875 490.703125,274.6875 551.875,272.578125" stroke="black" stroke-linecap="butt" stroke-linejoin="miter" stroke-width="4" /><g id="room_living_room"><polygon fill="rgb(238,232,170)" fill-opacity="0.7" points="258.671875,186.09375 258.671875,397.03125 372.578125,397.03125 372.578125,264.140625 444.296875,262.03125 444.296875,238.828125 359.921875,238.828125 357.8125,186.09375" stroke="black" stroke-width="1.5" /><text dominant-baseline="middle" fill="black" font-family="Arial" font-size="12px" font-weight="bold" text-anchor="middle" x="352.5390625" y="292.6171875">Living Room</text></g><g id="room_master_bedroom"><polygon fill="rgb(255,165,0)" fill-opacity="0.7" points="456.953125,131.25 456.953125,262.03125 541.328125,262.03125 541.328125,131.25" stroke="black" stroke-width="1.5" /><text dominant-baseline="middle" fill="black" font-family="Arial" font-size="12px" font-weight="bold" text-anchor="middle" x="500.1953125" y="197.6953125">Master Bedroom</text></g><g id="room_common_room"><polygon fill="rgb(255,215,0)" fill-opacity="0.7" points="385.234375,335.859375 385.234375,432.890625 480.15625,432.890625 480.15625,335.859375" stroke="black" stroke-width="1.5" /><text dominant-baseline="middle" fill="black" font-family="Arial" font-size="12px" font-weight="bold" text-anchor="middle" x="433.75" y="385.4296875">Common Room</text></g><g id="room_kitchen"><polygon fill="rgb(240,128,128)" fill-opacity="0.7" points="385.234375,274.6875 385.234375,327.421875 480.15625,327.421875 480.15625,274.6875" stroke="black" stroke-width="1.5" /><text dominant-baseline="middle" fill="black" font-family="Arial" font-size="12px" font-weight="bold" text-anchor="middle" x="433.75" y="302.109375">Kitchen</text></g><g id="room_bathroom"><polygon fill="rgb(173,216,230)" fill-opacity="0.7" points="366.25,186.09375 366.25,230.390625 444.296875,230.390625 444.296875,186.09375" stroke="black" stroke-width="1.5" /><text dominant-baseline="middle" fill="black" font-family="Arial" font-size="12px" font-weight="bold" text-anchor="middle" x="406.328125" y="209.296875">Bathroom</text></g><g id="room_balcony"><polygon fill="rgb(107,142,35)" fill-opacity="0.7" points="385.234375,445.546875 385.234375,468.75 480.15625,468.75 480.15625,445.546875" stroke="black" stroke-width="1.5" /><text dominant-baseline="middle" fill="black" font-family="Arial" font-size="12px" font-weight="bold" text-anchor="middle" x="433.75" y="458.203125">Balcony</text></g><rect fill="red" fill-opacity="0.9" height="10.546875" id="main_door" stroke="darkred" stroke-width="3" width="48.515625" x="315.625" y="175.546875" /><text dominant-baseline="middle" fill="white" font-family="Arial" font-size="9px" font-weight="bold" text-anchor="middle" x="339.8828125" y="180.8203125">Main Door</text><text fill="black" font-family="Arial" font-size="18px" font-weight="bold" text-anchor="middle" x="400.0" y="30">Floor Plan - ID: 994</text></svg>